<?xml version="1.0" ?>
<svg xmlns="http://www.w3.org/2000/svg" xmlns:cc="http://creativecommons.org/ns#" xmlns:dc="http://purl.org/dc/elements/1.1/" xmlns:ev="http://www.w3.org/2001/xml-events" xmlns:inkscape="http://www.inkscape.org/namespaces/inkscape" xmlns:rdf="http://www.w3.org/1999/02/22-rdf-syntax-ns#" xmlns:sodipodi="http://sodipodi.sourceforge.net/DTD/sodipodi-0.dtd" xmlns:svg="http://www.w3.org/2000/svg" xmlns:xlink="http://www.w3.org/1999/xlink" baseProfile="full" height="210mm" id="svg2850" inkscape:export-filename=".\USSEnterprise_01.png" inkscape:export-xdpi="90" inkscape:export-ydpi="90" inkscape:output-extension="org.inkscape.output.svg.inkscape" inkscape:version="0.92.4 (5da689c313, 2019-01-14)" sodipodi:docname="harry-potter.svg" sodipodi:version="0.32" style="display:inline" version="1.1" viewBox="0 0 1122.519698175679 793.7007966898741" width="297mm">
	<defs/>
	<path d="M 131.7903190082127,35.005019008212344 L 104.66041900821267,29.325819008212306" fill="none" id="path295" inkscape:connector-curvature="0" stroke-width="1" style="display:inline;opacity:1;vector-effect:none;fill:none;fill-opacity:1;stroke:#000000;stroke-width:1;stroke-linecap:round;stroke-linejoin:round;stroke-dasharray:none;stroke-dashoffset:0;stroke-opacity:1;marker:none" transform="translate(0.0,0.0)"/>
	<path d="M 104.66041900821267,29.325819008212306 L 79.15286900821263,27.536719008212344" fill="none" id="path296" inkscape:connector-curvature="0" stroke-width="1" style="display:inline;opacity:1;vector-effect:none;fill:none;fill-opacity:1;stroke:#000000;stroke-width:1;stroke-linecap:round;stroke-linejoin:round;stroke-dasharray:none;stroke-dashoffset:0;stroke-opacity:1;marker:none" transform="translate(0.0,0.0)"/>
	<path d="M 54.21153900821275,29.34721900821239 L 27.43478900821276,34.61561900821232" fill="none" id="path297" inkscape:connector-curvature="0" stroke-width="1" style="display:inline;opacity:1;vector-effect:none;fill:none;fill-opacity:1;stroke:#000000;stroke-width:1;stroke-linecap:round;stroke-linejoin:round;stroke-dasharray:none;stroke-dashoffset:0;stroke-opacity:1;marker:none" transform="translate(0.0,0.0)"/>
	<path d="M 27.434789008212647,34.61561900821232 L 32.864079008212684,103.78901900821245" fill="none" id="path298" inkscape:connector-curvature="0" stroke-width="1" style="display:inline;opacity:1;vector-effect:none;fill:none;fill-opacity:1;stroke:#000000;stroke-width:1;stroke-linecap:round;stroke-linejoin:round;stroke-dasharray:none;stroke-dashoffset:0;stroke-opacity:1;marker:none" transform="translate(0.0,0.0)"/>
	<path d="M 79.15286900821275,27.536719008212344 L 54.21153900821275,29.34721900821239" fill="none" id="path299" inkscape:connector-curvature="0" stroke-width="1" style="display:inline;opacity:1;vector-effect:none;fill:none;fill-opacity:1;stroke:#000000;stroke-width:1;stroke-linecap:round;stroke-linejoin:round;stroke-dasharray:none;stroke-dashoffset:0;stroke-opacity:1;marker:none" transform="translate(0.0,0.0)"/>
	<path d="M 56.05843900821276,102.97301900821265 L 79.15286900821275,102.09421900821269 L 69.26157900821272,121.96471900821268 L 76.49936900821274,138.32341900821245 L 95.31124900821271,139.1879190082126 L 109.32827900821269,130.3121190082128 L 102.26951900821268,102.96701900821279 L 125.46905900821264,104.1027190082126 L 131.7903190082127,35.005119008212546 L 124.9833090082127,14.272919008212625 L 119.21151900821269,13.064719008212592 L 104.66041900821267,29.32591900821251 L 95.0988090082127,9.711119008212677 L 91.35888900821271,9.448819008212809 L 79.15286900821275,27.536819008213 L 66.90269900821272,9.478719008212806 L 63.7252490082127,9.709219008212926 L 54.21153900821275,29.347219008212846 L 39.85801900821275,12.9113190082129 L 34.49188900821275,13.967219008212737 L 27.43478900821276,34.615619008212775 L 9.448819008212809,46.97141900821259 L 13.170669008212826,94.39061900821241 L 32.8640790082128,103.78901900821245 L 25.988969008212848,132.21451900821228 L 39.610769008212856,139.11881900821243 L 58.4299090082128,138.42961900821263 L 66.05898900821285,123.88321900821245 L 56.05843900821276,102.97301900821265" fill="none" id="path353" inkscape:connector-curvature="0" stroke-width="1" style="display:inline;opacity:1;vector-effect:none;fill:none;fill-opacity:1;stroke:#000000;stroke-width:1;stroke-linecap:round;stroke-linejoin:round;stroke-dasharray:none;stroke-dashoffset:0;stroke-opacity:1;marker:none" transform="translate(0.0,0.0)"/>
	<path d="M 9.448819008212809,119.85871900821286 L 64.82281900821272,136.69921900821265 L 108.2187190082127,142.48401900821256 L 163.08301900821266,141.61801900821257 L 218.31701900821258,139.7329190082126 L 259.59071900821255,135.42341900821276 L 311.83531900821254,121.91081900821274 L 290.74331900821244,12.968919008212936 L 261.6625190082125,12.90991900821274 L 234.8970190082125,23.069819008212846 L 197.64641900821243,39.411419008213045 L 163.75231900821245,40.868819008212824 L 129.82701900821235,40.77881900821268 L 92.5750190082124,24.113319008212613 L 63.90861900821233,14.118719008212622 L 37.24811900821237,9.448819008212752 L 9.448819008212809,119.85871900821286" fill="none" id="path361" inkscape:connector-curvature="0" stroke-width="1" style="display:inline;opacity:1;vector-effect:none;fill:none;fill-opacity:1;stroke:#000000;stroke-width:1;stroke-linecap:round;stroke-linejoin:round;stroke-dasharray:none;stroke-dashoffset:0;stroke-opacity:1;marker:none" transform="translate(0.0,147.40157652811948)"/>
	<path d="M 28.237479008212773,28.321319008213663 L 28.635499008212747,68.4741190082135" fill="none" id="path226" inkscape:connector-curvature="0" stroke-width="1" style="display:inline;opacity:1;vector-effect:none;fill:none;fill-opacity:1;stroke:#000000;stroke-width:1;stroke-linecap:round;stroke-linejoin:round;stroke-dasharray:none;stroke-dashoffset:0;stroke-opacity:1;marker:none" transform="translate(139.84252132154924,0.0)"/>
	<path d="M 60.22593900821275,28.39881900821399 L 28.237479008212773,28.321819008213765" fill="none" id="path228" inkscape:connector-curvature="0" stroke-width="1" style="display:inline;opacity:1;vector-effect:none;fill:none;fill-opacity:1;stroke:#000000;stroke-width:1;stroke-linecap:round;stroke-linejoin:round;stroke-dasharray:none;stroke-dashoffset:0;stroke-opacity:1;marker:none" transform="translate(139.84252132154924,0.0)"/>
	<path d="M 108.04092900821277,31.152619008213946 L 86.8466190082128,30.365519008213937" fill="none" id="path230" inkscape:connector-curvature="0" stroke-width="1" style="display:inline;opacity:1;vector-effect:none;fill:none;fill-opacity:1;stroke:#000000;stroke-width:1;stroke-linecap:round;stroke-linejoin:round;stroke-dasharray:none;stroke-dashoffset:0;stroke-opacity:1;marker:none" transform="translate(139.84252132154924,0.0)"/>
	<path d="M 162.63068900821278,36.19331900821396 L 130.4560590082128,33.40991900821416" fill="none" id="path232" inkscape:connector-curvature="0" stroke-width="1" style="display:inline;opacity:1;vector-effect:none;fill:none;fill-opacity:1;stroke:#000000;stroke-width:1;stroke-linecap:round;stroke-linejoin:round;stroke-dasharray:none;stroke-dashoffset:0;stroke-opacity:1;marker:none" transform="translate(139.84252132154924,0.0)"/>
	<path d="M 217.22043900821276,31.152619008213946 L 194.80534900821274,33.40991900821416" fill="none" id="path233" inkscape:connector-curvature="0" stroke-width="1" style="display:inline;opacity:1;vector-effect:none;fill:none;fill-opacity:1;stroke:#000000;stroke-width:1;stroke-linecap:round;stroke-linejoin:round;stroke-dasharray:none;stroke-dashoffset:0;stroke-opacity:1;marker:none" transform="translate(139.84252132154924,0.0)"/>
	<path d="M 264.73563900821273,28.17631900821368 L 238.12141900821277,36.072819008213514" fill="none" id="path235" inkscape:connector-curvature="0" stroke-width="1" style="display:inline;opacity:1;vector-effect:none;fill:none;fill-opacity:1;stroke:#000000;stroke-width:1;stroke-linecap:round;stroke-linejoin:round;stroke-dasharray:none;stroke-dashoffset:0;stroke-opacity:1;marker:none" transform="translate(139.84252132154924,0.0)"/>
	<path d="M 296.6246490082127,68.01451900821382 L 296.7225490082127,27.85991900821398 L 264.73553900821275,28.176219008213934 L 248.90029900821273,13.162719008213912 L 243.2057590082127,14.852319008214067 L 238.12131900821274,36.07281900821397 L 217.22033900821273,31.152619008213946 L 204.47119900821272,13.44321900821376 L 203.7673790082127,13.514219008213672 L 194.8052490082127,33.41001900821345 L 162.63057900821272,36.19331900821351 L 153.3892990082127,16.425719008213377 L 142.9545890082127,15.523019008213282 L 130.45595900821272,33.41001900821345 L 108.04082900821274,31.15271900821324 L 98.14503900821276,11.874519008213042 L 86.84651900821277,30.365519008213028 L 60.22582900821274,28.39891900821283 L 49.36108900821276,9.474819008212648 L 39.193669008212765,9.448819008212809 L 28.23737900821274,28.320019008212853 L 9.448819008212752,39.41731900821276 L 9.630609008212758,57.75011900821289 L 28.635439008212785,68.4728190082127 L 55.34426900821276,67.09011900821258 L 90.14215900821276,68.40631900821279 L 112.95942900821277,71.19101900821295 L 136.18930900821275,77.1957190082129 L 162.63061900821273,80.93601900821284 L 189.07196900821273,77.1957190082129 L 212.3018490082127,71.19101900821295 L 235.11911900821272,68.40651900821274 L 269.90615900821274,66.83031900821277 L 296.6246490082127,68.01451900821382" fill="none" id="path343" inkscape:connector-curvature="0" sodipodi:nodetypes="cccccccccccccccccccccccccccccccccc" stroke-width="1" style="display:inline;opacity:1;vector-effect:none;fill:none;fill-opacity:1;stroke:#000000;stroke-width:1;stroke-linecap:round;stroke-linejoin:round;stroke-dasharray:none;stroke-dashoffset:0;stroke-opacity:1;marker:none" transform="translate(139.84252132154924,0.0)"/>
	<path d="M 108.77651900821286,94.80041900821271 L 94.25058900821284,170.65951900821284" fill="none" id="path251" inkscape:connector-curvature="0" stroke-width="1" style="display:inline;opacity:1;vector-effect:none;fill:none;fill-opacity:1;stroke:#000000;stroke-width:1;stroke-linecap:round;stroke-linejoin:round;stroke-dasharray:none;stroke-dashoffset:0;stroke-opacity:1;marker:none" transform="translate(427.08661917121793,0.0)"/>
	<path d="M 79.72468900821286,94.80041900821271 L 49.31435900821282,9.448819008212752" fill="none" id="path252" inkscape:connector-curvature="0" stroke-width="1" style="display:inline;opacity:1;vector-effect:none;fill:none;fill-opacity:1;stroke:#000000;stroke-width:1;stroke-linecap:round;stroke-linejoin:round;stroke-dasharray:none;stroke-dashoffset:0;stroke-opacity:1;marker:none" transform="translate(427.08661917121793,0.0)"/>
	<path d="M 94.25058900821284,170.65959900821292 L 79.72468900821286,94.80045900821295 L 94.14707900821281,77.84785900821294 L 77.03613900821279,29.823199008212953 L 49.31435900821282,9.448899008212948 L 9.448819008212809,113.82366900821296 L 25.722009008212808,175.89790900821293 L 94.25058900821284,260.86726900821293 L 162.7791590082129,175.89780900821296 L 179.05235900821287,113.82376900821299 L 139.18691900821284,9.44899900821298 L 108.77651900821286,94.80045900821295 L 87.75189900821283,102.10559900821295 L 84.43768900821283,119.41336900821295 L 94.25058900821284,170.65959900821292" fill="none" id="path347" inkscape:connector-curvature="0" sodipodi:nodetypes="ccccccccccccccc" stroke-width="1" style="display:inline;opacity:1;vector-effect:none;fill:none;fill-opacity:1;stroke:#000000;stroke-width:1;stroke-linecap:round;stroke-linejoin:round;stroke-dasharray:none;stroke-dashoffset:0;stroke-opacity:1;marker:none" transform="translate(427.08661917121793,0.0)"/>
	<path d="M 71.42951900821265,96.04191900821286 L 127.66951900821266,37.027519008212835" fill="none" id="path9" inkscape:connector-curvature="0" stroke-width="1" style="display:inline;opacity:1;vector-effect:none;fill:none;fill-opacity:1;stroke:#000000;stroke-width:1;stroke-linecap:round;stroke-linejoin:round;stroke-dasharray:none;stroke-dashoffset:0;stroke-opacity:1;marker:none" transform="translate(0.0,302.3622082628092)"/>
	<path d="M 15.468619008212613,37.02381900821263 L 71.42951900821265,96.0419190082124" fill="none" id="path10" inkscape:connector-curvature="0" stroke-width="1" style="display:inline;opacity:1;vector-effect:none;fill:none;fill-opacity:1;stroke:#000000;stroke-width:1;stroke-linecap:round;stroke-linejoin:round;stroke-dasharray:none;stroke-dashoffset:0;stroke-opacity:1;marker:none" transform="translate(0.0,302.3622082628092)"/>
	<path d="M 133.64841900821273,9.448819008212809 L 113.23071900821276,29.49341900821298 L 71.43141900821286,37.85381900821301 L 29.76591900821279,29.49841900821309 L 9.448819008212809,9.454019008212867 L 15.46861900821284,37.02381900821308 L 11.745019008212807,49.57591900821296 L 71.42951900821288,96.04191900821286 L 131.3615190082129,49.58881900821268 L 127.66951900821289,37.027519008212835 L 133.64841900821273,9.448819008212809" fill="none" id="path301" inkscape:connector-curvature="0" sodipodi:nodetypes="ccccccccccc" stroke-width="1" style="display:inline;opacity:1;vector-effect:none;fill:none;fill-opacity:1;stroke:#000000;stroke-width:1;stroke-linecap:round;stroke-linejoin:round;stroke-dasharray:none;stroke-dashoffset:0;stroke-opacity:1;marker:none" transform="translate(0.0,302.3622082628092)"/>
	<path d="M 708.5480290082128,47.98551900821286 L 622.2941290082128,26.343019008212934" fill="none" id="path253" inkscape:connector-curvature="0" stroke-width="1" style="display:inline;opacity:1;vector-effect:none;fill:none;fill-opacity:1;stroke:#000000;stroke-width:1;stroke-linecap:round;stroke-linejoin:round;stroke-dasharray:none;stroke-dashoffset:0;stroke-opacity:1;marker:none" transform="translate(0.0,400.62992594822214)"/>
	<path d="M 431.61982900821295,70.76301900821255 L 358.99842900821295,103.87621900821233" fill="none" id="path254" inkscape:connector-curvature="0" stroke-width="1" style="display:inline;opacity:1;vector-effect:none;fill:none;fill-opacity:1;stroke:#000000;stroke-width:1;stroke-linecap:round;stroke-linejoin:round;stroke-dasharray:none;stroke-dashoffset:0;stroke-opacity:1;marker:none" transform="translate(0.0,400.62992594822214)"/>
	<path d="M 533.5404290082129,40.81771900821269 L 431.61982900821295,70.76301900821255" fill="none" id="path255" inkscape:connector-curvature="0" stroke-width="1" style="display:inline;opacity:1;vector-effect:none;fill:none;fill-opacity:1;stroke:#000000;stroke-width:1;stroke-linecap:round;stroke-linejoin:round;stroke-dasharray:none;stroke-dashoffset:0;stroke-opacity:1;marker:none" transform="translate(0.0,400.62992594822214)"/>
	<path d="M 622.2941290082128,26.343019008212934 L 533.5404290082129,40.817719008213146" fill="none" id="path256" inkscape:connector-curvature="0" stroke-width="1" style="display:inline;opacity:1;vector-effect:none;fill:none;fill-opacity:1;stroke:#000000;stroke-width:1;stroke-linecap:round;stroke-linejoin:round;stroke-dasharray:none;stroke-dashoffset:0;stroke-opacity:1;marker:none" transform="translate(0.0,400.62992594822214)"/>
	<path d="M 95.70285900821284,26.342919008212732 L 9.448819008212809,47.98541900821266" fill="none" id="path257" inkscape:connector-curvature="0" stroke-width="1" style="display:inline;opacity:1;vector-effect:none;fill:none;fill-opacity:1;stroke:#000000;stroke-width:1;stroke-linecap:round;stroke-linejoin:round;stroke-dasharray:none;stroke-dashoffset:0;stroke-opacity:1;marker:none" transform="translate(0.0,400.62992594822214)"/>
	<path d="M 358.99842900821295,103.87621900821279 L 286.37712900821293,70.763019008213" fill="none" id="path258" inkscape:connector-curvature="0" stroke-width="1" style="display:inline;opacity:1;vector-effect:none;fill:none;fill-opacity:1;stroke:#000000;stroke-width:1;stroke-linecap:round;stroke-linejoin:round;stroke-dasharray:none;stroke-dashoffset:0;stroke-opacity:1;marker:none" transform="translate(0.0,400.62992594822214)"/>
	<path d="M 286.37712900821293,70.76301900821255 L 184.45654900821285,40.817619008212944" fill="none" id="path259" inkscape:connector-curvature="0" stroke-width="1" style="display:inline;opacity:1;vector-effect:none;fill:none;fill-opacity:1;stroke:#000000;stroke-width:1;stroke-linecap:round;stroke-linejoin:round;stroke-dasharray:none;stroke-dashoffset:0;stroke-opacity:1;marker:none" transform="translate(0.0,400.62992594822214)"/>
	<path d="M 184.45654900821285,40.817619008212944 L 95.70285900821284,26.342919008212732" fill="none" id="path260" inkscape:connector-curvature="0" stroke-width="1" style="display:inline;opacity:1;vector-effect:none;fill:none;fill-opacity:1;stroke:#000000;stroke-width:1;stroke-linecap:round;stroke-linejoin:round;stroke-dasharray:none;stroke-dashoffset:0;stroke-opacity:1;marker:none" transform="translate(0.0,400.62992594822214)"/>
	<path d="M 109.51350900821285,9.448819008212752 L 95.70295900821282,26.343419008212834 L 80.5213190082128,10.669519008213058 L 15.431479008212818,27.00161900821314 L 9.449059008212771,47.985919008213216 C 14.003709008212809,69.83421900821332 25.493029008212716,92.02031900821322 64.9900690082128,108.58751900821318 C 52.13077900821281,97.49791900821339 39.43251900821281,78.57791900821331 53.90412900821275,68.05041900821317 C 64.99093900821276,108.58651900821297 87.07627900821274,106.75921900821305 110.8338190082128,112.09341900821329 C 102.52070900821275,99.40591900821329 97.58911900821283,90.59541900821324 105.03498900821285,82.35311900821335 C 123.68124900821283,93.58091900821347 140.41574900821286,105.32941900821316 138.64824900821282,122.12461900821319 C 165.35694900821284,124.58121900821317 184.63584900821286,118.67951900821328 196.25952900821278,104.16561900821335 C 203.70592900821282,119.48181900821356 216.44892900821287,133.61161900821327 242.32992900821273,140.3746190082132 C 236.15262900821267,122.00391900821324 235.8341290082128,115.33101900821322 248.02132900821266,108.04061900821335 C 264.0220290082127,118.45741900821332 256.30712900821277,136.14301900821357 251.75562900821274,150.29651900821347 C 269.4826290082128,146.46241900821343 293.3930290082128,136.92451900821362 298.1560290082127,111.79261900821331 C 299.79302900821267,124.20141900821346 298.7105290082127,134.68741900821334 311.4021290082128,161.55231900821337 C 313.57072900821277,145.59461900821344 320.5163290082128,138.59281900821344 330.2146290082128,136.75351900821335 C 328.12972900821273,148.07841900821342 327.6810290082128,159.65531900821344 313.8142290082128,169.1676190082133 C 328.23342900821285,170.3266190082134 341.9090290082129,176.6944190082134 358.9978290082129,159.16561900821335 C 376.08672900821284,176.6944190082134 389.7623290082129,170.3266190082134 404.18142900821294,169.1676190082133 C 390.3147290082129,159.65531900821344 389.86792900821297,148.07841900821342 387.7830290082129,136.75351900821335 C 397.4814290082129,138.59281900821344 404.42692900821294,145.59461900821344 406.5955290082129,161.55231900821337 C 419.287129008213,134.68741900821334 418.2046290082128,124.20141900821346 419.841629008213,111.79261900821331 C 424.6046290082129,136.92451900821317 448.5131290082129,146.46241900821343 466.240029008213,150.29651900821347 C 461.68862900821296,136.14301900821357 453.973729008213,118.45741900821332 469.97442900821306,108.04061900821335 C 482.16162900821314,115.33101900821322 481.84502900821303,122.00391900821324 475.6678290082132,140.3746190082132 C 501.5487290082133,133.61161900821327 514.2918290082132,119.48181900821311 521.7381290082133,104.16561900821335 C 533.3618290082134,118.67951900821328 567.1388290082132,127.33121900821317 593.8474290082133,124.87461900821319 C 584.5800290082134,102.07941900821316 594.3145290082134,93.58091900821302 612.9607290082133,82.35311900821335 C 626.9153290082133,109.6645190082134 650.6742290082134,115.34691900821355 668.6821290082132,120.0037190082133 C 661.9539290082132,114.73811900821312 645.7054290082133,81.60821900821321 662.9889290082133,64.36621900821348 C 676.5617290082132,87.4146190082136 686.8643290082132,98.7534190082136 715.6236290082134,99.18351900821364 C 699.5385290082133,89.01861900821342 706.4627290082133,65.08881900821353 708.5486290082133,47.98591900821367 L 702.5642290082133,27.001619008213595 L 637.4764290082132,10.669519008213513 L 622.2947290082132,26.34341900821329 L 608.4842290082131,9.448819008213206 L 541.2674290082132,20.40981900821299 L 533.5408290082132,40.81801900821284 L 517.7459290082131,25.76131900821275 L 436.7615290082131,49.55621900821262 L 431.6189290082132,70.7633190082127 L 413.85142900821324,58.095319008212584 L 361.0857290082133,82.15591900821238 L 358.99782900821333,103.87661900821223 L 356.9119290082133,82.15591900821238 L 304.1443290082134,58.095319008212584 L 286.3767290082135,70.7633190082127 L 281.23612900821354,49.55621900821262 L 200.2517290082135,25.76131900821275 L 184.45684900821345,40.81801900821284 L 176.73034900821347,20.40981900821299 L 109.51350900821285,9.448819008212752" fill="none" id="path348" inkscape:connector-curvature="0" sodipodi:nodetypes="ccccccccccccccccccccccccccccccccccccccccccccccccccccc" stroke-width="1" style="display:inline;opacity:1;vector-effect:none;fill:none;fill-opacity:1;stroke:#000000;stroke-width:1;stroke-linecap:round;stroke-linejoin:round;stroke-dasharray:none;stroke-dashoffset:0;stroke-opacity:1;marker:none" transform="translate(0.0,400.62992594822214)"/>
	<path d="M 35.14331900821276,86.55501900821298 L 34.991819008212815,152.46011900821293" fill="none" id="path52" inkscape:connector-curvature="0" stroke-width="1" style="display:inline;opacity:1;vector-effect:none;fill:none;fill-opacity:1;stroke:#000000;stroke-width:1;stroke-linecap:round;stroke-linejoin:round;stroke-dasharray:none;stroke-dashoffset:0;stroke-opacity:1;marker:none" transform="translate(604.7244165256184,0.0)"/>
	<path d="M 39.95971900821269,9.448819008212809 L 16.348719008212584,26.070819008212652 L 9.448819008212695,31.64371900821277 L 26.672119008212803,47.645619008212975 L 35.14331900821276,86.55501900821298 L 16.220719008212654,97.42211900821292 L 16.119419008212617,141.50621900821295 L 34.99191900821256,152.46011900821293 L 37.555519008212514,273.80041900821277 L 61.52681900821244,160.12131900821294 L 67.46281900821236,81.26121900821306 L 50.286619008212256,42.48591900821327 L 39.95971900821269,9.448819008212809" fill="none" id="path312" inkscape:connector-curvature="0" stroke-width="1" style="display:inline;opacity:1;vector-effect:none;fill:none;fill-opacity:1;stroke:#000000;stroke-width:1;stroke-linecap:round;stroke-linejoin:round;stroke-dasharray:none;stroke-dashoffset:0;stroke-opacity:1;marker:none" transform="translate(604.7244165256184,0.0)"/>
	<path d="M 141.0757520082128,40.31405900821244 L 77.28794200821278,75.6651590082123" fill="none" id="path144" inkscape:connector-curvature="0" stroke-width="1" style="display:inline;opacity:1;vector-effect:none;fill:none;fill-opacity:1;stroke:#000000;stroke-width:1;stroke-linecap:round;stroke-linejoin:round;stroke-dasharray:none;stroke-dashoffset:0;stroke-opacity:1;marker:none" transform="translate(646.2992201617546,79.3700796689874)"/>
	<path d="M 399.7079820082128,75.67615900821272 L 335.92253200821284,40.3206590082126" fill="none" id="path145" inkscape:connector-curvature="0" stroke-width="1" style="display:inline;opacity:1;vector-effect:none;fill:none;fill-opacity:1;stroke:#000000;stroke-width:1;stroke-linecap:round;stroke-linejoin:round;stroke-dasharray:none;stroke-dashoffset:0;stroke-opacity:1;marker:none" transform="translate(646.2992201617546,79.3700796689874)"/>
	<path d="M 187.2198920082128,32.58825900821273 L 141.07575200821282,40.314059008212894" fill="none" id="path146" inkscape:connector-curvature="0" stroke-width="1" style="display:inline;opacity:1;vector-effect:none;fill:none;fill-opacity:1;stroke:#000000;stroke-width:1;stroke-linecap:round;stroke-linejoin:round;stroke-dasharray:none;stroke-dashoffset:0;stroke-opacity:1;marker:none" transform="translate(646.2992201617546,79.3700796689874)"/>
	<path d="M 238.4996120082128,27.070759008212804 L 187.2198920082128,32.58825900821273" fill="none" id="path147" inkscape:connector-curvature="0" stroke-width="1" style="display:inline;opacity:1;vector-effect:none;fill:none;fill-opacity:1;stroke:#000000;stroke-width:1;stroke-linecap:round;stroke-linejoin:round;stroke-dasharray:none;stroke-dashoffset:0;stroke-opacity:1;marker:none" transform="translate(646.2992201617546,79.3700796689874)"/>
	<path d="M 335.9225320082128,40.3206590082126 L 289.7789720082128,32.59165900821279" fill="none" id="path148" inkscape:connector-curvature="0" stroke-width="1" style="display:inline;opacity:1;vector-effect:none;fill:none;fill-opacity:1;stroke:#000000;stroke-width:1;stroke-linecap:round;stroke-linejoin:round;stroke-dasharray:none;stroke-dashoffset:0;stroke-opacity:1;marker:none" transform="translate(646.2992201617546,79.3700796689874)"/>
	<path d="M 289.7789720082128,32.59165900821279 L 238.4996120082128,27.070759008212804" fill="none" id="path149" inkscape:connector-curvature="0" stroke-width="1" style="display:inline;opacity:1;vector-effect:none;fill:none;fill-opacity:1;stroke:#000000;stroke-width:1;stroke-linecap:round;stroke-linejoin:round;stroke-dasharray:none;stroke-dashoffset:0;stroke-opacity:1;marker:none" transform="translate(646.2992201617546,79.3700796689874)"/>
	<path d="M 395.75451200821277,217.0407590082126 L 451.55743200821274,221.4466590082128" fill="none" id="path150" inkscape:connector-curvature="0" stroke-width="1" style="display:inline;opacity:1;vector-effect:none;fill:none;fill-opacity:1;stroke:#000000;stroke-width:1;stroke-linecap:round;stroke-linejoin:round;stroke-dasharray:none;stroke-dashoffset:0;stroke-opacity:1;marker:none" transform="translate(646.2992201617546,79.3700796689874)"/>
	<path d="M 451.5574320082128,221.4466590082128 L 440.1827920082128,171.84495900821264" fill="none" id="path151" inkscape:connector-curvature="0" stroke-width="1" style="display:inline;opacity:1;vector-effect:none;fill:none;fill-opacity:1;stroke:#000000;stroke-width:1;stroke-linecap:round;stroke-linejoin:round;stroke-dasharray:none;stroke-dashoffset:0;stroke-opacity:1;marker:none" transform="translate(646.2992201617546,79.3700796689874)"/>
	<path d="M 372.0673620082128,183.2871590082126 L 395.75451200821277,217.0407590082126" fill="none" id="path152" inkscape:connector-curvature="0" stroke-width="1" style="display:inline;opacity:1;vector-effect:none;fill:none;fill-opacity:1;stroke:#000000;stroke-width:1;stroke-linecap:round;stroke-linejoin:round;stroke-dasharray:none;stroke-dashoffset:0;stroke-opacity:1;marker:none" transform="translate(646.2992201617546,79.3700796689874)"/>
	<path d="M 385.8665820082128,123.16005900821244 L 329.4944520082128,79.84035900821243" fill="none" id="path153" inkscape:connector-curvature="0" sodipodi:nodetypes="cc" stroke-width="1" style="display:inline;opacity:1;vector-effect:none;fill:none;fill-opacity:1;stroke:#000000;stroke-width:1;stroke-linecap:round;stroke-linejoin:round;stroke-dasharray:none;stroke-dashoffset:0;stroke-opacity:1;marker:none" transform="translate(646.2992201617546,79.3700796689874)"/>
	<path d="M 440.1827920082128,171.84495900821264 L 385.8665820082128,123.16005900821244" fill="none" id="path154" inkscape:connector-curvature="0" stroke-width="1" style="display:inline;opacity:1;vector-effect:none;fill:none;fill-opacity:1;stroke:#000000;stroke-width:1;stroke-linecap:round;stroke-linejoin:round;stroke-dasharray:none;stroke-dashoffset:0;stroke-opacity:1;marker:none" transform="translate(646.2992201617546,79.3700796689874)"/>
	<path d="M 299.2449820082128,104.29395900821271 L 325.2402320082128,121.43305900821258" fill="none" id="path155" inkscape:connector-curvature="0" stroke-width="1" style="display:inline;opacity:1;vector-effect:none;fill:none;fill-opacity:1;stroke:#000000;stroke-width:1;stroke-linecap:round;stroke-linejoin:round;stroke-dasharray:none;stroke-dashoffset:0;stroke-opacity:1;marker:none" transform="translate(646.2992201617546,79.3700796689874)"/>
	<path d="M 36.8066830082128,171.83145900821262 L 25.428611008212798,221.43225900821278" fill="none" id="path156" inkscape:connector-curvature="0" stroke-width="1" style="display:inline;opacity:1;vector-effect:none;fill:none;fill-opacity:1;stroke:#000000;stroke-width:1;stroke-linecap:round;stroke-linejoin:round;stroke-dasharray:none;stroke-dashoffset:0;stroke-opacity:1;marker:none" transform="translate(646.2992201617546,79.3700796689874)"/>
	<path d="M 81.23182200821279,217.03015900821254 L 104.92126200821278,183.27815900821258" fill="none" id="path157" inkscape:connector-curvature="0" stroke-width="1" style="display:inline;opacity:1;vector-effect:none;fill:none;fill-opacity:1;stroke:#000000;stroke-width:1;stroke-linecap:round;stroke-linejoin:round;stroke-dasharray:none;stroke-dashoffset:0;stroke-opacity:1;marker:none" transform="translate(646.2992201617546,79.3700796689874)"/>
	<path d="M 147.5009320082128,79.83415900821262 L 91.1261320082128,123.15015900821243" fill="none" id="path158" inkscape:connector-curvature="0" sodipodi:nodetypes="cc" stroke-width="1" style="display:inline;opacity:1;vector-effect:none;fill:none;fill-opacity:1;stroke:#000000;stroke-width:1;stroke-linecap:round;stroke-linejoin:round;stroke-dasharray:none;stroke-dashoffset:0;stroke-opacity:1;marker:none" transform="translate(646.2992201617546,79.3700796689874)"/>
	<path d="M 91.1261320082128,123.15015900821243 L 36.8066830082128,171.83145900821262" fill="none" id="path159" inkscape:connector-curvature="0" stroke-width="1" style="display:inline;opacity:1;vector-effect:none;fill:none;fill-opacity:1;stroke:#000000;stroke-width:1;stroke-linecap:round;stroke-linejoin:round;stroke-dasharray:none;stroke-dashoffset:0;stroke-opacity:1;marker:none" transform="translate(646.2992201617546,79.3700796689874)"/>
	<path d="M 151.7526320082128,121.42725900821267 L 177.7490520082128,104.2899590082128" fill="none" id="path160" inkscape:connector-curvature="0" stroke-width="1" style="display:inline;opacity:1;vector-effect:none;fill:none;fill-opacity:1;stroke:#000000;stroke-width:1;stroke-linecap:round;stroke-linejoin:round;stroke-dasharray:none;stroke-dashoffset:0;stroke-opacity:1;marker:none" transform="translate(646.2992201617546,79.3700796689874)"/>
	<path d="M 90.36838200821279,117.7597190082127 L 91.12613200821278,123.15027900821269 L 70.38873200821277,116.3589190082127 L 32.31944500821277,150.47671900821268 L 36.80668300821277,171.83156900821268 L 15.948008008212767,178.24065900821267 L 9.448819008212766,206.57274900821267 L 25.42861100821277,221.43235900821264 L 81.23182200821276,217.03021900821267 L 102.96778200821277,218.9562490082127 L 114.12120200821278,203.0651490082127 L 104.92126200821278,183.2782290082127 L 151.75263200821277,121.42737900821271 L 171.26296200821278,131.2000790082127 L 179.0407620082128,126.07283900821272 L 177.7490520082128,104.29006900821275 L 238.4978120082128,79.85866900821276 L 299.2449820082128,104.29408900821278 L 297.9517820082128,126.0768190082128 L 305.7292020082128,131.20459900821277 L 325.2402320082128,121.43315900821278 L 372.0673620082128,183.28728900821278 L 362.8660620082128,203.07355900821278 L 374.0184420082128,218.96542900821277 L 395.75451200821277,217.04085900821275 L 405.1437820082128,236.73858900821273 L 439.1932720082128,239.4269990082127 L 451.5574320082128,221.44673900821272 L 467.53825200821285,206.58827900821274 L 461.0410320082128,178.25562900821274 L 440.1827920082128,171.84509900821274 L 444.6714420082128,150.49063900821272 L 406.6044020082128,116.3702890082127 L 385.8665820082128,123.1601590082127 L 386.62465200821276,117.76979900821271 L 329.49445200821276,79.84033900821271 L 389.08825200821275,119.40537900821272 C 389.08825200821275,119.40537900821272 407.20834200821275,114.67290900821274 414.1569520082127,108.84815900821275 C 420.1531920082127,103.82172900821274 425.6097220082127,96.85491900821273 426.9048020082127,89.13852900821274 C 428.0932520082127,82.05740900821274 427.1311120082127,72.97977900821274 421.7523220082127,68.22333900821275 C 418.51142200821266,65.35745900821274 412.9596720082127,65.28733900821274 408.86501200821266,66.68400900821274 C 404.81607200821264,68.06507900821273 399.70798200821264,75.67624900821275 399.70798200821264,75.67624900821275 L 399.32680200821267,53.85845900821275 L 354.62670200821265,29.081759008212742 L 335.92253200821267,40.32076900821275 L 328.28367200821265,19.880359008212736 L 303.66144200821265,15.756219008212724 L 289.77897200821263,32.59175900821273 L 280.9540320082126,12.634859008212743 L 251.37038200821263,9.449689008212744 L 238.49961200821264,27.070849008212747 L 225.6300020082126,9.448819008212752 L 196.0461720082126,12.631969008212764 L 187.2198920082126,32.58835900821276 L 173.33855200821262,15.751829008212752 L 148.71597200821262,19.874309008212748 L 141.07575200821262,40.314189008212736 L 122.37237200821261,29.073939008212733 L 77.6706220082126,53.84755900821273 L 77.2877520082126,75.66526900821273 C 77.2877520082126,75.66526900821273 72.1802120082126,68.05380900821274 68.1313920082126,66.67246900821274 C 64.0368220082126,65.27552900821274 58.4850720082126,65.34521900821275 55.2439520082126,68.21084900821273 C 49.86483500821261,72.96692900821273 48.90207400821261,82.04444900821272 50.0900320082126,89.12565900821272 C 51.3845670082126,96.8420990082127 56.8406020082126,103.80941900821273 62.83651200821261,108.83621900821271 C 69.7846920082126,114.66138900821272 87.90444200821261,119.39514900821268 87.90444200821261,119.39514900821268 L 147.5009320082126,79.83419900821269" fill="none" id="path328" inkscape:connector-curvature="0" sodipodi:nodetypes="cccccccccccccccccccccccccccccccccccccsssscccccccccccccccccccsssscc" stroke-width="1" style="display:inline;opacity:1;vector-effect:none;fill:none;fill-opacity:1;stroke:#000000;stroke-width:1;stroke-linecap:round;stroke-linejoin:round;stroke-dasharray:none;stroke-dashoffset:0;stroke-opacity:1;marker:none" transform="translate(646.2992201617546,79.3700796689874)"/>
	<path d="M 76.79978900821277,20.67951900821288 L 65.80831900821278,20.891119008212854" fill="none" id="path206" inkscape:connector-curvature="0" stroke-width="1" style="display:inline;opacity:1;vector-effect:none;fill:none;fill-opacity:1;stroke:#000000;stroke-width:1;stroke-linecap:round;stroke-linejoin:round;stroke-dasharray:none;stroke-dashoffset:0;stroke-opacity:1;marker:none" transform="translate(778.5826862767336,207.8740181806813)"/>
	<path d="M 72.21578900821277,48.014719008212865 L 76.79978900821277,20.67951900821288" fill="none" id="path207" inkscape:connector-curvature="0" stroke-width="1" style="display:inline;opacity:1;vector-effect:none;fill:none;fill-opacity:1;stroke:#000000;stroke-width:1;stroke-linecap:round;stroke-linejoin:round;stroke-dasharray:none;stroke-dashoffset:0;stroke-opacity:1;marker:none" transform="translate(778.5826862767336,207.8740181806813)"/>
	<path d="M 64.60483900821276,89.59121900821287 L 72.21578900821277,48.014719008212865" fill="none" id="path208" inkscape:connector-curvature="0" stroke-width="1" style="display:inline;opacity:1;vector-effect:none;fill:none;fill-opacity:1;stroke:#000000;stroke-width:1;stroke-linecap:round;stroke-linejoin:round;stroke-dasharray:none;stroke-dashoffset:0;stroke-opacity:1;marker:none" transform="translate(778.5826862767336,207.8740181806813)"/>
	<path d="M 50.47427900821276,56.72941900821286 L 64.60483900821276,89.59121900821287" fill="none" id="path209" inkscape:connector-curvature="0" stroke-width="1" style="display:inline;opacity:1;vector-effect:none;fill:none;fill-opacity:1;stroke:#000000;stroke-width:1;stroke-linecap:round;stroke-linejoin:round;stroke-dasharray:none;stroke-dashoffset:0;stroke-opacity:1;marker:none" transform="translate(778.5826862767336,207.8740181806813)"/>
	<path d="M 50.47427900821276,56.72941900821286 L 36.77647900821276,89.59121900821287" fill="none" id="path211" inkscape:connector-curvature="0" stroke-width="1" style="display:inline;opacity:1;vector-effect:none;fill:none;fill-opacity:1;stroke:#000000;stroke-width:1;stroke-linecap:round;stroke-linejoin:round;stroke-dasharray:none;stroke-dashoffset:0;stroke-opacity:1;marker:none" transform="translate(778.5826862767336,207.8740181806813)"/>
	<path d="M 36.77647900821276,89.59121900821287 L 64.60483900821276,89.59121900821287" fill="none" id="path212" inkscape:connector-curvature="0" stroke-width="1" style="display:inline;opacity:1;vector-effect:none;fill:none;fill-opacity:1;stroke:#000000;stroke-width:1;stroke-linecap:round;stroke-linejoin:round;stroke-dasharray:none;stroke-dashoffset:0;stroke-opacity:1;marker:none" transform="translate(778.5826862767336,207.8740181806813)"/>
	<path d="M 25.752429008212772,52.382719008212916 L 36.77647900821276,89.59121900821287" fill="none" id="path213" inkscape:connector-curvature="0" stroke-width="1" style="display:inline;opacity:1;vector-effect:none;fill:none;fill-opacity:1;stroke:#000000;stroke-width:1;stroke-linecap:round;stroke-linejoin:round;stroke-dasharray:none;stroke-dashoffset:0;stroke-opacity:1;marker:none" transform="translate(778.5826862767336,207.8740181806813)"/>
	<path d="M 15.407669008212764,26.638319008212875 L 25.752429008212772,52.382719008212916" fill="none" id="path215" inkscape:connector-curvature="0" stroke-width="1" style="display:inline;opacity:1;vector-effect:none;fill:none;fill-opacity:1;stroke:#000000;stroke-width:1;stroke-linecap:round;stroke-linejoin:round;stroke-dasharray:none;stroke-dashoffset:0;stroke-opacity:1;marker:none" transform="translate(778.5826862767336,207.8740181806813)"/>
	<path d="M 67.21660900821277,131.77791900821285 L 64.60483900821276,89.59131900821285 L 79.36182900821277,66.39531900821282 L 72.21578900821277,48.01481900821284 L 84.77822900821278,37.49631900821282 L 76.79978900821277,20.679619008212853 L 71.08589900821278,9.448819008212809 L 65.80831900821278,20.891119008212854 L 57.887409008212785,40.792219008212896 L 50.47427900821279,56.72951900821295 L 37.51265900821278,42.6554190082129 L 25.744379008212775,22.895219008212848 L 15.407669008212764,26.638319008212875 L 9.448819008212752,44.718319008212916 L 25.752429008212744,52.382719008212916 L 21.690349008212735,70.71911900821294 L 36.77647900821273,89.59121900821299 L 29.535509008212728,127.71701900821301 L 46.22710900821272,149.87951900821304 L 67.21660900821277,131.77791900821285" fill="none" id="path340" inkscape:connector-curvature="0" sodipodi:nodetypes="cccccccccccccccccccc" stroke-width="1" style="display:inline;opacity:1;vector-effect:none;fill:none;fill-opacity:1;stroke:#000000;stroke-width:1;stroke-linecap:round;stroke-linejoin:round;stroke-dasharray:none;stroke-dashoffset:0;stroke-opacity:1;marker:none" transform="translate(778.5826862767336,207.8740181806813)"/>
	<path d="M 65.50579900821288,36.965819008212634 L 32.29247900821292,34.94411900821285" fill="none" id="path54" inkscape:connector-curvature="0" stroke-width="1" style="display:inline;opacity:1;vector-effect:none;fill:none;fill-opacity:1;stroke:#000000;stroke-width:1;stroke-linecap:round;stroke-linejoin:round;stroke-dasharray:none;stroke-dashoffset:0;stroke-opacity:1;marker:none" transform="translate(309.9212634693794,211.65354578396642)"/>
	<path d="M 95.47922900821288,51.542019008212606 L 65.50579900821288,36.965819008212634" fill="none" id="path55" inkscape:connector-curvature="0" stroke-width="1" style="display:inline;opacity:1;vector-effect:none;fill:none;fill-opacity:1;stroke:#000000;stroke-width:1;stroke-linecap:round;stroke-linejoin:round;stroke-dasharray:none;stroke-dashoffset:0;stroke-opacity:1;marker:none" transform="translate(309.9212634693794,211.65354578396642)"/>
	<path d="M 125.59940900821289,60.354719008212555 L 95.47922900821288,51.542019008212606" fill="none" id="path56" inkscape:connector-curvature="0" stroke-width="1" style="display:inline;opacity:1;vector-effect:none;fill:none;fill-opacity:1;stroke:#000000;stroke-width:1;stroke-linecap:round;stroke-linejoin:round;stroke-dasharray:none;stroke-dashoffset:0;stroke-opacity:1;marker:none" transform="translate(309.9212634693794,211.65354578396642)"/>
	<path d="M 140.46398900821282,33.82161900821245 L 125.59940900821277,60.354719008212555" fill="none" id="path57" inkscape:connector-curvature="0" stroke-width="1" style="display:inline;opacity:1;vector-effect:none;fill:none;fill-opacity:1;stroke:#000000;stroke-width:1;stroke-linecap:round;stroke-linejoin:round;stroke-dasharray:none;stroke-dashoffset:0;stroke-opacity:1;marker:none" transform="translate(309.9212634693794,211.65354578396642)"/>
	<path d="M 188.04088900821284,95.65071900821238 L 140.46398900821282,33.82161900821245" fill="none" id="path58" inkscape:connector-curvature="0" stroke-width="1" style="display:inline;opacity:1;vector-effect:none;fill:none;fill-opacity:1;stroke:#000000;stroke-width:1;stroke-linecap:round;stroke-linejoin:round;stroke-dasharray:none;stroke-dashoffset:0;stroke-opacity:1;marker:none" transform="translate(309.9212634693794,211.65354578396642)"/>
	<path d="M 125.59940900821289,60.354719008212555 L 116.15183900821285,30.214519008212733 L 109.40126900821281,27.629719008212646 L 95.47922900821277,51.542019008212606 L 101.71005900821274,24.560919008212636 L 76.95308900821271,13.517419008212414 L 65.50579900821276,36.965819008212634 L 66.54694900821278,11.518219008212668 L 43.489789008212824,9.448819008212809 L 32.29247900821281,34.94411900821285 L 9.448819008212809,109.54011900821286 L 45.454339008212855,120.12441900821284 L 101.76608900821282,127.0068190082128 L 139.02628900821287,124.53241900821274 L 188.04088900821284,95.65071900821283 L 196.3640890082129,75.47921900821291 L 162.0945890082129,30.9439190082129 L 140.46398900821293,33.821619008212906 L 119.70539900821291,26.32581900821276 L 116.15183900821296,30.214519008212733 L 125.59940900821289,60.354719008212555" fill="none" id="path313" inkscape:connector-curvature="0" sodipodi:nodetypes="ccccccccccccccccccccc" stroke-width="1" style="display:inline;opacity:1;vector-effect:none;fill:none;fill-opacity:1;stroke:#000000;stroke-width:1;stroke-linecap:round;stroke-linejoin:round;stroke-dasharray:none;stroke-dashoffset:0;stroke-opacity:1;marker:none" transform="translate(309.9212634693794,211.65354578396642)"/>
	<path d="M 65.1758190082129,231.37051900821268 L 58.944319008212915,114.15351900821258" fill="none" id="path27" inkscape:connector-curvature="0" stroke-width="1" style="display:inline;opacity:1;vector-effect:none;fill:none;fill-opacity:1;stroke:#000000;stroke-width:1;stroke-linecap:round;stroke-linejoin:round;stroke-dasharray:none;stroke-dashoffset:0;stroke-opacity:1;marker:none" transform="translate(857.952765945721,192.75590776754083)"/>
	<path d="M 29.858229008212902,111.43101900821273 L 10.11816900821293,232.27161900821272" fill="none" id="path28" inkscape:connector-curvature="0" stroke-width="1" style="display:inline;opacity:1;vector-effect:none;fill:none;fill-opacity:1;stroke:#000000;stroke-width:1;stroke-linecap:round;stroke-linejoin:round;stroke-dasharray:none;stroke-dashoffset:0;stroke-opacity:1;marker:none" transform="translate(857.952765945721,192.75590776754083)"/>
	<path d="M 51.96531900821287,9.448819008212809 L 39.716219008212875,46.14171900821282" fill="none" id="path29" inkscape:connector-curvature="0" stroke-width="1" style="display:inline;opacity:1;vector-effect:none;fill:none;fill-opacity:1;stroke:#000000;stroke-width:1;stroke-linecap:round;stroke-linejoin:round;stroke-dasharray:none;stroke-dashoffset:0;stroke-opacity:1;marker:none" transform="translate(857.952765945721,192.75590776754083)"/>
	<path d="M 64.41911900821287,66.14891900821283 L 51.96531900821287,9.448819008212809 L 30.58528900821284,13.814019008212995 L 25.245879008212796,29.808619008212986 L 39.71621900821276,46.14171900821282 L 29.85822900821279,111.43101900821273 L 9.448819008212809,119.15221900821268 L 10.118169008212817,232.27161900821272 L 65.17581900821278,231.37051900821268 L 83.46761900821275,219.47211900821264 L 78.3945190082128,124.04541900821266 L 58.9443190082128,114.15351900821258 L 64.41911900821287,66.14891900821283" fill="none" id="path306" inkscape:connector-curvature="0" sodipodi:nodetypes="ccccccccccccc" stroke-width="1" style="display:inline;opacity:1;vector-effect:none;fill:none;fill-opacity:1;stroke:#000000;stroke-width:1;stroke-linecap:round;stroke-linejoin:round;stroke-dasharray:none;stroke-dashoffset:0;stroke-opacity:1;marker:none" transform="translate(857.952765945721,192.75590776754083)"/>
	<path d="M 53.02579900821286,29.432619008212782 L 39.9684990082128,12.826319008212863" fill="none" id="path41" inkscape:connector-curvature="0" stroke-width="1" style="display:inline;opacity:1;vector-effect:none;fill:none;fill-opacity:1;stroke:#000000;stroke-width:1;stroke-linecap:round;stroke-linejoin:round;stroke-dasharray:none;stroke-dashoffset:0;stroke-opacity:1;marker:none" transform="translate(438.4252019810733,544.2519748730565)"/>
	<path d="M 77.65879900821278,234.88211900821295 L 70.36219900821288,130.61831900821278" fill="none" id="path42" inkscape:connector-curvature="0" stroke-width="1" style="display:inline;opacity:1;vector-effect:none;fill:none;fill-opacity:1;stroke:#000000;stroke-width:1;stroke-linecap:round;stroke-linejoin:round;stroke-dasharray:none;stroke-dashoffset:0;stroke-opacity:1;marker:none" transform="translate(438.4252019810733,544.2519748730565)"/>
	<path d="M 28.07171900821288,76.51101900821266 L 29.262719008212912,124.81201900821259" fill="none" id="path43" inkscape:connector-curvature="0" stroke-width="1" style="display:inline;opacity:1;vector-effect:none;fill:none;fill-opacity:1;stroke:#000000;stroke-width:1;stroke-linecap:round;stroke-linejoin:round;stroke-dasharray:none;stroke-dashoffset:0;stroke-opacity:1;marker:none" transform="translate(438.4252019810733,544.2519748730565)"/>
	<path d="M 111.6849990082128,15.749519008212587 L 103.64329900821281,19.490619008212775" fill="none" id="path45" inkscape:connector-curvature="0" stroke-width="1" style="display:inline;opacity:1;vector-effect:none;fill:none;fill-opacity:1;stroke:#000000;stroke-width:1;stroke-linecap:round;stroke-linejoin:round;stroke-dasharray:none;stroke-dashoffset:0;stroke-opacity:1;marker:none" transform="translate(438.4252019810733,544.2519748730565)"/>
	<path d="M 70.36219900821288,130.61831900821278 L 53.02579900821286,29.432619008212782 L 61.35259900821279,9.448819008212809 L 39.9684990082128,12.826319008212863 L 28.071719008212767,76.51101900821266 L 9.448819008212809,87.88411900821245 L 10.101919008212803,114.37061900821243 L 29.262719008212798,124.81201900821259 L 35.91729900821281,242.0058190082126 L 77.65879900821278,234.8821190082125 L 95.74859900821275,222.67891900821257 L 89.97539900821266,140.18291900821248 L 70.36219900821288,130.61831900821278" fill="none" id="path309" inkscape:connector-curvature="0" stroke-width="1" style="display:inline;opacity:1;vector-effect:none;fill:none;fill-opacity:1;stroke:#000000;stroke-width:1;stroke-linecap:round;stroke-linejoin:round;stroke-dasharray:none;stroke-dashoffset:0;stroke-opacity:1;marker:none" transform="translate(438.4252019810733,544.2519748730565)"/>
	<path d="M 207.8956190082124,107.78281900821264 L 171.6333190082123,30.172419008212614" fill="none" id="path30" inkscape:connector-curvature="0" stroke-width="1" style="display:inline;opacity:1;vector-effect:none;fill:none;fill-opacity:1;stroke:#000000;stroke-width:1;stroke-linecap:round;stroke-linejoin:round;stroke-dasharray:none;stroke-dashoffset:0;stroke-opacity:1;marker:none" transform="translate(536.6929196664863,536.6929196664863)"/>
	<path d="M 171.63331900821254,30.172419008212614 L 140.47231900821248,41.44041900821264" fill="none" id="path31" inkscape:connector-curvature="0" stroke-width="1" style="display:inline;opacity:1;vector-effect:none;fill:none;fill-opacity:1;stroke:#000000;stroke-width:1;stroke-linecap:round;stroke-linejoin:round;stroke-dasharray:none;stroke-dashoffset:0;stroke-opacity:1;marker:none" transform="translate(536.6929196664863,536.6929196664863)"/>
	<path d="M 140.47231900821248,41.44041900821264 L 108.66531900821246,41.630119008212546" fill="none" id="path32" inkscape:connector-curvature="0" stroke-width="1" style="display:inline;opacity:1;vector-effect:none;fill:none;fill-opacity:1;stroke:#000000;stroke-width:1;stroke-linecap:round;stroke-linejoin:round;stroke-dasharray:none;stroke-dashoffset:0;stroke-opacity:1;marker:none" transform="translate(536.6929196664863,536.6929196664863)"/>
	<path d="M 77.60561900821244,40.53211900821259 L 46.6411190082124,30.14451900821257" fill="none" id="path33" inkscape:connector-curvature="0" stroke-width="1" style="display:inline;opacity:1;vector-effect:none;fill:none;fill-opacity:1;stroke:#000000;stroke-width:1;stroke-linecap:round;stroke-linejoin:round;stroke-dasharray:none;stroke-dashoffset:0;stroke-opacity:1;marker:none" transform="translate(536.6929196664863,536.6929196664863)"/>
	<path d="M 108.66531900821246,41.630119008213 L 77.60561900821244,40.532119008213044" fill="none" id="path34" inkscape:connector-curvature="0" stroke-width="1" style="display:inline;opacity:1;vector-effect:none;fill:none;fill-opacity:1;stroke:#000000;stroke-width:1;stroke-linecap:round;stroke-linejoin:round;stroke-dasharray:none;stroke-dashoffset:0;stroke-opacity:1;marker:none" transform="translate(536.6929196664863,536.6929196664863)"/>
	<path d="M 57.53761900821246,127.30921900821284 L 108.76091900821257,135.41961900821286 L 160.26771900821245,128.95581900821287 L 207.8956190082124,107.7828190082131 L 220.3980190082125,89.89851900821293 L 193.37281900821245,32.057719008212985 L 171.63331900821254,30.17241900821307 L 153.69671900821254,9.86121900821297 L 138.55641900821252,14.958819008213027 L 140.47231900821248,41.4404190082131 L 133.44931900821257,16.108119008213066 L 113.21291900821257,16.41811900821301 L 108.66531900821246,41.6305190082129 L 103.17921900821239,16.859219008213017 L 87.92701900821248,15.782319008212994 L 77.60561900821244,40.532719008212894 L 79.77191900821254,13.896319008213027 L 61.74541900821259,9.448819008212809 L 46.64111900821263,30.145119008212873 L 9.448819008212695,107.31421900821294 L 57.53761900821246,127.30921900821284" fill="none" id="path307" inkscape:connector-curvature="0" sodipodi:nodetypes="ccccccccccccccccccccc" stroke-width="1" style="display:inline;opacity:1;vector-effect:none;fill:none;fill-opacity:1;stroke:#000000;stroke-width:1;stroke-linecap:round;stroke-linejoin:round;stroke-dasharray:none;stroke-dashoffset:0;stroke-opacity:1;marker:none" transform="translate(536.6929196664863,536.6929196664863)"/>
	<path d="M 22.236519008212554,75.56331900821249 L 20.278819008212622,102.2875190082126" fill="none" id="path1-8" inkscape:connector-curvature="0" stroke-width="1" style="display:inline;opacity:1;vector-effect:none;fill:none;fill-opacity:1;stroke:#000000;stroke-width:1;stroke-linecap:round;stroke-linejoin:round;stroke-dasharray:none;stroke-dashoffset:0;stroke-opacity:1;marker:none" transform="translate(733.2283550373122,393.0708707416519)"/>
	<path d="M 69.93071900821246,9.51471900821241 L 22.236519008212554,75.56331900821249" fill="none" id="path2-7" inkscape:connector-curvature="0" stroke-width="1" style="display:inline;opacity:1;vector-effect:none;fill:none;fill-opacity:1;stroke:#000000;stroke-width:1;stroke-linecap:round;stroke-linejoin:round;stroke-dasharray:none;stroke-dashoffset:0;stroke-opacity:1;marker:none" transform="translate(733.2283550373122,393.0708707416519)"/>
	<path d="M 20.278819008212622,102.2875190082126 L 31.19961900821272,139.15741900821274" fill="none" id="path3-7" inkscape:connector-curvature="0" stroke-width="1" style="display:inline;opacity:1;vector-effect:none;fill:none;fill-opacity:1;stroke:#000000;stroke-width:1;stroke-linecap:round;stroke-linejoin:round;stroke-dasharray:none;stroke-dashoffset:0;stroke-opacity:1;marker:none" transform="translate(733.2283550373122,393.0708707416519)"/>
	<path d="M 133.3980190082125,101.68911900821274 L 131.15771900821255,74.98721900821272" fill="none" id="path4-6" inkscape:connector-curvature="0" stroke-width="1" style="display:inline;opacity:1;vector-effect:none;fill:none;fill-opacity:1;stroke:#000000;stroke-width:1;stroke-linecap:round;stroke-linejoin:round;stroke-dasharray:none;stroke-dashoffset:0;stroke-opacity:1;marker:none" transform="translate(733.2283550373122,393.0708707416519)"/>
	<path d="M 131.15771900821255,74.98721900821272 L 83.07241900821259,9.448819008212809" fill="none" id="path5-3" inkscape:connector-curvature="0" stroke-width="1" style="display:inline;opacity:1;vector-effect:none;fill:none;fill-opacity:1;stroke:#000000;stroke-width:1;stroke-linecap:round;stroke-linejoin:round;stroke-dasharray:none;stroke-dashoffset:0;stroke-opacity:1;marker:none" transform="translate(733.2283550373122,393.0708707416519)"/>
	<path d="M 123.1240190082126,138.59081900821263 L 133.3980190082125,101.68911900821274" fill="none" id="path6-5" inkscape:connector-curvature="0" stroke-width="1" style="display:inline;opacity:1;vector-effect:none;fill:none;fill-opacity:1;stroke:#000000;stroke-width:1;stroke-linecap:round;stroke-linejoin:round;stroke-dasharray:none;stroke-dashoffset:0;stroke-opacity:1;marker:none" transform="translate(733.2283550373122,393.0708707416519)"/>
	<path d="M 83.07241900821259,9.448819008212809 L 76.7956190082125,68.13851900821271" fill="none" id="path7-2" inkscape:connector-curvature="0" stroke-width="1" style="display:inline;opacity:1;vector-effect:none;fill:none;fill-opacity:1;stroke:#000000;stroke-width:1;stroke-linecap:round;stroke-linejoin:round;stroke-dasharray:none;stroke-dashoffset:0;stroke-opacity:1;marker:none" transform="translate(733.2283550373122,393.0708707416519)"/>
	<path d="M 76.7956190082125,68.13851900821271 L 69.93071900821246,9.514719008212865 L 46.915819008212566,22.01851900821282 L 16.87641900821245,63.61811900821283 L 22.236519008212554,75.56331900821294 L 10.450019008212621,81.26371900821312 L 9.448819008212695,94.93021900821293 L 20.278819008212622,102.28751900821305 L 11.266319008212577,111.78441900821315 L 31.199619008212494,139.1574190082132 L 49.02851900821247,108.68381900821339 L 76.7956190082125,93.89231900821358 L 104.71761900821252,108.38931900821342 L 123.1240190082126,138.59081900821354 L 142.56531900821255,111.03681900821346 L 133.3980190082125,101.68911900821365 L 144.14961900821254,94.21771900821375 L 143.0039190082125,80.5626190082138 L 131.15771900821255,74.98721900821363 L 136.42711900821246,63.001719008213854 L 105.42541900821243,20.747619008213746 L 83.07241900821236,9.448819008213718 L 70.57151900821236,14.987219008213629 L 76.7956190082125,68.13851900821271" fill="none" id="path299-3" inkscape:connector-curvature="0" sodipodi:nodetypes="cccccccccccccccccccccccc" stroke-width="1" style="display:inline;opacity:1;vector-effect:none;fill:none;fill-opacity:1;stroke:#000000;stroke-width:1;stroke-linecap:round;stroke-linejoin:round;stroke-dasharray:none;stroke-dashoffset:0;stroke-opacity:1;marker:none" transform="translate(733.2283550373122,393.0708707416519)"/>
	<path d="M 121.21564900821272,78.91067900821292 L 146.73430900821273,110.62197900821286" fill="none" id="path167" inkscape:connector-curvature="0" stroke-width="1" style="display:inline;opacity:1;vector-effect:none;fill:none;fill-opacity:1;stroke:#000000;stroke-width:1;stroke-linecap:round;stroke-linejoin:round;stroke-dasharray:none;stroke-dashoffset:0;stroke-opacity:1;marker:none" transform="translate(661.417330574895,672.7559133847504)"/>
	<path d="M 149.55794900821274,110.62197900821286 L 175.07659900821272,78.91067900821292" fill="none" id="path168" inkscape:connector-curvature="0" stroke-width="1" style="display:inline;opacity:1;vector-effect:none;fill:none;fill-opacity:1;stroke:#000000;stroke-width:1;stroke-linecap:round;stroke-linejoin:round;stroke-dasharray:none;stroke-dashoffset:0;stroke-opacity:1;marker:none" transform="translate(661.417330574895,672.7559133847504)"/>
	<path d="M 9.448819008212752,106.06887900821278 L 40.771059008212774,69.56227900821261" fill="none" id="path169" inkscape:connector-curvature="0" stroke-width="1" style="display:inline;opacity:1;vector-effect:none;fill:none;fill-opacity:1;stroke:#000000;stroke-width:1;stroke-linecap:round;stroke-linejoin:round;stroke-dasharray:none;stroke-dashoffset:0;stroke-opacity:1;marker:none" transform="translate(661.417330574895,672.7559133847504)"/>
	<path d="M 197.87652900821274,68.19297900821277 L 217.11862900821274,67.99987900821282" fill="none" id="path172" inkscape:connector-curvature="0" stroke-width="1" style="display:inline;opacity:1;vector-effect:none;fill:none;fill-opacity:1;stroke:#000000;stroke-width:1;stroke-linecap:round;stroke-linejoin:round;stroke-dasharray:none;stroke-dashoffset:0;stroke-opacity:1;marker:none" transform="translate(661.417330574895,672.7559133847504)"/>
	<path d="M 79.17362900821274,67.99987900821282 L 98.41572900821274,68.19297900821277" fill="none" id="path173" inkscape:connector-curvature="0" stroke-width="1" style="display:inline;opacity:1;vector-effect:none;fill:none;fill-opacity:1;stroke:#000000;stroke-width:1;stroke-linecap:round;stroke-linejoin:round;stroke-dasharray:none;stroke-dashoffset:0;stroke-opacity:1;marker:none" transform="translate(661.417330574895,672.7559133847504)"/>
	<path d="M 255.52119900821276,69.56227900821261 L 286.84346900821276,106.06887900821278" fill="none" id="path176" inkscape:connector-curvature="0" stroke-width="1" style="display:inline;opacity:1;vector-effect:none;fill:none;fill-opacity:1;stroke:#000000;stroke-width:1;stroke-linecap:round;stroke-linejoin:round;stroke-dasharray:none;stroke-dashoffset:0;stroke-opacity:1;marker:none" transform="translate(661.417330574895,672.7559133847504)"/>
	<path d="M 282.0883690082128,66.8947790082126 L 278.62522900821284,27.937079008212663" fill="none" id="path177" inkscape:connector-curvature="0" sodipodi:nodetypes="cc" stroke-width="1" style="display:inline;opacity:1;vector-effect:none;fill:none;fill-opacity:1;stroke:#000000;stroke-width:1;stroke-linecap:round;stroke-linejoin:round;stroke-dasharray:none;stroke-dashoffset:0;stroke-opacity:1;marker:none" transform="translate(661.417330574895,672.7559133847504)"/>
	<path d="M 278.6252290082127,27.937079008212663 L 252.32639900821272,31.995679008212505 L 219.2619490082127,42.382379008212524 L 197.17014900821272,48.32377900821268 L 174.4885090082127,55.79057900821283 L 148.20530900821268,59.68117900821301 L 121.92209900821268,55.79057900821283 L 99.12051900821268,48.32247900821278 L 77.3198790082127,42.38257900821293 L 44.0822590082127,31.99567900821296 L 17.783429008212693,27.937079008213118" fill="none" id="path178" inkscape:connector-curvature="0" sodipodi:nodetypes="cccccccccc" stroke-width="1" style="display:inline;opacity:1;vector-effect:none;fill:none;fill-opacity:1;stroke:#000000;stroke-width:1;stroke-linecap:round;stroke-linejoin:round;stroke-dasharray:none;stroke-dashoffset:0;stroke-opacity:1;marker:none" transform="translate(661.417330574895,672.7559133847504)"/>
	<path d="M 286.84346900821276,106.06887900821278 L 282.0883690082128,66.8947790082126" fill="none" id="path179" inkscape:connector-curvature="0" stroke-width="1" style="display:inline;opacity:1;vector-effect:none;fill:none;fill-opacity:1;stroke:#000000;stroke-width:1;stroke-linecap:round;stroke-linejoin:round;stroke-dasharray:none;stroke-dashoffset:0;stroke-opacity:1;marker:none" transform="translate(661.417330574895,672.7559133847504)"/>
	<path d="M 265.0451490082127,10.913629008212979 L 260.20334900821274,11.661669008212925 L 252.32639900821272,31.995659008212783 L 233.2356990082127,15.785499008212923 L 225.0761790082127,18.348699008212975 L 219.2619490082127,42.38237900821298 L 203.9181990082127,26.94682900821283 L 202.79905900821268,27.247609008212862 L 197.17014900821266,48.32377900821291 L 179.91971900821267,32.287589008212876 L 174.48850900821265,55.79058900821303 L 161.00999900821262,38.68510900821286 L 156.20334900821263,39.396049008213026 L 148.20530900821262,59.68118900821298 L 136.34506900821265,37.03974900821288 L 121.92209900821263,55.79058900821303 L 117.45920900821261,34.437069008212916 L 115.40452900821259,33.75932900821306 L 99.23850900821259,48.32377900821291 L 94.06431900821258,27.41351900821303 L 77.14866900821255,42.38237900821298 L 72.39475900821253,21.091359008212862 L 60.04905900821251,17.21245900821293 L 44.08225900821253,31.995659008212783 L 43.82219900821252,13.714519008212733 L 28.921239008212524,9.448819008212809 L 17.783429008212522,27.93706900821269 L 14.203349008212513,66.89408900821275 L 9.449449008212525,106.06988900821273 L 30.89475900821253,110.09328900821276 L 48.008039008212506,90.14798900821268 L 40.7717090082125,69.56208900821264 L 79.17405900821251,67.99958900821264 L 88.60569900821253,86.99368900821253 L 98.41623900821253,68.19288900821255 L 121.21506900821254,78.91168900821265 L 113.33225900821253,99.2592890082127 L 125.17209900821251,113.97028900821272 L 146.7345990082125,110.62258900821269 L 148.1467090082125,87.33548900821268 L 149.55881900821248,110.62258900821269 L 171.12131900821248,113.97028900821272 L 182.9592090082125,99.2592890082127 L 175.0763990082125,78.91168900821265 L 197.87717900821247,68.19288900821277 L 207.68772900821244,86.99368900821275 L 217.11936900821246,67.99958900821287 L 255.52170900821244,69.56208900821287 L 248.28342900821247,90.14798900821268 L 265.39670900821244,110.09328900821276 L 286.8439790082124,106.06988900821273 L 302.16233900821237,75.44878900821266 L 298.3381190082124,37.07377900821268 L 278.6252290082124,27.93706900821269 L 265.0451490082127,10.913629008212979" fill="none" id="path330" inkscape:connector-curvature="0" sodipodi:nodetypes="ccccccccccccccccccccccccccccccccccccccccccccccccccccccc" stroke-width="1" style="display:inline;opacity:1;vector-effect:none;fill:none;fill-opacity:1;stroke:#000000;stroke-width:1;stroke-linecap:round;stroke-linejoin:round;stroke-dasharray:none;stroke-dashoffset:0;stroke-opacity:1;marker:none" transform="translate(661.417330574895,672.7559133847504)"/>
</svg>
