<?xml version="1.0" ?>
<svg xmlns="http://www.w3.org/2000/svg" xmlns:cc="http://creativecommons.org/ns#" xmlns:dc="http://purl.org/dc/elements/1.1/" xmlns:ev="http://www.w3.org/2001/xml-events" xmlns:inkscape="http://www.inkscape.org/namespaces/inkscape" xmlns:rdf="http://www.w3.org/1999/02/22-rdf-syntax-ns#" xmlns:sodipodi="http://sodipodi.sourceforge.net/DTD/sodipodi-0.dtd" xmlns:svg="http://www.w3.org/2000/svg" xmlns:xlink="http://www.w3.org/1999/xlink" baseProfile="full" height="210mm" id="svg2850" inkscape:export-filename=".\USSEnterprise_01.png" inkscape:export-xdpi="90" inkscape:export-ydpi="90" inkscape:output-extension="org.inkscape.output.svg.inkscape" inkscape:version="0.92.4 (5da689c313, 2019-01-14)" sodipodi:docname="harry-potter.svg" sodipodi:version="0.32" style="display:inline" version="1.1" viewBox="0 0 1122.519698175679 793.7007966898741" width="297mm">
	<defs/>
	<path d="M 26.12658900821276,17.58641900821283 L 37.75666900821278,82.51161900821285" fill="none" id="path219" inkscape:connector-curvature="0" stroke-width="1" style="display:inline;opacity:1;vector-effect:none;fill:none;fill-opacity:1;stroke:#000000;stroke-width:1;stroke-linecap:round;stroke-linejoin:round;stroke-dasharray:none;stroke-dashoffset:0;stroke-opacity:1;marker:none" transform="translate(623.6220545420439,0.0)"/>
	<path d="M 78.62786900821277,9.448819008212809 L 49.27137900821276,13.68921900821283 L 26.12658900821276,17.58661900821278 L 9.448819008212752,31.658319008212743 L 17.23131900821278,75.10431900821277 L 37.75666900821278,82.5118190082128 L 45.68944900821276,90.32491900821276 L 60.57590900821276,85.74831900821277 L 59.70399900821275,75.63641900821278 L 64.20266900821275,84.32681900821274 L 78.72528900821277,81.9936190082127 L 78.62788900821278,72.81321900821274 L 81.71332900821278,81.59341900821278 L 92.96549900821279,80.34251900821278 L 96.10196900821279,70.91401900821279 L 96.7132990082128,81.24111900821276 L 107.2129490082128,88.75131900821282 L 114.10732900821282,82.51581900821282 L 128.95916900821283,18.25101900821278 L 106.74079900821283,15.077819008212828 L 78.62786900821277,9.448819008212809" fill="none" id="path341" inkscape:connector-curvature="0" sodipodi:nodetypes="ccccccccccccccccccccc" stroke-width="1" style="display:inline;opacity:1;vector-effect:none;fill:none;fill-opacity:1;stroke:#000000;stroke-width:1;stroke-linecap:round;stroke-linejoin:round;stroke-dasharray:none;stroke-dashoffset:0;stroke-opacity:1;marker:none" transform="translate(623.6220545420439,0.0)"/>
	<path d="M 484.67988900821274,33.66871900821282 L 421.7465890082128,123.32371900821302" fill="none" id="path261" inkscape:connector-curvature="0" stroke-width="1" style="display:inline;opacity:1;vector-effect:none;fill:none;fill-opacity:1;stroke:#000000;stroke-width:1;stroke-linecap:round;stroke-linejoin:round;stroke-dasharray:none;stroke-dashoffset:0;stroke-opacity:1;marker:none" transform="translate(306.1417358660943,0.0) rotate(90)"/>
	<path d="M 372.1107890082128,161.9810190082124 L 294.62088900821277,235.7954190082126" fill="none" id="path262" inkscape:connector-curvature="0" stroke-width="1" style="display:inline;opacity:1;vector-effect:none;fill:none;fill-opacity:1;stroke:#000000;stroke-width:1;stroke-linecap:round;stroke-linejoin:round;stroke-dasharray:none;stroke-dashoffset:0;stroke-opacity:1;marker:none" transform="translate(306.1417358660943,0.0) rotate(90)"/>
	<path d="M 421.7465890082128,123.32371900821256 L 372.1107890082128,161.9810190082124" fill="none" id="path263" inkscape:connector-curvature="0" stroke-width="1" style="display:inline;opacity:1;vector-effect:none;fill:none;fill-opacity:1;stroke:#000000;stroke-width:1;stroke-linecap:round;stroke-linejoin:round;stroke-dasharray:none;stroke-dashoffset:0;stroke-opacity:1;marker:none" transform="translate(306.1417358660943,0.0) rotate(90)"/>
	<path d="M 104.56180900821278,33.668619008212616 L 40.106539008212735,27.15351900821254" fill="none" id="path264" inkscape:connector-curvature="0" stroke-width="1" style="display:inline;opacity:1;vector-effect:none;fill:none;fill-opacity:1;stroke:#000000;stroke-width:1;stroke-linecap:round;stroke-linejoin:round;stroke-dasharray:none;stroke-dashoffset:0;stroke-opacity:1;marker:none" transform="translate(306.1417358660943,0.0) rotate(90)"/>
	<path d="M 167.49518900821272,123.32361900821282 L 104.56180900821278,33.668619008212616" fill="none" id="path265" inkscape:connector-curvature="0" stroke-width="1" style="display:inline;opacity:1;vector-effect:none;fill:none;fill-opacity:1;stroke:#000000;stroke-width:1;stroke-linecap:round;stroke-linejoin:round;stroke-dasharray:none;stroke-dashoffset:0;stroke-opacity:1;marker:none" transform="translate(306.1417358660943,0.0) rotate(90)"/>
	<path d="M 294.62088900821277,235.7954190082126 L 217.13098900821274,161.9810190082124" fill="none" id="path266" inkscape:connector-curvature="0" stroke-width="1" style="display:inline;opacity:1;vector-effect:none;fill:none;fill-opacity:1;stroke:#000000;stroke-width:1;stroke-linecap:round;stroke-linejoin:round;stroke-dasharray:none;stroke-dashoffset:0;stroke-opacity:1;marker:none" transform="translate(306.1417358660943,0.0) rotate(90)"/>
	<path d="M 217.13098900821274,161.9810190082124 L 167.49518900821272,123.32361900821236" fill="none" id="path267" inkscape:connector-curvature="0" stroke-width="1" style="display:inline;opacity:1;vector-effect:none;fill:none;fill-opacity:1;stroke:#000000;stroke-width:1;stroke-linecap:round;stroke-linejoin:round;stroke-dasharray:none;stroke-dashoffset:0;stroke-opacity:1;marker:none" transform="translate(306.1417358660943,0.0) rotate(90)"/>
	<path d="M 52.86230900821272,9.448819008212766 L 40.10643900821276,27.153919008212895 C 23.932019008212706,26.106419008212768 9.448819008212809,40.69661900821286 9.448819008212809,40.69661900821286 C 9.448819008212809,40.69661900821286 41.64078900821278,42.047819008212926 46.42637900821285,70.972319008213 C 37.45929900821284,96.5326190082131 45.48449900821288,113.82091900821281 45.48449900821288,113.82091900821281 C 49.399809008212856,105.38951900821287 72.84260900821289,100.2521190082128 87.47170900821288,102.41751900821266 C 74.83870900821285,133.07251900821285 95.10920900821293,188.0472190082126 125.55948900821284,250.5464190082128 C 121.84798900821283,206.909819008213 121.21278900821278,169.4240190082126 141.68848900821285,174.16171900821274 C 149.66918900821292,202.95411900821256 150.17258900821275,236.42081900821296 171.8544890082128,256.6500190082127 C 184.0515890082129,241.46561900821263 196.66848900821287,226.98321900821276 225.46968900821275,239.4722190082128 C 236.9562890082127,254.015719008213 259.04758900821275,264.3177190082127 253.58688900821267,285.6402190082129 C 274.5236890082126,298.052819008213 282.25188900821263,284.05031900821297 294.62008900821274,279.32571900821296 C 313.28498900821273,278.16171900821274 324.1434890082128,271.4210190082129 334.44468900821266,292.00101900821284 C 351.54108900821257,291.00411900821274 362.63008900821274,256.4232190082128 363.7723890082127,239.472319008213 C 397.54578900821275,224.1325190082128 408.9898890082127,240.689719008213 416.6845890082127,262.60511900821285 C 450.90398900821265,234.532119008213 442.9720890082126,203.98011900821285 447.5536890082126,174.1637190082127 C 473.61998900821254,157.51311900821275 499.80928900821255,138.03891900821264 524.0477890082125,163.4254190082127 C 521.4966890082126,144.06431900821264 513.7453890082124,123.66391900821266 501.76848900821255,102.41761900821287 C 530.9195890082126,94.66591900821307 560.0016890082125,88.64041900821287 589.8173890082126,64.21831900821265 C 567.7012890082126,60.41891900821277 545.4943890082125,56.710719008212735 549.1356890082125,27.15391900821244 L 484.68058900821256,33.66951900821262 L 462.94428900821254,31.74181900821243 L 412.5477890082125,103.5367190082123 L 421.74708900821247,123.32381900821231 L 401.5263890082124,115.11871900821218 L 369.1063890082123,140.36681900821196 L 372.11028900821225,161.98201900821215 L 351.1766890082122,155.8238190082123 L 294.6200890082123,209.6969190082121 L 294.6208890082123,235.79531900821195 L 294.6200890082123,209.6969190082121 L 238.06538900821238,155.8238190082123 L 217.1317890082123,161.98201900821215 L 220.13568900821224,140.36681900821196 L 187.7137890082122,115.11871900821218 L 167.4950890082123,123.32381900821231 L 176.6942890082123,103.5367190082123 L 126.29778900821225,31.74181900821243 L 104.56150900821228,33.66951900821262 L 95.60640900821227,13.769119008212627 L 52.86230900821272,9.448819008212766" fill="none" id="path349" inkscape:connector-curvature="0" sodipodi:nodetypes="ccccccccccccccccccccccccccccccccccccccccc" stroke-width="1" style="display:inline;opacity:1;vector-effect:none;fill:none;fill-opacity:1;stroke:#000000;stroke-width:1;stroke-linecap:round;stroke-linejoin:round;stroke-dasharray:none;stroke-dashoffset:0;stroke-opacity:1;marker:none" transform="translate(306.1417358660943,0.0) rotate(90)"/>
	<path d="M 65.1758190082129,231.37051900821268 L 58.944319008212915,114.15351900821258" fill="none" id="path27" inkscape:connector-curvature="0" stroke-width="1" style="display:inline;opacity:1;vector-effect:none;fill:none;fill-opacity:1;stroke:#000000;stroke-width:1;stroke-linecap:round;stroke-linejoin:round;stroke-dasharray:none;stroke-dashoffset:0;stroke-opacity:1;marker:none" transform="translate(0.0,555.5905576829118)"/>
	<path d="M 29.858229008212902,111.43101900821273 L 10.11816900821293,232.27161900821272" fill="none" id="path28" inkscape:connector-curvature="0" stroke-width="1" style="display:inline;opacity:1;vector-effect:none;fill:none;fill-opacity:1;stroke:#000000;stroke-width:1;stroke-linecap:round;stroke-linejoin:round;stroke-dasharray:none;stroke-dashoffset:0;stroke-opacity:1;marker:none" transform="translate(0.0,555.5905576829118)"/>
	<path d="M 51.96531900821287,9.448819008212809 L 39.716219008212875,46.14171900821282" fill="none" id="path29" inkscape:connector-curvature="0" stroke-width="1" style="display:inline;opacity:1;vector-effect:none;fill:none;fill-opacity:1;stroke:#000000;stroke-width:1;stroke-linecap:round;stroke-linejoin:round;stroke-dasharray:none;stroke-dashoffset:0;stroke-opacity:1;marker:none" transform="translate(0.0,555.5905576829118)"/>
	<path d="M 64.41911900821287,66.14891900821283 L 51.96531900821287,9.448819008212809 L 30.58528900821284,13.814019008212995 L 25.245879008212796,29.808619008212986 L 39.71621900821276,46.14171900821282 L 29.85822900821279,111.43101900821273 L 9.448819008212809,119.15221900821268 L 10.118169008212817,232.27161900821272 L 65.17581900821278,231.37051900821268 L 83.46761900821275,219.47211900821264 L 78.3945190082128,124.04541900821266 L 58.9443190082128,114.15351900821258 L 64.41911900821287,66.14891900821283" fill="none" id="path306" inkscape:connector-curvature="0" sodipodi:nodetypes="ccccccccccccc" stroke-width="1" style="display:inline;opacity:1;vector-effect:none;fill:none;fill-opacity:1;stroke:#000000;stroke-width:1;stroke-linecap:round;stroke-linejoin:round;stroke-dasharray:none;stroke-dashoffset:0;stroke-opacity:1;marker:none" transform="translate(0.0,555.5905576829118)"/>
	<path d="M 137.8553360082127,165.64761500821268 L 137.62516600821272,120.6480150082126" fill="none" id="path239" inkscape:connector-curvature="0" stroke-width="1" style="display:inline;opacity:1;vector-effect:none;fill:none;fill-opacity:1;stroke:#000000;stroke-width:1;stroke-linecap:round;stroke-linejoin:round;stroke-dasharray:none;stroke-dashoffset:0;stroke-opacity:1;marker:none" transform="translate(132.283466114979,117.16535570183855)"/>
	<path d="M 204.03831600821275,36.46921500821246 L 121.68247600821273,81.35891500821263" fill="none" id="path240" inkscape:connector-curvature="0" stroke-width="1" style="display:inline;opacity:1;vector-effect:none;fill:none;fill-opacity:1;stroke:#000000;stroke-width:1;stroke-linecap:round;stroke-linejoin:round;stroke-dasharray:none;stroke-dashoffset:0;stroke-opacity:1;marker:none" transform="translate(132.283466114979,117.16535570183855)"/>
	<path d="M 489.4114960082128,80.89421500821264 L 406.9423560082128,36.2127150082125" fill="none" id="path241" inkscape:connector-curvature="0" stroke-width="1" style="display:inline;opacity:1;vector-effect:none;fill:none;fill-opacity:1;stroke:#000000;stroke-width:1;stroke-linecap:round;stroke-linejoin:round;stroke-dasharray:none;stroke-dashoffset:0;stroke-opacity:1;marker:none" transform="translate(132.283466114979,117.16535570183855)"/>
	<path d="M 256.9505660082127,32.07411500821273 L 204.03831600821275,36.46921500821291" fill="none" id="path242" inkscape:connector-curvature="0" stroke-width="1" style="display:inline;opacity:1;vector-effect:none;fill:none;fill-opacity:1;stroke:#000000;stroke-width:1;stroke-linecap:round;stroke-linejoin:round;stroke-dasharray:none;stroke-dashoffset:0;stroke-opacity:1;marker:none" transform="translate(132.283466114979,117.16535570183855)"/>
	<path d="M 406.94235600821276,36.2127150082125 L 354.0191460082128,31.95131500821263" fill="none" id="path243" inkscape:connector-curvature="0" stroke-width="1" style="display:inline;opacity:1;vector-effect:none;fill:none;fill-opacity:1;stroke:#000000;stroke-width:1;stroke-linecap:round;stroke-linejoin:round;stroke-dasharray:none;stroke-dashoffset:0;stroke-opacity:1;marker:none" transform="translate(132.283466114979,117.16535570183855)"/>
	<path d="M 305.4787560082127,27.191615008212565 L 256.9505660082127,32.07411500821273" fill="none" id="path244" inkscape:connector-curvature="0" stroke-width="1" style="display:inline;opacity:1;vector-effect:none;fill:none;fill-opacity:1;stroke:#000000;stroke-width:1;stroke-linecap:round;stroke-linejoin:round;stroke-dasharray:none;stroke-dashoffset:0;stroke-opacity:1;marker:none" transform="translate(132.283466114979,117.16535570183855)"/>
	<path d="M 354.0191460082127,31.95131500821263 L 305.4787560082127,27.191615008212565" fill="none" id="path245" inkscape:connector-curvature="0" stroke-width="1" style="display:inline;opacity:1;vector-effect:none;fill:none;fill-opacity:1;stroke:#000000;stroke-width:1;stroke-linecap:round;stroke-linejoin:round;stroke-dasharray:none;stroke-dashoffset:0;stroke-opacity:1;marker:none" transform="translate(132.283466114979,117.16535570183855)"/>
	<path d="M 473.5680560082127,120.22341500821277 L 473.4516460082127,165.22341500821275" fill="none" id="path246" inkscape:connector-curvature="0" stroke-width="1" style="display:inline;opacity:1;vector-effect:none;fill:none;fill-opacity:1;stroke:#000000;stroke-width:1;stroke-linecap:round;stroke-linejoin:round;stroke-dasharray:none;stroke-dashoffset:0;stroke-opacity:1;marker:none" transform="translate(132.283466114979,117.16535570183855)"/>
	<path d="M 38.406446008212725,140.5713150082125 L 26.420766008212723,216.7445150082127" fill="none" id="path247" inkscape:connector-curvature="0" stroke-width="1" style="display:inline;opacity:1;vector-effect:none;fill:none;fill-opacity:1;stroke:#000000;stroke-width:1;stroke-linecap:round;stroke-linejoin:round;stroke-dasharray:none;stroke-dashoffset:0;stroke-opacity:1;marker:none" transform="translate(132.283466114979,117.16535570183855)"/>
	<path d="M 121.68247600821273,81.35891500821263 L 38.406446008212725,140.5713150082125" fill="none" id="path248" inkscape:connector-curvature="0" stroke-width="1" style="display:inline;opacity:1;vector-effect:none;fill:none;fill-opacity:1;stroke:#000000;stroke-width:1;stroke-linecap:round;stroke-linejoin:round;stroke-dasharray:none;stroke-dashoffset:0;stroke-opacity:1;marker:none" transform="translate(132.283466114979,117.16535570183855)"/>
	<path d="M 585.0150260082128,216.03851500821256 L 572.8368160082127,139.89591500821288" fill="none" id="path249" inkscape:connector-curvature="0" stroke-width="1" style="display:inline;opacity:1;vector-effect:none;fill:none;fill-opacity:1;stroke:#000000;stroke-width:1;stroke-linecap:round;stroke-linejoin:round;stroke-dasharray:none;stroke-dashoffset:0;stroke-opacity:1;marker:none" transform="translate(132.283466114979,117.16535570183855)"/>
	<path d="M 572.8368160082127,139.89591500821288 L 489.4114960082127,80.8942150082131" fill="none" id="path250" inkscape:connector-curvature="0" stroke-width="1" style="display:inline;opacity:1;vector-effect:none;fill:none;fill-opacity:1;stroke:#000000;stroke-width:1;stroke-linecap:round;stroke-linejoin:round;stroke-dasharray:none;stroke-dashoffset:0;stroke-opacity:1;marker:none" transform="translate(132.283466114979,117.16535570183855)"/>
	<path d="M 318.1812460082127,9.448819008212764 L 305.47811600821274,27.191006008212767 L 292.73202600821276,9.482022008212764 L 265.9136660082128,12.179287008212766 L 256.95077600821276,32.073819008212766 L 244.51327600821276,14.144131008212765 L 213.34725600821275,16.733975008212767 L 204.03866600821277,36.46835000821277 L 185.41366600821277,25.097256008212767 L 122.21834600821275,59.54452500821277 L 121.68319600821276,81.35897500821277 L 101.83944600821276,72.28084500821276 L 36.34725600821277,118.84725500821277 L 38.40584600821276,140.57186500821277 L 18.042569008212766,148.41170500821278 L 9.448819008212766,203.0288950082128 L 26.421476008212764,216.7437450082128 C 35.24095600821276,220.64974500821282 41.28459600821276,225.83755500821283 55.71053600821277,227.15584500821282 C 56.77119600821278,216.1956550082128 56.05476600821278,209.0686750082128 59.23202600821277,199.6714750082128 C 60.01948600821278,197.34243500821282 61.131516008212756,194.4882350082128 62.89803600821277,191.8081950082128 L 68.43124600821277,188.0249950082128 L 83.03084600821278,183.3199150082128 C 85.22274600821278,183.5538950082128 87.61055600821278,184.0085150082128 90.23006600821277,184.7437450082128 C 90.32526600821278,183.46135500821282 90.58485600821278,182.1213350082128 90.98983600821278,180.7535050082128 L 137.85506600821276,165.64803500821282 L 156.6968660082128,154.6402250082128 L 156.66756600821276,142.0679550082128 L 137.6245960082128,120.64803500821283 C 147.43570600821278,131.6965350082128 159.86751600821276,145.97374500821283 189.09139600821277,154.1226450082128 C 182.00293600821277,139.5287450082128 176.19382600821274,125.01395500821282 183.94295600821278,111.3472550082128 C 188.51862600821278,124.6724550082128 202.26496600821275,131.7038550082128 216.71639600821277,136.5640550082128 C 213.00408600821277,121.53795500821279 213.70663600821274,103.8257750082128 213.70663600821274,103.8257750082128 C 213.55659600821275,102.1939850082128 213.53181600821273,100.57098500821279 213.58944600821275,98.95467500821279 L 217.34139600821277,98.68905500821278 C 217.32129600821276,100.04241500821279 217.32349600821277,101.38191500821277 217.37259600821278,102.68905500821278 L 217.9936960082128,119.22030500821278 L 221.5854860082128,102.38241500821276 C 221.87552600821277,101.02227500821276 222.19128600821278,99.66976500821276 222.5190860082128,98.32186500821275 L 229.20853600821283,97.84725500821274 C 228.82242600821286,101.11571500821275 228.48786600821285,104.29204500821275 228.2358760082128,107.23006500821275 C 229.2535560082128,104.06512500821275 230.3354360082128,100.87415500821275 231.4936960082128,97.68514500821276 L 254.05814600821282,96.08163500821276 L 290.8042360082128,94.15389500821276 C 293.0894360082128,96.07776500821275 295.5520560082128,97.85005500821275 298.2124360082128,99.42928500821274 L 316.8921260082128,110.51717500821273 L 309.3843160082128,98.94881500821272 C 308.3764460082128,97.39586500821271 307.3634660082128,95.50614500821273 306.39603600821283,93.42147500821271 L 319.46048600821285,94.07381500821272 C 331.20747600821284,101.55851500821272 344.68666600821285,104.78909500821273 353.8882260082129,106.64803500821272 C 349.1681660082129,105.31224500821271 344.1207260082129,101.2771150082127 339.12650600821286,95.05428500821272 L 351.88236600821284,95.69100500821271 C 356.50643600821286,99.07320500821272 361.43402600821287,101.9545050082127 366.64017600821285,104.15584500821272 L 378.3784560082128,108.37460500821273 L 375.03861600821284,103.80038500821273 C 373.69976600821286,101.67898500821273 372.48277600821285,99.36460500821273 371.34134600821284,96.92733500821272 L 375.11673600821285,97.18710500821273 C 375.9808760082129,99.26129500821271 376.82935600821287,101.40402500821271 377.66361600821284,103.67538500821273 C 380.85174600821284,112.35538500821274 383.23766600821284,119.23456500821273 384.75736600821284,129.0093650082127 C 389.1674960082128,123.93916500821273 393.35633600821285,117.28146500821272 396.39017600821285,110.72616500821273 C 397.82155600821284,107.63333500821274 399.2797960082128,102.58476500821273 400.26517600821285,98.90975500821274 L 403.6206460082129,99.13827500821274 C 404.22286600821286,100.53731500821276 404.7630160082129,102.00330500821273 404.96048600821285,103.13045500821273 C 407.40958600821284,117.10925500821274 402.91361600821284,145.6558450082127 402.91361600821284,145.6558450082127 C 425.53124600821286,147.0145450082127 447.6022760082128,136.3502550082127 469.5600960082129,123.1929550082127 L 473.56790600821284,120.2242050082127 L 454.63431600821286,134.3472550082127 L 454.5816160082129,154.2632750082127 L 473.4507560082129,165.2242050082127 L 512.6128660082129,177.7378850082127 C 512.7923660082129,179.38534500821268 512.8244160082129,180.9830050082127 512.6987660082129,182.4839750082127 C 515.303136008213,181.27772500821268 517.988436008213,180.5736050082127 520.6362660082129,180.3003850082127 L 538.7729860082129,186.09530500821268 C 540.5758660082129,187.8302050082127 541.9690460082129,189.88141500821268 542.7925160082129,192.16952500821267 C 547.751076008213,205.94742500821266 541.4123060082129,224.50499500821266 535.474156008213,235.89999500821264 C 553.4620060082129,234.92959500821266 565.7584760082129,227.79426500821265 585.015176008213,216.03866500821263 L 601.952676008213,202.28084500821265 L 593.2202560082129,147.68514500821266 L 572.8374360082129,139.89608500821265 L 574.8413460082129,118.16756500821266 L 509.2319760082129,71.76522500821265 L 489.41165600821284,80.89413500821264 L 488.8198660082129,59.08163500821264 L 425.5366560082129,24.79452200821264 L 406.9429060082129,36.21249100821264 L 397.5835360082129,16.49960000821264 L 366.4116560082129,13.989834008212638 L 354.0190860082129,31.95077200821264 L 345.0054060082129,12.079678008212637 L 318.1812460082127,9.448819008212764" fill="none" id="path346" inkscape:connector-curvature="0" stroke-width="1" style="display:inline;opacity:1;vector-effect:none;fill:none;fill-opacity:1;stroke:#000000;stroke-width:1;stroke-linecap:round;stroke-linejoin:round;stroke-dasharray:none;stroke-dashoffset:0;stroke-opacity:1;marker:none" transform="translate(132.283466114979,117.16535570183855)"/>
	<path d="M 59.77321900821272,29.94051900821262 L 23.59678900821274,42.91991900821267" fill="none" id="path222" inkscape:connector-curvature="0" stroke-width="1" style="display:inline;opacity:1;vector-effect:none;fill:none;fill-opacity:1;stroke:#000000;stroke-width:1;stroke-linecap:round;stroke-linejoin:round;stroke-dasharray:none;stroke-dashoffset:0;stroke-opacity:1;marker:none" transform="translate(423.30709156793284,498.89764363363514) rotate(90)"/>
	<path d="M 23.59678900821274,42.91991900821267 L 50.205689008212744,117.72151900821268" fill="none" id="path223" inkscape:connector-curvature="0" stroke-width="1" style="display:inline;opacity:1;vector-effect:none;fill:none;fill-opacity:1;stroke:#000000;stroke-width:1;stroke-linecap:round;stroke-linejoin:round;stroke-dasharray:none;stroke-dashoffset:0;stroke-opacity:1;marker:none" transform="translate(423.30709156793284,498.89764363363514) rotate(90)"/>
	<path d="M 103.08213900821272,31.011319008212695 L 78.4980090082127,25.50441900821272" fill="none" id="path224" inkscape:connector-curvature="0" stroke-width="1" style="display:inline;opacity:1;vector-effect:none;fill:none;fill-opacity:1;stroke:#000000;stroke-width:1;stroke-linecap:round;stroke-linejoin:round;stroke-dasharray:none;stroke-dashoffset:0;stroke-opacity:1;marker:none" transform="translate(423.30709156793284,498.89764363363514) rotate(90)"/>
	<path d="M 78.4980090082127,25.504519008212696 L 59.77321900821272,29.940619008212707 L 43.12182900821273,15.837619008212755 L 27.484579008212734,21.448019008212782 L 23.59678900821274,42.92001900821276 L 9.448819008212752,59.53311900821279 L 28.744319008212756,113.77571900821283 L 50.205689008212744,117.72161900821288 L 61.74984900821272,138.0177190082129 L 73.95220900821272,136.45991900821286 L 73.49092900821273,114.77741900821286 L 81.1728790082127,134.88161900821285 L 99.4944190082127,133.09351900821287 L 103.08213900821269,112.74161900821287 L 106.7995690082127,133.0512190082129 L 124.6869390082127,134.8542190082129 L 131.7174590082127,114.17001900821288 L 130.3945790082127,135.98391900821287 L 142.0071990082127,138.16341900821283 L 153.1079190082127,120.96501900821283 L 188.45681900821268,49.875219008212866 L 140.42922900821267,47.198019008212896 L 103.08213900821266,31.011419008212897 L 96.56611900821267,10.185919008212863 L 93.27542900821265,9.448819008212809 L 78.4980090082127,25.504519008212696" fill="none" id="path342" inkscape:connector-curvature="0" sodipodi:nodetypes="cccccccccccccccccccccccccc" stroke-width="1" style="display:inline;opacity:1;vector-effect:none;fill:none;fill-opacity:1;stroke:#000000;stroke-width:1;stroke-linecap:round;stroke-linejoin:round;stroke-dasharray:none;stroke-dashoffset:0;stroke-opacity:1;marker:none" transform="translate(423.30709156793284,498.89764363363514) rotate(90)"/>
	<path d="M 121.21564900821272,78.91067900821292 L 146.73430900821273,110.62197900821286" fill="none" id="path167" inkscape:connector-curvature="0" stroke-width="1" style="display:inline;opacity:1;vector-effect:none;fill:none;fill-opacity:1;stroke:#000000;stroke-width:1;stroke-linecap:round;stroke-linejoin:round;stroke-dasharray:none;stroke-dashoffset:0;stroke-opacity:1;marker:none" transform="translate(744.5669378471675,11.338582809855344)"/>
	<path d="M 149.55794900821274,110.62197900821286 L 175.07659900821272,78.91067900821292" fill="none" id="path168" inkscape:connector-curvature="0" stroke-width="1" style="display:inline;opacity:1;vector-effect:none;fill:none;fill-opacity:1;stroke:#000000;stroke-width:1;stroke-linecap:round;stroke-linejoin:round;stroke-dasharray:none;stroke-dashoffset:0;stroke-opacity:1;marker:none" transform="translate(744.5669378471675,11.338582809855344)"/>
	<path d="M 9.448819008212752,106.06887900821278 L 40.771059008212774,69.56227900821261" fill="none" id="path169" inkscape:connector-curvature="0" stroke-width="1" style="display:inline;opacity:1;vector-effect:none;fill:none;fill-opacity:1;stroke:#000000;stroke-width:1;stroke-linecap:round;stroke-linejoin:round;stroke-dasharray:none;stroke-dashoffset:0;stroke-opacity:1;marker:none" transform="translate(744.5669378471675,11.338582809855344)"/>
	<path d="M 197.87652900821274,68.19297900821277 L 217.11862900821274,67.99987900821282" fill="none" id="path172" inkscape:connector-curvature="0" stroke-width="1" style="display:inline;opacity:1;vector-effect:none;fill:none;fill-opacity:1;stroke:#000000;stroke-width:1;stroke-linecap:round;stroke-linejoin:round;stroke-dasharray:none;stroke-dashoffset:0;stroke-opacity:1;marker:none" transform="translate(744.5669378471675,11.338582809855344)"/>
	<path d="M 79.17362900821274,67.99987900821282 L 98.41572900821274,68.19297900821277" fill="none" id="path173" inkscape:connector-curvature="0" stroke-width="1" style="display:inline;opacity:1;vector-effect:none;fill:none;fill-opacity:1;stroke:#000000;stroke-width:1;stroke-linecap:round;stroke-linejoin:round;stroke-dasharray:none;stroke-dashoffset:0;stroke-opacity:1;marker:none" transform="translate(744.5669378471675,11.338582809855344)"/>
	<path d="M 255.52119900821276,69.56227900821261 L 286.84346900821276,106.06887900821278" fill="none" id="path176" inkscape:connector-curvature="0" stroke-width="1" style="display:inline;opacity:1;vector-effect:none;fill:none;fill-opacity:1;stroke:#000000;stroke-width:1;stroke-linecap:round;stroke-linejoin:round;stroke-dasharray:none;stroke-dashoffset:0;stroke-opacity:1;marker:none" transform="translate(744.5669378471675,11.338582809855344)"/>
	<path d="M 282.0883690082128,66.8947790082126 L 278.62522900821284,27.937079008212663" fill="none" id="path177" inkscape:connector-curvature="0" sodipodi:nodetypes="cc" stroke-width="1" style="display:inline;opacity:1;vector-effect:none;fill:none;fill-opacity:1;stroke:#000000;stroke-width:1;stroke-linecap:round;stroke-linejoin:round;stroke-dasharray:none;stroke-dashoffset:0;stroke-opacity:1;marker:none" transform="translate(744.5669378471675,11.338582809855344)"/>
	<path d="M 278.6252290082127,27.937079008212663 L 252.32639900821272,31.995679008212505 L 219.2619490082127,42.382379008212524 L 197.17014900821272,48.32377900821268 L 174.4885090082127,55.79057900821283 L 148.20530900821268,59.68117900821301 L 121.92209900821268,55.79057900821283 L 99.12051900821268,48.32247900821278 L 77.3198790082127,42.38257900821293 L 44.0822590082127,31.99567900821296 L 17.783429008212693,27.937079008213118" fill="none" id="path178" inkscape:connector-curvature="0" sodipodi:nodetypes="cccccccccc" stroke-width="1" style="display:inline;opacity:1;vector-effect:none;fill:none;fill-opacity:1;stroke:#000000;stroke-width:1;stroke-linecap:round;stroke-linejoin:round;stroke-dasharray:none;stroke-dashoffset:0;stroke-opacity:1;marker:none" transform="translate(744.5669378471675,11.338582809855344)"/>
	<path d="M 286.84346900821276,106.06887900821278 L 282.0883690082128,66.8947790082126" fill="none" id="path179" inkscape:connector-curvature="0" stroke-width="1" style="display:inline;opacity:1;vector-effect:none;fill:none;fill-opacity:1;stroke:#000000;stroke-width:1;stroke-linecap:round;stroke-linejoin:round;stroke-dasharray:none;stroke-dashoffset:0;stroke-opacity:1;marker:none" transform="translate(744.5669378471675,11.338582809855344)"/>
	<path d="M 265.0451490082127,10.913629008212979 L 260.20334900821274,11.661669008212925 L 252.32639900821272,31.995659008212783 L 233.2356990082127,15.785499008212923 L 225.0761790082127,18.348699008212975 L 219.2619490082127,42.38237900821298 L 203.9181990082127,26.94682900821283 L 202.79905900821268,27.247609008212862 L 197.17014900821266,48.32377900821291 L 179.91971900821267,32.287589008212876 L 174.48850900821265,55.79058900821303 L 161.00999900821262,38.68510900821286 L 156.20334900821263,39.396049008213026 L 148.20530900821262,59.68118900821298 L 136.34506900821265,37.03974900821288 L 121.92209900821263,55.79058900821303 L 117.45920900821261,34.437069008212916 L 115.40452900821259,33.75932900821306 L 99.23850900821259,48.32377900821291 L 94.06431900821258,27.41351900821303 L 77.14866900821255,42.38237900821298 L 72.39475900821253,21.091359008212862 L 60.04905900821251,17.21245900821293 L 44.08225900821253,31.995659008212783 L 43.82219900821252,13.714519008212733 L 28.921239008212524,9.448819008212809 L 17.783429008212522,27.93706900821269 L 14.203349008212513,66.89408900821275 L 9.449449008212525,106.06988900821273 L 30.89475900821253,110.09328900821276 L 48.008039008212506,90.14798900821268 L 40.7717090082125,69.56208900821264 L 79.17405900821251,67.99958900821264 L 88.60569900821253,86.99368900821253 L 98.41623900821253,68.19288900821255 L 121.21506900821254,78.91168900821265 L 113.33225900821253,99.2592890082127 L 125.17209900821251,113.97028900821272 L 146.7345990082125,110.62258900821269 L 148.1467090082125,87.33548900821268 L 149.55881900821248,110.62258900821269 L 171.12131900821248,113.97028900821272 L 182.9592090082125,99.2592890082127 L 175.0763990082125,78.91168900821265 L 197.87717900821247,68.19288900821277 L 207.68772900821244,86.99368900821275 L 217.11936900821246,67.99958900821287 L 255.52170900821244,69.56208900821287 L 248.28342900821247,90.14798900821268 L 265.39670900821244,110.09328900821276 L 286.8439790082124,106.06988900821273 L 302.16233900821237,75.44878900821266 L 298.3381190082124,37.07377900821268 L 278.6252290082124,27.93706900821269 L 265.0451490082127,10.913629008212979" fill="none" id="path330" inkscape:connector-curvature="0" sodipodi:nodetypes="ccccccccccccccccccccccccccccccccccccccccccccccccccccccc" stroke-width="1" style="display:inline;opacity:1;vector-effect:none;fill:none;fill-opacity:1;stroke:#000000;stroke-width:1;stroke-linecap:round;stroke-linejoin:round;stroke-dasharray:none;stroke-dashoffset:0;stroke-opacity:1;marker:none" transform="translate(744.5669378471675,11.338582809855344)"/>
	<path d="M 708.5480290082128,47.98551900821286 L 622.2941290082128,26.343019008212934" fill="none" id="path253" inkscape:connector-curvature="0" stroke-width="1" style="display:inline;opacity:1;vector-effect:none;fill:none;fill-opacity:1;stroke:#000000;stroke-width:1;stroke-linecap:round;stroke-linejoin:round;stroke-dasharray:none;stroke-dashoffset:0;stroke-opacity:1;marker:none" transform="translate(207.8740181806813,328.818901485805)"/>
	<path d="M 431.61982900821295,70.76301900821255 L 358.99842900821295,103.87621900821233" fill="none" id="path254" inkscape:connector-curvature="0" stroke-width="1" style="display:inline;opacity:1;vector-effect:none;fill:none;fill-opacity:1;stroke:#000000;stroke-width:1;stroke-linecap:round;stroke-linejoin:round;stroke-dasharray:none;stroke-dashoffset:0;stroke-opacity:1;marker:none" transform="translate(207.8740181806813,328.818901485805)"/>
	<path d="M 533.5404290082129,40.81771900821269 L 431.61982900821295,70.76301900821255" fill="none" id="path255" inkscape:connector-curvature="0" stroke-width="1" style="display:inline;opacity:1;vector-effect:none;fill:none;fill-opacity:1;stroke:#000000;stroke-width:1;stroke-linecap:round;stroke-linejoin:round;stroke-dasharray:none;stroke-dashoffset:0;stroke-opacity:1;marker:none" transform="translate(207.8740181806813,328.818901485805)"/>
	<path d="M 622.2941290082128,26.343019008212934 L 533.5404290082129,40.817719008213146" fill="none" id="path256" inkscape:connector-curvature="0" stroke-width="1" style="display:inline;opacity:1;vector-effect:none;fill:none;fill-opacity:1;stroke:#000000;stroke-width:1;stroke-linecap:round;stroke-linejoin:round;stroke-dasharray:none;stroke-dashoffset:0;stroke-opacity:1;marker:none" transform="translate(207.8740181806813,328.818901485805)"/>
	<path d="M 95.70285900821284,26.342919008212732 L 9.448819008212809,47.98541900821266" fill="none" id="path257" inkscape:connector-curvature="0" stroke-width="1" style="display:inline;opacity:1;vector-effect:none;fill:none;fill-opacity:1;stroke:#000000;stroke-width:1;stroke-linecap:round;stroke-linejoin:round;stroke-dasharray:none;stroke-dashoffset:0;stroke-opacity:1;marker:none" transform="translate(207.8740181806813,328.818901485805)"/>
	<path d="M 358.99842900821295,103.87621900821279 L 286.37712900821293,70.763019008213" fill="none" id="path258" inkscape:connector-curvature="0" stroke-width="1" style="display:inline;opacity:1;vector-effect:none;fill:none;fill-opacity:1;stroke:#000000;stroke-width:1;stroke-linecap:round;stroke-linejoin:round;stroke-dasharray:none;stroke-dashoffset:0;stroke-opacity:1;marker:none" transform="translate(207.8740181806813,328.818901485805)"/>
	<path d="M 286.37712900821293,70.76301900821255 L 184.45654900821285,40.817619008212944" fill="none" id="path259" inkscape:connector-curvature="0" stroke-width="1" style="display:inline;opacity:1;vector-effect:none;fill:none;fill-opacity:1;stroke:#000000;stroke-width:1;stroke-linecap:round;stroke-linejoin:round;stroke-dasharray:none;stroke-dashoffset:0;stroke-opacity:1;marker:none" transform="translate(207.8740181806813,328.818901485805)"/>
	<path d="M 184.45654900821285,40.817619008212944 L 95.70285900821284,26.342919008212732" fill="none" id="path260" inkscape:connector-curvature="0" stroke-width="1" style="display:inline;opacity:1;vector-effect:none;fill:none;fill-opacity:1;stroke:#000000;stroke-width:1;stroke-linecap:round;stroke-linejoin:round;stroke-dasharray:none;stroke-dashoffset:0;stroke-opacity:1;marker:none" transform="translate(207.8740181806813,328.818901485805)"/>
	<path d="M 109.51350900821285,9.448819008212752 L 95.70295900821282,26.343419008212834 L 80.5213190082128,10.669519008213058 L 15.431479008212818,27.00161900821314 L 9.449059008212771,47.985919008213216 C 14.003709008212809,69.83421900821332 25.493029008212716,92.02031900821322 64.9900690082128,108.58751900821318 C 52.13077900821281,97.49791900821339 39.43251900821281,78.57791900821331 53.90412900821275,68.05041900821317 C 64.99093900821276,108.58651900821297 87.07627900821274,106.75921900821305 110.8338190082128,112.09341900821329 C 102.52070900821275,99.40591900821329 97.58911900821283,90.59541900821324 105.03498900821285,82.35311900821335 C 123.68124900821283,93.58091900821347 140.41574900821286,105.32941900821316 138.64824900821282,122.12461900821319 C 165.35694900821284,124.58121900821317 184.63584900821286,118.67951900821328 196.25952900821278,104.16561900821335 C 203.70592900821282,119.48181900821356 216.44892900821287,133.61161900821327 242.32992900821273,140.3746190082132 C 236.15262900821267,122.00391900821324 235.8341290082128,115.33101900821322 248.02132900821266,108.04061900821335 C 264.0220290082127,118.45741900821332 256.30712900821277,136.14301900821357 251.75562900821274,150.29651900821347 C 269.4826290082128,146.46241900821343 293.3930290082128,136.92451900821362 298.1560290082127,111.79261900821331 C 299.79302900821267,124.20141900821346 298.7105290082127,134.68741900821334 311.4021290082128,161.55231900821337 C 313.57072900821277,145.59461900821344 320.5163290082128,138.59281900821344 330.2146290082128,136.75351900821335 C 328.12972900821273,148.07841900821342 327.6810290082128,159.65531900821344 313.8142290082128,169.1676190082133 C 328.23342900821285,170.3266190082134 341.9090290082129,176.6944190082134 358.9978290082129,159.16561900821335 C 376.08672900821284,176.6944190082134 389.7623290082129,170.3266190082134 404.18142900821294,169.1676190082133 C 390.3147290082129,159.65531900821344 389.86792900821297,148.07841900821342 387.7830290082129,136.75351900821335 C 397.4814290082129,138.59281900821344 404.42692900821294,145.59461900821344 406.5955290082129,161.55231900821337 C 419.287129008213,134.68741900821334 418.2046290082128,124.20141900821346 419.841629008213,111.79261900821331 C 424.6046290082129,136.92451900821317 448.5131290082129,146.46241900821343 466.240029008213,150.29651900821347 C 461.68862900821296,136.14301900821357 453.973729008213,118.45741900821332 469.97442900821306,108.04061900821335 C 482.16162900821314,115.33101900821322 481.84502900821303,122.00391900821324 475.6678290082132,140.3746190082132 C 501.5487290082133,133.61161900821327 514.2918290082132,119.48181900821311 521.7381290082133,104.16561900821335 C 533.3618290082134,118.67951900821328 567.1388290082132,127.33121900821317 593.8474290082133,124.87461900821319 C 584.5800290082134,102.07941900821316 594.3145290082134,93.58091900821302 612.9607290082133,82.35311900821335 C 626.9153290082133,109.6645190082134 650.6742290082134,115.34691900821355 668.6821290082132,120.0037190082133 C 661.9539290082132,114.73811900821312 645.7054290082133,81.60821900821321 662.9889290082133,64.36621900821348 C 676.5617290082132,87.4146190082136 686.8643290082132,98.7534190082136 715.6236290082134,99.18351900821364 C 699.5385290082133,89.01861900821342 706.4627290082133,65.08881900821353 708.5486290082133,47.98591900821367 L 702.5642290082133,27.001619008213595 L 637.4764290082132,10.669519008213513 L 622.2947290082132,26.34341900821329 L 608.4842290082131,9.448819008213206 L 541.2674290082132,20.40981900821299 L 533.5408290082132,40.81801900821284 L 517.7459290082131,25.76131900821275 L 436.7615290082131,49.55621900821262 L 431.6189290082132,70.7633190082127 L 413.85142900821324,58.095319008212584 L 361.0857290082133,82.15591900821238 L 358.99782900821333,103.87661900821223 L 356.9119290082133,82.15591900821238 L 304.1443290082134,58.095319008212584 L 286.3767290082135,70.7633190082127 L 281.23612900821354,49.55621900821262 L 200.2517290082135,25.76131900821275 L 184.45684900821345,40.81801900821284 L 176.73034900821347,20.40981900821299 L 109.51350900821285,9.448819008212752" fill="none" id="path348" inkscape:connector-curvature="0" sodipodi:nodetypes="ccccccccccccccccccccccccccccccccccccccccccccccccccccc" stroke-width="1" style="display:inline;opacity:1;vector-effect:none;fill:none;fill-opacity:1;stroke:#000000;stroke-width:1;stroke-linecap:round;stroke-linejoin:round;stroke-dasharray:none;stroke-dashoffset:0;stroke-opacity:1;marker:none" transform="translate(207.8740181806813,328.818901485805)"/>
	<path d="M 141.0757520082128,40.31405900821244 L 77.28794200821278,75.6651590082123" fill="none" id="path144" inkscape:connector-curvature="0" stroke-width="1" style="display:inline;opacity:1;vector-effect:none;fill:none;fill-opacity:1;stroke:#000000;stroke-width:1;stroke-linecap:round;stroke-linejoin:round;stroke-dasharray:none;stroke-dashoffset:0;stroke-opacity:1;marker:none" transform="translate(355.2755947088008,544.2519748730565)"/>
	<path d="M 399.7079820082128,75.67615900821272 L 335.92253200821284,40.3206590082126" fill="none" id="path145" inkscape:connector-curvature="0" stroke-width="1" style="display:inline;opacity:1;vector-effect:none;fill:none;fill-opacity:1;stroke:#000000;stroke-width:1;stroke-linecap:round;stroke-linejoin:round;stroke-dasharray:none;stroke-dashoffset:0;stroke-opacity:1;marker:none" transform="translate(355.2755947088008,544.2519748730565)"/>
	<path d="M 187.2198920082128,32.58825900821273 L 141.07575200821282,40.314059008212894" fill="none" id="path146" inkscape:connector-curvature="0" stroke-width="1" style="display:inline;opacity:1;vector-effect:none;fill:none;fill-opacity:1;stroke:#000000;stroke-width:1;stroke-linecap:round;stroke-linejoin:round;stroke-dasharray:none;stroke-dashoffset:0;stroke-opacity:1;marker:none" transform="translate(355.2755947088008,544.2519748730565)"/>
	<path d="M 238.4996120082128,27.070759008212804 L 187.2198920082128,32.58825900821273" fill="none" id="path147" inkscape:connector-curvature="0" stroke-width="1" style="display:inline;opacity:1;vector-effect:none;fill:none;fill-opacity:1;stroke:#000000;stroke-width:1;stroke-linecap:round;stroke-linejoin:round;stroke-dasharray:none;stroke-dashoffset:0;stroke-opacity:1;marker:none" transform="translate(355.2755947088008,544.2519748730565)"/>
	<path d="M 335.9225320082128,40.3206590082126 L 289.7789720082128,32.59165900821279" fill="none" id="path148" inkscape:connector-curvature="0" stroke-width="1" style="display:inline;opacity:1;vector-effect:none;fill:none;fill-opacity:1;stroke:#000000;stroke-width:1;stroke-linecap:round;stroke-linejoin:round;stroke-dasharray:none;stroke-dashoffset:0;stroke-opacity:1;marker:none" transform="translate(355.2755947088008,544.2519748730565)"/>
	<path d="M 289.7789720082128,32.59165900821279 L 238.4996120082128,27.070759008212804" fill="none" id="path149" inkscape:connector-curvature="0" stroke-width="1" style="display:inline;opacity:1;vector-effect:none;fill:none;fill-opacity:1;stroke:#000000;stroke-width:1;stroke-linecap:round;stroke-linejoin:round;stroke-dasharray:none;stroke-dashoffset:0;stroke-opacity:1;marker:none" transform="translate(355.2755947088008,544.2519748730565)"/>
	<path d="M 395.75451200821277,217.0407590082126 L 451.55743200821274,221.4466590082128" fill="none" id="path150" inkscape:connector-curvature="0" stroke-width="1" style="display:inline;opacity:1;vector-effect:none;fill:none;fill-opacity:1;stroke:#000000;stroke-width:1;stroke-linecap:round;stroke-linejoin:round;stroke-dasharray:none;stroke-dashoffset:0;stroke-opacity:1;marker:none" transform="translate(355.2755947088008,544.2519748730565)"/>
	<path d="M 451.5574320082128,221.4466590082128 L 440.1827920082128,171.84495900821264" fill="none" id="path151" inkscape:connector-curvature="0" stroke-width="1" style="display:inline;opacity:1;vector-effect:none;fill:none;fill-opacity:1;stroke:#000000;stroke-width:1;stroke-linecap:round;stroke-linejoin:round;stroke-dasharray:none;stroke-dashoffset:0;stroke-opacity:1;marker:none" transform="translate(355.2755947088008,544.2519748730565)"/>
	<path d="M 372.0673620082128,183.2871590082126 L 395.75451200821277,217.0407590082126" fill="none" id="path152" inkscape:connector-curvature="0" stroke-width="1" style="display:inline;opacity:1;vector-effect:none;fill:none;fill-opacity:1;stroke:#000000;stroke-width:1;stroke-linecap:round;stroke-linejoin:round;stroke-dasharray:none;stroke-dashoffset:0;stroke-opacity:1;marker:none" transform="translate(355.2755947088008,544.2519748730565)"/>
	<path d="M 385.8665820082128,123.16005900821244 L 329.4944520082128,79.84035900821243" fill="none" id="path153" inkscape:connector-curvature="0" sodipodi:nodetypes="cc" stroke-width="1" style="display:inline;opacity:1;vector-effect:none;fill:none;fill-opacity:1;stroke:#000000;stroke-width:1;stroke-linecap:round;stroke-linejoin:round;stroke-dasharray:none;stroke-dashoffset:0;stroke-opacity:1;marker:none" transform="translate(355.2755947088008,544.2519748730565)"/>
	<path d="M 440.1827920082128,171.84495900821264 L 385.8665820082128,123.16005900821244" fill="none" id="path154" inkscape:connector-curvature="0" stroke-width="1" style="display:inline;opacity:1;vector-effect:none;fill:none;fill-opacity:1;stroke:#000000;stroke-width:1;stroke-linecap:round;stroke-linejoin:round;stroke-dasharray:none;stroke-dashoffset:0;stroke-opacity:1;marker:none" transform="translate(355.2755947088008,544.2519748730565)"/>
	<path d="M 299.2449820082128,104.29395900821271 L 325.2402320082128,121.43305900821258" fill="none" id="path155" inkscape:connector-curvature="0" stroke-width="1" style="display:inline;opacity:1;vector-effect:none;fill:none;fill-opacity:1;stroke:#000000;stroke-width:1;stroke-linecap:round;stroke-linejoin:round;stroke-dasharray:none;stroke-dashoffset:0;stroke-opacity:1;marker:none" transform="translate(355.2755947088008,544.2519748730565)"/>
	<path d="M 36.8066830082128,171.83145900821262 L 25.428611008212798,221.43225900821278" fill="none" id="path156" inkscape:connector-curvature="0" stroke-width="1" style="display:inline;opacity:1;vector-effect:none;fill:none;fill-opacity:1;stroke:#000000;stroke-width:1;stroke-linecap:round;stroke-linejoin:round;stroke-dasharray:none;stroke-dashoffset:0;stroke-opacity:1;marker:none" transform="translate(355.2755947088008,544.2519748730565)"/>
	<path d="M 81.23182200821279,217.03015900821254 L 104.92126200821278,183.27815900821258" fill="none" id="path157" inkscape:connector-curvature="0" stroke-width="1" style="display:inline;opacity:1;vector-effect:none;fill:none;fill-opacity:1;stroke:#000000;stroke-width:1;stroke-linecap:round;stroke-linejoin:round;stroke-dasharray:none;stroke-dashoffset:0;stroke-opacity:1;marker:none" transform="translate(355.2755947088008,544.2519748730565)"/>
	<path d="M 147.5009320082128,79.83415900821262 L 91.1261320082128,123.15015900821243" fill="none" id="path158" inkscape:connector-curvature="0" sodipodi:nodetypes="cc" stroke-width="1" style="display:inline;opacity:1;vector-effect:none;fill:none;fill-opacity:1;stroke:#000000;stroke-width:1;stroke-linecap:round;stroke-linejoin:round;stroke-dasharray:none;stroke-dashoffset:0;stroke-opacity:1;marker:none" transform="translate(355.2755947088008,544.2519748730565)"/>
	<path d="M 91.1261320082128,123.15015900821243 L 36.8066830082128,171.83145900821262" fill="none" id="path159" inkscape:connector-curvature="0" stroke-width="1" style="display:inline;opacity:1;vector-effect:none;fill:none;fill-opacity:1;stroke:#000000;stroke-width:1;stroke-linecap:round;stroke-linejoin:round;stroke-dasharray:none;stroke-dashoffset:0;stroke-opacity:1;marker:none" transform="translate(355.2755947088008,544.2519748730565)"/>
	<path d="M 151.7526320082128,121.42725900821267 L 177.7490520082128,104.2899590082128" fill="none" id="path160" inkscape:connector-curvature="0" stroke-width="1" style="display:inline;opacity:1;vector-effect:none;fill:none;fill-opacity:1;stroke:#000000;stroke-width:1;stroke-linecap:round;stroke-linejoin:round;stroke-dasharray:none;stroke-dashoffset:0;stroke-opacity:1;marker:none" transform="translate(355.2755947088008,544.2519748730565)"/>
	<path d="M 90.36838200821279,117.7597190082127 L 91.12613200821278,123.15027900821269 L 70.38873200821277,116.3589190082127 L 32.31944500821277,150.47671900821268 L 36.80668300821277,171.83156900821268 L 15.948008008212767,178.24065900821267 L 9.448819008212766,206.57274900821267 L 25.42861100821277,221.43235900821264 L 81.23182200821276,217.03021900821267 L 102.96778200821277,218.9562490082127 L 114.12120200821278,203.0651490082127 L 104.92126200821278,183.2782290082127 L 151.75263200821277,121.42737900821271 L 171.26296200821278,131.2000790082127 L 179.0407620082128,126.07283900821272 L 177.7490520082128,104.29006900821275 L 238.4978120082128,79.85866900821276 L 299.2449820082128,104.29408900821278 L 297.9517820082128,126.0768190082128 L 305.7292020082128,131.20459900821277 L 325.2402320082128,121.43315900821278 L 372.0673620082128,183.28728900821278 L 362.8660620082128,203.07355900821278 L 374.0184420082128,218.96542900821277 L 395.75451200821277,217.04085900821275 L 405.1437820082128,236.73858900821273 L 439.1932720082128,239.4269990082127 L 451.5574320082128,221.44673900821272 L 467.53825200821285,206.58827900821274 L 461.0410320082128,178.25562900821274 L 440.1827920082128,171.84509900821274 L 444.6714420082128,150.49063900821272 L 406.6044020082128,116.3702890082127 L 385.8665820082128,123.1601590082127 L 386.62465200821276,117.76979900821271 L 329.49445200821276,79.84033900821271 L 389.08825200821275,119.40537900821272 C 389.08825200821275,119.40537900821272 407.20834200821275,114.67290900821274 414.1569520082127,108.84815900821275 C 420.1531920082127,103.82172900821274 425.6097220082127,96.85491900821273 426.9048020082127,89.13852900821274 C 428.0932520082127,82.05740900821274 427.1311120082127,72.97977900821274 421.7523220082127,68.22333900821275 C 418.51142200821266,65.35745900821274 412.9596720082127,65.28733900821274 408.86501200821266,66.68400900821274 C 404.81607200821264,68.06507900821273 399.70798200821264,75.67624900821275 399.70798200821264,75.67624900821275 L 399.32680200821267,53.85845900821275 L 354.62670200821265,29.081759008212742 L 335.92253200821267,40.32076900821275 L 328.28367200821265,19.880359008212736 L 303.66144200821265,15.756219008212724 L 289.77897200821263,32.59175900821273 L 280.9540320082126,12.634859008212743 L 251.37038200821263,9.449689008212744 L 238.49961200821264,27.070849008212747 L 225.6300020082126,9.448819008212752 L 196.0461720082126,12.631969008212764 L 187.2198920082126,32.58835900821276 L 173.33855200821262,15.751829008212752 L 148.71597200821262,19.874309008212748 L 141.07575200821262,40.314189008212736 L 122.37237200821261,29.073939008212733 L 77.6706220082126,53.84755900821273 L 77.2877520082126,75.66526900821273 C 77.2877520082126,75.66526900821273 72.1802120082126,68.05380900821274 68.1313920082126,66.67246900821274 C 64.0368220082126,65.27552900821274 58.4850720082126,65.34521900821275 55.2439520082126,68.21084900821273 C 49.86483500821261,72.96692900821273 48.90207400821261,82.04444900821272 50.0900320082126,89.12565900821272 C 51.3845670082126,96.8420990082127 56.8406020082126,103.80941900821273 62.83651200821261,108.83621900821271 C 69.7846920082126,114.66138900821272 87.90444200821261,119.39514900821268 87.90444200821261,119.39514900821268 L 147.5009320082126,79.83419900821269" fill="none" id="path328" inkscape:connector-curvature="0" sodipodi:nodetypes="cccccccccccccccccccccccccccccccccccccsssscccccccccccccccccccsssscc" stroke-width="1" style="display:inline;opacity:1;vector-effect:none;fill:none;fill-opacity:1;stroke:#000000;stroke-width:1;stroke-linecap:round;stroke-linejoin:round;stroke-dasharray:none;stroke-dashoffset:0;stroke-opacity:1;marker:none" transform="translate(355.2755947088008,544.2519748730565)"/>
	<path d="M 108.77651900821286,94.80041900821271 L 94.25058900821284,170.65951900821284" fill="none" id="path251" inkscape:connector-curvature="0" stroke-width="1" style="display:inline;opacity:1;vector-effect:none;fill:none;fill-opacity:1;stroke:#000000;stroke-width:1;stroke-linecap:round;stroke-linejoin:round;stroke-dasharray:none;stroke-dashoffset:0;stroke-opacity:1;marker:none" transform="translate(986.456704457415,457.3228399974989) rotate(90)"/>
	<path d="M 79.72468900821286,94.80041900821271 L 49.31435900821282,9.448819008212752" fill="none" id="path252" inkscape:connector-curvature="0" stroke-width="1" style="display:inline;opacity:1;vector-effect:none;fill:none;fill-opacity:1;stroke:#000000;stroke-width:1;stroke-linecap:round;stroke-linejoin:round;stroke-dasharray:none;stroke-dashoffset:0;stroke-opacity:1;marker:none" transform="translate(986.456704457415,457.3228399974989) rotate(90)"/>
	<path d="M 94.25058900821284,170.65959900821292 L 79.72468900821286,94.80045900821295 L 94.14707900821281,77.84785900821294 L 77.03613900821279,29.823199008212953 L 49.31435900821282,9.448899008212948 L 9.448819008212809,113.82366900821296 L 25.722009008212808,175.89790900821293 L 94.25058900821284,260.86726900821293 L 162.7791590082129,175.89780900821296 L 179.05235900821287,113.82376900821299 L 139.18691900821284,9.44899900821298 L 108.77651900821286,94.80045900821295 L 87.75189900821283,102.10559900821295 L 84.43768900821283,119.41336900821295 L 94.25058900821284,170.65959900821292" fill="none" id="path347" inkscape:connector-curvature="0" sodipodi:nodetypes="ccccccccccccccc" stroke-width="1" style="display:inline;opacity:1;vector-effect:none;fill:none;fill-opacity:1;stroke:#000000;stroke-width:1;stroke-linecap:round;stroke-linejoin:round;stroke-dasharray:none;stroke-dashoffset:0;stroke-opacity:1;marker:none" transform="translate(986.456704457415,457.3228399974989) rotate(90)"/>
	<path d="M 174.9481490082128,47.58771900821364 L 139.77342900821282,32.09771900821386" fill="none" id="path107" inkscape:connector-curvature="0" stroke-width="1" style="display:inline;opacity:1;vector-effect:none;fill:none;fill-opacity:1;stroke:#000000;stroke-width:1;stroke-linecap:round;stroke-linejoin:round;stroke-dasharray:none;stroke-dashoffset:0;stroke-opacity:1;marker:none" transform="translate(230.55118380039198,521.5748092533458) rotate(90)"/>
	<path d="M 146.0736390082128,120.95051900821352 L 174.9481490082128,47.58771900821364" fill="none" id="path108" inkscape:connector-curvature="0" stroke-width="1" style="display:inline;opacity:1;vector-effect:none;fill:none;fill-opacity:1;stroke:#000000;stroke-width:1;stroke-linecap:round;stroke-linejoin:round;stroke-dasharray:none;stroke-dashoffset:0;stroke-opacity:1;marker:none" transform="translate(230.55118380039198,521.5748092533458) rotate(90)"/>
	<path d="M 121.25397900821281,26.870419008213844 L 96.24967900821287,29.950919008213873" fill="none" id="path110" inkscape:connector-curvature="0" stroke-width="1" style="display:inline;opacity:1;vector-effect:none;fill:none;fill-opacity:1;stroke:#000000;stroke-width:1;stroke-linecap:round;stroke-linejoin:round;stroke-dasharray:none;stroke-dashoffset:0;stroke-opacity:1;marker:none" transform="translate(230.55118380039198,521.5748092533458) rotate(90)"/>
	<path d="M 57.43479900821285,42.207319008214085 L 9.448819008212809,38.86601900821404 L 41.543099008212835,110.87841900821411 L 51.51458900821285,131.03441900821406 L 62.07072900821288,130.85981900821423 L 65.34198900821286,108.85621900821423 L 70.04745900821285,130.5217190082143 L 92.41291900821284,132.20131900821423 L 96.24967900821287,114.60431900821402 L 99.06206900821292,132.71871900821395 L 117.17529900821296,134.9322190082138 L 124.63060900821301,116.5938190082137 L 123.57328900821301,136.4148190082136 L 134.89271900821302,138.5959190082134 L 146.07363900821304,120.95081900821322 L 167.65418900821305,117.71931900821335 L 188.536949008213,64.6615190082133 L 174.94814900821302,47.587919008213134 L 172.57913900821302,25.895819008212925 L 157.37488900821302,19.200319008213114 L 139.77342900821304,32.0980190082131 L 121.25397900821304,26.870619008212884 L 108.11459900821308,9.448819008212809 L 104.76767900821312,9.86121900821297 L 96.24967900821309,29.951119008212913 L 57.43479900821285,42.207319008214085" fill="none" id="path317" inkscape:connector-curvature="0" sodipodi:nodetypes="cccccccccccccccccccccccccc" stroke-width="1" style="display:inline;opacity:1;vector-effect:none;fill:none;fill-opacity:1;stroke:#000000;stroke-width:1;stroke-linecap:round;stroke-linejoin:round;stroke-dasharray:none;stroke-dashoffset:0;stroke-opacity:1;marker:none" transform="translate(230.55118380039198,521.5748092533458) rotate(90)"/>
	<path d="M 59.87160900821277,106.26551900821306 L 96.45221900821275,105.2245190082129 L 150.81339900821274,93.5714190082129 L 185.05519900821275,80.14941900821287 L 156.11179900821276,9.448819008212752 L 123.86183900821277,14.276119008212675 L 95.87425900821279,31.115719008212466 L 67.30831900821283,42.51211900821255 L 50.388249008212824,17.975519008212643 L 9.448819008212809,82.47561900821285 L 59.87160900821277,106.26551900821306" fill="none" id="path360" inkscape:connector-curvature="0" stroke-width="1" style="display:inline;opacity:1;vector-effect:none;fill:none;fill-opacity:1;stroke:#000000;stroke-width:1;stroke-linecap:round;stroke-linejoin:round;stroke-dasharray:none;stroke-dashoffset:0;stroke-opacity:1;marker:none" transform="translate(468.6614228073542,676.5354409880355)"/>
	<path d="M 35.149989008212856,9.448819008212766 L 30.68709900821284,9.839449008212767 L 26.360919008212818,10.999609008212765 L 22.30037900821287,12.892179008212764 L 18.630459008212824,15.462499008212767 L 15.462489008212856,18.628509008212767 L 12.892169008212818,22.298429008212764 L 10.99959900821284,26.358979008212764 L 9.839439008212821,30.68711000821277 L 9.448819008212809,35.149999008212774 L 9.839439008212821,39.61289000821277 L 10.99959900821284,43.93905900821278 L 12.892169008212818,47.999609008212786 L 15.462489008212856,51.66952800821278 L 18.630459008212824,54.837498008212776 L 22.30037900821287,57.40780800821278 L 26.360919008212818,59.30038800821278 L 30.68709900821284,60.46053800821278 L 35.149989008212856,60.85116800821278 L 39.61287900821287,60.46053800821278 L 43.940999008212884,59.30038800821278 L 47.99959900821284,57.40780800821278 L 51.66951900821289,54.837498008212776 L 54.837489008212856,51.66952800821278 L 57.407799008212805,47.999609008212786 L 59.30037900821276,43.93905900821278 L 60.4605290082128,39.61289000821279 L 60.85115900821279,35.14999900821279 L 67.39412900821276,33.25741900821279 L 74.67537900821276,33.25741900821279 L 81.21638900821279,35.14999900821279 L 81.60701900821277,39.61289000821279 L 82.76716900821282,43.93905900821278 L 84.65974900821277,47.999609008212786 L 87.23005900821272,51.66952800821278 L 90.39802900821269,54.837498008212776 L 94.06795900821271,57.40780800821278 L 98.12849900821266,59.30038800821278 L 102.4546690082127,60.46053800821278 L 106.91755900821272,60.85116800821278 L 111.38045900821271,60.46053800821278 L 115.70857900821272,59.30038800821278 L 119.76912900821276,57.40780800821278 L 123.4390490082128,54.837498008212776 L 126.60505900821283,51.66952800821278 L 129.17537900821287,47.999609008212786 L 131.0699090082129,43.93905900821278 L 132.22810900821287,39.61289000821279 L 132.61873900821286,35.14999900821279 L 132.22810900821287,30.687110008212784 L 131.0699090082129,26.358979008212785 L 129.17537900821287,22.298429008212786 L 126.60505900821283,18.628509008212788 L 123.4390490082128,15.462499008212788 L 119.76912900821276,12.892179008212786 L 115.70857900821272,10.999609008212786 L 111.38045900821271,9.839449008212789 L 106.91755900821272,9.448819008212787 L 102.4546690082127,9.839449008212789 L 98.12849900821266,10.999609008212786 L 94.06795900821271,12.892179008212786 L 90.39802900821269,15.462499008212788 L 87.23005900821272,18.628509008212788 L 84.65974900821277,22.298429008212786 L 82.76716900821282,26.358979008212785 L 81.60701900821277,30.687110008212784 L 75.07381900821281,28.75350900821278 L 66.99373900821286,28.75350900821278 L 60.4605290082128,30.687110008212784 L 59.30037900821276,26.358979008212785 L 57.407799008212805,22.298429008212786 L 54.837489008212856,18.628509008212788 L 51.66951900821289,15.462499008212788 L 47.99959900821284,12.892179008212786 L 43.940999008212884,10.999609008212786 L 39.61287900821287,9.839449008212789 L 35.149989008212856,9.448819008212766 M 35.149989008212856,14.331639008212768 L 38.76521900821285,14.64803900821277 L 42.27107900821284,15.587499008212767 L 45.55818900821282,17.120699008212767 L 48.53084900821284,19.20272900821277 L 51.097249008212884,21.76913900821277 L 53.179279008212916,24.73983900821277 L 54.71248900821297,28.02889900821277 L 55.651939008212935,31.534759008212774 L 55.968349008212954,35.149999008212774 L 55.651939008212935,38.76522900821277 L 54.71248900821297,42.269139008212775 L 53.179279008212916,45.55819900821278 L 51.097249008212884,48.530859008212786 L 48.53084900821284,51.09725900821279 L 45.55818900821282,53.177338008212786 L 42.27107900821284,54.71249800821279 L 38.76521900821285,55.64999800821279 L 35.149989008212856,55.96639800821279 L 31.534749008212884,55.64999800821279 L 28.03084900821284,54.71249800821279 L 24.741779008212802,53.177338008212786 L 21.769129008212758,51.09725900821279 L 19.20271900821274,48.530859008212786 L 17.120689008212707,45.55819900821278 L 15.587489008212742,42.269139008212775 L 14.648029008212688,38.76522900821277 L 14.331629008212644,35.149999008212774 L 14.648029008212688,31.534759008212774 L 15.587489008212742,28.028899008212775 L 17.120689008212707,24.739839008212776 L 19.20271900821274,21.769139008212775 L 21.769129008212758,19.202729008212778 L 24.741779008212802,17.120699008212775 L 28.03084900821284,15.587499008212774 L 31.534749008212884,14.648039008212777 L 35.149989008212856,14.331639008212768 M 106.91755900821283,14.331639008212768 L 110.5327990082128,14.64803900821277 L 114.03865900821279,15.587499008212767 L 117.32771900821274,17.120699008212767 L 120.2984190082127,19.20272900821277 L 122.86482900821272,21.76913900821277 L 124.94685900821275,24.73983900821277 L 126.48005900821272,28.02889900821277 L 127.41951900821277,31.534759008212774 L 127.73591900821282,35.149999008212774 L 127.41951900821277,38.76522900821277 L 126.48005900821272,42.269139008212775 L 124.94685900821275,45.55819900821278 L 122.86482900821272,48.530859008212786 L 120.2984190082127,51.09725900821279 L 117.32771900821274,53.177338008212786 L 114.03865900821279,54.71249800821279 L 110.5327990082128,55.64999800821279 L 106.91755900821283,55.96639800821279 L 103.30232900821284,55.64999800821279 L 99.79841900821282,54.71249800821279 L 96.50935900821287,53.177338008212786 L 93.53670900821282,51.09725900821279 L 90.9702990082128,48.530859008212786 L 88.89021900821285,45.55819900821278 L 87.35505900821283,42.269139008212775 L 86.41755900821283,38.76522900821277 L 86.10115900821279,35.149999008212774 L 86.41755900821283,31.534759008212774 L 87.35505900821283,28.028899008212775 L 88.89021900821285,24.739839008212776 L 90.9702990082128,21.769139008212775 L 93.53670900821282,19.202729008212778 L 96.50935900821287,17.120699008212775 L 99.79841900821282,15.587499008212774 L 103.30232900821284,14.648039008212777 L 106.91755900821283,14.331639008212768" fill="none" id="path1323" inkscape:connector-curvature="0" stroke-width="1" style="display:inline;opacity:1;vector-effect:none;fill:none;fill-opacity:1;stroke:#000000;stroke-width:1;stroke-linecap:round;stroke-linejoin:round;stroke-dasharray:none;stroke-dashoffset:0;stroke-opacity:1;marker:none" transform="translate(313.7007910726645,264.566932229958)"/>
	<path d="M 59.309319008212924,46.27701900821273 L 44.163919008212815,9.448819008212809" fill="none" id="path49" inkscape:connector-curvature="0" stroke-width="1" style="display:inline;opacity:1;vector-effect:none;fill:none;fill-opacity:1;stroke:#000000;stroke-width:1;stroke-linecap:round;stroke-linejoin:round;stroke-dasharray:none;stroke-dashoffset:0;stroke-opacity:1;marker:none" transform="translate(1062.0472565231173,207.8740181806813) rotate(90)"/>
	<path d="M 34.7337190082128,112.92461900821252 L 27.660419008212784,231.03501900821254" fill="none" id="path50" inkscape:connector-curvature="0" stroke-width="1" style="display:inline;opacity:1;vector-effect:none;fill:none;fill-opacity:1;stroke:#000000;stroke-width:1;stroke-linecap:round;stroke-linejoin:round;stroke-dasharray:none;stroke-dashoffset:0;stroke-opacity:1;marker:none" transform="translate(1062.0472565231173,207.8740181806813) rotate(90)"/>
	<path d="M 86.71851900821275,231.40481900821248 L 65.69431900821269,111.87231900821268" fill="none" id="path51" inkscape:connector-curvature="0" stroke-width="1" style="display:inline;opacity:1;vector-effect:none;fill:none;fill-opacity:1;stroke:#000000;stroke-width:1;stroke-linecap:round;stroke-linejoin:round;stroke-dasharray:none;stroke-dashoffset:0;stroke-opacity:1;marker:none" transform="translate(1062.0472565231173,207.8740181806813) rotate(90)"/>
	<path d="M 27.660419008212784,231.03501900821254 L 86.71851900821275,231.40501900821243 L 86.19621900821267,119.34451900821239 L 65.69431900821269,111.87251900821218 L 59.3093190082127,46.27721900821223 L 72.63701900821275,28.999119008212233 L 65.79101900821274,12.352119008212298 L 44.163919008212815,9.449019008212304 L 28.37931900821286,56.3534190082122 L 34.7337190082128,112.92481900821201 L 15.217719008212725,122.68611900821213 L 9.448819008212695,219.01441900821226 L 27.660419008212784,231.03501900821254" fill="none" id="path311" inkscape:connector-curvature="0" sodipodi:nodetypes="ccccccccccccc" stroke-width="1" style="display:inline;opacity:1;vector-effect:none;fill:none;fill-opacity:1;stroke:#000000;stroke-width:1;stroke-linecap:round;stroke-linejoin:round;stroke-dasharray:none;stroke-dashoffset:0;stroke-opacity:1;marker:none" transform="translate(1062.0472565231173,207.8740181806813) rotate(90)"/>
	<path d="M 71.42951900821265,96.04191900821286 L 127.66951900821266,37.027519008212835" fill="none" id="path9" inkscape:connector-curvature="0" stroke-width="1" style="display:inline;opacity:1;vector-effect:none;fill:none;fill-opacity:1;stroke:#000000;stroke-width:1;stroke-linecap:round;stroke-linejoin:round;stroke-dasharray:none;stroke-dashoffset:0;stroke-opacity:1;marker:none" transform="translate(0.0,0.0)"/>
	<path d="M 15.468619008212613,37.02381900821263 L 71.42951900821265,96.0419190082124" fill="none" id="path10" inkscape:connector-curvature="0" stroke-width="1" style="display:inline;opacity:1;vector-effect:none;fill:none;fill-opacity:1;stroke:#000000;stroke-width:1;stroke-linecap:round;stroke-linejoin:round;stroke-dasharray:none;stroke-dashoffset:0;stroke-opacity:1;marker:none" transform="translate(0.0,0.0)"/>
	<path d="M 133.64841900821273,9.448819008212809 L 113.23071900821276,29.49341900821298 L 71.43141900821286,37.85381900821301 L 29.76591900821279,29.49841900821309 L 9.448819008212809,9.454019008212867 L 15.46861900821284,37.02381900821308 L 11.745019008212807,49.57591900821296 L 71.42951900821288,96.04191900821286 L 131.3615190082129,49.58881900821268 L 127.66951900821289,37.027519008212835 L 133.64841900821273,9.448819008212809" fill="none" id="path301" inkscape:connector-curvature="0" sodipodi:nodetypes="ccccccccccc" stroke-width="1" style="display:inline;opacity:1;vector-effect:none;fill:none;fill-opacity:1;stroke:#000000;stroke-width:1;stroke-linecap:round;stroke-linejoin:round;stroke-dasharray:none;stroke-dashoffset:0;stroke-opacity:1;marker:none" transform="translate(0.0,0.0)"/>
	<path d="M 110.05951900821299,79.49231900821297 L 130.33961900821294,112.83331900821287 L 150.58691900821293,100.53821900821305 L 136.57601900821294,61.41001900821294 L 79.07371900821283,9.448819008212752 L 65.41701900821283,32.81721900821259 L 44.84361900821284,55.14201900821246 L 9.448819008212809,75.45601900821231 L 82.8026190082129,96.02571900821232 L 127.73341900821299,114.28501900821249 L 110.05951900821299,79.49231900821297" fill="none" id="path359" inkscape:connector-curvature="0" stroke-width="1" style="display:inline;opacity:1;vector-effect:none;fill:none;fill-opacity:1;stroke:#000000;stroke-width:1;stroke-linecap:round;stroke-linejoin:round;stroke-dasharray:none;stroke-dashoffset:0;stroke-opacity:1;marker:none" transform="translate(861.7322935490062,105.82677289198321)"/>
	<path d="M 20.93891900821268,99.51071900821262 L 22.063319008212602,103.15031900821259 L 185.6787190082125,48.199719008212696 L 184.9292190082126,45.77331900821264 L 184.1480190082127,43.35671900821262 L 183.3352190082128,40.95081900821265 L 182.5040190082127,38.55091900821276 L 181.6766190082128,36.14981900821272 L 180.8799190082127,33.738519008212734 L 180.13691900821277,31.31001900821275 L 179.4615190082127,28.862119008212858 L 178.85441900821274,26.395919008212786 L 178.3025190082128,23.91701900821272 L 177.78321900821288,21.431119008212818 L 177.26891900821283,18.944219008212713 L 168.25481900821273,9.448819008212695 L 13.164919008212792,46.71301900821277 L 9.448819008212695,59.26731900821278 L 10.220119008212805,62.99761900821284 L 10.999319008212751,66.72651900821279 L 11.826819008212851,70.44481900821279 L 12.737419008212783,74.14401900821281 L 13.750719008212855,77.81611900821281 L 14.865219008212762,81.4588190082128 L 16.060319008212673,85.07581900821276 L 17.30091900821276,88.67751900821281 L 18.548019008212805,92.27691900821276 L 19.767219008212805,95.88611900821275 L 20.93891900821268,99.51071900821262" fill="none" id="path316" inkscape:connector-curvature="0" stroke-width="1" style="display:inline;opacity:1;vector-effect:none;fill:none;fill-opacity:1;stroke:#000000;stroke-width:1;stroke-linecap:round;stroke-linejoin:round;stroke-dasharray:none;stroke-dashoffset:0;stroke-opacity:1;marker:none" transform="translate(162.51968694125992,672.7559133847504)"/>
	<path d="M 44.20784900821286,152.09091900821284 L 44.4667490082129,86.06201900821304" fill="none" id="path12" inkscape:connector-curvature="0" stroke-width="1" style="display:inline;opacity:1;vector-effect:none;fill:none;fill-opacity:1;stroke:#000000;stroke-width:1;stroke-linecap:round;stroke-linejoin:round;stroke-dasharray:none;stroke-dashoffset:0;stroke-opacity:1;marker:none" transform="translate(1039.3700909034064,37.79527603285115)"/>
	<path d="M 37.66828900821281,9.448819008212809 L 27.094639008212766,42.472219008212846 L 9.448819008212809,81.03611900821295 L 17.994179008212768,165.99811900821294 L 50.86231900821281,274.35221900821296 L 44.20784900821286,152.09091900821284 L 63.14812900821289,141.2546190082129 L 63.32160900821293,97.04661900821282 L 44.46693900821299,86.06201900821304 L 50.42449900821293,47.84011900821304 L 67.86285900821292,32.07281900821306 L 61.03903900821297,26.407019008212842 L 37.66828900821281,9.448819008212809" fill="none" id="path302" inkscape:connector-curvature="0" stroke-width="1" style="display:inline;opacity:1;vector-effect:none;fill:none;fill-opacity:1;stroke:#000000;stroke-width:1;stroke-linecap:round;stroke-linejoin:round;stroke-dasharray:none;stroke-dashoffset:0;stroke-opacity:1;marker:none" transform="translate(1039.3700909034064,37.79527603285115)"/>
	<path d="M 55.8799790082129,25.612919008212714 L 25.861759008212857,72.65371900821293" fill="none" id="path14" inkscape:connector-curvature="0" stroke-width="1" style="display:inline;opacity:1;vector-effect:none;fill:none;fill-opacity:1;stroke:#000000;stroke-width:1;stroke-linecap:round;stroke-linejoin:round;stroke-dasharray:none;stroke-dashoffset:0;stroke-opacity:1;marker:none" transform="translate(294.80315305623895,7.559055206570229)"/>
	<path d="M 81.19986900821289,31.08921900821298 L 55.8799790082129,25.61291900821317" fill="none" id="path15" inkscape:connector-curvature="0" stroke-width="1" style="display:inline;opacity:1;vector-effect:none;fill:none;fill-opacity:1;stroke:#000000;stroke-width:1;stroke-linecap:round;stroke-linejoin:round;stroke-dasharray:none;stroke-dashoffset:0;stroke-opacity:1;marker:none" transform="translate(294.80315305623895,7.559055206570229)"/>
	<path d="M 103.1943690082129,39.392719008212964 L 81.19986900821289,31.08921900821298" fill="none" id="path16" inkscape:connector-curvature="0" stroke-width="1" style="display:inline;opacity:1;vector-effect:none;fill:none;fill-opacity:1;stroke:#000000;stroke-width:1;stroke-linecap:round;stroke-linejoin:round;stroke-dasharray:none;stroke-dashoffset:0;stroke-opacity:1;marker:none" transform="translate(294.80315305623895,7.559055206570229)"/>
	<path d="M 136.26404900821296,86.0370190082129 L 148.19244900821298,59.99221900821277" fill="none" id="path17" inkscape:connector-curvature="0" stroke-width="1" style="display:inline;opacity:1;vector-effect:none;fill:none;fill-opacity:1;stroke:#000000;stroke-width:1;stroke-linecap:round;stroke-linejoin:round;stroke-dasharray:none;stroke-dashoffset:0;stroke-opacity:1;marker:none" transform="translate(294.80315305623895,7.559055206570229)"/>
	<path d="M 148.19244900821298,59.99221900821277 L 103.19436900821302,39.392719008212964" fill="none" id="path18" inkscape:connector-curvature="0" stroke-width="1" style="display:inline;opacity:1;vector-effect:none;fill:none;fill-opacity:1;stroke:#000000;stroke-width:1;stroke-linecap:round;stroke-linejoin:round;stroke-dasharray:none;stroke-dashoffset:0;stroke-opacity:1;marker:none" transform="translate(294.80315305623895,7.559055206570229)"/>
	<path d="M 106.09232900821291,89.86151900821307 L 136.26404900821296,86.0370190082129 L 157.98864900821297,83.98631900821312 L 160.83064900821296,77.78081900821309 L 148.19244900821298,59.992219008213226 L 146.138049008213,38.268019008213116 L 120.98081900821296,26.75141900821319 L 103.19436900821302,39.392719008212964 L 99.66153900821303,17.85941900821291 L 98.08176900821297,17.263119008212755 L 81.199869008213,31.08921900821298 L 74.53077900821302,10.312219008212935 L 70.53887900821303,9.448819008212752 L 55.87997900821301,25.612919008212714 L 34.08037900821296,24.644619008212715 L 15.80049900821291,53.2905190082127 L 25.861759008212857,72.65371900821248 L 9.448819008212809,96.1320190082127 L 42.723369008212785,96.00581900821254 L 74.83351900821276,87.07241900821265 L 106.09232900821291,89.86151900821307" fill="none" id="path303" inkscape:connector-curvature="0" stroke-width="1" style="display:inline;opacity:1;vector-effect:none;fill:none;fill-opacity:1;stroke:#000000;stroke-width:1;stroke-linecap:round;stroke-linejoin:round;stroke-dasharray:none;stroke-dashoffset:0;stroke-opacity:1;marker:none" transform="translate(294.80315305623895,7.559055206570229)"/>
	<path d="M 9.448819008212695,98.28101900821258 L 28.849019008212736,111.47321900821254 L 52.35191900821269,81.7283190082124 L 29.498019008212623,111.97481900821259 L 82.2173190082126,90.59201900821273 L 149.32161900821256,85.46071900821272 L 117.96781900821247,59.54571900821276 L 99.63731900821244,37.55461900821257 L 92.16991900821245,9.448819008212752 L 25.411019008212406,59.90751900821289 L 9.448819008212695,98.28101900821258" fill="none" id="path357" inkscape:connector-curvature="0" stroke-width="1" style="display:inline;opacity:1;vector-effect:none;fill:none;fill-opacity:1;stroke:#000000;stroke-width:1;stroke-linecap:round;stroke-linejoin:round;stroke-dasharray:none;stroke-dashoffset:0;stroke-opacity:1;marker:none" transform="translate(925.9842628048531,631.1811097486142) rotate(90)"/>
	<path d="M 109.98638900821274,102.08161900821267 L 125.24932900821275,76.08671900821253 L 98.99774900821276,42.89501900821267 L 80.60753900821277,29.001019008212893 L 59.068579008212765,15.543819008213063 L 27.20714900821278,52.339419008212985" fill="none" id="path238-6" inkscape:connector-curvature="0" stroke-width="1" style="display:inline;opacity:1;vector-effect:none;fill:none;fill-opacity:1;stroke:#000000;stroke-width:1;stroke-linecap:round;stroke-linejoin:round;stroke-dasharray:none;stroke-dashoffset:0;stroke-opacity:1;marker:none" transform="translate(623.6220545420439,90.70866247884275)"/>
	<path d="M 59.068579008212765,15.543719008212747 L 40.195459008212765,13.179119008212751 L 22.606009008212766,33.054519008212765 L 27.207149008212753,52.33931900821278 L 9.448819008212752,76.69781900821283 L 37.15052900821274,75.74971900821288 L 62.25059900821273,80.63041900821293 L 86.40892900821271,90.35641900821292 L 109.98638900821268,102.0816190082129 L 131.8069190082127,102.24111900821288 L 136.0212790082127,95.0635190082129 L 125.2493290082127,76.08651900821292 L 132.24719900821268,55.713419008212895 L 119.07809900821266,38.88611900821286 L 98.99774900821265,42.89491900821281 L 100.59084900821264,21.455919008212845 L 80.60753900821265,29.000919008212804 L 81.31731900821265,9.448819008212809 L 59.068579008212765,15.543719008212747" fill="none" id="path345-5" inkscape:connector-curvature="0" sodipodi:nodetypes="ccccccccccccccccccc" stroke-width="1" style="display:inline;opacity:1;vector-effect:none;fill:none;fill-opacity:1;stroke:#000000;stroke-width:1;stroke-linecap:round;stroke-linejoin:round;stroke-dasharray:none;stroke-dashoffset:0;stroke-opacity:1;marker:none" transform="translate(623.6220545420439,90.70866247884275)"/>
	<path d="M 38.30829900821277,22.29321900821185 L 17.18550900821276,31.671519008211703" fill="none" id="path117" inkscape:connector-curvature="0" stroke-width="1" style="display:inline;opacity:1;vector-effect:none;fill:none;fill-opacity:1;stroke:#000000;stroke-width:1;stroke-linecap:round;stroke-linejoin:round;stroke-dasharray:none;stroke-dashoffset:0;stroke-opacity:1;marker:none" transform="translate(0.0,423.30709156793284)"/>
	<path d="M 17.18550900821276,31.671519008211703 L 26.568829008212788,52.866019008211765" fill="none" id="path118" inkscape:connector-curvature="0" stroke-width="1" style="display:inline;opacity:1;vector-effect:none;fill:none;fill-opacity:1;stroke:#000000;stroke-width:1;stroke-linecap:round;stroke-linejoin:round;stroke-dasharray:none;stroke-dashoffset:0;stroke-opacity:1;marker:none" transform="translate(0.0,423.30709156793284)"/>
	<path d="M 50.730439008212784,40.68791900821168 L 38.30829900821277,22.29321900821185" fill="none" id="path119" inkscape:connector-curvature="0" stroke-width="1" style="display:inline;opacity:1;vector-effect:none;fill:none;fill-opacity:1;stroke:#000000;stroke-width:1;stroke-linecap:round;stroke-linejoin:round;stroke-dasharray:none;stroke-dashoffset:0;stroke-opacity:1;marker:none" transform="translate(0.0,423.30709156793284)"/>
	<path d="M 54.537289008212724,58.16641900821185 L 50.73043900821267,40.68791900821168" fill="none" id="path120" inkscape:connector-curvature="0" stroke-width="1" style="display:inline;opacity:1;vector-effect:none;fill:none;fill-opacity:1;stroke:#000000;stroke-width:1;stroke-linecap:round;stroke-linejoin:round;stroke-dasharray:none;stroke-dashoffset:0;stroke-opacity:1;marker:none" transform="translate(0.0,423.30709156793284)"/>
	<path d="M 26.568829008212788,52.866019008211765 L 33.38312900821279,67.81151900821158" fill="none" id="path121" inkscape:connector-curvature="0" stroke-width="1" style="display:inline;opacity:1;vector-effect:none;fill:none;fill-opacity:1;stroke:#000000;stroke-width:1;stroke-linecap:round;stroke-linejoin:round;stroke-dasharray:none;stroke-dashoffset:0;stroke-opacity:1;marker:none" transform="translate(0.0,423.30709156793284)"/>
	<path d="M 33.38312900821279,67.81151900821158 L 41.19544900821279,84.94631900821139" fill="none" id="path122" inkscape:connector-curvature="0" stroke-width="1" style="display:inline;opacity:1;vector-effect:none;fill:none;fill-opacity:1;stroke:#000000;stroke-width:1;stroke-linecap:round;stroke-linejoin:round;stroke-dasharray:none;stroke-dashoffset:0;stroke-opacity:1;marker:none" transform="translate(0.0,423.30709156793284)"/>
	<path d="M 62.349609008212724,75.30121900821166 L 54.537289008212724,58.16641900821185" fill="none" id="path123" inkscape:connector-curvature="0" stroke-width="1" style="display:inline;opacity:1;vector-effect:none;fill:none;fill-opacity:1;stroke:#000000;stroke-width:1;stroke-linecap:round;stroke-linejoin:round;stroke-dasharray:none;stroke-dashoffset:0;stroke-opacity:1;marker:none" transform="translate(0.0,423.30709156793284)"/>
	<path d="M 47.51333900821271,98.84981900821174 L 60.02089900821272,125.28541900821153" fill="none" id="path124" inkscape:connector-curvature="0" stroke-width="1" style="display:inline;opacity:1;vector-effect:none;fill:none;fill-opacity:1;stroke:#000000;stroke-width:1;stroke-linecap:round;stroke-linejoin:round;stroke-dasharray:none;stroke-dashoffset:0;stroke-opacity:1;marker:none" transform="translate(0.0,423.30709156793284)"/>
	<path d="M 60.02089900821272,125.28541900821153 L 81.01934900821277,115.35701900821175" fill="none" id="path125" inkscape:connector-curvature="0" stroke-width="1" style="display:inline;opacity:1;vector-effect:none;fill:none;fill-opacity:1;stroke:#000000;stroke-width:1;stroke-linecap:round;stroke-linejoin:round;stroke-dasharray:none;stroke-dashoffset:0;stroke-opacity:1;marker:none" transform="translate(0.0,423.30709156793284)"/>
	<path d="M 81.01934900821277,115.35701900821175 L 72.48592900821279,88.43561900821157" fill="none" id="path126" inkscape:connector-curvature="0" stroke-width="1" style="display:inline;opacity:1;vector-effect:none;fill:none;fill-opacity:1;stroke:#000000;stroke-width:1;stroke-linecap:round;stroke-linejoin:round;stroke-dasharray:none;stroke-dashoffset:0;stroke-opacity:1;marker:none" transform="translate(0.0,423.30709156793284)"/>
	<path d="M 72.48592900821279,88.43561900821157 L 62.34960900821284,75.30121900821166" fill="none" id="path127" inkscape:connector-curvature="0" stroke-width="1" style="display:inline;opacity:1;vector-effect:none;fill:none;fill-opacity:1;stroke:#000000;stroke-width:1;stroke-linecap:round;stroke-linejoin:round;stroke-dasharray:none;stroke-dashoffset:0;stroke-opacity:1;marker:none" transform="translate(0.0,423.30709156793284)"/>
	<path d="M 41.19544900821279,84.94631900821184 L 47.513339008212824,98.84981900821174" fill="none" id="path128" inkscape:connector-curvature="0" stroke-width="1" style="display:inline;opacity:1;vector-effect:none;fill:none;fill-opacity:1;stroke:#000000;stroke-width:1;stroke-linecap:round;stroke-linejoin:round;stroke-dasharray:none;stroke-dashoffset:0;stroke-opacity:1;marker:none" transform="translate(0.0,423.30709156793284)"/>
	<path d="M 32.45303900821273,96.18071900821212 L 47.51333900821271,98.84991900821194 L 40.40070900821274,113.25891900821205 L 43.57580900821279,119.96971900821188 L 60.02089900821284,125.28551900821174 L 77.96219900821279,137.70611900821166 L 79.23343900821283,137.1050190082118 L 81.01934900821277,115.35711900821195 L 90.25689900821283,101.01431900821206 L 88.31689900821277,94.89401900821201 L 72.48592900821279,88.43571900821223 L 79.90343900821279,73.68161900821212 L 62.34960900821284,75.30131900821232 L 71.3955990082128,60.485319008212514 L 54.53728900821284,58.166519008212504 L 66.85597900821278,46.99661900821263 L 50.730439008212784,40.68801900821279 L 56.04274900821281,24.78241900821274 L 55.832609008212785,24.471319008212845 L 38.30811900821277,22.29321900821276 L 20.66769900821282,9.448819008212809 L 19.488679008212785,9.972319008212594 L 17.185319008212787,31.671519008212613 L 9.448819008212809,47.88411900821245 L 9.9983990082128,49.125519008212336 L 26.568639008212813,52.86601900821222 L 17.90762900821278,65.88051900821245 L 33.382939008212816,67.81161900821223 L 25.22082900821283,81.92051900821241 L 41.195259008212815,84.9464190082125 L 32.45303900821273,96.18071900821212" fill="none" id="path319" inkscape:connector-curvature="0" sodipodi:nodetypes="ccccccccccccccccccccccccccccccc" stroke-width="1" style="display:inline;opacity:1;vector-effect:none;fill:none;fill-opacity:1;stroke:#000000;stroke-width:1;stroke-linecap:round;stroke-linejoin:round;stroke-dasharray:none;stroke-dashoffset:0;stroke-opacity:1;marker:none" transform="translate(0.0,423.30709156793284)"/>
	<path d="M 167.24851900821278,56.631269008212826 L 140.9546790082128,41.69616900821268 L 96.75680900821277,42.41586900821278 L 54.18855900821279,30.50306900821272 L 30.869739008212775,49.755569008212774 L 22.328169008212797,31.29866900821264" fill="none" id="path1399" inkscape:connector-curvature="0" stroke-width="1" style="display:inline;opacity:1;vector-effect:none;fill:none;fill-opacity:1;stroke:#000000;stroke-width:1;stroke-linecap:round;stroke-linejoin:round;stroke-dasharray:none;stroke-dashoffset:0;stroke-opacity:1;marker:none" transform="translate(449.76378479092864,60.472441652561834)"/>
	<path d="M 57.29903900821273,9.448819008212752 L 22.32816900821274,31.298719008212743 L 9.448819008212752,48.464019008212745 L 30.86974900821275,49.75561900821276 L 51.31479900821273,57.381919008212776 L 57.80655900821273,52.0222190082128 L 54.18856900821271,30.50311900821282 L 59.60254900821269,51.641919008212824 L 81.15704900821271,57.67401900821284 L 96.75681900821269,42.415919008212825 L 107.9736290082127,61.133419008212854 L 130.3533090082127,60.769019008212865 L 140.9546890082127,41.69621900821289 L 141.10813900821273,63.516719008212874 L 148.42806900821273,67.67451900821288 L 167.24852900821276,56.63131900821287 L 185.56887900821278,47.800719008212866 L 148.23088900821278,30.30051900821286 L 100.9849790082128,27.636919008212885 L 57.29903900821273,9.448819008212752" fill="none" id="path330-9" inkscape:connector-curvature="0" stroke-width="1" style="display:inline;opacity:1;vector-effect:none;fill:none;fill-opacity:1;stroke:#000000;stroke-width:1;stroke-linecap:round;stroke-linejoin:round;stroke-dasharray:none;stroke-dashoffset:0;stroke-opacity:1;marker:none" transform="translate(449.76378479092864,60.472441652561834)"/>
	<path d="M 44.61201900821288,23.12271900821304 L 17.69051900821296,33.563419008213145" fill="none" id="path44" inkscape:connector-curvature="0" stroke-width="1" style="display:inline;opacity:1;vector-effect:none;fill:none;fill-opacity:1;stroke:#000000;stroke-width:1;stroke-linecap:round;stroke-linejoin:round;stroke-dasharray:none;stroke-dashoffset:0;stroke-opacity:1;marker:none" transform="translate(1009.1338700771256,298.58268065952404)"/>
	<path d="M 77.87891900821273,73.09821900821305 L 77.24171900821284,58.36301900821297" fill="none" id="path46" inkscape:connector-curvature="0" stroke-width="1" style="display:inline;opacity:1;vector-effect:none;fill:none;fill-opacity:1;stroke:#000000;stroke-width:1;stroke-linecap:round;stroke-linejoin:round;stroke-dasharray:none;stroke-dashoffset:0;stroke-opacity:1;marker:none" transform="translate(1009.1338700771256,298.58268065952404)"/>
	<path d="M 36.347719008212835,75.96861900821284 L 45.38001900821291,178.230619008213" fill="none" id="path47" inkscape:connector-curvature="0" stroke-width="1" style="display:inline;opacity:1;vector-effect:none;fill:none;fill-opacity:1;stroke:#000000;stroke-width:1;stroke-linecap:round;stroke-linejoin:round;stroke-dasharray:none;stroke-dashoffset:0;stroke-opacity:1;marker:none" transform="translate(1009.1338700771256,298.58268065952404)"/>
	<path d="M 87.8284190082129,279.81241900821294 L 79.98541900821283,177.30471900821283" fill="none" id="path48" inkscape:connector-curvature="0" stroke-width="1" style="display:inline;opacity:1;vector-effect:none;fill:none;fill-opacity:1;stroke:#000000;stroke-width:1;stroke-linecap:round;stroke-linejoin:round;stroke-dasharray:none;stroke-dashoffset:0;stroke-opacity:1;marker:none" transform="translate(1009.1338700771256,298.58268065952404)"/>
	<path d="M 45.38001900821291,178.230619008213 L 31.470119008212805,281.81971900821316 L 87.8284190082129,279.81241900821294 L 105.83861900821285,267.4920190082129 L 99.66031900821281,186.74181900821293 L 79.98541900821283,177.30471900821283 L 77.87891900821273,73.09821900821305 L 96.44031900821278,64.91421900821285 L 77.24171900821284,58.36301900821297 L 73.70681900821273,33.36291900821277 L 44.612019008212656,23.122719008212584 L 27.606519008212672,9.448819008212809 L 9.448819008212695,16.79961900821297 L 9.64881900821274,37.30451900821288 L 23.530419008212675,59.17651900821272 L 36.34771900821261,75.96861900821284 L 18.483319008212675,88.49951900821304 L 25.595719008212654,169.02501900821323 L 45.38001900821291,178.230619008213" fill="none" id="path310" inkscape:connector-curvature="0" sodipodi:nodetypes="ccccccccccccccccccc" stroke-width="1" style="display:inline;opacity:1;vector-effect:none;fill:none;fill-opacity:1;stroke:#000000;stroke-width:1;stroke-linecap:round;stroke-linejoin:round;stroke-dasharray:none;stroke-dashoffset:0;stroke-opacity:1;marker:none" transform="translate(1009.1338700771256,298.58268065952404)"/>
	<path d="M 76.79978900821277,20.67951900821288 L 65.80831900821278,20.891119008212854" fill="none" id="path206" inkscape:connector-curvature="0" stroke-width="1" style="display:inline;opacity:1;vector-effect:none;fill:none;fill-opacity:1;stroke:#000000;stroke-width:1;stroke-linecap:round;stroke-linejoin:round;stroke-dasharray:none;stroke-dashoffset:0;stroke-opacity:1;marker:none" transform="translate(593.3858337157629,287.2440978496687) rotate(90)"/>
	<path d="M 72.21578900821277,48.014719008212865 L 76.79978900821277,20.67951900821288" fill="none" id="path207" inkscape:connector-curvature="0" stroke-width="1" style="display:inline;opacity:1;vector-effect:none;fill:none;fill-opacity:1;stroke:#000000;stroke-width:1;stroke-linecap:round;stroke-linejoin:round;stroke-dasharray:none;stroke-dashoffset:0;stroke-opacity:1;marker:none" transform="translate(593.3858337157629,287.2440978496687) rotate(90)"/>
	<path d="M 64.60483900821276,89.59121900821287 L 72.21578900821277,48.014719008212865" fill="none" id="path208" inkscape:connector-curvature="0" stroke-width="1" style="display:inline;opacity:1;vector-effect:none;fill:none;fill-opacity:1;stroke:#000000;stroke-width:1;stroke-linecap:round;stroke-linejoin:round;stroke-dasharray:none;stroke-dashoffset:0;stroke-opacity:1;marker:none" transform="translate(593.3858337157629,287.2440978496687) rotate(90)"/>
	<path d="M 50.47427900821276,56.72941900821286 L 64.60483900821276,89.59121900821287" fill="none" id="path209" inkscape:connector-curvature="0" stroke-width="1" style="display:inline;opacity:1;vector-effect:none;fill:none;fill-opacity:1;stroke:#000000;stroke-width:1;stroke-linecap:round;stroke-linejoin:round;stroke-dasharray:none;stroke-dashoffset:0;stroke-opacity:1;marker:none" transform="translate(593.3858337157629,287.2440978496687) rotate(90)"/>
	<path d="M 50.47427900821276,56.72941900821286 L 36.77647900821276,89.59121900821287" fill="none" id="path211" inkscape:connector-curvature="0" stroke-width="1" style="display:inline;opacity:1;vector-effect:none;fill:none;fill-opacity:1;stroke:#000000;stroke-width:1;stroke-linecap:round;stroke-linejoin:round;stroke-dasharray:none;stroke-dashoffset:0;stroke-opacity:1;marker:none" transform="translate(593.3858337157629,287.2440978496687) rotate(90)"/>
	<path d="M 36.77647900821276,89.59121900821287 L 64.60483900821276,89.59121900821287" fill="none" id="path212" inkscape:connector-curvature="0" stroke-width="1" style="display:inline;opacity:1;vector-effect:none;fill:none;fill-opacity:1;stroke:#000000;stroke-width:1;stroke-linecap:round;stroke-linejoin:round;stroke-dasharray:none;stroke-dashoffset:0;stroke-opacity:1;marker:none" transform="translate(593.3858337157629,287.2440978496687) rotate(90)"/>
	<path d="M 25.752429008212772,52.382719008212916 L 36.77647900821276,89.59121900821287" fill="none" id="path213" inkscape:connector-curvature="0" stroke-width="1" style="display:inline;opacity:1;vector-effect:none;fill:none;fill-opacity:1;stroke:#000000;stroke-width:1;stroke-linecap:round;stroke-linejoin:round;stroke-dasharray:none;stroke-dashoffset:0;stroke-opacity:1;marker:none" transform="translate(593.3858337157629,287.2440978496687) rotate(90)"/>
	<path d="M 15.407669008212764,26.638319008212875 L 25.752429008212772,52.382719008212916" fill="none" id="path215" inkscape:connector-curvature="0" stroke-width="1" style="display:inline;opacity:1;vector-effect:none;fill:none;fill-opacity:1;stroke:#000000;stroke-width:1;stroke-linecap:round;stroke-linejoin:round;stroke-dasharray:none;stroke-dashoffset:0;stroke-opacity:1;marker:none" transform="translate(593.3858337157629,287.2440978496687) rotate(90)"/>
	<path d="M 67.21660900821277,131.77791900821285 L 64.60483900821276,89.59131900821285 L 79.36182900821277,66.39531900821282 L 72.21578900821277,48.01481900821284 L 84.77822900821278,37.49631900821282 L 76.79978900821277,20.679619008212853 L 71.08589900821278,9.448819008212809 L 65.80831900821278,20.891119008212854 L 57.887409008212785,40.792219008212896 L 50.47427900821279,56.72951900821295 L 37.51265900821278,42.6554190082129 L 25.744379008212775,22.895219008212848 L 15.407669008212764,26.638319008212875 L 9.448819008212752,44.718319008212916 L 25.752429008212744,52.382719008212916 L 21.690349008212735,70.71911900821294 L 36.77647900821273,89.59121900821299 L 29.535509008212728,127.71701900821301 L 46.22710900821272,149.87951900821304 L 67.21660900821277,131.77791900821285" fill="none" id="path340" inkscape:connector-curvature="0" sodipodi:nodetypes="cccccccccccccccccccc" stroke-width="1" style="display:inline;opacity:1;vector-effect:none;fill:none;fill-opacity:1;stroke:#000000;stroke-width:1;stroke-linecap:round;stroke-linejoin:round;stroke-dasharray:none;stroke-dashoffset:0;stroke-opacity:1;marker:none" transform="translate(593.3858337157629,287.2440978496687) rotate(90)"/>
	<path d="M 136.03651900821274,99.07891900821306 L 146.2944190082128,79.64181900821296" fill="none" id="path35" inkscape:connector-curvature="0" stroke-width="1" style="display:inline;opacity:1;vector-effect:none;fill:none;fill-opacity:1;stroke:#000000;stroke-width:1;stroke-linecap:round;stroke-linejoin:round;stroke-dasharray:none;stroke-dashoffset:0;stroke-opacity:1;marker:none" transform="translate(907.0866247884275,604.7244165256184)"/>
	<path d="M 146.2944190082128,79.64181900821296 L 103.66281900821286,30.85851900821291" fill="none" id="path36" inkscape:connector-curvature="0" stroke-width="1" style="display:inline;opacity:1;vector-effect:none;fill:none;fill-opacity:1;stroke:#000000;stroke-width:1;stroke-linecap:round;stroke-linejoin:round;stroke-dasharray:none;stroke-dashoffset:0;stroke-opacity:1;marker:none" transform="translate(907.0866247884275,604.7244165256184)"/>
	<path d="M 103.66281900821264,30.858519008213364 L 78.08471900821269,26.754319008213145" fill="none" id="path37" inkscape:connector-curvature="0" stroke-width="1" style="display:inline;opacity:1;vector-effect:none;fill:none;fill-opacity:1;stroke:#000000;stroke-width:1;stroke-linecap:round;stroke-linejoin:round;stroke-dasharray:none;stroke-dashoffset:0;stroke-opacity:1;marker:none" transform="translate(907.0866247884275,604.7244165256184)"/>
	<path d="M 78.08471900821269,26.754319008213145 L 54.777619008212696,29.834219008213324" fill="none" id="path39" inkscape:connector-curvature="0" stroke-width="1" style="display:inline;opacity:1;vector-effect:none;fill:none;fill-opacity:1;stroke:#000000;stroke-width:1;stroke-linecap:round;stroke-linejoin:round;stroke-dasharray:none;stroke-dashoffset:0;stroke-opacity:1;marker:none" transform="translate(907.0866247884275,604.7244165256184)"/>
	<path d="M 54.777619008212696,29.834219008213324 L 24.213119008212743,79.18811900821339" fill="none" id="path40" inkscape:connector-curvature="0" stroke-width="1" style="display:inline;opacity:1;vector-effect:none;fill:none;fill-opacity:1;stroke:#000000;stroke-width:1;stroke-linecap:round;stroke-linejoin:round;stroke-dasharray:none;stroke-dashoffset:0;stroke-opacity:1;marker:none" transform="translate(907.0866247884275,604.7244165256184)"/>
	<path d="M 9.448819008212695,95.46811900821314 L 41.63731900821267,89.93611900821298 L 72.16871900821275,95.74511900821318 L 103.13511900821277,103.01191900821306 L 136.03651900821274,99.07891900821306 L 157.8419190082127,98.24991900821288 L 157.9149190082128,98.11121900821291 L 146.29431900821282,79.64171900821276 L 153.34451900821273,58.99091900821287 L 125.07191900821272,26.638619008212856 L 103.66271900821266,30.858419008212707 L 95.88391900821262,10.470919008212888 L 91.85131900821261,9.823819008212752 L 78.08451900821251,26.754219008212942 L 64.79241900821262,9.448819008212752 L 63.118319008212666,9.669919008212958 L 54.777419008212746,29.83401900821292 L 32.96671900821275,29.160119008213144 L 13.891219008212829,59.962419008212976 L 24.21301900821277,79.18791900821299 L 9.448819008212695,95.46811900821314" fill="none" id="path308" inkscape:connector-curvature="0" stroke-width="1" style="display:inline;opacity:1;vector-effect:none;fill:none;fill-opacity:1;stroke:#000000;stroke-width:1;stroke-linecap:round;stroke-linejoin:round;stroke-dasharray:none;stroke-dashoffset:0;stroke-opacity:1;marker:none" transform="translate(907.0866247884275,604.7244165256184)"/>
</svg>
