<?xml version="1.0" ?>
<svg xmlns="http://www.w3.org/2000/svg" xmlns:cc="http://creativecommons.org/ns#" xmlns:dc="http://purl.org/dc/elements/1.1/" xmlns:ev="http://www.w3.org/2001/xml-events" xmlns:inkscape="http://www.inkscape.org/namespaces/inkscape" xmlns:rdf="http://www.w3.org/1999/02/22-rdf-syntax-ns#" xmlns:sodipodi="http://sodipodi.sourceforge.net/DTD/sodipodi-0.dtd" xmlns:svg="http://www.w3.org/2000/svg" xmlns:xlink="http://www.w3.org/1999/xlink" baseProfile="full" height="210mm" id="svg2850" inkscape:export-filename=".\USSEnterprise_01.png" inkscape:export-xdpi="90" inkscape:export-ydpi="90" inkscape:output-extension="org.inkscape.output.svg.inkscape" inkscape:version="0.92.4 (5da689c313, 2019-01-14)" sodipodi:docname="harry-potter.svg" sodipodi:version="0.32" style="display:inline" version="1.1" viewBox="0 0 1122.519698175679 793.7007966898741" width="297mm">
	<defs/>
	<path d="M 59.309319008212924,46.27701900821273 L 44.163919008212815,9.448819008212809" fill="none" id="path49" inkscape:connector-curvature="0" stroke-width="1" style="display:inline;opacity:1;vector-effect:none;fill:none;fill-opacity:1;stroke:#000000;stroke-width:1;stroke-linecap:round;stroke-linejoin:round;stroke-dasharray:none;stroke-dashoffset:0;stroke-opacity:1;marker:none" transform="translate(0.0,7.559055206570229)"/>
	<path d="M 34.7337190082128,112.92461900821252 L 27.660419008212784,231.03501900821254" fill="none" id="path50" inkscape:connector-curvature="0" stroke-width="1" style="display:inline;opacity:1;vector-effect:none;fill:none;fill-opacity:1;stroke:#000000;stroke-width:1;stroke-linecap:round;stroke-linejoin:round;stroke-dasharray:none;stroke-dashoffset:0;stroke-opacity:1;marker:none" transform="translate(0.0,7.559055206570229)"/>
	<path d="M 86.71851900821275,231.40481900821248 L 65.69431900821269,111.87231900821268" fill="none" id="path51" inkscape:connector-curvature="0" stroke-width="1" style="display:inline;opacity:1;vector-effect:none;fill:none;fill-opacity:1;stroke:#000000;stroke-width:1;stroke-linecap:round;stroke-linejoin:round;stroke-dasharray:none;stroke-dashoffset:0;stroke-opacity:1;marker:none" transform="translate(0.0,7.559055206570229)"/>
	<path d="M 27.660419008212784,231.03501900821254 L 86.71851900821275,231.40501900821243 L 86.19621900821267,119.34451900821239 L 65.69431900821269,111.87251900821218 L 59.3093190082127,46.27721900821223 L 72.63701900821275,28.999119008212233 L 65.79101900821274,12.352119008212298 L 44.163919008212815,9.449019008212304 L 28.37931900821286,56.3534190082122 L 34.7337190082128,112.92481900821201 L 15.217719008212725,122.68611900821213 L 9.448819008212695,219.01441900821226 L 27.660419008212784,231.03501900821254" fill="none" id="path311" inkscape:connector-curvature="0" sodipodi:nodetypes="ccccccccccccc" stroke-width="1" style="display:inline;opacity:1;vector-effect:none;fill:none;fill-opacity:1;stroke:#000000;stroke-width:1;stroke-linecap:round;stroke-linejoin:round;stroke-dasharray:none;stroke-dashoffset:0;stroke-opacity:1;marker:none" transform="translate(0.0,7.559055206570229)"/>
	<path d="M 141.0757520082128,40.31405900821244 L 77.28794200821278,75.6651590082123" fill="none" id="path144" inkscape:connector-curvature="0" stroke-width="1" style="display:inline;opacity:1;vector-effect:none;fill:none;fill-opacity:1;stroke:#000000;stroke-width:1;stroke-linecap:round;stroke-linejoin:round;stroke-dasharray:none;stroke-dashoffset:0;stroke-opacity:1;marker:none" transform="translate(0.0,385.51181553508167)"/>
	<path d="M 399.7079820082128,75.67615900821272 L 335.92253200821284,40.3206590082126" fill="none" id="path145" inkscape:connector-curvature="0" stroke-width="1" style="display:inline;opacity:1;vector-effect:none;fill:none;fill-opacity:1;stroke:#000000;stroke-width:1;stroke-linecap:round;stroke-linejoin:round;stroke-dasharray:none;stroke-dashoffset:0;stroke-opacity:1;marker:none" transform="translate(0.0,385.51181553508167)"/>
	<path d="M 187.2198920082128,32.58825900821273 L 141.07575200821282,40.314059008212894" fill="none" id="path146" inkscape:connector-curvature="0" stroke-width="1" style="display:inline;opacity:1;vector-effect:none;fill:none;fill-opacity:1;stroke:#000000;stroke-width:1;stroke-linecap:round;stroke-linejoin:round;stroke-dasharray:none;stroke-dashoffset:0;stroke-opacity:1;marker:none" transform="translate(0.0,385.51181553508167)"/>
	<path d="M 238.4996120082128,27.070759008212804 L 187.2198920082128,32.58825900821273" fill="none" id="path147" inkscape:connector-curvature="0" stroke-width="1" style="display:inline;opacity:1;vector-effect:none;fill:none;fill-opacity:1;stroke:#000000;stroke-width:1;stroke-linecap:round;stroke-linejoin:round;stroke-dasharray:none;stroke-dashoffset:0;stroke-opacity:1;marker:none" transform="translate(0.0,385.51181553508167)"/>
	<path d="M 335.9225320082128,40.3206590082126 L 289.7789720082128,32.59165900821279" fill="none" id="path148" inkscape:connector-curvature="0" stroke-width="1" style="display:inline;opacity:1;vector-effect:none;fill:none;fill-opacity:1;stroke:#000000;stroke-width:1;stroke-linecap:round;stroke-linejoin:round;stroke-dasharray:none;stroke-dashoffset:0;stroke-opacity:1;marker:none" transform="translate(0.0,385.51181553508167)"/>
	<path d="M 289.7789720082128,32.59165900821279 L 238.4996120082128,27.070759008212804" fill="none" id="path149" inkscape:connector-curvature="0" stroke-width="1" style="display:inline;opacity:1;vector-effect:none;fill:none;fill-opacity:1;stroke:#000000;stroke-width:1;stroke-linecap:round;stroke-linejoin:round;stroke-dasharray:none;stroke-dashoffset:0;stroke-opacity:1;marker:none" transform="translate(0.0,385.51181553508167)"/>
	<path d="M 395.75451200821277,217.0407590082126 L 451.55743200821274,221.4466590082128" fill="none" id="path150" inkscape:connector-curvature="0" stroke-width="1" style="display:inline;opacity:1;vector-effect:none;fill:none;fill-opacity:1;stroke:#000000;stroke-width:1;stroke-linecap:round;stroke-linejoin:round;stroke-dasharray:none;stroke-dashoffset:0;stroke-opacity:1;marker:none" transform="translate(0.0,385.51181553508167)"/>
	<path d="M 451.5574320082128,221.4466590082128 L 440.1827920082128,171.84495900821264" fill="none" id="path151" inkscape:connector-curvature="0" stroke-width="1" style="display:inline;opacity:1;vector-effect:none;fill:none;fill-opacity:1;stroke:#000000;stroke-width:1;stroke-linecap:round;stroke-linejoin:round;stroke-dasharray:none;stroke-dashoffset:0;stroke-opacity:1;marker:none" transform="translate(0.0,385.51181553508167)"/>
	<path d="M 372.0673620082128,183.2871590082126 L 395.75451200821277,217.0407590082126" fill="none" id="path152" inkscape:connector-curvature="0" stroke-width="1" style="display:inline;opacity:1;vector-effect:none;fill:none;fill-opacity:1;stroke:#000000;stroke-width:1;stroke-linecap:round;stroke-linejoin:round;stroke-dasharray:none;stroke-dashoffset:0;stroke-opacity:1;marker:none" transform="translate(0.0,385.51181553508167)"/>
	<path d="M 385.8665820082128,123.16005900821244 L 329.4944520082128,79.84035900821243" fill="none" id="path153" inkscape:connector-curvature="0" sodipodi:nodetypes="cc" stroke-width="1" style="display:inline;opacity:1;vector-effect:none;fill:none;fill-opacity:1;stroke:#000000;stroke-width:1;stroke-linecap:round;stroke-linejoin:round;stroke-dasharray:none;stroke-dashoffset:0;stroke-opacity:1;marker:none" transform="translate(0.0,385.51181553508167)"/>
	<path d="M 440.1827920082128,171.84495900821264 L 385.8665820082128,123.16005900821244" fill="none" id="path154" inkscape:connector-curvature="0" stroke-width="1" style="display:inline;opacity:1;vector-effect:none;fill:none;fill-opacity:1;stroke:#000000;stroke-width:1;stroke-linecap:round;stroke-linejoin:round;stroke-dasharray:none;stroke-dashoffset:0;stroke-opacity:1;marker:none" transform="translate(0.0,385.51181553508167)"/>
	<path d="M 299.2449820082128,104.29395900821271 L 325.2402320082128,121.43305900821258" fill="none" id="path155" inkscape:connector-curvature="0" stroke-width="1" style="display:inline;opacity:1;vector-effect:none;fill:none;fill-opacity:1;stroke:#000000;stroke-width:1;stroke-linecap:round;stroke-linejoin:round;stroke-dasharray:none;stroke-dashoffset:0;stroke-opacity:1;marker:none" transform="translate(0.0,385.51181553508167)"/>
	<path d="M 36.8066830082128,171.83145900821262 L 25.428611008212798,221.43225900821278" fill="none" id="path156" inkscape:connector-curvature="0" stroke-width="1" style="display:inline;opacity:1;vector-effect:none;fill:none;fill-opacity:1;stroke:#000000;stroke-width:1;stroke-linecap:round;stroke-linejoin:round;stroke-dasharray:none;stroke-dashoffset:0;stroke-opacity:1;marker:none" transform="translate(0.0,385.51181553508167)"/>
	<path d="M 81.23182200821279,217.03015900821254 L 104.92126200821278,183.27815900821258" fill="none" id="path157" inkscape:connector-curvature="0" stroke-width="1" style="display:inline;opacity:1;vector-effect:none;fill:none;fill-opacity:1;stroke:#000000;stroke-width:1;stroke-linecap:round;stroke-linejoin:round;stroke-dasharray:none;stroke-dashoffset:0;stroke-opacity:1;marker:none" transform="translate(0.0,385.51181553508167)"/>
	<path d="M 147.5009320082128,79.83415900821262 L 91.1261320082128,123.15015900821243" fill="none" id="path158" inkscape:connector-curvature="0" sodipodi:nodetypes="cc" stroke-width="1" style="display:inline;opacity:1;vector-effect:none;fill:none;fill-opacity:1;stroke:#000000;stroke-width:1;stroke-linecap:round;stroke-linejoin:round;stroke-dasharray:none;stroke-dashoffset:0;stroke-opacity:1;marker:none" transform="translate(0.0,385.51181553508167)"/>
	<path d="M 91.1261320082128,123.15015900821243 L 36.8066830082128,171.83145900821262" fill="none" id="path159" inkscape:connector-curvature="0" stroke-width="1" style="display:inline;opacity:1;vector-effect:none;fill:none;fill-opacity:1;stroke:#000000;stroke-width:1;stroke-linecap:round;stroke-linejoin:round;stroke-dasharray:none;stroke-dashoffset:0;stroke-opacity:1;marker:none" transform="translate(0.0,385.51181553508167)"/>
	<path d="M 151.7526320082128,121.42725900821267 L 177.7490520082128,104.2899590082128" fill="none" id="path160" inkscape:connector-curvature="0" stroke-width="1" style="display:inline;opacity:1;vector-effect:none;fill:none;fill-opacity:1;stroke:#000000;stroke-width:1;stroke-linecap:round;stroke-linejoin:round;stroke-dasharray:none;stroke-dashoffset:0;stroke-opacity:1;marker:none" transform="translate(0.0,385.51181553508167)"/>
	<path d="M 90.36838200821279,117.7597190082127 L 91.12613200821278,123.15027900821269 L 70.38873200821277,116.3589190082127 L 32.31944500821277,150.47671900821268 L 36.80668300821277,171.83156900821268 L 15.948008008212767,178.24065900821267 L 9.448819008212766,206.57274900821267 L 25.42861100821277,221.43235900821264 L 81.23182200821276,217.03021900821267 L 102.96778200821277,218.9562490082127 L 114.12120200821278,203.0651490082127 L 104.92126200821278,183.2782290082127 L 151.75263200821277,121.42737900821271 L 171.26296200821278,131.2000790082127 L 179.0407620082128,126.07283900821272 L 177.7490520082128,104.29006900821275 L 238.4978120082128,79.85866900821276 L 299.2449820082128,104.29408900821278 L 297.9517820082128,126.0768190082128 L 305.7292020082128,131.20459900821277 L 325.2402320082128,121.43315900821278 L 372.0673620082128,183.28728900821278 L 362.8660620082128,203.07355900821278 L 374.0184420082128,218.96542900821277 L 395.75451200821277,217.04085900821275 L 405.1437820082128,236.73858900821273 L 439.1932720082128,239.4269990082127 L 451.5574320082128,221.44673900821272 L 467.53825200821285,206.58827900821274 L 461.0410320082128,178.25562900821274 L 440.1827920082128,171.84509900821274 L 444.6714420082128,150.49063900821272 L 406.6044020082128,116.3702890082127 L 385.8665820082128,123.1601590082127 L 386.62465200821276,117.76979900821271 L 329.49445200821276,79.84033900821271 L 389.08825200821275,119.40537900821272 C 389.08825200821275,119.40537900821272 407.20834200821275,114.67290900821274 414.1569520082127,108.84815900821275 C 420.1531920082127,103.82172900821274 425.6097220082127,96.85491900821273 426.9048020082127,89.13852900821274 C 428.0932520082127,82.05740900821274 427.1311120082127,72.97977900821274 421.7523220082127,68.22333900821275 C 418.51142200821266,65.35745900821274 412.9596720082127,65.28733900821274 408.86501200821266,66.68400900821274 C 404.81607200821264,68.06507900821273 399.70798200821264,75.67624900821275 399.70798200821264,75.67624900821275 L 399.32680200821267,53.85845900821275 L 354.62670200821265,29.081759008212742 L 335.92253200821267,40.32076900821275 L 328.28367200821265,19.880359008212736 L 303.66144200821265,15.756219008212724 L 289.77897200821263,32.59175900821273 L 280.9540320082126,12.634859008212743 L 251.37038200821263,9.449689008212744 L 238.49961200821264,27.070849008212747 L 225.6300020082126,9.448819008212752 L 196.0461720082126,12.631969008212764 L 187.2198920082126,32.58835900821276 L 173.33855200821262,15.751829008212752 L 148.71597200821262,19.874309008212748 L 141.07575200821262,40.314189008212736 L 122.37237200821261,29.073939008212733 L 77.6706220082126,53.84755900821273 L 77.2877520082126,75.66526900821273 C 77.2877520082126,75.66526900821273 72.1802120082126,68.05380900821274 68.1313920082126,66.67246900821274 C 64.0368220082126,65.27552900821274 58.4850720082126,65.34521900821275 55.2439520082126,68.21084900821273 C 49.86483500821261,72.96692900821273 48.90207400821261,82.04444900821272 50.0900320082126,89.12565900821272 C 51.3845670082126,96.8420990082127 56.8406020082126,103.80941900821273 62.83651200821261,108.83621900821271 C 69.7846920082126,114.66138900821272 87.90444200821261,119.39514900821268 87.90444200821261,119.39514900821268 L 147.5009320082126,79.83419900821269" fill="none" id="path328" inkscape:connector-curvature="0" sodipodi:nodetypes="cccccccccccccccccccccccccccccccccccccsssscccccccccccccccccccsssscc" stroke-width="1" style="display:inline;opacity:1;vector-effect:none;fill:none;fill-opacity:1;stroke:#000000;stroke-width:1;stroke-linecap:round;stroke-linejoin:round;stroke-dasharray:none;stroke-dashoffset:0;stroke-opacity:1;marker:none" transform="translate(0.0,385.51181553508167)"/>
	<path d="M 76.79978900821277,20.67951900821288 L 65.80831900821278,20.891119008212854" fill="none" id="path206" inkscape:connector-curvature="0" stroke-width="1" style="display:inline;opacity:1;vector-effect:none;fill:none;fill-opacity:1;stroke:#000000;stroke-width:1;stroke-linecap:round;stroke-linejoin:round;stroke-dasharray:none;stroke-dashoffset:0;stroke-opacity:1;marker:none" transform="translate(0.0,612.2834717321886)"/>
	<path d="M 72.21578900821277,48.014719008212865 L 76.79978900821277,20.67951900821288" fill="none" id="path207" inkscape:connector-curvature="0" stroke-width="1" style="display:inline;opacity:1;vector-effect:none;fill:none;fill-opacity:1;stroke:#000000;stroke-width:1;stroke-linecap:round;stroke-linejoin:round;stroke-dasharray:none;stroke-dashoffset:0;stroke-opacity:1;marker:none" transform="translate(0.0,612.2834717321886)"/>
	<path d="M 64.60483900821276,89.59121900821287 L 72.21578900821277,48.014719008212865" fill="none" id="path208" inkscape:connector-curvature="0" stroke-width="1" style="display:inline;opacity:1;vector-effect:none;fill:none;fill-opacity:1;stroke:#000000;stroke-width:1;stroke-linecap:round;stroke-linejoin:round;stroke-dasharray:none;stroke-dashoffset:0;stroke-opacity:1;marker:none" transform="translate(0.0,612.2834717321886)"/>
	<path d="M 50.47427900821276,56.72941900821286 L 64.60483900821276,89.59121900821287" fill="none" id="path209" inkscape:connector-curvature="0" stroke-width="1" style="display:inline;opacity:1;vector-effect:none;fill:none;fill-opacity:1;stroke:#000000;stroke-width:1;stroke-linecap:round;stroke-linejoin:round;stroke-dasharray:none;stroke-dashoffset:0;stroke-opacity:1;marker:none" transform="translate(0.0,612.2834717321886)"/>
	<path d="M 50.47427900821276,56.72941900821286 L 36.77647900821276,89.59121900821287" fill="none" id="path211" inkscape:connector-curvature="0" stroke-width="1" style="display:inline;opacity:1;vector-effect:none;fill:none;fill-opacity:1;stroke:#000000;stroke-width:1;stroke-linecap:round;stroke-linejoin:round;stroke-dasharray:none;stroke-dashoffset:0;stroke-opacity:1;marker:none" transform="translate(0.0,612.2834717321886)"/>
	<path d="M 36.77647900821276,89.59121900821287 L 64.60483900821276,89.59121900821287" fill="none" id="path212" inkscape:connector-curvature="0" stroke-width="1" style="display:inline;opacity:1;vector-effect:none;fill:none;fill-opacity:1;stroke:#000000;stroke-width:1;stroke-linecap:round;stroke-linejoin:round;stroke-dasharray:none;stroke-dashoffset:0;stroke-opacity:1;marker:none" transform="translate(0.0,612.2834717321886)"/>
	<path d="M 25.752429008212772,52.382719008212916 L 36.77647900821276,89.59121900821287" fill="none" id="path213" inkscape:connector-curvature="0" stroke-width="1" style="display:inline;opacity:1;vector-effect:none;fill:none;fill-opacity:1;stroke:#000000;stroke-width:1;stroke-linecap:round;stroke-linejoin:round;stroke-dasharray:none;stroke-dashoffset:0;stroke-opacity:1;marker:none" transform="translate(0.0,612.2834717321886)"/>
	<path d="M 15.407669008212764,26.638319008212875 L 25.752429008212772,52.382719008212916" fill="none" id="path215" inkscape:connector-curvature="0" stroke-width="1" style="display:inline;opacity:1;vector-effect:none;fill:none;fill-opacity:1;stroke:#000000;stroke-width:1;stroke-linecap:round;stroke-linejoin:round;stroke-dasharray:none;stroke-dashoffset:0;stroke-opacity:1;marker:none" transform="translate(0.0,612.2834717321886)"/>
	<path d="M 67.21660900821277,131.77791900821285 L 64.60483900821276,89.59131900821285 L 79.36182900821277,66.39531900821282 L 72.21578900821277,48.01481900821284 L 84.77822900821278,37.49631900821282 L 76.79978900821277,20.679619008212853 L 71.08589900821278,9.448819008212809 L 65.80831900821278,20.891119008212854 L 57.887409008212785,40.792219008212896 L 50.47427900821279,56.72951900821295 L 37.51265900821278,42.6554190082129 L 25.744379008212775,22.895219008212848 L 15.407669008212764,26.638319008212875 L 9.448819008212752,44.718319008212916 L 25.752429008212744,52.382719008212916 L 21.690349008212735,70.71911900821294 L 36.77647900821273,89.59121900821299 L 29.535509008212728,127.71701900821301 L 46.22710900821272,149.87951900821304 L 67.21660900821277,131.77791900821285" fill="none" id="path340" inkscape:connector-curvature="0" sodipodi:nodetypes="cccccccccccccccccccc" stroke-width="1" style="display:inline;opacity:1;vector-effect:none;fill:none;fill-opacity:1;stroke:#000000;stroke-width:1;stroke-linecap:round;stroke-linejoin:round;stroke-dasharray:none;stroke-dashoffset:0;stroke-opacity:1;marker:none" transform="translate(0.0,612.2834717321886)"/>
	<path d="M 9.448819008212809,119.85871900821286 L 64.82281900821272,136.69921900821265 L 108.2187190082127,142.48401900821256 L 163.08301900821266,141.61801900821257 L 218.31701900821258,139.7329190082126 L 259.59071900821255,135.42341900821276 L 311.83531900821254,121.91081900821274 L 290.74331900821244,12.968919008212936 L 261.6625190082125,12.90991900821274 L 234.8970190082125,23.069819008212846 L 197.64641900821243,39.411419008213045 L 163.75231900821245,40.868819008212824 L 129.82701900821235,40.77881900821268 L 92.5750190082124,24.113319008212613 L 63.90861900821233,14.118719008212622 L 37.24811900821237,9.448819008212752 L 9.448819008212809,119.85871900821286" fill="none" id="path361" inkscape:connector-curvature="0" stroke-width="1" style="display:inline;opacity:1;vector-effect:none;fill:none;fill-opacity:1;stroke:#000000;stroke-width:1;stroke-linecap:round;stroke-linejoin:round;stroke-dasharray:none;stroke-dashoffset:0;stroke-opacity:1;marker:none" transform="translate(801.2598518964443,0.0)"/>
	<path d="M 44.61201900821288,23.12271900821304 L 17.69051900821296,33.563419008213145" fill="none" id="path44" inkscape:connector-curvature="0" stroke-width="1" style="display:inline;opacity:1;vector-effect:none;fill:none;fill-opacity:1;stroke:#000000;stroke-width:1;stroke-linecap:round;stroke-linejoin:round;stroke-dasharray:none;stroke-dashoffset:0;stroke-opacity:1;marker:none" transform="translate(691.653551401176,0.0)"/>
	<path d="M 77.87891900821273,73.09821900821305 L 77.24171900821284,58.36301900821297" fill="none" id="path46" inkscape:connector-curvature="0" stroke-width="1" style="display:inline;opacity:1;vector-effect:none;fill:none;fill-opacity:1;stroke:#000000;stroke-width:1;stroke-linecap:round;stroke-linejoin:round;stroke-dasharray:none;stroke-dashoffset:0;stroke-opacity:1;marker:none" transform="translate(691.653551401176,0.0)"/>
	<path d="M 36.347719008212835,75.96861900821284 L 45.38001900821291,178.230619008213" fill="none" id="path47" inkscape:connector-curvature="0" stroke-width="1" style="display:inline;opacity:1;vector-effect:none;fill:none;fill-opacity:1;stroke:#000000;stroke-width:1;stroke-linecap:round;stroke-linejoin:round;stroke-dasharray:none;stroke-dashoffset:0;stroke-opacity:1;marker:none" transform="translate(691.653551401176,0.0)"/>
	<path d="M 87.8284190082129,279.81241900821294 L 79.98541900821283,177.30471900821283" fill="none" id="path48" inkscape:connector-curvature="0" stroke-width="1" style="display:inline;opacity:1;vector-effect:none;fill:none;fill-opacity:1;stroke:#000000;stroke-width:1;stroke-linecap:round;stroke-linejoin:round;stroke-dasharray:none;stroke-dashoffset:0;stroke-opacity:1;marker:none" transform="translate(691.653551401176,0.0)"/>
	<path d="M 45.38001900821291,178.230619008213 L 31.470119008212805,281.81971900821316 L 87.8284190082129,279.81241900821294 L 105.83861900821285,267.4920190082129 L 99.66031900821281,186.74181900821293 L 79.98541900821283,177.30471900821283 L 77.87891900821273,73.09821900821305 L 96.44031900821278,64.91421900821285 L 77.24171900821284,58.36301900821297 L 73.70681900821273,33.36291900821277 L 44.612019008212656,23.122719008212584 L 27.606519008212672,9.448819008212809 L 9.448819008212695,16.79961900821297 L 9.64881900821274,37.30451900821288 L 23.530419008212675,59.17651900821272 L 36.34771900821261,75.96861900821284 L 18.483319008212675,88.49951900821304 L 25.595719008212654,169.02501900821323 L 45.38001900821291,178.230619008213" fill="none" id="path310" inkscape:connector-curvature="0" sodipodi:nodetypes="ccccccccccccccccccc" stroke-width="1" style="display:inline;opacity:1;vector-effect:none;fill:none;fill-opacity:1;stroke:#000000;stroke-width:1;stroke-linecap:round;stroke-linejoin:round;stroke-dasharray:none;stroke-dashoffset:0;stroke-opacity:1;marker:none" transform="translate(691.653551401176,0.0)"/>
	<path d="M 104.77440900821284,81.71821900821294 L 113.5088990082129,16.340519008212937" fill="none" id="path112" inkscape:connector-curvature="0" stroke-width="1" style="display:inline;opacity:1;vector-effect:none;fill:none;fill-opacity:1;stroke:#000000;stroke-width:1;stroke-linecap:round;stroke-linejoin:round;stroke-dasharray:none;stroke-dashoffset:0;stroke-opacity:1;marker:none" transform="translate(0.0,283.4645702463836)"/>
	<path d="M 32.8747490082128,15.865319008213078 L 9.448819008212809,20.52401900821303 L 28.830729008212757,83.5707190082129 L 35.39587900821277,90.23051900821281 L 48.67679900821281,81.5403190082128 L 46.168749008212785,70.99331900821278 L 51.098929008212735,81.35501900821271 L 60.970499008212755,82.50691900821255 L 63.651069008212744,72.81501900821274 L 64.99070900821278,82.64911900821278 L 78.20533900821272,84.82841900821256 L 82.55036900821267,75.79821900821241 L 83.80779900821267,86.24921900821244 L 100.50943900821267,90.15241900821263 L 104.77440900821261,81.71831900821269 L 124.95043900821258,73.40641900821254 L 130.79528900821254,29.65751900821249 L 113.50889900821255,16.340619008212684 L 91.82510900821251,13.404719008212737 L 63.650919008212554,9.448819008212809 L 32.8747490082128,15.865319008213078" fill="none" id="path318" inkscape:connector-curvature="0" sodipodi:nodetypes="ccccccccccccccccccccc" stroke-width="1" style="display:inline;opacity:1;vector-effect:none;fill:none;fill-opacity:1;stroke:#000000;stroke-width:1;stroke-linecap:round;stroke-linejoin:round;stroke-dasharray:none;stroke-dashoffset:0;stroke-opacity:1;marker:none" transform="translate(0.0,283.4645702463836)"/>
	<path d="M 106.61731900821292,112.35321900821265 L 156.82781900821283,104.4788190082125 L 203.94361900821286,84.85631900821255 L 167.49631900821282,9.448819008212752 L 137.15411900821277,19.637719008212855 L 106.71401900821274,20.669019008212956 L 75.54311900821267,20.48791900821317 L 44.996119008212645,9.471119008213293 L 9.448819008212695,85.30701900821333 L 56.14051900821278,106.01961900821317 L 106.61731900821292,112.35321900821265" fill="none" id="path358" inkscape:connector-curvature="0" stroke-width="1" style="display:inline;opacity:1;vector-effect:none;fill:none;fill-opacity:1;stroke:#000000;stroke-width:1;stroke-linecap:round;stroke-linejoin:round;stroke-dasharray:none;stroke-dashoffset:0;stroke-opacity:1;marker:none" transform="translate(117.16535570183855,521.5748092533458)"/>
	<path d="M 102.15568900821285,96.21361900821267 L 106.84135900821286,113.86481900821246" fill="none" id="path129" inkscape:connector-curvature="0" stroke-width="1" style="display:inline;opacity:1;vector-effect:none;fill:none;fill-opacity:1;stroke:#000000;stroke-width:1;stroke-linecap:round;stroke-linejoin:round;stroke-dasharray:none;stroke-dashoffset:0;stroke-opacity:1;marker:none" transform="translate(525.3543368566309,0.0)"/>
	<path d="M 151.7239290082128,100.61371900821251 L 147.12435900821276,84.70541900821246" fill="none" id="path130" inkscape:connector-curvature="0" stroke-width="1" style="display:inline;opacity:1;vector-effect:none;fill:none;fill-opacity:1;stroke:#000000;stroke-width:1;stroke-linecap:round;stroke-linejoin:round;stroke-dasharray:none;stroke-dashoffset:0;stroke-opacity:1;marker:none" transform="translate(525.3543368566309,0.0)"/>
	<path d="M 15.479129008212823,70.40311900821263 L 42.005789008212815,97.9132190082126" fill="none" id="path131" inkscape:connector-curvature="0" stroke-width="1" style="display:inline;opacity:1;vector-effect:none;fill:none;fill-opacity:1;stroke:#000000;stroke-width:1;stroke-linecap:round;stroke-linejoin:round;stroke-dasharray:none;stroke-dashoffset:0;stroke-opacity:1;marker:none" transform="translate(525.3543368566309,0.0)"/>
	<path d="M 42.005789008212815,97.9132190082126 L 52.39127900821282,85.0146190082126" fill="none" id="path132" inkscape:connector-curvature="0" stroke-width="1" style="display:inline;opacity:1;vector-effect:none;fill:none;fill-opacity:1;stroke:#000000;stroke-width:1;stroke-linecap:round;stroke-linejoin:round;stroke-dasharray:none;stroke-dashoffset:0;stroke-opacity:1;marker:none" transform="translate(525.3543368566309,0.0)"/>
	<path d="M 157.59375900821283,97.53581900821274 L 183.94031900821284,69.85321900821265" fill="none" id="path133" inkscape:connector-curvature="0" stroke-width="1" style="display:inline;opacity:1;vector-effect:none;fill:none;fill-opacity:1;stroke:#000000;stroke-width:1;stroke-linecap:round;stroke-linejoin:round;stroke-dasharray:none;stroke-dashoffset:0;stroke-opacity:1;marker:none" transform="translate(525.3543368566309,0.0)"/>
	<path d="M 97.38856900821281,22.958919008212717 L 36.75114900821282,47.665419008212496" fill="none" id="path135" inkscape:connector-curvature="0" stroke-width="1" style="display:inline;opacity:1;vector-effect:none;fill:none;fill-opacity:1;stroke:#000000;stroke-width:1;stroke-linecap:round;stroke-linejoin:round;stroke-dasharray:none;stroke-dashoffset:0;stroke-opacity:1;marker:none" transform="translate(525.3543368566309,0.0)"/>
	<path d="M 99.62347900821283,43.702319008212555 L 97.38856900821281,22.958919008212717" fill="none" id="path136" inkscape:connector-curvature="0" stroke-width="1" style="display:inline;opacity:1;vector-effect:none;fill:none;fill-opacity:1;stroke:#000000;stroke-width:1;stroke-linecap:round;stroke-linejoin:round;stroke-dasharray:none;stroke-dashoffset:0;stroke-opacity:1;marker:none" transform="translate(525.3543368566309,0.0)"/>
	<path d="M 162.52033900821283,47.25491900821254 L 101.72289900821283,22.94481900821239" fill="none" id="path137" inkscape:connector-curvature="0" stroke-width="1" style="display:inline;opacity:1;vector-effect:none;fill:none;fill-opacity:1;stroke:#000000;stroke-width:1;stroke-linecap:round;stroke-linejoin:round;stroke-dasharray:none;stroke-dashoffset:0;stroke-opacity:1;marker:none" transform="translate(525.3543368566309,0.0)"/>
	<path d="M 165.90093900821284,88.80751900821252 L 167.57821900821284,87.41071900821254 L 167.26904900821285,87.36971900821237" fill="none" id="path322" inkscape:connector-curvature="0" stroke-width="1" style="display:inline;opacity:1;vector-effect:none;fill:none;fill-opacity:1;stroke:#000000;stroke-width:1;stroke-linecap:round;stroke-linejoin:round;stroke-dasharray:none;stroke-dashoffset:0;stroke-opacity:1;marker:none" transform="translate(525.3543368566309,0.0)"/>
	<path d="M 99.69955900821282,67.00681900821274 L 102.15568900821279,96.21371900821288 L 96.0920790082128,101.42121900821286 M 93.53915900821283,111.29781900821291 L 106.84135900821286,113.86491900821312 L 151.72392900821285,100.61381900821317 L 156.71418900821283,96.45801900821317 L 147.12435900821282,84.70551900821312 L 157.59375900821283,97.53591900821294 L 178.80450900821285,102.66091900821294 L 190.10736900821286,90.78491900821274 L 183.94031900821284,69.85331900821285 L 162.52033900821283,47.25501900821274 L 159.4058190082128,25.657319008212937 L 118.8698190082128,9.448819008212752 L 101.72289900821278,22.944919008212594 L 99.62347900821277,43.70241900821276 L 101.54517900821276,24.702119008212605 L 97.38856900821276,22.959019008212465 L 80.15392900821274,9.5752190082124 L 39.72460900821275,26.047919008212205 L 36.751149008212764,47.66551900821224 L 15.479129008212766,70.40321900821237 L 9.448819008212752,91.37451900821253 L 20.828939008212757,103.17651900821267 L 42.00578900821276,97.9133190082128 L 48.27337900821277,99.61371900821297 L 52.39127900821276,85.01471900821281 L 47.89568900821277,100.95281900821266 L 92.86383900821278,113.91051900821259 L 97.43414900821278,96.2292190082124 L 99.69955900821276,67.00681900821229" fill="none" id="path320" inkscape:connector-curvature="0" sodipodi:nodetypes="cccccccccccccccccccccccccccccccc" stroke-width="1" style="display:inline;opacity:1;vector-effect:none;fill:none;fill-opacity:1;stroke:#000000;stroke-width:1;stroke-linecap:round;stroke-linejoin:round;stroke-dasharray:none;stroke-dashoffset:0;stroke-opacity:1;marker:none" transform="translate(525.3543368566309,0.0)"/>
	<path d="M 108.77651900821286,94.80041900821271 L 94.25058900821284,170.65951900821284" fill="none" id="path251" inkscape:connector-curvature="0" stroke-width="1" style="display:inline;opacity:1;vector-effect:none;fill:none;fill-opacity:1;stroke:#000000;stroke-width:1;stroke-linecap:round;stroke-linejoin:round;stroke-dasharray:none;stroke-dashoffset:0;stroke-opacity:1;marker:none" transform="translate(0.0,102.0472452886981)"/>
	<path d="M 79.72468900821286,94.80041900821271 L 49.31435900821282,9.448819008212752" fill="none" id="path252" inkscape:connector-curvature="0" stroke-width="1" style="display:inline;opacity:1;vector-effect:none;fill:none;fill-opacity:1;stroke:#000000;stroke-width:1;stroke-linecap:round;stroke-linejoin:round;stroke-dasharray:none;stroke-dashoffset:0;stroke-opacity:1;marker:none" transform="translate(0.0,102.0472452886981)"/>
	<path d="M 94.25058900821284,170.65959900821292 L 79.72468900821286,94.80045900821295 L 94.14707900821281,77.84785900821294 L 77.03613900821279,29.823199008212953 L 49.31435900821282,9.448899008212948 L 9.448819008212809,113.82366900821296 L 25.722009008212808,175.89790900821293 L 94.25058900821284,260.86726900821293 L 162.7791590082129,175.89780900821296 L 179.05235900821287,113.82376900821299 L 139.18691900821284,9.44899900821298 L 108.77651900821286,94.80045900821295 L 87.75189900821283,102.10559900821295 L 84.43768900821283,119.41336900821295 L 94.25058900821284,170.65959900821292" fill="none" id="path347" inkscape:connector-curvature="0" sodipodi:nodetypes="ccccccccccccccc" stroke-width="1" style="display:inline;opacity:1;vector-effect:none;fill:none;fill-opacity:1;stroke:#000000;stroke-width:1;stroke-linecap:round;stroke-linejoin:round;stroke-dasharray:none;stroke-dashoffset:0;stroke-opacity:1;marker:none" transform="translate(0.0,102.0472452886981)"/>
	<path d="M 15.495220008212783,28.883219008212905 L 69.3027210082128,84.77131900821303" fill="none" id="path138" inkscape:connector-curvature="0" stroke-width="1" style="display:inline;opacity:1;vector-effect:none;fill:none;fill-opacity:1;stroke:#000000;stroke-width:1;stroke-linecap:round;stroke-linejoin:round;stroke-dasharray:none;stroke-dashoffset:0;stroke-opacity:1;marker:none" transform="translate(922.2047352015679,79.3700796689874)"/>
	<path d="M 69.3027210082128,84.77131900821257 L 100.4651510082128,49.159919008212796" fill="none" id="path139" inkscape:connector-curvature="0" stroke-width="1" style="display:inline;opacity:1;vector-effect:none;fill:none;fill-opacity:1;stroke:#000000;stroke-width:1;stroke-linecap:round;stroke-linejoin:round;stroke-dasharray:none;stroke-dashoffset:0;stroke-opacity:1;marker:none" transform="translate(922.2047352015679,79.3700796689874)"/>
	<path d="M 100.4768710082128,27.96841900821289 L 53.70559100821281,29.544019008213013" fill="none" id="path140" inkscape:connector-curvature="0" stroke-width="1" style="display:inline;opacity:1;vector-effect:none;fill:none;fill-opacity:1;stroke:#000000;stroke-width:1;stroke-linecap:round;stroke-linejoin:round;stroke-dasharray:none;stroke-dashoffset:0;stroke-opacity:1;marker:none" transform="translate(922.2047352015679,79.3700796689874)"/>
	<path d="M 131.5881210082128,84.80581900821278 L 185.45748100821277,28.977419008212905" fill="none" id="path141" inkscape:connector-curvature="0" stroke-width="1" style="display:inline;opacity:1;vector-effect:none;fill:none;fill-opacity:1;stroke:#000000;stroke-width:1;stroke-linecap:round;stroke-linejoin:round;stroke-dasharray:none;stroke-dashoffset:0;stroke-opacity:1;marker:none" transform="translate(922.2047352015679,79.3700796689874)"/>
	<path d="M 100.4651510082128,49.159919008212796 L 131.5881210082128,84.80581900821278" fill="none" id="path142-9" inkscape:connector-curvature="0" stroke-width="1" style="display:inline;opacity:1;vector-effect:none;fill:none;fill-opacity:1;stroke:#000000;stroke-width:1;stroke-linecap:round;stroke-linejoin:round;stroke-dasharray:none;stroke-dashoffset:0;stroke-opacity:1;marker:none" transform="translate(922.2047352015679,79.3700796689874)"/>
	<path d="M 147.24643100821277,29.59571900821254 L 100.4768710082128,27.968419008212436" fill="none" id="path143" inkscape:connector-curvature="0" stroke-width="1" style="display:inline;opacity:1;vector-effect:none;fill:none;fill-opacity:1;stroke:#000000;stroke-width:1;stroke-linecap:round;stroke-linejoin:round;stroke-dasharray:none;stroke-dashoffset:0;stroke-opacity:1;marker:none" transform="translate(922.2047352015679,79.3700796689874)"/>
	<path d="M 100.44924100821278,77.87464900821283 L 110.17705100821279,89.01619900821282 L 131.5881210082128,84.8058790082128 L 152.7631710082128,90.07635900821282 L 191.48064100821279,49.95088900821281 L 185.45748100821277,28.977529008212798 L 147.24643100821277,29.595859008212813 L 136.9996610082128,10.330199008212787 L 112.03805100821278,9.461669008212766 L 100.47687100821277,27.96847900821274 L 88.93624100821278,9.448819008212752 L 63.97365100821277,10.289809008212728 L 53.705591008212764,29.54414900821274 L 15.495220008212769,28.88335900821272 L 9.448819008212766,49.85003900821272 L 48.121831008212766,90.0184090082127 L 69.30272100821277,84.77142900821269 L 90.70912100821276,89.0053290082127 L 100.44924100821275,77.87464900821271 L 100.46514100821274,49.16000900821274 L 100.44924100821278,77.87464900821283" fill="none" id="path326" inkscape:connector-curvature="0" sodipodi:nodetypes="ccccccccccccccccccccc" stroke-width="1" style="display:inline;opacity:1;vector-effect:none;fill:none;fill-opacity:1;stroke:#000000;stroke-width:1;stroke-linecap:round;stroke-linejoin:round;stroke-dasharray:none;stroke-dashoffset:0;stroke-opacity:1;marker:none" transform="translate(922.2047352015679,79.3700796689874)"/>
	<path d="M 207.8956190082124,107.78281900821264 L 171.6333190082123,30.172419008212614" fill="none" id="path30" inkscape:connector-curvature="0" stroke-width="1" style="display:inline;opacity:1;vector-effect:none;fill:none;fill-opacity:1;stroke:#000000;stroke-width:1;stroke-linecap:round;stroke-linejoin:round;stroke-dasharray:none;stroke-dashoffset:0;stroke-opacity:1;marker:none" transform="translate(895.7480419785721,328.818901485805)"/>
	<path d="M 171.63331900821254,30.172419008212614 L 140.47231900821248,41.44041900821264" fill="none" id="path31" inkscape:connector-curvature="0" stroke-width="1" style="display:inline;opacity:1;vector-effect:none;fill:none;fill-opacity:1;stroke:#000000;stroke-width:1;stroke-linecap:round;stroke-linejoin:round;stroke-dasharray:none;stroke-dashoffset:0;stroke-opacity:1;marker:none" transform="translate(895.7480419785721,328.818901485805)"/>
	<path d="M 140.47231900821248,41.44041900821264 L 108.66531900821246,41.630119008212546" fill="none" id="path32" inkscape:connector-curvature="0" stroke-width="1" style="display:inline;opacity:1;vector-effect:none;fill:none;fill-opacity:1;stroke:#000000;stroke-width:1;stroke-linecap:round;stroke-linejoin:round;stroke-dasharray:none;stroke-dashoffset:0;stroke-opacity:1;marker:none" transform="translate(895.7480419785721,328.818901485805)"/>
	<path d="M 77.60561900821244,40.53211900821259 L 46.6411190082124,30.14451900821257" fill="none" id="path33" inkscape:connector-curvature="0" stroke-width="1" style="display:inline;opacity:1;vector-effect:none;fill:none;fill-opacity:1;stroke:#000000;stroke-width:1;stroke-linecap:round;stroke-linejoin:round;stroke-dasharray:none;stroke-dashoffset:0;stroke-opacity:1;marker:none" transform="translate(895.7480419785721,328.818901485805)"/>
	<path d="M 108.66531900821246,41.630119008213 L 77.60561900821244,40.532119008213044" fill="none" id="path34" inkscape:connector-curvature="0" stroke-width="1" style="display:inline;opacity:1;vector-effect:none;fill:none;fill-opacity:1;stroke:#000000;stroke-width:1;stroke-linecap:round;stroke-linejoin:round;stroke-dasharray:none;stroke-dashoffset:0;stroke-opacity:1;marker:none" transform="translate(895.7480419785721,328.818901485805)"/>
	<path d="M 57.53761900821246,127.30921900821284 L 108.76091900821257,135.41961900821286 L 160.26771900821245,128.95581900821287 L 207.8956190082124,107.7828190082131 L 220.3980190082125,89.89851900821293 L 193.37281900821245,32.057719008212985 L 171.63331900821254,30.17241900821307 L 153.69671900821254,9.86121900821297 L 138.55641900821252,14.958819008213027 L 140.47231900821248,41.4404190082131 L 133.44931900821257,16.108119008213066 L 113.21291900821257,16.41811900821301 L 108.66531900821246,41.6305190082129 L 103.17921900821239,16.859219008213017 L 87.92701900821248,15.782319008212994 L 77.60561900821244,40.532719008212894 L 79.77191900821254,13.896319008213027 L 61.74541900821259,9.448819008212809 L 46.64111900821263,30.145119008212873 L 9.448819008212695,107.31421900821294 L 57.53761900821246,127.30921900821284" fill="none" id="path307" inkscape:connector-curvature="0" sodipodi:nodetypes="ccccccccccccccccccccc" stroke-width="1" style="display:inline;opacity:1;vector-effect:none;fill:none;fill-opacity:1;stroke:#000000;stroke-width:1;stroke-linecap:round;stroke-linejoin:round;stroke-dasharray:none;stroke-dashoffset:0;stroke-opacity:1;marker:none" transform="translate(895.7480419785721,328.818901485805)"/>
	<path d="M 20.93891900821268,99.51071900821262 L 22.063319008212602,103.15031900821259 L 185.6787190082125,48.199719008212696 L 184.9292190082126,45.77331900821264 L 184.1480190082127,43.35671900821262 L 183.3352190082128,40.95081900821265 L 182.5040190082127,38.55091900821276 L 181.6766190082128,36.14981900821272 L 180.8799190082127,33.738519008212734 L 180.13691900821277,31.31001900821275 L 179.4615190082127,28.862119008212858 L 178.85441900821274,26.395919008212786 L 178.3025190082128,23.91701900821272 L 177.78321900821288,21.431119008212818 L 177.26891900821283,18.944219008212713 L 168.25481900821273,9.448819008212695 L 13.164919008212792,46.71301900821277 L 9.448819008212695,59.26731900821278 L 10.220119008212805,62.99761900821284 L 10.999319008212751,66.72651900821279 L 11.826819008212851,70.44481900821279 L 12.737419008212783,74.14401900821281 L 13.750719008212855,77.81611900821281 L 14.865219008212762,81.4588190082128 L 16.060319008212673,85.07581900821276 L 17.30091900821276,88.67751900821281 L 18.548019008212805,92.27691900821276 L 19.767219008212805,95.88611900821275 L 20.93891900821268,99.51071900821262" fill="none" id="path316" inkscape:connector-curvature="0" stroke-width="1" style="display:inline;opacity:1;vector-effect:none;fill:none;fill-opacity:1;stroke:#000000;stroke-width:1;stroke-linecap:round;stroke-linejoin:round;stroke-dasharray:none;stroke-dashoffset:0;stroke-opacity:1;marker:none" transform="translate(30.236220826280917,684.0944961946058)"/>
	<path d="M 53.02579900821286,29.432619008212782 L 39.9684990082128,12.826319008212863" fill="none" id="path41" inkscape:connector-curvature="0" stroke-width="1" style="display:inline;opacity:1;vector-effect:none;fill:none;fill-opacity:1;stroke:#000000;stroke-width:1;stroke-linecap:round;stroke-linejoin:round;stroke-dasharray:none;stroke-dashoffset:0;stroke-opacity:1;marker:none" transform="translate(506.4566988402054,192.75590776754083)"/>
	<path d="M 77.65879900821278,234.88211900821295 L 70.36219900821288,130.61831900821278" fill="none" id="path42" inkscape:connector-curvature="0" stroke-width="1" style="display:inline;opacity:1;vector-effect:none;fill:none;fill-opacity:1;stroke:#000000;stroke-width:1;stroke-linecap:round;stroke-linejoin:round;stroke-dasharray:none;stroke-dashoffset:0;stroke-opacity:1;marker:none" transform="translate(506.4566988402054,192.75590776754083)"/>
	<path d="M 28.07171900821288,76.51101900821266 L 29.262719008212912,124.81201900821259" fill="none" id="path43" inkscape:connector-curvature="0" stroke-width="1" style="display:inline;opacity:1;vector-effect:none;fill:none;fill-opacity:1;stroke:#000000;stroke-width:1;stroke-linecap:round;stroke-linejoin:round;stroke-dasharray:none;stroke-dashoffset:0;stroke-opacity:1;marker:none" transform="translate(506.4566988402054,192.75590776754083)"/>
	<path d="M 111.6849990082128,15.749519008212587 L 103.64329900821281,19.490619008212775" fill="none" id="path45" inkscape:connector-curvature="0" stroke-width="1" style="display:inline;opacity:1;vector-effect:none;fill:none;fill-opacity:1;stroke:#000000;stroke-width:1;stroke-linecap:round;stroke-linejoin:round;stroke-dasharray:none;stroke-dashoffset:0;stroke-opacity:1;marker:none" transform="translate(506.4566988402054,192.75590776754083)"/>
	<path d="M 70.36219900821288,130.61831900821278 L 53.02579900821286,29.432619008212782 L 61.35259900821279,9.448819008212809 L 39.9684990082128,12.826319008212863 L 28.071719008212767,76.51101900821266 L 9.448819008212809,87.88411900821245 L 10.101919008212803,114.37061900821243 L 29.262719008212798,124.81201900821259 L 35.91729900821281,242.0058190082126 L 77.65879900821278,234.8821190082125 L 95.74859900821275,222.67891900821257 L 89.97539900821266,140.18291900821248 L 70.36219900821288,130.61831900821278" fill="none" id="path309" inkscape:connector-curvature="0" stroke-width="1" style="display:inline;opacity:1;vector-effect:none;fill:none;fill-opacity:1;stroke:#000000;stroke-width:1;stroke-linecap:round;stroke-linejoin:round;stroke-dasharray:none;stroke-dashoffset:0;stroke-opacity:1;marker:none" transform="translate(506.4566988402054,192.75590776754083)"/>
	<path d="M 28.237479008212773,28.321319008213663 L 28.635499008212747,68.4741190082135" fill="none" id="path226" inkscape:connector-curvature="0" stroke-width="1" style="display:inline;opacity:1;vector-effect:none;fill:none;fill-opacity:1;stroke:#000000;stroke-width:1;stroke-linecap:round;stroke-linejoin:round;stroke-dasharray:none;stroke-dashoffset:0;stroke-opacity:1;marker:none" transform="translate(438.4252019810733,0.0)"/>
	<path d="M 60.22593900821275,28.39881900821399 L 28.237479008212773,28.321819008213765" fill="none" id="path228" inkscape:connector-curvature="0" stroke-width="1" style="display:inline;opacity:1;vector-effect:none;fill:none;fill-opacity:1;stroke:#000000;stroke-width:1;stroke-linecap:round;stroke-linejoin:round;stroke-dasharray:none;stroke-dashoffset:0;stroke-opacity:1;marker:none" transform="translate(438.4252019810733,0.0)"/>
	<path d="M 108.04092900821277,31.152619008213946 L 86.8466190082128,30.365519008213937" fill="none" id="path230" inkscape:connector-curvature="0" stroke-width="1" style="display:inline;opacity:1;vector-effect:none;fill:none;fill-opacity:1;stroke:#000000;stroke-width:1;stroke-linecap:round;stroke-linejoin:round;stroke-dasharray:none;stroke-dashoffset:0;stroke-opacity:1;marker:none" transform="translate(438.4252019810733,0.0)"/>
	<path d="M 162.63068900821278,36.19331900821396 L 130.4560590082128,33.40991900821416" fill="none" id="path232" inkscape:connector-curvature="0" stroke-width="1" style="display:inline;opacity:1;vector-effect:none;fill:none;fill-opacity:1;stroke:#000000;stroke-width:1;stroke-linecap:round;stroke-linejoin:round;stroke-dasharray:none;stroke-dashoffset:0;stroke-opacity:1;marker:none" transform="translate(438.4252019810733,0.0)"/>
	<path d="M 217.22043900821276,31.152619008213946 L 194.80534900821274,33.40991900821416" fill="none" id="path233" inkscape:connector-curvature="0" stroke-width="1" style="display:inline;opacity:1;vector-effect:none;fill:none;fill-opacity:1;stroke:#000000;stroke-width:1;stroke-linecap:round;stroke-linejoin:round;stroke-dasharray:none;stroke-dashoffset:0;stroke-opacity:1;marker:none" transform="translate(438.4252019810733,0.0)"/>
	<path d="M 264.73563900821273,28.17631900821368 L 238.12141900821277,36.072819008213514" fill="none" id="path235" inkscape:connector-curvature="0" stroke-width="1" style="display:inline;opacity:1;vector-effect:none;fill:none;fill-opacity:1;stroke:#000000;stroke-width:1;stroke-linecap:round;stroke-linejoin:round;stroke-dasharray:none;stroke-dashoffset:0;stroke-opacity:1;marker:none" transform="translate(438.4252019810733,0.0)"/>
	<path d="M 296.6246490082127,68.01451900821382 L 296.7225490082127,27.85991900821398 L 264.73553900821275,28.176219008213934 L 248.90029900821273,13.162719008213912 L 243.2057590082127,14.852319008214067 L 238.12131900821274,36.07281900821397 L 217.22033900821273,31.152619008213946 L 204.47119900821272,13.44321900821376 L 203.7673790082127,13.514219008213672 L 194.8052490082127,33.41001900821345 L 162.63057900821272,36.19331900821351 L 153.3892990082127,16.425719008213377 L 142.9545890082127,15.523019008213282 L 130.45595900821272,33.41001900821345 L 108.04082900821274,31.15271900821324 L 98.14503900821276,11.874519008213042 L 86.84651900821277,30.365519008213028 L 60.22582900821274,28.39891900821283 L 49.36108900821276,9.474819008212648 L 39.193669008212765,9.448819008212809 L 28.23737900821274,28.320019008212853 L 9.448819008212752,39.41731900821276 L 9.630609008212758,57.75011900821289 L 28.635439008212785,68.4728190082127 L 55.34426900821276,67.09011900821258 L 90.14215900821276,68.40631900821279 L 112.95942900821277,71.19101900821295 L 136.18930900821275,77.1957190082129 L 162.63061900821273,80.93601900821284 L 189.07196900821273,77.1957190082129 L 212.3018490082127,71.19101900821295 L 235.11911900821272,68.40651900821274 L 269.90615900821274,66.83031900821277 L 296.6246490082127,68.01451900821382" fill="none" id="path343" inkscape:connector-curvature="0" sodipodi:nodetypes="cccccccccccccccccccccccccccccccccc" stroke-width="1" style="display:inline;opacity:1;vector-effect:none;fill:none;fill-opacity:1;stroke:#000000;stroke-width:1;stroke-linecap:round;stroke-linejoin:round;stroke-dasharray:none;stroke-dashoffset:0;stroke-opacity:1;marker:none" transform="translate(438.4252019810733,0.0)"/>
	<path d="M 38.30829900821277,22.29321900821185 L 17.18550900821276,31.671519008211703" fill="none" id="path117" inkscape:connector-curvature="0" stroke-width="1" style="display:inline;opacity:1;vector-effect:none;fill:none;fill-opacity:1;stroke:#000000;stroke-width:1;stroke-linecap:round;stroke-linejoin:round;stroke-dasharray:none;stroke-dashoffset:0;stroke-opacity:1;marker:none" transform="translate(1024.251980490266,650.0787477650397)"/>
	<path d="M 17.18550900821276,31.671519008211703 L 26.568829008212788,52.866019008211765" fill="none" id="path118" inkscape:connector-curvature="0" stroke-width="1" style="display:inline;opacity:1;vector-effect:none;fill:none;fill-opacity:1;stroke:#000000;stroke-width:1;stroke-linecap:round;stroke-linejoin:round;stroke-dasharray:none;stroke-dashoffset:0;stroke-opacity:1;marker:none" transform="translate(1024.251980490266,650.0787477650397)"/>
	<path d="M 50.730439008212784,40.68791900821168 L 38.30829900821277,22.29321900821185" fill="none" id="path119" inkscape:connector-curvature="0" stroke-width="1" style="display:inline;opacity:1;vector-effect:none;fill:none;fill-opacity:1;stroke:#000000;stroke-width:1;stroke-linecap:round;stroke-linejoin:round;stroke-dasharray:none;stroke-dashoffset:0;stroke-opacity:1;marker:none" transform="translate(1024.251980490266,650.0787477650397)"/>
	<path d="M 54.537289008212724,58.16641900821185 L 50.73043900821267,40.68791900821168" fill="none" id="path120" inkscape:connector-curvature="0" stroke-width="1" style="display:inline;opacity:1;vector-effect:none;fill:none;fill-opacity:1;stroke:#000000;stroke-width:1;stroke-linecap:round;stroke-linejoin:round;stroke-dasharray:none;stroke-dashoffset:0;stroke-opacity:1;marker:none" transform="translate(1024.251980490266,650.0787477650397)"/>
	<path d="M 26.568829008212788,52.866019008211765 L 33.38312900821279,67.81151900821158" fill="none" id="path121" inkscape:connector-curvature="0" stroke-width="1" style="display:inline;opacity:1;vector-effect:none;fill:none;fill-opacity:1;stroke:#000000;stroke-width:1;stroke-linecap:round;stroke-linejoin:round;stroke-dasharray:none;stroke-dashoffset:0;stroke-opacity:1;marker:none" transform="translate(1024.251980490266,650.0787477650397)"/>
	<path d="M 33.38312900821279,67.81151900821158 L 41.19544900821279,84.94631900821139" fill="none" id="path122" inkscape:connector-curvature="0" stroke-width="1" style="display:inline;opacity:1;vector-effect:none;fill:none;fill-opacity:1;stroke:#000000;stroke-width:1;stroke-linecap:round;stroke-linejoin:round;stroke-dasharray:none;stroke-dashoffset:0;stroke-opacity:1;marker:none" transform="translate(1024.251980490266,650.0787477650397)"/>
	<path d="M 62.349609008212724,75.30121900821166 L 54.537289008212724,58.16641900821185" fill="none" id="path123" inkscape:connector-curvature="0" stroke-width="1" style="display:inline;opacity:1;vector-effect:none;fill:none;fill-opacity:1;stroke:#000000;stroke-width:1;stroke-linecap:round;stroke-linejoin:round;stroke-dasharray:none;stroke-dashoffset:0;stroke-opacity:1;marker:none" transform="translate(1024.251980490266,650.0787477650397)"/>
	<path d="M 47.51333900821271,98.84981900821174 L 60.02089900821272,125.28541900821153" fill="none" id="path124" inkscape:connector-curvature="0" stroke-width="1" style="display:inline;opacity:1;vector-effect:none;fill:none;fill-opacity:1;stroke:#000000;stroke-width:1;stroke-linecap:round;stroke-linejoin:round;stroke-dasharray:none;stroke-dashoffset:0;stroke-opacity:1;marker:none" transform="translate(1024.251980490266,650.0787477650397)"/>
	<path d="M 60.02089900821272,125.28541900821153 L 81.01934900821277,115.35701900821175" fill="none" id="path125" inkscape:connector-curvature="0" stroke-width="1" style="display:inline;opacity:1;vector-effect:none;fill:none;fill-opacity:1;stroke:#000000;stroke-width:1;stroke-linecap:round;stroke-linejoin:round;stroke-dasharray:none;stroke-dashoffset:0;stroke-opacity:1;marker:none" transform="translate(1024.251980490266,650.0787477650397)"/>
	<path d="M 81.01934900821277,115.35701900821175 L 72.48592900821279,88.43561900821157" fill="none" id="path126" inkscape:connector-curvature="0" stroke-width="1" style="display:inline;opacity:1;vector-effect:none;fill:none;fill-opacity:1;stroke:#000000;stroke-width:1;stroke-linecap:round;stroke-linejoin:round;stroke-dasharray:none;stroke-dashoffset:0;stroke-opacity:1;marker:none" transform="translate(1024.251980490266,650.0787477650397)"/>
	<path d="M 72.48592900821279,88.43561900821157 L 62.34960900821284,75.30121900821166" fill="none" id="path127" inkscape:connector-curvature="0" stroke-width="1" style="display:inline;opacity:1;vector-effect:none;fill:none;fill-opacity:1;stroke:#000000;stroke-width:1;stroke-linecap:round;stroke-linejoin:round;stroke-dasharray:none;stroke-dashoffset:0;stroke-opacity:1;marker:none" transform="translate(1024.251980490266,650.0787477650397)"/>
	<path d="M 41.19544900821279,84.94631900821184 L 47.513339008212824,98.84981900821174" fill="none" id="path128" inkscape:connector-curvature="0" stroke-width="1" style="display:inline;opacity:1;vector-effect:none;fill:none;fill-opacity:1;stroke:#000000;stroke-width:1;stroke-linecap:round;stroke-linejoin:round;stroke-dasharray:none;stroke-dashoffset:0;stroke-opacity:1;marker:none" transform="translate(1024.251980490266,650.0787477650397)"/>
	<path d="M 32.45303900821273,96.18071900821212 L 47.51333900821271,98.84991900821194 L 40.40070900821274,113.25891900821205 L 43.57580900821279,119.96971900821188 L 60.02089900821284,125.28551900821174 L 77.96219900821279,137.70611900821166 L 79.23343900821283,137.1050190082118 L 81.01934900821277,115.35711900821195 L 90.25689900821283,101.01431900821206 L 88.31689900821277,94.89401900821201 L 72.48592900821279,88.43571900821223 L 79.90343900821279,73.68161900821212 L 62.34960900821284,75.30131900821232 L 71.3955990082128,60.485319008212514 L 54.53728900821284,58.166519008212504 L 66.85597900821278,46.99661900821263 L 50.730439008212784,40.68801900821279 L 56.04274900821281,24.78241900821274 L 55.832609008212785,24.471319008212845 L 38.30811900821277,22.29321900821276 L 20.66769900821282,9.448819008212809 L 19.488679008212785,9.972319008212594 L 17.185319008212787,31.671519008212613 L 9.448819008212809,47.88411900821245 L 9.9983990082128,49.125519008212336 L 26.568639008212813,52.86601900821222 L 17.90762900821278,65.88051900821245 L 33.382939008212816,67.81161900821223 L 25.22082900821283,81.92051900821241 L 41.195259008212815,84.9464190082125 L 32.45303900821273,96.18071900821212" fill="none" id="path319" inkscape:connector-curvature="0" sodipodi:nodetypes="ccccccccccccccccccccccccccccccc" stroke-width="1" style="display:inline;opacity:1;vector-effect:none;fill:none;fill-opacity:1;stroke:#000000;stroke-width:1;stroke-linecap:round;stroke-linejoin:round;stroke-dasharray:none;stroke-dashoffset:0;stroke-opacity:1;marker:none" transform="translate(1024.251980490266,650.0787477650397)"/>
	<path d="M 65.50579900821288,36.965819008212634 L 32.29247900821292,34.94411900821285" fill="none" id="path54" inkscape:connector-curvature="0" stroke-width="1" style="display:inline;opacity:1;vector-effect:none;fill:none;fill-opacity:1;stroke:#000000;stroke-width:1;stroke-linecap:round;stroke-linejoin:round;stroke-dasharray:none;stroke-dashoffset:0;stroke-opacity:1;marker:none" transform="translate(793.7007966898741,532.9133920632012)"/>
	<path d="M 95.47922900821288,51.542019008212606 L 65.50579900821288,36.965819008212634" fill="none" id="path55" inkscape:connector-curvature="0" stroke-width="1" style="display:inline;opacity:1;vector-effect:none;fill:none;fill-opacity:1;stroke:#000000;stroke-width:1;stroke-linecap:round;stroke-linejoin:round;stroke-dasharray:none;stroke-dashoffset:0;stroke-opacity:1;marker:none" transform="translate(793.7007966898741,532.9133920632012)"/>
	<path d="M 125.59940900821289,60.354719008212555 L 95.47922900821288,51.542019008212606" fill="none" id="path56" inkscape:connector-curvature="0" stroke-width="1" style="display:inline;opacity:1;vector-effect:none;fill:none;fill-opacity:1;stroke:#000000;stroke-width:1;stroke-linecap:round;stroke-linejoin:round;stroke-dasharray:none;stroke-dashoffset:0;stroke-opacity:1;marker:none" transform="translate(793.7007966898741,532.9133920632012)"/>
	<path d="M 140.46398900821282,33.82161900821245 L 125.59940900821277,60.354719008212555" fill="none" id="path57" inkscape:connector-curvature="0" stroke-width="1" style="display:inline;opacity:1;vector-effect:none;fill:none;fill-opacity:1;stroke:#000000;stroke-width:1;stroke-linecap:round;stroke-linejoin:round;stroke-dasharray:none;stroke-dashoffset:0;stroke-opacity:1;marker:none" transform="translate(793.7007966898741,532.9133920632012)"/>
	<path d="M 188.04088900821284,95.65071900821238 L 140.46398900821282,33.82161900821245" fill="none" id="path58" inkscape:connector-curvature="0" stroke-width="1" style="display:inline;opacity:1;vector-effect:none;fill:none;fill-opacity:1;stroke:#000000;stroke-width:1;stroke-linecap:round;stroke-linejoin:round;stroke-dasharray:none;stroke-dashoffset:0;stroke-opacity:1;marker:none" transform="translate(793.7007966898741,532.9133920632012)"/>
	<path d="M 125.59940900821289,60.354719008212555 L 116.15183900821285,30.214519008212733 L 109.40126900821281,27.629719008212646 L 95.47922900821277,51.542019008212606 L 101.71005900821274,24.560919008212636 L 76.95308900821271,13.517419008212414 L 65.50579900821276,36.965819008212634 L 66.54694900821278,11.518219008212668 L 43.489789008212824,9.448819008212809 L 32.29247900821281,34.94411900821285 L 9.448819008212809,109.54011900821286 L 45.454339008212855,120.12441900821284 L 101.76608900821282,127.0068190082128 L 139.02628900821287,124.53241900821274 L 188.04088900821284,95.65071900821283 L 196.3640890082129,75.47921900821291 L 162.0945890082129,30.9439190082129 L 140.46398900821293,33.821619008212906 L 119.70539900821291,26.32581900821276 L 116.15183900821296,30.214519008212733 L 125.59940900821289,60.354719008212555" fill="none" id="path313" inkscape:connector-curvature="0" sodipodi:nodetypes="ccccccccccccccccccccc" stroke-width="1" style="display:inline;opacity:1;vector-effect:none;fill:none;fill-opacity:1;stroke:#000000;stroke-width:1;stroke-linecap:round;stroke-linejoin:round;stroke-dasharray:none;stroke-dashoffset:0;stroke-opacity:1;marker:none" transform="translate(793.7007966898741,532.9133920632012)"/>
	<path d="M 174.9481490082128,47.58771900821364 L 139.77342900821282,32.09771900821386" fill="none" id="path107" inkscape:connector-curvature="0" stroke-width="1" style="display:inline;opacity:1;vector-effect:none;fill:none;fill-opacity:1;stroke:#000000;stroke-width:1;stroke-linecap:round;stroke-linejoin:round;stroke-dasharray:none;stroke-dashoffset:0;stroke-opacity:1;marker:none" transform="translate(597.1653613190481,396.85039834493705)"/>
	<path d="M 146.0736390082128,120.95051900821352 L 174.9481490082128,47.58771900821364" fill="none" id="path108" inkscape:connector-curvature="0" stroke-width="1" style="display:inline;opacity:1;vector-effect:none;fill:none;fill-opacity:1;stroke:#000000;stroke-width:1;stroke-linecap:round;stroke-linejoin:round;stroke-dasharray:none;stroke-dashoffset:0;stroke-opacity:1;marker:none" transform="translate(597.1653613190481,396.85039834493705)"/>
	<path d="M 121.25397900821281,26.870419008213844 L 96.24967900821287,29.950919008213873" fill="none" id="path110" inkscape:connector-curvature="0" stroke-width="1" style="display:inline;opacity:1;vector-effect:none;fill:none;fill-opacity:1;stroke:#000000;stroke-width:1;stroke-linecap:round;stroke-linejoin:round;stroke-dasharray:none;stroke-dashoffset:0;stroke-opacity:1;marker:none" transform="translate(597.1653613190481,396.85039834493705)"/>
	<path d="M 57.43479900821285,42.207319008214085 L 9.448819008212809,38.86601900821404 L 41.543099008212835,110.87841900821411 L 51.51458900821285,131.03441900821406 L 62.07072900821288,130.85981900821423 L 65.34198900821286,108.85621900821423 L 70.04745900821285,130.5217190082143 L 92.41291900821284,132.20131900821423 L 96.24967900821287,114.60431900821402 L 99.06206900821292,132.71871900821395 L 117.17529900821296,134.9322190082138 L 124.63060900821301,116.5938190082137 L 123.57328900821301,136.4148190082136 L 134.89271900821302,138.5959190082134 L 146.07363900821304,120.95081900821322 L 167.65418900821305,117.71931900821335 L 188.536949008213,64.6615190082133 L 174.94814900821302,47.587919008213134 L 172.57913900821302,25.895819008212925 L 157.37488900821302,19.200319008213114 L 139.77342900821304,32.0980190082131 L 121.25397900821304,26.870619008212884 L 108.11459900821308,9.448819008212809 L 104.76767900821312,9.86121900821297 L 96.24967900821309,29.951119008212913 L 57.43479900821285,42.207319008214085" fill="none" id="path317" inkscape:connector-curvature="0" sodipodi:nodetypes="cccccccccccccccccccccccccc" stroke-width="1" style="display:inline;opacity:1;vector-effect:none;fill:none;fill-opacity:1;stroke:#000000;stroke-width:1;stroke-linecap:round;stroke-linejoin:round;stroke-dasharray:none;stroke-dashoffset:0;stroke-opacity:1;marker:none" transform="translate(597.1653613190481,396.85039834493705)"/>
	<path d="M 22.236519008212554,75.56331900821249 L 20.278819008212622,102.2875190082126" fill="none" id="path1-8" inkscape:connector-curvature="0" stroke-width="1" style="display:inline;opacity:1;vector-effect:none;fill:none;fill-opacity:1;stroke:#000000;stroke-width:1;stroke-linecap:round;stroke-linejoin:round;stroke-dasharray:none;stroke-dashoffset:0;stroke-opacity:1;marker:none" transform="translate(241.88976661024734,3.7795276032851146)"/>
	<path d="M 69.93071900821246,9.51471900821241 L 22.236519008212554,75.56331900821249" fill="none" id="path2-7" inkscape:connector-curvature="0" stroke-width="1" style="display:inline;opacity:1;vector-effect:none;fill:none;fill-opacity:1;stroke:#000000;stroke-width:1;stroke-linecap:round;stroke-linejoin:round;stroke-dasharray:none;stroke-dashoffset:0;stroke-opacity:1;marker:none" transform="translate(241.88976661024734,3.7795276032851146)"/>
	<path d="M 20.278819008212622,102.2875190082126 L 31.19961900821272,139.15741900821274" fill="none" id="path3-7" inkscape:connector-curvature="0" stroke-width="1" style="display:inline;opacity:1;vector-effect:none;fill:none;fill-opacity:1;stroke:#000000;stroke-width:1;stroke-linecap:round;stroke-linejoin:round;stroke-dasharray:none;stroke-dashoffset:0;stroke-opacity:1;marker:none" transform="translate(241.88976661024734,3.7795276032851146)"/>
	<path d="M 133.3980190082125,101.68911900821274 L 131.15771900821255,74.98721900821272" fill="none" id="path4-6" inkscape:connector-curvature="0" stroke-width="1" style="display:inline;opacity:1;vector-effect:none;fill:none;fill-opacity:1;stroke:#000000;stroke-width:1;stroke-linecap:round;stroke-linejoin:round;stroke-dasharray:none;stroke-dashoffset:0;stroke-opacity:1;marker:none" transform="translate(241.88976661024734,3.7795276032851146)"/>
	<path d="M 131.15771900821255,74.98721900821272 L 83.07241900821259,9.448819008212809" fill="none" id="path5-3" inkscape:connector-curvature="0" stroke-width="1" style="display:inline;opacity:1;vector-effect:none;fill:none;fill-opacity:1;stroke:#000000;stroke-width:1;stroke-linecap:round;stroke-linejoin:round;stroke-dasharray:none;stroke-dashoffset:0;stroke-opacity:1;marker:none" transform="translate(241.88976661024734,3.7795276032851146)"/>
	<path d="M 123.1240190082126,138.59081900821263 L 133.3980190082125,101.68911900821274" fill="none" id="path6-5" inkscape:connector-curvature="0" stroke-width="1" style="display:inline;opacity:1;vector-effect:none;fill:none;fill-opacity:1;stroke:#000000;stroke-width:1;stroke-linecap:round;stroke-linejoin:round;stroke-dasharray:none;stroke-dashoffset:0;stroke-opacity:1;marker:none" transform="translate(241.88976661024734,3.7795276032851146)"/>
	<path d="M 83.07241900821259,9.448819008212809 L 76.7956190082125,68.13851900821271" fill="none" id="path7-2" inkscape:connector-curvature="0" stroke-width="1" style="display:inline;opacity:1;vector-effect:none;fill:none;fill-opacity:1;stroke:#000000;stroke-width:1;stroke-linecap:round;stroke-linejoin:round;stroke-dasharray:none;stroke-dashoffset:0;stroke-opacity:1;marker:none" transform="translate(241.88976661024734,3.7795276032851146)"/>
	<path d="M 76.7956190082125,68.13851900821271 L 69.93071900821246,9.514719008212865 L 46.915819008212566,22.01851900821282 L 16.87641900821245,63.61811900821283 L 22.236519008212554,75.56331900821294 L 10.450019008212621,81.26371900821312 L 9.448819008212695,94.93021900821293 L 20.278819008212622,102.28751900821305 L 11.266319008212577,111.78441900821315 L 31.199619008212494,139.1574190082132 L 49.02851900821247,108.68381900821339 L 76.7956190082125,93.89231900821358 L 104.71761900821252,108.38931900821342 L 123.1240190082126,138.59081900821354 L 142.56531900821255,111.03681900821346 L 133.3980190082125,101.68911900821365 L 144.14961900821254,94.21771900821375 L 143.0039190082125,80.5626190082138 L 131.15771900821255,74.98721900821363 L 136.42711900821246,63.001719008213854 L 105.42541900821243,20.747619008213746 L 83.07241900821236,9.448819008213718 L 70.57151900821236,14.987219008213629 L 76.7956190082125,68.13851900821271" fill="none" id="path299-3" inkscape:connector-curvature="0" sodipodi:nodetypes="cccccccccccccccccccccccc" stroke-width="1" style="display:inline;opacity:1;vector-effect:none;fill:none;fill-opacity:1;stroke:#000000;stroke-width:1;stroke-linecap:round;stroke-linejoin:round;stroke-dasharray:none;stroke-dashoffset:0;stroke-opacity:1;marker:none" transform="translate(241.88976661024734,3.7795276032851146)"/>
	<path d="M 136.03651900821274,99.07891900821306 L 146.2944190082128,79.64181900821296" fill="none" id="path35" inkscape:connector-curvature="0" stroke-width="1" style="display:inline;opacity:1;vector-effect:none;fill:none;fill-opacity:1;stroke:#000000;stroke-width:1;stroke-linecap:round;stroke-linejoin:round;stroke-dasharray:none;stroke-dashoffset:0;stroke-opacity:1;marker:none" transform="translate(729.4488274340271,283.4645702463836)"/>
	<path d="M 146.2944190082128,79.64181900821296 L 103.66281900821286,30.85851900821291" fill="none" id="path36" inkscape:connector-curvature="0" stroke-width="1" style="display:inline;opacity:1;vector-effect:none;fill:none;fill-opacity:1;stroke:#000000;stroke-width:1;stroke-linecap:round;stroke-linejoin:round;stroke-dasharray:none;stroke-dashoffset:0;stroke-opacity:1;marker:none" transform="translate(729.4488274340271,283.4645702463836)"/>
	<path d="M 103.66281900821264,30.858519008213364 L 78.08471900821269,26.754319008213145" fill="none" id="path37" inkscape:connector-curvature="0" stroke-width="1" style="display:inline;opacity:1;vector-effect:none;fill:none;fill-opacity:1;stroke:#000000;stroke-width:1;stroke-linecap:round;stroke-linejoin:round;stroke-dasharray:none;stroke-dashoffset:0;stroke-opacity:1;marker:none" transform="translate(729.4488274340271,283.4645702463836)"/>
	<path d="M 78.08471900821269,26.754319008213145 L 54.777619008212696,29.834219008213324" fill="none" id="path39" inkscape:connector-curvature="0" stroke-width="1" style="display:inline;opacity:1;vector-effect:none;fill:none;fill-opacity:1;stroke:#000000;stroke-width:1;stroke-linecap:round;stroke-linejoin:round;stroke-dasharray:none;stroke-dashoffset:0;stroke-opacity:1;marker:none" transform="translate(729.4488274340271,283.4645702463836)"/>
	<path d="M 54.777619008212696,29.834219008213324 L 24.213119008212743,79.18811900821339" fill="none" id="path40" inkscape:connector-curvature="0" stroke-width="1" style="display:inline;opacity:1;vector-effect:none;fill:none;fill-opacity:1;stroke:#000000;stroke-width:1;stroke-linecap:round;stroke-linejoin:round;stroke-dasharray:none;stroke-dashoffset:0;stroke-opacity:1;marker:none" transform="translate(729.4488274340271,283.4645702463836)"/>
	<path d="M 9.448819008212695,95.46811900821314 L 41.63731900821267,89.93611900821298 L 72.16871900821275,95.74511900821318 L 103.13511900821277,103.01191900821306 L 136.03651900821274,99.07891900821306 L 157.8419190082127,98.24991900821288 L 157.9149190082128,98.11121900821291 L 146.29431900821282,79.64171900821276 L 153.34451900821273,58.99091900821287 L 125.07191900821272,26.638619008212856 L 103.66271900821266,30.858419008212707 L 95.88391900821262,10.470919008212888 L 91.85131900821261,9.823819008212752 L 78.08451900821251,26.754219008212942 L 64.79241900821262,9.448819008212752 L 63.118319008212666,9.669919008212958 L 54.777419008212746,29.83401900821292 L 32.96671900821275,29.160119008213144 L 13.891219008212829,59.962419008212976 L 24.21301900821277,79.18791900821299 L 9.448819008212695,95.46811900821314" fill="none" id="path308" inkscape:connector-curvature="0" stroke-width="1" style="display:inline;opacity:1;vector-effect:none;fill:none;fill-opacity:1;stroke:#000000;stroke-width:1;stroke-linecap:round;stroke-linejoin:round;stroke-dasharray:none;stroke-dashoffset:0;stroke-opacity:1;marker:none" transform="translate(729.4488274340271,283.4645702463836)"/>
	<path d="M 59.77321900821272,29.94051900821262 L 23.59678900821274,42.91991900821267" fill="none" id="path222" inkscape:connector-curvature="0" stroke-width="1" style="display:inline;opacity:1;vector-effect:none;fill:none;fill-opacity:1;stroke:#000000;stroke-width:1;stroke-linecap:round;stroke-linejoin:round;stroke-dasharray:none;stroke-dashoffset:0;stroke-opacity:1;marker:none" transform="translate(257.0078770233878,139.84252132154924)"/>
	<path d="M 23.59678900821274,42.91991900821267 L 50.205689008212744,117.72151900821268" fill="none" id="path223" inkscape:connector-curvature="0" stroke-width="1" style="display:inline;opacity:1;vector-effect:none;fill:none;fill-opacity:1;stroke:#000000;stroke-width:1;stroke-linecap:round;stroke-linejoin:round;stroke-dasharray:none;stroke-dashoffset:0;stroke-opacity:1;marker:none" transform="translate(257.0078770233878,139.84252132154924)"/>
	<path d="M 103.08213900821272,31.011319008212695 L 78.4980090082127,25.50441900821272" fill="none" id="path224" inkscape:connector-curvature="0" stroke-width="1" style="display:inline;opacity:1;vector-effect:none;fill:none;fill-opacity:1;stroke:#000000;stroke-width:1;stroke-linecap:round;stroke-linejoin:round;stroke-dasharray:none;stroke-dashoffset:0;stroke-opacity:1;marker:none" transform="translate(257.0078770233878,139.84252132154924)"/>
	<path d="M 78.4980090082127,25.504519008212696 L 59.77321900821272,29.940619008212707 L 43.12182900821273,15.837619008212755 L 27.484579008212734,21.448019008212782 L 23.59678900821274,42.92001900821276 L 9.448819008212752,59.53311900821279 L 28.744319008212756,113.77571900821283 L 50.205689008212744,117.72161900821288 L 61.74984900821272,138.0177190082129 L 73.95220900821272,136.45991900821286 L 73.49092900821273,114.77741900821286 L 81.1728790082127,134.88161900821285 L 99.4944190082127,133.09351900821287 L 103.08213900821269,112.74161900821287 L 106.7995690082127,133.0512190082129 L 124.6869390082127,134.8542190082129 L 131.7174590082127,114.17001900821288 L 130.3945790082127,135.98391900821287 L 142.0071990082127,138.16341900821283 L 153.1079190082127,120.96501900821283 L 188.45681900821268,49.875219008212866 L 140.42922900821267,47.198019008212896 L 103.08213900821266,31.011419008212897 L 96.56611900821267,10.185919008212863 L 93.27542900821265,9.448819008212809 L 78.4980090082127,25.504519008212696" fill="none" id="path342" inkscape:connector-curvature="0" sodipodi:nodetypes="cccccccccccccccccccccccccc" stroke-width="1" style="display:inline;opacity:1;vector-effect:none;fill:none;fill-opacity:1;stroke:#000000;stroke-width:1;stroke-linecap:round;stroke-linejoin:round;stroke-dasharray:none;stroke-dashoffset:0;stroke-opacity:1;marker:none" transform="translate(257.0078770233878,139.84252132154924)"/>
</svg>
