<?xml version="1.0" ?>
<svg xmlns="http://www.w3.org/2000/svg" xmlns:cc="http://creativecommons.org/ns#" xmlns:dc="http://purl.org/dc/elements/1.1/" xmlns:ev="http://www.w3.org/2001/xml-events" xmlns:inkscape="http://www.inkscape.org/namespaces/inkscape" xmlns:rdf="http://www.w3.org/1999/02/22-rdf-syntax-ns#" xmlns:sodipodi="http://sodipodi.sourceforge.net/DTD/sodipodi-0.dtd" xmlns:svg="http://www.w3.org/2000/svg" xmlns:xlink="http://www.w3.org/1999/xlink" baseProfile="full" height="210mm" id="svg2850" inkscape:export-filename=".\USSEnterprise_01.png" inkscape:export-xdpi="90" inkscape:export-ydpi="90" inkscape:output-extension="org.inkscape.output.svg.inkscape" inkscape:version="0.92.4 (5da689c313, 2019-01-14)" sodipodi:docname="harry-potter.svg" sodipodi:version="0.32" style="display:inline" version="1.1" viewBox="0 0 1122.519698175679 793.7007966898741" width="297mm">
	<defs/>
	<path d="M 9.448819008212809,119.85871900821286 L 64.82281900821272,136.69921900821265 L 108.2187190082127,142.48401900821256 L 163.08301900821266,141.61801900821257 L 218.31701900821258,139.7329190082126 L 259.59071900821255,135.42341900821276 L 311.83531900821254,121.91081900821274 L 290.74331900821244,12.968919008212936 L 261.6625190082125,12.90991900821274 L 234.8970190082125,23.069819008212846 L 197.64641900821243,39.411419008213045 L 163.75231900821245,40.868819008212824 L 129.82701900821235,40.77881900821268 L 92.5750190082124,24.113319008212613 L 63.90861900821233,14.118719008212622 L 37.24811900821237,9.448819008212752 L 9.448819008212809,119.85871900821286" fill="none" id="path361" inkscape:connector-curvature="0" stroke-width="1" style="display:inline;opacity:1;vector-effect:none;fill:none;fill-opacity:1;stroke:#000000;stroke-width:1;stroke-linecap:round;stroke-linejoin:round;stroke-dasharray:none;stroke-dashoffset:0;stroke-opacity:1;marker:none" transform="translate(151.1811041314046,0.0) rotate(90)"/>
	<path d="M 28.237479008212773,28.321319008213663 L 28.635499008212747,68.4741190082135" fill="none" id="path226" inkscape:connector-curvature="0" stroke-width="1" style="display:inline;opacity:1;vector-effect:none;fill:none;fill-opacity:1;stroke:#000000;stroke-width:1;stroke-linecap:round;stroke-linejoin:round;stroke-dasharray:none;stroke-dashoffset:0;stroke-opacity:1;marker:none" transform="translate(222.99212859382177,0.0) rotate(90)"/>
	<path d="M 60.22593900821275,28.39881900821399 L 28.237479008212773,28.321819008213765" fill="none" id="path228" inkscape:connector-curvature="0" stroke-width="1" style="display:inline;opacity:1;vector-effect:none;fill:none;fill-opacity:1;stroke:#000000;stroke-width:1;stroke-linecap:round;stroke-linejoin:round;stroke-dasharray:none;stroke-dashoffset:0;stroke-opacity:1;marker:none" transform="translate(222.99212859382177,0.0) rotate(90)"/>
	<path d="M 108.04092900821277,31.152619008213946 L 86.8466190082128,30.365519008213937" fill="none" id="path230" inkscape:connector-curvature="0" stroke-width="1" style="display:inline;opacity:1;vector-effect:none;fill:none;fill-opacity:1;stroke:#000000;stroke-width:1;stroke-linecap:round;stroke-linejoin:round;stroke-dasharray:none;stroke-dashoffset:0;stroke-opacity:1;marker:none" transform="translate(222.99212859382177,0.0) rotate(90)"/>
	<path d="M 162.63068900821278,36.19331900821396 L 130.4560590082128,33.40991900821416" fill="none" id="path232" inkscape:connector-curvature="0" stroke-width="1" style="display:inline;opacity:1;vector-effect:none;fill:none;fill-opacity:1;stroke:#000000;stroke-width:1;stroke-linecap:round;stroke-linejoin:round;stroke-dasharray:none;stroke-dashoffset:0;stroke-opacity:1;marker:none" transform="translate(222.99212859382177,0.0) rotate(90)"/>
	<path d="M 217.22043900821276,31.152619008213946 L 194.80534900821274,33.40991900821416" fill="none" id="path233" inkscape:connector-curvature="0" stroke-width="1" style="display:inline;opacity:1;vector-effect:none;fill:none;fill-opacity:1;stroke:#000000;stroke-width:1;stroke-linecap:round;stroke-linejoin:round;stroke-dasharray:none;stroke-dashoffset:0;stroke-opacity:1;marker:none" transform="translate(222.99212859382177,0.0) rotate(90)"/>
	<path d="M 264.73563900821273,28.17631900821368 L 238.12141900821277,36.072819008213514" fill="none" id="path235" inkscape:connector-curvature="0" stroke-width="1" style="display:inline;opacity:1;vector-effect:none;fill:none;fill-opacity:1;stroke:#000000;stroke-width:1;stroke-linecap:round;stroke-linejoin:round;stroke-dasharray:none;stroke-dashoffset:0;stroke-opacity:1;marker:none" transform="translate(222.99212859382177,0.0) rotate(90)"/>
	<path d="M 296.6246490082127,68.01451900821382 L 296.7225490082127,27.85991900821398 L 264.73553900821275,28.176219008213934 L 248.90029900821273,13.162719008213912 L 243.2057590082127,14.852319008214067 L 238.12131900821274,36.07281900821397 L 217.22033900821273,31.152619008213946 L 204.47119900821272,13.44321900821376 L 203.7673790082127,13.514219008213672 L 194.8052490082127,33.41001900821345 L 162.63057900821272,36.19331900821351 L 153.3892990082127,16.425719008213377 L 142.9545890082127,15.523019008213282 L 130.45595900821272,33.41001900821345 L 108.04082900821274,31.15271900821324 L 98.14503900821276,11.874519008213042 L 86.84651900821277,30.365519008213028 L 60.22582900821274,28.39891900821283 L 49.36108900821276,9.474819008212648 L 39.193669008212765,9.448819008212809 L 28.23737900821274,28.320019008212853 L 9.448819008212752,39.41731900821276 L 9.630609008212758,57.75011900821289 L 28.635439008212785,68.4728190082127 L 55.34426900821276,67.09011900821258 L 90.14215900821276,68.40631900821279 L 112.95942900821277,71.19101900821295 L 136.18930900821275,77.1957190082129 L 162.63061900821273,80.93601900821284 L 189.07196900821273,77.1957190082129 L 212.3018490082127,71.19101900821295 L 235.11911900821272,68.40651900821274 L 269.90615900821274,66.83031900821277 L 296.6246490082127,68.01451900821382" fill="none" id="path343" inkscape:connector-curvature="0" sodipodi:nodetypes="cccccccccccccccccccccccccccccccccc" stroke-width="1" style="display:inline;opacity:1;vector-effect:none;fill:none;fill-opacity:1;stroke:#000000;stroke-width:1;stroke-linecap:round;stroke-linejoin:round;stroke-dasharray:none;stroke-dashoffset:0;stroke-opacity:1;marker:none" transform="translate(222.99212859382177,0.0) rotate(90)"/>
	<path d="M 15.495220008212783,28.883219008212905 L 69.3027210082128,84.77131900821303" fill="none" id="path138" inkscape:connector-curvature="0" stroke-width="1" style="display:inline;opacity:1;vector-effect:none;fill:none;fill-opacity:1;stroke:#000000;stroke-width:1;stroke-linecap:round;stroke-linejoin:round;stroke-dasharray:none;stroke-dashoffset:0;stroke-opacity:1;marker:none" transform="translate(922.2047352015679,0.0)"/>
	<path d="M 69.3027210082128,84.77131900821257 L 100.4651510082128,49.159919008212796" fill="none" id="path139" inkscape:connector-curvature="0" stroke-width="1" style="display:inline;opacity:1;vector-effect:none;fill:none;fill-opacity:1;stroke:#000000;stroke-width:1;stroke-linecap:round;stroke-linejoin:round;stroke-dasharray:none;stroke-dashoffset:0;stroke-opacity:1;marker:none" transform="translate(922.2047352015679,0.0)"/>
	<path d="M 100.4768710082128,27.96841900821289 L 53.70559100821281,29.544019008213013" fill="none" id="path140" inkscape:connector-curvature="0" stroke-width="1" style="display:inline;opacity:1;vector-effect:none;fill:none;fill-opacity:1;stroke:#000000;stroke-width:1;stroke-linecap:round;stroke-linejoin:round;stroke-dasharray:none;stroke-dashoffset:0;stroke-opacity:1;marker:none" transform="translate(922.2047352015679,0.0)"/>
	<path d="M 131.5881210082128,84.80581900821278 L 185.45748100821277,28.977419008212905" fill="none" id="path141" inkscape:connector-curvature="0" stroke-width="1" style="display:inline;opacity:1;vector-effect:none;fill:none;fill-opacity:1;stroke:#000000;stroke-width:1;stroke-linecap:round;stroke-linejoin:round;stroke-dasharray:none;stroke-dashoffset:0;stroke-opacity:1;marker:none" transform="translate(922.2047352015679,0.0)"/>
	<path d="M 100.4651510082128,49.159919008212796 L 131.5881210082128,84.80581900821278" fill="none" id="path142-9" inkscape:connector-curvature="0" stroke-width="1" style="display:inline;opacity:1;vector-effect:none;fill:none;fill-opacity:1;stroke:#000000;stroke-width:1;stroke-linecap:round;stroke-linejoin:round;stroke-dasharray:none;stroke-dashoffset:0;stroke-opacity:1;marker:none" transform="translate(922.2047352015679,0.0)"/>
	<path d="M 147.24643100821277,29.59571900821254 L 100.4768710082128,27.968419008212436" fill="none" id="path143" inkscape:connector-curvature="0" stroke-width="1" style="display:inline;opacity:1;vector-effect:none;fill:none;fill-opacity:1;stroke:#000000;stroke-width:1;stroke-linecap:round;stroke-linejoin:round;stroke-dasharray:none;stroke-dashoffset:0;stroke-opacity:1;marker:none" transform="translate(922.2047352015679,0.0)"/>
	<path d="M 100.44924100821278,77.87464900821283 L 110.17705100821279,89.01619900821282 L 131.5881210082128,84.8058790082128 L 152.7631710082128,90.07635900821282 L 191.48064100821279,49.95088900821281 L 185.45748100821277,28.977529008212798 L 147.24643100821277,29.595859008212813 L 136.9996610082128,10.330199008212787 L 112.03805100821278,9.461669008212766 L 100.47687100821277,27.96847900821274 L 88.93624100821278,9.448819008212752 L 63.97365100821277,10.289809008212728 L 53.705591008212764,29.54414900821274 L 15.495220008212769,28.88335900821272 L 9.448819008212766,49.85003900821272 L 48.121831008212766,90.0184090082127 L 69.30272100821277,84.77142900821269 L 90.70912100821276,89.0053290082127 L 100.44924100821275,77.87464900821271 L 100.46514100821274,49.16000900821274 L 100.44924100821278,77.87464900821283" fill="none" id="path326" inkscape:connector-curvature="0" sodipodi:nodetypes="ccccccccccccccccccccc" stroke-width="1" style="display:inline;opacity:1;vector-effect:none;fill:none;fill-opacity:1;stroke:#000000;stroke-width:1;stroke-linecap:round;stroke-linejoin:round;stroke-dasharray:none;stroke-dashoffset:0;stroke-opacity:1;marker:none" transform="translate(922.2047352015679,0.0)"/>
	<path d="M 53.02579900821286,29.432619008212782 L 39.9684990082128,12.826319008212863" fill="none" id="path41" inkscape:connector-curvature="0" stroke-width="1" style="display:inline;opacity:1;vector-effect:none;fill:none;fill-opacity:1;stroke:#000000;stroke-width:1;stroke-linecap:round;stroke-linejoin:round;stroke-dasharray:none;stroke-dashoffset:0;stroke-opacity:1;marker:none" transform="translate(211.65354578396642,18.897638016425574)"/>
	<path d="M 77.65879900821278,234.88211900821295 L 70.36219900821288,130.61831900821278" fill="none" id="path42" inkscape:connector-curvature="0" stroke-width="1" style="display:inline;opacity:1;vector-effect:none;fill:none;fill-opacity:1;stroke:#000000;stroke-width:1;stroke-linecap:round;stroke-linejoin:round;stroke-dasharray:none;stroke-dashoffset:0;stroke-opacity:1;marker:none" transform="translate(211.65354578396642,18.897638016425574)"/>
	<path d="M 28.07171900821288,76.51101900821266 L 29.262719008212912,124.81201900821259" fill="none" id="path43" inkscape:connector-curvature="0" stroke-width="1" style="display:inline;opacity:1;vector-effect:none;fill:none;fill-opacity:1;stroke:#000000;stroke-width:1;stroke-linecap:round;stroke-linejoin:round;stroke-dasharray:none;stroke-dashoffset:0;stroke-opacity:1;marker:none" transform="translate(211.65354578396642,18.897638016425574)"/>
	<path d="M 111.6849990082128,15.749519008212587 L 103.64329900821281,19.490619008212775" fill="none" id="path45" inkscape:connector-curvature="0" stroke-width="1" style="display:inline;opacity:1;vector-effect:none;fill:none;fill-opacity:1;stroke:#000000;stroke-width:1;stroke-linecap:round;stroke-linejoin:round;stroke-dasharray:none;stroke-dashoffset:0;stroke-opacity:1;marker:none" transform="translate(211.65354578396642,18.897638016425574)"/>
	<path d="M 70.36219900821288,130.61831900821278 L 53.02579900821286,29.432619008212782 L 61.35259900821279,9.448819008212809 L 39.9684990082128,12.826319008212863 L 28.071719008212767,76.51101900821266 L 9.448819008212809,87.88411900821245 L 10.101919008212803,114.37061900821243 L 29.262719008212798,124.81201900821259 L 35.91729900821281,242.0058190082126 L 77.65879900821278,234.8821190082125 L 95.74859900821275,222.67891900821257 L 89.97539900821266,140.18291900821248 L 70.36219900821288,130.61831900821278" fill="none" id="path309" inkscape:connector-curvature="0" stroke-width="1" style="display:inline;opacity:1;vector-effect:none;fill:none;fill-opacity:1;stroke:#000000;stroke-width:1;stroke-linecap:round;stroke-linejoin:round;stroke-dasharray:none;stroke-dashoffset:0;stroke-opacity:1;marker:none" transform="translate(211.65354578396642,18.897638016425574)"/>
	<path d="M 38.13241900821288,81.79841900821236 L 63.235319008212855,81.79841900821236" fill="none" id="path285" inkscape:connector-curvature="0" stroke-width="1" style="display:inline;opacity:1;vector-effect:none;fill:none;fill-opacity:1;stroke:#000000;stroke-width:1;stroke-linecap:round;stroke-linejoin:round;stroke-dasharray:none;stroke-dashoffset:0;stroke-opacity:1;marker:none" transform="translate(170.07874214783016,298.58268065952404) rotate(90)"/>
	<path d="M 63.23531900821297,81.79841900821236 L 47.51501900821302,51.39441900821237" fill="none" id="path286" inkscape:connector-curvature="0" stroke-width="1" style="display:inline;opacity:1;vector-effect:none;fill:none;fill-opacity:1;stroke:#000000;stroke-width:1;stroke-linecap:round;stroke-linejoin:round;stroke-dasharray:none;stroke-dashoffset:0;stroke-opacity:1;marker:none" transform="translate(170.07874214783016,298.58268065952404) rotate(90)"/>
	<path d="M 47.5150190082129,51.39441900821237 L 38.13241900821288,81.79841900821236" fill="none" id="path287" inkscape:connector-curvature="0" stroke-width="1" style="display:inline;opacity:1;vector-effect:none;fill:none;fill-opacity:1;stroke:#000000;stroke-width:1;stroke-linecap:round;stroke-linejoin:round;stroke-dasharray:none;stroke-dashoffset:0;stroke-opacity:1;marker:none" transform="translate(170.07874214783016,298.58268065952404) rotate(90)"/>
	<path d="M 24.394209008212897,47.64361900821257 L 38.13241900821288,81.79841900821236" fill="none" id="path288" inkscape:connector-curvature="0" stroke-width="1" style="display:inline;opacity:1;vector-effect:none;fill:none;fill-opacity:1;stroke:#000000;stroke-width:1;stroke-linecap:round;stroke-linejoin:round;stroke-dasharray:none;stroke-dashoffset:0;stroke-opacity:1;marker:none" transform="translate(170.07874214783016,298.58268065952404) rotate(90)"/>
	<path d="M 24.716949008212964,19.775119008212528 L 13.718409008212916,21.51951900821257" fill="none" id="path289" inkscape:connector-curvature="0" stroke-width="1" style="display:inline;opacity:1;vector-effect:none;fill:none;fill-opacity:1;stroke:#000000;stroke-width:1;stroke-linecap:round;stroke-linejoin:round;stroke-dasharray:none;stroke-dashoffset:0;stroke-opacity:1;marker:none" transform="translate(170.07874214783016,298.58268065952404) rotate(90)"/>
	<path d="M 13.718409008212916,21.51951900821257 L 24.394209008212897,47.64361900821257" fill="none" id="path290" inkscape:connector-curvature="0" stroke-width="1" style="display:inline;opacity:1;vector-effect:none;fill:none;fill-opacity:1;stroke:#000000;stroke-width:1;stroke-linecap:round;stroke-linejoin:round;stroke-dasharray:none;stroke-dashoffset:0;stroke-opacity:1;marker:none" transform="translate(170.07874214783016,298.58268065952404) rotate(90)"/>
	<path d="M 70.99975900821289,42.53261900821224 L 76.25775900821293,16.551519008212267" fill="none" id="path293" inkscape:connector-curvature="0" stroke-width="1" style="display:inline;opacity:1;vector-effect:none;fill:none;fill-opacity:1;stroke:#000000;stroke-width:1;stroke-linecap:round;stroke-linejoin:round;stroke-dasharray:none;stroke-dashoffset:0;stroke-opacity:1;marker:none" transform="translate(170.07874214783016,298.58268065952404) rotate(90)"/>
	<path d="M 63.23531900821297,81.79841900821236 L 70.999759008213,42.53261900821224" fill="none" id="path294" inkscape:connector-curvature="0" stroke-width="1" style="display:inline;opacity:1;vector-effect:none;fill:none;fill-opacity:1;stroke:#000000;stroke-width:1;stroke-linecap:round;stroke-linejoin:round;stroke-dasharray:none;stroke-dashoffset:0;stroke-opacity:1;marker:none" transform="translate(170.07874214783016,298.58268065952404) rotate(90)"/>
	<path d="M 66.30807900821287,121.70641900821272 L 63.235319008212855,81.79851900821257 L 77.87838900821282,64.32601900821271 L 70.99975900821278,42.532719008212894 L 84.07254900821283,31.21691900821304 L 76.25775900821282,16.551619008212924 L 65.53209900821287,13.556519008212831 L 57.6377690082129,35.15831900821274 L 47.5150190082129,51.39451900821257 L 36.79699900821288,37.46341900821278 L 24.71694900821285,19.77521900821273 L 17.441619008212797,9.448819008212809 L 13.718409008212802,21.51961900821277 L 9.448819008212809,40.11871900821268 L 24.394209008212783,47.64371900821277 L 20.419999008212812,68.70641900821272 L 38.132419008212764,81.79851900821257 L 28.657369008212754,117.37251900821263 L 46.45655900821271,139.27301900821283 L 66.30807900821287,121.70641900821272" fill="none" id="path352" inkscape:connector-curvature="0" sodipodi:nodetypes="cccccccccccccccccccc" stroke-width="1" style="display:inline;opacity:1;vector-effect:none;fill:none;fill-opacity:1;stroke:#000000;stroke-width:1;stroke-linecap:round;stroke-linejoin:round;stroke-dasharray:none;stroke-dashoffset:0;stroke-opacity:1;marker:none" transform="translate(170.07874214783016,298.58268065952404) rotate(90)"/>
	<path d="M 35.14331900821276,86.55501900821298 L 34.991819008212815,152.46011900821293" fill="none" id="path52" inkscape:connector-curvature="0" stroke-width="1" style="display:inline;opacity:1;vector-effect:none;fill:none;fill-opacity:1;stroke:#000000;stroke-width:1;stroke-linecap:round;stroke-linejoin:round;stroke-dasharray:none;stroke-dashoffset:0;stroke-opacity:1;marker:none" transform="translate(306.1417358660943,90.70866247884275)"/>
	<path d="M 39.95971900821269,9.448819008212809 L 16.348719008212584,26.070819008212652 L 9.448819008212695,31.64371900821277 L 26.672119008212803,47.645619008212975 L 35.14331900821276,86.55501900821298 L 16.220719008212654,97.42211900821292 L 16.119419008212617,141.50621900821295 L 34.99191900821256,152.46011900821293 L 37.555519008212514,273.80041900821277 L 61.52681900821244,160.12131900821294 L 67.46281900821236,81.26121900821306 L 50.286619008212256,42.48591900821327 L 39.95971900821269,9.448819008212809" fill="none" id="path312" inkscape:connector-curvature="0" stroke-width="1" style="display:inline;opacity:1;vector-effect:none;fill:none;fill-opacity:1;stroke:#000000;stroke-width:1;stroke-linecap:round;stroke-linejoin:round;stroke-dasharray:none;stroke-dashoffset:0;stroke-opacity:1;marker:none" transform="translate(306.1417358660943,90.70866247884275)"/>
	<path d="M 25.356229008213063,145.6640090082127 L 46.06988900821307,152.58900900821288" fill="none" id="path180" inkscape:connector-curvature="0" stroke-width="1" style="display:inline;opacity:1;vector-effect:none;fill:none;fill-opacity:1;stroke:#000000;stroke-width:1;stroke-linecap:round;stroke-linejoin:round;stroke-dasharray:none;stroke-dashoffset:0;stroke-opacity:1;marker:none" transform="translate(313.7007910726645,340.1574842956603)"/>
	<path d="M 75.28937900821307,157.49650900821268 L 111.7634790082131,163.9483090082125" fill="none" id="path183" inkscape:connector-curvature="0" stroke-width="1" style="display:inline;opacity:1;vector-effect:none;fill:none;fill-opacity:1;stroke:#000000;stroke-width:1;stroke-linecap:round;stroke-linejoin:round;stroke-dasharray:none;stroke-dashoffset:0;stroke-opacity:1;marker:none" transform="translate(313.7007910726645,340.1574842956603)"/>
	<path d="M 148.22783900821304,157.44130900821244 L 177.43983900821303,152.48970900821257" fill="none" id="path185" inkscape:connector-curvature="0" stroke-width="1" style="display:inline;opacity:1;vector-effect:none;fill:none;fill-opacity:1;stroke:#000000;stroke-width:1;stroke-linecap:round;stroke-linejoin:round;stroke-dasharray:none;stroke-dashoffset:0;stroke-opacity:1;marker:none" transform="translate(313.7007910726645,340.1574842956603)"/>
	<path d="M 100.67460900821305,62.67260900821236 L 90.63981900821307,42.398409008212525" fill="none" id="path188" inkscape:connector-curvature="0" stroke-width="1" style="display:inline;opacity:1;vector-effect:none;fill:none;fill-opacity:1;stroke:#000000;stroke-width:1;stroke-linecap:round;stroke-linejoin:round;stroke-dasharray:none;stroke-dashoffset:0;stroke-opacity:1;marker:none" transform="translate(313.7007910726645,340.1574842956603)"/>
	<path d="M 90.63981900821307,42.398409008212525 L 78.60946900821307,21.21450900821253" fill="none" id="path189" inkscape:connector-curvature="0" stroke-width="1" style="display:inline;opacity:1;vector-effect:none;fill:none;fill-opacity:1;stroke:#000000;stroke-width:1;stroke-linecap:round;stroke-linejoin:round;stroke-dasharray:none;stroke-dashoffset:0;stroke-opacity:1;marker:none" transform="translate(313.7007910726645,340.1574842956603)"/>
	<path d="M 78.60946900821307,21.21450900821253 L 45.91254900821309,38.14260900821262" fill="none" id="path190" inkscape:connector-curvature="0" stroke-width="1" style="display:inline;opacity:1;vector-effect:none;fill:none;fill-opacity:1;stroke:#000000;stroke-width:1;stroke-linecap:round;stroke-linejoin:round;stroke-dasharray:none;stroke-dashoffset:0;stroke-opacity:1;marker:none" transform="translate(313.7007910726645,340.1574842956603)"/>
	<path d="M 215.531659008213,27.779009008212483 L 177.424159008213,38.043109008212355" fill="none" id="path193" inkscape:connector-curvature="0" stroke-width="1" style="display:inline;opacity:1;vector-effect:none;fill:none;fill-opacity:1;stroke:#000000;stroke-width:1;stroke-linecap:round;stroke-linejoin:round;stroke-dasharray:none;stroke-dashoffset:0;stroke-opacity:1;marker:none" transform="translate(313.7007910726645,340.1574842956603)"/>
	<path d="M 46.65840900821303,95.69531900821266 L 56.58935900821302,117.11061900821267 L 25.356209008213,145.6644190082127 L 29.71192900821302,167.04641900821264 L 29.730829008212993,167.05641900821263 L 46.07032900821298,152.59331900821257 L 75.28981900821299,157.50071900821263 L 82.74190900821299,178.0099190082126 L 97.72849900821296,180.66091900821255 L 111.76390900821298,163.95261900821254 L 148.22826900821298,157.4456190082126 L 162.14357900821295,174.25411900821257 L 169.84137900821293,172.9492190082126 L 177.4402690082129,152.4940190082126 L 199.58425900821288,153.60761900821262 L 166.8671890082129,117.03111900821261 L 176.7641390082129,95.59641900821259 L 177.65927900821293,68.96221900821263 L 215.5316590082129,27.779019008212686 L 200.0817090082129,12.369319008212699 L 183.0444290082129,16.958219008212723 L 177.42415900821288,38.04311900821267 L 144.70164900821288,21.164519008212665 L 132.70338900821287,42.36661900821264 L 122.69924900821286,62.65601900821264 L 140.83050900821286,86.85691900821269 L 111.73037900821288,120.13081900821271 L 82.57994900821285,86.90091900821267 L 100.67462900821283,62.67261900821268 L 112.77140900821286,44.51141900821267 L 112.41613900821284,43.7939190082127 L 90.63971900821281,42.39841900821273 L 101.6844790082128,23.578919008212722 L 100.42993900821278,21.369819008212744 L 78.60936900821281,21.214519008212733 L 60.23194900821278,9.448819008212752 L 46.91303900821276,16.344419008212753 L 45.912449008212775,38.14251900821273 L 9.448819008212752,36.609219008212676 L 45.724079008212755,69.06191900821273 L 46.65840900821303,95.69531900821266" fill="none" id="path335" inkscape:connector-curvature="0" sodipodi:nodetypes="ccccccccccccccccccccccccccccccccccccccccc" stroke-width="1" style="display:inline;opacity:1;vector-effect:none;fill:none;fill-opacity:1;stroke:#000000;stroke-width:1;stroke-linecap:round;stroke-linejoin:round;stroke-dasharray:none;stroke-dashoffset:0;stroke-opacity:1;marker:none" transform="translate(313.7007910726645,340.1574842956603)"/>
	<path d="M 104.77440900821284,81.71821900821294 L 113.5088990082129,16.340519008212937" fill="none" id="path112" inkscape:connector-curvature="0" stroke-width="1" style="display:inline;opacity:1;vector-effect:none;fill:none;fill-opacity:1;stroke:#000000;stroke-width:1;stroke-linecap:round;stroke-linejoin:round;stroke-dasharray:none;stroke-dashoffset:0;stroke-opacity:1;marker:none" transform="translate(0.0,695.4330790044611)"/>
	<path d="M 32.8747490082128,15.865319008213078 L 9.448819008212809,20.52401900821303 L 28.830729008212757,83.5707190082129 L 35.39587900821277,90.23051900821281 L 48.67679900821281,81.5403190082128 L 46.168749008212785,70.99331900821278 L 51.098929008212735,81.35501900821271 L 60.970499008212755,82.50691900821255 L 63.651069008212744,72.81501900821274 L 64.99070900821278,82.64911900821278 L 78.20533900821272,84.82841900821256 L 82.55036900821267,75.79821900821241 L 83.80779900821267,86.24921900821244 L 100.50943900821267,90.15241900821263 L 104.77440900821261,81.71831900821269 L 124.95043900821258,73.40641900821254 L 130.79528900821254,29.65751900821249 L 113.50889900821255,16.340619008212684 L 91.82510900821251,13.404719008212737 L 63.650919008212554,9.448819008212809 L 32.8747490082128,15.865319008213078" fill="none" id="path318" inkscape:connector-curvature="0" sodipodi:nodetypes="ccccccccccccccccccccc" stroke-width="1" style="display:inline;opacity:1;vector-effect:none;fill:none;fill-opacity:1;stroke:#000000;stroke-width:1;stroke-linecap:round;stroke-linejoin:round;stroke-dasharray:none;stroke-dashoffset:0;stroke-opacity:1;marker:none" transform="translate(0.0,695.4330790044611)"/>
	<path d="M 134.73683900821274,28.116519008211412 L 106.92313900821276,38.32741900821145" fill="none" id="path195" inkscape:connector-curvature="0" stroke-width="1" style="display:inline;opacity:1;vector-effect:none;fill:none;fill-opacity:1;stroke:#000000;stroke-width:1;stroke-linecap:round;stroke-linejoin:round;stroke-dasharray:none;stroke-dashoffset:0;stroke-opacity:1;marker:none" transform="translate(117.16535570183855,366.6141775186561) rotate(90)"/>
	<path d="M 117.11028900821273,71.6406190082115 L 139.61748900821274,72.61971900821152" fill="none" id="path196" inkscape:connector-curvature="0" stroke-width="1" style="display:inline;opacity:1;vector-effect:none;fill:none;fill-opacity:1;stroke:#000000;stroke-width:1;stroke-linecap:round;stroke-linejoin:round;stroke-dasharray:none;stroke-dashoffset:0;stroke-opacity:1;marker:none" transform="translate(117.16535570183855,366.6141775186561) rotate(90)"/>
	<path d="M 226.42813900821275,71.6406190082115 L 246.50139900821276,79.26441900821135" fill="none" id="path197" inkscape:connector-curvature="0" stroke-width="1" style="display:inline;opacity:1;vector-effect:none;fill:none;fill-opacity:1;stroke:#000000;stroke-width:1;stroke-linecap:round;stroke-linejoin:round;stroke-dasharray:none;stroke-dashoffset:0;stroke-opacity:1;marker:none" transform="translate(117.16535570183855,366.6141775186561) rotate(90)"/>
	<path d="M 254.17689900821276,51.86191900821166 L 236.61524900821277,38.32741900821145" fill="none" id="path198" inkscape:connector-curvature="0" stroke-width="1" style="display:inline;opacity:1;vector-effect:none;fill:none;fill-opacity:1;stroke:#000000;stroke-width:1;stroke-linecap:round;stroke-linejoin:round;stroke-dasharray:none;stroke-dashoffset:0;stroke-opacity:1;marker:none" transform="translate(117.16535570183855,366.6141775186561) rotate(90)"/>
	<path d="M 171.76921900821273,75.65621900821168 L 203.92093900821274,72.61971900821152" fill="none" id="path199" inkscape:connector-curvature="0" stroke-width="1" style="display:inline;opacity:1;vector-effect:none;fill:none;fill-opacity:1;stroke:#000000;stroke-width:1;stroke-linecap:round;stroke-linejoin:round;stroke-dasharray:none;stroke-dashoffset:0;stroke-opacity:1;marker:none" transform="translate(117.16535570183855,366.6141775186561) rotate(90)"/>
	<path d="M 208.80158900821274,28.116519008211412 L 171.76921900821273,28.885719008211595" fill="none" id="path200" inkscape:connector-curvature="0" stroke-width="1" style="display:inline;opacity:1;vector-effect:none;fill:none;fill-opacity:1;stroke:#000000;stroke-width:1;stroke-linecap:round;stroke-linejoin:round;stroke-dasharray:none;stroke-dashoffset:0;stroke-opacity:1;marker:none" transform="translate(117.16535570183855,366.6141775186561) rotate(90)"/>
	<path d="M 324.8469190082127,57.48241900821165 L 292.0471590082127,40.75451900821179" fill="none" id="path201" inkscape:connector-curvature="0" stroke-width="1" style="display:inline;opacity:1;vector-effect:none;fill:none;fill-opacity:1;stroke:#000000;stroke-width:1;stroke-linecap:round;stroke-linejoin:round;stroke-dasharray:none;stroke-dashoffset:0;stroke-opacity:1;marker:none" transform="translate(117.16535570183855,366.6141775186561) rotate(90)"/>
	<path d="M 274.22562900821276,80.69311900821174 L 302.81623900821273,95.04041900821164" fill="none" id="path202" inkscape:connector-curvature="0" stroke-width="1" style="display:inline;opacity:1;vector-effect:none;fill:none;fill-opacity:1;stroke:#000000;stroke-width:1;stroke-linecap:round;stroke-linejoin:round;stroke-dasharray:none;stroke-dashoffset:0;stroke-opacity:1;marker:none" transform="translate(117.16535570183855,366.6141775186561) rotate(90)"/>
	<path d="M 18.316869008212763,64.82251900821154 L 43.92335900821277,100.03981900821134" fill="none" id="path203" inkscape:connector-curvature="0" stroke-width="1" style="display:inline;opacity:1;vector-effect:none;fill:none;fill-opacity:1;stroke:#000000;stroke-width:1;stroke-linecap:round;stroke-linejoin:round;stroke-dasharray:none;stroke-dashoffset:0;stroke-opacity:1;marker:none" transform="translate(117.16535570183855,366.6141775186561) rotate(90)"/>
	<path d="M 85.79841900821273,43.873119008211575 L 49.31870900821272,44.95961900821146" fill="none" id="path204" inkscape:connector-curvature="0" stroke-width="1" style="display:inline;opacity:1;vector-effect:none;fill:none;fill-opacity:1;stroke:#000000;stroke-width:1;stroke-linecap:round;stroke-linejoin:round;stroke-dasharray:none;stroke-dashoffset:0;stroke-opacity:1;marker:none" transform="translate(117.16535570183855,366.6141775186561) rotate(90)"/>
	<path d="M 70.96974900821274,82.95881900821166 L 96.00007900821274,73.68461900821183" fill="none" id="path205" inkscape:connector-curvature="0" stroke-width="1" style="display:inline;opacity:1;vector-effect:none;fill:none;fill-opacity:1;stroke:#000000;stroke-width:1;stroke-linecap:round;stroke-linejoin:round;stroke-dasharray:none;stroke-dashoffset:0;stroke-opacity:1;marker:none" transform="translate(117.16535570183855,366.6141775186561) rotate(90)"/>
	<path d="M 43.92335900821277,100.039919008212 L 70.96974900821274,82.95891900821186 L 87.76637900821274,96.888619008212 L 92.33499900821275,95.1958190082122 L 96.00007900821274,73.68471900821203 L 117.11028900821273,71.64071900821216 L 127.18919900821274,90.99461900821223 L 127.89592900821273,91.02461900821243 L 139.61748900821274,72.61901900821238 L 171.76921900821273,75.65561900821228 L 184.4082990082127,93.4436190082123 L 194.8355990082127,92.45881900821212 L 203.92093900821268,72.61901900821192 L 226.4281390082127,71.6399190082119 L 229.7550690082127,93.11821900821212 L 246.5013990082127,79.26381900821195 L 274.22562900821265,80.69241900821214 L 275.5013690082127,102.4762190082123 L 284.58878900821264,107.0365190082124 L 302.8162390082126,95.0397190082125 L 324.8469190082126,57.48181900821271 L 323.7131690082126,35.69011900821249 L 310.35238900821264,28.87611900821264 L 292.0471590082127,40.753819008212645 L 254.1768990082127,51.86131900821272 L 257.0708490082127,30.23291900821266 L 256.79304900821273,30.018619008212568 L 236.61535900821272,38.32661900821256 L 208.80170900821273,28.115819008212725 L 197.50106900821274,9.448819008212809 L 182.28510900821274,9.764719008212865 L 171.76932900821274,28.884919008212705 L 134.73694900821275,28.115719008212523 L 117.98214900821276,14.135819008212707 L 110.65285900821274,16.826519008212813 L 106.92325900821274,38.32651900821281 L 85.79852900821274,43.872319008212685 L 59.661969008212765,25.744719008212883 L 49.31882900821276,44.95881900821303 L 18.316989008212744,64.82171900821311 L 9.448819008212752,84.75951900821326 L 22.22274900821276,102.32781900821317 L 43.92335900821277,100.039919008212" fill="none" id="path339" inkscape:connector-curvature="0" sodipodi:nodetypes="ccccccccccccccccccccccccccccccccccccccccccc" stroke-width="1" style="display:inline;opacity:1;vector-effect:none;fill:none;fill-opacity:1;stroke:#000000;stroke-width:1;stroke-linecap:round;stroke-linejoin:round;stroke-dasharray:none;stroke-dashoffset:0;stroke-opacity:1;marker:none" transform="translate(117.16535570183855,366.6141775186561) rotate(90)"/>
	<path d="M 102.15568900821285,96.21361900821267 L 106.84135900821286,113.86481900821246" fill="none" id="path129" inkscape:connector-curvature="0" stroke-width="1" style="display:inline;opacity:1;vector-effect:none;fill:none;fill-opacity:1;stroke:#000000;stroke-width:1;stroke-linecap:round;stroke-linejoin:round;stroke-dasharray:none;stroke-dashoffset:0;stroke-opacity:1;marker:none" transform="translate(925.9842628048531,608.5039441289034)"/>
	<path d="M 151.7239290082128,100.61371900821251 L 147.12435900821276,84.70541900821246" fill="none" id="path130" inkscape:connector-curvature="0" stroke-width="1" style="display:inline;opacity:1;vector-effect:none;fill:none;fill-opacity:1;stroke:#000000;stroke-width:1;stroke-linecap:round;stroke-linejoin:round;stroke-dasharray:none;stroke-dashoffset:0;stroke-opacity:1;marker:none" transform="translate(925.9842628048531,608.5039441289034)"/>
	<path d="M 15.479129008212823,70.40311900821263 L 42.005789008212815,97.9132190082126" fill="none" id="path131" inkscape:connector-curvature="0" stroke-width="1" style="display:inline;opacity:1;vector-effect:none;fill:none;fill-opacity:1;stroke:#000000;stroke-width:1;stroke-linecap:round;stroke-linejoin:round;stroke-dasharray:none;stroke-dashoffset:0;stroke-opacity:1;marker:none" transform="translate(925.9842628048531,608.5039441289034)"/>
	<path d="M 42.005789008212815,97.9132190082126 L 52.39127900821282,85.0146190082126" fill="none" id="path132" inkscape:connector-curvature="0" stroke-width="1" style="display:inline;opacity:1;vector-effect:none;fill:none;fill-opacity:1;stroke:#000000;stroke-width:1;stroke-linecap:round;stroke-linejoin:round;stroke-dasharray:none;stroke-dashoffset:0;stroke-opacity:1;marker:none" transform="translate(925.9842628048531,608.5039441289034)"/>
	<path d="M 157.59375900821283,97.53581900821274 L 183.94031900821284,69.85321900821265" fill="none" id="path133" inkscape:connector-curvature="0" stroke-width="1" style="display:inline;opacity:1;vector-effect:none;fill:none;fill-opacity:1;stroke:#000000;stroke-width:1;stroke-linecap:round;stroke-linejoin:round;stroke-dasharray:none;stroke-dashoffset:0;stroke-opacity:1;marker:none" transform="translate(925.9842628048531,608.5039441289034)"/>
	<path d="M 97.38856900821281,22.958919008212717 L 36.75114900821282,47.665419008212496" fill="none" id="path135" inkscape:connector-curvature="0" stroke-width="1" style="display:inline;opacity:1;vector-effect:none;fill:none;fill-opacity:1;stroke:#000000;stroke-width:1;stroke-linecap:round;stroke-linejoin:round;stroke-dasharray:none;stroke-dashoffset:0;stroke-opacity:1;marker:none" transform="translate(925.9842628048531,608.5039441289034)"/>
	<path d="M 99.62347900821283,43.702319008212555 L 97.38856900821281,22.958919008212717" fill="none" id="path136" inkscape:connector-curvature="0" stroke-width="1" style="display:inline;opacity:1;vector-effect:none;fill:none;fill-opacity:1;stroke:#000000;stroke-width:1;stroke-linecap:round;stroke-linejoin:round;stroke-dasharray:none;stroke-dashoffset:0;stroke-opacity:1;marker:none" transform="translate(925.9842628048531,608.5039441289034)"/>
	<path d="M 162.52033900821283,47.25491900821254 L 101.72289900821283,22.94481900821239" fill="none" id="path137" inkscape:connector-curvature="0" stroke-width="1" style="display:inline;opacity:1;vector-effect:none;fill:none;fill-opacity:1;stroke:#000000;stroke-width:1;stroke-linecap:round;stroke-linejoin:round;stroke-dasharray:none;stroke-dashoffset:0;stroke-opacity:1;marker:none" transform="translate(925.9842628048531,608.5039441289034)"/>
	<path d="M 165.90093900821284,88.80751900821252 L 167.57821900821284,87.41071900821254 L 167.26904900821285,87.36971900821237" fill="none" id="path322" inkscape:connector-curvature="0" stroke-width="1" style="display:inline;opacity:1;vector-effect:none;fill:none;fill-opacity:1;stroke:#000000;stroke-width:1;stroke-linecap:round;stroke-linejoin:round;stroke-dasharray:none;stroke-dashoffset:0;stroke-opacity:1;marker:none" transform="translate(925.9842628048531,608.5039441289034)"/>
	<path d="M 99.69955900821282,67.00681900821274 L 102.15568900821279,96.21371900821288 L 96.0920790082128,101.42121900821286 M 93.53915900821283,111.29781900821291 L 106.84135900821286,113.86491900821312 L 151.72392900821285,100.61381900821317 L 156.71418900821283,96.45801900821317 L 147.12435900821282,84.70551900821312 L 157.59375900821283,97.53591900821294 L 178.80450900821285,102.66091900821294 L 190.10736900821286,90.78491900821274 L 183.94031900821284,69.85331900821285 L 162.52033900821283,47.25501900821274 L 159.4058190082128,25.657319008212937 L 118.8698190082128,9.448819008212752 L 101.72289900821278,22.944919008212594 L 99.62347900821277,43.70241900821276 L 101.54517900821276,24.702119008212605 L 97.38856900821276,22.959019008212465 L 80.15392900821274,9.5752190082124 L 39.72460900821275,26.047919008212205 L 36.751149008212764,47.66551900821224 L 15.479129008212766,70.40321900821237 L 9.448819008212752,91.37451900821253 L 20.828939008212757,103.17651900821267 L 42.00578900821276,97.9133190082128 L 48.27337900821277,99.61371900821297 L 52.39127900821276,85.01471900821281 L 47.89568900821277,100.95281900821266 L 92.86383900821278,113.91051900821259 L 97.43414900821278,96.2292190082124 L 99.69955900821276,67.00681900821229" fill="none" id="path320" inkscape:connector-curvature="0" sodipodi:nodetypes="cccccccccccccccccccccccccccccccc" stroke-width="1" style="display:inline;opacity:1;vector-effect:none;fill:none;fill-opacity:1;stroke:#000000;stroke-width:1;stroke-linecap:round;stroke-linejoin:round;stroke-dasharray:none;stroke-dashoffset:0;stroke-opacity:1;marker:none" transform="translate(925.9842628048531,608.5039441289034)"/>
	<path d="M 207.8956190082124,107.78281900821264 L 171.6333190082123,30.172419008212614" fill="none" id="path30" inkscape:connector-curvature="0" stroke-width="1" style="display:inline;opacity:1;vector-effect:none;fill:none;fill-opacity:1;stroke:#000000;stroke-width:1;stroke-linecap:round;stroke-linejoin:round;stroke-dasharray:none;stroke-dashoffset:0;stroke-opacity:1;marker:none" transform="translate(634.9606373518992,0.0)"/>
	<path d="M 171.63331900821254,30.172419008212614 L 140.47231900821248,41.44041900821264" fill="none" id="path31" inkscape:connector-curvature="0" stroke-width="1" style="display:inline;opacity:1;vector-effect:none;fill:none;fill-opacity:1;stroke:#000000;stroke-width:1;stroke-linecap:round;stroke-linejoin:round;stroke-dasharray:none;stroke-dashoffset:0;stroke-opacity:1;marker:none" transform="translate(634.9606373518992,0.0)"/>
	<path d="M 140.47231900821248,41.44041900821264 L 108.66531900821246,41.630119008212546" fill="none" id="path32" inkscape:connector-curvature="0" stroke-width="1" style="display:inline;opacity:1;vector-effect:none;fill:none;fill-opacity:1;stroke:#000000;stroke-width:1;stroke-linecap:round;stroke-linejoin:round;stroke-dasharray:none;stroke-dashoffset:0;stroke-opacity:1;marker:none" transform="translate(634.9606373518992,0.0)"/>
	<path d="M 77.60561900821244,40.53211900821259 L 46.6411190082124,30.14451900821257" fill="none" id="path33" inkscape:connector-curvature="0" stroke-width="1" style="display:inline;opacity:1;vector-effect:none;fill:none;fill-opacity:1;stroke:#000000;stroke-width:1;stroke-linecap:round;stroke-linejoin:round;stroke-dasharray:none;stroke-dashoffset:0;stroke-opacity:1;marker:none" transform="translate(634.9606373518992,0.0)"/>
	<path d="M 108.66531900821246,41.630119008213 L 77.60561900821244,40.532119008213044" fill="none" id="path34" inkscape:connector-curvature="0" stroke-width="1" style="display:inline;opacity:1;vector-effect:none;fill:none;fill-opacity:1;stroke:#000000;stroke-width:1;stroke-linecap:round;stroke-linejoin:round;stroke-dasharray:none;stroke-dashoffset:0;stroke-opacity:1;marker:none" transform="translate(634.9606373518992,0.0)"/>
	<path d="M 57.53761900821246,127.30921900821284 L 108.76091900821257,135.41961900821286 L 160.26771900821245,128.95581900821287 L 207.8956190082124,107.7828190082131 L 220.3980190082125,89.89851900821293 L 193.37281900821245,32.057719008212985 L 171.63331900821254,30.17241900821307 L 153.69671900821254,9.86121900821297 L 138.55641900821252,14.958819008213027 L 140.47231900821248,41.4404190082131 L 133.44931900821257,16.108119008213066 L 113.21291900821257,16.41811900821301 L 108.66531900821246,41.6305190082129 L 103.17921900821239,16.859219008213017 L 87.92701900821248,15.782319008212994 L 77.60561900821244,40.532719008212894 L 79.77191900821254,13.896319008213027 L 61.74541900821259,9.448819008212809 L 46.64111900821263,30.145119008212873 L 9.448819008212695,107.31421900821294 L 57.53761900821246,127.30921900821284" fill="none" id="path307" inkscape:connector-curvature="0" sodipodi:nodetypes="ccccccccccccccccccccc" stroke-width="1" style="display:inline;opacity:1;vector-effect:none;fill:none;fill-opacity:1;stroke:#000000;stroke-width:1;stroke-linecap:round;stroke-linejoin:round;stroke-dasharray:none;stroke-dashoffset:0;stroke-opacity:1;marker:none" transform="translate(634.9606373518992,0.0)"/>
	<path d="M 73.33051900821272,31.114019008212495 L 51.257769008212705,24.264419008212485" fill="none" id="path268" inkscape:connector-curvature="0" stroke-width="1" style="display:inline;opacity:1;vector-effect:none;fill:none;fill-opacity:1;stroke:#000000;stroke-width:1;stroke-linecap:round;stroke-linejoin:round;stroke-dasharray:none;stroke-dashoffset:0;stroke-opacity:1;marker:none" transform="translate(480.0000056172096,0.0) rotate(90)"/>
	<path d="M 66.48435900821272,53.25871900821278 L 73.33051900821272,31.11401900821295" fill="none" id="path269" inkscape:connector-curvature="0" stroke-width="1" style="display:inline;opacity:1;vector-effect:none;fill:none;fill-opacity:1;stroke:#000000;stroke-width:1;stroke-linecap:round;stroke-linejoin:round;stroke-dasharray:none;stroke-dashoffset:0;stroke-opacity:1;marker:none" transform="translate(480.0000056172096,0.0) rotate(90)"/>
	<path d="M 51.257769008212705,24.264419008212485 L 41.06687900821271,43.98281900821269" fill="none" id="path270" inkscape:connector-curvature="0" stroke-width="1" style="display:inline;opacity:1;vector-effect:none;fill:none;fill-opacity:1;stroke:#000000;stroke-width:1;stroke-linecap:round;stroke-linejoin:round;stroke-dasharray:none;stroke-dashoffset:0;stroke-opacity:1;marker:none" transform="translate(480.0000056172096,0.0) rotate(90)"/>
	<path d="M 41.7100390082127,129.0865190082128 L 51.0477790082127,101.37221900821271" fill="none" id="path271" inkscape:connector-curvature="0" stroke-width="1" style="display:inline;opacity:1;vector-effect:none;fill:none;fill-opacity:1;stroke:#000000;stroke-width:1;stroke-linecap:round;stroke-linejoin:round;stroke-dasharray:none;stroke-dashoffset:0;stroke-opacity:1;marker:none" transform="translate(480.0000056172096,0.0) rotate(90)"/>
	<path d="M 25.030759008212698,93.94271900821252 L 19.6965990082127,121.67581900821244" fill="none" id="path272" inkscape:connector-curvature="0" stroke-width="1" style="display:inline;opacity:1;vector-effect:none;fill:none;fill-opacity:1;stroke:#000000;stroke-width:1;stroke-linecap:round;stroke-linejoin:round;stroke-dasharray:none;stroke-dashoffset:0;stroke-opacity:1;marker:none" transform="translate(480.0000056172096,0.0) rotate(90)"/>
	<path d="M 19.6965990082127,121.6758190082129 L 41.7100390082127,129.0865190082128" fill="none" id="path273" inkscape:connector-curvature="0" stroke-width="1" style="display:inline;opacity:1;vector-effect:none;fill:none;fill-opacity:1;stroke:#000000;stroke-width:1;stroke-linecap:round;stroke-linejoin:round;stroke-dasharray:none;stroke-dashoffset:0;stroke-opacity:1;marker:none" transform="translate(480.0000056172096,0.0) rotate(90)"/>
	<path d="M 41.06687900821271,43.98281900821269 L 39.3253490082127,61.78621900821247" fill="none" id="path274" inkscape:connector-curvature="0" stroke-width="1" style="display:inline;opacity:1;vector-effect:none;fill:none;fill-opacity:1;stroke:#000000;stroke-width:1;stroke-linecap:round;stroke-linejoin:round;stroke-dasharray:none;stroke-dashoffset:0;stroke-opacity:1;marker:none" transform="translate(480.0000056172096,0.0) rotate(90)"/>
	<path d="M 61.46026900821272,68.8972190082128 L 66.48435900821272,53.25871900821278" fill="none" id="path275" inkscape:connector-curvature="0" stroke-width="1" style="display:inline;opacity:1;vector-effect:none;fill:none;fill-opacity:1;stroke:#000000;stroke-width:1;stroke-linecap:round;stroke-linejoin:round;stroke-dasharray:none;stroke-dashoffset:0;stroke-opacity:1;marker:none" transform="translate(480.0000056172096,0.0) rotate(90)"/>
	<path d="M 55.70048900821271,86.82661900821279 L 61.46026900821272,68.8972190082128" fill="none" id="path276" inkscape:connector-curvature="0" stroke-width="1" style="display:inline;opacity:1;vector-effect:none;fill:none;fill-opacity:1;stroke:#000000;stroke-width:1;stroke-linecap:round;stroke-linejoin:round;stroke-dasharray:none;stroke-dashoffset:0;stroke-opacity:1;marker:none" transform="translate(480.0000056172096,0.0) rotate(90)"/>
	<path d="M 39.3253490082127,61.78621900821247 L 33.5654290082127,79.71551900821225" fill="none" id="path277" inkscape:connector-curvature="0" stroke-width="1" style="display:inline;opacity:1;vector-effect:none;fill:none;fill-opacity:1;stroke:#000000;stroke-width:1;stroke-linecap:round;stroke-linejoin:round;stroke-dasharray:none;stroke-dashoffset:0;stroke-opacity:1;marker:none" transform="translate(480.0000056172096,0.0) rotate(90)"/>
	<path d="M 33.5654290082127,79.71551900821271 L 25.030759008212698,93.94271900821252" fill="none" id="path278" inkscape:connector-curvature="0" stroke-width="1" style="display:inline;opacity:1;vector-effect:none;fill:none;fill-opacity:1;stroke:#000000;stroke-width:1;stroke-linecap:round;stroke-linejoin:round;stroke-dasharray:none;stroke-dashoffset:0;stroke-opacity:1;marker:none" transform="translate(480.0000056172096,0.0) rotate(90)"/>
	<path d="M 51.0477790082127,101.37221900821271 L 55.70048900821271,86.82661900821279" fill="none" id="path279" inkscape:connector-curvature="0" stroke-width="1" style="display:inline;opacity:1;vector-effect:none;fill:none;fill-opacity:1;stroke:#000000;stroke-width:1;stroke-linecap:round;stroke-linejoin:round;stroke-dasharray:none;stroke-dashoffset:0;stroke-opacity:1;marker:none" transform="translate(480.0000056172096,0.0) rotate(90)"/>
	<path d="M 67.2788990082127,9.448819008212809 L 51.257409008212704,24.265229008212714 L 35.71053900821269,26.53084900821284 L 35.538659008212704,26.864839008212698 L 41.06600900821272,43.983979008212714 L 27.638269008212717,52.29452900821286 L 39.32576900821272,61.786709008212824 L 24.702729008212714,66.22030900821267 L 33.56600900821272,79.71639900821276 L 19.343349008212726,78.35702900821263 L 25.030849008212726,93.9429590082126 L 10.661709008212739,102.3374990082126 L 9.448819008212752,108.64217900821257 L 19.696869008212758,121.67538900821262 L 24.00740900821276,143.0679590082126 L 25.339449008212767,143.5152290082127 L 41.71053900821278,129.0874990082126 L 57.35115900821279,123.53084900821261 L 59.7222590082128,116.49569900821268 L 51.04842900821279,101.37264900821253 L 65.62264900821279,98.60702900821263 L 55.7007690082128,86.82577900821263 L 70.82186900821281,82.39217900821257 L 61.460539008212805,68.89803900821255 L 76.2144490082128,65.60897900821271 L 66.4839790082128,53.25936900821273 L 82.01131900821281,47.16756900821258 L 82.4117090082128,45.8687490082126 L 73.32967900821279,31.114839008212698 L 68.51131900821278,9.831639008212619 L 67.2788990082127,9.448819008212809 M 52.0835890082127,51.15584900821284 C 55.060509008212705,51.156439008212715 57.4736290082127,53.56955900821288 57.47420900821271,56.546479008212714 C 57.474699008212724,59.52415900821268 55.06126900821272,61.93846900821279 52.0835890082127,61.939059008212666 C 49.10514900821269,61.93954900821279 46.6905190082127,59.524919008212805 46.69100900821269,56.546479008212714 C 46.69159900821268,53.56879900821275 49.10590900821268,51.15535900821271 52.0835890082127,51.15584900821284 M 34.6441290082127,103.63241900821288 C 38.10988900821269,103.63251900821285 40.919419008212714,106.44204900821285 40.91951900821269,109.9078090082129 C 40.919419008212685,113.37356900821294 38.10988900821269,116.18309900821293 34.6441290082127,116.18319900821291 C 31.1776090082127,116.18417900821294 28.366889008212695,113.37432900821284 28.36678900821269,109.9078090082129 C 28.366889008212695,106.44128900821295 31.1776090082127,103.63143900821285 34.6441290082127,103.63241900821288" fill="none" id="path350" inkscape:connector-curvature="0" sodipodi:nodetypes="ccccccccccccccccccccccccccccccccccccccccc" stroke-width="1" style="display:inline;opacity:1;vector-effect:none;fill:none;fill-opacity:1;stroke:#000000;stroke-width:1;stroke-linecap:round;stroke-linejoin:round;stroke-dasharray:none;stroke-dashoffset:0;stroke-opacity:1;marker:none" transform="translate(480.0000056172096,0.0) rotate(90)"/>
	<path d="M 121.89711900821288,81.7234190082126 L 118.81831900821288,55.63961900821272 L 73.65787900821289,22.610919008212875 L 48.74613900821288,27.553819008212884 L 29.195479008212885,39.760919008212966 L 25.04691900821291,88.6592190082128" fill="none" id="path237-7" inkscape:connector-curvature="0" stroke-width="1" style="display:inline;opacity:1;vector-effect:none;fill:none;fill-opacity:1;stroke:#000000;stroke-width:1;stroke-linecap:round;stroke-linejoin:round;stroke-dasharray:none;stroke-dashoffset:0;stroke-opacity:1;marker:none" transform="translate(529.133864459916,154.9606317346897) rotate(90)"/>
	<path d="M 118.81831900821288,55.63961900821272 L 117.64664900821293,34.633219008212734 L 98.64579900821292,18.79261900821274 L 73.65787900821289,22.610819008212786 L 57.38456900821285,9.448819008212752 L 48.74613900821288,27.553719008212795 L 31.347249008212827,18.733219008212757 L 29.19547900821277,39.76081900821276 L 12.796129008212745,47.00471900821282 L 9.448819008212752,74.47521900821283 L 25.046919008212797,88.65911900821283 L 25.229839008212764,114.92321900821281 L 44.95935900821274,96.0686190082128 L 69.68120900821276,92.3032190082128 L 94.62876900821271,86.69471900821276 L 121.89726900821273,81.72341900821272 L 139.3856690082127,68.67281900821268 L 138.86477900821268,64.2597190082127 L 118.81831900821288,55.63961900821272" fill="none" id="path344-3" inkscape:connector-curvature="0" sodipodi:nodetypes="ccccccccccccccccccc" stroke-width="1" style="display:inline;opacity:1;vector-effect:none;fill:none;fill-opacity:1;stroke:#000000;stroke-width:1;stroke-linecap:round;stroke-linejoin:round;stroke-dasharray:none;stroke-dashoffset:0;stroke-opacity:1;marker:none" transform="translate(529.133864459916,154.9606317346897) rotate(90)"/>
	<path d="M 22.236519008212554,75.56331900821249 L 20.278819008212622,102.2875190082126" fill="none" id="path1-8" inkscape:connector-curvature="0" stroke-width="1" style="display:inline;opacity:1;vector-effect:none;fill:none;fill-opacity:1;stroke:#000000;stroke-width:1;stroke-linecap:round;stroke-linejoin:round;stroke-dasharray:none;stroke-dashoffset:0;stroke-opacity:1;marker:none" transform="translate(691.653551401176,143.62204892483436) rotate(90)"/>
	<path d="M 69.93071900821246,9.51471900821241 L 22.236519008212554,75.56331900821249" fill="none" id="path2-7" inkscape:connector-curvature="0" stroke-width="1" style="display:inline;opacity:1;vector-effect:none;fill:none;fill-opacity:1;stroke:#000000;stroke-width:1;stroke-linecap:round;stroke-linejoin:round;stroke-dasharray:none;stroke-dashoffset:0;stroke-opacity:1;marker:none" transform="translate(691.653551401176,143.62204892483436) rotate(90)"/>
	<path d="M 20.278819008212622,102.2875190082126 L 31.19961900821272,139.15741900821274" fill="none" id="path3-7" inkscape:connector-curvature="0" stroke-width="1" style="display:inline;opacity:1;vector-effect:none;fill:none;fill-opacity:1;stroke:#000000;stroke-width:1;stroke-linecap:round;stroke-linejoin:round;stroke-dasharray:none;stroke-dashoffset:0;stroke-opacity:1;marker:none" transform="translate(691.653551401176,143.62204892483436) rotate(90)"/>
	<path d="M 133.3980190082125,101.68911900821274 L 131.15771900821255,74.98721900821272" fill="none" id="path4-6" inkscape:connector-curvature="0" stroke-width="1" style="display:inline;opacity:1;vector-effect:none;fill:none;fill-opacity:1;stroke:#000000;stroke-width:1;stroke-linecap:round;stroke-linejoin:round;stroke-dasharray:none;stroke-dashoffset:0;stroke-opacity:1;marker:none" transform="translate(691.653551401176,143.62204892483436) rotate(90)"/>
	<path d="M 131.15771900821255,74.98721900821272 L 83.07241900821259,9.448819008212809" fill="none" id="path5-3" inkscape:connector-curvature="0" stroke-width="1" style="display:inline;opacity:1;vector-effect:none;fill:none;fill-opacity:1;stroke:#000000;stroke-width:1;stroke-linecap:round;stroke-linejoin:round;stroke-dasharray:none;stroke-dashoffset:0;stroke-opacity:1;marker:none" transform="translate(691.653551401176,143.62204892483436) rotate(90)"/>
	<path d="M 123.1240190082126,138.59081900821263 L 133.3980190082125,101.68911900821274" fill="none" id="path6-5" inkscape:connector-curvature="0" stroke-width="1" style="display:inline;opacity:1;vector-effect:none;fill:none;fill-opacity:1;stroke:#000000;stroke-width:1;stroke-linecap:round;stroke-linejoin:round;stroke-dasharray:none;stroke-dashoffset:0;stroke-opacity:1;marker:none" transform="translate(691.653551401176,143.62204892483436) rotate(90)"/>
	<path d="M 83.07241900821259,9.448819008212809 L 76.7956190082125,68.13851900821271" fill="none" id="path7-2" inkscape:connector-curvature="0" stroke-width="1" style="display:inline;opacity:1;vector-effect:none;fill:none;fill-opacity:1;stroke:#000000;stroke-width:1;stroke-linecap:round;stroke-linejoin:round;stroke-dasharray:none;stroke-dashoffset:0;stroke-opacity:1;marker:none" transform="translate(691.653551401176,143.62204892483436) rotate(90)"/>
	<path d="M 76.7956190082125,68.13851900821271 L 69.93071900821246,9.514719008212865 L 46.915819008212566,22.01851900821282 L 16.87641900821245,63.61811900821283 L 22.236519008212554,75.56331900821294 L 10.450019008212621,81.26371900821312 L 9.448819008212695,94.93021900821293 L 20.278819008212622,102.28751900821305 L 11.266319008212577,111.78441900821315 L 31.199619008212494,139.1574190082132 L 49.02851900821247,108.68381900821339 L 76.7956190082125,93.89231900821358 L 104.71761900821252,108.38931900821342 L 123.1240190082126,138.59081900821354 L 142.56531900821255,111.03681900821346 L 133.3980190082125,101.68911900821365 L 144.14961900821254,94.21771900821375 L 143.0039190082125,80.5626190082138 L 131.15771900821255,74.98721900821363 L 136.42711900821246,63.001719008213854 L 105.42541900821243,20.747619008213746 L 83.07241900821236,9.448819008213718 L 70.57151900821236,14.987219008213629 L 76.7956190082125,68.13851900821271" fill="none" id="path299-3" inkscape:connector-curvature="0" sodipodi:nodetypes="cccccccccccccccccccccccc" stroke-width="1" style="display:inline;opacity:1;vector-effect:none;fill:none;fill-opacity:1;stroke:#000000;stroke-width:1;stroke-linecap:round;stroke-linejoin:round;stroke-dasharray:none;stroke-dashoffset:0;stroke-opacity:1;marker:none" transform="translate(691.653551401176,143.62204892483436) rotate(90)"/>
	<path d="M 106.61731900821292,112.35321900821265 L 156.82781900821283,104.4788190082125 L 203.94361900821286,84.85631900821255 L 167.49631900821282,9.448819008212752 L 137.15411900821277,19.637719008212855 L 106.71401900821274,20.669019008212956 L 75.54311900821267,20.48791900821317 L 44.996119008212645,9.471119008213293 L 9.448819008212695,85.30701900821333 L 56.14051900821278,106.01961900821317 L 106.61731900821292,112.35321900821265" fill="none" id="path358" inkscape:connector-curvature="0" stroke-width="1" style="display:inline;opacity:1;vector-effect:none;fill:none;fill-opacity:1;stroke:#000000;stroke-width:1;stroke-linecap:round;stroke-linejoin:round;stroke-dasharray:none;stroke-dashoffset:0;stroke-opacity:1;marker:none" transform="translate(257.0078770233878,362.834649915371) rotate(90)"/>
	<path d="M 131.7903190082127,35.005019008212344 L 104.66041900821267,29.325819008212306" fill="none" id="path295" inkscape:connector-curvature="0" stroke-width="1" style="display:inline;opacity:1;vector-effect:none;fill:none;fill-opacity:1;stroke:#000000;stroke-width:1;stroke-linecap:round;stroke-linejoin:round;stroke-dasharray:none;stroke-dashoffset:0;stroke-opacity:1;marker:none" transform="translate(608.5039441289034,646.2992201617546) rotate(90)"/>
	<path d="M 104.66041900821267,29.325819008212306 L 79.15286900821263,27.536719008212344" fill="none" id="path296" inkscape:connector-curvature="0" stroke-width="1" style="display:inline;opacity:1;vector-effect:none;fill:none;fill-opacity:1;stroke:#000000;stroke-width:1;stroke-linecap:round;stroke-linejoin:round;stroke-dasharray:none;stroke-dashoffset:0;stroke-opacity:1;marker:none" transform="translate(608.5039441289034,646.2992201617546) rotate(90)"/>
	<path d="M 54.21153900821275,29.34721900821239 L 27.43478900821276,34.61561900821232" fill="none" id="path297" inkscape:connector-curvature="0" stroke-width="1" style="display:inline;opacity:1;vector-effect:none;fill:none;fill-opacity:1;stroke:#000000;stroke-width:1;stroke-linecap:round;stroke-linejoin:round;stroke-dasharray:none;stroke-dashoffset:0;stroke-opacity:1;marker:none" transform="translate(608.5039441289034,646.2992201617546) rotate(90)"/>
	<path d="M 27.434789008212647,34.61561900821232 L 32.864079008212684,103.78901900821245" fill="none" id="path298" inkscape:connector-curvature="0" stroke-width="1" style="display:inline;opacity:1;vector-effect:none;fill:none;fill-opacity:1;stroke:#000000;stroke-width:1;stroke-linecap:round;stroke-linejoin:round;stroke-dasharray:none;stroke-dashoffset:0;stroke-opacity:1;marker:none" transform="translate(608.5039441289034,646.2992201617546) rotate(90)"/>
	<path d="M 79.15286900821275,27.536719008212344 L 54.21153900821275,29.34721900821239" fill="none" id="path299" inkscape:connector-curvature="0" stroke-width="1" style="display:inline;opacity:1;vector-effect:none;fill:none;fill-opacity:1;stroke:#000000;stroke-width:1;stroke-linecap:round;stroke-linejoin:round;stroke-dasharray:none;stroke-dashoffset:0;stroke-opacity:1;marker:none" transform="translate(608.5039441289034,646.2992201617546) rotate(90)"/>
	<path d="M 56.05843900821276,102.97301900821265 L 79.15286900821275,102.09421900821269 L 69.26157900821272,121.96471900821268 L 76.49936900821274,138.32341900821245 L 95.31124900821271,139.1879190082126 L 109.32827900821269,130.3121190082128 L 102.26951900821268,102.96701900821279 L 125.46905900821264,104.1027190082126 L 131.7903190082127,35.005119008212546 L 124.9833090082127,14.272919008212625 L 119.21151900821269,13.064719008212592 L 104.66041900821267,29.32591900821251 L 95.0988090082127,9.711119008212677 L 91.35888900821271,9.448819008212809 L 79.15286900821275,27.536819008213 L 66.90269900821272,9.478719008212806 L 63.7252490082127,9.709219008212926 L 54.21153900821275,29.347219008212846 L 39.85801900821275,12.9113190082129 L 34.49188900821275,13.967219008212737 L 27.43478900821276,34.615619008212775 L 9.448819008212809,46.97141900821259 L 13.170669008212826,94.39061900821241 L 32.8640790082128,103.78901900821245 L 25.988969008212848,132.21451900821228 L 39.610769008212856,139.11881900821243 L 58.4299090082128,138.42961900821263 L 66.05898900821285,123.88321900821245 L 56.05843900821276,102.97301900821265" fill="none" id="path353" inkscape:connector-curvature="0" stroke-width="1" style="display:inline;opacity:1;vector-effect:none;fill:none;fill-opacity:1;stroke:#000000;stroke-width:1;stroke-linecap:round;stroke-linejoin:round;stroke-dasharray:none;stroke-dashoffset:0;stroke-opacity:1;marker:none" transform="translate(608.5039441289034,646.2992201617546) rotate(90)"/>
	<path d="M 91.29051900821287,33.53411900821254 L 64.33831900821292,23.172919008212716" fill="none" id="path22" inkscape:connector-curvature="0" stroke-width="1" style="display:inline;opacity:1;vector-effect:none;fill:none;fill-opacity:1;stroke:#000000;stroke-width:1;stroke-linecap:round;stroke-linejoin:round;stroke-dasharray:none;stroke-dashoffset:0;stroke-opacity:1;marker:none" transform="translate(517.7952816500607,306.1417358660943)"/>
	<path d="M 99.3433190082128,37.25131900821259 L 91.29051900821287,33.53411900821254" fill="none" id="path23" inkscape:connector-curvature="0" stroke-width="1" style="display:inline;opacity:1;vector-effect:none;fill:none;fill-opacity:1;stroke:#000000;stroke-width:1;stroke-linecap:round;stroke-linejoin:round;stroke-dasharray:none;stroke-dashoffset:0;stroke-opacity:1;marker:none" transform="translate(517.7952816500607,306.1417358660943)"/>
	<path d="M 35.27391900821294,33.499019008212485 L 31.54841900821293,58.47141900821259" fill="none" id="path24" inkscape:connector-curvature="0" stroke-width="1" style="display:inline;opacity:1;vector-effect:none;fill:none;fill-opacity:1;stroke:#000000;stroke-width:1;stroke-linecap:round;stroke-linejoin:round;stroke-dasharray:none;stroke-dashoffset:0;stroke-opacity:1;marker:none" transform="translate(517.7952816500607,306.1417358660943)"/>
	<path d="M 30.947319008212844,73.20821900821272 L 28.034119008212883,177.39521900821262" fill="none" id="path25" inkscape:connector-curvature="0" stroke-width="1" style="display:inline;opacity:1;vector-effect:none;fill:none;fill-opacity:1;stroke:#000000;stroke-width:1;stroke-linecap:round;stroke-linejoin:round;stroke-dasharray:none;stroke-dashoffset:0;stroke-opacity:1;marker:none" transform="translate(517.7952816500607,306.1417358660943)"/>
	<path d="M 62.641619008212956,178.23781900821257 L 72.48531900821285,75.9773190082127" fill="none" id="path26" inkscape:connector-curvature="0" stroke-width="1" style="display:inline;opacity:1;vector-effect:none;fill:none;fill-opacity:1;stroke:#000000;stroke-width:1;stroke-linecap:round;stroke-linejoin:round;stroke-dasharray:none;stroke-dashoffset:0;stroke-opacity:1;marker:none" transform="translate(517.7952816500607,306.1417358660943)"/>
	<path d="M 81.88211900821284,282.5754190082124 L 62.64161900821273,178.23781900821257 L 82.4977190082127,169.18821900821274 L 90.25061900821265,88.64841900821273 L 72.48531900821263,75.9773190082127 L 85.52631900821257,59.1643190082126 L 99.34331900821257,37.25131900821259 L 99.96671900821252,16.732319008212812 L 81.30331900821261,9.448819008212809 L 64.3383190082127,23.172919008212716 L 35.273919008212715,33.49901900821294 L 14.973219008212709,41.50181900821315 L 14.467519008212776,44.89191900821322 L 31.548419008212704,58.47141900821305 L 30.947319008212617,73.20821900821318 L 11.75211900821273,83.58631900821308 L 9.448819008212695,165.96071900821323 L 28.034119008212656,177.39521900821308 L 25.942319008212735,280.18121900821313 L 81.88211900821284,282.5754190082124" fill="none" id="path305" inkscape:connector-curvature="0" sodipodi:nodetypes="cccccccccccccccccccc" stroke-width="1" style="display:inline;opacity:1;vector-effect:none;fill:none;fill-opacity:1;stroke:#000000;stroke-width:1;stroke-linecap:round;stroke-linejoin:round;stroke-dasharray:none;stroke-dashoffset:0;stroke-opacity:1;marker:none" transform="translate(517.7952816500607,306.1417358660943)"/>
	<path d="M 65.50579900821288,36.965819008212634 L 32.29247900821292,34.94411900821285" fill="none" id="path54" inkscape:connector-curvature="0" stroke-width="1" style="display:inline;opacity:1;vector-effect:none;fill:none;fill-opacity:1;stroke:#000000;stroke-width:1;stroke-linecap:round;stroke-linejoin:round;stroke-dasharray:none;stroke-dashoffset:0;stroke-opacity:1;marker:none" transform="translate(381.7322879317966,491.3385884270649) rotate(90)"/>
	<path d="M 95.47922900821288,51.542019008212606 L 65.50579900821288,36.965819008212634" fill="none" id="path55" inkscape:connector-curvature="0" stroke-width="1" style="display:inline;opacity:1;vector-effect:none;fill:none;fill-opacity:1;stroke:#000000;stroke-width:1;stroke-linecap:round;stroke-linejoin:round;stroke-dasharray:none;stroke-dashoffset:0;stroke-opacity:1;marker:none" transform="translate(381.7322879317966,491.3385884270649) rotate(90)"/>
	<path d="M 125.59940900821289,60.354719008212555 L 95.47922900821288,51.542019008212606" fill="none" id="path56" inkscape:connector-curvature="0" stroke-width="1" style="display:inline;opacity:1;vector-effect:none;fill:none;fill-opacity:1;stroke:#000000;stroke-width:1;stroke-linecap:round;stroke-linejoin:round;stroke-dasharray:none;stroke-dashoffset:0;stroke-opacity:1;marker:none" transform="translate(381.7322879317966,491.3385884270649) rotate(90)"/>
	<path d="M 140.46398900821282,33.82161900821245 L 125.59940900821277,60.354719008212555" fill="none" id="path57" inkscape:connector-curvature="0" stroke-width="1" style="display:inline;opacity:1;vector-effect:none;fill:none;fill-opacity:1;stroke:#000000;stroke-width:1;stroke-linecap:round;stroke-linejoin:round;stroke-dasharray:none;stroke-dashoffset:0;stroke-opacity:1;marker:none" transform="translate(381.7322879317966,491.3385884270649) rotate(90)"/>
	<path d="M 188.04088900821284,95.65071900821238 L 140.46398900821282,33.82161900821245" fill="none" id="path58" inkscape:connector-curvature="0" stroke-width="1" style="display:inline;opacity:1;vector-effect:none;fill:none;fill-opacity:1;stroke:#000000;stroke-width:1;stroke-linecap:round;stroke-linejoin:round;stroke-dasharray:none;stroke-dashoffset:0;stroke-opacity:1;marker:none" transform="translate(381.7322879317966,491.3385884270649) rotate(90)"/>
	<path d="M 125.59940900821289,60.354719008212555 L 116.15183900821285,30.214519008212733 L 109.40126900821281,27.629719008212646 L 95.47922900821277,51.542019008212606 L 101.71005900821274,24.560919008212636 L 76.95308900821271,13.517419008212414 L 65.50579900821276,36.965819008212634 L 66.54694900821278,11.518219008212668 L 43.489789008212824,9.448819008212809 L 32.29247900821281,34.94411900821285 L 9.448819008212809,109.54011900821286 L 45.454339008212855,120.12441900821284 L 101.76608900821282,127.0068190082128 L 139.02628900821287,124.53241900821274 L 188.04088900821284,95.65071900821283 L 196.3640890082129,75.47921900821291 L 162.0945890082129,30.9439190082129 L 140.46398900821293,33.821619008212906 L 119.70539900821291,26.32581900821276 L 116.15183900821296,30.214519008212733 L 125.59940900821289,60.354719008212555" fill="none" id="path313" inkscape:connector-curvature="0" sodipodi:nodetypes="ccccccccccccccccccccc" stroke-width="1" style="display:inline;opacity:1;vector-effect:none;fill:none;fill-opacity:1;stroke:#000000;stroke-width:1;stroke-linecap:round;stroke-linejoin:round;stroke-dasharray:none;stroke-dashoffset:0;stroke-opacity:1;marker:none" transform="translate(381.7322879317966,491.3385884270649) rotate(90)"/>
	<path d="M 36.659691008212796,25.92331900821216 L 9.448819008212801,31.200819008212306" fill="none" id="path280" inkscape:connector-curvature="0" stroke-width="1" style="display:inline;opacity:1;vector-effect:none;fill:none;fill-opacity:1;stroke:#000000;stroke-width:1;stroke-linecap:round;stroke-linejoin:round;stroke-dasharray:none;stroke-dashoffset:0;stroke-opacity:1;marker:none" transform="translate(529.133864459916,517.7952816500607) rotate(90)"/>
	<path d="M 57.39177700821279,40.89041900821201 L 36.659691008212796,25.92331900821216" fill="none" id="path281" inkscape:connector-curvature="0" stroke-width="1" style="display:inline;opacity:1;vector-effect:none;fill:none;fill-opacity:1;stroke:#000000;stroke-width:1;stroke-linecap:round;stroke-linejoin:round;stroke-dasharray:none;stroke-dashoffset:0;stroke-opacity:1;marker:none" transform="translate(529.133864459916,517.7952816500607) rotate(90)"/>
	<path d="M 81.92393700821279,49.63061900821219 L 57.39177700821278,40.89041900821201" fill="none" id="path282" inkscape:connector-curvature="0" stroke-width="1" style="display:inline;opacity:1;vector-effect:none;fill:none;fill-opacity:1;stroke:#000000;stroke-width:1;stroke-linecap:round;stroke-linejoin:round;stroke-dasharray:none;stroke-dashoffset:0;stroke-opacity:1;marker:none" transform="translate(529.133864459916,517.7952816500607) rotate(90)"/>
	<path d="M 100.84878700821281,31.321419008212047 L 81.92393700821282,49.63061900821219" fill="none" id="path283" inkscape:connector-curvature="0" stroke-width="1" style="display:inline;opacity:1;vector-effect:none;fill:none;fill-opacity:1;stroke:#000000;stroke-width:1;stroke-linecap:round;stroke-linejoin:round;stroke-dasharray:none;stroke-dashoffset:0;stroke-opacity:1;marker:none" transform="translate(529.133864459916,517.7952816500607) rotate(90)"/>
	<path d="M 103.68297700821279,103.18231900821218 L 100.84878700821278,31.321419008212047" fill="none" id="path284" inkscape:connector-curvature="0" stroke-width="1" style="display:inline;opacity:1;vector-effect:none;fill:none;fill-opacity:1;stroke:#000000;stroke-width:1;stroke-linecap:round;stroke-linejoin:round;stroke-dasharray:none;stroke-dashoffset:0;stroke-opacity:1;marker:none" transform="translate(529.133864459916,517.7952816500607) rotate(90)"/>
	<path d="M 81.92393700821279,49.630719008212395 L 77.98845700821278,28.167419008212505 L 74.01179700821277,26.75061900821254 L 57.39177700821278,40.890519008212664 L 59.60706700821277,19.18211900821268 L 56.56733700821277,16.98761900821262 L 36.65969100821277,25.923419008212818 L 22.350569008212766,9.448819008212809 L 16.56161800821277,10.571619008212906 L 9.448819008212766,31.200919008212963 L 11.260157008212765,103.09491900821274 L 34.296084008212766,106.0706190082127 L 27.763197008212764,133.5460190082125 L 41.94774900821276,142.15141900821243 L 60.73959700821276,140.92611900821237 L 67.66229700821276,124.43161900821258 L 57.39177700821276,104.7545190082127 L 80.49564700821279,104.17641900821252 L 72.15506700821277,125.80261900821267 L 80.89472700821278,139.71021900821268 L 99.71046700821279,138.93071900821258 L 112.7525870082128,130.98561900821267 L 103.68297700821279,103.18241900821283 L 122.1359870082128,91.53561900821285 L 120.1617070082128,41.47881900821301 L 100.84878700821281,31.32151900821316 L 79.86745700821282,25.326119008213368 L 77.21531700821282,27.892019008213424" fill="none" id="path351" inkscape:connector-curvature="0" stroke-width="1" style="display:inline;opacity:1;vector-effect:none;fill:none;fill-opacity:1;stroke:#000000;stroke-width:1;stroke-linecap:round;stroke-linejoin:round;stroke-dasharray:none;stroke-dashoffset:0;stroke-opacity:1;marker:none" transform="translate(529.133864459916,517.7952816500607) rotate(90)"/>
	<path d="M 56.741819008212815,12.23331900821347 L 44.00921900821277,29.281019008213548" fill="none" id="path19" inkscape:connector-curvature="0" stroke-width="1" style="display:inline;opacity:1;vector-effect:none;fill:none;fill-opacity:1;stroke:#000000;stroke-width:1;stroke-linecap:round;stroke-linejoin:round;stroke-dasharray:none;stroke-dashoffset:0;stroke-opacity:1;marker:none" transform="translate(665.1968581781802,192.75590776754083)"/>
	<path d="M 70.41331900821297,122.79401900821347 L 72.06491900821288,65.89091900821347" fill="none" id="path20" inkscape:connector-curvature="0" stroke-width="1" style="display:inline;opacity:1;vector-effect:none;fill:none;fill-opacity:1;stroke:#000000;stroke-width:1;stroke-linecap:round;stroke-linejoin:round;stroke-dasharray:none;stroke-dashoffset:0;stroke-opacity:1;marker:none" transform="translate(665.1968581781802,192.75590776754083)"/>
	<path d="M 29.586419008212943,130.9968190082135 L 28.202519008212903,237.08461900821328" fill="none" id="path21" inkscape:connector-curvature="0" stroke-width="1" style="display:inline;opacity:1;vector-effect:none;fill:none;fill-opacity:1;stroke:#000000;stroke-width:1;stroke-linecap:round;stroke-linejoin:round;stroke-dasharray:none;stroke-dashoffset:0;stroke-opacity:1;marker:none" transform="translate(665.1968581781802,192.75590776754083)"/>
	<path d="M 28.202519008212903,237.08461900821328 L 72.69541900821287,241.0940190082132 L 70.41331900821297,122.79401900821301 L 89.61961900821302,112.43631900821299 L 90.63801900821295,77.34511900821315 L 72.06491900821288,65.89091900821302 L 56.741819008212815,12.233319008213016 L 35.23481900821275,9.448819008212809 L 44.00921900821277,29.28101900821264 L 29.586419008212715,130.99681900821258 L 10.54811900821278,141.6599190082128 L 9.448819008212695,225.92841900821293 L 28.202519008212903,237.08461900821328" fill="none" id="path304" inkscape:connector-curvature="0" stroke-width="1" style="display:inline;opacity:1;vector-effect:none;fill:none;fill-opacity:1;stroke:#000000;stroke-width:1;stroke-linecap:round;stroke-linejoin:round;stroke-dasharray:none;stroke-dashoffset:0;stroke-opacity:1;marker:none" transform="translate(665.1968581781802,192.75590776754083)"/>
</svg>
