<?xml version="1.0" ?>
<svg xmlns="http://www.w3.org/2000/svg" xmlns:cc="http://creativecommons.org/ns#" xmlns:dc="http://purl.org/dc/elements/1.1/" xmlns:ev="http://www.w3.org/2001/xml-events" xmlns:inkscape="http://www.inkscape.org/namespaces/inkscape" xmlns:rdf="http://www.w3.org/1999/02/22-rdf-syntax-ns#" xmlns:sodipodi="http://sodipodi.sourceforge.net/DTD/sodipodi-0.dtd" xmlns:svg="http://www.w3.org/2000/svg" xmlns:xlink="http://www.w3.org/1999/xlink" baseProfile="full" height="210mm" id="svg1" inkscape:version="0.92.4 (5da689c313, 2019-01-14)" sodipodi:docname="e190-e2.svg" version="1.1" viewBox="0 0 297.0000000000151 210.0000000000107" width="297mm">
	<defs/>
	<path d="M 10.273800000000051,2.5625 L 10.420590000000061,5.570029999999974 C 10.531070000000113,7.833460000000002 10.589930000000095,11.748079999999959 10.658480000000054,21.392259999999965 C 10.708580000000097,28.440339999999992 10.795200000000023,39.87546999999995 10.8509600000001,46.80368999999996 C 10.928060000000073,56.38250999999997 10.928060000000073,63.80723999999998 10.8508700000001,77.79431999999997 C 10.630230000000097,117.77274 10.587640000000079,122.83659999999998 10.433920000000057,127.37495999999999 L 10.284060000000068,131.79906999999997 M 6.307390000000055,131.79906999999997 L 6.305390000000102,131.51574999999997 L 6.30533000000014,131.51574999999997 C 6.304330000000164,131.35994 6.2460300000001325,129.87905999999998 6.176350000000184,128.2249 C 6.042640000000233,125.05066 5.944950000000176,114.84451999999999 5.779190000000199,86.72973000000002 C 5.660840000000235,66.65794 5.662040000000161,48.828160000000025 5.7821900000002415,38.957970000000046 C 5.832790000000273,34.81063000000006 5.914030000000253,26.062640000000044 5.962790000000268,19.517990000000054 C 6.022590000000264,11.485240000000033 6.091600000000312,6.882140000000049 6.17501000000027,5.352100000000064 C 6.243010000000254,4.105500000000063 6.300560000000246,2.95733000000007 6.30299000000025,2.800610000000063 L 6.306990000000269,2.5156500000000506" fill="none" id="path4772" inkscape:connector-curvature="0" sodipodi:nodetypes="csssssccccssssscc" stroke-width="1" style="color:#000000;clip-rule:nonzero;display:inline;overflow:visible;visibility:visible;opacity:1;isolation:auto;mix-blend-mode:normal;color-interpolation:sRGB;color-interpolation-filters:linearRGB;solid-color:#000000;solid-opacity:1;vector-effect:none;fill:none;fill-opacity:1;fill-rule:nonzero;stroke:#000000;stroke-width:1;stroke-linecap:round;stroke-linejoin:round;stroke-dasharray:none;stroke-dashoffset:0;stroke-opacity:1;marker:none;marker-start:none;marker-mid:none;marker-end:none;color-rendering:auto;image-rendering:auto;shape-rendering:auto;text-rendering:auto;enable-background:accumulate;" transform="translate(0.0,76.00000000000387)"/>
	<path d="M 6.157330000000115,2.5 L 3.3516400000000885,5.305679999999995 L 6.307810000000131,8.46193999999997 L 2.8511300000001256,11.71796999999998 L 3.0010700000001407,14.824070000000006 L 5.957230000000095,17.880560000000003 L 2.800980000000095,21.036819999999977 L 2.9007800000000543,32.90999999999997 L 5.806780000000003,36.26634999999999 L 2.6505300000000034,38.370889999999974 L 5.856940000000009,40.72512999999998 L 2.6505300000000034,43.73145999999997 L 2.6003299999999854,60.61462999999998 L 5.656259999999975,63.67057 L 2.5,66.77667000000002 L 2.700649999999996,76.24544000000003 L 5.856909999999971,79.45186000000001 L 2.7508100000000013,82.40748000000002 L 2.8010100000000193,94.13073000000003 L 5.957260000000019,97.48708000000005 L 2.7006900000000087,100.39308000000005 L 2.8010100000000193,109.46058000000005 L 5.907109999999989,112.76732000000004 L 2.851159999999936,115.77310000000006 L 3.0512599999999566,121.43408000000005 L 6.057029999999941,124.34009000000003 L 3.101419999999962,127.69644000000005 L 3.15161999999998,128.99896000000007 L 6.307879999999955,131.8046500000001 L 10.304189999999949,131.8046500000001 L 13.460439999999949,128.99896000000007 L 13.510639999999967,127.69644000000005 L 10.554480000000012,124.34009000000003 L 13.560249999999996,121.43408000000005 L 13.760899999999992,115.77310000000006 L 10.704960000000028,112.76732000000004 L 13.811059999999998,109.46058000000005 L 13.911380000000008,100.39308000000005 L 10.654800000000023,97.48708000000005 L 13.811059999999998,94.13073000000003 L 13.861260000000016,82.40748000000002 L 10.755160000000046,79.45186000000001 L 13.911420000000021,76.24544000000003 L 14.111510000000067,66.77667000000002 L 10.955260000000067,63.67057 L 14.011190000000056,60.61462999999998 L 13.961590000000001,43.73145999999997 L 10.755170000000021,40.72512999999998 L 13.961590000000001,38.370889999999974 L 10.805330000000026,36.26634999999999 L 13.710789999999974,32.90999999999997 L 13.811109999999985,21.036819999999977 L 10.65485000000001,17.880560000000003 L 13.610469999999964,14.824070000000006 L 13.76094999999998,11.71796999999998 L 10.304279999999949,8.46193999999997 L 13.259899999999902,5.305679999999995 L 10.454209999999875,2.5 L 6.157330000000115,2.5" fill="none" id="path5224" inkscape:connector-curvature="0" sodipodi:nodetypes="ccccccccccccccccccccccccccccccccccccccccccccccccccccccccccc" stroke-width="1" style="color:#000000;clip-rule:nonzero;display:inline;overflow:visible;visibility:visible;opacity:1;isolation:auto;mix-blend-mode:normal;color-interpolation:sRGB;color-interpolation-filters:linearRGB;solid-color:#000000;solid-opacity:1;vector-effect:none;fill:none;fill-opacity:1;fill-rule:nonzero;stroke:#000000;stroke-width:1;stroke-linecap:round;stroke-linejoin:round;stroke-dasharray:none;stroke-dashoffset:0;stroke-opacity:1;marker:none;marker-start:none;marker-mid:none;marker-end:none;color-rendering:auto;image-rendering:auto;shape-rendering:auto;text-rendering:auto;enable-background:accumulate;" transform="translate(0.0,76.00000000000387)"/>
	<path d="M 5.9228899999999385,2.5172900000000027 L 5.9228899999999385,36.559019999999975 L 5.9228899999999385,70.60078999999996 L 8.712479999999914,70.60078999999996 L 11.50206999999989,70.60078999999996" fill="none" id="path5607" inkscape:connector-curvature="0" sodipodi:nodetypes="ccccc" stroke-width="1" style="color:#000000;clip-rule:nonzero;display:inline;overflow:visible;visibility:visible;opacity:1;isolation:auto;mix-blend-mode:normal;color-interpolation:sRGB;color-interpolation-filters:linearRGB;solid-color:#000000;solid-opacity:1;vector-effect:none;fill:none;fill-opacity:1;fill-rule:nonzero;stroke:#000000;stroke-width:1;stroke-linecap:round;stroke-linejoin:round;stroke-dasharray:none;stroke-dashoffset:0;stroke-opacity:1;marker:none;marker-start:none;marker-mid:none;marker-end:none;color-rendering:auto;image-rendering:auto;shape-rendering:auto;text-rendering:auto;enable-background:accumulate;" transform="translate(101.00000000000513,0.0)"/>
	<path d="M 5.901049999999941,2.5 L 5.923049999999989,2.5568000000000097 L 5.923049999999989,2.5171000000000276 L 8.712189999999964,2.5171000000000276 L 11.501899999999978,2.5171000000000276 L 11.501899999999978,36.559060000000045 L 11.501899999999978,70.60102000000006 L 8.712189999999964,73.75386000000009 L 5.940849999999955,70.5658800000001 L 2.5,67.84658000000013 L 5.900999999999954,65.00562000000014 L 2.5,62.16466000000014 L 5.900999999999954,59.32315000000011 L 2.5,56.482180000000085 L 5.900999999999954,53.64122000000009 L 2.5,50.79970000000009 L 5.900999999999954,47.95874000000009 L 2.5,45.117780000000096 L 5.900999999999954,42.27626000000009 L 2.5,39.4353000000001 L 5.900999999999954,36.59433000000007 L 2.5,33.75282000000004 L 5.900999999999954,30.911850000000015 L 2.5,28.07089000000002 L 5.900999999999954,25.229379999999992 L 2.5,22.388409999999965 L 5.900999999999954,19.546899999999937 L 2.5,16.70592999999991 L 5.900999999999954,13.864969999999914 L 2.5,11.023449999999912 L 5.900999999999954,8.182489999999916 L 2.5,5.341529999999921 L 5.901049999999941,2.5" fill="none" id="path5623" inkscape:connector-curvature="0" sodipodi:nodetypes="ccccccccccccccccccccccccccccccccc" stroke-width="1" style="color:#000000;clip-rule:nonzero;display:inline;overflow:visible;visibility:visible;opacity:1;isolation:auto;mix-blend-mode:normal;color-interpolation:sRGB;color-interpolation-filters:linearRGB;solid-color:#000000;solid-opacity:1;vector-effect:none;fill:none;fill-opacity:1;fill-rule:nonzero;stroke:#000000;stroke-width:1;stroke-linecap:round;stroke-linejoin:round;stroke-dasharray:none;stroke-dashoffset:0;stroke-opacity:1;marker:none;marker-start:none;marker-mid:none;marker-end:none;color-rendering:auto;image-rendering:auto;shape-rendering:auto;text-rendering:auto;enable-background:accumulate;" transform="translate(101.00000000000513,0.0)"/>
	<path d="M 29.149909999999863,3.484579999999994 C 15.047259999999824,11.597620000000006 5.277709999999843,26.28797 5.277709999999843,43.653999999999996 C 5.277709999999843,61.19358 20.40654999999981,80.91617 42.903049999999894,80.91617 C 65.39953999999989,80.91617 80.38886999999988,62.825500000000005 80.38886999999988,43.653999999999996 C 80.38886999999988,26.62953999999999 70.60929999999985,11.158510000000007 56.94407999999987,3.537489999999991 L 47.101109999999835,20.30010999999999" fill="none" id="path4106" inkscape:connector-curvature="0" sodipodi:nodetypes="cssscc" stroke-width="1" style="color:#000000;clip-rule:nonzero;display:inline;overflow:visible;visibility:visible;opacity:1;isolation:auto;mix-blend-mode:normal;color-interpolation:sRGB;color-interpolation-filters:linearRGB;solid-color:#000000;solid-opacity:1;vector-effect:none;fill:none;fill-opacity:1;fill-rule:nonzero;stroke:#000000;stroke-width:1;stroke-linecap:round;stroke-linejoin:round;stroke-dasharray:none;stroke-dashoffset:0;stroke-opacity:1;marker:none;marker-start:none;marker-mid:none;marker-end:none;color-rendering:auto;image-rendering:auto;shape-rendering:auto;text-rendering:auto;enable-background:accumulate;" transform="translate(0.0,5.000000000000254)"/>
	<path d="M 29.0555599999999,3.353049999999996 L 24.753279999999904,2.5 L 24.122769999999946,6.72811999999999 L 19.74628999999993,6.283050000000003 L 19.523759999999925,10.65952999999999 L 15.14727999999991,10.696629999999999 L 15.481059999999957,15.03603000000001 L 11.10460999999998,15.666539999999998 L 11.994739999999979,19.894649999999984 L 7.766599999999926,21.08147999999997 L 9.250159999999937,25.23542999999998 L 5.170409999999947,27.015679999999975 L 7.061919999999986,30.72455999999997 L 3.3901499999999487,33.061169999999976 L 5.800899999999956,36.584599999999966 L 2.5,39.32914999999997 L 5.318750000000023,42.59296999999998 L 2.537109999999984,45.74549999999999 L 5.763810000000035,48.67552999999998 L 3.4272399999999834,52.198969999999974 L 7.061919999999986,54.46136999999999 L 5.355829999999969,58.31859 L 9.361440000000016,59.913430000000005 L 8.174579999999992,64.14153999999999 L 12.402699999999982,65.14292 L 11.883460000000014,69.33395000000002 L 16.22285999999997,69.74193000000002 L 16.371189999999956,73.97004000000001 L 20.67349999999999,73.67334000000002 L 21.489460000000008,77.86437000000004 L 25.606300000000033,76.86299000000002 L 27.201130000000035,80.79437000000001 L 31.24380000000008,79.19957000000002 L 33.320760000000064,82.90844000000001 L 37.029640000000086,80.57184000000001 L 39.66294000000005,83.94694000000001 L 43.000920000000065,81.05402000000001 L 46.116370000000074,83.90985 L 48.89804000000004,80.57184000000001 L 52.53275000000008,82.87136000000001 L 54.79516000000012,79.05120000000002 L 58.65240000000017,80.83149000000003 L 60.21013000000016,76.82588000000004 L 64.40116000000012,77.79020000000003 L 65.21711000000016,73.71043000000003 L 69.51939000000016,74.00715000000002 L 69.81612000000018,69.74193000000002 L 74.00715000000014,69.29687000000001 L 73.5991600000001,65.06875000000002 L 77.7531100000001,64.03026000000003 L 76.6404500000001,59.95051000000004 L 80.49767000000008,58.24442000000005 L 78.82869000000005,54.27592000000004 L 82.46337000000005,52.05060000000003 L 80.1268,48.52717000000004 L 83.46478000000002,45.74550000000005 L 80.53478000000007,42.48169000000004 L 83.39061000000004,39.29207000000005 L 80.1268,36.547510000000045 L 82.50045999999998,32.98697000000004 L 78.79160000000002,30.650390000000044 L 80.68311000000006,26.793150000000054 L 76.6404500000001,25.161260000000055 L 78.16109000000006,21.044400000000053 L 73.85878000000002,19.783370000000048 L 74.74891000000002,15.592340000000036 L 70.44663000000003,15.03603000000004 L 70.63207999999997,10.696630000000027 L 66.36685,10.54827000000003 L 66.03304000000003,6.283070000000038 L 61.80493999999999,6.728140000000025 L 60.95190000000002,2.5371100000000126 L 52.64403000000004,4.502810000000011 L 46.00512000000003,16.148690000000016 L 47.11778000000004,20.302630000000022" fill="none" id="path5495" inkscape:connector-curvature="0" stroke-width="1" style="color:#000000;clip-rule:nonzero;display:inline;overflow:visible;visibility:visible;opacity:1;isolation:auto;mix-blend-mode:normal;color-interpolation:sRGB;color-interpolation-filters:linearRGB;solid-color:#000000;solid-opacity:1;vector-effect:none;fill:none;fill-opacity:1;fill-rule:nonzero;stroke:#000000;stroke-width:1;stroke-linecap:round;stroke-linejoin:round;stroke-dasharray:none;stroke-dashoffset:0;stroke-opacity:1;marker:none;marker-start:none;marker-mid:none;marker-end:none;color-rendering:auto;image-rendering:auto;shape-rendering:auto;text-rendering:auto;enable-background:accumulate;" transform="translate(0.0,5.000000000000254)"/>
	<path d="M 47.101109999999835,20.300110000000018 C 51.11088999999981,22.249950000000013 54.44771999999989,26.775360000000006 54.44771999999989,32.13580000000002 C 54.44771999999989,39.08815000000001 49.27604999999994,43.88330000000002 42.903049999999894,43.88330000000002 C 36.95591999999988,43.88330000000002 31.367209999999886,39.08815000000001 31.367209999999886,32.13580000000002 C 31.367209999999886,26.948730000000012 34.65156999999988,22.34190000000001 38.66090999999983,20.335380000000015 L 29.149909999999863,3.4845700000000193" fill="none" id="path4685" inkscape:connector-curvature="0" sodipodi:nodetypes="cssscc" stroke-width="1" style="color:#000000;clip-rule:nonzero;display:inline;overflow:visible;visibility:visible;opacity:1;isolation:auto;mix-blend-mode:normal;color-interpolation:sRGB;color-interpolation-filters:linearRGB;solid-color:#000000;solid-opacity:1;vector-effect:none;fill:none;fill-opacity:1;fill-rule:nonzero;stroke:#000000;stroke-width:1;stroke-linecap:round;stroke-linejoin:round;stroke-dasharray:none;stroke-dashoffset:0;stroke-opacity:1;marker:none;marker-start:none;marker-mid:none;marker-end:none;color-rendering:auto;image-rendering:auto;shape-rendering:auto;text-rendering:auto;enable-background:accumulate;" transform="translate(0.0,5.000000000000254)"/>
	<path d="M 35.39729999999986,94.877502 L 55.31269999999995,95.00848200000001 C 66.26620000000003,95.080582 75.25579999999991,95.114712 75.28970000000004,95.084382" fill="none" id="path12826" inkscape:connector-curvature="0" sodipodi:nodetypes="csc" stroke-width="1" style="color:#000000;clip-rule:nonzero;display:inline;overflow:visible;visibility:visible;opacity:1;isolation:auto;mix-blend-mode:normal;color-interpolation:sRGB;color-interpolation-filters:linearRGB;solid-color:#000000;solid-opacity:1;vector-effect:none;fill:none;fill-opacity:1;fill-rule:nonzero;stroke:#000000;stroke-width:1;stroke-linecap:round;stroke-linejoin:round;stroke-dasharray:none;stroke-dashoffset:0;stroke-opacity:1;marker:none;marker-start:none;marker-mid:none;marker-end:none;color-rendering:auto;image-rendering:auto;shape-rendering:auto;text-rendering:auto;enable-background:accumulate;" transform="translate(21.00000000000107,110.0000000000056)"/>
	<path d="M 74.60549999999989,34.362254300000004 L 75.95579999999995,39.8901863 M 75.93180000000007,39.894286300000005 L 75.93180000000007,39.894286300000005 M 70.18970000000013,30.860702300000007 L 70.18970000000013,30.860702300000007 L 74.62880000000018,34.414172300000004 M 22.820999999999913,2.5000000000000036 L 22.820999999999913,2.5000000000000036 L 22.820999999999913,2.5000000000000036 L 70.29719999999998,30.899731300000003 M 75.4556,95.075692 L 75.4556,95.075692 L 75.4556,95.075692 L 75.4556,95.075692 L 72.31840000000011,98.280742 L 38.4525000000001,97.992182 L 35.4824000000001,94.993032 L 35.4824000000001,94.993032 L 35.4824000000001,94.993032 M 75.4556,95.075732 L 75.4556,95.075732 L 75.4556,95.075732 M 75.93170000000009,39.894356300000005 L 75.32640000000015,95.07482200000001" fill="none" id="path12832" inkscape:connector-curvature="0" sodipodi:nodetypes="cccccccccccccccccccccccccccccccccccc" stroke-width="1" style="color:#000000;clip-rule:nonzero;display:inline;overflow:visible;visibility:visible;opacity:1;isolation:auto;mix-blend-mode:normal;color-interpolation:sRGB;color-interpolation-filters:linearRGB;solid-color:#000000;solid-opacity:1;vector-effect:none;fill:none;fill-opacity:1;fill-rule:nonzero;stroke:#000000;stroke-width:1;stroke-linecap:round;stroke-linejoin:round;stroke-dasharray:none;stroke-dashoffset:0;stroke-opacity:1;marker:none;marker-start:none;marker-mid:none;marker-end:none;color-rendering:auto;image-rendering:auto;shape-rendering:auto;text-rendering:auto;enable-background:accumulate;" transform="translate(21.00000000000107,110.0000000000056)"/>
	<path d="M 22.721000000000004,2.5491830000000064 L 12.610500000000002,19.819753000000006 L 2.5,37.090322300000004 L 4.314000000000078,38.0896253 C 9.795299999999997,41.109042300000006 23.339300000000094,48.77158200000001 27.49090000000001,51.20205200000001 L 32.28510000000006,54.008662 L 33.37920000000008,55.210392000000006 C 33.98090000000002,55.87130200000001 34.561300000000074,56.509102000000006 34.66890000000012,56.627662 C 35.02850000000012,57.024002 35.177700000000186,59.98415200000001 35.15380000000005,66.24404200000001 C 35.1418000000001,69.34832200000001 35.19180000000006,77.060782 35.26469999999995,83.38283200000001 L 35.39729999999986,94.877452" fill="none" id="path12838" inkscape:connector-curvature="0" sodipodi:nodetypes="cccsscscssc" stroke-width="1" style="color:#000000;clip-rule:nonzero;display:inline;overflow:visible;visibility:visible;opacity:1;isolation:auto;mix-blend-mode:normal;color-interpolation:sRGB;color-interpolation-filters:linearRGB;solid-color:#000000;solid-opacity:1;vector-effect:none;fill:none;fill-opacity:1;fill-rule:nonzero;stroke:#000000;stroke-width:1;stroke-linecap:round;stroke-linejoin:round;stroke-dasharray:none;stroke-dashoffset:0;stroke-opacity:1;marker:none;marker-start:none;marker-mid:none;marker-end:none;color-rendering:auto;image-rendering:auto;shape-rendering:auto;text-rendering:auto;enable-background:accumulate;" transform="translate(21.00000000000107,110.0000000000056)"/>
	<path d="M 25.737999999999943,27.6701599999995 L 25.58576999999991,45.14869999999951 L 25.433529999999905,62.627259999999524 L 24.20568999999989,72.58783999999952 C 23.530379999999923,78.06616999999949 22.977849999999876,82.58431999999954 22.977849999999876,82.62817999999953 C 22.977849999999876,82.70907999999952 18.864959999999883,86.01167999999956 18.67188999999985,86.08579999999955 C 18.590389999999843,86.11709999999954 15.345559999999864,83.38486999999952 14.590119999999843,82.64894999999956 C 14.457319999999868,82.51954999999958 14.375289999999836,81.35650999999956 13.863579999999843,72.34721999999954 L 13.286729999999807,62.19135999999952 L 14.254239999999754,44.756409999999505 L 15.22175999999979,27.321479999999497 L 16.44023999999979,18.77835999999951 C 17.110409999999774,14.079639999999529 17.65905999999984,10.17305999999951 17.65945999999974,10.097119999999506 C 17.659719999999766,10.021219999999516 16.958279999999718,9.057779999999525 16.100399999999695,7.9562899999995125 L 14.540609999999674,5.953559999999527 L 12.949389999999653,5.368879999999535 L 11.358179999999606,4.784199999999544 L 9.74328999999966,5.657249999999522 C 8.855099999999652,6.1374199999995085 8.102839999999674,6.530309999999531 8.071589999999674,6.530309999999531 C 8.040389999999661,6.530309999999531 7.709519999999657,7.560049999999535 7.336429999999723,8.818619999999555 L 6.6580899999996745,11.10695999999956 L 6.363899999999717,18.342469999999537 C 6.202099999999746,22.321989999999516 5.9708399999997255,27.40210999999954 5.849989999999707,29.63160999999951 C 5.6579899999997,33.17399999999952 5.630399999999668,34.410839999999496 5.631269999999745,39.4387799999995 C 5.633269999999698,50.43146999999948 6.1335499999997865,59.40218999999951 7.590879999999743,74.57018999999951 C 8.50681999999972,84.1033799999995 9.219959999999787,89.33769999999953 10.601709999999798,96.6689899999995 C 11.458849999999757,101.21685999999949 11.469659999999749,101.2629199999995 12.319859999999835,103.99166999999949 L 13.175439999999867,106.73766999999947 L 14.829379999999901,107.67226999999946 C 15.761409999999955,108.19895999999943 16.57845999999995,108.60481999999945 16.70126999999991,108.60216999999943 C 16.821129999999926,108.59916999999945 17.527249999999867,108.23070999999942 18.270409999999856,107.78247999999945 C 19.01357999999982,107.33427999999947 19.6804699999999,106.90916999999945 19.752379999999903,106.83779999999945 C 19.82427999999993,106.76649999999944 20.58886999999993,105.50271999999944 21.45141999999987,104.02954999999946 L 23.019689999999855,101.35102999999947 L 23.827769999999873,97.07036999999946 C 24.319619999999873,94.46485999999948 24.926639999999907,90.82814999999948 25.378929999999855,87.77714999999944 C 25.787619999999833,85.02026999999941 26.66779999999983,79.23402999999945 27.33488999999986,74.91887999999943 C 28.00197999999989,70.60372999999942 28.90156999999988,64.5625099999994 29.333979999999883,61.49395999999945 C 30.792539999999917,51.14356999999944 31.683459999999855,40.62495999999942 32.003159999999866,29.980289999999457 C 32.09465999999986,26.93265999999943 32.27817999999991,23.32207999999946 32.574469999999906,18.73799999999943 C 32.81452999999988,15.023979999999426 32.99933999999996,11.893689999999424 32.98514999999986,11.78183999999942" fill="none" id="path5711" inkscape:connector-curvature="0" sodipodi:nodetypes="cccsscsscccscscccssscsssssscscscscssssssc" stroke-width="1" style="color:#000000;clip-rule:nonzero;display:inline;overflow:visible;visibility:visible;opacity:1;isolation:auto;mix-blend-mode:normal;color-interpolation:sRGB;color-interpolation-filters:linearRGB;solid-color:#000000;solid-opacity:1;vector-effect:none;fill:none;fill-opacity:1;fill-rule:nonzero;stroke:#000000;stroke-width:1;stroke-linecap:round;stroke-linejoin:round;stroke-dasharray:none;stroke-dashoffset:0;stroke-opacity:1;marker:none;marker-start:none;marker-mid:none;marker-end:none;color-rendering:auto;image-rendering:auto;shape-rendering:auto;text-rendering:auto;enable-background:accumulate;" transform="translate(259.0000000000132,0.0)"/>
	<path d="M 32.93598999999995,11.774189999999521 L 35.91168999999991,14.962449999999535 L 35.344889999999964,22.401719999999557 L 32.15662999999995,25.094029999999577 L 35.13234,28.494839999999556 L 35.06143999999995,31.328849999999534 L 31.73147999999992,34.51710999999955 L 34.77803999999992,37.56365999999957 L 34.49463999999989,42.16892999999959 L 31.09382999999991,44.93208999999962 L 34.14038999999991,48.19119999999964 L 33.43188999999995,53.57580999999965 L 29.889369999999985,56.33896999999968 L 32.79422999999997,60.023179999999684 L 31.802329999999984,65.05354999999969 L 28.33066999999994,67.4624499999997 L 31.164679999999976,71.07581999999968 L 29.60597999999993,79.86123999999967 L 26.063459999999964,82.41184999999967 L 28.826619999999934,85.88350999999966 L 28.047269999999912,89.85111999999964 L 24.646459999999934,92.33087999999964 L 27.12621999999999,96.08593999999965 L 26.630269999999996,98.91994999999963 L 22.87519999999995,101.54140999999964 L 24.221360000000004,105.43816999999962 L 19.970350000000053,107.13857999999959 L 19.784040000000005,110.21213999999958 L 16.778130000000033,108.40857999999957 L 13.371410000000083,110.51272999999958 L 13.371410000000083,106.9056199999996 L 9.46372000000008,104.80147999999963 L 11.668060000000082,101.09417999999965 L 8.261350000000107,98.68943999999965 L 7.259380000000078,95.48312999999968 L 9.86451000000011,92.2768199999997 L 6.658190000000104,89.47128999999973 L 5.731370000000084,85.36319999999972 L 8.36155000000008,81.98152999999974 L 5.004940000000033,79.12590999999975 L 4.053060000000073,70.43378999999976 L 6.858590000000049,67.02707999999978 L 3.501980000000003,64.12135999999981 L 3.2013899999999467,59.011299999999835 L 6.157209999999964,55.60458999999986 L 2.850689999999986,52.84915999999987 L 2.6001999999999725,47.739099999999894 L 5.806519999999978,44.382489999999905 L 2.5,41.1761699999999 C 2.5,41.1761699999999 2.5,37.168279999999925 2.6503000000000156,36.91778999999991 C 2.8006000000000313,36.66728999999992 5.656219999999962,33.86176999999992 5.656219999999962,33.86176999999992 L 2.5500999999999294,30.60534999999993 L 2.850689999999986,27.449139999999943 L 6.107110000000034,24.64361999999994 L 3.1512900000000172,21.437299999999937 L 3.4017800000000307,13.972599999999943 L 6.858590000000049,11.016779999999926 L 4.203360000000089,7.91065999999995 L 7.96076000000005,6.708289999999977 L 8.060960000000023,2.9508899999999585 L 11.367470000000026,4.8045399999999745 L 14.122900000000072,2.5 L 14.523690000000101,5.756419999999991 L 18.58168000000012,6.006910000000005 L 17.62980000000016,10.064900000000023 L 20.23493000000019,13.722100000000012 L 18.68187000000023,24.894110000000012 L 15.124870000000215,27.74973 L 18.03059000000019,30.605349999999987 L 16.37734000000023,59.41208 L 13.321320000000242,62.21760999999998 L 16.5777300000002,65.32372999999995 L 17.329210000000216,79.25115999999997 L 14.473590000000172,82.55766999999997 L 18.782070000000203,82.00657999999999 L 18.631780000000163,86.21486999999996 L 18.681880000000206,81.95647999999994 L 22.840070000000196,82.85825999999992 L 20.33514000000025,79.25115999999991 L 21.988400000000297,65.0231399999999 L 25.545400000000313,62.418009999999924 L 22.43929000000037,59.46218999999991 L 22.63968000000034,30.75564999999989 L 25.84599000000037,27.6996299999999 L 32.93598999999995,11.774189999999521" fill="none" id="path5715" inkscape:connector-curvature="0" stroke-width="1" style="color:#000000;clip-rule:nonzero;display:inline;overflow:visible;visibility:visible;opacity:1;isolation:auto;mix-blend-mode:normal;color-interpolation:sRGB;color-interpolation-filters:linearRGB;solid-color:#000000;solid-opacity:1;vector-effect:none;fill:none;fill-opacity:1;fill-rule:nonzero;stroke:#000000;stroke-width:1;stroke-linecap:round;stroke-linejoin:round;stroke-dasharray:none;stroke-dashoffset:0;stroke-opacity:1;marker:none;marker-start:none;marker-mid:none;marker-end:none;color-rendering:auto;image-rendering:auto;shape-rendering:auto;text-rendering:auto;enable-background:accumulate;" transform="translate(259.0000000000132,0.0)"/>
	<path d="M 7.644199999999955,68.53039100000001 C 17.78729999999996,68.604291 116.54039999999986,69.11416100000001 116.59619999999995,69.092881 C 116.64120000000003,69.075681 118.18149999999991,64.217331 120.01839999999993,58.296641 C 121.85519999999997,52.375961000000004 124.16139999999996,45.030471 125.14319999999998,41.973331 C 126.68599999999992,37.168971000000006 126.97649999999999,36.162801 127.28399999999988,34.556501000000004 L 127.63979999999992,32.698071000000006 L 126.85269999999991,31.016391000000006 L 126.0655999999999,29.334741 L 122.74619999999982,25.142241000000006 C 119.87199999999984,21.512161000000006 108.3599999999999,7.1697663000000045 105.52949999999987,3.692646300000005 L 104.55869999999982,2.5000323000000053" fill="none" id="path12828" inkscape:connector-curvature="0" sodipodi:nodetypes="csssscccssc" stroke-width="1" style="color:#000000;clip-rule:nonzero;display:inline;overflow:visible;visibility:visible;opacity:1;isolation:auto;mix-blend-mode:normal;color-interpolation:sRGB;color-interpolation-filters:linearRGB;solid-color:#000000;solid-opacity:1;vector-effect:none;fill:none;fill-opacity:1;fill-rule:nonzero;stroke:#000000;stroke-width:1;stroke-linecap:round;stroke-linejoin:round;stroke-dasharray:none;stroke-dashoffset:0;stroke-opacity:1;marker:none;marker-start:none;marker-mid:none;marker-end:none;color-rendering:auto;image-rendering:auto;shape-rendering:auto;text-rendering:auto;enable-background:accumulate;" transform="translate(165.00000000000838,136.0000000000069)"/>
	<path d="M 123.64910000000009,46.803701 L 123.64910000000009,46.803701 L 123.64910000000009,46.803701 L 123.64910000000009,46.803701 L 125.70730000000003,50.677420999999995 L 120.6386,67.160451 L 116.76639999999998,69.218251 L 116.76639999999998,69.218251 L 116.76639999999998,69.218251 L 116.76639999999998,69.218251 L 113.53520000000003,72.193991 L 10.565499999999929,71.561961 L 7.430499999999938,68.680851 L 7.430499999999938,68.680851 L 7.430499999999938,68.680851 M 126.99979999999982,36.504360999999996 L 129.0578999999998,40.378071 L 127.5210999999997,44.745991 L 123.64909999999963,46.803701 L 123.64909999999963,46.803701 L 123.64909999999963,46.803701 M 127.61689999999953,32.778051 L 130.30339999999956,35.245511 L 130.30339999999956,35.245511 L 126.9997999999996,36.504360999999996 M 126.0064999999995,29.315970999999998 L 129.6372999999994,29.679161 L 129.6372999999994,29.679161 L 127.6168999999993,32.778051 L 127.6168999999993,32.778051 M 119.27769999999941,20.822031 L 119.27769999999941,20.822031 L 119.27769999999941,20.822031 L 123.51349999999934,21.245781 L 126.43009999999936,25.081161 L 126.00649999999928,29.315970999999998 L 126.00649999999928,29.315970999999998 M 104.4755999999993,2.5973932999999985 L 108.96539999999936,2.924352299999999 L 119.60419999999931,16.3330843 L 119.27769999999941,20.822031 L 119.27769999999941,20.822031 L 119.27769999999941,20.822031" fill="none" id="path12836" inkscape:connector-curvature="0" stroke-width="1" style="color:#000000;clip-rule:nonzero;display:inline;overflow:visible;visibility:visible;opacity:1;isolation:auto;mix-blend-mode:normal;color-interpolation:sRGB;color-interpolation-filters:linearRGB;solid-color:#000000;solid-opacity:1;vector-effect:none;fill:none;fill-opacity:1;fill-rule:nonzero;stroke:#000000;stroke-width:1;stroke-linecap:round;stroke-linejoin:round;stroke-dasharray:none;stroke-dashoffset:0;stroke-opacity:1;marker:none;marker-start:none;marker-mid:none;marker-end:none;color-rendering:auto;image-rendering:auto;shape-rendering:auto;text-rendering:auto;enable-background:accumulate;" transform="translate(165.00000000000838,136.0000000000069)"/>
	<path d="M 104.55870000000004,2.5 L 53.521600000000035,21.948371 C 12.726000000000113,37.494091 2.5,41.414291 2.561300000000074,41.484131 C 2.704200000000128,41.646831 9.402000000000044,49.991631 10.318899999999985,51.149280999999995 C 11.004899999999907,52.015460999999995 11.311099999999897,52.474841 11.561099999999897,53.012750999999994 L 11.892799999999852,53.72666099999999 L 11.735499999999774,54.53951099999999 C 11.649499999999762,54.98657099999999 11.270899999999756,56.30465099999999 10.895199999999704,57.46857099999999 C 10.519599999999627,58.63248099999999 9.587299999999686,61.59720099999999 8.82349999999974,64.056811 C 7.526599999999689,68.23291099999999 7.448599999999715,68.52894099999999 7.644199999999728,68.53037099999999" fill="none" id="path12840" inkscape:connector-curvature="0" sodipodi:nodetypes="cscsscsssc" stroke-width="1" style="color:#000000;clip-rule:nonzero;display:inline;overflow:visible;visibility:visible;opacity:1;isolation:auto;mix-blend-mode:normal;color-interpolation:sRGB;color-interpolation-filters:linearRGB;solid-color:#000000;solid-opacity:1;vector-effect:none;fill:none;fill-opacity:1;fill-rule:nonzero;stroke:#000000;stroke-width:1;stroke-linecap:round;stroke-linejoin:round;stroke-dasharray:none;stroke-dashoffset:0;stroke-opacity:1;marker:none;marker-start:none;marker-mid:none;marker-end:none;color-rendering:auto;image-rendering:auto;shape-rendering:auto;text-rendering:auto;enable-background:accumulate;" transform="translate(165.00000000000838,136.0000000000069)"/>
	<path d="M 76.79128000000003,25.050598000000008 L 76.79128000000003,18.603228" fill="none" id="path4448" inkscape:connector-curvature="0" stroke-width="1" style="color:#000000;clip-rule:nonzero;display:inline;overflow:visible;visibility:visible;opacity:1;isolation:auto;mix-blend-mode:normal;color-interpolation:sRGB;color-interpolation-filters:linearRGB;solid-color:#000000;solid-opacity:1;vector-effect:none;fill:none;fill-opacity:1;fill-rule:nonzero;stroke:#000000;stroke-width:1;stroke-linecap:round;stroke-linejoin:round;stroke-dasharray:none;stroke-dashoffset:0;stroke-opacity:1;marker:none;marker-start:none;marker-mid:none;marker-end:none;color-rendering:auto;image-rendering:auto;shape-rendering:auto;text-rendering:auto;enable-background:accumulate;" transform="translate(31.000000000001577,89.00000000000452)"/>
	<path d="M 76.79128000000003,25.050598000000008 L 76.79128000000003,18.603228" fill="none" id="path4450" inkscape:connector-curvature="0" stroke-width="1" style="color:#000000;clip-rule:nonzero;display:inline;overflow:visible;visibility:visible;opacity:1;isolation:auto;mix-blend-mode:normal;color-interpolation:sRGB;color-interpolation-filters:linearRGB;solid-color:#000000;solid-opacity:1;vector-effect:none;fill:none;fill-opacity:1;fill-rule:nonzero;stroke:#000000;stroke-width:1;stroke-linecap:round;stroke-linejoin:round;stroke-dasharray:none;stroke-dashoffset:0;stroke-opacity:1;marker:none;marker-start:none;marker-mid:none;marker-end:none;color-rendering:auto;image-rendering:auto;shape-rendering:auto;text-rendering:auto;enable-background:accumulate;" transform="translate(31.000000000001577,89.00000000000452)"/>
	<path d="M 17.26430000000005,3.248551000000006 L 2.5,2.5 L 2.5,7.427317000000002 L 17.113269999999943,8.597544999999997 L 57.12708999999995,15.975008000000003 L 58.376139999999964,19.204028000000008 L 59.52431999999999,22.429738000000015 L 74.06097,25.202908000000008 L 79.37468999999999,25.202908000000008 L 93.91134,22.429738000000015 L 95.05952000000002,19.204028000000008 L 96.30858,15.975008000000003 L 136.32240000000002,8.597544999999997 L 150.93566999999996,7.427317000000002 L 150.93566999999996,2.5 L 136.1713699999999,3.248551000000006 L 94.39144999999996,7.8026920000000075 L 92.70803999999998,8.27288 L 90.92099999999994,8.743618999999995 L 89.88250999999991,10.509159999999994 L 88.94819999999993,12.273599999999988 L 87.62858999999992,13.712271999999984 L 86.16180999999995,15.289299999999983 L 82.67040999999995,17.490847999999986 L 80.70917999999995,18.13852799999998 L 79.04891999999995,18.637377999999984 L 74.38673999999992,18.637377999999984 L 72.72647999999992,18.13852799999998 L 70.7652599999999,17.490847999999986 L 67.2738599999999,15.289299999999983 L 65.80707999999993,13.712271999999984 L 64.48746999999992,12.273599999999988 L 63.553159999999934,10.509159999999994 L 62.51466999999991,8.743618999999995 L 60.72761999999989,8.27288 L 59.04421999999988,7.8026920000000075 L 17.26430000000005,3.248551000000006" fill="none" id="path4229" inkscape:connector-curvature="0" sodipodi:nodetypes="ccccccccccccccccccccccccccccccccccccc" stroke-width="1" style="color:#000000;clip-rule:nonzero;display:inline;overflow:visible;visibility:visible;opacity:1;isolation:auto;mix-blend-mode:normal;color-interpolation:sRGB;color-interpolation-filters:linearRGB;solid-color:#000000;solid-opacity:1;vector-effect:none;fill:none;fill-opacity:1;fill-rule:nonzero;stroke:#000000;stroke-width:1;stroke-linecap:round;stroke-linejoin:round;stroke-dasharray:none;stroke-dashoffset:0;stroke-opacity:1;marker:none;marker-start:none;marker-mid:none;marker-end:none;color-rendering:auto;image-rendering:auto;shape-rendering:auto;text-rendering:auto;enable-background:accumulate;" transform="translate(31.000000000001577,89.00000000000452)"/>
	<path d="M 75.86739999999986,60.085080999999995 L 65.91899999999987,77.338146 C 60.447299999999814,86.82733329999999 55.93509999999992,94.60261229999999 55.891799999999876,94.61649729999999 C 55.84879999999998,94.6303373 50.39949999999999,91.5793053 43.7829999999999,87.83630529999999 L 43.7829999999999,87.83630529999999" fill="none" id="path6812" inkscape:connector-curvature="0" sodipodi:nodetypes="csccc" stroke-width="1" style="color:#000000;clip-rule:nonzero;display:inline;overflow:visible;visibility:visible;opacity:1;isolation:auto;mix-blend-mode:normal;color-interpolation:sRGB;color-interpolation-filters:linearRGB;solid-color:#000000;solid-opacity:1;vector-effect:none;fill:none;fill-opacity:1;fill-rule:nonzero;stroke:#000000;stroke-width:1;stroke-linecap:round;stroke-linejoin:round;stroke-dasharray:none;stroke-dashoffset:0;stroke-opacity:1;marker:none;marker-start:none;marker-mid:none;marker-end:none;color-rendering:auto;image-rendering:auto;shape-rendering:auto;text-rendering:auto;enable-background:accumulate;" transform="translate(85.00000000000432,13.00000000000066)"/>
	<path d="M 2.5,2.561399999999992 L 2.5,2.561399999999992 L 2.5,2.561399999999992 L 3.0437999999999192,57.76849299999999 L 3.0437999999999192,57.76849299999999 L 3.8596999999999753,63.47919599999999 L 7.938799999999901,67.287781 L 55.80049999999983,94.75531129999999 L 55.80049999999983,94.75531129999999 L 55.80049999999983,94.75531129999999 L 55.80049999999983,94.75531129999999 L 60.15139999999974,93.66714329999999 L 77.01189999999974,64.295322 L 75.9241999999997,60.21686999999999 L 75.9241999999997,60.21686999999999 L 75.9241999999997,60.21686999999999 M 55.8004999999996,94.75531129999999 L 55.8004999999996,94.75531129999999 L 55.8004999999996,94.75531129999999" fill="none" id="path4435" inkscape:connector-curvature="0" sodipodi:nodetypes="cccccccccccccccccccccccccccccccc" stroke-width="1" style="color:#000000;clip-rule:nonzero;display:inline;overflow:visible;visibility:visible;opacity:1;isolation:auto;mix-blend-mode:normal;color-interpolation:sRGB;color-interpolation-filters:linearRGB;solid-color:#000000;solid-opacity:1;vector-effect:none;fill:none;fill-opacity:1;fill-rule:nonzero;stroke:#000000;stroke-width:1;stroke-linecap:round;stroke-linejoin:round;stroke-dasharray:none;stroke-dashoffset:0;stroke-opacity:1;marker:none;marker-start:none;marker-mid:none;marker-end:none;color-rendering:auto;image-rendering:auto;shape-rendering:auto;text-rendering:auto;enable-background:accumulate;" transform="translate(85.00000000000432,13.00000000000066)"/>
	<path d="M 2.5928999999998723,2.5 L 22.605299999999943,2.5 L 42.61770000000001,2.5 L 42.563699999999926,4.5704000000000065 C 42.40019999999981,10.826183 42.1703,26.385722 42.1703,31.196498000000005 L 42.1703,36.75179800000001 L 42.65470000000005,38.303087000000005 C 42.92100000000005,39.156297 43.17820000000006,39.979355000000005 43.22620000000006,40.132110000000004 C 43.38650000000007,40.64269 45.86570000000006,42.267030000000005 51.280100000000175,45.408936000000004 C 53.96510000000012,46.96701 60.595600000000104,50.906529000000006 66.01470000000018,54.163428 L 75.86750000000006,60.085057000000006" fill="none" id="path6081" inkscape:connector-curvature="0" sodipodi:nodetypes="cccsscscssc" stroke-width="1" style="color:#000000;clip-rule:nonzero;display:inline;overflow:visible;visibility:visible;opacity:1;isolation:auto;mix-blend-mode:normal;color-interpolation:sRGB;color-interpolation-filters:linearRGB;solid-color:#000000;solid-opacity:1;vector-effect:none;fill:none;fill-opacity:1;fill-rule:nonzero;stroke:#000000;stroke-width:1;stroke-linecap:round;stroke-linejoin:round;stroke-dasharray:none;stroke-dashoffset:0;stroke-opacity:1;marker:none;marker-start:none;marker-mid:none;marker-end:none;color-rendering:auto;image-rendering:auto;shape-rendering:auto;text-rendering:auto;enable-background:accumulate;" transform="translate(85.00000000000432,13.00000000000066)"/>
	<path d="M 12.673690000000079,27.6701599999995 L 12.82592000000011,45.14869999999951 L 12.978160000000116,62.627259999999524 L 14.206000000000131,72.58783999999952 C 14.881310000000099,78.06616999999949 15.433840000000146,82.58431999999954 15.433840000000146,82.62817999999953 C 15.433840000000146,82.70907999999952 19.54673000000014,86.01167999999956 19.739800000000173,86.08579999999955 C 19.82130000000018,86.11709999999954 23.066130000000157,83.38486999999952 23.821560000000204,82.64894999999956 C 23.954370000000154,82.51954999999958 24.036400000000185,81.35650999999956 24.54811000000018,72.34721999999954 L 25.124960000000215,62.19135999999952 L 24.157450000000267,44.756409999999505 L 23.18993000000023,27.321479999999497 L 21.97145000000023,18.77835999999951 C 21.301280000000247,14.079639999999529 20.75263000000018,10.17305999999951 20.75223000000028,10.097119999999506 C 20.75194000000033,10.021219999999516 21.453410000000304,9.057779999999525 22.311290000000326,7.9562899999995125 L 23.871090000000322,5.953559999999527 L 25.46230000000037,5.368879999999535 L 27.053510000000415,4.784199999999544 L 28.66840000000036,5.657249999999522 C 29.55659000000037,6.1374199999995085 30.308850000000348,6.530309999999531 30.340100000000348,6.530309999999531 C 30.37130000000036,6.530309999999531 30.702170000000365,7.560049999999535 31.0752600000003,8.818619999999555 L 31.753600000000347,11.10695999999956 L 32.047790000000305,18.342469999999537 C 32.209590000000276,22.321989999999516 32.440850000000296,27.40210999999954 32.561700000000315,29.63160999999951 C 32.75370000000032,33.17399999999952 32.781290000000354,34.410839999999496 32.78042000000028,39.4387799999995 C 32.778420000000324,50.43146999999948 32.278140000000235,59.40218999999951 30.82081000000028,74.57018999999951 C 29.9048700000003,84.1033799999995 29.191730000000234,89.33769999999953 27.809980000000223,96.6689899999995 C 26.952840000000265,101.21685999999949 26.942030000000273,101.2629199999995 26.091830000000186,103.99166999999949 L 25.236250000000155,106.73766999999947 L 23.58231000000012,107.67226999999946 C 22.650280000000066,108.19895999999943 21.83323000000007,108.60481999999945 21.710420000000113,108.60216999999943 C 21.590560000000096,108.59916999999945 20.884440000000154,108.23070999999942 20.141280000000165,107.78247999999945 C 19.3981100000002,107.33427999999947 18.73123000000021,106.90916999999945 18.65931000000012,106.83779999999945 C 18.58741000000009,106.76649999999944 17.822820000000092,105.50271999999944 16.96027000000015,104.02954999999946 L 15.392000000000166,101.35102999999947 L 14.583920000000148,97.07036999999946 C 14.092060000000174,94.46485999999948 13.485050000000115,90.82814999999948 13.032760000000167,87.77714999999944 C 12.624070000000188,85.02026999999941 11.743890000000192,79.23402999999945 11.076800000000162,74.91887999999943 C 10.409710000000132,70.60372999999942 9.510120000000143,64.5625099999994 9.077710000000138,61.49395999999945 C 7.619150000000104,51.14356999999944 6.728230000000167,40.62495999999942 6.408530000000155,29.980289999999457 C 6.317030000000159,26.93265999999943 6.133510000000115,23.32207999999946 5.837220000000116,18.73799999999943 C 5.5971600000001445,15.023979999999426 5.41235000000006,11.893689999999424 5.426540000000159,11.78183999999942" fill="none" id="path4774" inkscape:connector-curvature="0" sodipodi:nodetypes="cccsscsscccscscccssscsssssscscscscssssssc" stroke-width="1" style="color:#000000;clip-rule:nonzero;display:inline;overflow:visible;visibility:visible;opacity:1;isolation:auto;mix-blend-mode:normal;color-interpolation:sRGB;color-interpolation-filters:linearRGB;solid-color:#000000;solid-opacity:1;vector-effect:none;fill:none;fill-opacity:1;fill-rule:nonzero;stroke:#000000;stroke-width:1;stroke-linecap:round;stroke-linejoin:round;stroke-dasharray:none;stroke-dashoffset:0;stroke-opacity:1;marker:none;marker-start:none;marker-mid:none;marker-end:none;color-rendering:auto;image-rendering:auto;shape-rendering:auto;text-rendering:auto;enable-background:accumulate;" transform="translate(122.00000000000621,97.00000000000493)"/>
	<path d="M 5.475710000000049,11.774189999999521 L 2.5,14.962449999999535 L 3.066799999999944,22.401719999999557 L 6.255059999999958,25.094029999999577 L 3.2793499999999085,28.494839999999556 L 3.3501499999998714,31.328849999999534 L 6.6801099999999,34.51710999999955 L 3.6335499999999,37.56365999999957 L 3.916949999999929,42.16892999999959 L 7.3177599999999074,44.93208999999962 L 4.271199999999908,48.19119999999964 L 4.979699999999866,53.57580999999965 L 8.522209999999859,56.33896999999968 L 5.617359999999849,60.023179999999684 L 6.609259999999836,65.05354999999969 L 10.080919999999878,67.4624499999997 L 7.246909999999843,71.07581999999968 L 8.805609999999888,79.86123999999967 L 12.348129999999855,82.41184999999967 L 9.584969999999885,85.88350999999966 L 10.364319999999907,89.85111999999964 L 13.765129999999886,92.33087999999964 L 11.28536999999983,96.08593999999965 L 11.781319999999823,98.91994999999963 L 15.53638999999987,101.54140999999964 L 14.190229999999815,105.43816999999962 L 18.441239999999766,107.13857999999959 L 18.627549999999815,110.21213999999958 L 21.633459999999786,108.40857999999957 L 25.040169999999762,110.51272999999958 L 25.040169999999762,106.9056199999996 L 28.94786999999974,104.80147999999963 L 26.743529999999737,101.09417999999965 L 30.150239999999712,98.68943999999965 L 31.15220999999974,95.48312999999968 L 28.54707999999971,92.2768199999997 L 31.753399999999715,89.47128999999973 L 32.680219999999736,85.36319999999972 L 30.05003999999974,81.98152999999974 L 33.406649999999786,79.12590999999975 L 34.358529999999746,70.43378999999976 L 31.55299999999977,67.02707999999978 L 34.909609999999816,64.12135999999981 L 35.21019999999987,59.011299999999835 L 32.254379999999855,55.60458999999986 L 35.56089999999983,52.84915999999987 L 35.81138999999985,47.739099999999894 L 32.60506999999984,44.382489999999905 L 35.91158999999982,41.1761699999999 C 35.91158999999982,41.1761699999999 35.91158999999982,37.168279999999925 35.7612899999998,36.91778999999991 C 35.61098999999979,36.66728999999992 32.75536999999986,33.86176999999992 32.75536999999986,33.86176999999992 L 35.86148999999989,30.60534999999993 L 35.56089999999983,27.449139999999943 L 32.304479999999785,24.64361999999994 L 35.2602999999998,21.437299999999937 L 35.00980999999979,13.972599999999943 L 31.55299999999977,11.016779999999926 L 34.20822999999973,7.91065999999995 L 30.45082999999977,6.708289999999977 L 30.350629999999796,2.9508899999999585 L 27.044119999999793,4.8045399999999745 L 24.288689999999747,2.5 L 23.887899999999718,5.756419999999991 L 19.8299099999997,6.006910000000005 L 20.78178999999966,10.064900000000023 L 18.17665999999963,13.722100000000012 L 19.72971999999959,24.894110000000012 L 23.286719999999605,27.74973 L 20.38099999999963,30.605349999999987 L 22.034249999999588,59.41208 L 25.090269999999578,62.21760999999998 L 21.833859999999618,65.32372999999995 L 21.082379999999603,79.25115999999997 L 23.937999999999647,82.55766999999997 L 19.629519999999616,82.00657999999999 L 19.779809999999657,86.21486999999996 L 19.729709999999614,81.95647999999994 L 15.571519999999623,82.85825999999992 L 18.076459999999656,79.25115999999991 L 16.42319999999961,65.0231399999999 L 12.866199999999594,62.418009999999924 L 15.972309999999538,59.46218999999991 L 15.771919999999568,30.75564999999989 L 12.565599999999563,27.6996299999999 L 5.475710000000049,11.774189999999521" fill="none" id="path5202" inkscape:connector-curvature="0" stroke-width="1" style="color:#000000;clip-rule:nonzero;display:inline;overflow:visible;visibility:visible;opacity:1;isolation:auto;mix-blend-mode:normal;color-interpolation:sRGB;color-interpolation-filters:linearRGB;solid-color:#000000;solid-opacity:1;vector-effect:none;fill:none;fill-opacity:1;fill-rule:nonzero;stroke:#000000;stroke-width:1;stroke-linecap:round;stroke-linejoin:round;stroke-dasharray:none;stroke-dashoffset:0;stroke-opacity:1;marker:none;marker-start:none;marker-mid:none;marker-end:none;color-rendering:auto;image-rendering:auto;shape-rendering:auto;text-rendering:auto;enable-background:accumulate;" transform="translate(122.00000000000621,97.00000000000493)"/>
	<path d="M 15.268239999999992,2.8440599999997858 C 15.321040000000039,2.831659999999829 16.894180000000006,4.142169999999737 18.764080000000035,5.756419999999821 C 20.633980000000065,7.370699999999829 22.382910000000038,8.874269999999797 22.650600000000054,9.097679999999855 L 23.13731000000007,9.50384999999983" fill="none" id="path4736" inkscape:connector-curvature="0" sodipodi:nodetypes="cssc" stroke-width="1" style="color:#000000;clip-rule:nonzero;display:inline;overflow:visible;visibility:visible;opacity:1;isolation:auto;mix-blend-mode:normal;color-interpolation:sRGB;color-interpolation-filters:linearRGB;solid-color:#000000;solid-opacity:1;vector-effect:none;fill:none;fill-opacity:1;fill-rule:nonzero;stroke:#000000;stroke-width:1;stroke-linecap:round;stroke-linejoin:round;stroke-dasharray:none;stroke-dashoffset:0;stroke-opacity:1;marker:none;marker-start:none;marker-mid:none;marker-end:none;color-rendering:auto;image-rendering:auto;shape-rendering:auto;text-rendering:auto;enable-background:accumulate;" transform="translate(234.0000000000119,0.0)"/>
	<path d="M 13.296100000000024,71.03793999999982 C 11.587300000000027,68.79255999999987 11.243420000000015,68.27962999999977 9.773059999999987,65.78347999999983 C 8.195929999999976,63.10599999999988 8.10236999999995,62.91988999999978 6.856679999999983,59.98139999999978 C 5.582930000000033,56.976739999999836 5.56074000000001,56.913129999999796 4.697929999999928,53.79198999999983 C 3.863279999999918,50.77276999999981 3.805599999999913,50.50664999999981 3.3433599999999615,47.54374999999982 C 2.9032199999999193,44.722379999999816 2.8444599999999127,44.171869999999785 2.678199999999947,41.310759999999846 C 2.5012799999999515,38.26614999999981 2.5,38.076539999999795 2.6351999999999407,34.95873999999981 C 2.773649999999975,31.765309999999772 2.7777999999999565,31.724599999999782 3.293389999999931,28.507809999999836 L 3.812249999999949,25.270609999999806 L 4.716949999999997,22.219489999999837 C 5.59235000000001,19.26719999999989 5.66348000000005,19.07377999999983 6.9129500000000235,16.248019999999883 C 8.106999999999971,13.547619999999938 8.328590000000077,13.118189999999913 9.855009999999993,10.54636999999991 C 11.264130000000023,8.172199999999862 11.774099999999976,7.406589999999937 13.338999999999942,5.315889999999968 C 14.347279999999955,3.96884 15.215449999999919,2.8564999999999827 15.268269999999916,2.8440200000000004 C 15.321069999999963,2.831519999999955 19.615789999999947,2.5 19.615789999999947,2.5 L 22.65062999999998,5.139850000000024 L 23.137339999999995,9.503820000000019 L 21.64811999999995,11.504109999999969 C 20.741059999999948,12.72246999999993 19.854119999999966,14.032129999999938 19.37923999999998,14.854420000000005 C 18.95042000000001,15.596930000000043 18.403249999999957,16.537879999999973 18.163299999999936,16.945420000000013 C 17.923349999999914,17.352960000000053 17.244449999999915,18.80442000000005 16.654629999999884,20.170889999999986 C 15.70171999999991,22.378510000000006 15.495329999999853,22.951639999999998 14.802469999999857,25.31418999999994 C 14.104549999999904,27.694009999999935 13.976249999999823,28.247389999999996 13.579929999999877,30.58755999999994 C 13.181129999999825,32.94230999999991 13.123789999999872,33.45333999999991 13.002739999999903,35.73086999999998 C 12.88031999999987,38.034580000000005 12.880909999999858,38.47687999999994 13.009739999999852,40.70053999999993 C 13.130399999999895,42.78824999999995 13.211819999999875,43.507209999999986 13.57244999999989,45.66949999999997 C 13.931069999999863,47.819729999999936 14.093849999999861,48.54282999999998 14.661609999999882,50.507690000000025 C 15.491069999999922,53.37824999999998 15.459019999999896,53.288459999999986 16.657949999999914,56.100790000000075 C 18.06501999999989,59.40133000000003 19.63438999999994,62.13540000000012 21.740899999999897,64.95602000000008 C 22.57305999999994,66.07028000000003 23.251449999999863,67.01175000000012 23.248439999999846,67.04821000000004 C 23.240439999999808,67.14511000000005 15.459639999999808,73.47388000000001 15.31363999999985,73.50225 C 15.240039999999794,73.51655000000005 14.423859999999877,72.51941999999997 13.296439999999848,71.03794000000005 L 13.296100000000024,71.03793999999982" fill="none" id="path4726" inkscape:connector-curvature="0" sodipodi:nodetypes="cssssssscssssccccssssssscsssscccc" stroke-width="1" style="color:#000000;clip-rule:nonzero;display:inline;overflow:visible;visibility:visible;opacity:1;isolation:auto;mix-blend-mode:normal;color-interpolation:sRGB;color-interpolation-filters:linearRGB;solid-color:#000000;solid-opacity:1;vector-effect:none;fill:none;fill-opacity:1;fill-rule:nonzero;stroke:#000000;stroke-width:1;stroke-linecap:round;stroke-linejoin:round;stroke-dasharray:none;stroke-dashoffset:0;stroke-opacity:1;marker:none;marker-start:none;marker-mid:none;marker-end:none;color-rendering:auto;image-rendering:auto;shape-rendering:auto;text-rendering:auto;enable-background:accumulate;" transform="translate(234.0000000000119,0.0)"/>
	<path d="M 11.192960000000085,11.921099999999967 L 9.643880000000081,14.06953999999996 L 8.094810000000052,16.217989999999986 M 5.290590000000066,26.06872999999996 C 5.294590000000085,26.26049999999998 5.413970000000063,27.40307999999993 5.555970000000116,28.60776999999996 L 5.814140000000066,30.798099999999977 M 10.777660000000083,39.58409999999998 L 12.81305000000009,41.34905999999995 L 14.84845000000007,43.11404999999996 M 25.66772000000003,16.274149999999963 C 25.64582000000007,16.195349999999962 25.323030000000017,13.620159999999942 24.95049000000006,10.551619999999957 C 24.5779500000001,7.483069999999941 24.262440000000083,4.957429999999931 24.249370000000113,4.939059999999984 C 24.236270000000104,4.920759999999973 23.263740000000098,5.146269999999959 22.088140000000067,5.440319999999986 C 20.91253000000006,5.734359999999981 19.835690000000113,5.97496000000001 19.6951600000001,5.97496000000001 C 19.55463000000009,5.97496000000001 19.426580000000058,6.009060000000034 19.41059000000007,6.050760000000025" fill="none" id="path5611" inkscape:connector-curvature="0" sodipodi:nodetypes="ccccscccccscssc" stroke-width="1" style="color:#000000;clip-rule:nonzero;display:inline;overflow:visible;visibility:visible;opacity:1;isolation:auto;mix-blend-mode:normal;color-interpolation:sRGB;color-interpolation-filters:linearRGB;solid-color:#000000;solid-opacity:1;vector-effect:none;fill:none;fill-opacity:1;fill-rule:nonzero;stroke:#000000;stroke-width:1;stroke-linecap:round;stroke-linejoin:round;stroke-dasharray:none;stroke-dashoffset:0;stroke-opacity:1;marker:none;marker-start:none;marker-mid:none;marker-end:none;color-rendering:auto;image-rendering:auto;shape-rendering:auto;text-rendering:auto;enable-background:accumulate;" transform="translate(16.000000000000814,99.00000000000503)"/>
	<path d="M 24.995260000000144,41.14814999999999 C 25.397830000000113,38.00669999999997 25.711660000000165,35.42176999999998 25.692650000000185,35.40386000000001 C 25.67365000000018,35.38596000000001 25.206990000000133,35.24731000000003 24.655610000000138,35.0958 C 23.90323000000012,34.889070000000004 23.392770000000155,34.676919999999996 22.609720000000152,34.24556999999999 C 22.03587000000016,33.929449999999974 21.519500000000107,33.627549999999985 21.462230000000204,33.574689999999975 C 21.40493000000015,33.52178999999995 20.986480000000256,33.16472999999996 20.53226000000018,32.78116 C 19.356840000000147,31.788549999999987 18.39795000000015,30.487570000000005 17.802720000000136,29.07781 C 17.3985100000001,28.12045999999998 17.34556000000009,27.917489999999987 17.249380000000087,26.956759999999974 C 17.151680000000056,25.980519999999956 17.157980000000066,25.807499999999948 17.327780000000075,24.82342 C 17.838480000000118,21.862529999999992 19.945030000000088,18.94355999999999 22.650630000000092,17.44772999999998 C 23.49023000000011,16.983540000000005 23.820080000000075,16.854799999999955 24.680400000000077,16.65546999999998 C 25.528760000000034,16.458929999999953 25.700710000000072,16.39251999999999 25.667770000000132,16.27413999999999 C 25.645870000000173,16.195339999999987 28.245080000000144,12.889659999999992 28.245080000000144,12.889659999999992 L 27.645540000000096,7.530390000000011 C 27.645540000000096,7.530390000000011 24.25536000000011,4.94738000000001 24.2494200000001,4.9390300000000025 C 24.23632000000009,4.920729999999992 21.096280000000093,2.5 21.096280000000093,2.5 C 21.096280000000093,2.5 19.8357400000001,5.974929999999972 19.69521000000009,5.974929999999972 C 19.554680000000076,5.974929999999972 19.426630000000046,6.009029999999996 19.410640000000058,6.050729999999987 C 19.377340000000004,6.13752999999997 15.354340000000093,8.328660000000013 15.228220000000078,8.328660000000013 C 15.182620000000043,8.328660000000013 15.05887000000007,8.42366000000004 14.953280000000063,8.539780000000007 C 14.84771000000012,8.65589 13.95846000000006,9.464179999999999 12.977170000000115,10.335989999999981 L 11.193010000000072,11.92107999999996 L 7.128750000000082,12.262849999999958 L 8.09486000000004,16.21796999999998 L 7.053730000000087,18.658860000000004 L 6.012590000000046,21.099760000000003 L 5.648000000000025,23.40989000000002 C 5.447480000000041,24.68046000000004 5.2866599999999835,25.876930000000016 5.290640000000053,26.06872000000004 C 5.294640000000072,26.260500000000036 2.5,28.70795000000004 2.5,28.70795000000004 L 5.814190000000053,30.79809000000006 L 6.760740000000055,33.10271000000006 L 7.707290000000057,35.407320000000084 L 9.242490000000089,37.49571000000009 L 10.77771000000007,39.58410000000009 L 10.759010000000103,43.60350000000011 L 14.84846000000016,43.11403000000013 L 17.115000000000123,44.345370000000116 L 19.381540000000086,45.57672000000014 L 21.75130000000013,46.21830000000011 C 23.054660000000126,46.57118000000014 24.153070000000184,46.85989000000012 24.192190000000096,46.85989000000012 C 24.231290000000058,46.85989000000012 24.59270000000015,44.289610000000096 24.995260000000144,41.14816000000013 L 24.995260000000144,41.14814999999999" fill="none" id="path5625" inkscape:connector-curvature="0" sodipodi:nodetypes="sccscsssssccccccscscscccccscccccccccccscs" stroke-width="1" style="color:#000000;clip-rule:nonzero;display:inline;overflow:visible;visibility:visible;opacity:1;isolation:auto;mix-blend-mode:normal;color-interpolation:sRGB;color-interpolation-filters:linearRGB;solid-color:#000000;solid-opacity:1;vector-effect:none;fill:none;fill-opacity:1;fill-rule:nonzero;stroke:#000000;stroke-width:1;stroke-linecap:round;stroke-linejoin:round;stroke-dasharray:none;stroke-dashoffset:0;stroke-opacity:1;marker:none;marker-start:none;marker-mid:none;marker-end:none;color-rendering:auto;image-rendering:auto;shape-rendering:auto;text-rendering:auto;enable-background:accumulate;" transform="translate(16.000000000000814,99.00000000000503)"/>
	<path d="M 99.33979999999997,2.7603000000003703 L 99.33979999999997,2.7603000000003703 C 99.33979999999997,2.8979400000004034 100.00350000000003,8.145020000000386 100.08749999999986,8.67165000000034 L 100.13949999999977,8.99854000000039" fill="none" id="path4467" inkscape:connector-curvature="0" sodipodi:nodetypes="cssc" stroke-width="1" style="color:#000000;clip-rule:nonzero;display:inline;overflow:visible;visibility:visible;opacity:1;isolation:auto;mix-blend-mode:normal;color-interpolation:sRGB;color-interpolation-filters:linearRGB;solid-color:#000000;solid-opacity:1;vector-effect:none;fill:none;fill-opacity:1;fill-rule:nonzero;stroke:#000000;stroke-width:1;stroke-linecap:round;stroke-linejoin:round;stroke-dasharray:none;stroke-dashoffset:0;stroke-opacity:1;marker:none;marker-start:none;marker-mid:none;marker-end:none;color-rendering:auto;image-rendering:auto;shape-rendering:auto;text-rendering:auto;enable-background:accumulate;" transform="translate(138.00000000000702,64.00000000000325)"/>
	<path d="M 102.87819999999988,5.352270000000317 L 100.13969999999995,8.999260000000277 L 99.80510000000004,8.996260000000234 C 99.27030000000013,8.993260000000191 96.42229999999995,9.371200000000272 96.39030000000002,9.449910000000273 C 96.37429999999995,9.489210000000298 96.13900000000012,9.521110000000249 95.86730000000011,9.520810000000324 C 95.21100000000001,9.520810000000324 88.58180000000016,10.401770000000283 88.54460000000017,10.49485000000027 C 88.5286000000001,10.534850000000233 88.31290000000013,10.567550000000324 88.06520000000023,10.567550000000324 C 87.81740000000013,10.567570000000273 86.9086000000002,10.668430000000285 86.04560000000015,10.791620000000307 C 85.1826000000001,10.914840000000254 84.24110000000019,11.047500000000355 83.9534000000001,11.086470000000304 C 81.08100000000013,11.475490000000264 75.98850000000016,12.24937000000034 75.86910000000012,12.314990000000307 C 75.78610000000003,12.360690000000318 75.5617000000002,12.39819000000034 75.37090000000012,12.39819000000034 C 75.05660000000012,12.39819000000034 72.8864000000001,12.69807000000037 71.57460000000015,12.922750000000292 C 70.87610000000018,13.042370000000346 67.48120000000017,13.523990000000254 66.6056000000001,13.627660000000333 C 66.22210000000018,13.673060000000305 65.31979999999999,13.789480000000367 64.60059999999999,13.886370000000284 C 62.57549999999992,14.159150000000295 59.419200000000046,14.490360000000237 57.975400000000036,14.58153000000027 C 57.256200000000035,14.626930000000243 56.23620000000005,14.703350000000228 55.70880000000011,14.751290000000267 C 54.45040000000017,14.865700000000288 48.1418000000001,14.864210000000298 46.908800000000156,14.748290000000225 C 46.37880000000018,14.698890000000233 45.3764000000001,14.624620000000277 44.68120000000022,14.583370000000173 C 43.289700000000266,14.500770000000216 41.10270000000014,14.270530000000122 37.968700000000126,13.876700000000142 C 36.8420000000001,13.735090000000127 35.78280000000018,13.602640000000179 35.61500000000024,13.582320000000095 C 35.447200000000294,13.5619200000001 34.623400000000174,13.441120000000069 33.78440000000023,13.313640000000078 C 32.945300000000316,13.186110000000099 31.984200000000328,13.04765000000009 31.648600000000215,13.005930000000035 C 31.313000000000102,12.964230000000043 30.39110000000028,12.828129999999987 29.600000000000136,12.703590000000077 C 28.80890000000022,12.579000000000065 27.86740000000009,12.441360000000032 27.50780000000009,12.3977000000001 C 27.148200000000088,12.35410000000013 25.971300000000156,12.180460000000153 24.892500000000155,12.011920000000146 C 23.277100000000246,11.759500000000116 21.557700000000068,11.504950000000122 18.35440000000017,11.043940000000134 C 18.186600000000226,11.019640000000095 17.388600000000224,10.902520000000095 16.581100000000106,10.783300000000168 C 15.773500000000013,10.664130000000114 14.919800000000123,10.566600000000221 14.68380000000002,10.566600000000221 C 14.447900000000118,10.566600000000221 14.186699999999973,10.52860000000021 14.10349999999994,10.482100000000173 C 13.915399999999863,10.377160000000117 7.452499999999873,9.520420000000172 6.849099999999908,9.520420000000172 C 6.607099999999946,9.520420000000172 6.3409999999998945,9.482320000000186 6.257799999999861,9.435820000000149 C 6.089499999999816,9.341720000000123 3.418499999999767,8.997430000000122 2.857099999999946,8.997430000000122 C 2.5026000000000295,8.997430000000122 2.5,8.99443000000008 2.5448999999998705,8.714110000000119 C 2.5698999999999614,8.558300000000145 2.7555999999999585,7.136240000000157 2.9578999999998814,5.554030000000125 L 3.3256999999998698,2.677250000000072 L 3.887899999999945,2.6909500000000435 C 4.7228999999999814,2.7115499999999884 19.142599999999902,4.6415700000000015 22.669599999999946,5.204600000000028 C 23.57140000000004,5.34856000000002 30.242700000000013,6.33874000000003 32.95619999999985,6.73135000000002 C 37.953799999999774,7.45446000000004 42.53679999999986,7.993630000000053 44.85559999999987,8.13121000000001 C 45.59869999999978,8.175309999999968 46.590799999999945,8.250909999999976 47.06009999999992,8.299170000000004 C 48.169599999999946,8.413260000000037 54.44879999999989,8.412889999999948 55.552799999999934,8.299170000000004 C 56.022199999999884,8.250570000000039 57.0338999999999,8.174499999999966 57.80099999999993,8.130070000000046 C 60.699100000000044,7.962280000000078 66.35140000000001,7.249009999999998 74.40779999999995,6.034440000000018 C 76.48879999999986,5.720730000000003 99.08019999999988,2.5 99.1389999999999,2.5589800000000196 L 102.87819999999988,5.352270000000317" fill="none" id="path4481" inkscape:connector-curvature="0" sodipodi:nodetypes="ccccccscccsccccsccssccccsccscscscsccsscccsssc" stroke-width="1" style="color:#000000;clip-rule:nonzero;display:inline;overflow:visible;visibility:visible;opacity:1;isolation:auto;mix-blend-mode:normal;color-interpolation:sRGB;color-interpolation-filters:linearRGB;solid-color:#000000;solid-opacity:1;vector-effect:none;fill:none;fill-opacity:1;fill-rule:nonzero;stroke:#000000;stroke-width:1;stroke-linecap:round;stroke-linejoin:round;stroke-dasharray:none;stroke-dashoffset:0;stroke-opacity:1;marker:none;marker-start:none;marker-mid:none;marker-end:none;color-rendering:auto;image-rendering:auto;shape-rendering:auto;text-rendering:auto;enable-background:accumulate;" transform="translate(138.00000000000702,64.00000000000325)"/>
</svg>
