<?xml version="1.0" ?>
<svg xmlns="http://www.w3.org/2000/svg" xmlns:cc="http://creativecommons.org/ns#" xmlns:dc="http://purl.org/dc/elements/1.1/" xmlns:ev="http://www.w3.org/2001/xml-events" xmlns:inkscape="http://www.inkscape.org/namespaces/inkscape" xmlns:rdf="http://www.w3.org/1999/02/22-rdf-syntax-ns#" xmlns:sodipodi="http://sodipodi.sourceforge.net/DTD/sodipodi-0.dtd" xmlns:svg="http://www.w3.org/2000/svg" xmlns:xlink="http://www.w3.org/1999/xlink" baseProfile="full" height="210mm" id="svg1" inkscape:version="0.92.4 (5da689c313, 2019-01-14)" sodipodi:docname="e190-e2.svg" version="1.1" viewBox="0 0 297.0000000000151 210.0000000000107" width="297mm">
	<defs/>
	<path d="M 76.79128000000003,25.050598000000008 L 76.79128000000003,18.603228" fill="none" id="path4448" inkscape:connector-curvature="0" stroke-width="1" style="color:#000000;clip-rule:nonzero;display:inline;overflow:visible;visibility:visible;opacity:1;isolation:auto;mix-blend-mode:normal;color-interpolation:sRGB;color-interpolation-filters:linearRGB;solid-color:#000000;solid-opacity:1;vector-effect:none;fill:none;fill-opacity:1;fill-rule:nonzero;stroke:#000000;stroke-width:1;stroke-linecap:round;stroke-linejoin:round;stroke-dasharray:none;stroke-dashoffset:0;stroke-opacity:1;marker:none;marker-start:none;marker-mid:none;marker-end:none;color-rendering:auto;image-rendering:auto;shape-rendering:auto;text-rendering:auto;enable-background:accumulate;" transform="translate(27.00000000000137,0.0) rotate(90)"/>
	<path d="M 76.79128000000003,25.050598000000008 L 76.79128000000003,18.603228" fill="none" id="path4450" inkscape:connector-curvature="0" stroke-width="1" style="color:#000000;clip-rule:nonzero;display:inline;overflow:visible;visibility:visible;opacity:1;isolation:auto;mix-blend-mode:normal;color-interpolation:sRGB;color-interpolation-filters:linearRGB;solid-color:#000000;solid-opacity:1;vector-effect:none;fill:none;fill-opacity:1;fill-rule:nonzero;stroke:#000000;stroke-width:1;stroke-linecap:round;stroke-linejoin:round;stroke-dasharray:none;stroke-dashoffset:0;stroke-opacity:1;marker:none;marker-start:none;marker-mid:none;marker-end:none;color-rendering:auto;image-rendering:auto;shape-rendering:auto;text-rendering:auto;enable-background:accumulate;" transform="translate(27.00000000000137,0.0) rotate(90)"/>
	<path d="M 17.26430000000005,3.248551000000006 L 2.5,2.5 L 2.5,7.427317000000002 L 17.113269999999943,8.597544999999997 L 57.12708999999995,15.975008000000003 L 58.376139999999964,19.204028000000008 L 59.52431999999999,22.429738000000015 L 74.06097,25.202908000000008 L 79.37468999999999,25.202908000000008 L 93.91134,22.429738000000015 L 95.05952000000002,19.204028000000008 L 96.30858,15.975008000000003 L 136.32240000000002,8.597544999999997 L 150.93566999999996,7.427317000000002 L 150.93566999999996,2.5 L 136.1713699999999,3.248551000000006 L 94.39144999999996,7.8026920000000075 L 92.70803999999998,8.27288 L 90.92099999999994,8.743618999999995 L 89.88250999999991,10.509159999999994 L 88.94819999999993,12.273599999999988 L 87.62858999999992,13.712271999999984 L 86.16180999999995,15.289299999999983 L 82.67040999999995,17.490847999999986 L 80.70917999999995,18.13852799999998 L 79.04891999999995,18.637377999999984 L 74.38673999999992,18.637377999999984 L 72.72647999999992,18.13852799999998 L 70.7652599999999,17.490847999999986 L 67.2738599999999,15.289299999999983 L 65.80707999999993,13.712271999999984 L 64.48746999999992,12.273599999999988 L 63.553159999999934,10.509159999999994 L 62.51466999999991,8.743618999999995 L 60.72761999999989,8.27288 L 59.04421999999988,7.8026920000000075 L 17.26430000000005,3.248551000000006" fill="none" id="path4229" inkscape:connector-curvature="0" sodipodi:nodetypes="ccccccccccccccccccccccccccccccccccccc" stroke-width="1" style="color:#000000;clip-rule:nonzero;display:inline;overflow:visible;visibility:visible;opacity:1;isolation:auto;mix-blend-mode:normal;color-interpolation:sRGB;color-interpolation-filters:linearRGB;solid-color:#000000;solid-opacity:1;vector-effect:none;fill:none;fill-opacity:1;fill-rule:nonzero;stroke:#000000;stroke-width:1;stroke-linecap:round;stroke-linejoin:round;stroke-dasharray:none;stroke-dashoffset:0;stroke-opacity:1;marker:none;marker-start:none;marker-mid:none;marker-end:none;color-rendering:auto;image-rendering:auto;shape-rendering:auto;text-rendering:auto;enable-background:accumulate;" transform="translate(27.00000000000137,0.0) rotate(90)"/>
	<path d="M 104.0032000000001,245.76928000000004 L 54.79300000000012,245.76928000000004 L 5.582900000000109,245.76928000000004 L 5.582900000000109,186.05458000000004 L 5.582900000000109,126.33988000000005" fill="none" id="path4479" inkscape:connector-curvature="0" stroke-width="1" style="color:#000000;clip-rule:nonzero;display:inline;overflow:visible;visibility:visible;opacity:1;isolation:auto;mix-blend-mode:normal;color-interpolation:sRGB;color-interpolation-filters:linearRGB;solid-color:#000000;solid-opacity:1;vector-effect:none;fill:none;fill-opacity:1;fill-rule:nonzero;stroke:#000000;stroke-width:1;stroke-linecap:round;stroke-linejoin:round;stroke-dasharray:none;stroke-dashoffset:0;stroke-opacity:1;marker:none;marker-start:none;marker-mid:none;marker-end:none;color-rendering:auto;image-rendering:auto;shape-rendering:auto;text-rendering:auto;enable-background:accumulate;" transform="translate(290.0000000000147,0.0) rotate(90)"/>
	<path d="M 5.582900000000109,126.34884999999997 L 5.582900000000109,82.58712999999995 L 5.582900000000109,38.82540999999998 L 5.778999999999996,38.82140999999996 C 5.886899999999969,38.81840999999997 6.748599999999897,38.63296999999994 7.69399999999996,38.40733999999998 L 9.412800000000061,37.99700999999999 L 11.322599999999966,36.530730000000005 C 13.283400000000029,35.02535 13.308199999999943,35.00175999999999 16.342899999999872,31.764020000000016 C 17.163499999999885,30.888630000000035 20.51599999999985,26.65424999999999 24.487299999999777,21.477419999999995 C 25.16769999999974,20.590419999999995 25.77599999999984,19.80583999999999 25.83909999999969,19.733929999999987 C 25.90209999999979,19.66202999999996 26.90549999999962,18.70274999999998 28.068599999999606,17.60224999999997 C 29.535799999999654,16.21405999999996 30.841399999999567,15.08341999999999 32.33229999999958,13.909969999999987 C 33.514299999999594,12.97969999999998 34.49439999999959,12.18347 34.51039999999966,12.140549999999962 C 34.52639999999974,12.097649999999987 34.5803999999996,12.062549999999987 34.63059999999973,12.062549999999987 C 34.751799999999776,12.062549999999987 38.744599999999764,9.782669999999996 38.78189999999972,9.692129999999963 C 38.7978999999998,9.653429999999958 38.86289999999963,9.621629999999982 38.926899999999705,9.621629999999982 C 39.10689999999977,9.621629999999982 42.933599999999615,7.964819999999975 42.96629999999959,7.872700000000009 C 42.98229999999967,7.827699999999993 43.08449999999948,7.790999999999997 43.193399999999656,7.790999999999997 C 43.30239999999958,7.790999999999997 44.19159999999965,7.513739999999984 45.16939999999977,7.174879999999973 C 46.29249999999979,6.785669999999982 47.63759999999979,6.4001799999999776 48.82149999999979,6.128149999999948 C 49.85239999999976,5.891329999999925 50.77429999999981,5.661659999999927 50.87019999999984,5.6177999999999315 C 51.02549999999974,5.54669999999993 53.65829999999983,5.403769999999952 54.79299999999989,5.404749999999922 C 55.77089999999998,5.404749999999922 58.63169999999991,5.554699999999912 58.67229999999995,5.606939999999895 C 58.69629999999984,5.637839999999869 59.53970000000004,5.850099999999884 60.546499999999924,6.078669999999875 C 62.13760000000002,6.4398599999998964 65.91239999999993,7.591299999999876 66.60519999999997,7.926749999999856 C 66.72509999999988,7.984749999999849 67.66650000000004,8.391769999999838 68.69740000000002,8.83115999999984 C 69.72820000000002,9.270549999999844 70.63049999999998,9.661369999999863 70.70240000000013,9.699639999999818 C 70.77440000000001,9.73793999999981 71.66870000000017,10.247719999999845 72.6898000000001,10.832509999999843 C 73.71100000000001,11.417299999999841 74.65250000000015,11.943079999999838 74.78200000000015,12.000909999999863 C 74.91160000000013,12.05880999999988 75.07640000000015,12.169759999999883 75.14830000000006,12.247569999999882 C 75.22029999999995,12.325369999999907 76.20090000000005,13.108909999999867 77.32770000000005,13.988739999999893 C 78.73720000000003,15.089409999999873 79.96260000000007,16.146609999999896 81.25590000000011,17.377859999999885 C 82.28970000000004,18.36205999999987 83.28200000000015,19.304589999999905 83.46100000000001,19.47239999999988 C 83.64010000000007,19.640209999999854 84.99230000000011,21.346669999999904 86.46589999999992,23.26450999999986 C 91.5634,29.89825999999988 92.16829999999982,30.643439999999885 94.28009999999995,32.88986999999986 C 96.19650000000001,34.928359999999884 96.3895,35.10578999999984 98.23170000000005,36.52107999999987 L 100.1685,38.009069999999895 L 101.93329999999992,38.41879999999992 C 102.90390000000002,38.64415999999994 103.7666999999999,38.82776999999993 103.85059999999999,38.82686999999993" fill="none" id="path4465" inkscape:connector-curvature="0" sodipodi:nodetypes="ccccccssscsscscscssccccscscsccsssssscsc" stroke-width="1" style="color:#000000;clip-rule:nonzero;display:inline;overflow:visible;visibility:visible;opacity:1;isolation:auto;mix-blend-mode:normal;color-interpolation:sRGB;color-interpolation-filters:linearRGB;solid-color:#000000;solid-opacity:1;vector-effect:none;fill:none;fill-opacity:1;fill-rule:nonzero;stroke:#000000;stroke-width:1;stroke-linecap:round;stroke-linejoin:round;stroke-dasharray:none;stroke-dashoffset:0;stroke-opacity:1;marker:none;marker-start:none;marker-mid:none;marker-end:none;color-rendering:auto;image-rendering:auto;shape-rendering:auto;text-rendering:auto;enable-background:accumulate;" transform="translate(290.0000000000147,0.0) rotate(90)"/>
	<path d="M 52.67360000000008,2.5002000000000066 L 51.092800000000125,5.583149999999989 C 51.04380000000015,5.588149999999985 51.013800000000174,5.593549999999993 50.98030000000017,5.598549999999989 L 48.293100000000095,3.1087099999999737 L 47.127300000000105,6.565379999999948 C 47.114300000000185,6.569379999999967 47.102300000000014,6.572379999999953 47.089300000000094,6.575879999999927 L 44.11500000000001,4.285019999999918 L 43.01970000000006,7.81445999999994 L 39.85570000000007,5.907799999999952 L 38.90650000000005,9.626299999999958 C 38.856500000000096,9.631299999999953 38.813499999999976,9.652999999999963 38.793499999999995,9.68199999999996 L 35.23160000000007,8.13859999999994 L 34.71119999999996,12.025769999999966 C 34.68920000000003,12.035769999999957 34.63719999999989,12.062069999999949 34.631200000000035,12.06216999999998 L 30.567099999999982,11.465199999999982 L 30.323499999999967,15.52103999999997 L 25.942399999999907,15.440039999999954 L 25.861400000000003,19.699289999999962 L 21.521099999999933,20.307829999999967 L 21.034400000000005,20.916369999999972 L 21.54600000000005,25.2842 C 21.503000000000156,25.338900000000024 21.471000000000004,25.3793 21.428499999999985,25.433580000000006 L 17.26189999999997,25.905419999999992 L 16.85680000000002,26.3519 L 17.336900000000014,30.59516000000002 C 17.31989999999996,30.616460000000018 17.307900000000018,30.630560000000003 17.290899999999965,30.65136000000001 L 13.084499999999935,30.65136000000001 L 13.324299999999994,34.89350999999999 C 13.307299999999941,34.90900999999997 13.291300000000092,34.923509999999965 13.275300000000016,34.938710000000015 L 9.514900000000125,34.018190000000004 L 9.554900000000089,37.88882000000001 L 9.493900000000167,37.93572 L 6.838200000000143,35.47840000000002 L 5.580900000000156,38.80444 L 5.5929000000001,38.82533999999998 L 5.582900000000109,38.82533999999998 L 2.5,42.04994999999997 L 2.6946000000000367,242.58703999999994 L 5.582900000000109,245.76921 L 5.611900000000105,245.76921 L 7.655799999999999,248.92933 L 9.699699999999893,245.76921 L 9.71069999999986,245.76921 L 11.75409999999988,248.92933 L 13.797999999999774,245.76921 L 13.808999999999742,245.76921 L 15.852299999999786,248.92933 L 17.89619999999968,245.76921 L 17.907199999999648,245.76921 L 19.950599999999667,248.92933 L 21.99449999999956,245.76921 L 22.00549999999953,245.76921 L 24.048799999999574,248.92933 L 26.092699999999468,245.76921 L 26.103699999999435,245.76921 L 28.147099999999455,248.92933 L 30.19099999999935,245.76921 L 30.201999999999316,245.76921 L 32.245399999999336,248.92933 L 34.28929999999923,245.76921 L 34.3002999999992,245.76921 L 36.34419999999909,248.92933 L 38.387499999999136,245.76921 L 38.3984999999991,245.76921 L 40.442399999999,248.92933 L 42.48579999999902,245.76921 L 42.496799999998984,245.76921 L 44.54069999999888,248.92933 L 46.5840999999989,245.76921 L 46.595099999998865,245.76921 L 48.63899999999876,248.92933 L 50.682299999998804,245.76921 L 50.69329999999877,245.76921 L 52.737199999998666,248.92933 L 54.780599999998685,245.76921 L 54.79159999999865,245.76921 L 56.83549999999855,248.92933 L 58.87939999999844,245.76921 L 58.89039999999841,245.76921 L 60.93369999999845,248.92933 L 62.97759999999835,245.76921 L 62.988599999998314,245.76921 L 65.03199999999833,248.92933 L 67.07589999999823,245.76921 L 67.0868999999982,245.76921 L 69.13029999999821,248.92933 L 71.17419999999811,245.76921 L 71.18519999999808,245.76921 L 73.22849999999812,248.92933 L 75.27239999999802,245.76921 L 75.28339999999798,245.76921 L 77.326799999998,248.92933 L 79.3706999999979,245.76921 L 79.38169999999786,245.76921 L 81.42559999999776,248.92933 L 83.46899999999778,245.76921 L 83.47999999999774,245.76921 L 85.52389999999764,248.92933 L 87.56719999999768,245.76921 L 87.57819999999765,245.76921 L 89.62209999999754,248.92933 L 91.66549999999756,245.76921 L 91.67649999999753,245.76921 L 93.72039999999743,248.92933 L 95.76369999999747,245.76921 L 95.77469999999744,245.76921 L 97.81859999999733,248.92933 L 99.86199999999735,245.76921 L 99.87299999999732,245.76921 L 101.91689999999721,248.92933 L 103.9607999999971,245.76921 L 104.00279999999702,245.76921 L 104.00279999999702,82.58736999999996 C 104.00279999999702,44.744159999999965 103.99279999999703,39.55574999999999 103.88539999999693,38.923949999999934 L 103.95339999999692,38.80433999999991 L 102.69549999999685,35.47830999999991 L 100.05469999999696,37.922399999999925 L 99.97869999999693,37.86449999999991 L 100.01769999999692,34.01810999999992 L 96.27709999999684,34.933679999999924 C 96.2550999999969,34.913379999999904 96.23109999999679,34.890279999999905 96.20909999999685,34.869779999999935 L 96.44839999999681,30.651329999999916 L 92.26129999999671,30.651329999999916 C 92.24029999999675,30.62652999999989 92.21829999999682,30.60152999999991 92.19729999999663,30.576329999999928 L 92.67579999999657,26.35181999999992 L 92.27009999999655,25.905329999999935 L 88.14089999999646,25.437899999999956 C 88.09189999999649,25.374999999999943 88.0405999999964,25.30822999999998 87.99099999999657,25.24386999999996 L 88.49759999999651,20.916279999999972 L 88.0107999999966,20.307739999999967 L 83.67059999999651,19.699199999999962 L 83.58959999999661,15.439959999999985 L 79.20849999999655,15.520960000000002 L 78.96539999999663,11.465109999999981 L 74.89189999999667,12.063729999999964 C 74.86789999999678,12.04992999999996 74.84489999999664,12.03562999999997 74.82089999999675,12.024029999999982 L 74.29979999999682,8.138519999999971 L 70.69869999999673,9.699009999999987 C 70.69869999999673,9.69801000000001 70.64069999999674,9.673810000000003 70.63669999999684,9.67201 L 69.6753999999969,5.907759999999996 L 66.51139999999691,7.814419999999984 L 65.41609999999696,4.284979999999962 L 62.43569999999704,6.581349999999986 C 62.42569999999705,6.57835 62.41569999999706,6.5753500000000145 62.406699999997045,6.572349999999972 L 61.23819999999705,3.108509999999967 L 58.56149999999707,5.58842999999996 C 58.52749999999696,5.584429999999941 58.48449999999707,5.5804299999999785 58.43419999999696,5.575229999999976 L 56.85769999999707,2.5 L 54.78899999999703,5.380100000000027 L 54.80399999999713,5.405500000000018 C 54.80399999999713,5.405500000000018 54.79399999999714,5.404980000000023 54.79099999999721,5.404950000000042 C 54.77399999999716,5.404930000000036 54.74299999999721,5.406950000000052 54.72499999999718,5.406950000000052 L 54.73999999999728,5.380450000000053 L 52.67360000000008,2.5002000000000066" fill="none" id="path4395" inkscape:connector-curvature="0" sodipodi:nodetypes="ccccccccccccccccccccccccccccccccccccccccccccccccccccccccccccccccccccccccccccccccccccccccccccccccccccccccccccccccsccccccccccccccccccccccccccccccccccccccccc" stroke-width="1" style="color:#000000;clip-rule:nonzero;display:inline;overflow:visible;visibility:visible;opacity:1;isolation:auto;mix-blend-mode:normal;color-interpolation:sRGB;color-interpolation-filters:linearRGB;solid-color:#000000;solid-opacity:1;vector-effect:none;fill:none;fill-opacity:1;fill-rule:nonzero;stroke:#000000;stroke-width:1;stroke-linecap:round;stroke-linejoin:round;stroke-dasharray:none;stroke-dashoffset:0;stroke-opacity:1;marker:none;marker-start:none;marker-mid:none;marker-end:none;color-rendering:auto;image-rendering:auto;shape-rendering:auto;text-rendering:auto;enable-background:accumulate;" transform="translate(290.0000000000147,0.0) rotate(90)"/>
	<path d="M 76.79128000000003,25.050595 L 76.79128000000003,18.603228" fill="none" id="path4446" inkscape:connector-curvature="0" stroke-width="1" style="color:#000000;clip-rule:nonzero;display:inline;overflow:visible;visibility:visible;opacity:1;isolation:auto;mix-blend-mode:normal;color-interpolation:sRGB;color-interpolation-filters:linearRGB;solid-color:#000000;solid-opacity:1;vector-effect:none;fill:none;fill-opacity:1;fill-rule:nonzero;stroke:#000000;stroke-width:1;stroke-linecap:round;stroke-linejoin:round;stroke-dasharray:none;stroke-dashoffset:0;stroke-opacity:1;marker:none;marker-start:none;marker-mid:none;marker-end:none;color-rendering:auto;image-rendering:auto;shape-rendering:auto;text-rendering:auto;enable-background:accumulate;" transform="translate(16.000000000000814,182.00000000000927)"/>
	<path d="M 17.26430000000005,3.248548999999997 L 2.5,2.5 L 2.5,7.427315 L 17.113269999999943,8.597543000000002 L 57.12708999999995,15.97501100000001 L 58.376139999999964,19.204028000000008 L 59.52431999999999,22.429741000000007 L 74.06097,25.202905 L 79.37468999999999,25.202905 L 93.91134,22.429741000000007 L 95.05952000000002,19.204028000000008 L 96.30858,15.97501100000001 L 136.32240000000002,8.597543000000016 L 150.93566999999996,7.427315000000014 L 150.93566999999996,2.500000000000014 L 136.1713699999999,3.2485490000000112 L 94.39144999999996,7.802690000000013 L 92.70803999999998,8.272878000000006 L 90.92099999999994,8.743617 L 89.88250999999991,10.509158 L 88.94819999999993,12.273597999999993 L 87.62858999999992,13.71226999999999 L 86.16180999999995,15.289297999999988 L 82.67040999999995,17.490850999999992 L 80.70917999999995,18.13852999999999 L 79.04891999999995,18.63738099999999 L 74.38673999999992,18.63738099999999 L 72.72647999999992,18.13852999999999 L 70.7652599999999,17.490850999999992 L 67.2738599999999,15.289297999999988 L 65.80707999999993,13.71226999999999 L 64.48746999999992,12.273597999999993 L 63.553159999999934,10.509158 L 62.51466999999991,8.743617 L 60.72761999999989,8.272878000000006 L 59.04421999999988,7.8026900000000055 L 17.26430000000005,3.248548999999997" fill="none" id="path4227" inkscape:connector-curvature="0" sodipodi:nodetypes="ccccccccccccccccccccccccccccccccccccc" stroke-width="1" style="color:#000000;clip-rule:nonzero;display:inline;overflow:visible;visibility:visible;opacity:1;isolation:auto;mix-blend-mode:normal;color-interpolation:sRGB;color-interpolation-filters:linearRGB;solid-color:#000000;solid-opacity:1;vector-effect:none;fill:none;fill-opacity:1;fill-rule:nonzero;stroke:#000000;stroke-width:1;stroke-linecap:round;stroke-linejoin:round;stroke-dasharray:none;stroke-dashoffset:0;stroke-opacity:1;marker:none;marker-start:none;marker-mid:none;marker-end:none;color-rendering:auto;image-rendering:auto;shape-rendering:auto;text-rendering:auto;enable-background:accumulate;" transform="translate(16.000000000000814,182.00000000000927)"/>
	<path d="M 2.504760000000033,6.944850000000088 L 2.9129800000000614,6.632100000000037 C 3.1375000000000455,6.460109999999986 4.3088200000000825,5.5249900000000025 5.515910000000076,4.554070000000024 C 6.72300000000007,3.5831600000000208 7.728570000000104,2.7888000000000375 7.750510000000077,2.7888000000000375" fill="none" id="path4734" inkscape:connector-curvature="0" sodipodi:nodetypes="ccsc" stroke-width="1" style="color:#000000;clip-rule:nonzero;display:inline;overflow:visible;visibility:visible;opacity:1;isolation:auto;mix-blend-mode:normal;color-interpolation:sRGB;color-interpolation-filters:linearRGB;solid-color:#000000;solid-opacity:1;vector-effect:none;fill:none;fill-opacity:1;fill-rule:nonzero;stroke:#000000;stroke-width:1;stroke-linecap:round;stroke-linejoin:round;stroke-dasharray:none;stroke-dashoffset:0;stroke-opacity:1;marker:none;marker-start:none;marker-mid:none;marker-end:none;color-rendering:auto;image-rendering:auto;shape-rendering:auto;text-rendering:auto;enable-background:accumulate;" transform="translate(114.0000000000058,133.00000000000676) rotate(90)"/>
	<path d="M 5.034970000000044,73.25043000000005 C 2.8004600000000437,71.44439 2.5,71.17301000000009 2.6019600000000764,71.05288000000007 C 2.665960000000041,70.97748000000013 3.3481700000000956,69.91549000000009 4.11803000000009,68.69285000000002 C 5.440100000000143,66.59328000000005 5.5813600000001315,66.32523000000003 6.663610000000062,63.86259000000007 C 7.6915100000001075,61.5236000000001 7.89465000000007,60.973850000000084 8.637350000000083,58.520880000000034 C 10.638250000000085,51.91230000000007 11.586440000000039,44.857740000000035 11.558570000000032,36.786910000000034 C 11.54857000000004,34.02515000000005 11.513270000000034,33.21945000000005 11.28735000000006,30.68468000000007 C 11.062720000000013,28.163810000000126 10.953880000000026,27.37080000000003 10.491700000000037,24.88756000000012 C 9.993640000000028,22.211530000000153 9.896169999999984,21.8196200000001 9.094900000000052,19.27112000000011 C 8.252190000000041,16.590770000000134 8.206740000000082,16.476560000000063 6.996130000000107,13.997050000000058 C 5.760860000000093,11.467030000000022 5.755910000000085,11.458740000000034 4.13174000000015,9.203750000000014 L 2.5047600000001466,6.944849999999974 L 3.0610700000002,2.5 C 3.0610700000002,2.5 7.728570000000218,2.7887600000000248 7.75051000000019,2.7887600000000248 C 7.77241000000015,2.7887600000000248 8.389860000000226,3.6223700000000463 9.12253000000021,4.641230000000064 C 9.85521000000017,5.660080000000107 10.670900000000188,6.787900000000036 10.935180000000173,7.147500000000036 C 11.250250000000165,7.57621000000006 11.902630000000158,8.79848000000004 12.830000000000155,10.697520000000054 L 14.24430000000018,13.59373000000005 L 15.212070000000153,16.668990000000008 C 16.14583000000016,19.636190000000056 16.200950000000148,19.85618999999997 16.780790000000138,22.92996000000005 C 17.3354700000001,25.870320000000106 17.405440000000112,26.377200000000016 17.689380000000142,29.51165000000003 C 17.972910000000184,32.64155000000005 17.998120000000085,33.17743000000007 18.011250000000132,36.35104000000001 C 18.039150000000177,43.087780000000066 17.506230000000187,48.79598999999996 16.29411000000016,54.744910000000004 C 15.729130000000168,57.517780000000016 15.523330000000215,58.330190000000016 14.69311000000016,61.06506999999999 C 13.786650000000122,64.05111 13.677800000000161,64.34529999999995 12.449450000000184,67.12890000000004 C 11.168630000000235,70.03141000000005 11.145440000000235,70.07512000000008 9.502150000000142,72.68581000000006 C 8.510490000000118,74.26128000000006 7.793360000000121,75.31596000000002 7.715070000000196,75.3140800000001 C 7.643170000000168,75.31108000000006 6.437110000000189,74.38370000000009 5.034970000000158,73.25043000000005 L 5.034970000000044,73.25043000000005" fill="none" id="path4728" inkscape:connector-curvature="0" sodipodi:nodetypes="scsssssssssccsssscsssssssscs" stroke-width="1" style="color:#000000;clip-rule:nonzero;display:inline;overflow:visible;visibility:visible;opacity:1;isolation:auto;mix-blend-mode:normal;color-interpolation:sRGB;color-interpolation-filters:linearRGB;solid-color:#000000;solid-opacity:1;vector-effect:none;fill:none;fill-opacity:1;fill-rule:nonzero;stroke:#000000;stroke-width:1;stroke-linecap:round;stroke-linejoin:round;stroke-dasharray:none;stroke-dashoffset:0;stroke-opacity:1;marker:none;marker-start:none;marker-mid:none;marker-end:none;color-rendering:auto;image-rendering:auto;shape-rendering:auto;text-rendering:auto;enable-background:accumulate;" transform="translate(114.0000000000058,133.00000000000676) rotate(90)"/>
	<path d="M 30.62469999999962,2.947330000000022 C 30.587699999999586,2.947330000000022 3.6987999999996646,54.99310800000002 3.6987999999996646,54.99310800000002 L 27.684999999999718,74.12467800000003 L 40.004999999999654,82.52756800000002" fill="none" id="path6794" inkscape:connector-curvature="0" sodipodi:nodetypes="ccc" stroke-width="1" style="color:#000000;clip-rule:nonzero;display:inline;overflow:visible;visibility:visible;opacity:1;isolation:auto;mix-blend-mode:normal;color-interpolation:sRGB;color-interpolation-filters:linearRGB;solid-color:#000000;solid-opacity:1;vector-effect:none;fill:none;fill-opacity:1;fill-rule:nonzero;stroke:#000000;stroke-width:1;stroke-linecap:round;stroke-linejoin:round;stroke-dasharray:none;stroke-dashoffset:0;stroke-opacity:1;marker:none;marker-start:none;marker-mid:none;marker-end:none;color-rendering:auto;image-rendering:auto;shape-rendering:auto;text-rendering:auto;enable-background:accumulate;" transform="translate(173.0000000000088,118.000000000006)"/>
	<path d="M 40.46549999999979,75.44253800000003 L 40.60719999999969,72.25427800000001" fill="none" id="path4427" inkscape:connector-curvature="0" stroke-width="1" style="color:#000000;clip-rule:nonzero;display:inline;overflow:visible;visibility:visible;opacity:1;isolation:auto;mix-blend-mode:normal;color-interpolation:sRGB;color-interpolation-filters:linearRGB;solid-color:#000000;solid-opacity:1;vector-effect:none;fill:none;fill-opacity:1;fill-rule:nonzero;stroke:#000000;stroke-width:1;stroke-linecap:round;stroke-linejoin:round;stroke-dasharray:none;stroke-dashoffset:0;stroke-opacity:1;marker:none;marker-start:none;marker-mid:none;marker-end:none;color-rendering:auto;image-rendering:auto;shape-rendering:auto;text-rendering:auto;enable-background:accumulate;" transform="translate(173.0000000000088,118.000000000006)"/>
	<path d="M 45.63759999999979,75.44253800000003 L 45.42499999999973,72.50226800000003" fill="none" id="path4429" inkscape:connector-curvature="0" stroke-width="1" style="color:#000000;clip-rule:nonzero;display:inline;overflow:visible;visibility:visible;opacity:1;isolation:auto;mix-blend-mode:normal;color-interpolation:sRGB;color-interpolation-filters:linearRGB;solid-color:#000000;solid-opacity:1;vector-effect:none;fill:none;fill-opacity:1;fill-rule:nonzero;stroke:#000000;stroke-width:1;stroke-linecap:round;stroke-linejoin:round;stroke-dasharray:none;stroke-dashoffset:0;stroke-opacity:1;marker:none;marker-start:none;marker-mid:none;marker-end:none;color-rendering:auto;image-rendering:auto;shape-rendering:auto;text-rendering:auto;enable-background:accumulate;" transform="translate(173.0000000000088,118.000000000006)"/>
	<path d="M 46.07839999999965,82.44960800000003 L 58.50279999999975,74.00797800000002 L 82.3748999999998,55.04563800000001" fill="none" id="path4431" inkscape:connector-curvature="0" stroke-width="1" style="color:#000000;clip-rule:nonzero;display:inline;overflow:visible;visibility:visible;opacity:1;isolation:auto;mix-blend-mode:normal;color-interpolation:sRGB;color-interpolation-filters:linearRGB;solid-color:#000000;solid-opacity:1;vector-effect:none;fill:none;fill-opacity:1;fill-rule:nonzero;stroke:#000000;stroke-width:1;stroke-linecap:round;stroke-linejoin:round;stroke-dasharray:none;stroke-dashoffset:0;stroke-opacity:1;marker:none;marker-start:none;marker-mid:none;marker-end:none;color-rendering:auto;image-rendering:auto;shape-rendering:auto;text-rendering:auto;enable-background:accumulate;" transform="translate(173.0000000000088,118.000000000006)"/>
	<path d="M 3.8078999999997905,54.96714800000002 L 23.247699999999895,74.64354800000002 L 27.65339999999992,74.09985800000003 L 28.566100000000006,78.46027800000003 L 35.8427999999999,83.24677800000002 L 40.0,82.45889800000002 L 40.44489999999996,75.49615800000002 L 43.00630000000001,73.89500800000003 L 40.64879999999994,72.30353800000005 L 42.98739999999998,73.88104800000004 L 45.483600000000024,72.41341800000002 L 43.01749999999993,73.88144800000002 L 45.68159999999989,75.49737800000001 L 46.129399999999805,82.469678 L 50.46529999999984,83.27981799999999 L 57.65769999999975,78.32053799999998 L 58.471199999999726,74.06875799999999 L 62.84519999999975,74.53214799999999 L 82.39829999999984,55.117248000000004 L 55.41269999999986,3.1193800000000067 L 50.81859999999983,2.5 L 45.40249999999992,6.196470000000005 L 44.71049999999991,10.618870000000001 L 41.73049999999989,10.26513 L 43.42789999999991,12.913340000000005 L 43.091699999999946,13.984400000000008 L 42.71270000000004,12.877920000000003 L 41.05459999999994,10.618859999999998 L 30.68640000000005,3.1621700000000033 L 26.72829999999999,3.97993000000001 L 2.5,50.959418000000014 L 3.8078999999997905,54.96714800000002" fill="none" id="path6099" inkscape:connector-curvature="0" sodipodi:nodetypes="cccccccccccccccccccccccccccccccc" stroke-width="1" style="color:#000000;clip-rule:nonzero;display:inline;overflow:visible;visibility:visible;opacity:1;isolation:auto;mix-blend-mode:normal;color-interpolation:sRGB;color-interpolation-filters:linearRGB;solid-color:#000000;solid-opacity:1;vector-effect:none;fill:none;fill-opacity:1;fill-rule:nonzero;stroke:#000000;stroke-width:1;stroke-linecap:round;stroke-linejoin:round;stroke-dasharray:none;stroke-dashoffset:0;stroke-opacity:1;marker:none;marker-start:none;marker-mid:none;marker-end:none;color-rendering:auto;image-rendering:auto;shape-rendering:auto;text-rendering:auto;enable-background:accumulate;" transform="translate(173.0000000000088,118.000000000006)"/>
	<path d="M 43.42309999999975,12.862540000000024 L 44.70069999999964,10.558000000000021 L 55.396699999999555,3.0933000000000277" fill="none" id="path4410-1" inkscape:connector-curvature="0" stroke-width="1" style="color:#000000;clip-rule:nonzero;display:inline;overflow:visible;visibility:visible;opacity:1;isolation:auto;mix-blend-mode:normal;color-interpolation:sRGB;color-interpolation-filters:linearRGB;solid-color:#000000;solid-opacity:1;vector-effect:none;fill:none;fill-opacity:1;fill-rule:nonzero;stroke:#000000;stroke-width:1;stroke-linecap:round;stroke-linejoin:round;stroke-dasharray:none;stroke-dashoffset:0;stroke-opacity:1;marker:none;marker-start:none;marker-mid:none;marker-end:none;color-rendering:auto;image-rendering:auto;shape-rendering:auto;text-rendering:auto;enable-background:accumulate;" transform="translate(173.0000000000088,118.000000000006)"/>
	<path d="M 5.663989999999899,82.49479000000025 L 5.663989999999899,44.050730000000215 L 5.663989999999899,5.606670000000179 L 14.468639999999937,5.606670000000179 L 23.273289999999974,5.606670000000179 L 23.273289999999974,44.050730000000215 L 23.273289999999974,82.49479000000025" fill="none" id="path4732" inkscape:connector-curvature="0" sodipodi:nodetypes="ccccccc" stroke-width="1" style="color:#000000;clip-rule:nonzero;display:inline;overflow:visible;visibility:visible;opacity:1;isolation:auto;mix-blend-mode:normal;color-interpolation:sRGB;color-interpolation-filters:linearRGB;solid-color:#000000;solid-opacity:1;vector-effect:none;fill:none;fill-opacity:1;fill-rule:nonzero;stroke:#000000;stroke-width:1;stroke-linecap:round;stroke-linejoin:round;stroke-dasharray:none;stroke-dashoffset:0;stroke-opacity:1;marker:none;marker-start:none;marker-mid:none;marker-end:none;color-rendering:auto;image-rendering:auto;shape-rendering:auto;text-rendering:auto;enable-background:accumulate;" transform="translate(193.0000000000098,106.00000000000539) rotate(90)"/>
	<path d="M 5.663969999999949,5.606580000000292 L 5.663969999999949,5.7245400000003315 L 2.5,8.838360000000364 L 5.663969999999949,11.952720000000397 L 5.663969999999949,12.134620000000439 L 2.5,15.248440000000471 L 5.663969999999949,18.362800000000504 L 5.663969999999949,18.544700000000546 L 2.5,21.659070000000554 L 5.663969999999949,24.772890000000586 L 5.663969999999949,24.954790000000628 L 2.5,28.06915000000066 L 5.663969999999949,31.182970000000694 L 5.663969999999949,31.364870000000735 L 2.5,34.47924000000074 L 5.663969999999949,37.59360000000078 L 5.663969999999949,37.77551000000079 L 2.5,40.88932000000074 L 5.663969999999949,44.003690000000745 L 5.663969999999949,44.05049000000071 L 5.663969999999949,44.185540000000685 L 2.5,47.29935000000063 L 5.663969999999949,50.41372000000064 L 5.663969999999949,50.59562000000068 L 2.5,53.70944000000071 L 5.663969999999949,56.823800000000745 L 5.663969999999949,57.005700000000786 L 2.5,60.120070000000794 L 5.663969999999949,63.23389000000083 L 5.663969999999949,63.41579000000087 L 2.5,66.5301500000009 L 5.663969999999949,69.64398000000091 L 5.663969999999949,69.82586000000089 L 2.5,72.94024000000087 L 5.663969999999949,76.0546000000009 L 5.663969999999949,76.2365200000009 L 2.5,79.35033000000084 L 5.663969999999949,82.46468000000078 L 5.663969999999949,82.4944800000008 L 5.69426999999996,82.4944800000008 L 23.241109999999935,82.4944800000008 L 26.53792999999996,79.35036000000076 L 23.28189999999995,76.14559000000071 L 26.53792999999996,72.94027000000068 L 23.28189999999995,69.73497000000071 L 26.53792999999996,66.53018000000071 L 23.28189999999995,63.32487000000066 L 26.53792999999996,60.120100000000605 L 23.28189999999995,56.91479000000055 L 26.53792999999996,53.70947000000052 L 23.28189999999995,50.50470000000047 L 26.53792999999996,47.29938000000044 L 23.28189999999995,44.094620000000475 L 26.53792999999996,40.889300000000446 L 23.28189999999995,37.68454000000048 L 26.53792999999996,34.47922000000045 L 23.28189999999995,31.273900000000424 L 26.53792999999996,28.06913000000037 L 23.28189999999995,24.863820000000317 L 26.53792999999996,21.659050000000263 L 23.28189999999995,18.45374000000021 L 26.53792999999996,15.24842000000018 L 23.28189999999995,12.043650000000127 L 26.53792999999996,8.838340000000073 L 23.28189999999995,5.63357000000002 L 23.272899999999936,5.638570000000016 L 23.272899999999936,5.606069999999988 L 20.27977999999996,2.5249999999999773 L 8.787379999999985,2.5 L 5.663969999999949,5.606580000000292" fill="none" id="path4730" inkscape:connector-curvature="0" sodipodi:nodetypes="cccccccccccccccccccccccccccccccccccccccccccccccccccccccccccccccccccccc" stroke-width="1" style="color:#000000;clip-rule:nonzero;display:inline;overflow:visible;visibility:visible;opacity:1;isolation:auto;mix-blend-mode:normal;color-interpolation:sRGB;color-interpolation-filters:linearRGB;solid-color:#000000;solid-opacity:1;vector-effect:none;fill:none;fill-opacity:1;fill-rule:nonzero;stroke:#000000;stroke-width:1;stroke-linecap:round;stroke-linejoin:round;stroke-dasharray:none;stroke-dashoffset:0;stroke-opacity:1;marker:none;marker-start:none;marker-mid:none;marker-end:none;color-rendering:auto;image-rendering:auto;shape-rendering:auto;text-rendering:auto;enable-background:accumulate;" transform="translate(193.0000000000098,106.00000000000539) rotate(90)"/>
	<path d="M 18.03439000000003,6.944860000000062 L 17.626170000000002,6.632110000000068 C 17.401650000000018,6.460090000000093 16.230339999999956,5.524980000000085 15.023249999999962,4.554050000000075 C 13.816149999999993,3.583150000000103 12.810579999999959,2.788780000000088 12.788649999999961,2.788780000000088" fill="none" id="path5603" inkscape:connector-curvature="0" sodipodi:nodetypes="ccsc" stroke-width="1" style="color:#000000;clip-rule:nonzero;display:inline;overflow:visible;visibility:visible;opacity:1;isolation:auto;mix-blend-mode:normal;color-interpolation:sRGB;color-interpolation-filters:linearRGB;solid-color:#000000;solid-opacity:1;vector-effect:none;fill:none;fill-opacity:1;fill-rule:nonzero;stroke:#000000;stroke-width:1;stroke-linecap:round;stroke-linejoin:round;stroke-dasharray:none;stroke-dashoffset:0;stroke-opacity:1;marker:none;marker-start:none;marker-mid:none;marker-end:none;color-rendering:auto;image-rendering:auto;shape-rendering:auto;text-rendering:auto;enable-background:accumulate;" transform="translate(248.00000000001262,98.00000000000499)"/>
	<path d="M 15.50418000000002,73.25042000000008 C 17.73869000000002,71.44439000000011 18.039150000000063,71.17300000000012 17.937189999999987,71.0528700000001 C 17.873190000000022,70.97747000000015 17.190979999999968,69.91549000000009 16.421119999999974,68.69287000000008 C 15.09904999999992,66.59327000000008 14.957789999999932,66.32523000000009 13.87554,63.86259000000007 C 12.847629999999981,61.523600000000044 12.644499999999994,60.97384000000005 11.90179999999998,58.52087000000006 C 9.900899999999979,51.91229000000004 8.952710000000025,44.857740000000035 8.980580000000032,36.786910000000034 C 8.990580000000023,34.02515000000005 9.02588000000003,33.21945000000005 9.251800000000003,30.684680000000014 C 9.476440000000025,28.163810000000012 9.585270000000037,27.37080000000003 10.047450000000026,24.887560000000008 C 10.545510000000036,22.211529999999982 10.64298000000008,21.819619999999986 11.444240000000036,19.27111000000002 C 12.286960000000022,16.59077000000002 12.33242000000007,16.476560000000006 13.543030000000044,13.997050000000002 C 14.778300000000058,11.467030000000022 14.783240000000092,11.458739999999977 16.407420000000002,9.203739999999982 L 18.03439000000003,6.944849999999974 L 17.478079999999977,2.5 C 17.478079999999977,2.5 12.810579999999959,2.7887600000000248 12.788649999999961,2.7887600000000248 C 12.766750000000002,2.7887600000000248 12.14928999999995,3.6223700000000463 11.416619999999966,4.6412200000000325 C 10.683940000000007,5.66008000000005 9.868249999999989,6.787900000000036 9.603970000000004,7.147500000000036 C 9.288900000000012,7.57621000000006 8.636520000000019,8.798470000000009 7.709159999999997,10.697520000000054 L 6.294849999999997,13.59373000000005 L 5.327089999999998,16.668990000000065 C 4.393320000000017,19.636190000000056 4.338200000000029,19.856190000000083 3.758360000000039,22.92996000000005 C 3.2036800000000767,25.87032000000005 3.1337100000000646,26.377200000000073 2.849770000000035,29.51165000000003 C 2.5662399999999934,32.64155000000005 2.5410300000000916,33.177430000000015 2.527900000000045,36.35104000000001 C 2.5,43.08778000000001 3.0329300000000785,48.79599000000002 4.245040000000017,54.744910000000004 C 4.810020000000009,57.517780000000016 5.015819999999962,58.330190000000016 5.846040000000016,61.06508000000002 C 6.752500000000055,64.05111000000005 6.861350000000016,64.34530000000001 8.089699999999993,67.12889000000001 C 9.370519999999942,70.03139999999996 9.393709999999942,70.07511999999997 11.037000000000035,72.68581000000006 C 12.028660000000059,74.26127000000008 12.745790000000056,75.31595000000004 12.82407999999998,75.31407000000002 C 12.895980000000009,75.31207000000006 14.102039999999988,74.38369 15.50418000000002,73.25041999999996 L 15.50418000000002,73.25042000000008" fill="none" id="path5619" inkscape:connector-curvature="0" sodipodi:nodetypes="scsssssssssccsssscsssssssscs" stroke-width="1" style="color:#000000;clip-rule:nonzero;display:inline;overflow:visible;visibility:visible;opacity:1;isolation:auto;mix-blend-mode:normal;color-interpolation:sRGB;color-interpolation-filters:linearRGB;solid-color:#000000;solid-opacity:1;vector-effect:none;fill:none;fill-opacity:1;fill-rule:nonzero;stroke:#000000;stroke-width:1;stroke-linecap:round;stroke-linejoin:round;stroke-dasharray:none;stroke-dashoffset:0;stroke-opacity:1;marker:none;marker-start:none;marker-mid:none;marker-end:none;color-rendering:auto;image-rendering:auto;shape-rendering:auto;text-rendering:auto;enable-background:accumulate;" transform="translate(248.00000000001262,98.00000000000499)"/>
	<path d="M 4.2974999999999,19.328570000000013 L 3.7256999999999607,2.5" fill="none" id="path5535" inkscape:connector-curvature="0" sodipodi:nodetypes="cc" stroke-width="1" style="color:#000000;clip-rule:nonzero;display:inline;overflow:visible;visibility:visible;opacity:1;isolation:auto;mix-blend-mode:normal;color-interpolation:sRGB;color-interpolation-filters:linearRGB;solid-color:#000000;solid-opacity:1;vector-effect:none;fill:none;fill-opacity:1;fill-rule:nonzero;stroke:#000000;stroke-width:1;stroke-linecap:round;stroke-linejoin:round;stroke-dasharray:none;stroke-dashoffset:0;stroke-opacity:1;marker:none;marker-start:none;marker-mid:none;marker-end:none;color-rendering:auto;image-rendering:auto;shape-rendering:auto;text-rendering:auto;enable-background:accumulate;" transform="translate(0.0,0.0)"/>
	<path d="M 7.28269999999975,25.044389999999993 L 7.28269999999975,11.993660000000006" fill="none" id="path5537" inkscape:connector-curvature="0" stroke-width="1" style="color:#000000;clip-rule:nonzero;display:inline;overflow:visible;visibility:visible;opacity:1;isolation:auto;mix-blend-mode:normal;color-interpolation:sRGB;color-interpolation-filters:linearRGB;solid-color:#000000;solid-opacity:1;vector-effect:none;fill:none;fill-opacity:1;fill-rule:nonzero;stroke:#000000;stroke-width:1;stroke-linecap:round;stroke-linejoin:round;stroke-dasharray:none;stroke-dashoffset:0;stroke-opacity:1;marker:none;marker-start:none;marker-mid:none;marker-end:none;color-rendering:auto;image-rendering:auto;shape-rendering:auto;text-rendering:auto;enable-background:accumulate;" transform="translate(0.0,0.0)"/>
	<path d="M 10.268199999999752,19.328570000000013 L 10.83999999999969,2.5" fill="none" id="path5539" inkscape:connector-curvature="0" sodipodi:nodetypes="cc" stroke-width="1" style="color:#000000;clip-rule:nonzero;display:inline;overflow:visible;visibility:visible;opacity:1;isolation:auto;mix-blend-mode:normal;color-interpolation:sRGB;color-interpolation-filters:linearRGB;solid-color:#000000;solid-opacity:1;vector-effect:none;fill:none;fill-opacity:1;fill-rule:nonzero;stroke:#000000;stroke-width:1;stroke-linecap:round;stroke-linejoin:round;stroke-dasharray:none;stroke-dashoffset:0;stroke-opacity:1;marker:none;marker-start:none;marker-mid:none;marker-end:none;color-rendering:auto;image-rendering:auto;shape-rendering:auto;text-rendering:auto;enable-background:accumulate;" transform="translate(0.0,0.0)"/>
	<path d="M 3.052699999999959,3.7335199999999986 L 2.5,4.95326 L 2.692700000000059,10.25045 L 2.885400000000118,15.547680000000014 L 3.5814000000000306,17.465510000000023 C 3.964200000000119,18.520320000000027 4.7690000000000055,20.59945000000002 5.369799999999941,22.085770000000025 C 5.970599999999877,23.572120000000012 6.481499999999869,24.837230000000034 6.505099999999857,24.89715000000004 C 6.535099999999829,24.972050000000053 6.773299999999836,25.006140000000045 7.2681999999997515,25.006140000000045 L 7.988299999999754,25.006140000000045 L 8.180799999999863,24.548460000000034 C 8.853099999999813,22.950930000000028 10.382699999999886,19.05042000000003 10.966599999999971,17.444530000000043 L 11.656400000000076,15.547680000000042 L 11.849500000000035,10.246510000000029 L 12.042699999999968,4.945330000000041 L 11.489499999999907,3.7294400000000394 C 11.18529999999987,3.0607000000000255 10.896099999999933,2.526890000000037 10.846900000000005,2.5432000000000414 C 10.797900000000027,2.5595000000000425 10.177400000000034,3.457530000000048 9.4683,4.538810000000041 L 8.179100000000062,6.504770000000036 L 7.725300000000061,9.337880000000041 L 7.27150000000006,12.170990000000046 L 6.819600000000037,9.342270000000042 L 6.3677000000000135,6.513530000000031 L 5.075600000000122,4.543190000000038 C 4.365000000000009,3.459500000000048 3.743400000000065,2.559560000000033 3.694400000000087,2.543310000000048 C 3.6454000000001088,2.52711000000005 3.356700000000046,3.062660000000051 3.0527000000001863,3.7335200000000555 L 3.052699999999959,3.7335199999999986" fill="none" id="path5549" inkscape:connector-curvature="0" stroke-width="1" style="color:#000000;clip-rule:nonzero;display:inline;overflow:visible;visibility:visible;opacity:1;isolation:auto;mix-blend-mode:normal;color-interpolation:sRGB;color-interpolation-filters:linearRGB;solid-color:#000000;solid-opacity:1;vector-effect:none;fill:none;fill-opacity:1;fill-rule:nonzero;stroke:#000000;stroke-width:1;stroke-linecap:round;stroke-linejoin:round;stroke-dasharray:none;stroke-dashoffset:0;stroke-opacity:1;marker:none;marker-start:none;marker-mid:none;marker-end:none;color-rendering:auto;image-rendering:auto;shape-rendering:auto;text-rendering:auto;enable-background:accumulate;" transform="translate(0.0,0.0)"/>
	<path d="M 19.46246000000008,4.301140000000032 L 21.894430000000057,5.597930000000019 C 23.23201000000006,6.311159999999973 24.35961000000009,6.894710000000032 24.400190000000066,6.894710000000032 M 27.37006000000008,11.460890000000063 C 27.410260000000108,11.48569000000009 27.44306000000006,12.70067000000006 27.44306000000006,14.16077000000007 L 27.44306000000006,16.815520000000106 M 24.538880000000063,21.46528000000012 L 22.121430000000032,22.753680000000145 L 19.703970000000027,24.04208000000017 M 13.680040000000076,24.045080000000212 L 11.259320000000116,22.756140000000187 L 11.259320000000116,22.756400000000212 L 8.838590000000067,21.467490000000225 M 5.9409500000000435,16.839100000000258 L 5.9409500000000435,14.206760000000259 C 5.9409500000000435,11.731360000000222 5.950950000000034,11.560920000000237 6.103910000000042,11.347730000000297 M 9.09874000000002,6.849960000000351 C 9.225610000000074,6.795860000000403 10.359100000000012,6.2004800000003115 11.617610000000013,5.5270100000003595 L 13.9058,4.30250000000035" fill="none" id="path4746" inkscape:connector-curvature="0" sodipodi:nodetypes="csccscccccccccsccsc" stroke-width="1" style="color:#000000;clip-rule:nonzero;display:inline;overflow:visible;visibility:visible;opacity:1;isolation:auto;mix-blend-mode:normal;color-interpolation:sRGB;color-interpolation-filters:linearRGB;solid-color:#000000;solid-opacity:1;vector-effect:none;fill:none;fill-opacity:1;fill-rule:nonzero;stroke:#000000;stroke-width:1;stroke-linecap:round;stroke-linejoin:round;stroke-dasharray:none;stroke-dashoffset:0;stroke-opacity:1;marker:none;marker-start:none;marker-mid:none;marker-end:none;color-rendering:auto;image-rendering:auto;shape-rendering:auto;text-rendering:auto;enable-background:accumulate;" transform="translate(20.000000000001016,103.00000000000524)"/>
	<path d="M 883.6759,543.12069 L 882.41748,547.76634 A 11.265183,10.379556 0.0 0,0 879.85543,551.82218 L 876.4616,554.96906 L 879.79755,557.70254 A 11.265183,10.379556 0.0 0,0 882.49961,562.0384 L 883.60039,566.44151 L 887.99523,564.93559 A 11.265183,10.379556 0.0 0,0 890.62728,565.2349 A 11.265183,10.379556 0.0 0,0 893.21799,564.9438600000001 L 897.6784299999999,566.5418300000001 L 898.7555,562.2329800000001 L 898.7665,562.0136000000001 A 11.265183,10.379556 0.0 0,0 901.3258,558.0834300000001 L 904.84255,554.8687400000001 L 901.511,551.9627400000002 L 901.4205999999999,551.9087400000002 A 11.265183,10.379556 0.0 0,0 898.9665899999999,547.8953400000001 L 897.6530399999999,543.2458400000002 L 893.5453799999999,544.7236500000001 L 893.3006499999999,544.7853500000001 A 11.265183,10.379556 0.0 0,0 890.6272499999999,544.4761200000002 A 11.265183,10.379556 0.0 0,0 888.1026799999999,544.7533800000001 L 883.6759,543.12069" fill="none" id="path4900" inkscape:connector-curvature="0" stroke-width="1" style="color:#000000;clip-rule:nonzero;display:inline;overflow:visible;visibility:visible;opacity:1;isolation:auto;mix-blend-mode:normal;color-interpolation:sRGB;color-interpolation-filters:linearRGB;solid-color:#000000;solid-opacity:1;vector-effect:none;fill:none;fill-opacity:1;fill-rule:nonzero;stroke:#000000;stroke-width:1;stroke-linecap:round;stroke-linejoin:round;stroke-dasharray:none;stroke-dashoffset:0;stroke-opacity:1;marker:none;marker-start:none;marker-mid:none;marker-end:none;color-rendering:auto;image-rendering:auto;shape-rendering:auto;text-rendering:auto;enable-background:accumulate;" transform="translate(20.000000000001016,103.00000000000524)"/>
	<path d="M 53.6757999999993,3.210170000000005 C 53.7237999999993,3.213169999999991 56.56789999999933,5.271920000000023 59.995999999999185,7.786119999999983 C 63.42409999999927,10.300329999999974 66.28779999999915,12.393399999999986 66.35979999999927,12.437399999999968 C 66.4750999999992,12.50789999999995 66.47409999999923,12.530799999999942 66.34979999999928,12.631369999999947 C 66.27379999999926,12.694069999999954 65.7663999999993,13.333819999999946 65.22319999999922,14.053009999999972 C 63.26289999999926,16.64815999999996 61.15939999999932,19.13898999999998 58.63429999999926,21.855159999999955 C 56.18789999999922,24.48661999999996 53.9904999999992,26.52660999999995 51.6906999999992,28.301169999999956 C 50.98349999999914,28.84689999999995 50.40489999999909,29.326229999999953 50.40489999999909,29.36635999999993 C 50.40489999999909,29.406459999999925 50.35889999999904,29.43935999999991 50.302399999999125,29.43935999999991 C 50.246399999999085,29.43935999999991 49.56939999999918,29.8473699999999 48.798699999999144,30.346029999999928 C 48.027899999999136,30.8446899999999 46.78929999999923,31.5553799999999 46.046099999999115,31.92533999999995 C 45.3029999999992,32.29533999999995 44.68189999999913,32.63267999999994 44.665899999999056,32.67503999999997 C 44.64989999999898,32.71733999999998 44.56989999999905,32.752039999999965 44.48849999999902,32.752039999999965 C 44.35499999999911,32.752039999999965 42.294599999999036,33.47325999999998 41.64379999999892,33.74777999999998 C 41.49999999999886,33.80838 40.93119999999885,33.945899999999995 40.37979999999902,34.053229999999985 C 39.828399999998965,34.160559999999975 39.04379999999901,34.32122999999996 38.63629999999898,34.41026999999997 C 36.91049999999905,34.787289999999985 32.75209999999902,34.803999999999974 31.097099999999045,34.44056999999998 C 30.762199999998984,34.36696999999998 29.957999999998947,34.19525999999996 29.309999999999036,34.05885999999998 C 26.865299999999024,33.54435000000001 23.408699999999044,32.03931 20.779599999998936,30.34478999999999 C 19.27619999999888,29.375779999999963 16.90919999999892,27.55962999999997 15.534999999998945,26.32072999999997 C 14.369799999999032,25.270269999999982 11.928299999998899,22.855289999999968 10.888299999998935,21.72453999999999 C 10.447299999998904,21.245130000000017 9.942299999999022,20.69592 9.765899999998965,20.504099999999994 C 9.589499999998907,20.312270000000012 9.046099999998887,19.684579999999983 8.558199999999033,19.109219999999993 C 8.070399999998926,18.53388000000001 7.596199999999044,17.984669999999994 7.504499999999098,17.888769999999965 C 7.4124999999989996,17.792869999999994 6.90339999999901,17.165239999999983 6.372699999998986,16.49396999999999 C 5.8418999999989865,15.82274000000001 5.371799999998984,15.260459999999966 5.327999999999065,15.244489999999985 C 5.283999999998969,15.22838999999999 5.247999999999138,15.178089999999997 5.247999999999138,15.132419999999968 C 5.247999999999138,15.04511999999994 3.4407999999991716,12.608169999999973 3.3105999999991127,12.519969999999944" fill="none" id="path4473" inkscape:connector-curvature="0" sodipodi:nodetypes="csccsscsssccscscccsccsccccsc" stroke-width="1" style="color:#000000;clip-rule:nonzero;display:inline;overflow:visible;visibility:visible;opacity:1;isolation:auto;mix-blend-mode:normal;color-interpolation:sRGB;color-interpolation-filters:linearRGB;solid-color:#000000;solid-opacity:1;vector-effect:none;fill:none;fill-opacity:1;fill-rule:nonzero;stroke:#000000;stroke-width:1;stroke-linecap:round;stroke-linejoin:round;stroke-dasharray:none;stroke-dashoffset:0;stroke-opacity:1;marker:none;marker-start:none;marker-mid:none;marker-end:none;color-rendering:auto;image-rendering:auto;shape-rendering:auto;text-rendering:auto;enable-background:accumulate;" transform="translate(100.00000000000509,138.00000000000702)"/>
	<path d="M 37.90029999999933,37.648960000000045 L 39.70989999999938,34.190630000000056 C 39.72689999999943,34.18763000000007 39.738899999999376,34.184630000000084 39.75589999999943,34.18163000000004 L 43.17399999999952,36.594850000000065 L 44.5508999999995,32.74020000000007 C 44.60689999999954,32.7281000000001 44.655999999999494,32.70620000000008 44.66779999999949,32.675200000000075 C 44.668599999999515,32.673200000000065 44.68579999999952,32.66340000000008 44.68979999999942,32.66030000000006 L 48.34209999999939,34.221340000000055 L 48.85309999999936,30.38874000000004 L 52.666399999999385,31.484000000000037 L 52.99049999999943,27.346580000000017 L 57.16869999999949,27.792509999999993 L 56.56019999999944,24.22284000000002 L 60.53559999999948,24.466480000000047 L 60.17069999999944,20.329060000000027 L 64.06439999999952,20.08542 L 63.37489999999957,16.515750000000025 L 67.10659999999962,16.597350000000006 L 66.32109999999966,12.669390000000021 C 66.32109999999966,12.665390000000002 66.34909999999968,12.634389999999996 66.35209999999961,12.631889999999999 C 66.47459999999955,12.531360000000006 66.3620999999996,12.43786 66.3620999999996,12.43786 L 65.72819999999956,8.054039999999986 L 58.07739999999967,2.5 L 53.67869999999971,3.2105099999999993 C 53.67869999999971,3.2105099999999993 53.35619999999972,3.5268100000000118 53.06849999999963,3.9193799999999896 C 50.399499999999534,7.561620000000005 47.284299999999575,10.993490000000008 45.157999999999674,12.633539999999982 C 43.33589999999958,14.03895 40.639799999999696,15.203229999999962 38.42269999999962,15.542299999999955 C 37.99119999999971,15.608299999999929 37.461999999999534,15.705099999999959 37.24639999999954,15.757829999999956 C 37.018699999999626,15.813529999999957 36.032099999999446,15.852929999999958 34.89269999999965,15.851529999999968 C 33.216599999999744,15.849529999999959 32.753299999999626,15.818429999999978 31.710499999999683,15.637659999999983 C 28.215499999999793,15.031799999999976 25.697899999999663,13.81198999999998 23.141299999999774,11.48590999999999 C 21.483999999999696,9.977980000000002 18.485999999999876,6.462919999999997 16.464499999999816,3.6575500000000147 C 16.283099999999877,3.405830000000037 16.098099999999704,3.2000400000000013 16.05329999999981,3.2000400000000013 C 15.90489999999977,3.2000400000000013 3.2387999999998556,12.468360000000018 3.3157999999998538,12.520539999999983 C 3.3157999999998538,12.522539999999992 3.32979999999975,12.53764000000001 3.333799999999883,12.540939999999978 L 3.310799999999972,12.540939999999978 L 2.5,16.59733 L 6.231700000000046,16.51573000000002 L 5.5422000000000935,20.085399999999993 L 9.435900000000174,20.32904000000002 L 9.07100000000014,24.46646000000004 L 13.046400000000176,24.222830000000044 L 12.437900000000127,27.792500000000018 L 16.61550000000011,27.34656000000001 L 16.940200000000004,31.48398000000003 L 20.75350000000003,30.388720000000035 L 21.264499999999998,34.22132000000005 L 25.012199999999893,32.61949000000004 L 26.43209999999999,36.594850000000065 L 29.858999999999924,34.17557000000005 C 29.871999999999844,34.178570000000036 29.878999999999905,34.17957000000007 29.891999999999825,34.182570000000055 L 31.7054999999998,37.64972000000006 L 34.804499999999734,34.79222000000004 L 37.90339999999969,37.64972000000006 L 37.90029999999933,37.648960000000045 M 34.801399999999376,34.73744000000005 L 34.77439999999933,34.70274000000006 C 34.79239999999936,34.70271000000008 34.81039999999939,34.70327000000009 34.82839999999942,34.70327000000009 L 34.801399999999376,34.73747000000009 L 34.801399999999376,34.73744000000005" fill="none" id="path4389" inkscape:connector-curvature="0" stroke-width="1" style="color:#000000;clip-rule:nonzero;display:inline;overflow:visible;visibility:visible;opacity:1;isolation:auto;mix-blend-mode:normal;color-interpolation:sRGB;color-interpolation-filters:linearRGB;solid-color:#000000;solid-opacity:1;vector-effect:none;fill:none;fill-opacity:1;fill-rule:nonzero;stroke:#000000;stroke-width:1;stroke-linecap:round;stroke-linejoin:round;stroke-dasharray:none;stroke-dashoffset:0;stroke-opacity:1;marker:none;marker-start:none;marker-mid:none;marker-end:none;color-rendering:auto;image-rendering:auto;shape-rendering:auto;text-rendering:auto;enable-background:accumulate;" transform="translate(100.00000000000509,138.00000000000702)"/>
</svg>
