<?xml version="1.0" ?>
<svg xmlns="http://www.w3.org/2000/svg" xmlns:cc="http://creativecommons.org/ns#" xmlns:dc="http://purl.org/dc/elements/1.1/" xmlns:ev="http://www.w3.org/2001/xml-events" xmlns:inkscape="http://www.inkscape.org/namespaces/inkscape" xmlns:rdf="http://www.w3.org/1999/02/22-rdf-syntax-ns#" xmlns:sodipodi="http://sodipodi.sourceforge.net/DTD/sodipodi-0.dtd" xmlns:svg="http://www.w3.org/2000/svg" xmlns:xlink="http://www.w3.org/1999/xlink" baseProfile="full" height="210mm" id="svg1" inkscape:version="0.92.4 (5da689c313, 2019-01-14)" sodipodi:docname="e190-e2.svg" version="1.1" viewBox="0 0 297.0000000000151 210.0000000000107" width="297mm">
	<defs/>
	<path d="M 104.0032000000001,245.76928000000004 L 54.79300000000012,245.76928000000004 L 5.582900000000109,245.76928000000004 L 5.582900000000109,186.05458000000004 L 5.582900000000109,126.33988000000005" fill="none" id="path4479" inkscape:connector-curvature="0" stroke-width="1" style="color:#000000;clip-rule:nonzero;display:inline;overflow:visible;visibility:visible;opacity:1;isolation:auto;mix-blend-mode:normal;color-interpolation:sRGB;color-interpolation-filters:linearRGB;solid-color:#000000;solid-opacity:1;vector-effect:none;fill:none;fill-opacity:1;fill-rule:nonzero;stroke:#000000;stroke-width:1;stroke-linecap:round;stroke-linejoin:round;stroke-dasharray:none;stroke-dashoffset:0;stroke-opacity:1;marker:none;marker-start:none;marker-mid:none;marker-end:none;color-rendering:auto;image-rendering:auto;shape-rendering:auto;text-rendering:auto;enable-background:accumulate;" transform="translate(46.00000000000234,0.0)"/>
	<path d="M 5.582900000000109,126.34884999999997 L 5.582900000000109,82.58712999999995 L 5.582900000000109,38.82540999999998 L 5.778999999999996,38.82140999999996 C 5.886899999999969,38.81840999999997 6.748599999999897,38.63296999999994 7.69399999999996,38.40733999999998 L 9.412800000000061,37.99700999999999 L 11.322599999999966,36.530730000000005 C 13.283400000000029,35.02535 13.308199999999943,35.00175999999999 16.342899999999872,31.764020000000016 C 17.163499999999885,30.888630000000035 20.51599999999985,26.65424999999999 24.487299999999777,21.477419999999995 C 25.16769999999974,20.590419999999995 25.77599999999984,19.80583999999999 25.83909999999969,19.733929999999987 C 25.90209999999979,19.66202999999996 26.90549999999962,18.70274999999998 28.068599999999606,17.60224999999997 C 29.535799999999654,16.21405999999996 30.841399999999567,15.08341999999999 32.33229999999958,13.909969999999987 C 33.514299999999594,12.97969999999998 34.49439999999959,12.18347 34.51039999999966,12.140549999999962 C 34.52639999999974,12.097649999999987 34.5803999999996,12.062549999999987 34.63059999999973,12.062549999999987 C 34.751799999999776,12.062549999999987 38.744599999999764,9.782669999999996 38.78189999999972,9.692129999999963 C 38.7978999999998,9.653429999999958 38.86289999999963,9.621629999999982 38.926899999999705,9.621629999999982 C 39.10689999999977,9.621629999999982 42.933599999999615,7.964819999999975 42.96629999999959,7.872700000000009 C 42.98229999999967,7.827699999999993 43.08449999999948,7.790999999999997 43.193399999999656,7.790999999999997 C 43.30239999999958,7.790999999999997 44.19159999999965,7.513739999999984 45.16939999999977,7.174879999999973 C 46.29249999999979,6.785669999999982 47.63759999999979,6.4001799999999776 48.82149999999979,6.128149999999948 C 49.85239999999976,5.891329999999925 50.77429999999981,5.661659999999927 50.87019999999984,5.6177999999999315 C 51.02549999999974,5.54669999999993 53.65829999999983,5.403769999999952 54.79299999999989,5.404749999999922 C 55.77089999999998,5.404749999999922 58.63169999999991,5.554699999999912 58.67229999999995,5.606939999999895 C 58.69629999999984,5.637839999999869 59.53970000000004,5.850099999999884 60.546499999999924,6.078669999999875 C 62.13760000000002,6.4398599999998964 65.91239999999993,7.591299999999876 66.60519999999997,7.926749999999856 C 66.72509999999988,7.984749999999849 67.66650000000004,8.391769999999838 68.69740000000002,8.83115999999984 C 69.72820000000002,9.270549999999844 70.63049999999998,9.661369999999863 70.70240000000013,9.699639999999818 C 70.77440000000001,9.73793999999981 71.66870000000017,10.247719999999845 72.6898000000001,10.832509999999843 C 73.71100000000001,11.417299999999841 74.65250000000015,11.943079999999838 74.78200000000015,12.000909999999863 C 74.91160000000013,12.05880999999988 75.07640000000015,12.169759999999883 75.14830000000006,12.247569999999882 C 75.22029999999995,12.325369999999907 76.20090000000005,13.108909999999867 77.32770000000005,13.988739999999893 C 78.73720000000003,15.089409999999873 79.96260000000007,16.146609999999896 81.25590000000011,17.377859999999885 C 82.28970000000004,18.36205999999987 83.28200000000015,19.304589999999905 83.46100000000001,19.47239999999988 C 83.64010000000007,19.640209999999854 84.99230000000011,21.346669999999904 86.46589999999992,23.26450999999986 C 91.5634,29.89825999999988 92.16829999999982,30.643439999999885 94.28009999999995,32.88986999999986 C 96.19650000000001,34.928359999999884 96.3895,35.10578999999984 98.23170000000005,36.52107999999987 L 100.1685,38.009069999999895 L 101.93329999999992,38.41879999999992 C 102.90390000000002,38.64415999999994 103.7666999999999,38.82776999999993 103.85059999999999,38.82686999999993" fill="none" id="path4465" inkscape:connector-curvature="0" sodipodi:nodetypes="ccccccssscsscscscssccccscscsccsssssscsc" stroke-width="1" style="color:#000000;clip-rule:nonzero;display:inline;overflow:visible;visibility:visible;opacity:1;isolation:auto;mix-blend-mode:normal;color-interpolation:sRGB;color-interpolation-filters:linearRGB;solid-color:#000000;solid-opacity:1;vector-effect:none;fill:none;fill-opacity:1;fill-rule:nonzero;stroke:#000000;stroke-width:1;stroke-linecap:round;stroke-linejoin:round;stroke-dasharray:none;stroke-dashoffset:0;stroke-opacity:1;marker:none;marker-start:none;marker-mid:none;marker-end:none;color-rendering:auto;image-rendering:auto;shape-rendering:auto;text-rendering:auto;enable-background:accumulate;" transform="translate(46.00000000000234,0.0)"/>
	<path d="M 52.67360000000008,2.5002000000000066 L 51.092800000000125,5.583149999999989 C 51.04380000000015,5.588149999999985 51.013800000000174,5.593549999999993 50.98030000000017,5.598549999999989 L 48.293100000000095,3.1087099999999737 L 47.127300000000105,6.565379999999948 C 47.114300000000185,6.569379999999967 47.102300000000014,6.572379999999953 47.089300000000094,6.575879999999927 L 44.11500000000001,4.285019999999918 L 43.01970000000006,7.81445999999994 L 39.85570000000007,5.907799999999952 L 38.90650000000005,9.626299999999958 C 38.856500000000096,9.631299999999953 38.813499999999976,9.652999999999963 38.793499999999995,9.68199999999996 L 35.23160000000007,8.13859999999994 L 34.71119999999996,12.025769999999966 C 34.68920000000003,12.035769999999957 34.63719999999989,12.062069999999949 34.631200000000035,12.06216999999998 L 30.567099999999982,11.465199999999982 L 30.323499999999967,15.52103999999997 L 25.942399999999907,15.440039999999954 L 25.861400000000003,19.699289999999962 L 21.521099999999933,20.307829999999967 L 21.034400000000005,20.916369999999972 L 21.54600000000005,25.2842 C 21.503000000000156,25.338900000000024 21.471000000000004,25.3793 21.428499999999985,25.433580000000006 L 17.26189999999997,25.905419999999992 L 16.85680000000002,26.3519 L 17.336900000000014,30.59516000000002 C 17.31989999999996,30.616460000000018 17.307900000000018,30.630560000000003 17.290899999999965,30.65136000000001 L 13.084499999999935,30.65136000000001 L 13.324299999999994,34.89350999999999 C 13.307299999999941,34.90900999999997 13.291300000000092,34.923509999999965 13.275300000000016,34.938710000000015 L 9.514900000000125,34.018190000000004 L 9.554900000000089,37.88882000000001 L 9.493900000000167,37.93572 L 6.838200000000143,35.47840000000002 L 5.580900000000156,38.80444 L 5.5929000000001,38.82533999999998 L 5.582900000000109,38.82533999999998 L 2.5,42.04994999999997 L 2.6946000000000367,242.58703999999994 L 5.582900000000109,245.76921 L 5.611900000000105,245.76921 L 7.655799999999999,248.92933 L 9.699699999999893,245.76921 L 9.71069999999986,245.76921 L 11.75409999999988,248.92933 L 13.797999999999774,245.76921 L 13.808999999999742,245.76921 L 15.852299999999786,248.92933 L 17.89619999999968,245.76921 L 17.907199999999648,245.76921 L 19.950599999999667,248.92933 L 21.99449999999956,245.76921 L 22.00549999999953,245.76921 L 24.048799999999574,248.92933 L 26.092699999999468,245.76921 L 26.103699999999435,245.76921 L 28.147099999999455,248.92933 L 30.19099999999935,245.76921 L 30.201999999999316,245.76921 L 32.245399999999336,248.92933 L 34.28929999999923,245.76921 L 34.3002999999992,245.76921 L 36.34419999999909,248.92933 L 38.387499999999136,245.76921 L 38.3984999999991,245.76921 L 40.442399999999,248.92933 L 42.48579999999902,245.76921 L 42.496799999998984,245.76921 L 44.54069999999888,248.92933 L 46.5840999999989,245.76921 L 46.595099999998865,245.76921 L 48.63899999999876,248.92933 L 50.682299999998804,245.76921 L 50.69329999999877,245.76921 L 52.737199999998666,248.92933 L 54.780599999998685,245.76921 L 54.79159999999865,245.76921 L 56.83549999999855,248.92933 L 58.87939999999844,245.76921 L 58.89039999999841,245.76921 L 60.93369999999845,248.92933 L 62.97759999999835,245.76921 L 62.988599999998314,245.76921 L 65.03199999999833,248.92933 L 67.07589999999823,245.76921 L 67.0868999999982,245.76921 L 69.13029999999821,248.92933 L 71.17419999999811,245.76921 L 71.18519999999808,245.76921 L 73.22849999999812,248.92933 L 75.27239999999802,245.76921 L 75.28339999999798,245.76921 L 77.326799999998,248.92933 L 79.3706999999979,245.76921 L 79.38169999999786,245.76921 L 81.42559999999776,248.92933 L 83.46899999999778,245.76921 L 83.47999999999774,245.76921 L 85.52389999999764,248.92933 L 87.56719999999768,245.76921 L 87.57819999999765,245.76921 L 89.62209999999754,248.92933 L 91.66549999999756,245.76921 L 91.67649999999753,245.76921 L 93.72039999999743,248.92933 L 95.76369999999747,245.76921 L 95.77469999999744,245.76921 L 97.81859999999733,248.92933 L 99.86199999999735,245.76921 L 99.87299999999732,245.76921 L 101.91689999999721,248.92933 L 103.9607999999971,245.76921 L 104.00279999999702,245.76921 L 104.00279999999702,82.58736999999996 C 104.00279999999702,44.744159999999965 103.99279999999703,39.55574999999999 103.88539999999693,38.923949999999934 L 103.95339999999692,38.80433999999991 L 102.69549999999685,35.47830999999991 L 100.05469999999696,37.922399999999925 L 99.97869999999693,37.86449999999991 L 100.01769999999692,34.01810999999992 L 96.27709999999684,34.933679999999924 C 96.2550999999969,34.913379999999904 96.23109999999679,34.890279999999905 96.20909999999685,34.869779999999935 L 96.44839999999681,30.651329999999916 L 92.26129999999671,30.651329999999916 C 92.24029999999675,30.62652999999989 92.21829999999682,30.60152999999991 92.19729999999663,30.576329999999928 L 92.67579999999657,26.35181999999992 L 92.27009999999655,25.905329999999935 L 88.14089999999646,25.437899999999956 C 88.09189999999649,25.374999999999943 88.0405999999964,25.30822999999998 87.99099999999657,25.24386999999996 L 88.49759999999651,20.916279999999972 L 88.0107999999966,20.307739999999967 L 83.67059999999651,19.699199999999962 L 83.58959999999661,15.439959999999985 L 79.20849999999655,15.520960000000002 L 78.96539999999663,11.465109999999981 L 74.89189999999667,12.063729999999964 C 74.86789999999678,12.04992999999996 74.84489999999664,12.03562999999997 74.82089999999675,12.024029999999982 L 74.29979999999682,8.138519999999971 L 70.69869999999673,9.699009999999987 C 70.69869999999673,9.69801000000001 70.64069999999674,9.673810000000003 70.63669999999684,9.67201 L 69.6753999999969,5.907759999999996 L 66.51139999999691,7.814419999999984 L 65.41609999999696,4.284979999999962 L 62.43569999999704,6.581349999999986 C 62.42569999999705,6.57835 62.41569999999706,6.5753500000000145 62.406699999997045,6.572349999999972 L 61.23819999999705,3.108509999999967 L 58.56149999999707,5.58842999999996 C 58.52749999999696,5.584429999999941 58.48449999999707,5.5804299999999785 58.43419999999696,5.575229999999976 L 56.85769999999707,2.5 L 54.78899999999703,5.380100000000027 L 54.80399999999713,5.405500000000018 C 54.80399999999713,5.405500000000018 54.79399999999714,5.404980000000023 54.79099999999721,5.404950000000042 C 54.77399999999716,5.404930000000036 54.74299999999721,5.406950000000052 54.72499999999718,5.406950000000052 L 54.73999999999728,5.380450000000053 L 52.67360000000008,2.5002000000000066" fill="none" id="path4395" inkscape:connector-curvature="0" sodipodi:nodetypes="ccccccccccccccccccccccccccccccccccccccccccccccccccccccccccccccccccccccccccccccccccccccccccccccccccccccccccccccccsccccccccccccccccccccccccccccccccccccccccc" stroke-width="1" style="color:#000000;clip-rule:nonzero;display:inline;overflow:visible;visibility:visible;opacity:1;isolation:auto;mix-blend-mode:normal;color-interpolation:sRGB;color-interpolation-filters:linearRGB;solid-color:#000000;solid-opacity:1;vector-effect:none;fill:none;fill-opacity:1;fill-rule:nonzero;stroke:#000000;stroke-width:1;stroke-linecap:round;stroke-linejoin:round;stroke-dasharray:none;stroke-dashoffset:0;stroke-opacity:1;marker:none;marker-start:none;marker-mid:none;marker-end:none;color-rendering:auto;image-rendering:auto;shape-rendering:auto;text-rendering:auto;enable-background:accumulate;" transform="translate(46.00000000000234,0.0)"/>
	<path d="M 130.33119999999985,29.692397 C 120.87929999999983,33.373281 28.780699999999797,69.01433800000001 28.7208999999998,69.01433800000001 C 28.6728999999998,69.01433800000001 25.503499999999804,65.022842 21.678699999999708,60.144319 C 17.853999999999814,55.265799 13.083399999999756,49.222966 11.07739999999967,46.715817 C 7.924899999999752,42.775768 7.295199999999568,41.938952 6.435799999999745,40.547455 L 5.441599999999653,38.937548 L 5.578199999999697,37.085829 L 5.714899999999716,35.234142999999996 L 7.3238999999996395,30.134414999999997 C 8.717099999999618,25.71882099999999 14.367399999999634,8.217259999999996 15.774099999999635,3.960191999999992 L 16.256699999999682,2.5000299999999953" fill="none" id="path6814" inkscape:connector-curvature="0" sodipodi:nodetypes="csssscccssc" stroke-width="1" style="color:#000000;clip-rule:nonzero;display:inline;overflow:visible;visibility:visible;opacity:1;isolation:auto;mix-blend-mode:normal;color-interpolation:sRGB;color-interpolation-filters:linearRGB;solid-color:#000000;solid-opacity:1;vector-effect:none;fill:none;fill-opacity:1;fill-rule:nonzero;stroke:#000000;stroke-width:1;stroke-linecap:round;stroke-linejoin:round;stroke-dasharray:none;stroke-dashoffset:0;stroke-opacity:1;marker:none;marker-start:none;marker-mid:none;marker-end:none;color-rendering:auto;image-rendering:auto;shape-rendering:auto;text-rendering:auto;enable-background:accumulate;" transform="translate(0.0,137.00000000000696)"/>
	<path d="M 14.19349999999963,50.697579 L 14.19349999999963,50.697579 L 14.19349999999963,50.697579 L 14.19349999999963,50.697579 L 13.649599999999737,55.050250999999996 L 24.25539999999978,68.64799099999999 L 28.606599999999844,69.192077 L 28.606599999999844,69.192077 L 28.606599999999844,69.192077 L 28.606599999999844,69.192077 L 32.68569999999977,70.82215099999999 L 128.6809999999998,33.565466 L 130.5844999999997,29.756887000000006 L 130.5844999999997,29.756887000000006 L 130.5844999999997,29.756887000000006 M 7.394999999999754,42.266459000000005 L 6.85109999999986,46.619125000000004 L 9.842599999999948,50.15349500000001 L 14.193499999999858,50.697579000000005 L 14.193499999999858,50.697579000000005 L 14.193499999999858,50.697579000000005 M 5.491399999999885,39.004133 L 3.8596999999999753,42.266459000000005 L 3.8596999999999753,42.266459000000005 L 7.394999999999982,42.266459000000005 M 5.763500000000022,35.195545 L 2.5,36.8278 L 2.5,36.8278 L 5.491400000000112,39.004133 L 5.491400000000112,39.004133 M 9.026700000000119,24.862306000000004 L 9.026700000000119,24.862306000000004 L 9.026700000000119,24.862306000000004 L 5.219400000000178,26.766597000000004 L 3.8597000000002026,31.389133 L 5.763500000000249,35.195545 L 5.763500000000249,35.195545 M 16.369000000000142,2.561400000000006 L 12.289900000000216,4.465689000000012 L 7.1232000000002245,20.783849000000004 L 9.026700000000119,24.862306000000004 L 9.026700000000119,24.862306000000004 L 9.026700000000119,24.862306000000004" fill="none" id="path4459" inkscape:connector-curvature="0" stroke-width="1" style="color:#000000;clip-rule:nonzero;display:inline;overflow:visible;visibility:visible;opacity:1;isolation:auto;mix-blend-mode:normal;color-interpolation:sRGB;color-interpolation-filters:linearRGB;solid-color:#000000;solid-opacity:1;vector-effect:none;fill:none;fill-opacity:1;fill-rule:nonzero;stroke:#000000;stroke-width:1;stroke-linecap:round;stroke-linejoin:round;stroke-dasharray:none;stroke-dashoffset:0;stroke-opacity:1;marker:none;marker-start:none;marker-mid:none;marker-end:none;color-rendering:auto;image-rendering:auto;shape-rendering:auto;text-rendering:auto;enable-background:accumulate;" transform="translate(0.0,137.00000000000696)"/>
	<path d="M 16.256699999999682,2.5 L 70.87369999999964,2.5 C 114.53089999999975,2.5 125.4825999999996,2.521870000000007 125.45019999999954,2.608969000000002 C 125.37419999999952,2.8118929999999978 122.08719999999948,12.99472800000001 121.64269999999965,14.402982000000009 C 121.30999999999972,15.456674000000007 121.18749999999955,15.994979000000015 121.14549999999963,16.58663200000001 L 121.08949999999959,17.37185500000001 L 121.52589999999964,18.075429000000014 C 121.76589999999965,18.462395000000015 122.58859999999959,19.55942900000001 123.35409999999956,20.513283000000015 C 124.11959999999954,21.46713800000002 126.04649999999947,23.905541000000014 127.63599999999951,25.93195800000001 C 130.3348999999996,29.37253700000001 130.51319999999942,29.62138300000001 130.33089999999947,29.69238100000001" fill="none" id="path6079" inkscape:connector-curvature="0" sodipodi:nodetypes="cscsscsssc" stroke-width="1" style="color:#000000;clip-rule:nonzero;display:inline;overflow:visible;visibility:visible;opacity:1;isolation:auto;mix-blend-mode:normal;color-interpolation:sRGB;color-interpolation-filters:linearRGB;solid-color:#000000;solid-opacity:1;vector-effect:none;fill:none;fill-opacity:1;fill-rule:nonzero;stroke:#000000;stroke-width:1;stroke-linecap:round;stroke-linejoin:round;stroke-dasharray:none;stroke-dashoffset:0;stroke-opacity:1;marker:none;marker-start:none;marker-mid:none;marker-end:none;color-rendering:auto;image-rendering:auto;shape-rendering:auto;text-rendering:auto;enable-background:accumulate;" transform="translate(0.0,137.00000000000696)"/>
	<path d="M 30.62469999999962,2.947330000000022 C 30.587699999999586,2.947330000000022 3.6987999999996646,54.99310800000002 3.6987999999996646,54.99310800000002 L 27.684999999999718,74.12467800000003 L 40.004999999999654,82.52756800000002" fill="none" id="path6794" inkscape:connector-curvature="0" sodipodi:nodetypes="ccc" stroke-width="1" style="color:#000000;clip-rule:nonzero;display:inline;overflow:visible;visibility:visible;opacity:1;isolation:auto;mix-blend-mode:normal;color-interpolation:sRGB;color-interpolation-filters:linearRGB;solid-color:#000000;solid-opacity:1;vector-effect:none;fill:none;fill-opacity:1;fill-rule:nonzero;stroke:#000000;stroke-width:1;stroke-linecap:round;stroke-linejoin:round;stroke-dasharray:none;stroke-dashoffset:0;stroke-opacity:1;marker:none;marker-start:none;marker-mid:none;marker-end:none;color-rendering:auto;image-rendering:auto;shape-rendering:auto;text-rendering:auto;enable-background:accumulate;" transform="translate(128.0000000000065,105.00000000000534)"/>
	<path d="M 40.46549999999979,75.44253800000003 L 40.60719999999969,72.25427800000001" fill="none" id="path4427" inkscape:connector-curvature="0" stroke-width="1" style="color:#000000;clip-rule:nonzero;display:inline;overflow:visible;visibility:visible;opacity:1;isolation:auto;mix-blend-mode:normal;color-interpolation:sRGB;color-interpolation-filters:linearRGB;solid-color:#000000;solid-opacity:1;vector-effect:none;fill:none;fill-opacity:1;fill-rule:nonzero;stroke:#000000;stroke-width:1;stroke-linecap:round;stroke-linejoin:round;stroke-dasharray:none;stroke-dashoffset:0;stroke-opacity:1;marker:none;marker-start:none;marker-mid:none;marker-end:none;color-rendering:auto;image-rendering:auto;shape-rendering:auto;text-rendering:auto;enable-background:accumulate;" transform="translate(128.0000000000065,105.00000000000534)"/>
	<path d="M 45.63759999999979,75.44253800000003 L 45.42499999999973,72.50226800000003" fill="none" id="path4429" inkscape:connector-curvature="0" stroke-width="1" style="color:#000000;clip-rule:nonzero;display:inline;overflow:visible;visibility:visible;opacity:1;isolation:auto;mix-blend-mode:normal;color-interpolation:sRGB;color-interpolation-filters:linearRGB;solid-color:#000000;solid-opacity:1;vector-effect:none;fill:none;fill-opacity:1;fill-rule:nonzero;stroke:#000000;stroke-width:1;stroke-linecap:round;stroke-linejoin:round;stroke-dasharray:none;stroke-dashoffset:0;stroke-opacity:1;marker:none;marker-start:none;marker-mid:none;marker-end:none;color-rendering:auto;image-rendering:auto;shape-rendering:auto;text-rendering:auto;enable-background:accumulate;" transform="translate(128.0000000000065,105.00000000000534)"/>
	<path d="M 46.07839999999965,82.44960800000003 L 58.50279999999975,74.00797800000002 L 82.3748999999998,55.04563800000001" fill="none" id="path4431" inkscape:connector-curvature="0" stroke-width="1" style="color:#000000;clip-rule:nonzero;display:inline;overflow:visible;visibility:visible;opacity:1;isolation:auto;mix-blend-mode:normal;color-interpolation:sRGB;color-interpolation-filters:linearRGB;solid-color:#000000;solid-opacity:1;vector-effect:none;fill:none;fill-opacity:1;fill-rule:nonzero;stroke:#000000;stroke-width:1;stroke-linecap:round;stroke-linejoin:round;stroke-dasharray:none;stroke-dashoffset:0;stroke-opacity:1;marker:none;marker-start:none;marker-mid:none;marker-end:none;color-rendering:auto;image-rendering:auto;shape-rendering:auto;text-rendering:auto;enable-background:accumulate;" transform="translate(128.0000000000065,105.00000000000534)"/>
	<path d="M 3.8078999999997905,54.96714800000002 L 23.247699999999895,74.64354800000002 L 27.65339999999992,74.09985800000003 L 28.566100000000006,78.46027800000003 L 35.8427999999999,83.24677800000002 L 40.0,82.45889800000002 L 40.44489999999996,75.49615800000002 L 43.00630000000001,73.89500800000003 L 40.64879999999994,72.30353800000005 L 42.98739999999998,73.88104800000004 L 45.483600000000024,72.41341800000002 L 43.01749999999993,73.88144800000002 L 45.68159999999989,75.49737800000001 L 46.129399999999805,82.469678 L 50.46529999999984,83.27981799999999 L 57.65769999999975,78.32053799999998 L 58.471199999999726,74.06875799999999 L 62.84519999999975,74.53214799999999 L 82.39829999999984,55.117248000000004 L 55.41269999999986,3.1193800000000067 L 50.81859999999983,2.5 L 45.40249999999992,6.196470000000005 L 44.71049999999991,10.618870000000001 L 41.73049999999989,10.26513 L 43.42789999999991,12.913340000000005 L 43.091699999999946,13.984400000000008 L 42.71270000000004,12.877920000000003 L 41.05459999999994,10.618859999999998 L 30.68640000000005,3.1621700000000033 L 26.72829999999999,3.97993000000001 L 2.5,50.959418000000014 L 3.8078999999997905,54.96714800000002" fill="none" id="path6099" inkscape:connector-curvature="0" sodipodi:nodetypes="cccccccccccccccccccccccccccccccc" stroke-width="1" style="color:#000000;clip-rule:nonzero;display:inline;overflow:visible;visibility:visible;opacity:1;isolation:auto;mix-blend-mode:normal;color-interpolation:sRGB;color-interpolation-filters:linearRGB;solid-color:#000000;solid-opacity:1;vector-effect:none;fill:none;fill-opacity:1;fill-rule:nonzero;stroke:#000000;stroke-width:1;stroke-linecap:round;stroke-linejoin:round;stroke-dasharray:none;stroke-dashoffset:0;stroke-opacity:1;marker:none;marker-start:none;marker-mid:none;marker-end:none;color-rendering:auto;image-rendering:auto;shape-rendering:auto;text-rendering:auto;enable-background:accumulate;" transform="translate(128.0000000000065,105.00000000000534)"/>
	<path d="M 43.42309999999975,12.862540000000024 L 44.70069999999964,10.558000000000021 L 55.396699999999555,3.0933000000000277" fill="none" id="path4410-1" inkscape:connector-curvature="0" stroke-width="1" style="color:#000000;clip-rule:nonzero;display:inline;overflow:visible;visibility:visible;opacity:1;isolation:auto;mix-blend-mode:normal;color-interpolation:sRGB;color-interpolation-filters:linearRGB;solid-color:#000000;solid-opacity:1;vector-effect:none;fill:none;fill-opacity:1;fill-rule:nonzero;stroke:#000000;stroke-width:1;stroke-linecap:round;stroke-linejoin:round;stroke-dasharray:none;stroke-dashoffset:0;stroke-opacity:1;marker:none;marker-start:none;marker-mid:none;marker-end:none;color-rendering:auto;image-rendering:auto;shape-rendering:auto;text-rendering:auto;enable-background:accumulate;" transform="translate(128.0000000000065,105.00000000000534)"/>
	<path d="M 65.4380799999999,10.65670000000003 L 65.85767999999985,92.79562000000004" fill="none" id="path4110" inkscape:connector-curvature="0" sodipodi:nodetypes="cc" stroke-width="1" style="color:#000000;clip-rule:nonzero;display:inline;overflow:visible;visibility:visible;opacity:1;isolation:auto;mix-blend-mode:normal;color-interpolation:sRGB;color-interpolation-filters:linearRGB;solid-color:#000000;solid-opacity:1;vector-effect:none;fill:none;fill-opacity:1;fill-rule:nonzero;stroke:#000000;stroke-width:1;stroke-linecap:round;stroke-linejoin:round;stroke-dasharray:none;stroke-dashoffset:0;stroke-opacity:1;marker:none;marker-start:none;marker-mid:none;marker-end:none;color-rendering:auto;image-rendering:auto;shape-rendering:auto;text-rendering:auto;enable-background:accumulate;" transform="translate(226.00000000001148,109.00000000000554)"/>
	<path d="M 65.33317999999997,10.55176000000003 L 68.48028,13.80376000000004 L 68.89987999999994,89.54360000000003 L 65.96257999999989,92.69069000000002" fill="none" id="path5497" inkscape:connector-curvature="0" stroke-width="1" style="color:#000000;clip-rule:nonzero;display:inline;overflow:visible;visibility:visible;opacity:1;isolation:auto;mix-blend-mode:normal;color-interpolation:sRGB;color-interpolation-filters:linearRGB;solid-color:#000000;solid-opacity:1;vector-effect:none;fill:none;fill-opacity:1;fill-rule:nonzero;stroke:#000000;stroke-width:1;stroke-linecap:round;stroke-linejoin:round;stroke-dasharray:none;stroke-dashoffset:0;stroke-opacity:1;marker:none;marker-start:none;marker-mid:none;marker-end:none;color-rendering:auto;image-rendering:auto;shape-rendering:auto;text-rendering:auto;enable-background:accumulate;" transform="translate(226.00000000001148,109.00000000000554)"/>
	<path d="M 65.43557999999996,10.655600000000021 C 65.43557999999996,10.655600000000021 64.08497999999997,10.901810000000012 61.20227999999997,10.09999000000002 C 57.605549999999994,9.099570000000028 51.741570000000024,5.89521000000002 46.91476,4.490820000000014 C 43.386870000000044,3.4643500000000245 41.74566000000004,3.240210000000019 40.238429999999994,3.2737400000000036 C 38.73118999999997,3.3072400000000073 37.36308999999994,3.600040000000007 34.39112,3.600040000000007 C 28.44721000000004,3.600040000000007 27.339770000000044,2.5 19.389249999999947,5.037630000000007 C 15.067759999999907,6.416960000000017 9.535299999999893,9.486130000000003 6.495229999999992,10.311660000000018 C 3.2996200000000044,11.179400000000015 2.5,10.655600000000021 2.5,10.655600000000021 L 2.5,92.89694000000003 C 2.5,92.89694000000003 2.5562999999999647,92.89717000000002 2.5616999999999734,92.89694000000003 L 4.316759999999931,92.78227000000004 C 5.453349999999887,92.69157000000004 6.992419999999925,92.53778000000003 8.603009999999927,92.27958000000004 C 8.872049999999945,92.23648000000003 9.154469999999947,92.18088000000003 9.432039999999915,92.12964000000005 L 11.187119999999936,91.77686000000006 C 12.820679999999925,91.41316000000006 14.585159999999973,90.95553000000007 16.40822999999989,90.47158000000005 L 18.242679999999837,89.98652000000004 C 19.93400999999983,89.53971000000004 21.66442999999981,89.10054000000005 23.428509999999847,88.69888000000003 L 25.09536999999989,88.32847000000004 C 26.893019999999865,87.95715000000004 28.69929999999988,87.65215000000003 30.492869999999925,87.46416000000005 L 32.21267999999998,87.31422000000006 C 32.87047999999993,87.27472000000006 33.53045999999995,87.25252000000006 34.17939999999999,87.25252000000006 C 35.329489999999964,87.25252000000006 36.46647999999993,87.31842000000006 37.601369999999974,87.42007000000007 L 39.33879000000002,87.60529000000005 C 41.155629999999974,87.84041000000005 42.95821000000001,88.18633000000005 44.76276000000007,88.59307000000004 L 46.46490000000006,88.99877000000004 C 48.189620000000104,89.42283000000003 49.917830000000095,89.88957000000005 51.659560000000056,90.37460000000004 L 53.41447000000005,90.85966000000005 C 54.882510000000025,91.26995000000005 56.36121000000003,91.67700000000005 57.859500000000025,92.06793000000005 C 58.11496999999997,92.13463000000004 58.38088000000005,92.19798000000006 58.65325000000007,92.25313000000006 L 60.36418000000003,92.52654000000007 C 63.097080000000005,92.86118000000008 65.85868000000005,92.79993000000007 65.85868000000005,92.79993000000007" fill="none" id="rect5456" inkscape:connector-curvature="0" sodipodi:nodetypes="csscsssccccsccccccccsccccccsccc" stroke-width="1" style="color:#000000;clip-rule:nonzero;display:inline;overflow:visible;visibility:visible;opacity:1;isolation:auto;mix-blend-mode:normal;color-interpolation:sRGB;color-interpolation-filters:linearRGB;solid-color:#000000;solid-opacity:1;vector-effect:none;fill:none;fill-opacity:1;fill-rule:nonzero;stroke:#000000;stroke-width:1;stroke-linecap:round;stroke-linejoin:round;stroke-dasharray:none;stroke-dashoffset:0;stroke-opacity:1;marker:none;marker-start:none;marker-mid:none;marker-end:none;color-rendering:auto;image-rendering:auto;shape-rendering:auto;text-rendering:auto;enable-background:accumulate;" transform="translate(226.00000000001148,109.00000000000554)"/>
	<path d="M 3.6177099999998745,16.52171000000004 C 3.5897099999998545,16.493210000000033 11.275009999999838,7.670630000000017 11.750119999999924,7.185910000000035 C 11.879569999999944,7.053830000000062 13.11119999999994,6.043700000000058 14.487079999999878,4.9411700000000565 L 16.988669999999843,2.936550000000068 M 17.467729999999847,133.6447100000001 L 14.116389999999797,131.06972000000007 L 10.765039999999772,128.49475000000007 L 6.944549999999822,123.33022000000005 C 4.843279999999822,120.48974000000004 3.1375499999998056,118.15221000000008 3.1540399999997817,118.13570000000004" fill="none" id="path4768" inkscape:connector-curvature="0" sodipodi:nodetypes="cssccccsc" stroke-width="1" style="color:#000000;clip-rule:nonzero;display:inline;overflow:visible;visibility:visible;opacity:1;isolation:auto;mix-blend-mode:normal;color-interpolation:sRGB;color-interpolation-filters:linearRGB;solid-color:#000000;solid-opacity:1;vector-effect:none;fill:none;fill-opacity:1;fill-rule:nonzero;stroke:#000000;stroke-width:1;stroke-linecap:round;stroke-linejoin:round;stroke-dasharray:none;stroke-dashoffset:0;stroke-opacity:1;marker:none;marker-start:none;marker-mid:none;marker-end:none;color-rendering:auto;image-rendering:auto;shape-rendering:auto;text-rendering:auto;enable-background:accumulate;" transform="translate(6.0000000000003055,0.0)"/>
	<path d="M 12.395949999999857,2.5 L 12.002929999999878,6.97311000000002 C 11.977129999999875,6.995409999999993 11.910429999999906,7.049910000000011 11.892139999999927,7.066310000000044 L 7.636759999999981,7.35955000000007 L 3.2281399999999394,12.219070000000045 L 3.6288699999998926,16.377440000000036 C 3.6288699999998926,16.377440000000036 3.6147699999999077,16.518740000000037 3.6178699999999253,16.52185000000003 C 3.633769999999913,16.538050000000055 4.651029999999878,16.020100000000014 5.878399999999942,15.370920000000012 L 8.109719999999925,14.190760000000012 L 9.524689999999964,14.315890000000024 C 10.302819999999997,14.384890000000041 11.037529999999947,14.44240000000002 11.157389999999964,14.443770000000029 C 11.334439999999972,14.445770000000039 11.598189999999931,14.729110000000048 12.564089999999965,15.952450000000056 L 13.75306999999998,17.45837000000006 L 13.79876999999999,56.203850000000045 C 13.824870000000033,78.32009000000005 13.886070000000018,97.64330000000007 13.940979999999968,101.22601000000003 C 13.99387999999999,104.67814000000004 14.070600000000013,109.95428000000004 14.111310000000003,112.95092000000005 L 14.185209999999984,118.39968000000005 L 13.103179999999952,119.99049000000002 L 12.021139999999946,121.5813 L 10.247319999999945,121.5813 L 8.47350999999992,121.5813 L 5.828779999999938,119.84330999999997 C 4.374209999999948,118.88750999999996 3.1707699999999477,118.11917 3.1542899999999463,118.13565 C 3.1512899999999036,118.13864999999998 3.256439999999998,118.28465 3.3229599999999664,118.37984 L 3.1730199999999513,118.28284000000002 L 3.10191999999995,118.14118000000002 L 2.5,122.42743000000002 L 6.538199999999961,127.88281 L 10.784209999999916,128.50954000000002 L 10.866909999999962,128.57294000000002 L 11.391669999999976,132.73627 L 13.269109999999955,134.224 L 17.412599999999998,133.60222999999996 L 17.467700000000036,133.64462999999995 L 19.65215999999998,133.87834999999995 C 20.85349999999994,134.00680999999997 21.99321999999995,134.11647999999997 22.184999999999945,134.12198999999998 C 22.477319999999963,134.12998999999996 27.05025999999998,133.00277999999997 27.156959999999913,132.89607999999998 C 27.176259999999957,132.87678 27.216159999999945,131.39247999999998 27.24515999999994,129.59706 C 27.274159999999938,127.80162000000001 27.394739999999956,123.78276 27.513049999999907,120.66627 C 27.996539999999868,107.93054000000001 28.080169999999953,101.09249 28.129859999999894,70.17327999999998 C 28.170959999999923,44.61207999999999 28.161059999999907,41.49928 28.033959999999865,39.400589999999966 C 27.95615999999984,38.11641999999995 27.79464999999982,32.94312999999994 27.675129999999854,27.904999999999973 C 27.47728999999981,19.56565999999998 27.430349999999862,18.366529999999955 27.149269999999888,14.523699999999963 C 26.97944999999993,12.202089999999941 26.78552999999988,8.817489999999964 26.718769999999836,7.002359999999953 C 26.651969999999892,5.187239999999974 26.585309999999822,3.6950499999999806 26.570489999999836,3.6862499999999727 C 26.5556899999998,3.677249999999958 25.49373999999989,3.4595899999999915 24.210739999999873,3.2017399999999725 L 21.87799999999993,2.7326499999999783 L 20.113559999999893,2.83517999999998 C 19.143089999999916,2.8914800000000014 18.043079999999918,2.9373999999999683 17.668919999999844,2.937149999999974 L 16.98871999999983,2.936589999999967 L 16.974419999999782,2.948189999999954 L 12.395949999999857,2.5" fill="none" id="path4694" inkscape:connector-curvature="0" sodipodi:nodetypes="cccccccccccccsscccccccsccccccccccccccssssssscccccccc" stroke-width="1" style="color:#000000;clip-rule:nonzero;display:inline;overflow:visible;visibility:visible;opacity:1;isolation:auto;mix-blend-mode:normal;color-interpolation:sRGB;color-interpolation-filters:linearRGB;solid-color:#000000;solid-opacity:1;vector-effect:none;fill:none;fill-opacity:1;fill-rule:nonzero;stroke:#000000;stroke-width:1;stroke-linecap:round;stroke-linejoin:round;stroke-dasharray:none;stroke-dashoffset:0;stroke-opacity:1;marker:none;marker-start:none;marker-mid:none;marker-end:none;color-rendering:auto;image-rendering:auto;shape-rendering:auto;text-rendering:auto;enable-background:accumulate;" transform="translate(6.0000000000003055,0.0)"/>
</svg>
