<?xml version="1.0" ?>
<svg xmlns="http://www.w3.org/2000/svg" xmlns:cc="http://creativecommons.org/ns#" xmlns:dc="http://purl.org/dc/elements/1.1/" xmlns:ev="http://www.w3.org/2001/xml-events" xmlns:inkscape="http://www.inkscape.org/namespaces/inkscape" xmlns:rdf="http://www.w3.org/1999/02/22-rdf-syntax-ns#" xmlns:sodipodi="http://sodipodi.sourceforge.net/DTD/sodipodi-0.dtd" xmlns:svg="http://www.w3.org/2000/svg" xmlns:xlink="http://www.w3.org/1999/xlink" baseProfile="full" height="210mm" id="svg1" inkscape:version="0.92.4 (5da689c313, 2019-01-14)" sodipodi:docname="e190-e2.svg" version="1.1" viewBox="0 0 297.0000000000151 210.0000000000107" width="297mm">
	<defs/>
	<path d="M 76.79128000000003,25.050595 L 76.79128000000003,18.603228" fill="none" id="path4446" inkscape:connector-curvature="0" stroke-width="1" style="color:#000000;clip-rule:nonzero;display:inline;overflow:visible;visibility:visible;opacity:1;isolation:auto;mix-blend-mode:normal;color-interpolation:sRGB;color-interpolation-filters:linearRGB;solid-color:#000000;solid-opacity:1;vector-effect:none;fill:none;fill-opacity:1;fill-rule:nonzero;stroke:#000000;stroke-width:1;stroke-linecap:round;stroke-linejoin:round;stroke-dasharray:none;stroke-dashoffset:0;stroke-opacity:1;marker:none;marker-start:none;marker-mid:none;marker-end:none;color-rendering:auto;image-rendering:auto;shape-rendering:auto;text-rendering:auto;enable-background:accumulate;" transform="translate(0.0,0.0)"/>
	<path d="M 17.26430000000005,3.248548999999997 L 2.5,2.5 L 2.5,7.427315 L 17.113269999999943,8.597543000000002 L 57.12708999999995,15.97501100000001 L 58.376139999999964,19.204028000000008 L 59.52431999999999,22.429741000000007 L 74.06097,25.202905 L 79.37468999999999,25.202905 L 93.91134,22.429741000000007 L 95.05952000000002,19.204028000000008 L 96.30858,15.97501100000001 L 136.32240000000002,8.597543000000016 L 150.93566999999996,7.427315000000014 L 150.93566999999996,2.500000000000014 L 136.1713699999999,3.2485490000000112 L 94.39144999999996,7.802690000000013 L 92.70803999999998,8.272878000000006 L 90.92099999999994,8.743617 L 89.88250999999991,10.509158 L 88.94819999999993,12.273597999999993 L 87.62858999999992,13.71226999999999 L 86.16180999999995,15.289297999999988 L 82.67040999999995,17.490850999999992 L 80.70917999999995,18.13852999999999 L 79.04891999999995,18.63738099999999 L 74.38673999999992,18.63738099999999 L 72.72647999999992,18.13852999999999 L 70.7652599999999,17.490850999999992 L 67.2738599999999,15.289297999999988 L 65.80707999999993,13.71226999999999 L 64.48746999999992,12.273597999999993 L 63.553159999999934,10.509158 L 62.51466999999991,8.743617 L 60.72761999999989,8.272878000000006 L 59.04421999999988,7.8026900000000055 L 17.26430000000005,3.248548999999997" fill="none" id="path4227" inkscape:connector-curvature="0" sodipodi:nodetypes="ccccccccccccccccccccccccccccccccccccc" stroke-width="1" style="color:#000000;clip-rule:nonzero;display:inline;overflow:visible;visibility:visible;opacity:1;isolation:auto;mix-blend-mode:normal;color-interpolation:sRGB;color-interpolation-filters:linearRGB;solid-color:#000000;solid-opacity:1;vector-effect:none;fill:none;fill-opacity:1;fill-rule:nonzero;stroke:#000000;stroke-width:1;stroke-linecap:round;stroke-linejoin:round;stroke-dasharray:none;stroke-dashoffset:0;stroke-opacity:1;marker:none;marker-start:none;marker-mid:none;marker-end:none;color-rendering:auto;image-rendering:auto;shape-rendering:auto;text-rendering:auto;enable-background:accumulate;" transform="translate(0.0,0.0)"/>
	<path d="M 2.5,8.678390000000007 L 12.677799999999934,7.435850000000002 C 23.41339999999991,6.125240000000005 29.16449999999986,5.49306 31.704600000000028,5.353670000000008 M 36.25690000000009,6.984290000000001 C 36.90470000000005,7.570840000000004 37.67430000000013,8.380840000000006 38.9389000000001,9.764440000000008 C 40.13220000000001,11.070080000000004 41.40350000000012,12.428500000000014 41.76390000000015,12.783120000000011 C 42.124300000000176,13.137730000000005 45.58710000000019,16.596620000000016 49.459100000000035,20.469490000000008 C 53.33100000000013,24.342370000000003 56.548,27.551100000000005 56.60799999999995,27.60001000000001 C 56.707999999999856,27.681610000000006 55.51430000000005,29.162930000000017 42.112899999999854,45.58837800000002 C 34.08059999999978,55.43307800000002 27.498299999999745,63.47925800000003 27.4853999999998,63.46878800000003" fill="none" id="path4400" inkscape:connector-curvature="0" sodipodi:nodetypes="csccscsssc" stroke-width="1" style="color:#000000;clip-rule:nonzero;display:inline;overflow:visible;visibility:visible;opacity:1;isolation:auto;mix-blend-mode:normal;color-interpolation:sRGB;color-interpolation-filters:linearRGB;solid-color:#000000;solid-opacity:1;vector-effect:none;fill:none;fill-opacity:1;fill-rule:nonzero;stroke:#000000;stroke-width:1;stroke-linecap:round;stroke-linejoin:round;stroke-dasharray:none;stroke-dashoffset:0;stroke-opacity:1;marker:none;marker-start:none;marker-mid:none;marker-end:none;color-rendering:auto;image-rendering:auto;shape-rendering:auto;text-rendering:auto;enable-background:accumulate;" transform="translate(164.00000000000833,0.0)"/>
	<path d="M 18.307800000000043,48.002988 L 14.08179999999993,50.772968000000006 L 3.2100000000000364,54.79581800000001" fill="none" id="path4402" inkscape:connector-curvature="0" sodipodi:nodetypes="ccc" stroke-width="1" style="color:#000000;clip-rule:nonzero;display:inline;overflow:visible;visibility:visible;opacity:1;isolation:auto;mix-blend-mode:normal;color-interpolation:sRGB;color-interpolation-filters:linearRGB;solid-color:#000000;solid-opacity:1;vector-effect:none;fill:none;fill-opacity:1;fill-rule:nonzero;stroke:#000000;stroke-width:1;stroke-linecap:round;stroke-linejoin:round;stroke-dasharray:none;stroke-dashoffset:0;stroke-opacity:1;marker:none;marker-start:none;marker-mid:none;marker-end:none;color-rendering:auto;image-rendering:auto;shape-rendering:auto;text-rendering:auto;enable-background:accumulate;" transform="translate(164.00000000000833,0.0)"/>
	<path d="M 31.695900000000165,5.250680000000003 L 31.695900000000165,5.250680000000003 L 31.695900000000165,5.250680000000003 L 28.32450000000017,2.5 L 26.79390000000012,2.655540000000002 L 24.043600000000197,6.0264099999999985 L 24.043600000000197,6.0264099999999985 L 24.043600000000197,6.0264099999999985 L 24.043600000000197,6.0264099999999985 L 24.043600000000197,6.0264099999999985 L 20.672200000000203,3.275729999999996 L 2.6547000000002754,8.582489999999993 L 2.6547000000002754,8.582489999999993 M 56.58100000000036,27.660939999999997 L 56.58100000000036,27.660939999999997 L 56.58100000000036,27.660939999999997 L 56.58100000000036,27.660939999999997 L 45.7312000000004,12.13772999999999 L 41.31100000000038,12.393419999999992 L 41.31100000000038,12.393419999999992 L 41.31100000000038,12.393419999999992 M 27.526200000000472,63.27174799999999 L 27.526200000000472,63.27174799999999 L 27.526200000000472,63.27174799999999 L 31.94650000000047,63.01608799999998 L 57.219000000000506,32.04085999999998 L 56.581000000000586,27.660939999999982 L 56.581000000000586,27.660939999999982 L 56.581000000000586,27.660939999999982 M 41.311000000000604,12.393419999999978 L 41.311000000000604,12.393419999999978 L 41.311000000000604,12.393419999999978 L 41.439700000000585,7.93407999999998 L 40.55810000000065,6.8637199999999865 L 36.3097000000007,6.908519999999982 L 36.3097000000007,6.908519999999982" fill="none" id="path4404" inkscape:connector-curvature="0" sodipodi:nodetypes="cccccccccccccccccccccccccccccccccccccccccccccccccccccccccccccccc" stroke-width="1" style="color:#000000;clip-rule:nonzero;display:inline;overflow:visible;visibility:visible;opacity:1;isolation:auto;mix-blend-mode:normal;color-interpolation:sRGB;color-interpolation-filters:linearRGB;solid-color:#000000;solid-opacity:1;vector-effect:none;fill:none;fill-opacity:1;fill-rule:nonzero;stroke:#000000;stroke-width:1;stroke-linecap:round;stroke-linejoin:round;stroke-dasharray:none;stroke-dashoffset:0;stroke-opacity:1;marker:none;marker-start:none;marker-mid:none;marker-end:none;color-rendering:auto;image-rendering:auto;shape-rendering:auto;text-rendering:auto;enable-background:accumulate;" transform="translate(164.00000000000833,0.0)"/>
	<path d="M 27.485500000000002,63.468757999999994 L 21.340200000000095,53.623458 C 20.42580000000021,52.158518 19.15039999999999,48.313897999999995 19.38040000000001,47.043238 L 18.377700000000004,48.005027999999996 L 17.752700000000004,52.411018 L 14.030500000000075,50.826747999999995 L 12.096099999999979,54.75598799999999 L 7.19399999999996,56.568387999999985 L 3.15079999999989,54.80185799999998 C 3.15079999999989,54.80185799999998 2.9566999999999553,44.379727999999986 2.7946999999999207,31.711499999999987 L 2.5,8.678339999999992 M 31.63239999999996,5.357689999999991 C 32.160499999999956,5.327489999999997 32.55549999999994,5.317689999999985 32.83230000000003,5.326789999999988 L 34.04230000000007,5.366389999999981 L 34.736000000000104,5.820339999999987 C 35.2971,6.187449999999984 35.74130000000014,6.516469999999984 36.26670000000013,6.993099999999984" fill="none" id="path4406" inkscape:connector-curvature="0" sodipodi:nodetypes="cscccccccsccscsc" stroke-width="1" style="color:#000000;clip-rule:nonzero;display:inline;overflow:visible;visibility:visible;opacity:1;isolation:auto;mix-blend-mode:normal;color-interpolation:sRGB;color-interpolation-filters:linearRGB;solid-color:#000000;solid-opacity:1;vector-effect:none;fill:none;fill-opacity:1;fill-rule:nonzero;stroke:#000000;stroke-width:1;stroke-linecap:round;stroke-linejoin:round;stroke-dasharray:none;stroke-dashoffset:0;stroke-opacity:1;marker:none;marker-start:none;marker-mid:none;marker-end:none;color-rendering:auto;image-rendering:auto;shape-rendering:auto;text-rendering:auto;enable-background:accumulate;" transform="translate(164.00000000000833,0.0)"/>
	<path d="M 94.37072999999998,9.779145999999997 L 115.16189999999995,7.500934999999998 C 126.59703999999999,6.247924999999995 136.04190999999992,5.223824999999998 136.1504799999999,5.225122999999996 L 136.34787999999992,5.227922999999997 M 136.3017799999999,10.574340999999997 L 116.38234999999986,14.261123999999995 C 105.42665999999986,16.288861999999995 96.38406999999984,17.949598999999992 96.28768999999988,17.951687999999997 M 93.89071999999987,24.406392999999994 C 93.85001999999986,24.406392999999994 90.64227999999991,25.014411999999993 86.7625099999999,25.75758799999999 L 79.70835999999986,27.10878299999999 M 73.5359699999999,27.093822999999986 L 66.64915999999994,25.763539999999985 L 66.64916999999991,25.763567999999985 C 62.86141999999995,25.031913999999986 59.68715999999995,24.417402999999986 59.595239999999876,24.398013999999982 M 57.30995000000007,18.008023 L 37.22193000000004,14.294119000000002 L 17.13391999999999,10.580215000000003 M 17.087819999999965,5.227869000000002 L 17.31928999999991,5.227869000000002 C 17.48332999999991,5.227869000000002 55.11893999999995,9.347523000000002 58.977789999999914,9.787875" fill="none" id="path4410" inkscape:connector-curvature="0" sodipodi:nodetypes="cssccsccscccccccccsc" stroke-width="1" style="color:#000000;clip-rule:nonzero;display:inline;overflow:visible;visibility:visible;opacity:1;isolation:auto;mix-blend-mode:normal;color-interpolation:sRGB;color-interpolation-filters:linearRGB;solid-color:#000000;solid-opacity:1;vector-effect:none;fill:none;fill-opacity:1;fill-rule:nonzero;stroke:#000000;stroke-width:1;stroke-linecap:round;stroke-linejoin:round;stroke-dasharray:none;stroke-dashoffset:0;stroke-opacity:1;marker:none;marker-start:none;marker-mid:none;marker-end:none;color-rendering:auto;image-rendering:auto;shape-rendering:auto;text-rendering:auto;enable-background:accumulate;" transform="translate(52.00000000000264,34.00000000000173)"/>
	<path d="M 76.79129,27.02064 L 76.79129,20.573272000000003" fill="none" id="path4444" inkscape:connector-curvature="0" stroke-width="1" style="color:#000000;clip-rule:nonzero;display:inline;overflow:visible;visibility:visible;opacity:1;isolation:auto;mix-blend-mode:normal;color-interpolation:sRGB;color-interpolation-filters:linearRGB;solid-color:#000000;solid-opacity:1;vector-effect:none;fill:none;fill-opacity:1;fill-rule:nonzero;stroke:#000000;stroke-width:1;stroke-linecap:round;stroke-linejoin:round;stroke-dasharray:none;stroke-dashoffset:0;stroke-opacity:1;marker:none;marker-start:none;marker-mid:none;marker-end:none;color-rendering:auto;image-rendering:auto;shape-rendering:auto;text-rendering:auto;enable-background:accumulate;" transform="translate(52.00000000000264,34.00000000000173)"/>
	<path d="M 20.477890000000002,2.5 L 17.26430000000005,5.247806000000001 L 2.5,4.499255999999999 L 2.5,9.426572 L 17.113269999999943,10.596801 L 19.497279999999932,14.177495999999998 L 53.76136999999994,20.579308999999995 L 57.12708999999995,17.974267999999995 L 58.376139999999964,21.20328599999999 L 59.52432999999996,24.42899899999999 L 61.91384999999991,27.941892999999993 L 70.5139099999999,29.606013999999995 L 74.06097999999986,27.20216299999999 L 79.37468999999987,27.20216299999999 L 82.92176999999992,29.606013999999995 L 91.52182999999991,27.941892999999993 L 93.91134999999986,24.42899899999999 L 95.05952999999988,21.20328599999999 L 96.30857999999989,17.974267999999995 L 99.6742999999999,20.579308999999995 L 133.9383999999999,14.177495999999998 L 136.32240999999988,10.596801 L 150.93567999999993,9.426572 L 150.93567999999993,4.499255999999999 L 136.1713699999999,5.247806000000001 L 132.95778999999993,2.5 L 96.7969599999999,6.496308999999997 L 94.39145999999994,9.801946999999998 L 92.70803999999998,10.272134999999999 L 90.92101000000002,10.742872999999996 L 89.88252,12.508415999999997 L 88.94820000000004,14.272855999999997 L 87.62859000000003,15.711528999999999 L 86.16181000000006,17.288556 L 82.67041000000006,19.49011 L 80.70919000000004,20.137787000000003 L 79.04893000000004,20.636637 L 74.38675,20.636637 L 72.72649000000001,20.137787000000003 L 70.76526000000001,19.49011 L 67.27386000000001,17.288556 L 65.80708000000004,15.711528999999999 L 64.48747000000003,14.272855999999997 L 63.55316000000005,12.508415999999997 L 62.514670000000024,10.742872999999996 L 60.72762999999998,10.272134999999999 L 59.044219999999996,9.801946999999998 L 56.638720000000035,6.496308999999997 L 20.477890000000002,2.5" fill="none" id="path4222" inkscape:connector-curvature="0" sodipodi:nodetypes="ccccccccccccccccccccccccccccccccccccccccccccccccc" stroke-width="1" style="color:#000000;clip-rule:nonzero;display:inline;overflow:visible;visibility:visible;opacity:1;isolation:auto;mix-blend-mode:normal;color-interpolation:sRGB;color-interpolation-filters:linearRGB;solid-color:#000000;solid-opacity:1;vector-effect:none;fill:none;fill-opacity:1;fill-rule:nonzero;stroke:#000000;stroke-width:1;stroke-linecap:round;stroke-linejoin:round;stroke-dasharray:none;stroke-dashoffset:0;stroke-opacity:1;marker:none;marker-start:none;marker-mid:none;marker-end:none;color-rendering:auto;image-rendering:auto;shape-rendering:auto;text-rendering:auto;enable-background:accumulate;" transform="translate(52.00000000000264,34.00000000000173)"/>
</svg>
