<?xml version="1.0" ?>
<svg xmlns="http://www.w3.org/2000/svg" xmlns:cc="http://creativecommons.org/ns#" xmlns:dc="http://purl.org/dc/elements/1.1/" xmlns:ev="http://www.w3.org/2001/xml-events" xmlns:inkscape="http://www.inkscape.org/namespaces/inkscape" xmlns:rdf="http://www.w3.org/1999/02/22-rdf-syntax-ns#" xmlns:sodipodi="http://sodipodi.sourceforge.net/DTD/sodipodi-0.dtd" xmlns:svg="http://www.w3.org/2000/svg" xmlns:xlink="http://www.w3.org/1999/xlink" baseProfile="full" height="86.44694000000001" id="svg1" inkscape:version="0.92.4 (5da689c313, 2019-01-14)" sodipodi:docname="e190-e2.svg" version="1.1" viewBox="0 0 85.96478000000002 86.44694000000001" width="85.96478000000002">
	<defs/>
	<path d="M 29.149909999999863,3.484579999999994 C 15.047259999999824,11.597620000000006 5.277709999999843,26.28797 5.277709999999843,43.653999999999996 C 5.277709999999843,61.19358 20.40654999999981,80.91617 42.903049999999894,80.91617 C 65.39953999999989,80.91617 80.38886999999988,62.825500000000005 80.38886999999988,43.653999999999996 C 80.38886999999988,26.62953999999999 70.60929999999985,11.158510000000007 56.94407999999987,3.537489999999991 L 47.101109999999835,20.30010999999999" id="path4106" inkscape:connector-curvature="0" sodipodi:nodetypes="cssscc" style="color:#000000;clip-rule:nonzero;display:inline;overflow:visible;visibility:visible;opacity:1;isolation:auto;mix-blend-mode:normal;color-interpolation:sRGB;color-interpolation-filters:linearRGB;solid-color:#000000;solid-opacity:1;vector-effect:none;fill:black;fill-opacity:1;fill-rule:nonzero;stroke:#000000;stroke-width:5.0;stroke-linecap:round;stroke-linejoin:round;stroke-dasharray:none;stroke-dashoffset:0;stroke-opacity:1;marker:none;marker-start:none;marker-mid:none;marker-end:none;color-rendering:auto;image-rendering:auto;shape-rendering:auto;text-rendering:auto;enable-background:accumulate;"/>
	<path d="M 29.0555599999999,3.353049999999996 L 24.753279999999904,2.5 L 24.122769999999946,6.72811999999999 L 19.74628999999993,6.283050000000003 L 19.523759999999925,10.65952999999999 L 15.14727999999991,10.696629999999999 L 15.481059999999957,15.03603000000001 L 11.10460999999998,15.666539999999998 L 11.994739999999979,19.894649999999984 L 7.766599999999926,21.08147999999997 L 9.250159999999937,25.23542999999998 L 5.170409999999947,27.015679999999975 L 7.061919999999986,30.72455999999997 L 3.3901499999999487,33.061169999999976 L 5.800899999999956,36.584599999999966 L 2.5,39.32914999999997 L 5.318750000000023,42.59296999999998 L 2.537109999999984,45.74549999999999 L 5.763810000000035,48.67552999999998 L 3.4272399999999834,52.198969999999974 L 7.061919999999986,54.46136999999999 L 5.355829999999969,58.31859 L 9.361440000000016,59.913430000000005 L 8.174579999999992,64.14153999999999 L 12.402699999999982,65.14292 L 11.883460000000014,69.33395000000002 L 16.22285999999997,69.74193000000002 L 16.371189999999956,73.97004000000001 L 20.67349999999999,73.67334000000002 L 21.489460000000008,77.86437000000004 L 25.606300000000033,76.86299000000002 L 27.201130000000035,80.79437000000001 L 31.24380000000008,79.19957000000002 L 33.320760000000064,82.90844000000001 L 37.029640000000086,80.57184000000001 L 39.66294000000005,83.94694000000001 L 43.000920000000065,81.05402000000001 L 46.116370000000074,83.90985 L 48.89804000000004,80.57184000000001 L 52.53275000000008,82.87136000000001 L 54.79516000000012,79.05120000000002 L 58.65240000000017,80.83149000000003 L 60.21013000000016,76.82588000000004 L 64.40116000000012,77.79020000000003 L 65.21711000000016,73.71043000000003 L 69.51939000000016,74.00715000000002 L 69.81612000000018,69.74193000000002 L 74.00715000000014,69.29687000000001 L 73.5991600000001,65.06875000000002 L 77.7531100000001,64.03026000000003 L 76.6404500000001,59.95051000000004 L 80.49767000000008,58.24442000000005 L 78.82869000000005,54.27592000000004 L 82.46337000000005,52.05060000000003 L 80.1268,48.52717000000004 L 83.46478000000002,45.74550000000005 L 80.53478000000007,42.48169000000004 L 83.39061000000004,39.29207000000005 L 80.1268,36.547510000000045 L 82.50045999999998,32.98697000000004 L 78.79160000000002,30.650390000000044 L 80.68311000000006,26.793150000000054 L 76.6404500000001,25.161260000000055 L 78.16109000000006,21.044400000000053 L 73.85878000000002,19.783370000000048 L 74.74891000000002,15.592340000000036 L 70.44663000000003,15.03603000000004 L 70.63207999999997,10.696630000000027 L 66.36685,10.54827000000003 L 66.03304000000003,6.283070000000038 L 61.80493999999999,6.728140000000025 L 60.95190000000002,2.5371100000000126 L 52.64403000000004,4.502810000000011 L 46.00512000000003,16.148690000000016 L 47.11778000000004,20.302630000000022" id="path5495" inkscape:connector-curvature="0" style="color:#000000;clip-rule:nonzero;display:inline;overflow:visible;visibility:visible;opacity:1;isolation:auto;mix-blend-mode:normal;color-interpolation:sRGB;color-interpolation-filters:linearRGB;solid-color:#000000;solid-opacity:1;vector-effect:none;fill:black;fill-opacity:1;fill-rule:nonzero;stroke:#000000;stroke-width:5.0;stroke-linecap:round;stroke-linejoin:round;stroke-dasharray:none;stroke-dashoffset:0;stroke-opacity:1;marker:none;marker-start:none;marker-mid:none;marker-end:none;color-rendering:auto;image-rendering:auto;shape-rendering:auto;text-rendering:auto;enable-background:accumulate;"/>
	<path d="M 47.101109999999835,20.300110000000018 C 51.11088999999981,22.249950000000013 54.44771999999989,26.775360000000006 54.44771999999989,32.13580000000002 C 54.44771999999989,39.08815000000001 49.27604999999994,43.88330000000002 42.903049999999894,43.88330000000002 C 36.95591999999988,43.88330000000002 31.367209999999886,39.08815000000001 31.367209999999886,32.13580000000002 C 31.367209999999886,26.948730000000012 34.65156999999988,22.34190000000001 38.66090999999983,20.335380000000015 L 29.149909999999863,3.4845700000000193" id="path4685" inkscape:connector-curvature="0" sodipodi:nodetypes="cssscc" style="color:#000000;clip-rule:nonzero;display:inline;overflow:visible;visibility:visible;opacity:1;isolation:auto;mix-blend-mode:normal;color-interpolation:sRGB;color-interpolation-filters:linearRGB;solid-color:#000000;solid-opacity:1;vector-effect:none;fill:black;fill-opacity:1;fill-rule:nonzero;stroke:#000000;stroke-width:5.0;stroke-linecap:round;stroke-linejoin:round;stroke-dasharray:none;stroke-dashoffset:0;stroke-opacity:1;marker:none;marker-start:none;marker-mid:none;marker-end:none;color-rendering:auto;image-rendering:auto;shape-rendering:auto;text-rendering:auto;enable-background:accumulate;"/>
</svg>
