<?xml version="1.0" ?>
<svg xmlns="http://www.w3.org/2000/svg" xmlns:cc="http://creativecommons.org/ns#" xmlns:dc="http://purl.org/dc/elements/1.1/" xmlns:ev="http://www.w3.org/2001/xml-events" xmlns:inkscape="http://www.inkscape.org/namespaces/inkscape" xmlns:rdf="http://www.w3.org/1999/02/22-rdf-syntax-ns#" xmlns:sodipodi="http://sodipodi.sourceforge.net/DTD/sodipodi-0.dtd" xmlns:svg="http://www.w3.org/2000/svg" xmlns:xlink="http://www.w3.org/1999/xlink" baseProfile="full" height="95.39717000000002" id="svg1" inkscape:version="0.92.4 (5da689c313, 2019-01-14)" sodipodi:docname="e190-e2.svg" version="1.1" viewBox="0 0 71.39987999999994 95.39717000000002" width="71.39987999999994">
	<defs/>
	<path d="M 65.4380799999999,10.65670000000003 L 65.85767999999985,92.79562000000004" id="path4110" inkscape:connector-curvature="0" sodipodi:nodetypes="cc" style="color:#000000;clip-rule:nonzero;display:inline;overflow:visible;visibility:visible;opacity:1;isolation:auto;mix-blend-mode:normal;color-interpolation:sRGB;color-interpolation-filters:linearRGB;solid-color:#000000;solid-opacity:1;vector-effect:none;fill:black;fill-opacity:1;fill-rule:nonzero;stroke:#000000;stroke-width:5.0;stroke-linecap:round;stroke-linejoin:round;stroke-dasharray:none;stroke-dashoffset:0;stroke-opacity:1;marker:none;marker-start:none;marker-mid:none;marker-end:none;color-rendering:auto;image-rendering:auto;shape-rendering:auto;text-rendering:auto;enable-background:accumulate;"/>
	<path d="M 65.33317999999997,10.55176000000003 L 68.48028,13.80376000000004 L 68.89987999999994,89.54360000000003 L 65.96257999999989,92.69069000000002" id="path5497" inkscape:connector-curvature="0" style="color:#000000;clip-rule:nonzero;display:inline;overflow:visible;visibility:visible;opacity:1;isolation:auto;mix-blend-mode:normal;color-interpolation:sRGB;color-interpolation-filters:linearRGB;solid-color:#000000;solid-opacity:1;vector-effect:none;fill:black;fill-opacity:1;fill-rule:nonzero;stroke:#000000;stroke-width:5.0;stroke-linecap:round;stroke-linejoin:round;stroke-dasharray:none;stroke-dashoffset:0;stroke-opacity:1;marker:none;marker-start:none;marker-mid:none;marker-end:none;color-rendering:auto;image-rendering:auto;shape-rendering:auto;text-rendering:auto;enable-background:accumulate;"/>
	<path d="M 65.43557999999996,10.655600000000021 C 65.43557999999996,10.655600000000021 64.08497999999997,10.901810000000012 61.20227999999997,10.09999000000002 C 57.605549999999994,9.099570000000028 51.741570000000024,5.89521000000002 46.91476,4.490820000000014 C 43.386870000000044,3.4643500000000245 41.74566000000004,3.240210000000019 40.238429999999994,3.2737400000000036 C 38.73118999999997,3.3072400000000073 37.36308999999994,3.600040000000007 34.39112,3.600040000000007 C 28.44721000000004,3.600040000000007 27.339770000000044,2.5 19.389249999999947,5.037630000000007 C 15.067759999999907,6.416960000000017 9.535299999999893,9.486130000000003 6.495229999999992,10.311660000000018 C 3.2996200000000044,11.179400000000015 2.5,10.655600000000021 2.5,10.655600000000021 L 2.5,92.89694000000003 C 2.5,92.89694000000003 2.5562999999999647,92.89717000000002 2.5616999999999734,92.89694000000003 L 4.316759999999931,92.78227000000004 C 5.453349999999887,92.69157000000004 6.992419999999925,92.53778000000003 8.603009999999927,92.27958000000004 C 8.872049999999945,92.23648000000003 9.154469999999947,92.18088000000003 9.432039999999915,92.12964000000005 L 11.187119999999936,91.77686000000006 C 12.820679999999925,91.41316000000006 14.585159999999973,90.95553000000007 16.40822999999989,90.47158000000005 L 18.242679999999837,89.98652000000004 C 19.93400999999983,89.53971000000004 21.66442999999981,89.10054000000005 23.428509999999847,88.69888000000003 L 25.09536999999989,88.32847000000004 C 26.893019999999865,87.95715000000004 28.69929999999988,87.65215000000003 30.492869999999925,87.46416000000005 L 32.21267999999998,87.31422000000006 C 32.87047999999993,87.27472000000006 33.53045999999995,87.25252000000006 34.17939999999999,87.25252000000006 C 35.329489999999964,87.25252000000006 36.46647999999993,87.31842000000006 37.601369999999974,87.42007000000007 L 39.33879000000002,87.60529000000005 C 41.155629999999974,87.84041000000005 42.95821000000001,88.18633000000005 44.76276000000007,88.59307000000004 L 46.46490000000006,88.99877000000004 C 48.189620000000104,89.42283000000003 49.917830000000095,89.88957000000005 51.659560000000056,90.37460000000004 L 53.41447000000005,90.85966000000005 C 54.882510000000025,91.26995000000005 56.36121000000003,91.67700000000005 57.859500000000025,92.06793000000005 C 58.11496999999997,92.13463000000004 58.38088000000005,92.19798000000006 58.65325000000007,92.25313000000006 L 60.36418000000003,92.52654000000007 C 63.097080000000005,92.86118000000008 65.85868000000005,92.79993000000007 65.85868000000005,92.79993000000007" id="rect5456" inkscape:connector-curvature="0" sodipodi:nodetypes="csscsssccccsccccccccsccccccsccc" style="color:#000000;clip-rule:nonzero;display:inline;overflow:visible;visibility:visible;opacity:1;isolation:auto;mix-blend-mode:normal;color-interpolation:sRGB;color-interpolation-filters:linearRGB;solid-color:#000000;solid-opacity:1;vector-effect:none;fill:black;fill-opacity:1;fill-rule:nonzero;stroke:#000000;stroke-width:5.0;stroke-linecap:round;stroke-linejoin:round;stroke-dasharray:none;stroke-dashoffset:0;stroke-opacity:1;marker:none;marker-start:none;marker-mid:none;marker-end:none;color-rendering:auto;image-rendering:auto;shape-rendering:auto;text-rendering:auto;enable-background:accumulate;"/>
</svg>
