<?xml version="1.0" ?>
<svg xmlns="http://www.w3.org/2000/svg" xmlns:cc="http://creativecommons.org/ns#" xmlns:dc="http://purl.org/dc/elements/1.1/" xmlns:ev="http://www.w3.org/2001/xml-events" xmlns:inkscape="http://www.inkscape.org/namespaces/inkscape" xmlns:rdf="http://www.w3.org/1999/02/22-rdf-syntax-ns#" xmlns:sodipodi="http://sodipodi.sourceforge.net/DTD/sodipodi-0.dtd" xmlns:svg="http://www.w3.org/2000/svg" xmlns:xlink="http://www.w3.org/1999/xlink" baseProfile="full" height="73.32215099999999" id="svg1" inkscape:version="0.92.4 (5da689c313, 2019-01-14)" sodipodi:docname="e190-e2.svg" version="1.1" viewBox="0 0 133.0844999999997 73.32215099999999" width="133.0844999999997">
	<defs/>
	<path d="M 130.33119999999985,29.692397 C 120.87929999999983,33.373281 28.780699999999797,69.01433800000001 28.7208999999998,69.01433800000001 C 28.6728999999998,69.01433800000001 25.503499999999804,65.022842 21.678699999999708,60.144319 C 17.853999999999814,55.265799 13.083399999999756,49.222966 11.07739999999967,46.715817 C 7.924899999999752,42.775768 7.295199999999568,41.938952 6.435799999999745,40.547455 L 5.441599999999653,38.937548 L 5.578199999999697,37.085829 L 5.714899999999716,35.234142999999996 L 7.3238999999996395,30.134414999999997 C 8.717099999999618,25.71882099999999 14.367399999999634,8.217259999999996 15.774099999999635,3.960191999999992 L 16.256699999999682,2.5000299999999953" fill="none" id="path6814" inkscape:connector-curvature="0" sodipodi:nodetypes="csssscccssc" stroke-width="1" style="color:#000000;clip-rule:nonzero;display:inline;overflow:visible;visibility:visible;opacity:1;isolation:auto;mix-blend-mode:normal;color-interpolation:sRGB;color-interpolation-filters:linearRGB;solid-color:#000000;solid-opacity:1;vector-effect:none;fill:none;fill-opacity:1;fill-rule:nonzero;stroke:#000000;stroke-width:1;stroke-linecap:round;stroke-linejoin:round;stroke-dasharray:none;stroke-dashoffset:0;stroke-opacity:1;marker:none;marker-start:none;marker-mid:none;marker-end:none;color-rendering:auto;image-rendering:auto;shape-rendering:auto;text-rendering:auto;enable-background:accumulate;"/>
	<path d="M 14.19349999999963,50.697579 L 14.19349999999963,50.697579 L 14.19349999999963,50.697579 L 14.19349999999963,50.697579 L 13.649599999999737,55.050250999999996 L 24.25539999999978,68.64799099999999 L 28.606599999999844,69.192077 L 28.606599999999844,69.192077 L 28.606599999999844,69.192077 L 28.606599999999844,69.192077 L 32.68569999999977,70.82215099999999 L 128.6809999999998,33.565466 L 130.5844999999997,29.756887000000006 L 130.5844999999997,29.756887000000006 L 130.5844999999997,29.756887000000006 M 7.394999999999754,42.266459000000005 L 6.85109999999986,46.619125000000004 L 9.842599999999948,50.15349500000001 L 14.193499999999858,50.697579000000005 L 14.193499999999858,50.697579000000005 L 14.193499999999858,50.697579000000005 M 5.491399999999885,39.004133 L 3.8596999999999753,42.266459000000005 L 3.8596999999999753,42.266459000000005 L 7.394999999999982,42.266459000000005 M 5.763500000000022,35.195545 L 2.5,36.8278 L 2.5,36.8278 L 5.491400000000112,39.004133 L 5.491400000000112,39.004133 M 9.026700000000119,24.862306000000004 L 9.026700000000119,24.862306000000004 L 9.026700000000119,24.862306000000004 L 5.219400000000178,26.766597000000004 L 3.8597000000002026,31.389133 L 5.763500000000249,35.195545 L 5.763500000000249,35.195545 M 16.369000000000142,2.561400000000006 L 12.289900000000216,4.465689000000012 L 7.1232000000002245,20.783849000000004 L 9.026700000000119,24.862306000000004 L 9.026700000000119,24.862306000000004 L 9.026700000000119,24.862306000000004" fill="none" id="path4459" inkscape:connector-curvature="0" stroke-width="1" style="color:#000000;clip-rule:nonzero;display:inline;overflow:visible;visibility:visible;opacity:1;isolation:auto;mix-blend-mode:normal;color-interpolation:sRGB;color-interpolation-filters:linearRGB;solid-color:#000000;solid-opacity:1;vector-effect:none;fill:none;fill-opacity:1;fill-rule:nonzero;stroke:#000000;stroke-width:1;stroke-linecap:round;stroke-linejoin:round;stroke-dasharray:none;stroke-dashoffset:0;stroke-opacity:1;marker:none;marker-start:none;marker-mid:none;marker-end:none;color-rendering:auto;image-rendering:auto;shape-rendering:auto;text-rendering:auto;enable-background:accumulate;"/>
	<path d="M 16.256699999999682,2.5 L 70.87369999999964,2.5 C 114.53089999999975,2.5 125.4825999999996,2.521870000000007 125.45019999999954,2.608969000000002 C 125.37419999999952,2.8118929999999978 122.08719999999948,12.99472800000001 121.64269999999965,14.402982000000009 C 121.30999999999972,15.456674000000007 121.18749999999955,15.994979000000015 121.14549999999963,16.58663200000001 L 121.08949999999959,17.37185500000001 L 121.52589999999964,18.075429000000014 C 121.76589999999965,18.462395000000015 122.58859999999959,19.55942900000001 123.35409999999956,20.513283000000015 C 124.11959999999954,21.46713800000002 126.04649999999947,23.905541000000014 127.63599999999951,25.93195800000001 C 130.3348999999996,29.37253700000001 130.51319999999942,29.62138300000001 130.33089999999947,29.69238100000001" fill="none" id="path6079" inkscape:connector-curvature="0" sodipodi:nodetypes="cscsscsssc" stroke-width="1" style="color:#000000;clip-rule:nonzero;display:inline;overflow:visible;visibility:visible;opacity:1;isolation:auto;mix-blend-mode:normal;color-interpolation:sRGB;color-interpolation-filters:linearRGB;solid-color:#000000;solid-opacity:1;vector-effect:none;fill:none;fill-opacity:1;fill-rule:nonzero;stroke:#000000;stroke-width:1;stroke-linecap:round;stroke-linejoin:round;stroke-dasharray:none;stroke-dashoffset:0;stroke-opacity:1;marker:none;marker-start:none;marker-mid:none;marker-end:none;color-rendering:auto;image-rendering:auto;shape-rendering:auto;text-rendering:auto;enable-background:accumulate;"/>
</svg>
