<?xml version="1.0" ?>
<svg xmlns="http://www.w3.org/2000/svg" xmlns:cc="http://creativecommons.org/ns#" xmlns:dc="http://purl.org/dc/elements/1.1/" xmlns:ev="http://www.w3.org/2001/xml-events" xmlns:inkscape="http://www.inkscape.org/namespaces/inkscape" xmlns:rdf="http://www.w3.org/1999/02/22-rdf-syntax-ns#" xmlns:sodipodi="http://sodipodi.sourceforge.net/DTD/sodipodi-0.dtd" xmlns:svg="http://www.w3.org/2000/svg" xmlns:xlink="http://www.w3.org/1999/xlink" baseProfile="full" height="24.16092599999999" id="svg1" inkscape:version="0.92.4 (5da689c313, 2019-01-14)" sodipodi:docname="e190-e2.svg" version="1.1" viewBox="0 0 30.562500000000227 24.16092599999999" width="30.562500000000227">
	<defs/>
	<path d="M 3.9771000000002914,14.726096999999996 C 4.001100000000179,14.564072999999993 4.04110000000037,14.463037 4.106500000000324,14.369254999999995 C 4.194500000000289,14.242001000000002 4.650300000000243,13.451354999999992 5.118900000000394,12.612308999999996 C 5.587600000000293,11.773262000000003 7.0904000000005,9.154747999999998 8.458500000000413,6.793393999999992 L 10.945900000000393,2.5000319999999903 M 27.57040000000029,7.801096999999984 C 27.57040000000029,7.839896999999979 25.693700000000263,10.34072999999998 23.399900000000343,13.358475999999982 L 19.229400000000396,18.84529999999998 L 18.75790000000029,18.860539999999986 C 18.498500000000377,18.869039999999984 16.65830000000028,18.627706999999987 14.668600000000197,18.324401999999992 C 12.678800000000138,18.021097999999995 10.638900000000149,17.710399999999993 10.135500000000093,17.633945999999995 C 9.632000000000062,17.557515999999993 8.337500000000091,17.372692 7.25870000000009,17.223226999999994 C 6.00200000000018,17.04909599999999 5.541100000000142,16.981842999999998 5.184500000000071,16.855548" id="path6816" inkscape:connector-curvature="0" sodipodi:nodetypes="csssccscssssc" style="color:#000000;clip-rule:nonzero;display:inline;overflow:visible;visibility:visible;opacity:1;isolation:auto;mix-blend-mode:normal;color-interpolation:sRGB;color-interpolation-filters:linearRGB;solid-color:#000000;solid-opacity:1;vector-effect:none;fill:black;fill-opacity:1;fill-rule:nonzero;stroke:#000000;stroke-width:5.0;stroke-linecap:round;stroke-linejoin:round;stroke-dasharray:none;stroke-dashoffset:0;stroke-opacity:1;marker:none;marker-start:none;marker-mid:none;marker-end:none;color-rendering:auto;image-rendering:auto;shape-rendering:auto;text-rendering:auto;enable-background:accumulate;"/>
	<path d="M 5.219400000000178,17.038389999999993 L 5.219400000000178,17.038389999999993 L 5.219400000000178,17.038389999999993 L 5.219400000000178,17.038389999999993 L 5.219400000000178,17.038389999999993 L 7.123000000000275,20.30071699999999 L 7.123000000000275,20.30071699999999 L 7.123000000000275,20.30071699999999 L 7.123000000000275,20.30071699999999 L 9.57060000000024,17.582477999999995 L 9.57060000000024,17.582477999999995 L 9.57060000000024,17.582477999999995 L 9.57060000000024,17.582477999999995 L 9.57060000000024,17.582477999999995 L 9.57060000000024,17.582477999999995 L 9.57060000000024,17.582477999999995 L 9.57060000000024,17.582477999999995 L 9.57060000000024,17.582477999999995 L 9.57060000000024,17.582477999999995 L 9.57060000000024,17.582477999999995 L 9.57060000000024,17.582477999999995 L 12.290000000000191,21.116846999999993 L 12.290000000000191,21.116846999999993 L 15.553200000000288,21.66092599999999 L 15.553200000000288,21.66092599999999 L 19.088500000000295,18.94268799999999 L 19.088500000000295,18.94268799999999 L 19.088500000000295,18.94268799999999 L 19.088500000000295,18.94268799999999 L 19.088500000000295,18.94268799999999 L 19.088500000000295,18.94268799999999 L 19.088500000000295,18.94268799999999 L 19.088500000000295,18.94268799999999 L 19.088500000000295,18.94268799999999 L 19.088500000000295,18.94268799999999 L 19.088500000000295,18.94268799999999 L 19.088500000000295,18.94268799999999 L 23.439400000000205,18.398600999999985 L 23.439400000000205,18.398600999999985 L 28.062500000000227,12.143809999999988 L 28.062500000000227,12.143809999999988 L 27.518700000000308,7.791142999999991 L 27.570700000000215,7.801042999999993 C 27.570700000000215,7.762232999999995 27.42280000000028,7.730482999999992 27.242100000000164,7.730482999999992 C 26.950800000000072,7.730482999999992 22.48990000000026,7.135460999999992 22.465800000000172,7.0933959999999985 C 22.45580000000018,7.0841959999999915 23.01850000000013,6.076342999999994 23.705700000000206,4.853717000000003 C 24.39290000000028,3.631090999999998 24.955200000000104,2.6013400000000075 24.955300000000307,2.5653800000000047 C 24.95540000000028,2.529420000000002 21.803400000000238,2.5 17.9508000000003,2.5 L 10.946200000000317,2.5 L 10.93020000000024,2.624499 L 6.579100000000153,3.712666999999996 L 6.579100000000153,3.712666999999996 L 4.947300000000041,6.702956 L 4.947300000000041,6.702956 L 6.035200000000032,10.78358 L 6.035200000000032,10.78358 L 2.5,11.327667000000005 L 2.5,11.327667000000005 L 2.5,11.327667000000005 L 2.5,11.327667000000005 L 3.8596999999999753,14.58999200000001 L 3.9973999999999705,14.618352000000016 C 3.9583999999999833,14.78229300000001 3.9464000000000397,15.016333000000017 3.9464000000000397,15.415317000000016 L 3.9464000000000397,16.23002000000001 L 4.622000000000071,16.590761000000015 C 4.8711000000000695,16.72381700000001 5.036800000000085,16.80899000000001 5.250800000000027,16.87793000000002 L 5.219400000000178,17.038389999999993" id="path6071" inkscape:connector-curvature="0" sodipodi:nodetypes="cccccccccccccccccccccccccccccccccccccccccccccccccccscscsccccccccccccccscsccccccc" style="color:#000000;clip-rule:nonzero;display:inline;overflow:visible;visibility:visible;opacity:1;isolation:auto;mix-blend-mode:normal;color-interpolation:sRGB;color-interpolation-filters:linearRGB;solid-color:#000000;solid-opacity:1;vector-effect:none;fill:black;fill-opacity:1;fill-rule:nonzero;stroke:#000000;stroke-width:5.0;stroke-linecap:round;stroke-linejoin:round;stroke-dasharray:none;stroke-dashoffset:0;stroke-opacity:1;marker:none;marker-start:none;marker-mid:none;marker-end:none;color-rendering:auto;image-rendering:auto;shape-rendering:auto;text-rendering:auto;enable-background:accumulate;"/>
</svg>
