<?xml version="1.0" ?>
<svg xmlns="http://www.w3.org/2000/svg" xmlns:cc="http://creativecommons.org/ns#" xmlns:dc="http://purl.org/dc/elements/1.1/" xmlns:ev="http://www.w3.org/2001/xml-events" xmlns:inkscape="http://www.inkscape.org/namespaces/inkscape" xmlns:rdf="http://www.w3.org/1999/02/22-rdf-syntax-ns#" xmlns:sodipodi="http://sodipodi.sourceforge.net/DTD/sodipodi-0.dtd" xmlns:svg="http://www.w3.org/2000/svg" xmlns:xlink="http://www.w3.org/1999/xlink" baseProfile="full" height="74.693991" id="svg1" inkscape:version="0.92.4 (5da689c313, 2019-01-14)" sodipodi:docname="e190-e2.svg" version="1.1" viewBox="0 0 132.80339999999956 74.693991" width="132.80339999999956">
	<defs/>
	<path d="M 7.644199999999955,68.53039100000001 C 17.78729999999996,68.604291 116.54039999999986,69.11416100000001 116.59619999999995,69.092881 C 116.64120000000003,69.075681 118.18149999999991,64.217331 120.01839999999993,58.296641 C 121.85519999999997,52.375961000000004 124.16139999999996,45.030471 125.14319999999998,41.973331 C 126.68599999999992,37.168971000000006 126.97649999999999,36.162801 127.28399999999988,34.556501000000004 L 127.63979999999992,32.698071000000006 L 126.85269999999991,31.016391000000006 L 126.0655999999999,29.334741 L 122.74619999999982,25.142241000000006 C 119.87199999999984,21.512161000000006 108.3599999999999,7.1697663000000045 105.52949999999987,3.692646300000005 L 104.55869999999982,2.5000323000000053" id="path12828" inkscape:connector-curvature="0" sodipodi:nodetypes="csssscccssc" style="color:#000000;clip-rule:nonzero;display:inline;overflow:visible;visibility:visible;opacity:1;isolation:auto;mix-blend-mode:normal;color-interpolation:sRGB;color-interpolation-filters:linearRGB;solid-color:#000000;solid-opacity:1;vector-effect:none;fill:black;fill-opacity:1;fill-rule:nonzero;stroke:#000000;stroke-width:5.0;stroke-linecap:round;stroke-linejoin:round;stroke-dasharray:none;stroke-dashoffset:0;stroke-opacity:1;marker:none;marker-start:none;marker-mid:none;marker-end:none;color-rendering:auto;image-rendering:auto;shape-rendering:auto;text-rendering:auto;enable-background:accumulate;"/>
	<path d="M 123.64910000000009,46.803701 L 123.64910000000009,46.803701 L 123.64910000000009,46.803701 L 123.64910000000009,46.803701 L 125.70730000000003,50.677420999999995 L 120.6386,67.160451 L 116.76639999999998,69.218251 L 116.76639999999998,69.218251 L 116.76639999999998,69.218251 L 116.76639999999998,69.218251 L 113.53520000000003,72.193991 L 10.565499999999929,71.561961 L 7.430499999999938,68.680851 L 7.430499999999938,68.680851 L 7.430499999999938,68.680851 M 126.99979999999982,36.504360999999996 L 129.0578999999998,40.378071 L 127.5210999999997,44.745991 L 123.64909999999963,46.803701 L 123.64909999999963,46.803701 L 123.64909999999963,46.803701 M 127.61689999999953,32.778051 L 130.30339999999956,35.245511 L 130.30339999999956,35.245511 L 126.9997999999996,36.504360999999996 M 126.0064999999995,29.315970999999998 L 129.6372999999994,29.679161 L 129.6372999999994,29.679161 L 127.6168999999993,32.778051 L 127.6168999999993,32.778051 M 119.27769999999941,20.822031 L 119.27769999999941,20.822031 L 119.27769999999941,20.822031 L 123.51349999999934,21.245781 L 126.43009999999936,25.081161 L 126.00649999999928,29.315970999999998 L 126.00649999999928,29.315970999999998 M 104.4755999999993,2.5973932999999985 L 108.96539999999936,2.924352299999999 L 119.60419999999931,16.3330843 L 119.27769999999941,20.822031 L 119.27769999999941,20.822031 L 119.27769999999941,20.822031" id="path12836" inkscape:connector-curvature="0" style="color:#000000;clip-rule:nonzero;display:inline;overflow:visible;visibility:visible;opacity:1;isolation:auto;mix-blend-mode:normal;color-interpolation:sRGB;color-interpolation-filters:linearRGB;solid-color:#000000;solid-opacity:1;vector-effect:none;fill:black;fill-opacity:1;fill-rule:nonzero;stroke:#000000;stroke-width:5.0;stroke-linecap:round;stroke-linejoin:round;stroke-dasharray:none;stroke-dashoffset:0;stroke-opacity:1;marker:none;marker-start:none;marker-mid:none;marker-end:none;color-rendering:auto;image-rendering:auto;shape-rendering:auto;text-rendering:auto;enable-background:accumulate;"/>
	<path d="M 104.55870000000004,2.5 L 53.521600000000035,21.948371 C 12.726000000000113,37.494091 2.5,41.414291 2.561300000000074,41.484131 C 2.704200000000128,41.646831 9.402000000000044,49.991631 10.318899999999985,51.149280999999995 C 11.004899999999907,52.015460999999995 11.311099999999897,52.474841 11.561099999999897,53.012750999999994 L 11.892799999999852,53.72666099999999 L 11.735499999999774,54.53951099999999 C 11.649499999999762,54.98657099999999 11.270899999999756,56.30465099999999 10.895199999999704,57.46857099999999 C 10.519599999999627,58.63248099999999 9.587299999999686,61.59720099999999 8.82349999999974,64.056811 C 7.526599999999689,68.23291099999999 7.448599999999715,68.52894099999999 7.644199999999728,68.53037099999999" id="path12840" inkscape:connector-curvature="0" sodipodi:nodetypes="cscsscsssc" style="color:#000000;clip-rule:nonzero;display:inline;overflow:visible;visibility:visible;opacity:1;isolation:auto;mix-blend-mode:normal;color-interpolation:sRGB;color-interpolation-filters:linearRGB;solid-color:#000000;solid-opacity:1;vector-effect:none;fill:black;fill-opacity:1;fill-rule:nonzero;stroke:#000000;stroke-width:5.0;stroke-linecap:round;stroke-linejoin:round;stroke-dasharray:none;stroke-dashoffset:0;stroke-opacity:1;marker:none;marker-start:none;marker-mid:none;marker-end:none;color-rendering:auto;image-rendering:auto;shape-rendering:auto;text-rendering:auto;enable-background:accumulate;"/>
</svg>
