<?xml version="1.0" ?>
<svg xmlns="http://www.w3.org/2000/svg" xmlns:cc="http://creativecommons.org/ns#" xmlns:dc="http://purl.org/dc/elements/1.1/" xmlns:ev="http://www.w3.org/2001/xml-events" xmlns:inkscape="http://www.inkscape.org/namespaces/inkscape" xmlns:rdf="http://www.w3.org/1999/02/22-rdf-syntax-ns#" xmlns:sodipodi="http://sodipodi.sourceforge.net/DTD/sodipodi-0.dtd" xmlns:svg="http://www.w3.org/2000/svg" xmlns:xlink="http://www.w3.org/1999/xlink" baseProfile="full" height="27.319120000000005" id="svg1" inkscape:version="0.92.4 (5da689c313, 2019-01-14)" sodipodi:docname="e190-e2.svg" version="1.1" viewBox="0 0 29.961099999999988 27.319120000000005" width="29.961099999999988">
	<defs/>
	<path d="M 24.965499999999793,7.161239999999999 C 24.82259999999974,7.081339999999997 24.717899999999872,7.051629999999996 24.60389999999984,7.045870000000001 C 24.449299999999766,7.037869999999998 23.54489999999987,6.91639 22.594199999999773,6.775480000000002 C 21.64359999999988,6.6345600000000005 18.652199999999766,6.226669999999999 15.946699999999737,5.869 L 11.027599999999666,5.218760000000003 M 5.079399999999623,21.62290000000001 C 5.110399999999572,21.646600000000007 8.236599999999726,21.686400000000006 12.026999999999589,21.711500000000008 L 18.918799999999692,21.757000000000005 L 19.21869999999967,21.392790000000005 C 19.383699999999635,21.192500000000003 20.315799999999626,19.587580000000003 21.289999999999736,17.826350000000005 C 22.264199999999846,16.065110000000004 23.263299999999845,14.259620000000005 23.509999999999764,13.814190000000004 C 23.756699999999682,13.368790000000004 24.400499999999738,12.230530000000002 24.940599999999677,11.284770000000002 C 25.569699999999784,10.183060000000005 25.797699999999622,9.776940000000003 25.915399999999636,9.417340000000003" id="path12830" inkscape:connector-curvature="0" sodipodi:nodetypes="csssccscssssc" style="color:#000000;clip-rule:nonzero;display:inline;overflow:visible;visibility:visible;opacity:1;isolation:auto;mix-blend-mode:normal;color-interpolation:sRGB;color-interpolation-filters:linearRGB;solid-color:#000000;solid-opacity:1;vector-effect:none;fill:black;fill-opacity:1;fill-rule:nonzero;stroke:#000000;stroke-width:5.0;stroke-linecap:round;stroke-linejoin:round;stroke-dasharray:none;stroke-dashoffset:0;stroke-opacity:1;marker:none;marker-start:none;marker-mid:none;marker-end:none;color-rendering:auto;image-rendering:auto;shape-rendering:auto;text-rendering:auto;enable-background:accumulate;"/>
	<path d="M 11.135699999999815,5.28237 L 11.135699999999815,5.28237 L 11.135699999999815,5.28237 L 14.653499999999894,2.5 L 18.018100000000004,3.032670000000003 L 20.586399999999912,6.38514 L 23.175199999999904,3.9168999999999983 L 23.175199999999904,3.9168999999999983 L 24.929399999999987,6.985189999999996 L 24.929399999999987,6.985189999999996 M 26.038900000000012,9.556649999999998 L 26.038900000000012,9.556649999999998 L 26.038900000000012,9.556649999999998 L 27.461099999999988,13.055709999999998 L 27.461099999999988,13.055709999999998 L 23.814000000000078,13.335329999999999 L 23.814000000000078,13.335329999999999 L 23.814000000000078,13.335329999999999 L 23.814000000000078,13.335329999999999 L 23.814000000000078,13.335329999999999 L 23.814000000000078,13.335329999999999 L 24.9538,17.646700000000003 L 23.39300000000003,20.563630000000003 L 19.082000000000107,21.704800000000006 L 19.082000000000107,21.704800000000006 L 19.082000000000107,21.704800000000006 L 19.082000000000107,21.704800000000006 L 19.082000000000107,21.704800000000006 L 19.082000000000107,21.704800000000006 L 15.995300000000043,24.819120000000005 L 8.218900000000076,24.66339 L 5.10310000000004,21.57584 L 5.10310000000004,21.57584 L 5.10310000000004,21.57584" id="path12834" inkscape:connector-curvature="0" style="color:#000000;clip-rule:nonzero;display:inline;overflow:visible;visibility:visible;opacity:1;isolation:auto;mix-blend-mode:normal;color-interpolation:sRGB;color-interpolation-filters:linearRGB;solid-color:#000000;solid-opacity:1;vector-effect:none;fill:black;fill-opacity:1;fill-rule:nonzero;stroke:#000000;stroke-width:5.0;stroke-linecap:round;stroke-linejoin:round;stroke-dasharray:none;stroke-dashoffset:0;stroke-opacity:1;marker:none;marker-start:none;marker-mid:none;marker-end:none;color-rendering:auto;image-rendering:auto;shape-rendering:auto;text-rendering:auto;enable-background:accumulate;"/>
	<path d="M 25.892799999999852,9.483399999999996 C 25.968799999999874,9.271759999999993 26.002399999999852,9.088589999999996 26.049199999999928,8.809999999999995 L 26.175700000000006,8.054729999999992 L 25.5304000000001,7.557379999999995 C 25.21440000000007,7.313829999999996 25.021600000000035,7.180609999999994 24.86779999999999,7.111639999999994 M 11.027599999999893,5.218759999999996 L 6.752099999999928,10.767219999999995 C 4.40059999999994,13.818849999999998 2.5,16.33356 2.5284999999998945,16.355419999999995 C 2.557499999999891,16.377319999999997 3.7159999999998945,16.560419999999993 5.10389999999984,16.76233 C 6.491799999999785,16.96427 7.630699999999933,17.137499999999996 7.634799999999814,17.14727 C 7.653799999999819,17.191969999999998 5.401899999999841,21.088749999999997 5.224099999999908,21.319499999999998 C 5.113699999999881,21.46266 5.048599999999851,21.59919 5.0793999999998505,21.62287" id="path12842" inkscape:connector-curvature="0" sodipodi:nodetypes="cscsccscscsc" style="color:#000000;clip-rule:nonzero;display:inline;overflow:visible;visibility:visible;opacity:1;isolation:auto;mix-blend-mode:normal;color-interpolation:sRGB;color-interpolation-filters:linearRGB;solid-color:#000000;solid-opacity:1;vector-effect:none;fill:black;fill-opacity:1;fill-rule:nonzero;stroke:#000000;stroke-width:5.0;stroke-linecap:round;stroke-linejoin:round;stroke-dasharray:none;stroke-dashoffset:0;stroke-opacity:1;marker:none;marker-start:none;marker-mid:none;marker-end:none;color-rendering:auto;image-rendering:auto;shape-rendering:auto;text-rendering:auto;enable-background:accumulate;"/>
</svg>
