<?xml version="1.0" ?>
<svg xmlns="http://www.w3.org/2000/svg" xmlns:cc="http://creativecommons.org/ns#" xmlns:dc="http://purl.org/dc/elements/1.1/" xmlns:ev="http://www.w3.org/2001/xml-events" xmlns:inkscape="http://www.inkscape.org/namespaces/inkscape" xmlns:rdf="http://www.w3.org/1999/02/22-rdf-syntax-ns#" xmlns:sodipodi="http://sodipodi.sourceforge.net/DTD/sodipodi-0.dtd" xmlns:svg="http://www.w3.org/2000/svg" xmlns:xlink="http://www.w3.org/1999/xlink" baseProfile="full" height="251.42933" id="svg1" inkscape:version="0.92.4 (5da689c313, 2019-01-14)" sodipodi:docname="e190-e2.svg" version="1.1" viewBox="0 0 106.5032000000001 251.42933" width="106.5032000000001">
	<defs/>
	<path d="M 104.0032000000001,245.76928000000004 L 54.79300000000012,245.76928000000004 L 5.582900000000109,245.76928000000004 L 5.582900000000109,186.05458000000004 L 5.582900000000109,126.33988000000005" id="path4479" inkscape:connector-curvature="0" style="color:#000000;clip-rule:nonzero;display:inline;overflow:visible;visibility:visible;opacity:1;isolation:auto;mix-blend-mode:normal;color-interpolation:sRGB;color-interpolation-filters:linearRGB;solid-color:#000000;solid-opacity:1;vector-effect:none;fill:black;fill-opacity:1;fill-rule:nonzero;stroke:#000000;stroke-width:5.0;stroke-linecap:round;stroke-linejoin:round;stroke-dasharray:none;stroke-dashoffset:0;stroke-opacity:1;marker:none;marker-start:none;marker-mid:none;marker-end:none;color-rendering:auto;image-rendering:auto;shape-rendering:auto;text-rendering:auto;enable-background:accumulate;"/>
	<path d="M 5.582900000000109,126.34884999999997 L 5.582900000000109,82.58712999999995 L 5.582900000000109,38.82540999999998 L 5.778999999999996,38.82140999999996 C 5.886899999999969,38.81840999999997 6.748599999999897,38.63296999999994 7.69399999999996,38.40733999999998 L 9.412800000000061,37.99700999999999 L 11.322599999999966,36.530730000000005 C 13.283400000000029,35.02535 13.308199999999943,35.00175999999999 16.342899999999872,31.764020000000016 C 17.163499999999885,30.888630000000035 20.51599999999985,26.65424999999999 24.487299999999777,21.477419999999995 C 25.16769999999974,20.590419999999995 25.77599999999984,19.80583999999999 25.83909999999969,19.733929999999987 C 25.90209999999979,19.66202999999996 26.90549999999962,18.70274999999998 28.068599999999606,17.60224999999997 C 29.535799999999654,16.21405999999996 30.841399999999567,15.08341999999999 32.33229999999958,13.909969999999987 C 33.514299999999594,12.97969999999998 34.49439999999959,12.18347 34.51039999999966,12.140549999999962 C 34.52639999999974,12.097649999999987 34.5803999999996,12.062549999999987 34.63059999999973,12.062549999999987 C 34.751799999999776,12.062549999999987 38.744599999999764,9.782669999999996 38.78189999999972,9.692129999999963 C 38.7978999999998,9.653429999999958 38.86289999999963,9.621629999999982 38.926899999999705,9.621629999999982 C 39.10689999999977,9.621629999999982 42.933599999999615,7.964819999999975 42.96629999999959,7.872700000000009 C 42.98229999999967,7.827699999999993 43.08449999999948,7.790999999999997 43.193399999999656,7.790999999999997 C 43.30239999999958,7.790999999999997 44.19159999999965,7.513739999999984 45.16939999999977,7.174879999999973 C 46.29249999999979,6.785669999999982 47.63759999999979,6.4001799999999776 48.82149999999979,6.128149999999948 C 49.85239999999976,5.891329999999925 50.77429999999981,5.661659999999927 50.87019999999984,5.6177999999999315 C 51.02549999999974,5.54669999999993 53.65829999999983,5.403769999999952 54.79299999999989,5.404749999999922 C 55.77089999999998,5.404749999999922 58.63169999999991,5.554699999999912 58.67229999999995,5.606939999999895 C 58.69629999999984,5.637839999999869 59.53970000000004,5.850099999999884 60.546499999999924,6.078669999999875 C 62.13760000000002,6.4398599999998964 65.91239999999993,7.591299999999876 66.60519999999997,7.926749999999856 C 66.72509999999988,7.984749999999849 67.66650000000004,8.391769999999838 68.69740000000002,8.83115999999984 C 69.72820000000002,9.270549999999844 70.63049999999998,9.661369999999863 70.70240000000013,9.699639999999818 C 70.77440000000001,9.73793999999981 71.66870000000017,10.247719999999845 72.6898000000001,10.832509999999843 C 73.71100000000001,11.417299999999841 74.65250000000015,11.943079999999838 74.78200000000015,12.000909999999863 C 74.91160000000013,12.05880999999988 75.07640000000015,12.169759999999883 75.14830000000006,12.247569999999882 C 75.22029999999995,12.325369999999907 76.20090000000005,13.108909999999867 77.32770000000005,13.988739999999893 C 78.73720000000003,15.089409999999873 79.96260000000007,16.146609999999896 81.25590000000011,17.377859999999885 C 82.28970000000004,18.36205999999987 83.28200000000015,19.304589999999905 83.46100000000001,19.47239999999988 C 83.64010000000007,19.640209999999854 84.99230000000011,21.346669999999904 86.46589999999992,23.26450999999986 C 91.5634,29.89825999999988 92.16829999999982,30.643439999999885 94.28009999999995,32.88986999999986 C 96.19650000000001,34.928359999999884 96.3895,35.10578999999984 98.23170000000005,36.52107999999987 L 100.1685,38.009069999999895 L 101.93329999999992,38.41879999999992 C 102.90390000000002,38.64415999999994 103.7666999999999,38.82776999999993 103.85059999999999,38.82686999999993" id="path4465" inkscape:connector-curvature="0" sodipodi:nodetypes="ccccccssscsscscscssccccscscsccsssssscsc" style="color:#000000;clip-rule:nonzero;display:inline;overflow:visible;visibility:visible;opacity:1;isolation:auto;mix-blend-mode:normal;color-interpolation:sRGB;color-interpolation-filters:linearRGB;solid-color:#000000;solid-opacity:1;vector-effect:none;fill:black;fill-opacity:1;fill-rule:nonzero;stroke:#000000;stroke-width:5.0;stroke-linecap:round;stroke-linejoin:round;stroke-dasharray:none;stroke-dashoffset:0;stroke-opacity:1;marker:none;marker-start:none;marker-mid:none;marker-end:none;color-rendering:auto;image-rendering:auto;shape-rendering:auto;text-rendering:auto;enable-background:accumulate;"/>
	<path d="M 52.67360000000008,2.5002000000000066 L 51.092800000000125,5.583149999999989 C 51.04380000000015,5.588149999999985 51.013800000000174,5.593549999999993 50.98030000000017,5.598549999999989 L 48.293100000000095,3.1087099999999737 L 47.127300000000105,6.565379999999948 C 47.114300000000185,6.569379999999967 47.102300000000014,6.572379999999953 47.089300000000094,6.575879999999927 L 44.11500000000001,4.285019999999918 L 43.01970000000006,7.81445999999994 L 39.85570000000007,5.907799999999952 L 38.90650000000005,9.626299999999958 C 38.856500000000096,9.631299999999953 38.813499999999976,9.652999999999963 38.793499999999995,9.68199999999996 L 35.23160000000007,8.13859999999994 L 34.71119999999996,12.025769999999966 C 34.68920000000003,12.035769999999957 34.63719999999989,12.062069999999949 34.631200000000035,12.06216999999998 L 30.567099999999982,11.465199999999982 L 30.323499999999967,15.52103999999997 L 25.942399999999907,15.440039999999954 L 25.861400000000003,19.699289999999962 L 21.521099999999933,20.307829999999967 L 21.034400000000005,20.916369999999972 L 21.54600000000005,25.2842 C 21.503000000000156,25.338900000000024 21.471000000000004,25.3793 21.428499999999985,25.433580000000006 L 17.26189999999997,25.905419999999992 L 16.85680000000002,26.3519 L 17.336900000000014,30.59516000000002 C 17.31989999999996,30.616460000000018 17.307900000000018,30.630560000000003 17.290899999999965,30.65136000000001 L 13.084499999999935,30.65136000000001 L 13.324299999999994,34.89350999999999 C 13.307299999999941,34.90900999999997 13.291300000000092,34.923509999999965 13.275300000000016,34.938710000000015 L 9.514900000000125,34.018190000000004 L 9.554900000000089,37.88882000000001 L 9.493900000000167,37.93572 L 6.838200000000143,35.47840000000002 L 5.580900000000156,38.80444 L 5.5929000000001,38.82533999999998 L 5.582900000000109,38.82533999999998 L 2.5,42.04994999999997 L 2.6946000000000367,242.58703999999994 L 5.582900000000109,245.76921 L 5.611900000000105,245.76921 L 7.655799999999999,248.92933 L 9.699699999999893,245.76921 L 9.71069999999986,245.76921 L 11.75409999999988,248.92933 L 13.797999999999774,245.76921 L 13.808999999999742,245.76921 L 15.852299999999786,248.92933 L 17.89619999999968,245.76921 L 17.907199999999648,245.76921 L 19.950599999999667,248.92933 L 21.99449999999956,245.76921 L 22.00549999999953,245.76921 L 24.048799999999574,248.92933 L 26.092699999999468,245.76921 L 26.103699999999435,245.76921 L 28.147099999999455,248.92933 L 30.19099999999935,245.76921 L 30.201999999999316,245.76921 L 32.245399999999336,248.92933 L 34.28929999999923,245.76921 L 34.3002999999992,245.76921 L 36.34419999999909,248.92933 L 38.387499999999136,245.76921 L 38.3984999999991,245.76921 L 40.442399999999,248.92933 L 42.48579999999902,245.76921 L 42.496799999998984,245.76921 L 44.54069999999888,248.92933 L 46.5840999999989,245.76921 L 46.595099999998865,245.76921 L 48.63899999999876,248.92933 L 50.682299999998804,245.76921 L 50.69329999999877,245.76921 L 52.737199999998666,248.92933 L 54.780599999998685,245.76921 L 54.79159999999865,245.76921 L 56.83549999999855,248.92933 L 58.87939999999844,245.76921 L 58.89039999999841,245.76921 L 60.93369999999845,248.92933 L 62.97759999999835,245.76921 L 62.988599999998314,245.76921 L 65.03199999999833,248.92933 L 67.07589999999823,245.76921 L 67.0868999999982,245.76921 L 69.13029999999821,248.92933 L 71.17419999999811,245.76921 L 71.18519999999808,245.76921 L 73.22849999999812,248.92933 L 75.27239999999802,245.76921 L 75.28339999999798,245.76921 L 77.326799999998,248.92933 L 79.3706999999979,245.76921 L 79.38169999999786,245.76921 L 81.42559999999776,248.92933 L 83.46899999999778,245.76921 L 83.47999999999774,245.76921 L 85.52389999999764,248.92933 L 87.56719999999768,245.76921 L 87.57819999999765,245.76921 L 89.62209999999754,248.92933 L 91.66549999999756,245.76921 L 91.67649999999753,245.76921 L 93.72039999999743,248.92933 L 95.76369999999747,245.76921 L 95.77469999999744,245.76921 L 97.81859999999733,248.92933 L 99.86199999999735,245.76921 L 99.87299999999732,245.76921 L 101.91689999999721,248.92933 L 103.9607999999971,245.76921 L 104.00279999999702,245.76921 L 104.00279999999702,82.58736999999996 C 104.00279999999702,44.744159999999965 103.99279999999703,39.55574999999999 103.88539999999693,38.923949999999934 L 103.95339999999692,38.80433999999991 L 102.69549999999685,35.47830999999991 L 100.05469999999696,37.922399999999925 L 99.97869999999693,37.86449999999991 L 100.01769999999692,34.01810999999992 L 96.27709999999684,34.933679999999924 C 96.2550999999969,34.913379999999904 96.23109999999679,34.890279999999905 96.20909999999685,34.869779999999935 L 96.44839999999681,30.651329999999916 L 92.26129999999671,30.651329999999916 C 92.24029999999675,30.62652999999989 92.21829999999682,30.60152999999991 92.19729999999663,30.576329999999928 L 92.67579999999657,26.35181999999992 L 92.27009999999655,25.905329999999935 L 88.14089999999646,25.437899999999956 C 88.09189999999649,25.374999999999943 88.0405999999964,25.30822999999998 87.99099999999657,25.24386999999996 L 88.49759999999651,20.916279999999972 L 88.0107999999966,20.307739999999967 L 83.67059999999651,19.699199999999962 L 83.58959999999661,15.439959999999985 L 79.20849999999655,15.520960000000002 L 78.96539999999663,11.465109999999981 L 74.89189999999667,12.063729999999964 C 74.86789999999678,12.04992999999996 74.84489999999664,12.03562999999997 74.82089999999675,12.024029999999982 L 74.29979999999682,8.138519999999971 L 70.69869999999673,9.699009999999987 C 70.69869999999673,9.69801000000001 70.64069999999674,9.673810000000003 70.63669999999684,9.67201 L 69.6753999999969,5.907759999999996 L 66.51139999999691,7.814419999999984 L 65.41609999999696,4.284979999999962 L 62.43569999999704,6.581349999999986 C 62.42569999999705,6.57835 62.41569999999706,6.5753500000000145 62.406699999997045,6.572349999999972 L 61.23819999999705,3.108509999999967 L 58.56149999999707,5.58842999999996 C 58.52749999999696,5.584429999999941 58.48449999999707,5.5804299999999785 58.43419999999696,5.575229999999976 L 56.85769999999707,2.5 L 54.78899999999703,5.380100000000027 L 54.80399999999713,5.405500000000018 C 54.80399999999713,5.405500000000018 54.79399999999714,5.404980000000023 54.79099999999721,5.404950000000042 C 54.77399999999716,5.404930000000036 54.74299999999721,5.406950000000052 54.72499999999718,5.406950000000052 L 54.73999999999728,5.380450000000053 L 52.67360000000008,2.5002000000000066" id="path4395" inkscape:connector-curvature="0" sodipodi:nodetypes="ccccccccccccccccccccccccccccccccccccccccccccccccccccccccccccccccccccccccccccccccccccccccccccccccccccccccccccccccsccccccccccccccccccccccccccccccccccccccccc" style="color:#000000;clip-rule:nonzero;display:inline;overflow:visible;visibility:visible;opacity:1;isolation:auto;mix-blend-mode:normal;color-interpolation:sRGB;color-interpolation-filters:linearRGB;solid-color:#000000;solid-opacity:1;vector-effect:none;fill:black;fill-opacity:1;fill-rule:nonzero;stroke:#000000;stroke-width:5.0;stroke-linecap:round;stroke-linejoin:round;stroke-dasharray:none;stroke-dashoffset:0;stroke-opacity:1;marker:none;marker-start:none;marker-mid:none;marker-end:none;color-rendering:auto;image-rendering:auto;shape-rendering:auto;text-rendering:auto;enable-background:accumulate;"/>
</svg>
