<?xml version="1.0" ?>
<svg xmlns="http://www.w3.org/2000/svg" xmlns:cc="http://creativecommons.org/ns#" xmlns:dc="http://purl.org/dc/elements/1.1/" xmlns:ev="http://www.w3.org/2001/xml-events" xmlns:inkscape="http://www.inkscape.org/namespaces/inkscape" xmlns:rdf="http://www.w3.org/1999/02/22-rdf-syntax-ns#" xmlns:sodipodi="http://sodipodi.sourceforge.net/DTD/sodipodi-0.dtd" xmlns:svg="http://www.w3.org/2000/svg" xmlns:xlink="http://www.w3.org/1999/xlink" baseProfile="full" height="26.511589999999785" id="svg1" inkscape:version="0.92.4 (5da689c313, 2019-01-14)" sodipodi:docname="e190-e2.svg" version="1.1" viewBox="0 0 36.47730000000024 26.511589999999785" width="36.47730000000024">
	<defs/>
	<path d="M 12.551600000000462,5.986259999999902 C 12.722600000000511,6.022359999999878 12.728100000000495,6.084859999999878 12.725900000000365,7.966449999999895 C 12.725900000000365,9.968559999999911 12.777900000000272,10.398129999999867 13.121200000000272,11.086189999999874 C 13.459800000000314,11.765069999999866 14.156800000000203,12.1453699999999 15.687600000000202,12.486259999999902 C 17.824000000000296,12.962029999999913 21.271000000000186,12.680009999999925 22.37000000000012,11.939509999999927 C 22.49720000000002,11.853709999999921 22.621700000000146,11.783579999999915 22.646600000000035,11.783579999999915 C 22.720600000000104,11.783579999999915 23.17509999999993,11.296779999999899 23.30670000000009,11.076509999999928 C 23.554399999999987,10.662119999999902 23.675000000000182,9.964239999999904 23.719400000000178,8.688879999999926 C 23.74440000000027,7.9696899999999005 23.730400000000145,7.077609999999936 23.687400000000252,6.706459999999936 L 23.610400000000254,6.031699999999944 L 23.87700000000018,5.986399999999946 C 24.24220000000014,5.92429999999996 30.535100000000284,5.158339999999953 30.68000000000029,5.158339999999953 C 30.76400000000035,5.158339999999953 30.81670000000031,5.394749999999931 30.869800000000396,6.0082799999999565 L 30.869800000000396,6.008189999999956 C 30.97450000000049,7.219149999999956 30.9508000000003,9.577339999999936 30.82280000000037,10.650269999999978 C 30.676000000000386,11.884399999999971 30.345700000000306,13.30838 29.973800000000438,14.311589999999967 C 29.804900000000544,14.76706999999999 29.631100000000515,15.198589999999967 29.587500000000546,15.270529999999951 C 29.544500000000653,15.342429999999979 29.362000000000535,15.65510999999998 29.18310000000065,15.965359999999976 C 28.72970000000055,16.751710000000003 27.81810000000064,17.780899999999974 27.007800000000543,18.421029999999973 C 26.63100000000054,18.71877999999998 26.30310000000054,18.984909999999957 26.27920000000063,19.012479999999982 C 26.25520000000074,19.040179999999964 26.03940000000057,19.154079999999965 25.799700000000712,19.26583999999997 C 25.560000000000628,19.377599999999973 25.187300000000732,19.572269999999946 24.971500000000788,19.69844999999998 C 24.755800000000818,19.824639999999988 24.187000000000808,20.054839999999956 23.70750000000089,20.210069999999973 C 23.228000000000975,20.365259999999978 22.76760000000081,20.533469999999966 22.684400000000778,20.58380999999997 C 22.601400000000694,20.634209999999996 22.43860000000086,20.675309999999968 22.323200000000725,20.675309999999968 C 22.016800000000785,20.675309999999968 20.768900000000713,20.928909999999973 20.59220000000073,21.02709999999996 C 20.407400000000735,21.12976999999995 15.934400000000778,21.141459999999938 15.871300000000701,21.039499999999975 C 15.847300000000814,21.0 15.422900000000709,20.899849999999958 14.92900000000077,20.816959999999995 C 14.435200000000805,20.73406 13.91340000000082,20.625220000000013 13.769600000000764,20.57510000000002 C 13.625700000000734,20.525000000000034 13.1354000000008,20.358859999999993 12.67990000000077,20.20592000000005 C 12.224400000000742,20.052990000000023 11.596700000000737,19.785130000000038 11.285100000000739,19.610660000000053 C 10.973400000000765,19.43622000000005 10.600800000000845,19.242330000000038 10.456900000000815,19.179850000000044 C 10.313100000000759,19.117350000000044 10.17580000000089,19.044970000000035 10.151800000000776,19.019010000000037 C 10.127800000000889,18.99311000000006 9.796000000000731,18.72493000000003 9.414400000000796,18.42318000000006 C 8.574300000000903,17.758970000000033 7.825200000000905,16.918940000000077 7.341700000000856,16.09871000000004 C 7.14390000000094,15.763100000000065 6.937700000000859,15.429650000000038 6.883500000000822,15.357740000000035 C 6.698600000000852,15.112430000000018 6.143700000000763,13.485480000000052 5.931900000000724,12.568140000000028 C 5.652200000000676,11.356650000000002 5.444400000000769,9.576250000000016 5.444400000000769,8.392130000000009 C 5.444400000000769,7.486140000000034 5.59870000000069,5.2384400000000255 5.6656000000007225,5.170189999999991" id="path4475" inkscape:connector-curvature="0" sodipodi:nodetypes="ccsscscccccsccscccccsscsscccssccccscssc" style="color:#000000;clip-rule:nonzero;display:inline;overflow:visible;visibility:visible;opacity:1;isolation:auto;mix-blend-mode:normal;color-interpolation:sRGB;color-interpolation-filters:linearRGB;solid-color:#000000;solid-opacity:1;vector-effect:none;fill:black;fill-opacity:1;fill-rule:nonzero;stroke:#000000;stroke-width:5.0;stroke-linecap:round;stroke-linejoin:round;stroke-dasharray:none;stroke-dashoffset:0;stroke-opacity:1;marker:none;marker-start:none;marker-mid:none;marker-end:none;color-rendering:auto;image-rendering:auto;shape-rendering:auto;text-rendering:auto;enable-background:accumulate;"/>
	<path d="M 20.783200000000534,24.011229999999898 L 22.476000000000568,20.653779999999927 C 22.533000000000584,20.6418799999999 22.57980000000066,20.62627999999995 22.625900000000456,20.606379999999945 L 25.71650000000045,22.778169999999932 L 26.19060000000036,19.06573999999995 C 26.22360000000026,19.04643999999996 26.272600000000466,19.019939999999963 26.2796000000003,19.012239999999963 C 26.280200000000377,19.011439999999936 26.299600000000282,18.996339999999975 26.30060000000026,18.995139999999935 L 29.64590000000021,20.11023999999992 L 28.81410000000028,16.611129999999946 L 32.57170000000019,16.353159999999946 L 30.248400000000174,13.54195999999996 L 33.8914000000002,12.165579999999977 L 30.965500000000247,9.612349999999992 L 33.97730000000024,7.3181900000000155 L 30.73620000000028,5.1954600000000255 L 30.70820000000026,5.222460000000012 C 30.692200000000184,5.182360000000017 30.679200000000264,5.157960000000003 30.679200000000264,5.157960000000003 L 27.327800000000252,2.5 L 26.283800000000156,2.5921000000000163 L 23.65280000000007,5.976560000000006 L 23.64280000000008,5.964460000000031 L 20.74290000000019,7.74929000000003 L 23.715600000000222,8.71171000000004 L 20.712000000000216,9.319150000000036 L 20.702000000000226,9.311150000000055 L 20.702000000000226,9.321150000000046 L 20.702000000000226,9.321150000000046 L 20.702000000000226,9.321680000000072 L 20.97490000000016,12.423920000000066 L 19.184000000000196,9.804000000000087 L 18.165900000000192,12.697880000000112 L 18.166400000000294,12.718780000000095 C 18.166400000000294,12.71879000000007 18.156400000000303,12.71877000000012 18.153400000000374,12.718780000000095 L 18.153400000000374,12.697880000000112 L 17.13530000000037,9.804000000000087 L 15.356500000000324,12.40629000000007 C 15.356500000000324,12.405490000000043 15.346500000000333,12.405290000000093 15.346500000000333,12.40429000000006 L 15.61770000000024,9.321890000000053 L 15.61770000000024,9.321360000000027 L 15.61770000000024,9.321360000000027 L 15.61770000000024,9.311360000000036 L 15.60770000000025,9.319360000000017 L 12.730400000000145,8.737279999999998 C 12.73010000000022,8.71647999999999 12.73010000000022,8.692479999999989 12.729800000000068,8.671179999999993 L 15.576900000000023,7.749539999999968 L 12.676899999999932,5.964709999999968 L 12.624900000000025,6.023709999999994 C 12.603900000000067,6.004410000000007 12.579899999999952,5.99281000000002 12.547900000000027,5.986209999999971 C 12.182999999999993,5.909109999999998 5.691900000000032,5.140079999999955 5.662199999999984,5.170409999999947 C 5.6521999999999935,5.176409999999919 5.648200000000088,5.21930999999995 5.64020000000005,5.2619099999999435 L 2.5,7.31848999999994 L 5.4990999999999985,9.602729999999951 C 5.499700000000075,9.609729999999956 5.4990999999999985,9.616029999999967 5.4990999999999985,9.622529999999927 L 2.5842999999999847,12.165839999999946 L 6.193700000000035,13.529549999999972 C 6.193700000000035,13.542549999999949 6.203700000000026,13.55514999999997 6.205699999999979,13.568149999999946 L 3.9038000000000466,16.35343999999992 L 7.660900000000083,16.61140999999992 L 6.829100000000153,20.110519999999894 L 10.134200000000192,19.009189999999876 C 10.134700000000294,19.009719999999902 10.146200000000135,19.01818999999989 10.146200000000135,19.019189999999867 C 10.160200000000032,19.03448999999989 10.218200000000024,19.066989999999862 10.28890000000024,19.102989999999863 L 10.758600000000342,22.778489999999863 L 13.86030000000028,20.598429999999837 C 13.891300000000228,20.60742999999985 13.943300000000363,20.618829999999832 13.987000000000307,20.62932999999981 L 15.69190000000026,24.011589999999785 L 18.234700000000203,21.18936999999977 L 20.777500000000146,24.011589999999785 L 20.783200000000534,24.011229999999898" id="path4391" inkscape:connector-curvature="0" style="color:#000000;clip-rule:nonzero;display:inline;overflow:visible;visibility:visible;opacity:1;isolation:auto;mix-blend-mode:normal;color-interpolation:sRGB;color-interpolation-filters:linearRGB;solid-color:#000000;solid-opacity:1;vector-effect:none;fill:black;fill-opacity:1;fill-rule:nonzero;stroke:#000000;stroke-width:5.0;stroke-linecap:round;stroke-linejoin:round;stroke-dasharray:none;stroke-dashoffset:0;stroke-opacity:1;marker:none;marker-start:none;marker-mid:none;marker-end:none;color-rendering:auto;image-rendering:auto;shape-rendering:auto;text-rendering:auto;enable-background:accumulate;"/>
</svg>
