<?xml version="1.0" ?>
<svg xmlns="http://www.w3.org/2000/svg" xmlns:cc="http://creativecommons.org/ns#" xmlns:dc="http://purl.org/dc/elements/1.1/" xmlns:ev="http://www.w3.org/2001/xml-events" xmlns:inkscape="http://www.inkscape.org/namespaces/inkscape" xmlns:rdf="http://www.w3.org/1999/02/22-rdf-syntax-ns#" xmlns:sodipodi="http://sodipodi.sourceforge.net/DTD/sodipodi-0.dtd" xmlns:svg="http://www.w3.org/2000/svg" xmlns:xlink="http://www.w3.org/1999/xlink" baseProfile="full" height="40.14972000000006" id="svg1" inkscape:version="0.92.4 (5da689c313, 2019-01-14)" sodipodi:docname="e190-e2.svg" version="1.1" viewBox="0 0 69.60659999999962 40.14972000000006" width="69.60659999999962">
	<defs/>
	<path d="M 53.6757999999993,3.210170000000005 C 53.7237999999993,3.213169999999991 56.56789999999933,5.271920000000023 59.995999999999185,7.786119999999983 C 63.42409999999927,10.300329999999974 66.28779999999915,12.393399999999986 66.35979999999927,12.437399999999968 C 66.4750999999992,12.50789999999995 66.47409999999923,12.530799999999942 66.34979999999928,12.631369999999947 C 66.27379999999926,12.694069999999954 65.7663999999993,13.333819999999946 65.22319999999922,14.053009999999972 C 63.26289999999926,16.64815999999996 61.15939999999932,19.13898999999998 58.63429999999926,21.855159999999955 C 56.18789999999922,24.48661999999996 53.9904999999992,26.52660999999995 51.6906999999992,28.301169999999956 C 50.98349999999914,28.84689999999995 50.40489999999909,29.326229999999953 50.40489999999909,29.36635999999993 C 50.40489999999909,29.406459999999925 50.35889999999904,29.43935999999991 50.302399999999125,29.43935999999991 C 50.246399999999085,29.43935999999991 49.56939999999918,29.8473699999999 48.798699999999144,30.346029999999928 C 48.027899999999136,30.8446899999999 46.78929999999923,31.5553799999999 46.046099999999115,31.92533999999995 C 45.3029999999992,32.29533999999995 44.68189999999913,32.63267999999994 44.665899999999056,32.67503999999997 C 44.64989999999898,32.71733999999998 44.56989999999905,32.752039999999965 44.48849999999902,32.752039999999965 C 44.35499999999911,32.752039999999965 42.294599999999036,33.47325999999998 41.64379999999892,33.74777999999998 C 41.49999999999886,33.80838 40.93119999999885,33.945899999999995 40.37979999999902,34.053229999999985 C 39.828399999998965,34.160559999999975 39.04379999999901,34.32122999999996 38.63629999999898,34.41026999999997 C 36.91049999999905,34.787289999999985 32.75209999999902,34.803999999999974 31.097099999999045,34.44056999999998 C 30.762199999998984,34.36696999999998 29.957999999998947,34.19525999999996 29.309999999999036,34.05885999999998 C 26.865299999999024,33.54435000000001 23.408699999999044,32.03931 20.779599999998936,30.34478999999999 C 19.27619999999888,29.375779999999963 16.90919999999892,27.55962999999997 15.534999999998945,26.32072999999997 C 14.369799999999032,25.270269999999982 11.928299999998899,22.855289999999968 10.888299999998935,21.72453999999999 C 10.447299999998904,21.245130000000017 9.942299999999022,20.69592 9.765899999998965,20.504099999999994 C 9.589499999998907,20.312270000000012 9.046099999998887,19.684579999999983 8.558199999999033,19.109219999999993 C 8.070399999998926,18.53388000000001 7.596199999999044,17.984669999999994 7.504499999999098,17.888769999999965 C 7.4124999999989996,17.792869999999994 6.90339999999901,17.165239999999983 6.372699999998986,16.49396999999999 C 5.8418999999989865,15.82274000000001 5.371799999998984,15.260459999999966 5.327999999999065,15.244489999999985 C 5.283999999998969,15.22838999999999 5.247999999999138,15.178089999999997 5.247999999999138,15.132419999999968 C 5.247999999999138,15.04511999999994 3.4407999999991716,12.608169999999973 3.3105999999991127,12.519969999999944" fill="none" id="path4473" inkscape:connector-curvature="0" sodipodi:nodetypes="csccsscsssccscscccsccsccccsc" stroke-width="1" style="color:#000000;clip-rule:nonzero;display:inline;overflow:visible;visibility:visible;opacity:1;isolation:auto;mix-blend-mode:normal;color-interpolation:sRGB;color-interpolation-filters:linearRGB;solid-color:#000000;solid-opacity:1;vector-effect:none;fill:none;fill-opacity:1;fill-rule:nonzero;stroke:#000000;stroke-width:1;stroke-linecap:round;stroke-linejoin:round;stroke-dasharray:none;stroke-dashoffset:0;stroke-opacity:1;marker:none;marker-start:none;marker-mid:none;marker-end:none;color-rendering:auto;image-rendering:auto;shape-rendering:auto;text-rendering:auto;enable-background:accumulate;"/>
	<path d="M 37.90029999999933,37.648960000000045 L 39.70989999999938,34.190630000000056 C 39.72689999999943,34.18763000000007 39.738899999999376,34.184630000000084 39.75589999999943,34.18163000000004 L 43.17399999999952,36.594850000000065 L 44.5508999999995,32.74020000000007 C 44.60689999999954,32.7281000000001 44.655999999999494,32.70620000000008 44.66779999999949,32.675200000000075 C 44.668599999999515,32.673200000000065 44.68579999999952,32.66340000000008 44.68979999999942,32.66030000000006 L 48.34209999999939,34.221340000000055 L 48.85309999999936,30.38874000000004 L 52.666399999999385,31.484000000000037 L 52.99049999999943,27.346580000000017 L 57.16869999999949,27.792509999999993 L 56.56019999999944,24.22284000000002 L 60.53559999999948,24.466480000000047 L 60.17069999999944,20.329060000000027 L 64.06439999999952,20.08542 L 63.37489999999957,16.515750000000025 L 67.10659999999962,16.597350000000006 L 66.32109999999966,12.669390000000021 C 66.32109999999966,12.665390000000002 66.34909999999968,12.634389999999996 66.35209999999961,12.631889999999999 C 66.47459999999955,12.531360000000006 66.3620999999996,12.43786 66.3620999999996,12.43786 L 65.72819999999956,8.054039999999986 L 58.07739999999967,2.5 L 53.67869999999971,3.2105099999999993 C 53.67869999999971,3.2105099999999993 53.35619999999972,3.5268100000000118 53.06849999999963,3.9193799999999896 C 50.399499999999534,7.561620000000005 47.284299999999575,10.993490000000008 45.157999999999674,12.633539999999982 C 43.33589999999958,14.03895 40.639799999999696,15.203229999999962 38.42269999999962,15.542299999999955 C 37.99119999999971,15.608299999999929 37.461999999999534,15.705099999999959 37.24639999999954,15.757829999999956 C 37.018699999999626,15.813529999999957 36.032099999999446,15.852929999999958 34.89269999999965,15.851529999999968 C 33.216599999999744,15.849529999999959 32.753299999999626,15.818429999999978 31.710499999999683,15.637659999999983 C 28.215499999999793,15.031799999999976 25.697899999999663,13.81198999999998 23.141299999999774,11.48590999999999 C 21.483999999999696,9.977980000000002 18.485999999999876,6.462919999999997 16.464499999999816,3.6575500000000147 C 16.283099999999877,3.405830000000037 16.098099999999704,3.2000400000000013 16.05329999999981,3.2000400000000013 C 15.90489999999977,3.2000400000000013 3.2387999999998556,12.468360000000018 3.3157999999998538,12.520539999999983 C 3.3157999999998538,12.522539999999992 3.32979999999975,12.53764000000001 3.333799999999883,12.540939999999978 L 3.310799999999972,12.540939999999978 L 2.5,16.59733 L 6.231700000000046,16.51573000000002 L 5.5422000000000935,20.085399999999993 L 9.435900000000174,20.32904000000002 L 9.07100000000014,24.46646000000004 L 13.046400000000176,24.222830000000044 L 12.437900000000127,27.792500000000018 L 16.61550000000011,27.34656000000001 L 16.940200000000004,31.48398000000003 L 20.75350000000003,30.388720000000035 L 21.264499999999998,34.22132000000005 L 25.012199999999893,32.61949000000004 L 26.43209999999999,36.594850000000065 L 29.858999999999924,34.17557000000005 C 29.871999999999844,34.178570000000036 29.878999999999905,34.17957000000007 29.891999999999825,34.182570000000055 L 31.7054999999998,37.64972000000006 L 34.804499999999734,34.79222000000004 L 37.90339999999969,37.64972000000006 L 37.90029999999933,37.648960000000045 M 34.801399999999376,34.73744000000005 L 34.77439999999933,34.70274000000006 C 34.79239999999936,34.70271000000008 34.81039999999939,34.70327000000009 34.82839999999942,34.70327000000009 L 34.801399999999376,34.73747000000009 L 34.801399999999376,34.73744000000005" fill="none" id="path4389" inkscape:connector-curvature="0" stroke-width="1" style="color:#000000;clip-rule:nonzero;display:inline;overflow:visible;visibility:visible;opacity:1;isolation:auto;mix-blend-mode:normal;color-interpolation:sRGB;color-interpolation-filters:linearRGB;solid-color:#000000;solid-opacity:1;vector-effect:none;fill:none;fill-opacity:1;fill-rule:nonzero;stroke:#000000;stroke-width:1;stroke-linecap:round;stroke-linejoin:round;stroke-dasharray:none;stroke-dashoffset:0;stroke-opacity:1;marker:none;marker-start:none;marker-mid:none;marker-end:none;color-rendering:auto;image-rendering:auto;shape-rendering:auto;text-rendering:auto;enable-background:accumulate;"/>
</svg>
