<?xml version="1.0" ?>
<svg xmlns="http://www.w3.org/2000/svg" xmlns:cc="http://creativecommons.org/ns#" xmlns:dc="http://purl.org/dc/elements/1.1/" xmlns:ev="http://www.w3.org/2001/xml-events" xmlns:inkscape="http://www.inkscape.org/namespaces/inkscape" xmlns:rdf="http://www.w3.org/1999/02/22-rdf-syntax-ns#" xmlns:sodipodi="http://sodipodi.sourceforge.net/DTD/sodipodi-0.dtd" xmlns:svg="http://www.w3.org/2000/svg" xmlns:xlink="http://www.w3.org/1999/xlink" baseProfile="full" height="35.31968999999992" id="svg1" inkscape:version="0.92.4 (5da689c313, 2019-01-14)" sodipodi:docname="e190-e2.svg" version="1.1" viewBox="0 0 84.63110000000006 35.31968999999992" width="84.63110000000006">
	<defs/>
	<path d="M 76.7301,2.5008399999999824 C 76.78809999999999,2.5008399999999824 77.89910000000009,3.7563900000000103 79.19769999999994,5.2914499999999975 L 81.5589,8.08245999999997 L 81.31420000000003,8.288429999999948 C 79.08100000000013,10.167829999999924 78.41319999999996,10.723299999999938 77.32060000000001,11.610209999999938 C 75.7532000000001,12.882529999999917 75.9713999999999,12.709099999999921 74.22620000000006,14.069329999999923 C 72.67280000000005,15.280149999999935 70.05460000000016,17.283049999999946 69.75009999999997,17.493559999999945 C 69.64689999999996,17.564959999999928 68.91509999999994,18.095759999999927 68.12400000000002,18.67310999999995 C 63.09120000000007,22.345999999999947 58.65059999999994,25.08084999999994 54.96060000000011,26.78004999999996 C 54.02570000000014,27.210579999999936 53.24760000000015,27.59235000000001 53.231700000000046,27.628389999999968 C 53.21569999999997,27.66449 53.131200000000035,27.693989999999985 53.044000000000096,27.693989999999985 C 52.87049999999999,27.693989999999985 49.95410000000015,28.684560000000033 49.70950000000016,28.826540000000023 C 49.62650000000008,28.874840000000063 49.470900000000256,28.914440000000013 49.36420000000021,28.914440000000013 C 49.077400000000125,28.914440000000013 46.22450000000026,29.517180000000053 46.04820000000018,29.61500000000001 C 45.965200000000095,29.661200000000008 45.455000000000155,29.70240000000001 44.914900000000216,29.70659999999998 C 44.37490000000025,29.7106 43.580000000000155,29.742599999999925 43.148400000000265,29.77729999999997 C 42.63330000000019,29.81869999999992 41.69020000000023,29.78800000000001 40.40240000000017,29.68769999999995 C 38.760800000000245,29.559909999999945 38.1568000000002,29.47156999999993 36.69750000000022,29.145809999999983 C 34.905300000000125,28.745699999999943 32.10230000000024,27.83809999999994 30.81320000000028,27.240519999999947 C 30.45360000000028,27.07380999999998 29.72470000000021,26.73497999999995 29.193300000000363,26.487549999999942 C 28.662000000000262,26.240159999999946 28.161800000000312,26.037719999999922 28.08190000000036,26.037719999999922 C 28.001900000000433,26.037719999999922 27.936400000000276,26.005719999999883 27.936400000000276,25.96661999999992 C 27.936400000000276,25.88641999999993 24.786200000000235,24.119839999999954 24.643200000000206,24.119839999999954 C 24.592200000000275,24.119839999999954 24.538100000000213,24.085839999999962 24.522100000000137,24.04433999999992 C 24.48610000000008,23.94983999999988 21.435300000000097,22.027639999999906 21.32170000000019,22.027639999999906 C 21.275700000000143,22.027639999999906 21.225700000000188,21.994239999999934 21.209500000000162,21.953439999999887 C 21.193500000000085,21.912639999999897 20.474300000000085,21.403589999999895 19.611300000000256,20.82217999999989 C 18.748200000000224,20.240779999999916 18.00290000000018,19.733429999999885 17.95490000000018,19.69472999999988 C 17.906900000000178,19.656029999999873 17.24010000000021,19.177789999999902 16.473000000000184,18.63190999999989 C 15.705800000000181,18.086069999999893 14.404400000000123,17.138249999999914 13.580900000000156,16.525689999999884 C 12.757500000000164,15.913119999999878 11.994300000000067,15.360759999999857 11.885000000000218,15.298159999999882 C 11.775700000000143,15.235559999999907 11.625700000000279,15.121099999999899 11.551600000000235,15.0437399999999 C 11.37010000000032,14.854309999999884 8.858700000000226,12.961419999999919 8.78890000000024,12.961419999999919 C 8.758900000000267,12.961419999999919 8.689900000000307,12.907319999999913 8.636900000000196,12.841159999999945 C 8.583900000000085,12.774959999999965 7.794700000000148,12.136199999999917 6.883800000000292,11.421589999999924 C 5.972800000000234,10.706969999999899 4.758800000000292,9.738839999999925 4.186100000000351,9.270149999999944 C 3.6134000000004107,8.801459999999963 3.0889000000004216,8.386709999999937 3.020600000000286,8.348469999999963" fill="none" id="path4471" inkscape:connector-curvature="0" sodipodi:nodetypes="cscssscsscscsscscsccssscscsscscsscssc" stroke-width="1" style="color:#000000;clip-rule:nonzero;display:inline;overflow:visible;visibility:visible;opacity:1;isolation:auto;mix-blend-mode:normal;color-interpolation:sRGB;color-interpolation-filters:linearRGB;solid-color:#000000;solid-opacity:1;vector-effect:none;fill:none;fill-opacity:1;fill-rule:nonzero;stroke:#000000;stroke-width:1;stroke-linecap:round;stroke-linejoin:round;stroke-dasharray:none;stroke-dashoffset:0;stroke-opacity:1;marker:none;marker-start:none;marker-mid:none;marker-end:none;color-rendering:auto;image-rendering:auto;shape-rendering:auto;text-rendering:auto;enable-background:accumulate;"/>
	<path d="M 44.35629999999992,32.81968999999992 L 45.89859999999999,29.64964999999995 C 45.90859999999998,29.648849999999925 45.91059999999993,29.64765 45.91560000000004,29.64664999999991 L 48.37180000000012,32.18830999999989 L 49.537700000000086,28.889289999999846 C 49.54970000000003,28.886289999999804 49.55770000000007,28.882289999999898 49.56970000000001,28.879289999999855 L 52.35889999999995,31.15580999999986 L 53.09860000000003,27.684809999999857 C 53.11259999999993,27.682809999999904 53.12660000000005,27.681809999999814 53.1386,27.67780999999991 L 56.14429999999993,29.5778499999999 L 56.50209999999993,26.029129999999896 C 56.55009999999993,26.004929999999945 56.600099999999884,25.9770299999999 56.64760000000001,25.95252999999991 L 59.87329999999997,27.79964999999993 L 59.928300000000036,24.131309999999985 C 59.97330000000011,24.10441000000003 60.020300000000134,24.076310000000035 60.06560000000013,24.049210000000016 L 63.429600000000164,25.648289999999974 L 63.34460000000013,21.989869999999996 C 63.35660000000007,21.981870000000015 63.36960000000022,21.97336999999999 63.38260000000014,21.96506999999997 L 66.75660000000016,23.382799999999975 L 66.58900000000017,19.77288999999996 C 66.61500000000024,19.754689999999982 66.64100000000008,19.73538999999994 66.66700000000014,19.71718999999996 L 69.96940000000018,21.116719999999987 L 69.77750000000015,17.47208999999998 C 69.79150000000004,17.46208999999999 69.89850000000024,17.38018999999997 69.91920000000005,17.36514999999997 L 73.18180000000007,18.736019999999996 L 72.89740000000006,15.093039999999974 C 72.90740000000005,15.087040000000002 72.91240000000016,15.081139999999948 72.92139999999995,15.074839999999995 L 76.22270000000003,16.441309999999987 L 75.83740000000012,12.808240000000012 C 75.86740000000009,12.784539999999993 75.93040000000019,12.732740000000035 75.96030000000019,12.709040000000016 L 79.20580000000018,13.97462999999999 L 78.80400000000009,10.532839999999965 L 82.13110000000006,11.679919999999981 L 81.47019999999998,8.156000000000006 L 81.55919999999992,8.08159999999998 L 81.8639999999998,3.6531400000000076 L 81.0900999999999,2.7717499999999973 L 76.73049999999989,2.5 C 76.73049999999989,2.5 76.01569999999992,3.0156299999999874 75.27259999999978,3.644870000000026 C 73.17899999999986,5.417540000000031 68.49589999999989,9.137380000000007 66.27009999999973,10.79579000000001 C 63.83839999999964,12.60757000000001 61.41089999999963,14.294539999999984 59.49399999999969,15.505370000000028 C 58.295199999999795,16.262590000000046 57.47539999999958,16.736590000000035 55.157599999999775,18.011750000000006 C 54.436499999999796,18.408479999999997 51.726599999999735,19.490170000000035 50.38409999999976,19.91730000000001 C 45.996999999999844,21.313120000000026 41.777199999999766,21.573059999999998 37.46519999999987,20.712699999999984 C 35.885299999999916,20.397459999999967 33.17579999999998,19.61388999999997 32.29539999999997,19.217809999999986 C 32.07960000000003,19.120709999999974 31.349300000000085,18.79334 30.672599999999875,18.49019999999996 C 29.995899999999892,18.18706999999995 28.83089999999993,17.60391999999996 28.083599999999933,17.193739999999934 C 27.336299999999937,16.78356999999994 26.68679999999995,16.447949999999935 26.640499999999975,16.447949999999935 C 26.594499999999925,16.447949999999935 26.543499999999995,16.416649999999947 26.527499999999918,16.37854999999996 C 26.51149999999984,16.340349999999944 25.909999999999854,15.942699999999945 25.190799999999854,15.49494999999996 C 21.679799999999886,13.309099999999944 14.46389999999974,8.048829999999953 10.205999999999904,4.570959999999957 C 8.446500000000015,3.133829999999932 7.75,2.5890299999999797 7.696299999999837,2.6080799999999726 C 7.6612999999997555,2.6204799999999864 6.567399999999907,3.901429999999948 5.264899999999898,5.454559999999958 C 3.4791999999999916,7.583819999999946 2.927199999999857,8.295469999999966 3.0208999999999833,8.34788999999995 C 3.0208999999999833,8.34988999999996 3.053899999999885,8.373489999999947 3.058899999999994,8.377089999999953 L 2.5,11.679969999999969 L 5.787499999999909,10.54666999999995 C 5.800499999999829,10.556869999999947 5.809499999999844,10.563969999999927 5.822499999999991,10.574169999999924 L 5.425600000000031,13.974619999999902 L 8.541600000000017,12.759739999999908 C 8.556600000000117,12.773639999999887 8.632599999999911,12.83453999999989 8.63760000000002,12.84023999999988 C 8.686599999999999,12.901039999999853 8.744899999999916,12.94762999999989 8.77819999999997,12.955439999999896 L 8.408899999999903,16.44132999999988 L 11.628499999999804,15.10903999999988 C 11.660499999999729,15.136839999999893 11.688499999999749,15.161439999999857 11.72649999999976,15.189539999999852 L 11.449799999999868,18.73605999999984 L 14.720099999999775,17.361879999999815 C 14.768099999999777,17.396779999999808 14.807099999999764,17.425479999999823 14.854599999999664,17.460579999999823 L 14.662299999999732,21.11678999999981 L 17.97999999999979,19.710639999999785 C 17.97999999999979,19.712639999999794 18.03899999999976,19.750339999999767 18.042999999999893,19.75363999999979 L 17.873799999999846,23.382849999999735 L 21.227899999999863,21.97338999999971 C 21.242899999999963,21.99308999999971 21.26189999999997,22.006689999999708 21.285899999999856,22.01528999999971 L 21.201899999999796,25.64834999999971 L 24.538899999999785,24.061949999999683 C 24.561899999999696,24.09374999999966 24.601899999999887,24.119249999999738 24.644199999999728,24.119249999999738 C 24.65419999999972,24.119249999999738 24.688199999999824,24.138549999999782 24.703199999999697,24.144049999999766 L 24.75819999999976,27.799699999999802 L 27.941499999999678,25.97683999999981 C 27.952499999999645,26.010539999999764 28.010499999999638,26.036939999999845 28.08259999999973,26.036939999999845 C 28.09259999999972,26.036939999999845 28.116599999999835,26.046939999999836 28.13059999999973,26.05013999999983 L 28.486099999999624,29.577919999999835 L 31.526699999999664,27.656379999999785 L 32.27239999999961,31.15548999999976 L 35.083599999999706,28.860789999999724 L 36.25939999999969,32.187919999999735 L 38.72609999999963,29.635239999999726 L 40.274999999999636,32.819059999999695 L 42.31609999999955,29.911949999999706 L 44.35669999999959,32.819059999999695 L 44.35629999999992,32.81968999999992" fill="none" id="path4387" inkscape:connector-curvature="0" stroke-width="1" style="color:#000000;clip-rule:nonzero;display:inline;overflow:visible;visibility:visible;opacity:1;isolation:auto;mix-blend-mode:normal;color-interpolation:sRGB;color-interpolation-filters:linearRGB;solid-color:#000000;solid-opacity:1;vector-effect:none;fill:none;fill-opacity:1;fill-rule:nonzero;stroke:#000000;stroke-width:1;stroke-linecap:round;stroke-linejoin:round;stroke-dasharray:none;stroke-dashoffset:0;stroke-opacity:1;marker:none;marker-start:none;marker-mid:none;marker-end:none;color-rendering:auto;image-rendering:auto;shape-rendering:auto;text-rendering:auto;enable-background:accumulate;"/>
</svg>
