<?xml version="1.0" ?>
<svg xmlns="http://www.w3.org/2000/svg" xmlns:cc="http://creativecommons.org/ns#" xmlns:dc="http://purl.org/dc/elements/1.1/" xmlns:ev="http://www.w3.org/2001/xml-events" xmlns:inkscape="http://www.inkscape.org/namespaces/inkscape" xmlns:rdf="http://www.w3.org/1999/02/22-rdf-syntax-ns#" xmlns:sodipodi="http://sodipodi.sourceforge.net/DTD/sodipodi-0.dtd" xmlns:svg="http://www.w3.org/2000/svg" xmlns:xlink="http://www.w3.org/1999/xlink" baseProfile="full" height="27.081559999999968" id="svg1" inkscape:version="0.92.4 (5da689c313, 2019-01-14)" sodipodi:docname="e190-e2.svg" version="1.1" viewBox="0 0 100.07159999999976 27.081559999999968" width="100.07159999999976">
	<defs/>
	<path d="M 93.05379999999923,2.5019700000000284 C 93.11179999999922,2.5019700000000284 93.72989999999913,4.05286000000001 94.43579999999929,5.967150000000061 L 94.43579999999929,5.967150000000061 C 95.49839999999926,8.848640000000046 95.6889999999994,9.436030000000073 95.56909999999925,9.459960000000024 C 95.41499999999928,9.490760000000023 92.72409999999923,10.466530000000034 92.28659999999923,10.650260000000003 C 92.14279999999917,10.710659999999962 91.31899999999928,11.005890000000022 90.45599999999922,11.306339999999977 C 89.59289999999919,11.606769999999983 88.78879999999913,11.890769999999975 88.66889999999921,11.937479999999937 C 88.5489999999993,11.984179999999924 87.66639999999916,12.291809999999941 86.7074999999993,12.621099999999956 C 85.74849999999924,12.950369999999907 84.88549999999941,13.254489999999919 84.78959999999938,13.296909999999912 C 84.52029999999945,13.415979999999877 81.08409999999935,14.560529999999858 78.94889999999941,15.242349999999874 C 77.89409999999953,15.579159999999888 76.99379999999951,15.890339999999924 76.94819999999936,15.933799999999906 C 76.90319999999929,15.9772999999999 76.80449999999928,16.012799999999856 76.73009999999931,16.012799999999856 C 76.65609999999924,16.012799999999856 75.82989999999927,16.250769999999875 74.89509999999927,16.541629999999827 C 73.9601999999993,16.832459999999855 72.25389999999925,17.343339999999785 71.10319999999933,17.676919999999882 C 69.95249999999942,18.01050999999984 68.94289999999933,18.3217699999999 68.85959999999932,18.368569999999863 C 68.77659999999923,18.415369999999825 68.64259999999922,18.453669999999875 68.56229999999937,18.453669999999875 C 68.48229999999944,18.453669999999875 67.53019999999947,18.68678999999986 66.44709999999941,18.97174999999993 C 62.835699999999406,19.921839999999975 58.06299999999942,20.893229999999903 56.109099999999444,21.07583999999997 C 55.67759999999953,21.116139999999973 54.81459999999947,21.216049999999996 54.1912999999995,21.297699999999963 C 51.956799999999475,21.590509999999995 46.29039999999941,21.590190000000007 44.209799999999404,21.297699999999963 C 43.65839999999935,21.219999999999914 42.79539999999952,21.11986999999999 42.29189999999949,21.075159999999983 C 41.78849999999943,21.030359999999973 40.72929999999951,20.87211000000002 39.9381999999996,20.723420000000033 C 39.14709999999968,20.57472000000007 38.26449999999954,20.418620000000033 37.976799999999685,20.376520000000028 C 37.6890999999996,20.334420000000023 36.688799999999674,20.120880000000056 35.75379999999973,19.90188999999998 C 34.81889999999976,19.68288999999993 33.934299999999666,19.502970000000005 33.78799999999978,19.50204999999994 C 33.641799999999876,19.50204999999994 33.4848999999997,19.464449999999943 33.439299999999776,19.42064999999991 C 33.33149999999978,19.31684999999993 30.00779999999986,18.454299999999876 29.715599999999768,18.454299999999876 C 29.592499999999745,18.454299999999876 29.478699999999662,18.422099999999887 29.462699999999813,18.38279999999986 C 29.446699999999737,18.343499999999835 28.550999999999704,18.0633499999999 27.472199999999702,17.76023999999984 C 26.3933999999997,17.45710999999983 25.432299999999714,17.17705999999987 25.336399999999685,17.137909999999806 C 24.92719999999963,16.970779999999763 21.72059999999965,16.013339999999857 21.56999999999971,16.013339999999857 C 21.478999999999814,16.013339999999857 21.36759999999981,15.977939999999876 21.32199999999966,15.934639999999831 C 21.27699999999959,15.891339999999786 20.395799999999554,15.592159999999808 19.364999999999554,15.269839999999817 C 18.33409999999958,14.947479999999814 17.412299999999505,14.64905999999985 17.316399999999476,14.60666999999978 C 17.220399999999472,14.564269999999738 15.455199999999422,13.96500999999978 13.393499999999449,13.275009999999725 C 10.222799999999552,12.213789999999676 6.503799999999501,10.939809999999738 6.027199999999539,10.751569999999674 C 5.6691999999995915,10.610149999999635 2.739199999999528,9.579189999999699 2.615699999999606,9.551169999999729" id="path4469" inkscape:connector-curvature="0" sodipodi:nodetypes="ccccccsccccscscscssccsscccscccscccccc" style="color:#000000;clip-rule:nonzero;display:inline;overflow:visible;visibility:visible;opacity:1;isolation:auto;mix-blend-mode:normal;color-interpolation:sRGB;color-interpolation-filters:linearRGB;solid-color:#000000;solid-opacity:1;vector-effect:none;fill:black;fill-opacity:1;fill-rule:nonzero;stroke:#000000;stroke-width:5.0;stroke-linecap:round;stroke-linejoin:round;stroke-dasharray:none;stroke-dashoffset:0;stroke-opacity:1;marker:none;marker-start:none;marker-mid:none;marker-end:none;color-rendering:auto;image-rendering:auto;shape-rendering:auto;text-rendering:auto;enable-background:accumulate;"/>
	<path d="M 51.11419999999907,24.581559999999968 L 52.89899999999898,21.41759000000002 L 55.17059999999901,24.25689 L 56.79339999999911,21.01188000000002 L 59.22699999999918,23.729919999999993 L 60.721299999999246,20.297500000000014 C 60.73129999999924,20.297500000000014 60.73329999999919,20.29449999999997 60.739299999999275,20.293499999999995 L 63.32339999999931,22.959179999999947 L 64.66229999999928,19.429739999999924 L 67.46079999999938,21.94494999999995 L 68.67129999999929,18.43480999999997 C 68.68129999999928,18.432810000000018 68.68629999999939,18.432810000000018 68.69529999999918,18.43080999999995 L 71.59799999999927,20.809300000000007 L 72.67729999999938,17.21207000000004 C 72.69829999999934,17.206070000000068 72.71629999999936,17.20017000000007 72.7382999999993,17.19387000000006 L 75.69549999999936,19.551960000000008 L 76.82719999999927,15.993870000000015 C 76.83719999999926,15.992870000000039 76.83719999999926,15.992870000000039 76.84219999999937,15.990869999999973 L 79.75209999999947,18.294399999999996 L 80.84739999999942,14.643699999999967 L 83.72749999999951,16.955499999999915 L 84.63859999999954,13.349999999999909 C 84.65659999999957,13.342999999999961 84.71559999999954,13.323599999999942 84.72759999999948,13.318599999999947 L 87.62089999999944,15.617169999999987 L 88.34249999999952,12.050250000000005 C 88.35249999999951,12.047249999999963 88.37949999999955,12.037450000000035 88.38749999999959,12.034850000000006 L 91.23129999999969,14.238060000000019 L 92.02559999999971,10.743349999999964 C 92.03959999999961,10.738349999999969 92.09159999999974,10.720249999999965 92.10259999999971,10.715749999999957 L 94.92259999999965,12.939899999999966 L 95.57199999999966,9.49204999999995 L 95.53399999999965,9.471649999999954 C 95.53399999999965,9.470649999999978 95.56699999999955,9.46004999999991 95.56899999999973,9.459549999999922 C 95.65999999999963,9.441349999999943 97.57159999999976,5.47535999999991 97.57159999999976,5.47535999999991 L 97.05949999999984,4.264339999999947 C 97.05949999999984,4.264339999999947 93.10099999999989,2.5015699999999015 93.05379999999991,2.5009999999999764 C 92.95579999999995,2.5 90.05589999999984,3.540579999999977 89.67099999999982,3.714780000000019 C 89.57499999999982,3.7581800000000385 89.32009999999991,3.8515499999999747 89.10439999999971,3.922590000000014 C 88.88859999999977,3.99359000000004 87.47659999999973,4.49082999999996 85.96629999999982,5.027220000000057 C 73.7371999999998,9.370450000000005 64.7032999999999,11.99341000000004 58.200999999999794,13.088200000000029 C 48.79719999999975,14.671510000000012 40.8444999999997,13.923900000000003 28.430999999999813,10.289679999999976 C 23.110999999999876,8.732179999999971 15.357699999999795,6.198319999999967 9.121899999999869,3.9793599999999287 C 5.262899999999945,2.6061299999998937 5.081199999999853,2.544469999999933 5.037399999999934,2.593059999999923 C 5.018399999999929,2.6138599999999315 4.433899999999994,4.1801099999999 3.738200000000006,6.073979999999892 C 2.6950999999999112,8.913589999999886 2.5,9.514299999999935 2.613200000000006,9.548839999999927 L 3.251500000000078,12.939919999999915 L 6.026900000000069,10.7504899999999 C 6.026900000000069,10.750519999999938 6.027400000000171,10.75046999999995 6.027400000000171,10.7504899999999 C 6.0454000000002,10.757489999999848 6.135100000000193,10.788589999999886 6.161400000000185,10.798489999999902 L 6.943000000000211,14.23806999999988 L 9.77130000000011,12.047539999999913 C 9.792300000000068,12.05453999999986 9.814300000000003,12.062439999999924 9.835300000000188,12.06953999999996 L 10.552400000000262,15.617160000000013 L 13.468900000000303,13.299859999999967 C 13.498900000000276,13.310060000000021 13.496900000000323,13.309859999999958 13.526900000000296,13.319659999999999 L 14.446300000000292,16.955479999999966 L 17.326400000000376,14.643680000000018 L 18.421700000000328,18.294380000000046 L 21.342000000000326,15.982030000000009 L 22.47750000000042,19.551690000000008 L 25.459600000000364,17.17430999999999 C 25.459600000000364,17.175309999999968 25.4816000000003,17.18130999999994 25.486600000000408,17.18231000000003 L 26.574700000000348,20.808760000000007 L 29.49510000000032,18.415930000000003 L 30.71210000000042,21.944799999999987 L 33.48970000000031,19.448909999999955 C 33.4997000000003,19.452909999999974 33.511700000000246,19.455909999999903 33.52270000000021,19.46001000000001 L 34.84950000000026,22.95912999999996 L 37.445700000000215,20.281889999999976 L 38.94660000000022,23.729730000000018 L 41.38030000000026,21.011690000000044 L 43.00250000000028,24.256700000000023 L 45.27400000000034,21.417370000000005 L 47.05890000000045,24.581369999999993 L 49.08630000000039,21.581649999999968 L 51.113100000000486,24.581369999999993 L 51.11419999999907,24.581559999999968 M 49.08739999999898,21.57633999999996 L 49.070399999998926,21.515739999999937 C 49.081399999998894,21.515739999999937 49.09239999999886,21.515739999999937 49.10339999999883,21.515739999999937 L 49.08739999999875,21.57583999999997 L 49.08739999999898,21.57633999999996" id="path4385-8" inkscape:connector-curvature="0" style="color:#000000;clip-rule:nonzero;display:inline;overflow:visible;visibility:visible;opacity:1;isolation:auto;mix-blend-mode:normal;color-interpolation:sRGB;color-interpolation-filters:linearRGB;solid-color:#000000;solid-opacity:1;vector-effect:none;fill:black;fill-opacity:1;fill-rule:nonzero;stroke:#000000;stroke-width:5.0;stroke-linecap:round;stroke-linejoin:round;stroke-dasharray:none;stroke-dashoffset:0;stroke-opacity:1;marker:none;marker-start:none;marker-mid:none;marker-end:none;color-rendering:auto;image-rendering:auto;shape-rendering:auto;text-rendering:auto;enable-background:accumulate;"/>
</svg>
