<?xml version="1.0" ?>
<svg xmlns="http://www.w3.org/2000/svg" xmlns:cc="http://creativecommons.org/ns#" xmlns:dc="http://purl.org/dc/elements/1.1/" xmlns:ev="http://www.w3.org/2001/xml-events" xmlns:inkscape="http://www.inkscape.org/namespaces/inkscape" xmlns:rdf="http://www.w3.org/1999/02/22-rdf-syntax-ns#" xmlns:sodipodi="http://sodipodi.sourceforge.net/DTD/sodipodi-0.dtd" xmlns:svg="http://www.w3.org/2000/svg" xmlns:xlink="http://www.w3.org/1999/xlink" baseProfile="full" height="106.66479999999996" id="svg1" inkscape:version="0.92.4 (5da689c313, 2019-01-14)" sodipodi:docname="e190-e2.svg" version="1.1" viewBox="0 0 116.6900999999998 106.66479999999996" width="116.6900999999998">
	<defs/>
	<path d="M 112.70010000000025,3.309889999999996 C 112.72410000000013,3.3653899999999908 65.92420000000016,101.75117999999998 65.72230000000013,101.63925 C 65.04620000000023,101.26456999999999 63.3429000000001,100.77105 61.96950000000015,100.55191000000002 C 60.41610000000014,100.30403000000001 57.464500000000044,100.22614000000004 55.435900000000174,100.37941000000001 C 53.39980000000014,100.53327999999999 52.011000000000195,100.82332000000002 50.52790000000027,101.40440999999998 C 50.090900000000374,101.57563999999996 49.71310000000017,101.70777999999996 49.68820000000028,101.69806999999997" fill="none" id="path4463" inkscape:connector-curvature="0" stroke-width="1" style="color:#000000;clip-rule:nonzero;display:inline;overflow:visible;visibility:visible;opacity:1;isolation:auto;mix-blend-mode:normal;color-interpolation:sRGB;color-interpolation-filters:linearRGB;solid-color:#000000;solid-opacity:1;vector-effect:none;fill:none;fill-opacity:1;fill-rule:nonzero;stroke:#000000;stroke-width:1;stroke-linecap:round;stroke-linejoin:round;stroke-dasharray:none;stroke-dashoffset:0;stroke-opacity:1;marker:none;marker-start:none;marker-mid:none;marker-end:none;color-rendering:auto;image-rendering:auto;shape-rendering:auto;text-rendering:auto;enable-background:accumulate;"/>
	<path d="M 49.67110000000025,101.67645999999996 L 49.68710000000033,101.69515999999999 L 49.68710000000033,101.69815999999997 C 49.6872000000003,101.69817999999998 49.687900000000354,101.69762999999995 49.68710000000033,101.69762999999995 L 51.784900000000334,104.16479999999996 L 51.62550000000033,101.06095999999997 L 53.25890000000027,103.71651999999995 L 53.589200000000346,100.59956999999997 L 54.98530000000028,103.41620999999998 L 55.703500000000304,100.36401999999998 C 55.703500000000304,100.36393999999996 55.703500000000304,100.36374999999998 55.703500000000304,100.36348999999996 L 56.79670000000033,103.34375999999997 L 57.751700000000255,100.30552 L 58.692700000000286,103.29930999999999 L 59.81060000000025,100.36253999999997 L 60.54170000000022,103.43534999999997 L 61.886000000000195,100.54642999999999 L 62.2804000000001,103.71596999999997 L 63.91489999999999,100.98599999999999 C 63.928899999999885,100.99000000000001 63.94290000000001,100.99399999999997 63.95789999999988,100.99779999999998 L 63.890899999999874,104.14916999999997 L 65.79249999999979,101.71030999999999 L 70.11769999999979,99.91289 L 114.1900999999998,7.153729999999996 C 114.1900999999998,7.153729999999996 112.70069999999987,3.324489999999969 112.69429999999988,3.310069999999996 C 112.6692999999998,3.2549700000000144 111.80859999999984,3.0498400000000174 110.78089999999997,2.8546400000000176 L 108.91229999999996,2.5 L 106.55559999999991,3.190429999999992 L 104.19909999999982,3.8801300000000083 L 101.56039999999985,5.3304899999999975 L 98.92119999999977,6.781090000000006 L 96.21939999999972,8.797590000000014 C 94.6859999999997,9.94219000000004 92.36849999999981,11.770970000000034 90.86119999999983,13.025530000000003 C 88.35189999999989,15.114100000000008 88.0673999999999,15.32701000000003 85.71399999999971,16.88504999999998 C 84.34399999999982,17.792069999999967 82.11959999999976,19.18107999999995 80.77029999999968,19.972019999999986 C 78.46879999999965,21.3211 78.18349999999964,21.46866 76.1596999999997,22.35627999999997 C 72.36649999999963,24.019979999999975 67.11369999999965,25.68865999999997 63.35389999999961,26.423919999999953 C 59.5499999999995,27.16781999999995 55.71369999999956,27.173919999999953 51.91699999999969,26.442019999999957 C 48.03739999999971,25.694189999999935 43.12789999999973,24.162669999999935 39.339399999999614,22.518269999999973 C 37.29409999999962,21.630499999999984 36.51939999999968,21.234209999999962 34.33949999999959,19.961279999999988 C 32.25879999999961,18.746190000000013 30.245499999999538,17.47524999999996 27.144899999999552,15.419820000000016 C 27.074899999999616,15.373719999999992 25.81019999999944,14.331999999999994 24.333499999999503,13.10504000000003 C 22.856799999999566,11.878080000000011 20.424899999999525,9.970870000000048 18.929499999999507,8.866670000000056 C 16.31169999999952,6.933720000000051 16.114499999999452,6.806370000000072 13.616799999999557,5.44422000000003 L 11.022199999999657,4.029430000000048 L 8.849799999999732,3.3912200000000325 C 7.65509999999972,3.040270000000021 6.581399999999803,2.7367600000000607 6.46349999999984,2.716850000000022 C 6.280699999999797,2.686050000000023 2.5286999999998443,3.34101000000004 2.5119999999999436,3.406660000000045 C 2.5,3.454360000000065 49.58330000000001,101.56471000000005 49.669099999999844,101.67042000000004 L 49.67110000000025,101.67645999999996" fill="none" id="path4379-6" inkscape:connector-curvature="0" sodipodi:nodetypes="ccccccccccccccccccccccccccccccccsssssssssssccccccc" stroke-width="1" style="color:#000000;clip-rule:nonzero;display:inline;overflow:visible;visibility:visible;opacity:1;isolation:auto;mix-blend-mode:normal;color-interpolation:sRGB;color-interpolation-filters:linearRGB;solid-color:#000000;solid-opacity:1;vector-effect:none;fill:none;fill-opacity:1;fill-rule:nonzero;stroke:#000000;stroke-width:1;stroke-linecap:round;stroke-linejoin:round;stroke-dasharray:none;stroke-dashoffset:0;stroke-opacity:1;marker:none;marker-start:none;marker-mid:none;marker-end:none;color-rendering:auto;image-rendering:auto;shape-rendering:auto;text-rendering:auto;enable-background:accumulate;"/>
</svg>
