<?xml version="1.0" ?>
<svg xmlns="http://www.w3.org/2000/svg" xmlns:cc="http://creativecommons.org/ns#" xmlns:dc="http://purl.org/dc/elements/1.1/" xmlns:ev="http://www.w3.org/2001/xml-events" xmlns:inkscape="http://www.inkscape.org/namespaces/inkscape" xmlns:rdf="http://www.w3.org/1999/02/22-rdf-syntax-ns#" xmlns:sodipodi="http://sodipodi.sourceforge.net/DTD/sodipodi-0.dtd" xmlns:svg="http://www.w3.org/2000/svg" xmlns:xlink="http://www.w3.org/1999/xlink" baseProfile="full" height="17.365700000000288" id="svg1" inkscape:version="0.92.4 (5da689c313, 2019-01-14)" sodipodi:docname="e190-e2.svg" version="1.1" viewBox="0 0 105.37819999999988 17.365700000000288" width="105.37819999999988">
	<defs/>
	<path d="M 99.33979999999997,2.7603000000003703 L 99.33979999999997,2.7603000000003703 C 99.33979999999997,2.8979400000004034 100.00350000000003,8.145020000000386 100.08749999999986,8.67165000000034 L 100.13949999999977,8.99854000000039" fill="none" id="path4467" inkscape:connector-curvature="0" sodipodi:nodetypes="cssc" stroke-width="1" style="color:#000000;clip-rule:nonzero;display:inline;overflow:visible;visibility:visible;opacity:1;isolation:auto;mix-blend-mode:normal;color-interpolation:sRGB;color-interpolation-filters:linearRGB;solid-color:#000000;solid-opacity:1;vector-effect:none;fill:none;fill-opacity:1;fill-rule:nonzero;stroke:#000000;stroke-width:1;stroke-linecap:round;stroke-linejoin:round;stroke-dasharray:none;stroke-dashoffset:0;stroke-opacity:1;marker:none;marker-start:none;marker-mid:none;marker-end:none;color-rendering:auto;image-rendering:auto;shape-rendering:auto;text-rendering:auto;enable-background:accumulate;"/>
	<path d="M 102.87819999999988,5.352270000000317 L 100.13969999999995,8.999260000000277 L 99.80510000000004,8.996260000000234 C 99.27030000000013,8.993260000000191 96.42229999999995,9.371200000000272 96.39030000000002,9.449910000000273 C 96.37429999999995,9.489210000000298 96.13900000000012,9.521110000000249 95.86730000000011,9.520810000000324 C 95.21100000000001,9.520810000000324 88.58180000000016,10.401770000000283 88.54460000000017,10.49485000000027 C 88.5286000000001,10.534850000000233 88.31290000000013,10.567550000000324 88.06520000000023,10.567550000000324 C 87.81740000000013,10.567570000000273 86.9086000000002,10.668430000000285 86.04560000000015,10.791620000000307 C 85.1826000000001,10.914840000000254 84.24110000000019,11.047500000000355 83.9534000000001,11.086470000000304 C 81.08100000000013,11.475490000000264 75.98850000000016,12.24937000000034 75.86910000000012,12.314990000000307 C 75.78610000000003,12.360690000000318 75.5617000000002,12.39819000000034 75.37090000000012,12.39819000000034 C 75.05660000000012,12.39819000000034 72.8864000000001,12.69807000000037 71.57460000000015,12.922750000000292 C 70.87610000000018,13.042370000000346 67.48120000000017,13.523990000000254 66.6056000000001,13.627660000000333 C 66.22210000000018,13.673060000000305 65.31979999999999,13.789480000000367 64.60059999999999,13.886370000000284 C 62.57549999999992,14.159150000000295 59.419200000000046,14.490360000000237 57.975400000000036,14.58153000000027 C 57.256200000000035,14.626930000000243 56.23620000000005,14.703350000000228 55.70880000000011,14.751290000000267 C 54.45040000000017,14.865700000000288 48.1418000000001,14.864210000000298 46.908800000000156,14.748290000000225 C 46.37880000000018,14.698890000000233 45.3764000000001,14.624620000000277 44.68120000000022,14.583370000000173 C 43.289700000000266,14.500770000000216 41.10270000000014,14.270530000000122 37.968700000000126,13.876700000000142 C 36.8420000000001,13.735090000000127 35.78280000000018,13.602640000000179 35.61500000000024,13.582320000000095 C 35.447200000000294,13.5619200000001 34.623400000000174,13.441120000000069 33.78440000000023,13.313640000000078 C 32.945300000000316,13.186110000000099 31.984200000000328,13.04765000000009 31.648600000000215,13.005930000000035 C 31.313000000000102,12.964230000000043 30.39110000000028,12.828129999999987 29.600000000000136,12.703590000000077 C 28.80890000000022,12.579000000000065 27.86740000000009,12.441360000000032 27.50780000000009,12.3977000000001 C 27.148200000000088,12.35410000000013 25.971300000000156,12.180460000000153 24.892500000000155,12.011920000000146 C 23.277100000000246,11.759500000000116 21.557700000000068,11.504950000000122 18.35440000000017,11.043940000000134 C 18.186600000000226,11.019640000000095 17.388600000000224,10.902520000000095 16.581100000000106,10.783300000000168 C 15.773500000000013,10.664130000000114 14.919800000000123,10.566600000000221 14.68380000000002,10.566600000000221 C 14.447900000000118,10.566600000000221 14.186699999999973,10.52860000000021 14.10349999999994,10.482100000000173 C 13.915399999999863,10.377160000000117 7.452499999999873,9.520420000000172 6.849099999999908,9.520420000000172 C 6.607099999999946,9.520420000000172 6.3409999999998945,9.482320000000186 6.257799999999861,9.435820000000149 C 6.089499999999816,9.341720000000123 3.418499999999767,8.997430000000122 2.857099999999946,8.997430000000122 C 2.5026000000000295,8.997430000000122 2.5,8.99443000000008 2.5448999999998705,8.714110000000119 C 2.5698999999999614,8.558300000000145 2.7555999999999585,7.136240000000157 2.9578999999998814,5.554030000000125 L 3.3256999999998698,2.677250000000072 L 3.887899999999945,2.6909500000000435 C 4.7228999999999814,2.7115499999999884 19.142599999999902,4.6415700000000015 22.669599999999946,5.204600000000028 C 23.57140000000004,5.34856000000002 30.242700000000013,6.33874000000003 32.95619999999985,6.73135000000002 C 37.953799999999774,7.45446000000004 42.53679999999986,7.993630000000053 44.85559999999987,8.13121000000001 C 45.59869999999978,8.175309999999968 46.590799999999945,8.250909999999976 47.06009999999992,8.299170000000004 C 48.169599999999946,8.413260000000037 54.44879999999989,8.412889999999948 55.552799999999934,8.299170000000004 C 56.022199999999884,8.250570000000039 57.0338999999999,8.174499999999966 57.80099999999993,8.130070000000046 C 60.699100000000044,7.962280000000078 66.35140000000001,7.249009999999998 74.40779999999995,6.034440000000018 C 76.48879999999986,5.720730000000003 99.08019999999988,2.5 99.1389999999999,2.5589800000000196 L 102.87819999999988,5.352270000000317" fill="none" id="path4481" inkscape:connector-curvature="0" sodipodi:nodetypes="ccccccscccsccccsccssccccsccscscscsccsscccsssc" stroke-width="1" style="color:#000000;clip-rule:nonzero;display:inline;overflow:visible;visibility:visible;opacity:1;isolation:auto;mix-blend-mode:normal;color-interpolation:sRGB;color-interpolation-filters:linearRGB;solid-color:#000000;solid-opacity:1;vector-effect:none;fill:none;fill-opacity:1;fill-rule:nonzero;stroke:#000000;stroke-width:1;stroke-linecap:round;stroke-linejoin:round;stroke-dasharray:none;stroke-dashoffset:0;stroke-opacity:1;marker:none;marker-start:none;marker-mid:none;marker-end:none;color-rendering:auto;image-rendering:auto;shape-rendering:auto;text-rendering:auto;enable-background:accumulate;"/>
</svg>
