<?xml version="1.0" ?>
<svg xmlns="http://www.w3.org/2000/svg" xmlns:cc="http://creativecommons.org/ns#" xmlns:dc="http://purl.org/dc/elements/1.1/" xmlns:ev="http://www.w3.org/2001/xml-events" xmlns:inkscape="http://www.inkscape.org/namespaces/inkscape" xmlns:rdf="http://www.w3.org/1999/02/22-rdf-syntax-ns#" xmlns:sodipodi="http://sodipodi.sourceforge.net/DTD/sodipodi-0.dtd" xmlns:svg="http://www.w3.org/2000/svg" xmlns:xlink="http://www.w3.org/1999/xlink" baseProfile="full" height="77.81596000000002" id="svg1" inkscape:version="0.92.4 (5da689c313, 2019-01-14)" sodipodi:docname="e190-e2.svg" version="1.1" viewBox="0 0 20.539150000000177 77.81596000000002" width="20.539150000000177">
	<defs/>
	<path d="M 2.504760000000033,6.944850000000088 L 2.9129800000000614,6.632100000000037 C 3.1375000000000455,6.460109999999986 4.3088200000000825,5.5249900000000025 5.515910000000076,4.554070000000024 C 6.72300000000007,3.5831600000000208 7.728570000000104,2.7888000000000375 7.750510000000077,2.7888000000000375" id="path4734" inkscape:connector-curvature="0" sodipodi:nodetypes="ccsc" style="color:#000000;clip-rule:nonzero;display:inline;overflow:visible;visibility:visible;opacity:1;isolation:auto;mix-blend-mode:normal;color-interpolation:sRGB;color-interpolation-filters:linearRGB;solid-color:#000000;solid-opacity:1;vector-effect:none;fill:black;fill-opacity:1;fill-rule:nonzero;stroke:#000000;stroke-width:5.0;stroke-linecap:round;stroke-linejoin:round;stroke-dasharray:none;stroke-dashoffset:0;stroke-opacity:1;marker:none;marker-start:none;marker-mid:none;marker-end:none;color-rendering:auto;image-rendering:auto;shape-rendering:auto;text-rendering:auto;enable-background:accumulate;"/>
	<path d="M 5.034970000000044,73.25043000000005 C 2.8004600000000437,71.44439 2.5,71.17301000000009 2.6019600000000764,71.05288000000007 C 2.665960000000041,70.97748000000013 3.3481700000000956,69.91549000000009 4.11803000000009,68.69285000000002 C 5.440100000000143,66.59328000000005 5.5813600000001315,66.32523000000003 6.663610000000062,63.86259000000007 C 7.6915100000001075,61.5236000000001 7.89465000000007,60.973850000000084 8.637350000000083,58.520880000000034 C 10.638250000000085,51.91230000000007 11.586440000000039,44.857740000000035 11.558570000000032,36.786910000000034 C 11.54857000000004,34.02515000000005 11.513270000000034,33.21945000000005 11.28735000000006,30.68468000000007 C 11.062720000000013,28.163810000000126 10.953880000000026,27.37080000000003 10.491700000000037,24.88756000000012 C 9.993640000000028,22.211530000000153 9.896169999999984,21.8196200000001 9.094900000000052,19.27112000000011 C 8.252190000000041,16.590770000000134 8.206740000000082,16.476560000000063 6.996130000000107,13.997050000000058 C 5.760860000000093,11.467030000000022 5.755910000000085,11.458740000000034 4.13174000000015,9.203750000000014 L 2.5047600000001466,6.944849999999974 L 3.0610700000002,2.5 C 3.0610700000002,2.5 7.728570000000218,2.7887600000000248 7.75051000000019,2.7887600000000248 C 7.77241000000015,2.7887600000000248 8.389860000000226,3.6223700000000463 9.12253000000021,4.641230000000064 C 9.85521000000017,5.660080000000107 10.670900000000188,6.787900000000036 10.935180000000173,7.147500000000036 C 11.250250000000165,7.57621000000006 11.902630000000158,8.79848000000004 12.830000000000155,10.697520000000054 L 14.24430000000018,13.59373000000005 L 15.212070000000153,16.668990000000008 C 16.14583000000016,19.636190000000056 16.200950000000148,19.85618999999997 16.780790000000138,22.92996000000005 C 17.3354700000001,25.870320000000106 17.405440000000112,26.377200000000016 17.689380000000142,29.51165000000003 C 17.972910000000184,32.64155000000005 17.998120000000085,33.17743000000007 18.011250000000132,36.35104000000001 C 18.039150000000177,43.087780000000066 17.506230000000187,48.79598999999996 16.29411000000016,54.744910000000004 C 15.729130000000168,57.517780000000016 15.523330000000215,58.330190000000016 14.69311000000016,61.06506999999999 C 13.786650000000122,64.05111 13.677800000000161,64.34529999999995 12.449450000000184,67.12890000000004 C 11.168630000000235,70.03141000000005 11.145440000000235,70.07512000000008 9.502150000000142,72.68581000000006 C 8.510490000000118,74.26128000000006 7.793360000000121,75.31596000000002 7.715070000000196,75.3140800000001 C 7.643170000000168,75.31108000000006 6.437110000000189,74.38370000000009 5.034970000000158,73.25043000000005 L 5.034970000000044,73.25043000000005" id="path4728" inkscape:connector-curvature="0" sodipodi:nodetypes="scsssssssssccsssscsssssssscs" style="color:#000000;clip-rule:nonzero;display:inline;overflow:visible;visibility:visible;opacity:1;isolation:auto;mix-blend-mode:normal;color-interpolation:sRGB;color-interpolation-filters:linearRGB;solid-color:#000000;solid-opacity:1;vector-effect:none;fill:black;fill-opacity:1;fill-rule:nonzero;stroke:#000000;stroke-width:5.0;stroke-linecap:round;stroke-linejoin:round;stroke-dasharray:none;stroke-dashoffset:0;stroke-opacity:1;marker:none;marker-start:none;marker-mid:none;marker-end:none;color-rendering:auto;image-rendering:auto;shape-rendering:auto;text-rendering:auto;enable-background:accumulate;"/>
</svg>
