<?xml version="1.0" ?>
<svg xmlns="http://www.w3.org/2000/svg" xmlns:cc="http://creativecommons.org/ns#" xmlns:dc="http://purl.org/dc/elements/1.1/" xmlns:ev="http://www.w3.org/2001/xml-events" xmlns:inkscape="http://www.inkscape.org/namespaces/inkscape" xmlns:rdf="http://www.w3.org/1999/02/22-rdf-syntax-ns#" xmlns:sodipodi="http://sodipodi.sourceforge.net/DTD/sodipodi-0.dtd" xmlns:svg="http://www.w3.org/2000/svg" xmlns:xlink="http://www.w3.org/1999/xlink" baseProfile="full" height="76.01655000000005" id="svg1" inkscape:version="0.92.4 (5da689c313, 2019-01-14)" sodipodi:docname="e190-e2.svg" version="1.1" viewBox="0 0 25.751449999999863 76.01655000000005" width="25.751449999999863">
	<defs/>
	<path d="M 15.268239999999992,2.8440599999997858 C 15.321040000000039,2.831659999999829 16.894180000000006,4.142169999999737 18.764080000000035,5.756419999999821 C 20.633980000000065,7.370699999999829 22.382910000000038,8.874269999999797 22.650600000000054,9.097679999999855 L 23.13731000000007,9.50384999999983" id="path4736" inkscape:connector-curvature="0" sodipodi:nodetypes="cssc" style="color:#000000;clip-rule:nonzero;display:inline;overflow:visible;visibility:visible;opacity:1;isolation:auto;mix-blend-mode:normal;color-interpolation:sRGB;color-interpolation-filters:linearRGB;solid-color:#000000;solid-opacity:1;vector-effect:none;fill:black;fill-opacity:1;fill-rule:nonzero;stroke:#000000;stroke-width:5.0;stroke-linecap:round;stroke-linejoin:round;stroke-dasharray:none;stroke-dashoffset:0;stroke-opacity:1;marker:none;marker-start:none;marker-mid:none;marker-end:none;color-rendering:auto;image-rendering:auto;shape-rendering:auto;text-rendering:auto;enable-background:accumulate;"/>
	<path d="M 13.296100000000024,71.03793999999982 C 11.587300000000027,68.79255999999987 11.243420000000015,68.27962999999977 9.773059999999987,65.78347999999983 C 8.195929999999976,63.10599999999988 8.10236999999995,62.91988999999978 6.856679999999983,59.98139999999978 C 5.582930000000033,56.976739999999836 5.56074000000001,56.913129999999796 4.697929999999928,53.79198999999983 C 3.863279999999918,50.77276999999981 3.805599999999913,50.50664999999981 3.3433599999999615,47.54374999999982 C 2.9032199999999193,44.722379999999816 2.8444599999999127,44.171869999999785 2.678199999999947,41.310759999999846 C 2.5012799999999515,38.26614999999981 2.5,38.076539999999795 2.6351999999999407,34.95873999999981 C 2.773649999999975,31.765309999999772 2.7777999999999565,31.724599999999782 3.293389999999931,28.507809999999836 L 3.812249999999949,25.270609999999806 L 4.716949999999997,22.219489999999837 C 5.59235000000001,19.26719999999989 5.66348000000005,19.07377999999983 6.9129500000000235,16.248019999999883 C 8.106999999999971,13.547619999999938 8.328590000000077,13.118189999999913 9.855009999999993,10.54636999999991 C 11.264130000000023,8.172199999999862 11.774099999999976,7.406589999999937 13.338999999999942,5.315889999999968 C 14.347279999999955,3.96884 15.215449999999919,2.8564999999999827 15.268269999999916,2.8440200000000004 C 15.321069999999963,2.831519999999955 19.615789999999947,2.5 19.615789999999947,2.5 L 22.65062999999998,5.139850000000024 L 23.137339999999995,9.503820000000019 L 21.64811999999995,11.504109999999969 C 20.741059999999948,12.72246999999993 19.854119999999966,14.032129999999938 19.37923999999998,14.854420000000005 C 18.95042000000001,15.596930000000043 18.403249999999957,16.537879999999973 18.163299999999936,16.945420000000013 C 17.923349999999914,17.352960000000053 17.244449999999915,18.80442000000005 16.654629999999884,20.170889999999986 C 15.70171999999991,22.378510000000006 15.495329999999853,22.951639999999998 14.802469999999857,25.31418999999994 C 14.104549999999904,27.694009999999935 13.976249999999823,28.247389999999996 13.579929999999877,30.58755999999994 C 13.181129999999825,32.94230999999991 13.123789999999872,33.45333999999991 13.002739999999903,35.73086999999998 C 12.88031999999987,38.034580000000005 12.880909999999858,38.47687999999994 13.009739999999852,40.70053999999993 C 13.130399999999895,42.78824999999995 13.211819999999875,43.507209999999986 13.57244999999989,45.66949999999997 C 13.931069999999863,47.819729999999936 14.093849999999861,48.54282999999998 14.661609999999882,50.507690000000025 C 15.491069999999922,53.37824999999998 15.459019999999896,53.288459999999986 16.657949999999914,56.100790000000075 C 18.06501999999989,59.40133000000003 19.63438999999994,62.13540000000012 21.740899999999897,64.95602000000008 C 22.57305999999994,66.07028000000003 23.251449999999863,67.01175000000012 23.248439999999846,67.04821000000004 C 23.240439999999808,67.14511000000005 15.459639999999808,73.47388000000001 15.31363999999985,73.50225 C 15.240039999999794,73.51655000000005 14.423859999999877,72.51941999999997 13.296439999999848,71.03794000000005 L 13.296100000000024,71.03793999999982" id="path4726" inkscape:connector-curvature="0" sodipodi:nodetypes="cssssssscssssccccssssssscsssscccc" style="color:#000000;clip-rule:nonzero;display:inline;overflow:visible;visibility:visible;opacity:1;isolation:auto;mix-blend-mode:normal;color-interpolation:sRGB;color-interpolation-filters:linearRGB;solid-color:#000000;solid-opacity:1;vector-effect:none;fill:black;fill-opacity:1;fill-rule:nonzero;stroke:#000000;stroke-width:5.0;stroke-linecap:round;stroke-linejoin:round;stroke-dasharray:none;stroke-dashoffset:0;stroke-opacity:1;marker:none;marker-start:none;marker-mid:none;marker-end:none;color-rendering:auto;image-rendering:auto;shape-rendering:auto;text-rendering:auto;enable-background:accumulate;"/>
</svg>
