<?xml version="1.0" ?>
<svg xmlns="http://www.w3.org/2000/svg" xmlns:cc="http://creativecommons.org/ns#" xmlns:dc="http://purl.org/dc/elements/1.1/" xmlns:ev="http://www.w3.org/2001/xml-events" xmlns:inkscape="http://www.inkscape.org/namespaces/inkscape" xmlns:rdf="http://www.w3.org/1999/02/22-rdf-syntax-ns#" xmlns:sodipodi="http://sodipodi.sourceforge.net/DTD/sodipodi-0.dtd" xmlns:svg="http://www.w3.org/2000/svg" xmlns:xlink="http://www.w3.org/1999/xlink" baseProfile="full" height="76.25384999999994" id="svg1" inkscape:version="0.92.4 (5da689c313, 2019-01-14)" sodipodi:docname="e190-e2.svg" version="1.1" viewBox="0 0 14.002070000000003 76.25384999999994" width="14.002070000000003">
	<defs/>
	<path d="M 8.079179999999951,2.517310000000066 L 8.079179999999951,36.559040000000095 L 8.079179999999951,70.6007800000001 L 5.289589999999976,70.6007800000001 L 2.5,70.6007800000001" id="path4738" inkscape:connector-curvature="0" sodipodi:nodetypes="ccccc" style="color:#000000;clip-rule:nonzero;display:inline;overflow:visible;visibility:visible;opacity:1;isolation:auto;mix-blend-mode:normal;color-interpolation:sRGB;color-interpolation-filters:linearRGB;solid-color:#000000;solid-opacity:1;vector-effect:none;fill:black;fill-opacity:1;fill-rule:nonzero;stroke:#000000;stroke-width:5.0;stroke-linecap:round;stroke-linejoin:round;stroke-dasharray:none;stroke-dashoffset:0;stroke-opacity:1;marker:none;marker-start:none;marker-mid:none;marker-end:none;color-rendering:auto;image-rendering:auto;shape-rendering:auto;text-rendering:auto;enable-background:accumulate;"/>
	<path d="M 8.101019999999949,2.5 L 8.0790199999999,2.556799999999953 L 8.0790199999999,2.517099999999914 L 5.289869999999951,2.517099999999914 L 2.500169999999912,2.517099999999914 L 2.500169999999912,36.55904999999996 L 2.500169999999912,70.60102999999992 L 5.289869999999951,73.75384999999994 L 8.06120999999996,70.56588999999997 L 11.502070000000003,67.84658000000002 L 8.10107000000005,65.00562000000002 L 11.502070000000003,62.16465000000005 L 8.10107000000005,59.323130000000106 L 11.502070000000003,56.482180000000085 L 8.10107000000005,53.64122000000009 L 11.502070000000003,50.79970000000014 L 8.10107000000005,47.95874000000015 L 11.502070000000003,45.11778000000015 L 8.10107000000005,42.27626000000021 L 11.502070000000003,39.43530000000021 L 8.10107000000005,36.59433000000024 L 11.502070000000003,33.75282000000027 L 8.10107000000005,30.9118500000003 L 11.502070000000003,28.070890000000304 L 8.10107000000005,25.229380000000333 L 11.502070000000003,22.388410000000363 L 8.10107000000005,19.54690000000039 L 11.502070000000003,16.70593000000042 L 8.10107000000005,13.864970000000426 L 11.502070000000003,11.02345000000048 L 8.10107000000005,8.182490000000485 L 11.502070000000003,5.341530000000489 L 8.101019999999949,2.5" id="path4724" inkscape:connector-curvature="0" sodipodi:nodetypes="ccccccccccccccccccccccccccccccccc" style="color:#000000;clip-rule:nonzero;display:inline;overflow:visible;visibility:visible;opacity:1;isolation:auto;mix-blend-mode:normal;color-interpolation:sRGB;color-interpolation-filters:linearRGB;solid-color:#000000;solid-opacity:1;vector-effect:none;fill:black;fill-opacity:1;fill-rule:nonzero;stroke:#000000;stroke-width:5.0;stroke-linecap:round;stroke-linejoin:round;stroke-dasharray:none;stroke-dashoffset:0;stroke-opacity:1;marker:none;marker-start:none;marker-mid:none;marker-end:none;color-rendering:auto;image-rendering:auto;shape-rendering:auto;text-rendering:auto;enable-background:accumulate;"/>
</svg>
