<?xml version="1.0" ?>
<svg xmlns="http://www.w3.org/2000/svg" xmlns:cc="http://creativecommons.org/ns#" xmlns:dc="http://purl.org/dc/elements/1.1/" xmlns:ev="http://www.w3.org/2001/xml-events" xmlns:inkscape="http://www.inkscape.org/namespaces/inkscape" xmlns:rdf="http://www.w3.org/1999/02/22-rdf-syntax-ns#" xmlns:sodipodi="http://sodipodi.sourceforge.net/DTD/sodipodi-0.dtd" xmlns:svg="http://www.w3.org/2000/svg" xmlns:xlink="http://www.w3.org/1999/xlink" baseProfile="full" height="49.359909999999786" id="svg1" inkscape:version="0.92.4 (5da689c313, 2019-01-14)" sodipodi:docname="e190-e2.svg" version="1.1" viewBox="0 0 30.745069999999828 49.359909999999786" width="30.745069999999828">
	<defs/>
	<path d="M 19.552120000000173,11.92109999999991 L 21.1011900000002,14.06953999999996 L 22.650270000000205,16.217989999999986 M 25.45449000000019,26.06872999999996 C 25.450490000000173,26.26049999999998 25.33110000000022,27.403069999999957 25.18911000000014,28.60776999999996 L 24.93094000000019,30.798099999999977 M 19.967420000000175,39.58409999999992 L 17.932030000000168,41.349059999999895 L 15.896630000000187,43.11404999999991 M 5.077350000000138,16.274149999999963 C 5.099250000000097,16.195349999999962 5.422040000000152,13.620159999999942 5.79458000000011,10.551609999999982 C 6.1671300000001565,7.483069999999998 6.48264000000006,4.957429999999931 6.495700000000056,4.939059999999927 C 6.508800000000065,4.920759999999973 7.481340000000046,5.146269999999959 8.656940000000077,5.440309999999954 C 9.832540000000108,5.734359999999924 10.90939000000003,5.97496000000001 11.049910000000068,5.97496000000001 C 11.190450000000055,5.97496000000001 11.318500000000085,6.009059999999977 11.334480000000099,6.050759999999968" fill="none" id="path4742" inkscape:connector-curvature="0" sodipodi:nodetypes="ccccscccccscssc" stroke-width="1" style="color:#000000;clip-rule:nonzero;display:inline;overflow:visible;visibility:visible;opacity:1;isolation:auto;mix-blend-mode:normal;color-interpolation:sRGB;color-interpolation-filters:linearRGB;solid-color:#000000;solid-opacity:1;vector-effect:none;fill:none;fill-opacity:1;fill-rule:nonzero;stroke:#000000;stroke-width:1;stroke-linecap:round;stroke-linejoin:round;stroke-dasharray:none;stroke-dashoffset:0;stroke-opacity:1;marker:none;marker-start:none;marker-mid:none;marker-end:none;color-rendering:auto;image-rendering:auto;shape-rendering:auto;text-rendering:auto;enable-background:accumulate;"/>
	<path d="M 5.749820000000113,41.14814999999987 C 5.347250000000145,38.00669999999991 5.033420000000092,35.421769999999924 5.052420000000097,35.403859999999895 C 5.071420000000103,35.38595999999984 5.538090000000125,35.24730999999986 6.089470000000119,35.09579999999994 C 6.841850000000136,34.88905999999997 7.3523000000001275,34.676919999999996 8.13535000000013,34.24556999999993 C 8.709210000000098,33.929449999999974 9.22558000000015,33.62754999999993 9.282840000000078,33.574679999999944 C 9.340140000000133,33.52177999999992 9.758600000000115,33.16472999999996 10.212820000000079,32.78116 C 11.38824000000011,31.788549999999987 12.347120000000132,30.487570000000005 12.942350000000033,29.07781 C 13.346570000000042,28.12045999999998 13.399510000000078,27.917490000000043 13.495690000000081,26.956750000000056 C 13.593390000000113,25.98052000000007 13.587090000000103,25.807500000000005 13.417290000000094,24.82341000000008 C 12.90660000000014,21.862530000000106 10.800040000000081,18.943560000000048 8.094440000000077,17.447720000000118 C 7.254840000000058,16.983540000000062 6.925000000000068,16.85480000000007 6.064670000000092,16.65547000000015 C 5.216310000000135,16.458930000000123 5.044360000000097,16.392520000000104 5.077300000000037,16.274140000000102 C 5.099199999999996,16.1953400000001 2.5,12.889660000000049 2.5,12.889660000000049 L 3.099529999999959,7.530390000000011 C 3.099529999999959,7.530390000000011 6.4897099999999455,4.947369999999978 6.495649999999955,4.9390300000000025 C 6.508749999999964,4.920730000000049 9.648789999999963,2.5 9.648789999999963,2.5 C 9.648789999999963,2.5 10.90933999999993,5.974929999999972 11.049859999999967,5.974929999999972 C 11.190399999999954,5.974929999999972 11.318449999999984,6.009029999999939 11.334429999999998,6.05072999999993 C 11.367730000000051,6.13752999999997 15.390729999999962,8.3286599999999 15.516859999999951,8.3286599999999 C 15.562459999999987,8.3286599999999 15.68620999999996,8.423659999999927 15.791789999999992,8.53977999999995 C 15.897370000000024,8.655899999999974 16.78661999999997,9.464189999999917 17.76789999999994,10.335989999999924 L 19.552069999999958,11.921089999999936 L 23.616319999999973,12.262859999999932 L 22.65021999999999,16.217979999999898 L 23.691349999999943,18.658869999999865 L 24.732479999999896,21.099759999999833 L 25.09707999999989,23.40988999999979 C 25.297599999999875,24.680469999999787 25.458419999999933,25.876939999999763 25.454439999999863,26.068719999999757 C 25.450439999999844,26.260509999999726 28.245069999999828,28.707949999999755 28.245069999999828,28.707949999999755 L 24.930889999999863,30.79809999999975 L 23.98433999999986,33.102709999999774 L 23.03778999999986,35.407329999999774 L 21.502579999999853,37.49571999999978 L 19.967369999999846,39.58409999999981 L 19.98596999999984,43.6035099999998 L 15.89652999999987,43.11403999999982 L 13.629979999999819,44.345379999999864 L 11.363439999999855,45.576729999999884 L 8.993679999999813,46.218319999999835 C 7.690319999999815,46.57119999999986 6.591909999999757,46.859909999999786 6.552789999999845,46.859909999999786 C 6.513689999999883,46.85987999999975 6.1522799999997915,44.28960999999981 5.749719999999797,41.14816999999982 L 5.749820000000113,41.14814999999987" fill="none" id="path4720" inkscape:connector-curvature="0" sodipodi:nodetypes="sccscsssssccccccscscscccccscccccccccccscs" stroke-width="1" style="color:#000000;clip-rule:nonzero;display:inline;overflow:visible;visibility:visible;opacity:1;isolation:auto;mix-blend-mode:normal;color-interpolation:sRGB;color-interpolation-filters:linearRGB;solid-color:#000000;solid-opacity:1;vector-effect:none;fill:none;fill-opacity:1;fill-rule:nonzero;stroke:#000000;stroke-width:1;stroke-linecap:round;stroke-linejoin:round;stroke-dasharray:none;stroke-dashoffset:0;stroke-opacity:1;marker:none;marker-start:none;marker-mid:none;marker-end:none;color-rendering:auto;image-rendering:auto;shape-rendering:auto;text-rendering:auto;enable-background:accumulate;"/>
</svg>
