<?xml version="1.0" ?>
<svg xmlns="http://www.w3.org/2000/svg" xmlns:cc="http://creativecommons.org/ns#" xmlns:dc="http://purl.org/dc/elements/1.1/" xmlns:ev="http://www.w3.org/2001/xml-events" xmlns:inkscape="http://www.inkscape.org/namespaces/inkscape" xmlns:rdf="http://www.w3.org/1999/02/22-rdf-syntax-ns#" xmlns:sodipodi="http://sodipodi.sourceforge.net/DTD/sodipodi-0.dtd" xmlns:svg="http://www.w3.org/2000/svg" xmlns:xlink="http://www.w3.org/1999/xlink" baseProfile="full" height="25.56420999999989" id="svg1" inkscape:version="0.92.4 (5da689c313, 2019-01-14)" sodipodi:docname="e190-e2.svg" version="1.1" viewBox="0 0 17.216620000000148 25.56420999999989" width="17.216620000000148">
	<defs/>
	<path d="M 9.767850000000067,5.454759999999965 C 9.809350000000109,5.454759999999965 9.843250000000012,5.497859999999946 9.843250000000012,5.550560000000019 C 9.843250000000012,5.6032599999999775 10.067999999999984,6.024980000000028 10.342679999999973,6.4876800000000685 C 10.48793999999998,6.732400000000098 10.661969999999997,7.07425000000012 10.821339999999964,7.420060000000035 M 11.728610000000003,11.23616000000004 C 11.727819999999952,11.854760000000056 11.64781000000005,12.459670000000074 11.487510000000043,13.057369999999992 M 9.557099999999991,16.59019999999998 C 9.097200000000043,17.130030000000033 8.577969999999937,17.63054999999997 8.026079999999979,18.073639999999955 M 4.673569999999927,19.862699999999904 C 4.436809999999923,19.926299999999856 4.203159999999912,19.97451999999987 3.9744399999999587,20.00606999999991 C 3.2178900000000112,20.110409999999888 2.949709999999982,20.15485999999987 2.841319999999996,20.018769999999904 M 2.5000400000000127,10.959159999999883 L 4.6150800000000345,7.008359999999925 C 5.778350000000046,4.835439999999949 6.776479999999992,3.0069499999999607 6.833129999999983,2.9450899999999365" fill="none" id="path4748" inkscape:connector-curvature="0" sodipodi:nodetypes="cscccccccsccsc" stroke-width="1" style="color:#000000;clip-rule:nonzero;display:inline;overflow:visible;visibility:visible;opacity:1;isolation:auto;mix-blend-mode:normal;color-interpolation:sRGB;color-interpolation-filters:linearRGB;solid-color:#000000;solid-opacity:1;vector-effect:none;fill:none;fill-opacity:1;fill-rule:nonzero;stroke:#000000;stroke-width:1;stroke-linecap:round;stroke-linejoin:round;stroke-dasharray:none;stroke-dashoffset:0;stroke-opacity:1;marker:none;marker-start:none;marker-mid:none;marker-end:none;color-rendering:auto;image-rendering:auto;shape-rendering:auto;text-rendering:auto;enable-background:accumulate;"/>
	<path d="M 2.6008000000000493,2.5 L 2.547900000000027,10.824449999999956 L 2.566100000000006,10.834949999999935 L 2.5,10.958969999999908 L 2.6003200000000106,14.984499999999912 C 2.6553199999999606,17.198629999999866 2.721679999999992,19.25550999999996 2.74804000000006,19.55517999999995 C 2.7657400000000507,19.755859999999984 2.777840000000083,19.885779999999954 2.8197400000000243,19.971889999999917 L 2.796040000000062,20.088199999999915 L 4.035720000000083,23.06420999999989 L 4.687810000000127,19.85613999999987 C 5.814340000000129,19.550729999999817 7.00961000000018,18.899369999999863 8.07888000000014,18.030509999999822 L 11.032300000000191,19.556829999999877 L 9.562750000000165,16.58301999999992 C 9.77787000000012,16.330069999999864 9.980580000000145,16.068589999999972 10.166890000000194,15.80029999999988 C 10.796720000000164,14.893239999999878 11.2335300000002,13.992979999999875 11.482090000000198,13.075639999999908 L 14.716620000000148,12.596079999999915 L 11.728480000000104,11.26048999999989 C 11.732480000000123,10.309669999999869 11.549520000000143,9.326489999999922 11.181680000000142,8.287779999999884 C 11.089780000000133,8.028249999999844 10.951200000000199,7.700189999999907 10.801890000000185,7.37882999999988 L 12.945010000000138,4.926469999999881 L 9.79151000000013,5.460599999999886 C 9.783510000000092,5.457599999999843 9.776210000000106,5.454599999999914 9.767810000000168,5.454599999999914 C 9.726310000000126,5.454599999999914 9.45601000000022,5.170519999999897 9.166980000000194,4.822909999999865 C 8.50460000000021,4.026249999999891 8.461900000000242,3.9854899999999134 7.62689000000023,3.3544699999998784 C 7.220530000000281,3.047379999999862 7.028460000000223,2.9234299999998257 6.9218900000001895,2.914049999999861 L 6.905390000000239,2.8898499999999103 L 2.600950000000239,2.500139999999874 L 2.6008000000000493,2.5" fill="none" id="path4714" inkscape:connector-curvature="0" stroke-width="1" style="color:#000000;clip-rule:nonzero;display:inline;overflow:visible;visibility:visible;opacity:1;isolation:auto;mix-blend-mode:normal;color-interpolation:sRGB;color-interpolation-filters:linearRGB;solid-color:#000000;solid-opacity:1;vector-effect:none;fill:none;fill-opacity:1;fill-rule:nonzero;stroke:#000000;stroke-width:1;stroke-linecap:round;stroke-linejoin:round;stroke-dasharray:none;stroke-dashoffset:0;stroke-opacity:1;marker:none;marker-start:none;marker-mid:none;marker-end:none;color-rendering:auto;image-rendering:auto;shape-rendering:auto;text-rendering:auto;enable-background:accumulate;"/>
</svg>
