<?xml version="1.0" ?>
<svg xmlns="http://www.w3.org/2000/svg" xmlns:cc="http://creativecommons.org/ns#" xmlns:dc="http://purl.org/dc/elements/1.1/" xmlns:ev="http://www.w3.org/2001/xml-events" xmlns:inkscape="http://www.inkscape.org/namespaces/inkscape" xmlns:rdf="http://www.w3.org/1999/02/22-rdf-syntax-ns#" xmlns:sodipodi="http://sodipodi.sourceforge.net/DTD/sodipodi-0.dtd" xmlns:svg="http://www.w3.org/2000/svg" xmlns:xlink="http://www.w3.org/1999/xlink" baseProfile="full" height="28.42114000000015" id="svg1" inkscape:version="0.92.4 (5da689c313, 2019-01-14)" sodipodi:docname="e190-e2.svg" version="1.1" viewBox="0 0 33.380949999999984 28.42114000000015" width="33.380949999999984">
	<defs/>
	<path d="M 19.46246000000008,4.301140000000032 L 21.894430000000057,5.597930000000019 C 23.23201000000006,6.311159999999973 24.35961000000009,6.894710000000032 24.400190000000066,6.894710000000032 M 27.37006000000008,11.460890000000063 C 27.410260000000108,11.48569000000009 27.44306000000006,12.70067000000006 27.44306000000006,14.16077000000007 L 27.44306000000006,16.815520000000106 M 24.538880000000063,21.46528000000012 L 22.121430000000032,22.753680000000145 L 19.703970000000027,24.04208000000017 M 13.680040000000076,24.045080000000212 L 11.259320000000116,22.756140000000187 L 11.259320000000116,22.756400000000212 L 8.838590000000067,21.467490000000225 M 5.9409500000000435,16.839100000000258 L 5.9409500000000435,14.206760000000259 C 5.9409500000000435,11.731360000000222 5.950950000000034,11.560920000000237 6.103910000000042,11.347730000000297 M 9.09874000000002,6.849960000000351 C 9.225610000000074,6.795860000000403 10.359100000000012,6.2004800000003115 11.617610000000013,5.5270100000003595 L 13.9058,4.30250000000035" id="path4746" inkscape:connector-curvature="0" sodipodi:nodetypes="csccscccccccccsccsc" style="color:#000000;clip-rule:nonzero;display:inline;overflow:visible;visibility:visible;opacity:1;isolation:auto;mix-blend-mode:normal;color-interpolation:sRGB;color-interpolation-filters:linearRGB;solid-color:#000000;solid-opacity:1;vector-effect:none;fill:black;fill-opacity:1;fill-rule:nonzero;stroke:#000000;stroke-width:5.0;stroke-linecap:round;stroke-linejoin:round;stroke-dasharray:none;stroke-dashoffset:0;stroke-opacity:1;marker:none;marker-start:none;marker-mid:none;marker-end:none;color-rendering:auto;image-rendering:auto;shape-rendering:auto;text-rendering:auto;enable-background:accumulate;"/>
	<path d="M 883.6759,543.12069 L 882.41748,547.76634 A 11.265183,10.379556 0.0 0,0 879.85543,551.82218 L 876.4616,554.96906 L 879.79755,557.70254 A 11.265183,10.379556 0.0 0,0 882.49961,562.0384 L 883.60039,566.44151 L 887.99523,564.93559 A 11.265183,10.379556 0.0 0,0 890.62728,565.2349 A 11.265183,10.379556 0.0 0,0 893.21799,564.9438600000001 L 897.6784299999999,566.5418300000001 L 898.7555,562.2329800000001 L 898.7665,562.0136000000001 A 11.265183,10.379556 0.0 0,0 901.3258,558.0834300000001 L 904.84255,554.8687400000001 L 901.511,551.9627400000002 L 901.4205999999999,551.9087400000002 A 11.265183,10.379556 0.0 0,0 898.9665899999999,547.8953400000001 L 897.6530399999999,543.2458400000002 L 893.5453799999999,544.7236500000001 L 893.3006499999999,544.7853500000001 A 11.265183,10.379556 0.0 0,0 890.6272499999999,544.4761200000002 A 11.265183,10.379556 0.0 0,0 888.1026799999999,544.7533800000001 L 883.6759,543.12069" id="path4900" inkscape:connector-curvature="0" style="color:#000000;clip-rule:nonzero;display:inline;overflow:visible;visibility:visible;opacity:1;isolation:auto;mix-blend-mode:normal;color-interpolation:sRGB;color-interpolation-filters:linearRGB;solid-color:#000000;solid-opacity:1;vector-effect:none;fill:black;fill-opacity:1;fill-rule:nonzero;stroke:#000000;stroke-width:5.0;stroke-linecap:round;stroke-linejoin:round;stroke-dasharray:none;stroke-dashoffset:0;stroke-opacity:1;marker:none;marker-start:none;marker-mid:none;marker-end:none;color-rendering:auto;image-rendering:auto;shape-rendering:auto;text-rendering:auto;enable-background:accumulate;"/>
</svg>
