<?xml version="1.0" ?>
<svg xmlns="http://www.w3.org/2000/svg" xmlns:cc="http://creativecommons.org/ns#" xmlns:dc="http://purl.org/dc/elements/1.1/" xmlns:ev="http://www.w3.org/2001/xml-events" xmlns:inkscape="http://www.inkscape.org/namespaces/inkscape" xmlns:rdf="http://www.w3.org/1999/02/22-rdf-syntax-ns#" xmlns:sodipodi="http://sodipodi.sourceforge.net/DTD/sodipodi-0.dtd" xmlns:svg="http://www.w3.org/2000/svg" xmlns:xlink="http://www.w3.org/1999/xlink" baseProfile="full" height="77.81595000000004" id="svg1" inkscape:version="0.92.4 (5da689c313, 2019-01-14)" sodipodi:docname="e190-e2.svg" version="1.1" viewBox="0 0 20.539150000000063 77.81595000000004" width="20.539150000000063">
	<defs/>
	<path d="M 18.03439000000003,6.944860000000062 L 17.626170000000002,6.632110000000068 C 17.401650000000018,6.460090000000093 16.230339999999956,5.524980000000085 15.023249999999962,4.554050000000075 C 13.816149999999993,3.583150000000103 12.810579999999959,2.788780000000088 12.788649999999961,2.788780000000088" fill="none" id="path5603" inkscape:connector-curvature="0" sodipodi:nodetypes="ccsc" stroke-width="1" style="color:#000000;clip-rule:nonzero;display:inline;overflow:visible;visibility:visible;opacity:1;isolation:auto;mix-blend-mode:normal;color-interpolation:sRGB;color-interpolation-filters:linearRGB;solid-color:#000000;solid-opacity:1;vector-effect:none;fill:none;fill-opacity:1;fill-rule:nonzero;stroke:#000000;stroke-width:1;stroke-linecap:round;stroke-linejoin:round;stroke-dasharray:none;stroke-dashoffset:0;stroke-opacity:1;marker:none;marker-start:none;marker-mid:none;marker-end:none;color-rendering:auto;image-rendering:auto;shape-rendering:auto;text-rendering:auto;enable-background:accumulate;"/>
	<path d="M 15.50418000000002,73.25042000000008 C 17.73869000000002,71.44439000000011 18.039150000000063,71.17300000000012 17.937189999999987,71.0528700000001 C 17.873190000000022,70.97747000000015 17.190979999999968,69.91549000000009 16.421119999999974,68.69287000000008 C 15.09904999999992,66.59327000000008 14.957789999999932,66.32523000000009 13.87554,63.86259000000007 C 12.847629999999981,61.523600000000044 12.644499999999994,60.97384000000005 11.90179999999998,58.52087000000006 C 9.900899999999979,51.91229000000004 8.952710000000025,44.857740000000035 8.980580000000032,36.786910000000034 C 8.990580000000023,34.02515000000005 9.02588000000003,33.21945000000005 9.251800000000003,30.684680000000014 C 9.476440000000025,28.163810000000012 9.585270000000037,27.37080000000003 10.047450000000026,24.887560000000008 C 10.545510000000036,22.211529999999982 10.64298000000008,21.819619999999986 11.444240000000036,19.27111000000002 C 12.286960000000022,16.59077000000002 12.33242000000007,16.476560000000006 13.543030000000044,13.997050000000002 C 14.778300000000058,11.467030000000022 14.783240000000092,11.458739999999977 16.407420000000002,9.203739999999982 L 18.03439000000003,6.944849999999974 L 17.478079999999977,2.5 C 17.478079999999977,2.5 12.810579999999959,2.7887600000000248 12.788649999999961,2.7887600000000248 C 12.766750000000002,2.7887600000000248 12.14928999999995,3.6223700000000463 11.416619999999966,4.6412200000000325 C 10.683940000000007,5.66008000000005 9.868249999999989,6.787900000000036 9.603970000000004,7.147500000000036 C 9.288900000000012,7.57621000000006 8.636520000000019,8.798470000000009 7.709159999999997,10.697520000000054 L 6.294849999999997,13.59373000000005 L 5.327089999999998,16.668990000000065 C 4.393320000000017,19.636190000000056 4.338200000000029,19.856190000000083 3.758360000000039,22.92996000000005 C 3.2036800000000767,25.87032000000005 3.1337100000000646,26.377200000000073 2.849770000000035,29.51165000000003 C 2.5662399999999934,32.64155000000005 2.5410300000000916,33.177430000000015 2.527900000000045,36.35104000000001 C 2.5,43.08778000000001 3.0329300000000785,48.79599000000002 4.245040000000017,54.744910000000004 C 4.810020000000009,57.517780000000016 5.015819999999962,58.330190000000016 5.846040000000016,61.06508000000002 C 6.752500000000055,64.05111000000005 6.861350000000016,64.34530000000001 8.089699999999993,67.12889000000001 C 9.370519999999942,70.03139999999996 9.393709999999942,70.07511999999997 11.037000000000035,72.68581000000006 C 12.028660000000059,74.26127000000008 12.745790000000056,75.31595000000004 12.82407999999998,75.31407000000002 C 12.895980000000009,75.31207000000006 14.102039999999988,74.38369 15.50418000000002,73.25041999999996 L 15.50418000000002,73.25042000000008" fill="none" id="path5619" inkscape:connector-curvature="0" sodipodi:nodetypes="scsssssssssccsssscsssssssscs" stroke-width="1" style="color:#000000;clip-rule:nonzero;display:inline;overflow:visible;visibility:visible;opacity:1;isolation:auto;mix-blend-mode:normal;color-interpolation:sRGB;color-interpolation-filters:linearRGB;solid-color:#000000;solid-opacity:1;vector-effect:none;fill:none;fill-opacity:1;fill-rule:nonzero;stroke:#000000;stroke-width:1;stroke-linecap:round;stroke-linejoin:round;stroke-dasharray:none;stroke-dashoffset:0;stroke-opacity:1;marker:none;marker-start:none;marker-mid:none;marker-end:none;color-rendering:auto;image-rendering:auto;shape-rendering:auto;text-rendering:auto;enable-background:accumulate;"/>
</svg>
