<?xml version="1.0" ?>
<svg xmlns="http://www.w3.org/2000/svg" xmlns:cc="http://creativecommons.org/ns#" xmlns:dc="http://purl.org/dc/elements/1.1/" xmlns:ev="http://www.w3.org/2001/xml-events" xmlns:inkscape="http://www.inkscape.org/namespaces/inkscape" xmlns:rdf="http://www.w3.org/1999/02/22-rdf-syntax-ns#" xmlns:sodipodi="http://sodipodi.sourceforge.net/DTD/sodipodi-0.dtd" xmlns:svg="http://www.w3.org/2000/svg" xmlns:xlink="http://www.w3.org/1999/xlink" baseProfile="full" height="76.01654000000008" id="svg1" inkscape:version="0.92.4 (5da689c313, 2019-01-14)" sodipodi:docname="e190-e2.svg" version="1.1" viewBox="0 0 25.75147000000004 76.01654000000008" width="25.75147000000004">
	<defs/>
	<path d="M 10.483229999999935,2.844060000000013 C 10.430429999999888,2.8316599999999994 8.857279999999946,4.1421700000000214 6.987379999999916,5.756419999999991 C 5.117479999999887,7.370709999999974 3.368549999999914,8.874269999999967 3.100859999999898,9.097679999999968 L 2.6141499999998814,9.503849999999943" id="path5605" inkscape:connector-curvature="0" sodipodi:nodetypes="cssc" style="color:#000000;clip-rule:nonzero;display:inline;overflow:visible;visibility:visible;opacity:1;isolation:auto;mix-blend-mode:normal;color-interpolation:sRGB;color-interpolation-filters:linearRGB;solid-color:#000000;solid-opacity:1;vector-effect:none;fill:black;fill-opacity:1;fill-rule:nonzero;stroke:#000000;stroke-width:5.0;stroke-linecap:round;stroke-linejoin:round;stroke-dasharray:none;stroke-dashoffset:0;stroke-opacity:1;marker:none;marker-start:none;marker-mid:none;marker-end:none;color-rendering:auto;image-rendering:auto;shape-rendering:auto;text-rendering:auto;enable-background:accumulate;"/>
	<path d="M 12.455359999999928,71.03796 C 14.164159999999924,68.79253999999997 14.508049999999912,68.27963999999997 15.97840999999994,65.78345999999999 C 17.55553999999995,63.10600999999997 17.649099999999976,62.91987999999998 18.894789999999944,59.98140000000001 C 20.168539999999894,56.97674000000001 20.190729999999917,56.913130000000024 21.053539999999998,53.79199 C 21.88819000000001,50.772760000000005 21.945870000000014,50.50664999999998 22.40809999999999,47.54374999999999 C 22.848250000000007,44.72237999999999 22.90700000000004,44.17187000000001 23.073260000000005,41.310760000000016 C 23.250189999999975,38.26615000000004 23.25147000000004,38.07654000000002 23.11626000000001,34.95875000000001 C 22.977809999999977,31.76531 22.973659999999995,31.72460000000001 22.458079999999995,28.507810000000006 L 21.939210000000003,25.270610000000033 L 21.034509999999955,22.219490000000008 C 20.15910999999994,19.267200000000003 20.08798999999999,19.07378 18.83850999999993,16.248019999999997 C 17.64445999999998,13.547619999999995 17.422869999999875,13.11818999999997 15.896449999999959,10.546370000000024 C 14.487329999999929,8.17219 13.97736999999995,7.406590000000051 12.412469999999985,5.315890000000024 C 11.404189999999971,3.96884 10.536020000000008,2.8565000000000396 10.48320000000001,2.8440200000000004 C 10.430399999999963,2.831520000000012 6.135679999999979,2.5 6.135679999999979,2.5 L 3.1008299999999736,5.139850000000024 L 2.614119999999957,9.503820000000019 L 4.103340000000003,11.504110000000026 C 5.010400000000004,12.722460000000012 5.897339999999986,14.032130000000052 6.37221999999997,14.854420000000005 C 6.801039999999944,15.596929999999986 7.348209999999995,16.53788000000003 7.588160000000016,16.945420000000013 C 7.828110000000038,17.352959999999996 8.507010000000037,18.804419999999993 9.096830000000068,20.170889999999986 C 10.049740000000043,22.378510000000006 10.256130000000098,22.951639999999998 10.94900000000007,25.31419999999997 C 11.646920000000023,27.69400999999999 11.775210000000015,28.247389999999996 12.17154000000005,30.587559999999996 C 12.570340000000101,32.94231000000002 12.627680000000055,33.45333999999997 12.748720000000048,35.73086999999998 C 12.871150000000057,38.034580000000005 12.870550000000094,38.476879999999994 12.7417200000001,40.70053999999999 C 12.621060000000057,42.788250000000005 12.539640000000077,43.507209999999986 12.179010000000062,45.66949999999997 C 11.820390000000089,47.81972999999999 11.65761000000009,48.54282999999998 11.08985000000007,50.50768999999997 C 10.26039000000003,53.37824999999998 10.292440000000056,53.288459999999986 9.093510000000038,56.10078999999996 C 7.6864400000000614,59.40133999999995 6.117070000000012,62.13540999999998 4.010560000000055,64.95601999999997 C 3.1784000000000106,66.07027999999997 2.5,67.01175999999998 2.503020000000106,67.04820999999998 C 2.511020000000144,67.14510999999999 10.291820000000143,73.47388000000001 10.437820000000102,73.50224000000003 C 10.511420000000157,73.51654000000008 11.327600000000075,72.51941 12.455020000000104,71.03796 L 12.455359999999928,71.03796" id="path5621" inkscape:connector-curvature="0" sodipodi:nodetypes="cssssssscssssccccssssssscsssscccc" style="color:#000000;clip-rule:nonzero;display:inline;overflow:visible;visibility:visible;opacity:1;isolation:auto;mix-blend-mode:normal;color-interpolation:sRGB;color-interpolation-filters:linearRGB;solid-color:#000000;solid-opacity:1;vector-effect:none;fill:black;fill-opacity:1;fill-rule:nonzero;stroke:#000000;stroke-width:5.0;stroke-linecap:round;stroke-linejoin:round;stroke-dasharray:none;stroke-dashoffset:0;stroke-opacity:1;marker:none;marker-start:none;marker-mid:none;marker-end:none;color-rendering:auto;image-rendering:auto;shape-rendering:auto;text-rendering:auto;enable-background:accumulate;"/>
</svg>
