<?xml version="1.0" ?>
<svg xmlns="http://www.w3.org/2000/svg" xmlns:cc="http://creativecommons.org/ns#" xmlns:dc="http://purl.org/dc/elements/1.1/" xmlns:ev="http://www.w3.org/2001/xml-events" xmlns:inkscape="http://www.inkscape.org/namespaces/inkscape" xmlns:rdf="http://www.w3.org/1999/02/22-rdf-syntax-ns#" xmlns:sodipodi="http://sodipodi.sourceforge.net/DTD/sodipodi-0.dtd" xmlns:svg="http://www.w3.org/2000/svg" xmlns:xlink="http://www.w3.org/1999/xlink" baseProfile="full" height="49.35989000000012" id="svg1" inkscape:version="0.92.4 (5da689c313, 2019-01-14)" sodipodi:docname="e190-e2.svg" version="1.1" viewBox="0 0 30.745080000000144 49.35989000000012" width="30.745080000000144">
	<defs/>
	<path d="M 11.192960000000085,11.921099999999967 L 9.643880000000081,14.06953999999996 L 8.094810000000052,16.217989999999986 M 5.290590000000066,26.06872999999996 C 5.294590000000085,26.26049999999998 5.413970000000063,27.40307999999993 5.555970000000116,28.60776999999996 L 5.814140000000066,30.798099999999977 M 10.777660000000083,39.58409999999998 L 12.81305000000009,41.34905999999995 L 14.84845000000007,43.11404999999996 M 25.66772000000003,16.274149999999963 C 25.64582000000007,16.195349999999962 25.323030000000017,13.620159999999942 24.95049000000006,10.551619999999957 C 24.5779500000001,7.483069999999941 24.262440000000083,4.957429999999931 24.249370000000113,4.939059999999984 C 24.236270000000104,4.920759999999973 23.263740000000098,5.146269999999959 22.088140000000067,5.440319999999986 C 20.91253000000006,5.734359999999981 19.835690000000113,5.97496000000001 19.6951600000001,5.97496000000001 C 19.55463000000009,5.97496000000001 19.426580000000058,6.009060000000034 19.41059000000007,6.050760000000025" id="path5611" inkscape:connector-curvature="0" sodipodi:nodetypes="ccccscccccscssc" style="color:#000000;clip-rule:nonzero;display:inline;overflow:visible;visibility:visible;opacity:1;isolation:auto;mix-blend-mode:normal;color-interpolation:sRGB;color-interpolation-filters:linearRGB;solid-color:#000000;solid-opacity:1;vector-effect:none;fill:black;fill-opacity:1;fill-rule:nonzero;stroke:#000000;stroke-width:5.0;stroke-linecap:round;stroke-linejoin:round;stroke-dasharray:none;stroke-dashoffset:0;stroke-opacity:1;marker:none;marker-start:none;marker-mid:none;marker-end:none;color-rendering:auto;image-rendering:auto;shape-rendering:auto;text-rendering:auto;enable-background:accumulate;"/>
	<path d="M 24.995260000000144,41.14814999999999 C 25.397830000000113,38.00669999999997 25.711660000000165,35.42176999999998 25.692650000000185,35.40386000000001 C 25.67365000000018,35.38596000000001 25.206990000000133,35.24731000000003 24.655610000000138,35.0958 C 23.90323000000012,34.889070000000004 23.392770000000155,34.676919999999996 22.609720000000152,34.24556999999999 C 22.03587000000016,33.929449999999974 21.519500000000107,33.627549999999985 21.462230000000204,33.574689999999975 C 21.40493000000015,33.52178999999995 20.986480000000256,33.16472999999996 20.53226000000018,32.78116 C 19.356840000000147,31.788549999999987 18.39795000000015,30.487570000000005 17.802720000000136,29.07781 C 17.3985100000001,28.12045999999998 17.34556000000009,27.917489999999987 17.249380000000087,26.956759999999974 C 17.151680000000056,25.980519999999956 17.157980000000066,25.807499999999948 17.327780000000075,24.82342 C 17.838480000000118,21.862529999999992 19.945030000000088,18.94355999999999 22.650630000000092,17.44772999999998 C 23.49023000000011,16.983540000000005 23.820080000000075,16.854799999999955 24.680400000000077,16.65546999999998 C 25.528760000000034,16.458929999999953 25.700710000000072,16.39251999999999 25.667770000000132,16.27413999999999 C 25.645870000000173,16.195339999999987 28.245080000000144,12.889659999999992 28.245080000000144,12.889659999999992 L 27.645540000000096,7.530390000000011 C 27.645540000000096,7.530390000000011 24.25536000000011,4.94738000000001 24.2494200000001,4.9390300000000025 C 24.23632000000009,4.920729999999992 21.096280000000093,2.5 21.096280000000093,2.5 C 21.096280000000093,2.5 19.8357400000001,5.974929999999972 19.69521000000009,5.974929999999972 C 19.554680000000076,5.974929999999972 19.426630000000046,6.009029999999996 19.410640000000058,6.050729999999987 C 19.377340000000004,6.13752999999997 15.354340000000093,8.328660000000013 15.228220000000078,8.328660000000013 C 15.182620000000043,8.328660000000013 15.05887000000007,8.42366000000004 14.953280000000063,8.539780000000007 C 14.84771000000012,8.65589 13.95846000000006,9.464179999999999 12.977170000000115,10.335989999999981 L 11.193010000000072,11.92107999999996 L 7.128750000000082,12.262849999999958 L 8.09486000000004,16.21796999999998 L 7.053730000000087,18.658860000000004 L 6.012590000000046,21.099760000000003 L 5.648000000000025,23.40989000000002 C 5.447480000000041,24.68046000000004 5.2866599999999835,25.876930000000016 5.290640000000053,26.06872000000004 C 5.294640000000072,26.260500000000036 2.5,28.70795000000004 2.5,28.70795000000004 L 5.814190000000053,30.79809000000006 L 6.760740000000055,33.10271000000006 L 7.707290000000057,35.407320000000084 L 9.242490000000089,37.49571000000009 L 10.77771000000007,39.58410000000009 L 10.759010000000103,43.60350000000011 L 14.84846000000016,43.11403000000013 L 17.115000000000123,44.345370000000116 L 19.381540000000086,45.57672000000014 L 21.75130000000013,46.21830000000011 C 23.054660000000126,46.57118000000014 24.153070000000184,46.85989000000012 24.192190000000096,46.85989000000012 C 24.231290000000058,46.85989000000012 24.59270000000015,44.289610000000096 24.995260000000144,41.14816000000013 L 24.995260000000144,41.14814999999999" id="path5625" inkscape:connector-curvature="0" sodipodi:nodetypes="sccscsssssccccccscscscccccscccccccccccscs" style="color:#000000;clip-rule:nonzero;display:inline;overflow:visible;visibility:visible;opacity:1;isolation:auto;mix-blend-mode:normal;color-interpolation:sRGB;color-interpolation-filters:linearRGB;solid-color:#000000;solid-opacity:1;vector-effect:none;fill:black;fill-opacity:1;fill-rule:nonzero;stroke:#000000;stroke-width:5.0;stroke-linecap:round;stroke-linejoin:round;stroke-dasharray:none;stroke-dashoffset:0;stroke-opacity:1;marker:none;marker-start:none;marker-mid:none;marker-end:none;color-rendering:auto;image-rendering:auto;shape-rendering:auto;text-rendering:auto;enable-background:accumulate;"/>
</svg>
