<?xml version="1.0" ?>
<svg xmlns="http://www.w3.org/2000/svg" xmlns:cc="http://creativecommons.org/ns#" xmlns:dc="http://purl.org/dc/elements/1.1/" xmlns:ev="http://www.w3.org/2001/xml-events" xmlns:inkscape="http://www.inkscape.org/namespaces/inkscape" xmlns:rdf="http://www.w3.org/1999/02/22-rdf-syntax-ns#" xmlns:sodipodi="http://sodipodi.sourceforge.net/DTD/sodipodi-0.dtd" xmlns:svg="http://www.w3.org/2000/svg" xmlns:xlink="http://www.w3.org/1999/xlink" baseProfile="full" height="25.564229999999952" id="svg1" inkscape:version="0.92.4 (5da689c313, 2019-01-14)" sodipodi:docname="e190-e2.svg" version="1.1" viewBox="0 0 17.216650000000186 25.564229999999952" width="17.216650000000186">
	<defs/>
	<path d="M 7.448800000000119,5.454760000000022 C 7.4073000000000775,5.454760000000022 7.373400000000174,5.497860000000003 7.373400000000174,5.550560000000019 C 7.373400000000174,5.603260000000034 7.1486500000002025,6.024969999999996 6.873980000000188,6.487680000000012 C 6.728710000000206,6.732390000000009 6.5546800000001895,7.074250000000006 6.395320000000197,7.420050000000003 M 5.488040000000183,11.23615000000001 C 5.488890000000197,11.854750000000024 5.568840000000137,12.459670000000017 5.729150000000232,13.057360000000017 M 7.659550000000195,16.590190000000007 C 8.119450000000143,17.130020000000002 8.63868000000025,17.630539999999996 9.190570000000207,18.07362999999998 M 12.543090000000234,19.86269999999996 C 12.779840000000263,19.92629999999997 13.01350000000025,19.974509999999952 13.242210000000227,20.006069999999966 C 13.998760000000175,20.11039999999997 14.266940000000204,20.154849999999954 14.375340000000278,20.01876999999996 M 14.716620000000262,10.959149999999966 L 12.601570000000265,7.00834999999995 C 11.438310000000229,4.835429999999974 10.440170000000307,3.006939999999929 10.383520000000317,2.9450799999999617" id="path5615" inkscape:connector-curvature="0" sodipodi:nodetypes="cscccccccsccsc" style="color:#000000;clip-rule:nonzero;display:inline;overflow:visible;visibility:visible;opacity:1;isolation:auto;mix-blend-mode:normal;color-interpolation:sRGB;color-interpolation-filters:linearRGB;solid-color:#000000;solid-opacity:1;vector-effect:none;fill:black;fill-opacity:1;fill-rule:nonzero;stroke:#000000;stroke-width:5.0;stroke-linecap:round;stroke-linejoin:round;stroke-dasharray:none;stroke-dashoffset:0;stroke-opacity:1;marker:none;marker-start:none;marker-mid:none;marker-end:none;color-rendering:auto;image-rendering:auto;shape-rendering:auto;text-rendering:auto;enable-background:accumulate;"/>
	<path d="M 14.615850000000137,2.5 L 14.66875000000016,10.824459999999988 L 14.65055000000018,10.834959999999967 L 14.716650000000186,10.958989999999972 L 14.616330000000175,14.98451 C 14.561330000000225,17.198649999999986 14.49496000000022,19.25553000000002 14.468600000000151,19.555189999999982 C 14.451000000000136,19.75587999999999 14.438800000000128,19.885789999999986 14.396900000000187,19.97190999999998 L 14.42060000000015,20.08821999999998 L 13.180920000000128,23.064229999999952 L 12.528830000000085,19.856149999999957 C 11.402300000000082,19.550749999999937 10.207030000000032,18.899389999999983 9.137760000000071,18.030529999999942 L 6.18434000000002,19.556839999999966 L 7.653880000000072,16.58302999999995 C 7.438750000000027,16.33004999999997 7.236040000000116,16.06857999999994 7.0497400000000425,15.80027999999993 C 6.419900000000098,14.893229999999903 5.983090000000061,13.992969999999957 5.734540000000038,13.075619999999958 L 2.5,12.596059999999966 L 5.488140000000044,11.260459999999966 C 5.484140000000025,10.309649999999976 5.667110000000093,9.326469999999972 6.034950000000094,8.287759999999992 C 6.126850000000104,8.028219999999976 6.265420000000063,7.700170000000014 6.414740000000052,7.3788000000000125 L 4.27161000000001,4.9264499999999884 L 7.425119999999993,5.460579999999993 C 7.433120000000031,5.457580000000007 7.440420000000017,5.454580000000021 7.448819999999955,5.454580000000021 C 7.490319999999997,5.454580000000021 7.7606199999999035,5.170500000000004 8.049649999999929,4.822879999999998 C 8.712039999999888,4.026229999999998 8.754729999999881,3.985459999999989 9.589739999999892,3.3544499999999857 C 9.99610999999993,3.047359999999969 10.1881699999999,2.92340999999999 10.294749999999908,2.9140299999999684 L 10.311249999999859,2.889829999999961 L 14.615689999999859,2.5001199999999812 L 14.615850000000137,2.5" id="path5627" inkscape:connector-curvature="0" style="color:#000000;clip-rule:nonzero;display:inline;overflow:visible;visibility:visible;opacity:1;isolation:auto;mix-blend-mode:normal;color-interpolation:sRGB;color-interpolation-filters:linearRGB;solid-color:#000000;solid-opacity:1;vector-effect:none;fill:black;fill-opacity:1;fill-rule:nonzero;stroke:#000000;stroke-width:5.0;stroke-linecap:round;stroke-linejoin:round;stroke-dasharray:none;stroke-dashoffset:0;stroke-opacity:1;marker:none;marker-start:none;marker-mid:none;marker-end:none;color-rendering:auto;image-rendering:auto;shape-rendering:auto;text-rendering:auto;enable-background:accumulate;"/>
</svg>
