<?xml version="1.0" ?>
<svg xmlns="http://www.w3.org/2000/svg" xmlns:cc="http://creativecommons.org/ns#" xmlns:dc="http://purl.org/dc/elements/1.1/" xmlns:ev="http://www.w3.org/2001/xml-events" xmlns:inkscape="http://www.inkscape.org/namespaces/inkscape" xmlns:rdf="http://www.w3.org/1999/02/22-rdf-syntax-ns#" xmlns:sodipodi="http://sodipodi.sourceforge.net/DTD/sodipodi-0.dtd" xmlns:svg="http://www.w3.org/2000/svg" xmlns:xlink="http://www.w3.org/1999/xlink" baseProfile="full" height="28.42113999999998" id="svg1" inkscape:version="0.92.4 (5da689c313, 2019-01-14)" sodipodi:docname="e190-e2.svg" version="1.1" viewBox="0 0 33.380949999999984 28.42113999999998" width="33.380949999999984">
	<defs/>
	<path d="M 13.918480000000045,4.301139999999975 L 11.486510000000067,5.5979299999999625 C 10.148930000000064,6.311159999999973 9.021330000000034,6.894709999999975 8.980750000000057,6.894709999999975 M 6.010890000000018,11.460899999999981 C 5.9706899999999905,11.485700000000008 5.937790000000064,12.700670000000002 5.937790000000064,14.160779999999988 L 5.937790000000064,16.815529999999967 M 8.841960000000086,21.46527999999995 L 11.259420000000091,22.753679999999974 L 13.676870000000122,24.04208 M 19.70081000000016,24.045079999999984 L 22.121520000000146,22.75614999999999 L 22.121520000000146,22.756399999999985 L 24.542250000000195,21.467489999999998 M 27.43989000000022,16.839099999999974 L 27.43989000000022,14.206759999999974 C 27.43989000000022,11.731359999999995 27.429890000000228,11.560929999999985 27.27693000000022,11.347739999999988 M 24.28210000000024,6.8499499999999784 C 24.155230000000188,6.795849999999973 23.02174000000025,6.200469999999996 21.763240000000224,5.526999999999987 L 19.475040000000263,4.302500000000009" fill="none" id="path5613" inkscape:connector-curvature="0" sodipodi:nodetypes="csccscccccccccsccsc" stroke-width="1" style="color:#000000;clip-rule:nonzero;display:inline;overflow:visible;visibility:visible;opacity:1;isolation:auto;mix-blend-mode:normal;color-interpolation:sRGB;color-interpolation-filters:linearRGB;solid-color:#000000;solid-opacity:1;vector-effect:none;fill:none;fill-opacity:1;fill-rule:nonzero;stroke:#000000;stroke-width:1;stroke-linecap:round;stroke-linejoin:round;stroke-dasharray:none;stroke-dashoffset:0;stroke-opacity:1;marker:none;marker-start:none;marker-mid:none;marker-end:none;color-rendering:auto;image-rendering:auto;shape-rendering:auto;text-rendering:auto;enable-background:accumulate;"/>
	<path d="M 828.91687,466.92068 L 830.17529,471.56633 A 11.265183,10.379556 0.0 0,1 832.73734,475.62217 L 836.13118,478.76905999999997 L 832.79522,481.50253 A 11.265183,10.379556 0.0 0,1 830.09316,485.83839 L 828.99239,490.24150000000003 L 824.59755,488.73558 A 11.265183,10.379556 0.0 0,1 821.9654899999999,489.03489 A 11.265183,10.379556 0.0 0,1 819.37478,488.74385 L 814.91435,490.34182 L 813.83727,486.03297 L 813.82627,485.81359 A 11.265183,10.379556 0.0 0,1 811.26698,481.88342 L 807.75023,478.66873 L 811.08177,475.76273 L 811.17217,475.70873 A 11.265183,10.379556 0.0 0,1 813.6261900000001,471.69533 L 814.93974,467.04583 L 819.0473900000001,468.52364 L 819.29213,468.58534 A 11.265183,10.379556 0.0 0,1 821.9655300000001,468.27610999999996 A 11.265183,10.379556 0.0 0,1 824.49009,468.55337 L 828.91687,466.92068" fill="none" id="path5631" inkscape:connector-curvature="0" stroke-width="1" style="color:#000000;clip-rule:nonzero;display:inline;overflow:visible;visibility:visible;opacity:1;isolation:auto;mix-blend-mode:normal;color-interpolation:sRGB;color-interpolation-filters:linearRGB;solid-color:#000000;solid-opacity:1;vector-effect:none;fill:none;fill-opacity:1;fill-rule:nonzero;stroke:#000000;stroke-width:1;stroke-linecap:round;stroke-linejoin:round;stroke-dasharray:none;stroke-dashoffset:0;stroke-opacity:1;marker:none;marker-start:none;marker-mid:none;marker-end:none;color-rendering:auto;image-rendering:auto;shape-rendering:auto;text-rendering:auto;enable-background:accumulate;"/>
</svg>
