<?xml version="1.0" ?>
<svg xmlns="http://www.w3.org/2000/svg" xmlns:cc="http://creativecommons.org/ns#" xmlns:dc="http://purl.org/dc/elements/1.1/" xmlns:ev="http://www.w3.org/2001/xml-events" xmlns:inkscape="http://www.inkscape.org/namespaces/inkscape" xmlns:rdf="http://www.w3.org/1999/02/22-rdf-syntax-ns#" xmlns:sodipodi="http://sodipodi.sourceforge.net/DTD/sodipodi-0.dtd" xmlns:svg="http://www.w3.org/2000/svg" xmlns:xlink="http://www.w3.org/1999/xlink" baseProfile="full" height="32.106013999999995" id="svg1" inkscape:version="0.92.4 (5da689c313, 2019-01-14)" sodipodi:docname="e190-e2.svg" version="1.1" viewBox="0 0 153.43567999999993 32.106013999999995" width="153.43567999999993">
	<defs/>
	<path d="M 94.37072999999998,9.779145999999997 L 115.16189999999995,7.500934999999998 C 126.59703999999999,6.247924999999995 136.04190999999992,5.223824999999998 136.1504799999999,5.225122999999996 L 136.34787999999992,5.227922999999997 M 136.3017799999999,10.574340999999997 L 116.38234999999986,14.261123999999995 C 105.42665999999986,16.288861999999995 96.38406999999984,17.949598999999992 96.28768999999988,17.951687999999997 M 93.89071999999987,24.406392999999994 C 93.85001999999986,24.406392999999994 90.64227999999991,25.014411999999993 86.7625099999999,25.75758799999999 L 79.70835999999986,27.10878299999999 M 73.5359699999999,27.093822999999986 L 66.64915999999994,25.763539999999985 L 66.64916999999991,25.763567999999985 C 62.86141999999995,25.031913999999986 59.68715999999995,24.417402999999986 59.595239999999876,24.398013999999982 M 57.30995000000007,18.008023 L 37.22193000000004,14.294119000000002 L 17.13391999999999,10.580215000000003 M 17.087819999999965,5.227869000000002 L 17.31928999999991,5.227869000000002 C 17.48332999999991,5.227869000000002 55.11893999999995,9.347523000000002 58.977789999999914,9.787875" fill="none" id="path4410" inkscape:connector-curvature="0" sodipodi:nodetypes="cssccsccscccccccccsc" stroke-width="1" style="color:#000000;clip-rule:nonzero;display:inline;overflow:visible;visibility:visible;opacity:1;isolation:auto;mix-blend-mode:normal;color-interpolation:sRGB;color-interpolation-filters:linearRGB;solid-color:#000000;solid-opacity:1;vector-effect:none;fill:none;fill-opacity:1;fill-rule:nonzero;stroke:#000000;stroke-width:1;stroke-linecap:round;stroke-linejoin:round;stroke-dasharray:none;stroke-dashoffset:0;stroke-opacity:1;marker:none;marker-start:none;marker-mid:none;marker-end:none;color-rendering:auto;image-rendering:auto;shape-rendering:auto;text-rendering:auto;enable-background:accumulate;"/>
	<path d="M 76.79129,27.02064 L 76.79129,20.573272000000003" fill="none" id="path4444" inkscape:connector-curvature="0" stroke-width="1" style="color:#000000;clip-rule:nonzero;display:inline;overflow:visible;visibility:visible;opacity:1;isolation:auto;mix-blend-mode:normal;color-interpolation:sRGB;color-interpolation-filters:linearRGB;solid-color:#000000;solid-opacity:1;vector-effect:none;fill:none;fill-opacity:1;fill-rule:nonzero;stroke:#000000;stroke-width:1;stroke-linecap:round;stroke-linejoin:round;stroke-dasharray:none;stroke-dashoffset:0;stroke-opacity:1;marker:none;marker-start:none;marker-mid:none;marker-end:none;color-rendering:auto;image-rendering:auto;shape-rendering:auto;text-rendering:auto;enable-background:accumulate;"/>
	<path d="M 20.477890000000002,2.5 L 17.26430000000005,5.247806000000001 L 2.5,4.499255999999999 L 2.5,9.426572 L 17.113269999999943,10.596801 L 19.497279999999932,14.177495999999998 L 53.76136999999994,20.579308999999995 L 57.12708999999995,17.974267999999995 L 58.376139999999964,21.20328599999999 L 59.52432999999996,24.42899899999999 L 61.91384999999991,27.941892999999993 L 70.5139099999999,29.606013999999995 L 74.06097999999986,27.20216299999999 L 79.37468999999987,27.20216299999999 L 82.92176999999992,29.606013999999995 L 91.52182999999991,27.941892999999993 L 93.91134999999986,24.42899899999999 L 95.05952999999988,21.20328599999999 L 96.30857999999989,17.974267999999995 L 99.6742999999999,20.579308999999995 L 133.9383999999999,14.177495999999998 L 136.32240999999988,10.596801 L 150.93567999999993,9.426572 L 150.93567999999993,4.499255999999999 L 136.1713699999999,5.247806000000001 L 132.95778999999993,2.5 L 96.7969599999999,6.496308999999997 L 94.39145999999994,9.801946999999998 L 92.70803999999998,10.272134999999999 L 90.92101000000002,10.742872999999996 L 89.88252,12.508415999999997 L 88.94820000000004,14.272855999999997 L 87.62859000000003,15.711528999999999 L 86.16181000000006,17.288556 L 82.67041000000006,19.49011 L 80.70919000000004,20.137787000000003 L 79.04893000000004,20.636637 L 74.38675,20.636637 L 72.72649000000001,20.137787000000003 L 70.76526000000001,19.49011 L 67.27386000000001,17.288556 L 65.80708000000004,15.711528999999999 L 64.48747000000003,14.272855999999997 L 63.55316000000005,12.508415999999997 L 62.514670000000024,10.742872999999996 L 60.72762999999998,10.272134999999999 L 59.044219999999996,9.801946999999998 L 56.638720000000035,6.496308999999997 L 20.477890000000002,2.5" fill="none" id="path4222" inkscape:connector-curvature="0" sodipodi:nodetypes="ccccccccccccccccccccccccccccccccccccccccccccccccc" stroke-width="1" style="color:#000000;clip-rule:nonzero;display:inline;overflow:visible;visibility:visible;opacity:1;isolation:auto;mix-blend-mode:normal;color-interpolation:sRGB;color-interpolation-filters:linearRGB;solid-color:#000000;solid-opacity:1;vector-effect:none;fill:none;fill-opacity:1;fill-rule:nonzero;stroke:#000000;stroke-width:1;stroke-linecap:round;stroke-linejoin:round;stroke-dasharray:none;stroke-dashoffset:0;stroke-opacity:1;marker:none;marker-start:none;marker-mid:none;marker-end:none;color-rendering:auto;image-rendering:auto;shape-rendering:auto;text-rendering:auto;enable-background:accumulate;"/>
</svg>
