<?xml version="1.0" ?>
<svg xmlns="http://www.w3.org/2000/svg" xmlns:cc="http://creativecommons.org/ns#" xmlns:dc="http://purl.org/dc/elements/1.1/" xmlns:ev="http://www.w3.org/2001/xml-events" xmlns:inkscape="http://www.inkscape.org/namespaces/inkscape" xmlns:rdf="http://www.w3.org/1999/02/22-rdf-syntax-ns#" xmlns:sodipodi="http://sodipodi.sourceforge.net/DTD/sodipodi-0.dtd" xmlns:svg="http://www.w3.org/2000/svg" xmlns:xlink="http://www.w3.org/1999/xlink" baseProfile="full" height="32.10601" id="svg1" inkscape:version="0.92.4 (5da689c313, 2019-01-14)" sodipodi:docname="e190-e2.svg" version="1.1" viewBox="0 0 153.43567999999993 32.10601" width="153.43567999999993">
	<defs/>
	<path d="M 94.37072999999998,9.779079999999993 L 115.16189999999995,7.500859999999989 C 126.59703999999999,6.2478499999999855 136.04190999999992,5.2237499999999955 136.1504799999999,5.225049999999982 L 136.34787999999992,5.228049999999982 M 136.3017799999999,10.574469999999977 L 116.38234999999986,14.261249999999976 C 105.42665999999986,16.28898999999997 96.38406999999984,17.949729999999988 96.28768999999988,17.95181999999997 M 93.89071999999987,24.406519999999972 C 93.85001999999986,24.406519999999972 90.64227999999991,25.014539999999982 86.7625099999999,25.757719999999978 L 79.70835999999986,27.10890999999998 M 73.5359699999999,27.09400999999997 L 66.64915999999994,25.76372999999998 L 66.64916999999991,25.76375999999999 C 62.86142999999993,25.032099999999986 59.687169999999924,24.41758999999999 59.595249999999965,24.398200000000003 M 57.30995999999993,18.00820999999999 L 37.221939999999904,14.294299999999993 L 17.13392999999985,10.580399999999997 M 17.087829999999826,5.228059999999999 L 17.31929999999977,5.228059999999999 C 17.48333999999977,5.228059999999999 55.118939999999725,9.347710000000006 58.977799999999775,9.788060000000002" fill="none" id="path4430" inkscape:connector-curvature="0" sodipodi:nodetypes="cssccsccscccccccccsc" stroke-width="1" style="color:#000000;clip-rule:nonzero;display:inline;overflow:visible;visibility:visible;opacity:1;isolation:auto;mix-blend-mode:normal;color-interpolation:sRGB;color-interpolation-filters:linearRGB;solid-color:#000000;solid-opacity:1;vector-effect:none;fill:none;fill-opacity:1;fill-rule:nonzero;stroke:#000000;stroke-width:1;stroke-linecap:round;stroke-linejoin:round;stroke-dasharray:none;stroke-dashoffset:0;stroke-opacity:1;marker:none;marker-start:none;marker-mid:none;marker-end:none;color-rendering:auto;image-rendering:auto;shape-rendering:auto;text-rendering:auto;enable-background:accumulate;"/>
	<path d="M 76.79129,27.020569999999992 L 76.79129,20.573199999999986" fill="none" id="path4452" inkscape:connector-curvature="0" stroke-width="1" style="color:#000000;clip-rule:nonzero;display:inline;overflow:visible;visibility:visible;opacity:1;isolation:auto;mix-blend-mode:normal;color-interpolation:sRGB;color-interpolation-filters:linearRGB;solid-color:#000000;solid-opacity:1;vector-effect:none;fill:none;fill-opacity:1;fill-rule:nonzero;stroke:#000000;stroke-width:1;stroke-linecap:round;stroke-linejoin:round;stroke-dasharray:none;stroke-dashoffset:0;stroke-opacity:1;marker:none;marker-start:none;marker-mid:none;marker-end:none;color-rendering:auto;image-rendering:auto;shape-rendering:auto;text-rendering:auto;enable-background:accumulate;"/>
	<path d="M 20.477890000000002,2.5 L 17.26430000000005,5.247810000000001 L 2.5,4.499260000000007 L 2.5,9.426569999999998 L 17.113269999999943,10.596800000000002 L 19.497279999999932,14.177500000000009 L 53.76136999999994,20.57931000000002 L 57.12708999999995,17.97427000000002 L 58.376139999999964,21.20329000000001 L 59.52432999999996,24.429000000000002 L 61.91384999999991,27.94189 L 70.5139099999999,29.606009999999998 L 74.06097999999986,27.202159999999992 L 79.37468999999987,27.202159999999992 L 82.92176999999992,29.606009999999998 L 91.52182999999991,27.94189 L 93.91134999999986,24.429000000000002 L 95.05952999999988,21.20329000000001 L 96.30857999999989,17.97427000000002 L 99.6742999999999,20.57931000000002 L 133.9383999999999,14.177500000000023 L 136.32240999999988,10.59680000000003 L 150.93567999999993,9.426570000000027 L 150.93567999999993,4.499260000000021 L 136.1713699999999,5.247810000000015 L 132.95778999999993,2.500000000000014 L 96.7969599999999,6.496310000000008 L 94.39145999999994,9.801950000000005 L 92.70803999999998,10.272140000000007 L 90.92101000000002,10.742880000000014 L 89.88252,12.508420000000015 L 88.94820000000004,14.272860000000009 L 87.62859000000003,15.71153000000001 L 86.16181000000006,17.288560000000018 L 82.67041000000006,19.490110000000016 L 80.70919000000004,20.137790000000024 L 79.04893000000004,20.63664000000003 L 74.38675,20.63664000000003 L 72.72649000000001,20.137790000000024 L 70.76526000000001,19.490110000000016 L 67.27386000000001,17.288560000000018 L 65.80708000000004,15.711530000000025 L 64.48747000000003,14.272860000000023 L 63.55316000000005,12.50842000000003 L 62.514670000000024,10.742880000000028 L 60.72762999999998,10.272140000000022 L 59.044219999999996,9.80195000000002 L 56.638720000000035,6.4963100000000225 L 20.477890000000002,2.5" fill="none" id="path4231" inkscape:connector-curvature="0" sodipodi:nodetypes="ccccccccccccccccccccccccccccccccccccccccccccccccc" stroke-width="1" style="color:#000000;clip-rule:nonzero;display:inline;overflow:visible;visibility:visible;opacity:1;isolation:auto;mix-blend-mode:normal;color-interpolation:sRGB;color-interpolation-filters:linearRGB;solid-color:#000000;solid-opacity:1;vector-effect:none;fill:none;fill-opacity:1;fill-rule:nonzero;stroke:#000000;stroke-width:1;stroke-linecap:round;stroke-linejoin:round;stroke-dasharray:none;stroke-dashoffset:0;stroke-opacity:1;marker:none;marker-start:none;marker-mid:none;marker-end:none;color-rendering:auto;image-rendering:auto;shape-rendering:auto;text-rendering:auto;enable-background:accumulate;"/>
</svg>
