<?xml version="1.0" ?>
<svg xmlns="http://www.w3.org/2000/svg" xmlns:cc="http://creativecommons.org/ns#" xmlns:dc="http://purl.org/dc/elements/1.1/" xmlns:ev="http://www.w3.org/2001/xml-events" xmlns:inkscape="http://www.inkscape.org/namespaces/inkscape" xmlns:rdf="http://www.w3.org/1999/02/22-rdf-syntax-ns#" xmlns:sodipodi="http://sodipodi.sourceforge.net/DTD/sodipodi-0.dtd" xmlns:svg="http://www.w3.org/2000/svg" xmlns:xlink="http://www.w3.org/1999/xlink" baseProfile="full" height="136.724" id="svg1" inkscape:version="0.92.4 (5da689c313, 2019-01-14)" sodipodi:docname="e190-e2.svg" version="1.1" viewBox="0 0 30.670959999999923 136.724" width="30.670959999999923">
	<defs/>
	<path d="M 3.6177099999998745,16.52171000000004 C 3.5897099999998545,16.493210000000033 11.275009999999838,7.670630000000017 11.750119999999924,7.185910000000035 C 11.879569999999944,7.053830000000062 13.11119999999994,6.043700000000058 14.487079999999878,4.9411700000000565 L 16.988669999999843,2.936550000000068 M 17.467729999999847,133.6447100000001 L 14.116389999999797,131.06972000000007 L 10.765039999999772,128.49475000000007 L 6.944549999999822,123.33022000000005 C 4.843279999999822,120.48974000000004 3.1375499999998056,118.15221000000008 3.1540399999997817,118.13570000000004" fill="none" id="path4768" inkscape:connector-curvature="0" sodipodi:nodetypes="cssccccsc" stroke-width="1" style="color:#000000;clip-rule:nonzero;display:inline;overflow:visible;visibility:visible;opacity:1;isolation:auto;mix-blend-mode:normal;color-interpolation:sRGB;color-interpolation-filters:linearRGB;solid-color:#000000;solid-opacity:1;vector-effect:none;fill:none;fill-opacity:1;fill-rule:nonzero;stroke:#000000;stroke-width:1;stroke-linecap:round;stroke-linejoin:round;stroke-dasharray:none;stroke-dashoffset:0;stroke-opacity:1;marker:none;marker-start:none;marker-mid:none;marker-end:none;color-rendering:auto;image-rendering:auto;shape-rendering:auto;text-rendering:auto;enable-background:accumulate;"/>
	<path d="M 12.395949999999857,2.5 L 12.002929999999878,6.97311000000002 C 11.977129999999875,6.995409999999993 11.910429999999906,7.049910000000011 11.892139999999927,7.066310000000044 L 7.636759999999981,7.35955000000007 L 3.2281399999999394,12.219070000000045 L 3.6288699999998926,16.377440000000036 C 3.6288699999998926,16.377440000000036 3.6147699999999077,16.518740000000037 3.6178699999999253,16.52185000000003 C 3.633769999999913,16.538050000000055 4.651029999999878,16.020100000000014 5.878399999999942,15.370920000000012 L 8.109719999999925,14.190760000000012 L 9.524689999999964,14.315890000000024 C 10.302819999999997,14.384890000000041 11.037529999999947,14.44240000000002 11.157389999999964,14.443770000000029 C 11.334439999999972,14.445770000000039 11.598189999999931,14.729110000000048 12.564089999999965,15.952450000000056 L 13.75306999999998,17.45837000000006 L 13.79876999999999,56.203850000000045 C 13.824870000000033,78.32009000000005 13.886070000000018,97.64330000000007 13.940979999999968,101.22601000000003 C 13.99387999999999,104.67814000000004 14.070600000000013,109.95428000000004 14.111310000000003,112.95092000000005 L 14.185209999999984,118.39968000000005 L 13.103179999999952,119.99049000000002 L 12.021139999999946,121.5813 L 10.247319999999945,121.5813 L 8.47350999999992,121.5813 L 5.828779999999938,119.84330999999997 C 4.374209999999948,118.88750999999996 3.1707699999999477,118.11917 3.1542899999999463,118.13565 C 3.1512899999999036,118.13864999999998 3.256439999999998,118.28465 3.3229599999999664,118.37984 L 3.1730199999999513,118.28284000000002 L 3.10191999999995,118.14118000000002 L 2.5,122.42743000000002 L 6.538199999999961,127.88281 L 10.784209999999916,128.50954000000002 L 10.866909999999962,128.57294000000002 L 11.391669999999976,132.73627 L 13.269109999999955,134.224 L 17.412599999999998,133.60222999999996 L 17.467700000000036,133.64462999999995 L 19.65215999999998,133.87834999999995 C 20.85349999999994,134.00680999999997 21.99321999999995,134.11647999999997 22.184999999999945,134.12198999999998 C 22.477319999999963,134.12998999999996 27.05025999999998,133.00277999999997 27.156959999999913,132.89607999999998 C 27.176259999999957,132.87678 27.216159999999945,131.39247999999998 27.24515999999994,129.59706 C 27.274159999999938,127.80162000000001 27.394739999999956,123.78276 27.513049999999907,120.66627 C 27.996539999999868,107.93054000000001 28.080169999999953,101.09249 28.129859999999894,70.17327999999998 C 28.170959999999923,44.61207999999999 28.161059999999907,41.49928 28.033959999999865,39.400589999999966 C 27.95615999999984,38.11641999999995 27.79464999999982,32.94312999999994 27.675129999999854,27.904999999999973 C 27.47728999999981,19.56565999999998 27.430349999999862,18.366529999999955 27.149269999999888,14.523699999999963 C 26.97944999999993,12.202089999999941 26.78552999999988,8.817489999999964 26.718769999999836,7.002359999999953 C 26.651969999999892,5.187239999999974 26.585309999999822,3.6950499999999806 26.570489999999836,3.6862499999999727 C 26.5556899999998,3.677249999999958 25.49373999999989,3.4595899999999915 24.210739999999873,3.2017399999999725 L 21.87799999999993,2.7326499999999783 L 20.113559999999893,2.83517999999998 C 19.143089999999916,2.8914800000000014 18.043079999999918,2.9373999999999683 17.668919999999844,2.937149999999974 L 16.98871999999983,2.936589999999967 L 16.974419999999782,2.948189999999954 L 12.395949999999857,2.5" fill="none" id="path4694" inkscape:connector-curvature="0" sodipodi:nodetypes="cccccccccccccsscccccccsccccccccccccccssssssscccccccc" stroke-width="1" style="color:#000000;clip-rule:nonzero;display:inline;overflow:visible;visibility:visible;opacity:1;isolation:auto;mix-blend-mode:normal;color-interpolation:sRGB;color-interpolation-filters:linearRGB;solid-color:#000000;solid-opacity:1;vector-effect:none;fill:none;fill-opacity:1;fill-rule:nonzero;stroke:#000000;stroke-width:1;stroke-linecap:round;stroke-linejoin:round;stroke-dasharray:none;stroke-dashoffset:0;stroke-opacity:1;marker:none;marker-start:none;marker-mid:none;marker-end:none;color-rendering:auto;image-rendering:auto;shape-rendering:auto;text-rendering:auto;enable-background:accumulate;"/>
</svg>
