<?xml version="1.0" ?>
<svg xmlns="http://www.w3.org/2000/svg" xmlns:cc="http://creativecommons.org/ns#" xmlns:dc="http://purl.org/dc/elements/1.1/" xmlns:ev="http://www.w3.org/2001/xml-events" xmlns:inkscape="http://www.inkscape.org/namespaces/inkscape" xmlns:rdf="http://www.w3.org/1999/02/22-rdf-syntax-ns#" xmlns:sodipodi="http://sodipodi.sourceforge.net/DTD/sodipodi-0.dtd" xmlns:svg="http://www.w3.org/2000/svg" xmlns:xlink="http://www.w3.org/1999/xlink" baseProfile="full" height="113.01272999999958" id="svg1" inkscape:version="0.92.4 (5da689c313, 2019-01-14)" sodipodi:docname="e190-e2.svg" version="1.1" viewBox="0 0 38.41158999999982 113.01272999999958" width="38.41158999999982">
	<defs/>
	<path d="M 12.673690000000079,27.6701599999995 L 12.82592000000011,45.14869999999951 L 12.978160000000116,62.627259999999524 L 14.206000000000131,72.58783999999952 C 14.881310000000099,78.06616999999949 15.433840000000146,82.58431999999954 15.433840000000146,82.62817999999953 C 15.433840000000146,82.70907999999952 19.54673000000014,86.01167999999956 19.739800000000173,86.08579999999955 C 19.82130000000018,86.11709999999954 23.066130000000157,83.38486999999952 23.821560000000204,82.64894999999956 C 23.954370000000154,82.51954999999958 24.036400000000185,81.35650999999956 24.54811000000018,72.34721999999954 L 25.124960000000215,62.19135999999952 L 24.157450000000267,44.756409999999505 L 23.18993000000023,27.321479999999497 L 21.97145000000023,18.77835999999951 C 21.301280000000247,14.079639999999529 20.75263000000018,10.17305999999951 20.75223000000028,10.097119999999506 C 20.75194000000033,10.021219999999516 21.453410000000304,9.057779999999525 22.311290000000326,7.9562899999995125 L 23.871090000000322,5.953559999999527 L 25.46230000000037,5.368879999999535 L 27.053510000000415,4.784199999999544 L 28.66840000000036,5.657249999999522 C 29.55659000000037,6.1374199999995085 30.308850000000348,6.530309999999531 30.340100000000348,6.530309999999531 C 30.37130000000036,6.530309999999531 30.702170000000365,7.560049999999535 31.0752600000003,8.818619999999555 L 31.753600000000347,11.10695999999956 L 32.047790000000305,18.342469999999537 C 32.209590000000276,22.321989999999516 32.440850000000296,27.40210999999954 32.561700000000315,29.63160999999951 C 32.75370000000032,33.17399999999952 32.781290000000354,34.410839999999496 32.78042000000028,39.4387799999995 C 32.778420000000324,50.43146999999948 32.278140000000235,59.40218999999951 30.82081000000028,74.57018999999951 C 29.9048700000003,84.1033799999995 29.191730000000234,89.33769999999953 27.809980000000223,96.6689899999995 C 26.952840000000265,101.21685999999949 26.942030000000273,101.2629199999995 26.091830000000186,103.99166999999949 L 25.236250000000155,106.73766999999947 L 23.58231000000012,107.67226999999946 C 22.650280000000066,108.19895999999943 21.83323000000007,108.60481999999945 21.710420000000113,108.60216999999943 C 21.590560000000096,108.59916999999945 20.884440000000154,108.23070999999942 20.141280000000165,107.78247999999945 C 19.3981100000002,107.33427999999947 18.73123000000021,106.90916999999945 18.65931000000012,106.83779999999945 C 18.58741000000009,106.76649999999944 17.822820000000092,105.50271999999944 16.96027000000015,104.02954999999946 L 15.392000000000166,101.35102999999947 L 14.583920000000148,97.07036999999946 C 14.092060000000174,94.46485999999948 13.485050000000115,90.82814999999948 13.032760000000167,87.77714999999944 C 12.624070000000188,85.02026999999941 11.743890000000192,79.23402999999945 11.076800000000162,74.91887999999943 C 10.409710000000132,70.60372999999942 9.510120000000143,64.5625099999994 9.077710000000138,61.49395999999945 C 7.619150000000104,51.14356999999944 6.728230000000167,40.62495999999942 6.408530000000155,29.980289999999457 C 6.317030000000159,26.93265999999943 6.133510000000115,23.32207999999946 5.837220000000116,18.73799999999943 C 5.5971600000001445,15.023979999999426 5.41235000000006,11.893689999999424 5.426540000000159,11.78183999999942" id="path4774" inkscape:connector-curvature="0" sodipodi:nodetypes="cccsscsscccscscccssscsssssscscscscssssssc" style="color:#000000;clip-rule:nonzero;display:inline;overflow:visible;visibility:visible;opacity:1;isolation:auto;mix-blend-mode:normal;color-interpolation:sRGB;color-interpolation-filters:linearRGB;solid-color:#000000;solid-opacity:1;vector-effect:none;fill:black;fill-opacity:1;fill-rule:nonzero;stroke:#000000;stroke-width:5.0;stroke-linecap:round;stroke-linejoin:round;stroke-dasharray:none;stroke-dashoffset:0;stroke-opacity:1;marker:none;marker-start:none;marker-mid:none;marker-end:none;color-rendering:auto;image-rendering:auto;shape-rendering:auto;text-rendering:auto;enable-background:accumulate;"/>
	<path d="M 5.475710000000049,11.774189999999521 L 2.5,14.962449999999535 L 3.066799999999944,22.401719999999557 L 6.255059999999958,25.094029999999577 L 3.2793499999999085,28.494839999999556 L 3.3501499999998714,31.328849999999534 L 6.6801099999999,34.51710999999955 L 3.6335499999999,37.56365999999957 L 3.916949999999929,42.16892999999959 L 7.3177599999999074,44.93208999999962 L 4.271199999999908,48.19119999999964 L 4.979699999999866,53.57580999999965 L 8.522209999999859,56.33896999999968 L 5.617359999999849,60.023179999999684 L 6.609259999999836,65.05354999999969 L 10.080919999999878,67.4624499999997 L 7.246909999999843,71.07581999999968 L 8.805609999999888,79.86123999999967 L 12.348129999999855,82.41184999999967 L 9.584969999999885,85.88350999999966 L 10.364319999999907,89.85111999999964 L 13.765129999999886,92.33087999999964 L 11.28536999999983,96.08593999999965 L 11.781319999999823,98.91994999999963 L 15.53638999999987,101.54140999999964 L 14.190229999999815,105.43816999999962 L 18.441239999999766,107.13857999999959 L 18.627549999999815,110.21213999999958 L 21.633459999999786,108.40857999999957 L 25.040169999999762,110.51272999999958 L 25.040169999999762,106.9056199999996 L 28.94786999999974,104.80147999999963 L 26.743529999999737,101.09417999999965 L 30.150239999999712,98.68943999999965 L 31.15220999999974,95.48312999999968 L 28.54707999999971,92.2768199999997 L 31.753399999999715,89.47128999999973 L 32.680219999999736,85.36319999999972 L 30.05003999999974,81.98152999999974 L 33.406649999999786,79.12590999999975 L 34.358529999999746,70.43378999999976 L 31.55299999999977,67.02707999999978 L 34.909609999999816,64.12135999999981 L 35.21019999999987,59.011299999999835 L 32.254379999999855,55.60458999999986 L 35.56089999999983,52.84915999999987 L 35.81138999999985,47.739099999999894 L 32.60506999999984,44.382489999999905 L 35.91158999999982,41.1761699999999 C 35.91158999999982,41.1761699999999 35.91158999999982,37.168279999999925 35.7612899999998,36.91778999999991 C 35.61098999999979,36.66728999999992 32.75536999999986,33.86176999999992 32.75536999999986,33.86176999999992 L 35.86148999999989,30.60534999999993 L 35.56089999999983,27.449139999999943 L 32.304479999999785,24.64361999999994 L 35.2602999999998,21.437299999999937 L 35.00980999999979,13.972599999999943 L 31.55299999999977,11.016779999999926 L 34.20822999999973,7.91065999999995 L 30.45082999999977,6.708289999999977 L 30.350629999999796,2.9508899999999585 L 27.044119999999793,4.8045399999999745 L 24.288689999999747,2.5 L 23.887899999999718,5.756419999999991 L 19.8299099999997,6.006910000000005 L 20.78178999999966,10.064900000000023 L 18.17665999999963,13.722100000000012 L 19.72971999999959,24.894110000000012 L 23.286719999999605,27.74973 L 20.38099999999963,30.605349999999987 L 22.034249999999588,59.41208 L 25.090269999999578,62.21760999999998 L 21.833859999999618,65.32372999999995 L 21.082379999999603,79.25115999999997 L 23.937999999999647,82.55766999999997 L 19.629519999999616,82.00657999999999 L 19.779809999999657,86.21486999999996 L 19.729709999999614,81.95647999999994 L 15.571519999999623,82.85825999999992 L 18.076459999999656,79.25115999999991 L 16.42319999999961,65.0231399999999 L 12.866199999999594,62.418009999999924 L 15.972309999999538,59.46218999999991 L 15.771919999999568,30.75564999999989 L 12.565599999999563,27.6996299999999 L 5.475710000000049,11.774189999999521" id="path5202" inkscape:connector-curvature="0" style="color:#000000;clip-rule:nonzero;display:inline;overflow:visible;visibility:visible;opacity:1;isolation:auto;mix-blend-mode:normal;color-interpolation:sRGB;color-interpolation-filters:linearRGB;solid-color:#000000;solid-opacity:1;vector-effect:none;fill:black;fill-opacity:1;fill-rule:nonzero;stroke:#000000;stroke-width:5.0;stroke-linecap:round;stroke-linejoin:round;stroke-dasharray:none;stroke-dashoffset:0;stroke-opacity:1;marker:none;marker-start:none;marker-mid:none;marker-end:none;color-rendering:auto;image-rendering:auto;shape-rendering:auto;text-rendering:auto;enable-background:accumulate;"/>
</svg>
