<?xml version="1.0" ?>
<svg xmlns="http://www.w3.org/2000/svg" xmlns:cc="http://creativecommons.org/ns#" xmlns:dc="http://purl.org/dc/elements/1.1/" xmlns:ev="http://www.w3.org/2001/xml-events" xmlns:inkscape="http://www.inkscape.org/namespaces/inkscape" xmlns:rdf="http://www.w3.org/1999/02/22-rdf-syntax-ns#" xmlns:sodipodi="http://sodipodi.sourceforge.net/DTD/sodipodi-0.dtd" xmlns:svg="http://www.w3.org/2000/svg" xmlns:xlink="http://www.w3.org/1999/xlink" baseProfile="full" height="134.3046500000001" id="svg1" inkscape:version="0.92.4 (5da689c313, 2019-01-14)" sodipodi:docname="e190-e2.svg" version="1.1" viewBox="0 0 16.611510000000067 134.3046500000001" width="16.611510000000067">
	<defs/>
	<path d="M 10.273800000000051,2.5625 L 10.420590000000061,5.570029999999974 C 10.531070000000113,7.833460000000002 10.589930000000095,11.748079999999959 10.658480000000054,21.392259999999965 C 10.708580000000097,28.440339999999992 10.795200000000023,39.87546999999995 10.8509600000001,46.80368999999996 C 10.928060000000073,56.38250999999997 10.928060000000073,63.80723999999998 10.8508700000001,77.79431999999997 C 10.630230000000097,117.77274 10.587640000000079,122.83659999999998 10.433920000000057,127.37495999999999 L 10.284060000000068,131.79906999999997 M 6.307390000000055,131.79906999999997 L 6.305390000000102,131.51574999999997 L 6.30533000000014,131.51574999999997 C 6.304330000000164,131.35994 6.2460300000001325,129.87905999999998 6.176350000000184,128.2249 C 6.042640000000233,125.05066 5.944950000000176,114.84451999999999 5.779190000000199,86.72973000000002 C 5.660840000000235,66.65794 5.662040000000161,48.828160000000025 5.7821900000002415,38.957970000000046 C 5.832790000000273,34.81063000000006 5.914030000000253,26.062640000000044 5.962790000000268,19.517990000000054 C 6.022590000000264,11.485240000000033 6.091600000000312,6.882140000000049 6.17501000000027,5.352100000000064 C 6.243010000000254,4.105500000000063 6.300560000000246,2.95733000000007 6.30299000000025,2.800610000000063 L 6.306990000000269,2.5156500000000506" id="path4772" inkscape:connector-curvature="0" sodipodi:nodetypes="csssssccccssssscc" style="color:#000000;clip-rule:nonzero;display:inline;overflow:visible;visibility:visible;opacity:1;isolation:auto;mix-blend-mode:normal;color-interpolation:sRGB;color-interpolation-filters:linearRGB;solid-color:#000000;solid-opacity:1;vector-effect:none;fill:black;fill-opacity:1;fill-rule:nonzero;stroke:#000000;stroke-width:5.0;stroke-linecap:round;stroke-linejoin:round;stroke-dasharray:none;stroke-dashoffset:0;stroke-opacity:1;marker:none;marker-start:none;marker-mid:none;marker-end:none;color-rendering:auto;image-rendering:auto;shape-rendering:auto;text-rendering:auto;enable-background:accumulate;"/>
	<path d="M 6.157330000000115,2.5 L 3.3516400000000885,5.305679999999995 L 6.307810000000131,8.46193999999997 L 2.8511300000001256,11.71796999999998 L 3.0010700000001407,14.824070000000006 L 5.957230000000095,17.880560000000003 L 2.800980000000095,21.036819999999977 L 2.9007800000000543,32.90999999999997 L 5.806780000000003,36.26634999999999 L 2.6505300000000034,38.370889999999974 L 5.856940000000009,40.72512999999998 L 2.6505300000000034,43.73145999999997 L 2.6003299999999854,60.61462999999998 L 5.656259999999975,63.67057 L 2.5,66.77667000000002 L 2.700649999999996,76.24544000000003 L 5.856909999999971,79.45186000000001 L 2.7508100000000013,82.40748000000002 L 2.8010100000000193,94.13073000000003 L 5.957260000000019,97.48708000000005 L 2.7006900000000087,100.39308000000005 L 2.8010100000000193,109.46058000000005 L 5.907109999999989,112.76732000000004 L 2.851159999999936,115.77310000000006 L 3.0512599999999566,121.43408000000005 L 6.057029999999941,124.34009000000003 L 3.101419999999962,127.69644000000005 L 3.15161999999998,128.99896000000007 L 6.307879999999955,131.8046500000001 L 10.304189999999949,131.8046500000001 L 13.460439999999949,128.99896000000007 L 13.510639999999967,127.69644000000005 L 10.554480000000012,124.34009000000003 L 13.560249999999996,121.43408000000005 L 13.760899999999992,115.77310000000006 L 10.704960000000028,112.76732000000004 L 13.811059999999998,109.46058000000005 L 13.911380000000008,100.39308000000005 L 10.654800000000023,97.48708000000005 L 13.811059999999998,94.13073000000003 L 13.861260000000016,82.40748000000002 L 10.755160000000046,79.45186000000001 L 13.911420000000021,76.24544000000003 L 14.111510000000067,66.77667000000002 L 10.955260000000067,63.67057 L 14.011190000000056,60.61462999999998 L 13.961590000000001,43.73145999999997 L 10.755170000000021,40.72512999999998 L 13.961590000000001,38.370889999999974 L 10.805330000000026,36.26634999999999 L 13.710789999999974,32.90999999999997 L 13.811109999999985,21.036819999999977 L 10.65485000000001,17.880560000000003 L 13.610469999999964,14.824070000000006 L 13.76094999999998,11.71796999999998 L 10.304279999999949,8.46193999999997 L 13.259899999999902,5.305679999999995 L 10.454209999999875,2.5 L 6.157330000000115,2.5" id="path5224" inkscape:connector-curvature="0" sodipodi:nodetypes="ccccccccccccccccccccccccccccccccccccccccccccccccccccccccccc" style="color:#000000;clip-rule:nonzero;display:inline;overflow:visible;visibility:visible;opacity:1;isolation:auto;mix-blend-mode:normal;color-interpolation:sRGB;color-interpolation-filters:linearRGB;solid-color:#000000;solid-opacity:1;vector-effect:none;fill:black;fill-opacity:1;fill-rule:nonzero;stroke:#000000;stroke-width:5.0;stroke-linecap:round;stroke-linejoin:round;stroke-dasharray:none;stroke-dashoffset:0;stroke-opacity:1;marker:none;marker-start:none;marker-mid:none;marker-end:none;color-rendering:auto;image-rendering:auto;shape-rendering:auto;text-rendering:auto;enable-background:accumulate;"/>
</svg>
