<?xml version="1.0" ?>
<svg xmlns="http://www.w3.org/2000/svg" xmlns:cc="http://creativecommons.org/ns#" xmlns:dc="http://purl.org/dc/elements/1.1/" xmlns:ev="http://www.w3.org/2001/xml-events" xmlns:inkscape="http://www.inkscape.org/namespaces/inkscape" xmlns:rdf="http://www.w3.org/1999/02/22-rdf-syntax-ns#" xmlns:sodipodi="http://sodipodi.sourceforge.net/DTD/sodipodi-0.dtd" xmlns:svg="http://www.w3.org/2000/svg" xmlns:xlink="http://www.w3.org/1999/xlink" baseProfile="full" height="136.724" id="svg1" inkscape:version="0.92.4 (5da689c313, 2019-01-14)" sodipodi:docname="e190-e2.svg" version="1.1" viewBox="0 0 30.67095000000006 136.724" width="30.67095000000006">
	<defs/>
	<path d="M 27.053250000000048,16.52171000000004 C 27.081250000000068,16.493210000000033 19.395939999999996,7.670630000000017 18.92084,7.185910000000035 C 18.791380000000004,7.053830000000062 17.559750000000008,6.043700000000058 16.183880000000045,4.9411700000000565 L 13.682279999999992,2.936550000000068 M 13.203219999999988,133.6447100000001 L 16.554560000000038,131.06972000000007 L 19.905910000000063,128.49475000000007 L 23.726400000000012,123.33022000000005 C 25.827670000000012,120.48974000000004 27.53340000000003,118.15221000000008 27.516910000000053,118.13570000000004" id="path5709" inkscape:connector-curvature="0" sodipodi:nodetypes="cssccccsc" style="color:#000000;clip-rule:nonzero;display:inline;overflow:visible;visibility:visible;opacity:1;isolation:auto;mix-blend-mode:normal;color-interpolation:sRGB;color-interpolation-filters:linearRGB;solid-color:#000000;solid-opacity:1;vector-effect:none;fill:black;fill-opacity:1;fill-rule:nonzero;stroke:#000000;stroke-width:5.0;stroke-linecap:round;stroke-linejoin:round;stroke-dasharray:none;stroke-dashoffset:0;stroke-opacity:1;marker:none;marker-start:none;marker-mid:none;marker-end:none;color-rendering:auto;image-rendering:auto;shape-rendering:auto;text-rendering:auto;enable-background:accumulate;"/>
	<path d="M 18.27500000000009,2.5 L 18.66802000000007,6.97311000000002 C 18.693820000000073,6.995409999999993 18.760520000000042,7.049910000000011 18.77882000000011,7.066310000000044 L 23.034200000000055,7.35955000000007 L 27.442820000000097,12.219070000000045 L 27.042080000000055,16.377440000000036 C 27.042080000000055,16.377440000000036 27.05618000000004,16.518740000000037 27.053080000000023,16.52185000000003 C 27.037180000000035,16.538050000000055 26.01990999999998,16.020100000000014 24.79254000000003,15.370920000000012 L 22.56122000000005,14.190760000000012 L 21.14625000000001,14.315890000000024 C 20.368119999999976,14.384890000000041 19.63342,14.44240000000002 19.51355000000001,14.443770000000029 C 19.336509999999976,14.445770000000039 19.072760000000017,14.729110000000048 18.10685000000001,15.952450000000056 L 16.91787999999997,17.45837000000006 L 16.872179999999958,56.203850000000045 C 16.846079999999915,78.32009000000005 16.78487999999993,97.64330000000007 16.72996999999998,101.22601000000003 C 16.677069999999958,104.67814000000004 16.600349999999935,109.95428000000004 16.559639999999945,112.95092000000005 L 16.485739999999964,118.39968000000005 L 17.567769999999996,119.99049000000002 L 18.649810000000002,121.5813 L 20.423620000000028,121.5813 L 22.197430000000054,121.5813 L 24.842160000000035,119.84330999999997 C 26.296730000000025,118.88750999999996 27.50018,118.11917 27.51666,118.13565 C 27.519660000000044,118.13864999999998 27.414499999999975,118.28465 27.34798999999998,118.37984 L 27.497920000000022,118.28284000000002 L 27.569020000000023,118.14118000000002 L 28.17095000000006,122.42743000000002 L 24.1327500000001,127.88281 L 19.886740000000145,128.50954000000002 L 19.8040400000001,128.57294000000002 L 19.27929000000006,132.73627 L 17.40185000000008,134.224 L 13.258360000000039,133.60222999999996 L 13.20326,133.64462999999995 L 11.018789999999967,133.87834999999995 C 9.817459999999983,134.00680999999997 8.677739999999972,134.11647999999997 8.485959999999977,134.12198999999998 C 8.193629999999985,134.12998999999996 3.6206999999999425,133.00277999999997 3.51400000000001,132.89607999999998 C 3.494699999999966,132.87678 3.4547999999999774,131.39247999999998 3.425799999999981,129.59706 C 3.3967999999999847,127.80162000000001 3.2762199999999666,123.78276 3.1579100000000153,120.66627 C 2.6744300000000294,107.93054000000001 2.5908000000000584,101.09249 2.5411000000000286,70.17327999999998 C 2.5,44.61207999999999 2.509900000000016,41.49928 2.6370000000000573,39.400589999999966 C 2.714800000000082,38.11640999999997 2.8763300000000527,32.94310999999999 2.995840000000044,27.90498999999994 C 3.193680000000086,19.56564999999995 3.2406200000000354,18.366519999999923 3.52170000000001,14.523689999999931 C 3.6915199999999686,12.20207999999991 3.885440000000017,8.817479999999932 3.9522000000000617,7.002349999999922 C 4.0190000000000055,5.187229999999943 4.085660000000075,3.695039999999949 4.100480000000061,3.686239999999941 C 4.115280000000098,3.6772399999999266 5.177220000000034,3.4595699999999283 6.460220000000049,3.201719999999966 L 8.792959999999994,2.7326399999999467 L 10.557410000000004,2.8351699999999482 C 11.527870000000007,2.89146999999997 12.62788999999998,2.9373899999999367 13.002050000000054,2.9371399999999426 L 13.682240000000093,2.9365799999999354 L 13.696640000000116,2.9481799999999225 L 18.27500000000009,2.5" id="path5713" inkscape:connector-curvature="0" sodipodi:nodetypes="cccccccccccccsscccccccsccccccccccccccssssssscccccccc" style="color:#000000;clip-rule:nonzero;display:inline;overflow:visible;visibility:visible;opacity:1;isolation:auto;mix-blend-mode:normal;color-interpolation:sRGB;color-interpolation-filters:linearRGB;solid-color:#000000;solid-opacity:1;vector-effect:none;fill:black;fill-opacity:1;fill-rule:nonzero;stroke:#000000;stroke-width:5.0;stroke-linecap:round;stroke-linejoin:round;stroke-dasharray:none;stroke-dashoffset:0;stroke-opacity:1;marker:none;marker-start:none;marker-mid:none;marker-end:none;color-rendering:auto;image-rendering:auto;shape-rendering:auto;text-rendering:auto;enable-background:accumulate;"/>
</svg>
