<?xml version="1.0" ?>
<svg xmlns="http://www.w3.org/2000/svg" xmlns:cc="http://creativecommons.org/ns#" xmlns:dc="http://purl.org/dc/elements/1.1/" xmlns:ev="http://www.w3.org/2001/xml-events" xmlns:inkscape="http://www.inkscape.org/namespaces/inkscape" xmlns:rdf="http://www.w3.org/1999/02/22-rdf-syntax-ns#" xmlns:sodipodi="http://sodipodi.sourceforge.net/DTD/sodipodi-0.dtd" xmlns:svg="http://www.w3.org/2000/svg" xmlns:xlink="http://www.w3.org/1999/xlink" baseProfile="full" height="113.01272999999958" id="svg1" inkscape:version="0.92.4 (5da689c313, 2019-01-14)" sodipodi:docname="e190-e2.svg" version="1.1" viewBox="0 0 38.41168999999991 113.01272999999958" width="38.41168999999991">
	<defs/>
	<path d="M 25.737999999999943,27.6701599999995 L 25.58576999999991,45.14869999999951 L 25.433529999999905,62.627259999999524 L 24.20568999999989,72.58783999999952 C 23.530379999999923,78.06616999999949 22.977849999999876,82.58431999999954 22.977849999999876,82.62817999999953 C 22.977849999999876,82.70907999999952 18.864959999999883,86.01167999999956 18.67188999999985,86.08579999999955 C 18.590389999999843,86.11709999999954 15.345559999999864,83.38486999999952 14.590119999999843,82.64894999999956 C 14.457319999999868,82.51954999999958 14.375289999999836,81.35650999999956 13.863579999999843,72.34721999999954 L 13.286729999999807,62.19135999999952 L 14.254239999999754,44.756409999999505 L 15.22175999999979,27.321479999999497 L 16.44023999999979,18.77835999999951 C 17.110409999999774,14.079639999999529 17.65905999999984,10.17305999999951 17.65945999999974,10.097119999999506 C 17.659719999999766,10.021219999999516 16.958279999999718,9.057779999999525 16.100399999999695,7.9562899999995125 L 14.540609999999674,5.953559999999527 L 12.949389999999653,5.368879999999535 L 11.358179999999606,4.784199999999544 L 9.74328999999966,5.657249999999522 C 8.855099999999652,6.1374199999995085 8.102839999999674,6.530309999999531 8.071589999999674,6.530309999999531 C 8.040389999999661,6.530309999999531 7.709519999999657,7.560049999999535 7.336429999999723,8.818619999999555 L 6.6580899999996745,11.10695999999956 L 6.363899999999717,18.342469999999537 C 6.202099999999746,22.321989999999516 5.9708399999997255,27.40210999999954 5.849989999999707,29.63160999999951 C 5.6579899999997,33.17399999999952 5.630399999999668,34.410839999999496 5.631269999999745,39.4387799999995 C 5.633269999999698,50.43146999999948 6.1335499999997865,59.40218999999951 7.590879999999743,74.57018999999951 C 8.50681999999972,84.1033799999995 9.219959999999787,89.33769999999953 10.601709999999798,96.6689899999995 C 11.458849999999757,101.21685999999949 11.469659999999749,101.2629199999995 12.319859999999835,103.99166999999949 L 13.175439999999867,106.73766999999947 L 14.829379999999901,107.67226999999946 C 15.761409999999955,108.19895999999943 16.57845999999995,108.60481999999945 16.70126999999991,108.60216999999943 C 16.821129999999926,108.59916999999945 17.527249999999867,108.23070999999942 18.270409999999856,107.78247999999945 C 19.01357999999982,107.33427999999947 19.6804699999999,106.90916999999945 19.752379999999903,106.83779999999945 C 19.82427999999993,106.76649999999944 20.58886999999993,105.50271999999944 21.45141999999987,104.02954999999946 L 23.019689999999855,101.35102999999947 L 23.827769999999873,97.07036999999946 C 24.319619999999873,94.46485999999948 24.926639999999907,90.82814999999948 25.378929999999855,87.77714999999944 C 25.787619999999833,85.02026999999941 26.66779999999983,79.23402999999945 27.33488999999986,74.91887999999943 C 28.00197999999989,70.60372999999942 28.90156999999988,64.5625099999994 29.333979999999883,61.49395999999945 C 30.792539999999917,51.14356999999944 31.683459999999855,40.62495999999942 32.003159999999866,29.980289999999457 C 32.09465999999986,26.93265999999943 32.27817999999991,23.32207999999946 32.574469999999906,18.73799999999943 C 32.81452999999988,15.023979999999426 32.99933999999996,11.893689999999424 32.98514999999986,11.78183999999942" fill="none" id="path5711" inkscape:connector-curvature="0" sodipodi:nodetypes="cccsscsscccscscccssscsssssscscscscssssssc" stroke-width="1" style="color:#000000;clip-rule:nonzero;display:inline;overflow:visible;visibility:visible;opacity:1;isolation:auto;mix-blend-mode:normal;color-interpolation:sRGB;color-interpolation-filters:linearRGB;solid-color:#000000;solid-opacity:1;vector-effect:none;fill:none;fill-opacity:1;fill-rule:nonzero;stroke:#000000;stroke-width:1;stroke-linecap:round;stroke-linejoin:round;stroke-dasharray:none;stroke-dashoffset:0;stroke-opacity:1;marker:none;marker-start:none;marker-mid:none;marker-end:none;color-rendering:auto;image-rendering:auto;shape-rendering:auto;text-rendering:auto;enable-background:accumulate;"/>
	<path d="M 32.93598999999995,11.774189999999521 L 35.91168999999991,14.962449999999535 L 35.344889999999964,22.401719999999557 L 32.15662999999995,25.094029999999577 L 35.13234,28.494839999999556 L 35.06143999999995,31.328849999999534 L 31.73147999999992,34.51710999999955 L 34.77803999999992,37.56365999999957 L 34.49463999999989,42.16892999999959 L 31.09382999999991,44.93208999999962 L 34.14038999999991,48.19119999999964 L 33.43188999999995,53.57580999999965 L 29.889369999999985,56.33896999999968 L 32.79422999999997,60.023179999999684 L 31.802329999999984,65.05354999999969 L 28.33066999999994,67.4624499999997 L 31.164679999999976,71.07581999999968 L 29.60597999999993,79.86123999999967 L 26.063459999999964,82.41184999999967 L 28.826619999999934,85.88350999999966 L 28.047269999999912,89.85111999999964 L 24.646459999999934,92.33087999999964 L 27.12621999999999,96.08593999999965 L 26.630269999999996,98.91994999999963 L 22.87519999999995,101.54140999999964 L 24.221360000000004,105.43816999999962 L 19.970350000000053,107.13857999999959 L 19.784040000000005,110.21213999999958 L 16.778130000000033,108.40857999999957 L 13.371410000000083,110.51272999999958 L 13.371410000000083,106.9056199999996 L 9.46372000000008,104.80147999999963 L 11.668060000000082,101.09417999999965 L 8.261350000000107,98.68943999999965 L 7.259380000000078,95.48312999999968 L 9.86451000000011,92.2768199999997 L 6.658190000000104,89.47128999999973 L 5.731370000000084,85.36319999999972 L 8.36155000000008,81.98152999999974 L 5.004940000000033,79.12590999999975 L 4.053060000000073,70.43378999999976 L 6.858590000000049,67.02707999999978 L 3.501980000000003,64.12135999999981 L 3.2013899999999467,59.011299999999835 L 6.157209999999964,55.60458999999986 L 2.850689999999986,52.84915999999987 L 2.6001999999999725,47.739099999999894 L 5.806519999999978,44.382489999999905 L 2.5,41.1761699999999 C 2.5,41.1761699999999 2.5,37.168279999999925 2.6503000000000156,36.91778999999991 C 2.8006000000000313,36.66728999999992 5.656219999999962,33.86176999999992 5.656219999999962,33.86176999999992 L 2.5500999999999294,30.60534999999993 L 2.850689999999986,27.449139999999943 L 6.107110000000034,24.64361999999994 L 3.1512900000000172,21.437299999999937 L 3.4017800000000307,13.972599999999943 L 6.858590000000049,11.016779999999926 L 4.203360000000089,7.91065999999995 L 7.96076000000005,6.708289999999977 L 8.060960000000023,2.9508899999999585 L 11.367470000000026,4.8045399999999745 L 14.122900000000072,2.5 L 14.523690000000101,5.756419999999991 L 18.58168000000012,6.006910000000005 L 17.62980000000016,10.064900000000023 L 20.23493000000019,13.722100000000012 L 18.68187000000023,24.894110000000012 L 15.124870000000215,27.74973 L 18.03059000000019,30.605349999999987 L 16.37734000000023,59.41208 L 13.321320000000242,62.21760999999998 L 16.5777300000002,65.32372999999995 L 17.329210000000216,79.25115999999997 L 14.473590000000172,82.55766999999997 L 18.782070000000203,82.00657999999999 L 18.631780000000163,86.21486999999996 L 18.681880000000206,81.95647999999994 L 22.840070000000196,82.85825999999992 L 20.33514000000025,79.25115999999991 L 21.988400000000297,65.0231399999999 L 25.545400000000313,62.418009999999924 L 22.43929000000037,59.46218999999991 L 22.63968000000034,30.75564999999989 L 25.84599000000037,27.6996299999999 L 32.93598999999995,11.774189999999521" fill="none" id="path5715" inkscape:connector-curvature="0" stroke-width="1" style="color:#000000;clip-rule:nonzero;display:inline;overflow:visible;visibility:visible;opacity:1;isolation:auto;mix-blend-mode:normal;color-interpolation:sRGB;color-interpolation-filters:linearRGB;solid-color:#000000;solid-opacity:1;vector-effect:none;fill:none;fill-opacity:1;fill-rule:nonzero;stroke:#000000;stroke-width:1;stroke-linecap:round;stroke-linejoin:round;stroke-dasharray:none;stroke-dashoffset:0;stroke-opacity:1;marker:none;marker-start:none;marker-mid:none;marker-end:none;color-rendering:auto;image-rendering:auto;shape-rendering:auto;text-rendering:auto;enable-background:accumulate;"/>
</svg>
