<?xml version="1.0" ?>
<svg xmlns="http://www.w3.org/2000/svg" xmlns:cc="http://creativecommons.org/ns#" xmlns:dc="http://purl.org/dc/elements/1.1/" xmlns:ev="http://www.w3.org/2001/xml-events" xmlns:inkscape="http://www.inkscape.org/namespaces/inkscape" xmlns:rdf="http://www.w3.org/1999/02/22-rdf-syntax-ns#" xmlns:sodipodi="http://sodipodi.sourceforge.net/DTD/sodipodi-0.dtd" xmlns:svg="http://www.w3.org/2000/svg" xmlns:xlink="http://www.w3.org/1999/xlink" baseProfile="full" height="210mm" id="svg1" inkscape:version="0.92.4 (5da689c313, 2019-01-14)" sodipodi:docname="example.svg" version="1.1" viewBox="0 0 297.0005143351934 210.00036367134885" width="297mm">
	<defs/>
	<path d="M 2.5,21.629385999999997 L 6.91228000000001,25.995423000000002 L 14.458799999999997,19.388112000000007 L 7.056999999999988,26.15715200000001 L 21.80213999999998,23.13176200000001 L 39.507529999999974,25.026914000000005 L 32.59771999999998,16.775416000000007 L 28.88728999999998,10.171671000000003 L 28.29742999999999,2.5 L 8.500010000000003,12.414182999999994 L 2.5,21.629385999999997" fill="none" id="path59" inkscape:connector-curvature="0" stroke-width="1" style="fill:none;stroke:#000000;stroke-width:1;stroke-linecap:round;stroke-linejoin:round;stroke-opacity:1" transform="translate(0.0,182.00031518183567)"/>
	<path d="M 2.5,24.452787999999998 L 15.383388999999994,26.982917999999998 L 25.24959899999999,28.118157999999994 L 37.694918999999985,27.893177999999992 L 50.22671899999999,27.532907999999992 L 59.608289,26.755627999999987 L 71.68093900000001,24.72930799999999 L 71.76783900000002,3.652590999999987 L 64.13627900000002,2.6718799999999874 L 56.860009000000005,4.7772529999999875 L 46.902969,8.862577999999985 L 37.93257899999999,9.182797999999991 L 28.956518999999986,9.209097999999997 L 19.031678999999983,4.956301999999994 L 11.280768999999978,2.848309999999998 L 4.12794599999998,2.5 L 2.5,24.452787999999998" fill="none" id="path63" inkscape:connector-curvature="0" stroke-width="1" style="fill:none;stroke:#000000;stroke-width:1;stroke-linecap:round;stroke-linejoin:round;stroke-opacity:1" transform="translate(30.000051953049834,0.0) rotate(90)"/>
	<path d="M 15.061589000000005,6.718478999999988 L 6.934679000000003,19.04494899999999" fill="none" id="path2" inkscape:connector-curvature="0" stroke-width="1" style="fill:none;stroke:#000000;stroke-width:1;stroke-linecap:round;stroke-linejoin:round;stroke-dasharray:2, 1, 0.5, 1;stroke-opacity:1" transform="translate(233.0004035020204,0.0) rotate(90)"/>
	<path d="M 21.738473,8.267088999999999 L 15.061589000000005,6.718478999999988" fill="none" id="path3" inkscape:connector-curvature="0" stroke-width="1" style="fill:none;stroke:#000000;stroke-width:1;stroke-linecap:round;stroke-linejoin:round;stroke-dasharray:1, 1;stroke-opacity:1" transform="translate(233.0004035020204,0.0) rotate(90)"/>
	<path d="M 27.524462,10.550528999999997 L 21.738473,8.267088999999999" fill="none" id="path4" inkscape:connector-curvature="0" stroke-width="1" style="fill:none;stroke:#000000;stroke-width:1;stroke-linecap:round;stroke-linejoin:round;stroke-dasharray:1, 1;stroke-opacity:1" transform="translate(233.0004035020204,0.0) rotate(90)"/>
	<path d="M 39.347680000000004,16.177618999999993 L 27.524462,10.550528999999997" fill="none" id="path5" inkscape:connector-curvature="0" stroke-width="1" style="fill:none;stroke:#000000;stroke-width:1;stroke-linecap:round;stroke-linejoin:round;stroke-dasharray:2, 1, 0.5, 1;stroke-opacity:1" transform="translate(233.0004035020204,0.0) rotate(90)"/>
	<path d="M 36.089285,23.020849 L 39.34767999999999,16.177618999999993" fill="none" id="path6" inkscape:connector-curvature="0" stroke-width="1" style="fill:none;stroke:#000000;stroke-width:1;stroke-linecap:round;stroke-linejoin:round;stroke-dasharray:1, 1;stroke-opacity:1" transform="translate(233.0004035020204,0.0) rotate(90)"/>
	<path d="M 2.5,25.19153899999999 L 11.303409000000002,25.289339 L 19.833502000000003,23.052559000000002 L 28.092143,23.913689000000005 L 36.089285,23.020849 L 41.844683999999994,22.563988999999992 L 42.62103399999999,20.933508999999987 L 39.34767999999999,16.177618999999993 L 38.889818999999996,10.422298999999995 L 32.279784,7.276348999999996 L 27.524462,10.550528999999997 L 26.67474,4.839897999999991 L 26.259163,4.675889999999995 L 21.738473,8.267088999999999 L 20.056057000000003,2.7441519999999997 L 19.003383,2.5 L 15.061588999999998,6.718479000000002 L 9.298230999999994,6.3763700000000085 L 4.349277999999991,13.88267900000001 L 6.9346789999999885,19.044949000000017 L 2.5,25.19153899999999" fill="none" id="path46" inkscape:connector-curvature="0" stroke-width="1" style="fill:none;stroke:#000000;stroke-width:1;stroke-linecap:round;stroke-linejoin:round;stroke-opacity:1" transform="translate(233.0004035020204,0.0) rotate(90)"/>
	<path d="M 20.881918,12.844220000000007 L 13.780819999999999,7.61545000000001" fill="none" id="path40" inkscape:connector-curvature="0" stroke-width="1" style="fill:none;stroke:#000000;stroke-width:1;stroke-linecap:round;stroke-linejoin:round;stroke-dasharray:1, 1;stroke-opacity:1" transform="translate(120.00020781219933,176.0003047912257)"/>
	<path d="M 33.56226900000001,9.770860000000027 L 28.53863100000001,16.05692000000002" fill="none" id="path41" inkscape:connector-curvature="0" stroke-width="1" style="fill:none;stroke:#000000;stroke-width:1;stroke-linecap:round;stroke-linejoin:round;stroke-dasharray:2, 1, 0.5, 1;stroke-opacity:1" transform="translate(120.00020781219933,176.0003047912257)"/>
	<path d="M 28.538631000000002,16.05692000000002 L 20.881918000000006,12.844220000000007" fill="none" id="path42" inkscape:connector-curvature="0" stroke-width="1" style="fill:none;stroke:#000000;stroke-width:1;stroke-linecap:round;stroke-linejoin:round;stroke-dasharray:2, 1, 0.5, 1;stroke-opacity:1" transform="translate(120.00020781219933,176.0003047912257)"/>
	<path d="M 37.787482000000004,28.31480000000002 L 33.56226900000001,9.770860000000027" fill="none" id="path43" inkscape:connector-curvature="0" stroke-width="1" style="fill:none;stroke:#000000;stroke-width:1;stroke-linecap:round;stroke-linejoin:round;stroke-dasharray:1, 1;stroke-opacity:1" transform="translate(120.00020781219933,176.0003047912257)"/>
	<path d="M 13.780819999999999,7.61545000000001 L 4.978572999999997,7.442180000000008" fill="none" id="path44" inkscape:connector-curvature="0" stroke-width="1" style="fill:none;stroke:#000000;stroke-width:1;stroke-linecap:round;stroke-linejoin:round;stroke-dasharray:1, 1;stroke-opacity:1" transform="translate(120.00020781219933,176.0003047912257)"/>
	<path d="M 26.990558999999998,9.98505000000003 L 25.478403,9.35056000000003 L 20.881918,12.844220000000035 L 21.522022999999997,7.106310000000036 L 19.070048,5.300840000000022 L 13.780819999999999,7.61545000000001 L 10.993030999999995,2.559600000000003 L 7.963167999999996,2.5 L 4.978572999999997,7.442219999999992 L 2.5,26.29921999999999 L 9.561912,28.14489999999998 L 20.087755,31.454009999999982 L 27.334122999999998,31.942439999999976 L 37.787482000000004,28.314839999999975 L 42.021232000000005,24.38943999999998 L 39.078632000000006,11.474739999999969 L 33.56226900000001,9.770899999999955 L 27.854147000000005,8.90447999999995 L 26.434909000000005,10.680369999999954 L 28.538631000000002,16.056959999999947" fill="none" id="path56" inkscape:connector-curvature="0" stroke-width="1" style="fill:none;stroke:#000000;stroke-width:1;stroke-linecap:round;stroke-linejoin:round;stroke-opacity:1" transform="translate(120.00020781219933,176.0003047912257)"/>
	<path d="M 20.068433000000006,27.19973300000001 L 27.134819,26.34778200000001 L 37.241966,22.504862000000003 L 31.972519,2.5 L 25.328177000000004,8.026196999999996 L 17.998471000000002,11.560570999999996 L 12.754296000000004,5.6710959999999915 L 4.451551000000002,3.324906999999996 L 2.5,23.919883 L 9.647601000000002,24.201381999999995 L 20.068433000000006,27.19973300000001" fill="none" id="path62" inkscape:connector-curvature="0" stroke-width="1" style="fill:none;stroke:#000000;stroke-width:1;stroke-linecap:round;stroke-linejoin:round;stroke-opacity:1" transform="translate(287.0004970175101,0.0) rotate(90)"/>
	<path d="M 22.130590000000012,24.015038000000004 L 31.99764000000002,23.420359000000005 L 41.72237000000001,21.428289000000007 L 38.625580000000014,2.5 L 30.23648,3.657585999999995 L 22.19604000000001,3.117644999999996 L 13.961129999999997,3.572097999999997 L 5.436209999999988,2.502141999999992 L 2.5,21.45600499999999 L 12.262159999999994,23.29919199999999 L 22.130590000000012,24.015038000000004" fill="none" id="path60" inkscape:connector-curvature="0" stroke-width="1" style="fill:none;stroke:#000000;stroke-width:1;stroke-linecap:round;stroke-linejoin:round;stroke-opacity:1" transform="translate(253.00043813738694,184.00031864537232)"/>
	<path d="M 42.53183999999999,26.405939999999987 L 39.53151,7.112179999999995" fill="none" id="path18" inkscape:connector-curvature="0" stroke-width="1" style="fill:none;stroke:#000000;stroke-width:1;stroke-linecap:round;stroke-linejoin:round;stroke-dasharray:1, 1;stroke-opacity:1" transform="translate(129.0002233981143,23.00003983067154)"/>
	<path d="M 39.53151,7.112179999999967 L 30.82933,8.177479999999974" fill="none" id="path19" inkscape:connector-curvature="0" stroke-width="1" style="fill:none;stroke:#000000;stroke-width:1;stroke-linecap:round;stroke-linejoin:round;stroke-dasharray:1, 1;stroke-opacity:1" transform="translate(129.0002233981143,23.00003983067154)"/>
	<path d="M 30.82933,8.177479999999974 L 22.426860000000005,7.704759999999965" fill="none" id="path20" inkscape:connector-curvature="0" stroke-width="1" style="fill:none;stroke:#000000;stroke-width:1;stroke-linecap:round;stroke-linejoin:round;stroke-dasharray:1, 1;stroke-opacity:1" transform="translate(129.0002233981143,23.00003983067154)"/>
	<path d="M 14.224189999999993,8.282669999999968 L 5.662710000000004,7.109949999999969" fill="none" id="path21" inkscape:connector-curvature="0" stroke-width="1" style="fill:none;stroke:#000000;stroke-width:1;stroke-linecap:round;stroke-linejoin:round;stroke-dasharray:2, 1, 0.5, 1;stroke-opacity:1" transform="translate(129.0002233981143,23.00003983067154)"/>
	<path d="M 22.426860000000005,7.704759999999965 L 14.224189999999993,8.282669999999968" fill="none" id="path22" inkscape:connector-curvature="0" stroke-width="1" style="fill:none;stroke:#000000;stroke-width:1;stroke-linecap:round;stroke-linejoin:round;stroke-dasharray:2, 1, 0.5, 1;stroke-opacity:1" transform="translate(129.0002233981143,23.00003983067154)"/>
	<path d="M 12.42425,28.405359999999973 L 22.494560000000007,28.979869999999977 L 32.56496000000001,28.257389999999987 L 42.53184000000002,26.405939999999987 L 47.028880000000015,22.785169999999994 L 44.91571000000002,9.196339999999992 L 39.531510000000026,7.112179999999995 L 36.05860000000001,2.5 L 33.087140000000005,2.8637600000000134 L 30.82933,8.177480000000003 L 28.227990000000005,3.023220000000009 L 25.5899,2.8748099999999965 L 22.426860000000005,7.704759999999993 L 19.195850000000007,2.9199999999999875 L 16.752409999999998,3.0921499999999753 L 14.224189999999993,8.282669999999968 L 12.042689999999993,2.9371699999999805 L 9.201300000000003,2.547969999999978 L 5.662710000000004,7.109949999999969 L 2.5,26.377759999999967 L 12.42425,28.405359999999973" fill="none" id="path50" inkscape:connector-curvature="0" stroke-width="1" style="fill:none;stroke:#000000;stroke-width:1;stroke-linecap:round;stroke-linejoin:round;stroke-opacity:1" transform="translate(129.0002233981143,23.00003983067154)"/>
	<path d="M 35.992999999999995,26.21464300000001 L 38.70707999999999,21.07191300000001" fill="none" id="path23" inkscape:connector-curvature="0" stroke-width="1" style="fill:none;stroke:#000000;stroke-width:1;stroke-linecap:round;stroke-linejoin:round;stroke-dasharray:1, 1;stroke-opacity:1" transform="translate(29.00005022128151,102.00017664036945) rotate(90)"/>
	<path d="M 38.70707999999999,21.07191300000001 L 27.42747,8.164663000000019" fill="none" id="path24" inkscape:connector-curvature="0" stroke-width="1" style="fill:none;stroke:#000000;stroke-width:1;stroke-linecap:round;stroke-linejoin:round;stroke-dasharray:2, 1, 0.5, 1;stroke-opacity:1" transform="translate(29.00005022128151,102.00017664036945) rotate(90)"/>
	<path d="M 27.42747,8.164663000000019 L 20.65992,7.0787630000000235" fill="none" id="path25" inkscape:connector-curvature="0" stroke-width="1" style="fill:none;stroke:#000000;stroke-width:1;stroke-linecap:round;stroke-linejoin:round;stroke-dasharray:1, 1;stroke-opacity:1" transform="translate(29.00005022128151,102.00017664036945) rotate(90)"/>
	<path d="M 20.65992,7.078763000000009 L 14.493249999999989,7.8936430000000115" fill="none" id="path26" inkscape:connector-curvature="0" stroke-width="1" style="fill:none;stroke:#000000;stroke-width:1;stroke-linecap:round;stroke-linejoin:round;stroke-dasharray:1, 1;stroke-opacity:1" transform="translate(29.00005022128151,102.00017664036945) rotate(90)"/>
	<path d="M 14.493249999999989,7.8936430000000115 L 6.406399999999991,20.951873000000006" fill="none" id="path27" inkscape:connector-curvature="0" stroke-width="1" style="fill:none;stroke:#000000;stroke-width:1;stroke-linecap:round;stroke-linejoin:round;stroke-dasharray:2, 1, 0.5, 1;stroke-opacity:1" transform="translate(29.00005022128151,102.00017664036945) rotate(90)"/>
	<path d="M 2.5,25.259293000000014 L 11.016549999999995,23.795603000000014 L 19.09464,25.332563000000007 L 27.287829999999985,27.255233000000004 L 35.992999999999995,26.21464300000001 L 41.762339999999995,25.99531300000001 L 41.781739999999985,25.958613000000014 L 38.70712999999998,21.071883000000014 L 40.57248999999999,15.608023000000017 L 33.09204,7.048153000000013 L 27.427519999999987,8.16463300000001 L 25.36937999999998,2.770435000000006 L 24.30240999999998,2.5992320000000007 L 20.659969999999987,7.078733 L 17.143069999999994,2.5 L 16.700150000000008,2.5585300000000046 L 14.493300000000005,7.893615000000011 L 8.722550000000012,7.715325000000007 L 3.6754800000000216,15.865085000000008 L 6.406450000000035,20.951845000000006 L 2.5,25.259293000000014" fill="none" id="path51" inkscape:connector-curvature="0" stroke-width="1" style="fill:none;stroke:#000000;stroke-width:1;stroke-linecap:round;stroke-linejoin:round;stroke-opacity:1" transform="translate(29.00005022128151,102.00017664036945) rotate(90)"/>
	<path d="M 13.763089999999991,17.917330000000007 L 18.198699999999988,9.696250000000006 L 25.55449999999999,5.799760000000006 L 32.96725999999998,9.586789999999993 L 37.594509999999985,17.72059 L 42.09437,28.24408000000001 L 49.47009,34.26742 L 45.530129999999986,26.895210000000006 L 42.90084999999999,14.035100000000014 L 37.86286999999999,8.368780000000001 L 32.73501999999999,3.5512700000000024 L 25.56505999999999,2.5 L 18.37617999999999,3.6618600000000043 L 13.285359999999997,8.55183000000001 L 8.336939999999998,14.296520000000001 L 5.945840000000004,27.20304 L 2.5,35.01253000000001 L 9.448229999999995,28.518010000000018 L 13.763089999999991,17.917330000000007" fill="none" id="path58" inkscape:connector-curvature="0" stroke-width="1" style="fill:none;stroke:#000000;stroke-width:1;stroke-linecap:round;stroke-linejoin:round;stroke-opacity:1" transform="translate(107.00018529921108,144.00024937463922)"/>
	<path d="M 39.402992000000026,17.091296 L 31.88547200000002,9.065894 L 12.459497000000013,2.5 L 11.602235000000007,9.609808000000001 L 8.955982000000006,17.193837000000002 L 2.5,25.848841000000007 L 22.472101999999992,23.126267000000013 L 35.30085199999999,22.832704000000007 L 27.350121999999985,16.24516100000001 L 35.78084199999999,22.206109000000012 L 39.402992000000026,17.091296" fill="none" id="path61" inkscape:connector-curvature="0" stroke-width="1" style="fill:none;stroke:#000000;stroke-width:1;stroke-linecap:round;stroke-linejoin:round;stroke-opacity:1" transform="translate(64.00011083317298,0.0) rotate(90)"/>
</svg>
