<?xml version="1.0" ?>
<svg xmlns="http://www.w3.org/2000/svg" xmlns:cc="http://creativecommons.org/ns#" xmlns:dc="http://purl.org/dc/elements/1.1/" xmlns:ev="http://www.w3.org/2001/xml-events" xmlns:inkscape="http://www.inkscape.org/namespaces/inkscape" xmlns:rdf="http://www.w3.org/1999/02/22-rdf-syntax-ns#" xmlns:sodipodi="http://sodipodi.sourceforge.net/DTD/sodipodi-0.dtd" xmlns:svg="http://www.w3.org/2000/svg" xmlns:xlink="http://www.w3.org/1999/xlink" baseProfile="full" height="32.65463861387108" id="svg2850" inkscape:export-filename=".\USSEnterprise_01.png" inkscape:export-xdpi="90" inkscape:export-ydpi="90" inkscape:output-extension="org.inkscape.output.svg.inkscape" inkscape:version="0.92.4 (5da689c313, 2019-01-14)" sodipodi:docname="harry-potter.svg" sodipodi:version="0.32" style="display:inline" version="1.1" viewBox="0 0 311.6111580164251 123.41910801642541" width="82.44711792700697">
	<defs/>
	<path d="M 121.21564900821272,78.91067900821292 L 146.73430900821273,110.62197900821286" id="path167" inkscape:connector-curvature="0" style="display:inline;opacity:1;vector-effect:none;fill:black;fill-opacity:1;stroke:#000000;stroke-width:18.897638016425528;stroke-linecap:round;stroke-linejoin:round;stroke-dasharray:none;stroke-dashoffset:0;stroke-opacity:1;marker:none"/>
	<path d="M 149.55794900821274,110.62197900821286 L 175.07659900821272,78.91067900821292" id="path168" inkscape:connector-curvature="0" style="display:inline;opacity:1;vector-effect:none;fill:black;fill-opacity:1;stroke:#000000;stroke-width:18.897638016425528;stroke-linecap:round;stroke-linejoin:round;stroke-dasharray:none;stroke-dashoffset:0;stroke-opacity:1;marker:none"/>
	<path d="M 9.448819008212752,106.06887900821278 L 40.771059008212774,69.56227900821261" id="path169" inkscape:connector-curvature="0" style="display:inline;opacity:1;vector-effect:none;fill:black;fill-opacity:1;stroke:#000000;stroke-width:18.897638016425528;stroke-linecap:round;stroke-linejoin:round;stroke-dasharray:none;stroke-dashoffset:0;stroke-opacity:1;marker:none"/>
	<path d="M 197.87652900821274,68.19297900821277 L 217.11862900821274,67.99987900821282" id="path172" inkscape:connector-curvature="0" style="display:inline;opacity:1;vector-effect:none;fill:black;fill-opacity:1;stroke:#000000;stroke-width:18.897638016425528;stroke-linecap:round;stroke-linejoin:round;stroke-dasharray:none;stroke-dashoffset:0;stroke-opacity:1;marker:none"/>
	<path d="M 79.17362900821274,67.99987900821282 L 98.41572900821274,68.19297900821277" id="path173" inkscape:connector-curvature="0" style="display:inline;opacity:1;vector-effect:none;fill:black;fill-opacity:1;stroke:#000000;stroke-width:18.897638016425528;stroke-linecap:round;stroke-linejoin:round;stroke-dasharray:none;stroke-dashoffset:0;stroke-opacity:1;marker:none"/>
	<path d="M 255.52119900821276,69.56227900821261 L 286.84346900821276,106.06887900821278" id="path176" inkscape:connector-curvature="0" style="display:inline;opacity:1;vector-effect:none;fill:black;fill-opacity:1;stroke:#000000;stroke-width:18.897638016425528;stroke-linecap:round;stroke-linejoin:round;stroke-dasharray:none;stroke-dashoffset:0;stroke-opacity:1;marker:none"/>
	<path d="M 282.0883690082128,66.8947790082126 L 278.62522900821284,27.937079008212663" id="path177" inkscape:connector-curvature="0" sodipodi:nodetypes="cc" style="display:inline;opacity:1;vector-effect:none;fill:black;fill-opacity:1;stroke:#000000;stroke-width:18.897638016425528;stroke-linecap:round;stroke-linejoin:round;stroke-dasharray:none;stroke-dashoffset:0;stroke-opacity:1;marker:none"/>
	<path d="M 278.6252290082127,27.937079008212663 L 252.32639900821272,31.995679008212505 L 219.2619490082127,42.382379008212524 L 197.17014900821272,48.32377900821268 L 174.4885090082127,55.79057900821283 L 148.20530900821268,59.68117900821301 L 121.92209900821268,55.79057900821283 L 99.12051900821268,48.32247900821278 L 77.3198790082127,42.38257900821293 L 44.0822590082127,31.99567900821296 L 17.783429008212693,27.937079008213118" id="path178" inkscape:connector-curvature="0" sodipodi:nodetypes="cccccccccc" style="display:inline;opacity:1;vector-effect:none;fill:black;fill-opacity:1;stroke:#000000;stroke-width:18.897638016425528;stroke-linecap:round;stroke-linejoin:round;stroke-dasharray:none;stroke-dashoffset:0;stroke-opacity:1;marker:none"/>
	<path d="M 286.84346900821276,106.06887900821278 L 282.0883690082128,66.8947790082126" id="path179" inkscape:connector-curvature="0" style="display:inline;opacity:1;vector-effect:none;fill:black;fill-opacity:1;stroke:#000000;stroke-width:18.897638016425528;stroke-linecap:round;stroke-linejoin:round;stroke-dasharray:none;stroke-dashoffset:0;stroke-opacity:1;marker:none"/>
	<path d="M 265.0451490082127,10.913629008212979 L 260.20334900821274,11.661669008212925 L 252.32639900821272,31.995659008212783 L 233.2356990082127,15.785499008212923 L 225.0761790082127,18.348699008212975 L 219.2619490082127,42.38237900821298 L 203.9181990082127,26.94682900821283 L 202.79905900821268,27.247609008212862 L 197.17014900821266,48.32377900821291 L 179.91971900821267,32.287589008212876 L 174.48850900821265,55.79058900821303 L 161.00999900821262,38.68510900821286 L 156.20334900821263,39.396049008213026 L 148.20530900821262,59.68118900821298 L 136.34506900821265,37.03974900821288 L 121.92209900821263,55.79058900821303 L 117.45920900821261,34.437069008212916 L 115.40452900821259,33.75932900821306 L 99.23850900821259,48.32377900821291 L 94.06431900821258,27.41351900821303 L 77.14866900821255,42.38237900821298 L 72.39475900821253,21.091359008212862 L 60.04905900821251,17.21245900821293 L 44.08225900821253,31.995659008212783 L 43.82219900821252,13.714519008212733 L 28.921239008212524,9.448819008212809 L 17.783429008212522,27.93706900821269 L 14.203349008212513,66.89408900821275 L 9.449449008212525,106.06988900821273 L 30.89475900821253,110.09328900821276 L 48.008039008212506,90.14798900821268 L 40.7717090082125,69.56208900821264 L 79.17405900821251,67.99958900821264 L 88.60569900821253,86.99368900821253 L 98.41623900821253,68.19288900821255 L 121.21506900821254,78.91168900821265 L 113.33225900821253,99.2592890082127 L 125.17209900821251,113.97028900821272 L 146.7345990082125,110.62258900821269 L 148.1467090082125,87.33548900821268 L 149.55881900821248,110.62258900821269 L 171.12131900821248,113.97028900821272 L 182.9592090082125,99.2592890082127 L 175.0763990082125,78.91168900821265 L 197.87717900821247,68.19288900821277 L 207.68772900821244,86.99368900821275 L 217.11936900821246,67.99958900821287 L 255.52170900821244,69.56208900821287 L 248.28342900821247,90.14798900821268 L 265.39670900821244,110.09328900821276 L 286.8439790082124,106.06988900821273 L 302.16233900821237,75.44878900821266 L 298.3381190082124,37.07377900821268 L 278.6252290082124,27.93706900821269 L 265.0451490082127,10.913629008212979" id="path330" inkscape:connector-curvature="0" sodipodi:nodetypes="ccccccccccccccccccccccccccccccccccccccccccccccccccccccc" style="display:inline;opacity:1;vector-effect:none;fill:black;fill-opacity:1;stroke:#000000;stroke-width:18.897638016425528;stroke-linecap:round;stroke-linejoin:round;stroke-dasharray:none;stroke-dashoffset:0;stroke-opacity:1;marker:none"/>
</svg>
