<?xml version="1.0" ?>
<svg xmlns="http://www.w3.org/2000/svg" xmlns:cc="http://creativecommons.org/ns#" xmlns:dc="http://purl.org/dc/elements/1.1/" xmlns:ev="http://www.w3.org/2001/xml-events" xmlns:inkscape="http://www.inkscape.org/namespaces/inkscape" xmlns:rdf="http://www.w3.org/1999/02/22-rdf-syntax-ns#" xmlns:sodipodi="http://sodipodi.sourceforge.net/DTD/sodipodi-0.dtd" xmlns:svg="http://www.w3.org/2000/svg" xmlns:xlink="http://www.w3.org/1999/xlink" baseProfile="full" height="29.791854918206184" id="svg2850" inkscape:export-filename=".\USSEnterprise_01.png" inkscape:export-xdpi="90" inkscape:export-ydpi="90" inkscape:output-extension="org.inkscape.output.svg.inkscape" inkscape:version="0.92.4 (5da689c313, 2019-01-14)" sodipodi:docname="harry-potter.svg" sodipodi:version="0.32" style="display:inline" version="1.1" viewBox="0 0 195.12753801642543 112.5991380164254" width="51.627493829340914">
	<defs/>
	<path d="M 20.93891900821268,99.51071900821262 L 22.063319008212602,103.15031900821259 L 185.6787190082125,48.199719008212696 L 184.9292190082126,45.77331900821264 L 184.1480190082127,43.35671900821262 L 183.3352190082128,40.95081900821265 L 182.5040190082127,38.55091900821276 L 181.6766190082128,36.14981900821272 L 180.8799190082127,33.738519008212734 L 180.13691900821277,31.31001900821275 L 179.4615190082127,28.862119008212858 L 178.85441900821274,26.395919008212786 L 178.3025190082128,23.91701900821272 L 177.78321900821288,21.431119008212818 L 177.26891900821283,18.944219008212713 L 168.25481900821273,9.448819008212695 L 13.164919008212792,46.71301900821277 L 9.448819008212695,59.26731900821278 L 10.220119008212805,62.99761900821284 L 10.999319008212751,66.72651900821279 L 11.826819008212851,70.44481900821279 L 12.737419008212783,74.14401900821281 L 13.750719008212855,77.81611900821281 L 14.865219008212762,81.4588190082128 L 16.060319008212673,85.07581900821276 L 17.30091900821276,88.67751900821281 L 18.548019008212805,92.27691900821276 L 19.767219008212805,95.88611900821275 L 20.93891900821268,99.51071900821262" fill="none" id="path316" inkscape:connector-curvature="0" stroke-width="1" style="display:inline;opacity:1;vector-effect:none;fill:none;fill-opacity:1;stroke:#000000;stroke-width:1;stroke-linecap:round;stroke-linejoin:round;stroke-dasharray:none;stroke-dashoffset:0;stroke-opacity:1;marker:none"/>
</svg>
