<?xml version="1.0" ?>
<svg xmlns="http://www.w3.org/2000/svg" xmlns:cc="http://creativecommons.org/ns#" xmlns:dc="http://purl.org/dc/elements/1.1/" xmlns:ev="http://www.w3.org/2001/xml-events" xmlns:inkscape="http://www.inkscape.org/namespaces/inkscape" xmlns:rdf="http://www.w3.org/1999/02/22-rdf-syntax-ns#" xmlns:sodipodi="http://sodipodi.sourceforge.net/DTD/sodipodi-0.dtd" xmlns:svg="http://www.w3.org/2000/svg" xmlns:xlink="http://www.w3.org/1999/xlink" baseProfile="full" height="18.600204680426707" id="svg2850" inkscape:export-filename=".\USSEnterprise_01.png" inkscape:export-xdpi="90" inkscape:export-ydpi="90" inkscape:output-extension="org.inkscape.output.svg.inkscape" inkscape:version="0.92.4 (5da689c313, 2019-01-14)" sodipodi:docname="harry-potter.svg" sodipodi:version="0.32" style="display:inline" version="1.1" viewBox="0 0 142.06755801642555 70.29998701642555" width="37.58870761863008">
	<defs/>
	<path d="M 35.149989008212856,9.448819008212766 L 30.68709900821284,9.839449008212767 L 26.360919008212818,10.999609008212765 L 22.30037900821287,12.892179008212764 L 18.630459008212824,15.462499008212767 L 15.462489008212856,18.628509008212767 L 12.892169008212818,22.298429008212764 L 10.99959900821284,26.358979008212764 L 9.839439008212821,30.68711000821277 L 9.448819008212809,35.149999008212774 L 9.839439008212821,39.61289000821277 L 10.99959900821284,43.93905900821278 L 12.892169008212818,47.999609008212786 L 15.462489008212856,51.66952800821278 L 18.630459008212824,54.837498008212776 L 22.30037900821287,57.40780800821278 L 26.360919008212818,59.30038800821278 L 30.68709900821284,60.46053800821278 L 35.149989008212856,60.85116800821278 L 39.61287900821287,60.46053800821278 L 43.940999008212884,59.30038800821278 L 47.99959900821284,57.40780800821278 L 51.66951900821289,54.837498008212776 L 54.837489008212856,51.66952800821278 L 57.407799008212805,47.999609008212786 L 59.30037900821276,43.93905900821278 L 60.4605290082128,39.61289000821279 L 60.85115900821279,35.14999900821279 L 67.39412900821276,33.25741900821279 L 74.67537900821276,33.25741900821279 L 81.21638900821279,35.14999900821279 L 81.60701900821277,39.61289000821279 L 82.76716900821282,43.93905900821278 L 84.65974900821277,47.999609008212786 L 87.23005900821272,51.66952800821278 L 90.39802900821269,54.837498008212776 L 94.06795900821271,57.40780800821278 L 98.12849900821266,59.30038800821278 L 102.4546690082127,60.46053800821278 L 106.91755900821272,60.85116800821278 L 111.38045900821271,60.46053800821278 L 115.70857900821272,59.30038800821278 L 119.76912900821276,57.40780800821278 L 123.4390490082128,54.837498008212776 L 126.60505900821283,51.66952800821278 L 129.17537900821287,47.999609008212786 L 131.0699090082129,43.93905900821278 L 132.22810900821287,39.61289000821279 L 132.61873900821286,35.14999900821279 L 132.22810900821287,30.687110008212784 L 131.0699090082129,26.358979008212785 L 129.17537900821287,22.298429008212786 L 126.60505900821283,18.628509008212788 L 123.4390490082128,15.462499008212788 L 119.76912900821276,12.892179008212786 L 115.70857900821272,10.999609008212786 L 111.38045900821271,9.839449008212789 L 106.91755900821272,9.448819008212787 L 102.4546690082127,9.839449008212789 L 98.12849900821266,10.999609008212786 L 94.06795900821271,12.892179008212786 L 90.39802900821269,15.462499008212788 L 87.23005900821272,18.628509008212788 L 84.65974900821277,22.298429008212786 L 82.76716900821282,26.358979008212785 L 81.60701900821277,30.687110008212784 L 75.07381900821281,28.75350900821278 L 66.99373900821286,28.75350900821278 L 60.4605290082128,30.687110008212784 L 59.30037900821276,26.358979008212785 L 57.407799008212805,22.298429008212786 L 54.837489008212856,18.628509008212788 L 51.66951900821289,15.462499008212788 L 47.99959900821284,12.892179008212786 L 43.940999008212884,10.999609008212786 L 39.61287900821287,9.839449008212789 L 35.149989008212856,9.448819008212766 M 35.149989008212856,14.331639008212768 L 38.76521900821285,14.64803900821277 L 42.27107900821284,15.587499008212767 L 45.55818900821282,17.120699008212767 L 48.53084900821284,19.20272900821277 L 51.097249008212884,21.76913900821277 L 53.179279008212916,24.73983900821277 L 54.71248900821297,28.02889900821277 L 55.651939008212935,31.534759008212774 L 55.968349008212954,35.149999008212774 L 55.651939008212935,38.76522900821277 L 54.71248900821297,42.269139008212775 L 53.179279008212916,45.55819900821278 L 51.097249008212884,48.530859008212786 L 48.53084900821284,51.09725900821279 L 45.55818900821282,53.177338008212786 L 42.27107900821284,54.71249800821279 L 38.76521900821285,55.64999800821279 L 35.149989008212856,55.96639800821279 L 31.534749008212884,55.64999800821279 L 28.03084900821284,54.71249800821279 L 24.741779008212802,53.177338008212786 L 21.769129008212758,51.09725900821279 L 19.20271900821274,48.530859008212786 L 17.120689008212707,45.55819900821278 L 15.587489008212742,42.269139008212775 L 14.648029008212688,38.76522900821277 L 14.331629008212644,35.149999008212774 L 14.648029008212688,31.534759008212774 L 15.587489008212742,28.028899008212775 L 17.120689008212707,24.739839008212776 L 19.20271900821274,21.769139008212775 L 21.769129008212758,19.202729008212778 L 24.741779008212802,17.120699008212775 L 28.03084900821284,15.587499008212774 L 31.534749008212884,14.648039008212777 L 35.149989008212856,14.331639008212768 M 106.91755900821283,14.331639008212768 L 110.5327990082128,14.64803900821277 L 114.03865900821279,15.587499008212767 L 117.32771900821274,17.120699008212767 L 120.2984190082127,19.20272900821277 L 122.86482900821272,21.76913900821277 L 124.94685900821275,24.73983900821277 L 126.48005900821272,28.02889900821277 L 127.41951900821277,31.534759008212774 L 127.73591900821282,35.149999008212774 L 127.41951900821277,38.76522900821277 L 126.48005900821272,42.269139008212775 L 124.94685900821275,45.55819900821278 L 122.86482900821272,48.530859008212786 L 120.2984190082127,51.09725900821279 L 117.32771900821274,53.177338008212786 L 114.03865900821279,54.71249800821279 L 110.5327990082128,55.64999800821279 L 106.91755900821283,55.96639800821279 L 103.30232900821284,55.64999800821279 L 99.79841900821282,54.71249800821279 L 96.50935900821287,53.177338008212786 L 93.53670900821282,51.09725900821279 L 90.9702990082128,48.530859008212786 L 88.89021900821285,45.55819900821278 L 87.35505900821283,42.269139008212775 L 86.41755900821283,38.76522900821277 L 86.10115900821279,35.149999008212774 L 86.41755900821283,31.534759008212774 L 87.35505900821283,28.028899008212775 L 88.89021900821285,24.739839008212776 L 90.9702990082128,21.769139008212775 L 93.53670900821282,19.202729008212778 L 96.50935900821287,17.120699008212775 L 99.79841900821282,15.587499008212774 L 103.30232900821284,14.648039008212777 L 106.91755900821283,14.331639008212768" id="path1323" inkscape:connector-curvature="0" style="display:inline;opacity:1;vector-effect:none;fill:black;fill-opacity:1;stroke:#000000;stroke-width:18.897638016425528;stroke-linecap:round;stroke-linejoin:round;stroke-dasharray:none;stroke-dashoffset:0;stroke-opacity:1;marker:none"/>
</svg>
