<?xml version="1.0" ?>
<svg xmlns="http://www.w3.org/2000/svg" xmlns:cc="http://creativecommons.org/ns#" xmlns:dc="http://purl.org/dc/elements/1.1/" xmlns:ev="http://www.w3.org/2001/xml-events" xmlns:inkscape="http://www.inkscape.org/namespaces/inkscape" xmlns:rdf="http://www.w3.org/1999/02/22-rdf-syntax-ns#" xmlns:sodipodi="http://sodipodi.sourceforge.net/DTD/sodipodi-0.dtd" xmlns:svg="http://www.w3.org/2000/svg" xmlns:xlink="http://www.w3.org/1999/xlink" baseProfile="full" height="49.25039781549244" id="svg2850" inkscape:export-filename=".\USSEnterprise_01.png" inkscape:export-xdpi="90" inkscape:export-ydpi="90" inkscape:output-extension="org.inkscape.output.svg.inkscape" inkscape:version="0.92.4 (5da689c313, 2019-01-14)" sodipodi:docname="harry-potter.svg" sodipodi:version="0.32" style="display:inline" version="1.1" viewBox="0 0 725.0724480164262 186.14323801642615" width="191.84208295931074">
	<defs/>
	<path d="M 708.5480290082128,47.98551900821286 L 622.2941290082128,26.343019008212934" fill="none" id="path253" inkscape:connector-curvature="0" stroke-width="1" style="display:inline;opacity:1;vector-effect:none;fill:none;fill-opacity:1;stroke:#000000;stroke-width:1;stroke-linecap:round;stroke-linejoin:round;stroke-dasharray:none;stroke-dashoffset:0;stroke-opacity:1;marker:none"/>
	<path d="M 431.61982900821295,70.76301900821255 L 358.99842900821295,103.87621900821233" fill="none" id="path254" inkscape:connector-curvature="0" stroke-width="1" style="display:inline;opacity:1;vector-effect:none;fill:none;fill-opacity:1;stroke:#000000;stroke-width:1;stroke-linecap:round;stroke-linejoin:round;stroke-dasharray:none;stroke-dashoffset:0;stroke-opacity:1;marker:none"/>
	<path d="M 533.5404290082129,40.81771900821269 L 431.61982900821295,70.76301900821255" fill="none" id="path255" inkscape:connector-curvature="0" stroke-width="1" style="display:inline;opacity:1;vector-effect:none;fill:none;fill-opacity:1;stroke:#000000;stroke-width:1;stroke-linecap:round;stroke-linejoin:round;stroke-dasharray:none;stroke-dashoffset:0;stroke-opacity:1;marker:none"/>
	<path d="M 622.2941290082128,26.343019008212934 L 533.5404290082129,40.817719008213146" fill="none" id="path256" inkscape:connector-curvature="0" stroke-width="1" style="display:inline;opacity:1;vector-effect:none;fill:none;fill-opacity:1;stroke:#000000;stroke-width:1;stroke-linecap:round;stroke-linejoin:round;stroke-dasharray:none;stroke-dashoffset:0;stroke-opacity:1;marker:none"/>
	<path d="M 95.70285900821284,26.342919008212732 L 9.448819008212809,47.98541900821266" fill="none" id="path257" inkscape:connector-curvature="0" stroke-width="1" style="display:inline;opacity:1;vector-effect:none;fill:none;fill-opacity:1;stroke:#000000;stroke-width:1;stroke-linecap:round;stroke-linejoin:round;stroke-dasharray:none;stroke-dashoffset:0;stroke-opacity:1;marker:none"/>
	<path d="M 358.99842900821295,103.87621900821279 L 286.37712900821293,70.763019008213" fill="none" id="path258" inkscape:connector-curvature="0" stroke-width="1" style="display:inline;opacity:1;vector-effect:none;fill:none;fill-opacity:1;stroke:#000000;stroke-width:1;stroke-linecap:round;stroke-linejoin:round;stroke-dasharray:none;stroke-dashoffset:0;stroke-opacity:1;marker:none"/>
	<path d="M 286.37712900821293,70.76301900821255 L 184.45654900821285,40.817619008212944" fill="none" id="path259" inkscape:connector-curvature="0" stroke-width="1" style="display:inline;opacity:1;vector-effect:none;fill:none;fill-opacity:1;stroke:#000000;stroke-width:1;stroke-linecap:round;stroke-linejoin:round;stroke-dasharray:none;stroke-dashoffset:0;stroke-opacity:1;marker:none"/>
	<path d="M 184.45654900821285,40.817619008212944 L 95.70285900821284,26.342919008212732" fill="none" id="path260" inkscape:connector-curvature="0" stroke-width="1" style="display:inline;opacity:1;vector-effect:none;fill:none;fill-opacity:1;stroke:#000000;stroke-width:1;stroke-linecap:round;stroke-linejoin:round;stroke-dasharray:none;stroke-dashoffset:0;stroke-opacity:1;marker:none"/>
	<path d="M 109.51350900821285,9.448819008212752 L 95.70295900821282,26.343419008212834 L 80.5213190082128,10.669519008213058 L 15.431479008212818,27.00161900821314 L 9.449059008212771,47.985919008213216 C 14.003709008212809,69.83421900821332 25.493029008212716,92.02031900821322 64.9900690082128,108.58751900821318 C 52.13077900821281,97.49791900821339 39.43251900821281,78.57791900821331 53.90412900821275,68.05041900821317 C 64.99093900821276,108.58651900821297 87.07627900821274,106.75921900821305 110.8338190082128,112.09341900821329 C 102.52070900821275,99.40591900821329 97.58911900821283,90.59541900821324 105.03498900821285,82.35311900821335 C 123.68124900821283,93.58091900821347 140.41574900821286,105.32941900821316 138.64824900821282,122.12461900821319 C 165.35694900821284,124.58121900821317 184.63584900821286,118.67951900821328 196.25952900821278,104.16561900821335 C 203.70592900821282,119.48181900821356 216.44892900821287,133.61161900821327 242.32992900821273,140.3746190082132 C 236.15262900821267,122.00391900821324 235.8341290082128,115.33101900821322 248.02132900821266,108.04061900821335 C 264.0220290082127,118.45741900821332 256.30712900821277,136.14301900821357 251.75562900821274,150.29651900821347 C 269.4826290082128,146.46241900821343 293.3930290082128,136.92451900821362 298.1560290082127,111.79261900821331 C 299.79302900821267,124.20141900821346 298.7105290082127,134.68741900821334 311.4021290082128,161.55231900821337 C 313.57072900821277,145.59461900821344 320.5163290082128,138.59281900821344 330.2146290082128,136.75351900821335 C 328.12972900821273,148.07841900821342 327.6810290082128,159.65531900821344 313.8142290082128,169.1676190082133 C 328.23342900821285,170.3266190082134 341.9090290082129,176.6944190082134 358.9978290082129,159.16561900821335 C 376.08672900821284,176.6944190082134 389.7623290082129,170.3266190082134 404.18142900821294,169.1676190082133 C 390.3147290082129,159.65531900821344 389.86792900821297,148.07841900821342 387.7830290082129,136.75351900821335 C 397.4814290082129,138.59281900821344 404.42692900821294,145.59461900821344 406.5955290082129,161.55231900821337 C 419.287129008213,134.68741900821334 418.2046290082128,124.20141900821346 419.841629008213,111.79261900821331 C 424.6046290082129,136.92451900821317 448.5131290082129,146.46241900821343 466.240029008213,150.29651900821347 C 461.68862900821296,136.14301900821357 453.973729008213,118.45741900821332 469.97442900821306,108.04061900821335 C 482.16162900821314,115.33101900821322 481.84502900821303,122.00391900821324 475.6678290082132,140.3746190082132 C 501.5487290082133,133.61161900821327 514.2918290082132,119.48181900821311 521.7381290082133,104.16561900821335 C 533.3618290082134,118.67951900821328 567.1388290082132,127.33121900821317 593.8474290082133,124.87461900821319 C 584.5800290082134,102.07941900821316 594.3145290082134,93.58091900821302 612.9607290082133,82.35311900821335 C 626.9153290082133,109.6645190082134 650.6742290082134,115.34691900821355 668.6821290082132,120.0037190082133 C 661.9539290082132,114.73811900821312 645.7054290082133,81.60821900821321 662.9889290082133,64.36621900821348 C 676.5617290082132,87.4146190082136 686.8643290082132,98.7534190082136 715.6236290082134,99.18351900821364 C 699.5385290082133,89.01861900821342 706.4627290082133,65.08881900821353 708.5486290082133,47.98591900821367 L 702.5642290082133,27.001619008213595 L 637.4764290082132,10.669519008213513 L 622.2947290082132,26.34341900821329 L 608.4842290082131,9.448819008213206 L 541.2674290082132,20.40981900821299 L 533.5408290082132,40.81801900821284 L 517.7459290082131,25.76131900821275 L 436.7615290082131,49.55621900821262 L 431.6189290082132,70.7633190082127 L 413.85142900821324,58.095319008212584 L 361.0857290082133,82.15591900821238 L 358.99782900821333,103.87661900821223 L 356.9119290082133,82.15591900821238 L 304.1443290082134,58.095319008212584 L 286.3767290082135,70.7633190082127 L 281.23612900821354,49.55621900821262 L 200.2517290082135,25.76131900821275 L 184.45684900821345,40.81801900821284 L 176.73034900821347,20.40981900821299 L 109.51350900821285,9.448819008212752" fill="none" id="path348" inkscape:connector-curvature="0" sodipodi:nodetypes="ccccccccccccccccccccccccccccccccccccccccccccccccccccc" stroke-width="1" style="display:inline;opacity:1;vector-effect:none;fill:none;fill-opacity:1;stroke:#000000;stroke-width:1;stroke-linecap:round;stroke-linejoin:round;stroke-dasharray:none;stroke-dashoffset:0;stroke-opacity:1;marker:none"/>
</svg>
