<?xml version="1.0" ?>
<svg xmlns="http://www.w3.org/2000/svg" xmlns:cc="http://creativecommons.org/ns#" xmlns:dc="http://purl.org/dc/elements/1.1/" xmlns:ev="http://www.w3.org/2001/xml-events" xmlns:inkscape="http://www.inkscape.org/namespaces/inkscape" xmlns:rdf="http://www.w3.org/1999/02/22-rdf-syntax-ns#" xmlns:sodipodi="http://sodipodi.sourceforge.net/DTD/sodipodi-0.dtd" xmlns:svg="http://www.w3.org/2000/svg" xmlns:xlink="http://www.w3.org/1999/xlink" baseProfile="full" height="81.35980743973141" id="svg2850" inkscape:export-filename=".\USSEnterprise_01.png" inkscape:export-xdpi="90" inkscape:export-ydpi="90" inkscape:output-extension="org.inkscape.output.svg.inkscape" inkscape:version="0.92.4 (5da689c313, 2019-01-14)" sodipodi:docname="harry-potter.svg" sodipodi:version="0.32" style="display:inline" version="1.1" viewBox="0 0 599.2662080164254 307.5016380164258" width="158.55584901550995">
	<defs/>
	<path d="M 484.67988900821274,33.66871900821282 L 421.7465890082128,123.32371900821302" id="path261" inkscape:connector-curvature="0" style="display:inline;opacity:1;vector-effect:none;fill:black;fill-opacity:1;stroke:#000000;stroke-width:18.897638016425528;stroke-linecap:round;stroke-linejoin:round;stroke-dasharray:none;stroke-dashoffset:0;stroke-opacity:1;marker:none"/>
	<path d="M 372.1107890082128,161.9810190082124 L 294.62088900821277,235.7954190082126" id="path262" inkscape:connector-curvature="0" style="display:inline;opacity:1;vector-effect:none;fill:black;fill-opacity:1;stroke:#000000;stroke-width:18.897638016425528;stroke-linecap:round;stroke-linejoin:round;stroke-dasharray:none;stroke-dashoffset:0;stroke-opacity:1;marker:none"/>
	<path d="M 421.7465890082128,123.32371900821256 L 372.1107890082128,161.9810190082124" id="path263" inkscape:connector-curvature="0" style="display:inline;opacity:1;vector-effect:none;fill:black;fill-opacity:1;stroke:#000000;stroke-width:18.897638016425528;stroke-linecap:round;stroke-linejoin:round;stroke-dasharray:none;stroke-dashoffset:0;stroke-opacity:1;marker:none"/>
	<path d="M 104.56180900821278,33.668619008212616 L 40.106539008212735,27.15351900821254" id="path264" inkscape:connector-curvature="0" style="display:inline;opacity:1;vector-effect:none;fill:black;fill-opacity:1;stroke:#000000;stroke-width:18.897638016425528;stroke-linecap:round;stroke-linejoin:round;stroke-dasharray:none;stroke-dashoffset:0;stroke-opacity:1;marker:none"/>
	<path d="M 167.49518900821272,123.32361900821282 L 104.56180900821278,33.668619008212616" id="path265" inkscape:connector-curvature="0" style="display:inline;opacity:1;vector-effect:none;fill:black;fill-opacity:1;stroke:#000000;stroke-width:18.897638016425528;stroke-linecap:round;stroke-linejoin:round;stroke-dasharray:none;stroke-dashoffset:0;stroke-opacity:1;marker:none"/>
	<path d="M 294.62088900821277,235.7954190082126 L 217.13098900821274,161.9810190082124" id="path266" inkscape:connector-curvature="0" style="display:inline;opacity:1;vector-effect:none;fill:black;fill-opacity:1;stroke:#000000;stroke-width:18.897638016425528;stroke-linecap:round;stroke-linejoin:round;stroke-dasharray:none;stroke-dashoffset:0;stroke-opacity:1;marker:none"/>
	<path d="M 217.13098900821274,161.9810190082124 L 167.49518900821272,123.32361900821236" id="path267" inkscape:connector-curvature="0" style="display:inline;opacity:1;vector-effect:none;fill:black;fill-opacity:1;stroke:#000000;stroke-width:18.897638016425528;stroke-linecap:round;stroke-linejoin:round;stroke-dasharray:none;stroke-dashoffset:0;stroke-opacity:1;marker:none"/>
	<path d="M 52.86230900821272,9.448819008212766 L 40.10643900821276,27.153919008212895 C 23.932019008212706,26.106419008212768 9.448819008212809,40.69661900821286 9.448819008212809,40.69661900821286 C 9.448819008212809,40.69661900821286 41.64078900821278,42.047819008212926 46.42637900821285,70.972319008213 C 37.45929900821284,96.5326190082131 45.48449900821288,113.82091900821281 45.48449900821288,113.82091900821281 C 49.399809008212856,105.38951900821287 72.84260900821289,100.2521190082128 87.47170900821288,102.41751900821266 C 74.83870900821285,133.07251900821285 95.10920900821293,188.0472190082126 125.55948900821284,250.5464190082128 C 121.84798900821283,206.909819008213 121.21278900821278,169.4240190082126 141.68848900821285,174.16171900821274 C 149.66918900821292,202.95411900821256 150.17258900821275,236.42081900821296 171.8544890082128,256.6500190082127 C 184.0515890082129,241.46561900821263 196.66848900821287,226.98321900821276 225.46968900821275,239.4722190082128 C 236.9562890082127,254.015719008213 259.04758900821275,264.3177190082127 253.58688900821267,285.6402190082129 C 274.5236890082126,298.052819008213 282.25188900821263,284.05031900821297 294.62008900821274,279.32571900821296 C 313.28498900821273,278.16171900821274 324.1434890082128,271.4210190082129 334.44468900821266,292.00101900821284 C 351.54108900821257,291.00411900821274 362.63008900821274,256.4232190082128 363.7723890082127,239.472319008213 C 397.54578900821275,224.1325190082128 408.9898890082127,240.689719008213 416.6845890082127,262.60511900821285 C 450.90398900821265,234.532119008213 442.9720890082126,203.98011900821285 447.5536890082126,174.1637190082127 C 473.61998900821254,157.51311900821275 499.80928900821255,138.03891900821264 524.0477890082125,163.4254190082127 C 521.4966890082126,144.06431900821264 513.7453890082124,123.66391900821266 501.76848900821255,102.41761900821287 C 530.9195890082126,94.66591900821307 560.0016890082125,88.64041900821287 589.8173890082126,64.21831900821265 C 567.7012890082126,60.41891900821277 545.4943890082125,56.710719008212735 549.1356890082125,27.15391900821244 L 484.68058900821256,33.66951900821262 L 462.94428900821254,31.74181900821243 L 412.5477890082125,103.5367190082123 L 421.74708900821247,123.32381900821231 L 401.5263890082124,115.11871900821218 L 369.1063890082123,140.36681900821196 L 372.11028900821225,161.98201900821215 L 351.1766890082122,155.8238190082123 L 294.6200890082123,209.6969190082121 L 294.6208890082123,235.79531900821195 L 294.6200890082123,209.6969190082121 L 238.06538900821238,155.8238190082123 L 217.1317890082123,161.98201900821215 L 220.13568900821224,140.36681900821196 L 187.7137890082122,115.11871900821218 L 167.4950890082123,123.32381900821231 L 176.6942890082123,103.5367190082123 L 126.29778900821225,31.74181900821243 L 104.56150900821228,33.66951900821262 L 95.60640900821227,13.769119008212627 L 52.86230900821272,9.448819008212766" id="path349" inkscape:connector-curvature="0" sodipodi:nodetypes="ccccccccccccccccccccccccccccccccccccccccc" style="display:inline;opacity:1;vector-effect:none;fill:black;fill-opacity:1;stroke:#000000;stroke-width:18.897638016425528;stroke-linecap:round;stroke-linejoin:round;stroke-dasharray:none;stroke-dashoffset:0;stroke-opacity:1;marker:none"/>
</svg>
