<?xml version="1.0" ?>
<svg xmlns="http://www.w3.org/2000/svg" xmlns:cc="http://creativecommons.org/ns#" xmlns:dc="http://purl.org/dc/elements/1.1/" xmlns:ev="http://www.w3.org/2001/xml-events" xmlns:inkscape="http://www.inkscape.org/namespaces/inkscape" xmlns:rdf="http://www.w3.org/1999/02/22-rdf-syntax-ns#" xmlns:sodipodi="http://sodipodi.sourceforge.net/DTD/sodipodi-0.dtd" xmlns:svg="http://www.w3.org/2000/svg" xmlns:xlink="http://www.w3.org/1999/xlink" baseProfile="full" height="65.84839274625394" id="svg2850" inkscape:export-filename=".\USSEnterprise_01.png" inkscape:export-xdpi="90" inkscape:export-ydpi="90" inkscape:output-extension="org.inkscape.output.svg.inkscape" inkscape:version="0.92.4 (5da689c313, 2019-01-14)" sodipodi:docname="harry-potter.svg" sodipodi:version="0.32" style="display:inline" version="1.1" viewBox="0 0 476.9870710164256 248.87581801642546" width="126.20282772953847">
	<defs/>
	<path d="M 141.0757520082128,40.31405900821244 L 77.28794200821278,75.6651590082123" fill="none" id="path144" inkscape:connector-curvature="0" stroke-width="1" style="display:inline;opacity:1;vector-effect:none;fill:none;fill-opacity:1;stroke:#000000;stroke-width:1;stroke-linecap:round;stroke-linejoin:round;stroke-dasharray:none;stroke-dashoffset:0;stroke-opacity:1;marker:none"/>
	<path d="M 399.7079820082128,75.67615900821272 L 335.92253200821284,40.3206590082126" fill="none" id="path145" inkscape:connector-curvature="0" stroke-width="1" style="display:inline;opacity:1;vector-effect:none;fill:none;fill-opacity:1;stroke:#000000;stroke-width:1;stroke-linecap:round;stroke-linejoin:round;stroke-dasharray:none;stroke-dashoffset:0;stroke-opacity:1;marker:none"/>
	<path d="M 187.2198920082128,32.58825900821273 L 141.07575200821282,40.314059008212894" fill="none" id="path146" inkscape:connector-curvature="0" stroke-width="1" style="display:inline;opacity:1;vector-effect:none;fill:none;fill-opacity:1;stroke:#000000;stroke-width:1;stroke-linecap:round;stroke-linejoin:round;stroke-dasharray:none;stroke-dashoffset:0;stroke-opacity:1;marker:none"/>
	<path d="M 238.4996120082128,27.070759008212804 L 187.2198920082128,32.58825900821273" fill="none" id="path147" inkscape:connector-curvature="0" stroke-width="1" style="display:inline;opacity:1;vector-effect:none;fill:none;fill-opacity:1;stroke:#000000;stroke-width:1;stroke-linecap:round;stroke-linejoin:round;stroke-dasharray:none;stroke-dashoffset:0;stroke-opacity:1;marker:none"/>
	<path d="M 335.9225320082128,40.3206590082126 L 289.7789720082128,32.59165900821279" fill="none" id="path148" inkscape:connector-curvature="0" stroke-width="1" style="display:inline;opacity:1;vector-effect:none;fill:none;fill-opacity:1;stroke:#000000;stroke-width:1;stroke-linecap:round;stroke-linejoin:round;stroke-dasharray:none;stroke-dashoffset:0;stroke-opacity:1;marker:none"/>
	<path d="M 289.7789720082128,32.59165900821279 L 238.4996120082128,27.070759008212804" fill="none" id="path149" inkscape:connector-curvature="0" stroke-width="1" style="display:inline;opacity:1;vector-effect:none;fill:none;fill-opacity:1;stroke:#000000;stroke-width:1;stroke-linecap:round;stroke-linejoin:round;stroke-dasharray:none;stroke-dashoffset:0;stroke-opacity:1;marker:none"/>
	<path d="M 395.75451200821277,217.0407590082126 L 451.55743200821274,221.4466590082128" fill="none" id="path150" inkscape:connector-curvature="0" stroke-width="1" style="display:inline;opacity:1;vector-effect:none;fill:none;fill-opacity:1;stroke:#000000;stroke-width:1;stroke-linecap:round;stroke-linejoin:round;stroke-dasharray:none;stroke-dashoffset:0;stroke-opacity:1;marker:none"/>
	<path d="M 451.5574320082128,221.4466590082128 L 440.1827920082128,171.84495900821264" fill="none" id="path151" inkscape:connector-curvature="0" stroke-width="1" style="display:inline;opacity:1;vector-effect:none;fill:none;fill-opacity:1;stroke:#000000;stroke-width:1;stroke-linecap:round;stroke-linejoin:round;stroke-dasharray:none;stroke-dashoffset:0;stroke-opacity:1;marker:none"/>
	<path d="M 372.0673620082128,183.2871590082126 L 395.75451200821277,217.0407590082126" fill="none" id="path152" inkscape:connector-curvature="0" stroke-width="1" style="display:inline;opacity:1;vector-effect:none;fill:none;fill-opacity:1;stroke:#000000;stroke-width:1;stroke-linecap:round;stroke-linejoin:round;stroke-dasharray:none;stroke-dashoffset:0;stroke-opacity:1;marker:none"/>
	<path d="M 385.8665820082128,123.16005900821244 L 329.4944520082128,79.84035900821243" fill="none" id="path153" inkscape:connector-curvature="0" sodipodi:nodetypes="cc" stroke-width="1" style="display:inline;opacity:1;vector-effect:none;fill:none;fill-opacity:1;stroke:#000000;stroke-width:1;stroke-linecap:round;stroke-linejoin:round;stroke-dasharray:none;stroke-dashoffset:0;stroke-opacity:1;marker:none"/>
	<path d="M 440.1827920082128,171.84495900821264 L 385.8665820082128,123.16005900821244" fill="none" id="path154" inkscape:connector-curvature="0" stroke-width="1" style="display:inline;opacity:1;vector-effect:none;fill:none;fill-opacity:1;stroke:#000000;stroke-width:1;stroke-linecap:round;stroke-linejoin:round;stroke-dasharray:none;stroke-dashoffset:0;stroke-opacity:1;marker:none"/>
	<path d="M 299.2449820082128,104.29395900821271 L 325.2402320082128,121.43305900821258" fill="none" id="path155" inkscape:connector-curvature="0" stroke-width="1" style="display:inline;opacity:1;vector-effect:none;fill:none;fill-opacity:1;stroke:#000000;stroke-width:1;stroke-linecap:round;stroke-linejoin:round;stroke-dasharray:none;stroke-dashoffset:0;stroke-opacity:1;marker:none"/>
	<path d="M 36.8066830082128,171.83145900821262 L 25.428611008212798,221.43225900821278" fill="none" id="path156" inkscape:connector-curvature="0" stroke-width="1" style="display:inline;opacity:1;vector-effect:none;fill:none;fill-opacity:1;stroke:#000000;stroke-width:1;stroke-linecap:round;stroke-linejoin:round;stroke-dasharray:none;stroke-dashoffset:0;stroke-opacity:1;marker:none"/>
	<path d="M 81.23182200821279,217.03015900821254 L 104.92126200821278,183.27815900821258" fill="none" id="path157" inkscape:connector-curvature="0" stroke-width="1" style="display:inline;opacity:1;vector-effect:none;fill:none;fill-opacity:1;stroke:#000000;stroke-width:1;stroke-linecap:round;stroke-linejoin:round;stroke-dasharray:none;stroke-dashoffset:0;stroke-opacity:1;marker:none"/>
	<path d="M 147.5009320082128,79.83415900821262 L 91.1261320082128,123.15015900821243" fill="none" id="path158" inkscape:connector-curvature="0" sodipodi:nodetypes="cc" stroke-width="1" style="display:inline;opacity:1;vector-effect:none;fill:none;fill-opacity:1;stroke:#000000;stroke-width:1;stroke-linecap:round;stroke-linejoin:round;stroke-dasharray:none;stroke-dashoffset:0;stroke-opacity:1;marker:none"/>
	<path d="M 91.1261320082128,123.15015900821243 L 36.8066830082128,171.83145900821262" fill="none" id="path159" inkscape:connector-curvature="0" stroke-width="1" style="display:inline;opacity:1;vector-effect:none;fill:none;fill-opacity:1;stroke:#000000;stroke-width:1;stroke-linecap:round;stroke-linejoin:round;stroke-dasharray:none;stroke-dashoffset:0;stroke-opacity:1;marker:none"/>
	<path d="M 151.7526320082128,121.42725900821267 L 177.7490520082128,104.2899590082128" fill="none" id="path160" inkscape:connector-curvature="0" stroke-width="1" style="display:inline;opacity:1;vector-effect:none;fill:none;fill-opacity:1;stroke:#000000;stroke-width:1;stroke-linecap:round;stroke-linejoin:round;stroke-dasharray:none;stroke-dashoffset:0;stroke-opacity:1;marker:none"/>
	<path d="M 90.36838200821279,117.7597190082127 L 91.12613200821278,123.15027900821269 L 70.38873200821277,116.3589190082127 L 32.31944500821277,150.47671900821268 L 36.80668300821277,171.83156900821268 L 15.948008008212767,178.24065900821267 L 9.448819008212766,206.57274900821267 L 25.42861100821277,221.43235900821264 L 81.23182200821276,217.03021900821267 L 102.96778200821277,218.9562490082127 L 114.12120200821278,203.0651490082127 L 104.92126200821278,183.2782290082127 L 151.75263200821277,121.42737900821271 L 171.26296200821278,131.2000790082127 L 179.0407620082128,126.07283900821272 L 177.7490520082128,104.29006900821275 L 238.4978120082128,79.85866900821276 L 299.2449820082128,104.29408900821278 L 297.9517820082128,126.0768190082128 L 305.7292020082128,131.20459900821277 L 325.2402320082128,121.43315900821278 L 372.0673620082128,183.28728900821278 L 362.8660620082128,203.07355900821278 L 374.0184420082128,218.96542900821277 L 395.75451200821277,217.04085900821275 L 405.1437820082128,236.73858900821273 L 439.1932720082128,239.4269990082127 L 451.5574320082128,221.44673900821272 L 467.53825200821285,206.58827900821274 L 461.0410320082128,178.25562900821274 L 440.1827920082128,171.84509900821274 L 444.6714420082128,150.49063900821272 L 406.6044020082128,116.3702890082127 L 385.8665820082128,123.1601590082127 L 386.62465200821276,117.76979900821271 L 329.49445200821276,79.84033900821271 L 389.08825200821275,119.40537900821272 C 389.08825200821275,119.40537900821272 407.20834200821275,114.67290900821274 414.1569520082127,108.84815900821275 C 420.1531920082127,103.82172900821274 425.6097220082127,96.85491900821273 426.9048020082127,89.13852900821274 C 428.0932520082127,82.05740900821274 427.1311120082127,72.97977900821274 421.7523220082127,68.22333900821275 C 418.51142200821266,65.35745900821274 412.9596720082127,65.28733900821274 408.86501200821266,66.68400900821274 C 404.81607200821264,68.06507900821273 399.70798200821264,75.67624900821275 399.70798200821264,75.67624900821275 L 399.32680200821267,53.85845900821275 L 354.62670200821265,29.081759008212742 L 335.92253200821267,40.32076900821275 L 328.28367200821265,19.880359008212736 L 303.66144200821265,15.756219008212724 L 289.77897200821263,32.59175900821273 L 280.9540320082126,12.634859008212743 L 251.37038200821263,9.449689008212744 L 238.49961200821264,27.070849008212747 L 225.6300020082126,9.448819008212752 L 196.0461720082126,12.631969008212764 L 187.2198920082126,32.58835900821276 L 173.33855200821262,15.751829008212752 L 148.71597200821262,19.874309008212748 L 141.07575200821262,40.314189008212736 L 122.37237200821261,29.073939008212733 L 77.6706220082126,53.84755900821273 L 77.2877520082126,75.66526900821273 C 77.2877520082126,75.66526900821273 72.1802120082126,68.05380900821274 68.1313920082126,66.67246900821274 C 64.0368220082126,65.27552900821274 58.4850720082126,65.34521900821275 55.2439520082126,68.21084900821273 C 49.86483500821261,72.96692900821273 48.90207400821261,82.04444900821272 50.0900320082126,89.12565900821272 C 51.3845670082126,96.8420990082127 56.8406020082126,103.80941900821273 62.83651200821261,108.83621900821271 C 69.7846920082126,114.66138900821272 87.90444200821261,119.39514900821268 87.90444200821261,119.39514900821268 L 147.5009320082126,79.83419900821269" fill="none" id="path328" inkscape:connector-curvature="0" sodipodi:nodetypes="cccccccccccccccccccccccccccccccccccccsssscccccccccccccccccccsssscc" stroke-width="1" style="display:inline;opacity:1;vector-effect:none;fill:none;fill-opacity:1;stroke:#000000;stroke-width:1;stroke-linecap:round;stroke-linejoin:round;stroke-dasharray:none;stroke-dashoffset:0;stroke-opacity:1;marker:none"/>
</svg>
