<?xml version="1.0" ?>
<svg xmlns="http://www.w3.org/2000/svg" xmlns:cc="http://creativecommons.org/ns#" xmlns:dc="http://purl.org/dc/elements/1.1/" xmlns:ev="http://www.w3.org/2001/xml-events" xmlns:inkscape="http://www.inkscape.org/namespaces/inkscape" xmlns:rdf="http://www.w3.org/1999/02/22-rdf-syntax-ns#" xmlns:sodipodi="http://sodipodi.sourceforge.net/DTD/sodipodi-0.dtd" xmlns:svg="http://www.w3.org/2000/svg" xmlns:xlink="http://www.w3.org/1999/xlink" baseProfile="full" height="64.91520628217455" id="svg2850" inkscape:export-filename=".\USSEnterprise_01.png" inkscape:export-xdpi="90" inkscape:export-ydpi="90" inkscape:output-extension="org.inkscape.output.svg.inkscape" inkscape:version="0.92.4 (5da689c313, 2019-01-14)" sodipodi:docname="harry-potter.svg" sodipodi:version="0.32" style="display:inline" version="1.1" viewBox="0 0 611.4014950164257 245.34881401642542" width="161.7666436633523">
	<defs/>
	<path d="M 137.8553360082127,165.64761500821268 L 137.62516600821272,120.6480150082126" fill="none" id="path239" inkscape:connector-curvature="0" stroke-width="1" style="display:inline;opacity:1;vector-effect:none;fill:none;fill-opacity:1;stroke:#000000;stroke-width:1;stroke-linecap:round;stroke-linejoin:round;stroke-dasharray:none;stroke-dashoffset:0;stroke-opacity:1;marker:none"/>
	<path d="M 204.03831600821275,36.46921500821246 L 121.68247600821273,81.35891500821263" fill="none" id="path240" inkscape:connector-curvature="0" stroke-width="1" style="display:inline;opacity:1;vector-effect:none;fill:none;fill-opacity:1;stroke:#000000;stroke-width:1;stroke-linecap:round;stroke-linejoin:round;stroke-dasharray:none;stroke-dashoffset:0;stroke-opacity:1;marker:none"/>
	<path d="M 489.4114960082128,80.89421500821264 L 406.9423560082128,36.2127150082125" fill="none" id="path241" inkscape:connector-curvature="0" stroke-width="1" style="display:inline;opacity:1;vector-effect:none;fill:none;fill-opacity:1;stroke:#000000;stroke-width:1;stroke-linecap:round;stroke-linejoin:round;stroke-dasharray:none;stroke-dashoffset:0;stroke-opacity:1;marker:none"/>
	<path d="M 256.9505660082127,32.07411500821273 L 204.03831600821275,36.46921500821291" fill="none" id="path242" inkscape:connector-curvature="0" stroke-width="1" style="display:inline;opacity:1;vector-effect:none;fill:none;fill-opacity:1;stroke:#000000;stroke-width:1;stroke-linecap:round;stroke-linejoin:round;stroke-dasharray:none;stroke-dashoffset:0;stroke-opacity:1;marker:none"/>
	<path d="M 406.94235600821276,36.2127150082125 L 354.0191460082128,31.95131500821263" fill="none" id="path243" inkscape:connector-curvature="0" stroke-width="1" style="display:inline;opacity:1;vector-effect:none;fill:none;fill-opacity:1;stroke:#000000;stroke-width:1;stroke-linecap:round;stroke-linejoin:round;stroke-dasharray:none;stroke-dashoffset:0;stroke-opacity:1;marker:none"/>
	<path d="M 305.4787560082127,27.191615008212565 L 256.9505660082127,32.07411500821273" fill="none" id="path244" inkscape:connector-curvature="0" stroke-width="1" style="display:inline;opacity:1;vector-effect:none;fill:none;fill-opacity:1;stroke:#000000;stroke-width:1;stroke-linecap:round;stroke-linejoin:round;stroke-dasharray:none;stroke-dashoffset:0;stroke-opacity:1;marker:none"/>
	<path d="M 354.0191460082127,31.95131500821263 L 305.4787560082127,27.191615008212565" fill="none" id="path245" inkscape:connector-curvature="0" stroke-width="1" style="display:inline;opacity:1;vector-effect:none;fill:none;fill-opacity:1;stroke:#000000;stroke-width:1;stroke-linecap:round;stroke-linejoin:round;stroke-dasharray:none;stroke-dashoffset:0;stroke-opacity:1;marker:none"/>
	<path d="M 473.5680560082127,120.22341500821277 L 473.4516460082127,165.22341500821275" fill="none" id="path246" inkscape:connector-curvature="0" stroke-width="1" style="display:inline;opacity:1;vector-effect:none;fill:none;fill-opacity:1;stroke:#000000;stroke-width:1;stroke-linecap:round;stroke-linejoin:round;stroke-dasharray:none;stroke-dashoffset:0;stroke-opacity:1;marker:none"/>
	<path d="M 38.406446008212725,140.5713150082125 L 26.420766008212723,216.7445150082127" fill="none" id="path247" inkscape:connector-curvature="0" stroke-width="1" style="display:inline;opacity:1;vector-effect:none;fill:none;fill-opacity:1;stroke:#000000;stroke-width:1;stroke-linecap:round;stroke-linejoin:round;stroke-dasharray:none;stroke-dashoffset:0;stroke-opacity:1;marker:none"/>
	<path d="M 121.68247600821273,81.35891500821263 L 38.406446008212725,140.5713150082125" fill="none" id="path248" inkscape:connector-curvature="0" stroke-width="1" style="display:inline;opacity:1;vector-effect:none;fill:none;fill-opacity:1;stroke:#000000;stroke-width:1;stroke-linecap:round;stroke-linejoin:round;stroke-dasharray:none;stroke-dashoffset:0;stroke-opacity:1;marker:none"/>
	<path d="M 585.0150260082128,216.03851500821256 L 572.8368160082127,139.89591500821288" fill="none" id="path249" inkscape:connector-curvature="0" stroke-width="1" style="display:inline;opacity:1;vector-effect:none;fill:none;fill-opacity:1;stroke:#000000;stroke-width:1;stroke-linecap:round;stroke-linejoin:round;stroke-dasharray:none;stroke-dashoffset:0;stroke-opacity:1;marker:none"/>
	<path d="M 572.8368160082127,139.89591500821288 L 489.4114960082127,80.8942150082131" fill="none" id="path250" inkscape:connector-curvature="0" stroke-width="1" style="display:inline;opacity:1;vector-effect:none;fill:none;fill-opacity:1;stroke:#000000;stroke-width:1;stroke-linecap:round;stroke-linejoin:round;stroke-dasharray:none;stroke-dashoffset:0;stroke-opacity:1;marker:none"/>
	<path d="M 318.1812460082127,9.448819008212764 L 305.47811600821274,27.191006008212767 L 292.73202600821276,9.482022008212764 L 265.9136660082128,12.179287008212766 L 256.95077600821276,32.073819008212766 L 244.51327600821276,14.144131008212765 L 213.34725600821275,16.733975008212767 L 204.03866600821277,36.46835000821277 L 185.41366600821277,25.097256008212767 L 122.21834600821275,59.54452500821277 L 121.68319600821276,81.35897500821277 L 101.83944600821276,72.28084500821276 L 36.34725600821277,118.84725500821277 L 38.40584600821276,140.57186500821277 L 18.042569008212766,148.41170500821278 L 9.448819008212766,203.0288950082128 L 26.421476008212764,216.7437450082128 C 35.24095600821276,220.64974500821282 41.28459600821276,225.83755500821283 55.71053600821277,227.15584500821282 C 56.77119600821278,216.1956550082128 56.05476600821278,209.0686750082128 59.23202600821277,199.6714750082128 C 60.01948600821278,197.34243500821282 61.131516008212756,194.4882350082128 62.89803600821277,191.8081950082128 L 68.43124600821277,188.0249950082128 L 83.03084600821278,183.3199150082128 C 85.22274600821278,183.5538950082128 87.61055600821278,184.0085150082128 90.23006600821277,184.7437450082128 C 90.32526600821278,183.46135500821282 90.58485600821278,182.1213350082128 90.98983600821278,180.7535050082128 L 137.85506600821276,165.64803500821282 L 156.6968660082128,154.6402250082128 L 156.66756600821276,142.0679550082128 L 137.6245960082128,120.64803500821283 C 147.43570600821278,131.6965350082128 159.86751600821276,145.97374500821283 189.09139600821277,154.1226450082128 C 182.00293600821277,139.5287450082128 176.19382600821274,125.01395500821282 183.94295600821278,111.3472550082128 C 188.51862600821278,124.6724550082128 202.26496600821275,131.7038550082128 216.71639600821277,136.5640550082128 C 213.00408600821277,121.53795500821279 213.70663600821274,103.8257750082128 213.70663600821274,103.8257750082128 C 213.55659600821275,102.1939850082128 213.53181600821273,100.57098500821279 213.58944600821275,98.95467500821279 L 217.34139600821277,98.68905500821278 C 217.32129600821276,100.04241500821279 217.32349600821277,101.38191500821277 217.37259600821278,102.68905500821278 L 217.9936960082128,119.22030500821278 L 221.5854860082128,102.38241500821276 C 221.87552600821277,101.02227500821276 222.19128600821278,99.66976500821276 222.5190860082128,98.32186500821275 L 229.20853600821283,97.84725500821274 C 228.82242600821286,101.11571500821275 228.48786600821285,104.29204500821275 228.2358760082128,107.23006500821275 C 229.2535560082128,104.06512500821275 230.3354360082128,100.87415500821275 231.4936960082128,97.68514500821276 L 254.05814600821282,96.08163500821276 L 290.8042360082128,94.15389500821276 C 293.0894360082128,96.07776500821275 295.5520560082128,97.85005500821275 298.2124360082128,99.42928500821274 L 316.8921260082128,110.51717500821273 L 309.3843160082128,98.94881500821272 C 308.3764460082128,97.39586500821271 307.3634660082128,95.50614500821273 306.39603600821283,93.42147500821271 L 319.46048600821285,94.07381500821272 C 331.20747600821284,101.55851500821272 344.68666600821285,104.78909500821273 353.8882260082129,106.64803500821272 C 349.1681660082129,105.31224500821271 344.1207260082129,101.2771150082127 339.12650600821286,95.05428500821272 L 351.88236600821284,95.69100500821271 C 356.50643600821286,99.07320500821272 361.43402600821287,101.9545050082127 366.64017600821285,104.15584500821272 L 378.3784560082128,108.37460500821273 L 375.03861600821284,103.80038500821273 C 373.69976600821286,101.67898500821273 372.48277600821285,99.36460500821273 371.34134600821284,96.92733500821272 L 375.11673600821285,97.18710500821273 C 375.9808760082129,99.26129500821271 376.82935600821287,101.40402500821271 377.66361600821284,103.67538500821273 C 380.85174600821284,112.35538500821274 383.23766600821284,119.23456500821273 384.75736600821284,129.0093650082127 C 389.1674960082128,123.93916500821273 393.35633600821285,117.28146500821272 396.39017600821285,110.72616500821273 C 397.82155600821284,107.63333500821274 399.2797960082128,102.58476500821273 400.26517600821285,98.90975500821274 L 403.6206460082129,99.13827500821274 C 404.22286600821286,100.53731500821276 404.7630160082129,102.00330500821273 404.96048600821285,103.13045500821273 C 407.40958600821284,117.10925500821274 402.91361600821284,145.6558450082127 402.91361600821284,145.6558450082127 C 425.53124600821286,147.0145450082127 447.6022760082128,136.3502550082127 469.5600960082129,123.1929550082127 L 473.56790600821284,120.2242050082127 L 454.63431600821286,134.3472550082127 L 454.5816160082129,154.2632750082127 L 473.4507560082129,165.2242050082127 L 512.6128660082129,177.7378850082127 C 512.7923660082129,179.38534500821268 512.8244160082129,180.9830050082127 512.6987660082129,182.4839750082127 C 515.303136008213,181.27772500821268 517.988436008213,180.5736050082127 520.6362660082129,180.3003850082127 L 538.7729860082129,186.09530500821268 C 540.5758660082129,187.8302050082127 541.9690460082129,189.88141500821268 542.7925160082129,192.16952500821267 C 547.751076008213,205.94742500821266 541.4123060082129,224.50499500821266 535.474156008213,235.89999500821264 C 553.4620060082129,234.92959500821266 565.7584760082129,227.79426500821265 585.015176008213,216.03866500821263 L 601.952676008213,202.28084500821265 L 593.2202560082129,147.68514500821266 L 572.8374360082129,139.89608500821265 L 574.8413460082129,118.16756500821266 L 509.2319760082129,71.76522500821265 L 489.41165600821284,80.89413500821264 L 488.8198660082129,59.08163500821264 L 425.5366560082129,24.79452200821264 L 406.9429060082129,36.21249100821264 L 397.5835360082129,16.49960000821264 L 366.4116560082129,13.989834008212638 L 354.0190860082129,31.95077200821264 L 345.0054060082129,12.079678008212637 L 318.1812460082127,9.448819008212764" fill="none" id="path346" inkscape:connector-curvature="0" stroke-width="1" style="display:inline;opacity:1;vector-effect:none;fill:none;fill-opacity:1;stroke:#000000;stroke-width:1;stroke-linecap:round;stroke-linejoin:round;stroke-dasharray:none;stroke-dashoffset:0;stroke-opacity:1;marker:none"/>
</svg>
